version 1
nodes
0 "Box01" -1
1 "Bip01" -1
2 "Bip01 Footsteps" 1
3 "Bip01 Pelvis" 1
4 "Bip01 Spine" 3
5 "Bip01 L Thigh" 4
6 "Bip01 L Calf" 5
7 "Bip01 L HorseLink" 6
8 "Bip01 L Foot" 7
9 "Bip01 L Toe0" 8
10 "Bip01 L Toe01" 9
11 "Bip01 L Toe02" 10
12 "Bip01 L Toe0Nub" 11
13 "Bip01 R Thigh" 4
14 "Bip01 R Calf" 13
15 "Bip01 R HorseLink" 14
16 "Bip01 R Foot" 15
17 "Bip01 R Toe0" 16
18 "Bip01 R Toe01" 17
19 "Bip01 R Toe02" 18
20 "Bip01 R Toe0Nub" 19
21 "Bip01 Spine1" 4
22 "Bip01 Neck" 21
23 "Bip01 Neck1" 22
24 "Bip01 Head" 23
25 "Bip01 HeadNub" 24
26 "Bone02" 24
27 "Bone03" 24
28 "Bone04" 24
29 "Bone05" 24
30 "Bone06" 24
31 "Bip01 L Clavicle" 22
32 "Bip01 L UpperArm" 31
33 "Bip01 L Forearm" 32
34 "Bip01 L Hand" 33
35 "Bip01 L Finger0" 34
36 "Bip01 L Finger01" 35
37 "Bip01 L Finger0Nub" 36
38 "Bip01 L Finger1" 34
39 "Bip01 L Finger11" 38
40 "Bip01 L Finger1Nub" 39
41 "Bip01 L Finger2" 34
42 "Bip01 L Finger21" 41
43 "Bip01 L Finger2Nub" 42
44 "Box02" 32
45 "Box04" 44
46 "Bip01 R Clavicle" 22
47 "Bip01 R UpperArm" 46
48 "Bip01 R Forearm" 47
49 "Bip01 R Hand" 48
50 "Bip01 R Finger0" 49
51 "Bip01 R Finger01" 50
52 "Bip01 R Finger0Nub" 51
53 "Bip01 R Finger1" 49
54 "Bip01 R Finger11" 53
55 "Bip01 R Finger1Nub" 54
56 "Bip01 R Finger2" 49
57 "Bip01 R Finger21" 56
58 "Bip01 R Finger2Nub" 57
59 "Box03" 47
60 "Box05" 59
61 "Bone09" 21
62 "Bone08" 21
63 "Bone07" 21
64 "Bip01 Tail" 4
65 "Bip01 Tail1" 64
66 "Bip01 Tail2" 65
67 "Bip01 Tail3" 66
68 "Bip01 Tail4" 67
69 "Bip01 TailNub" 68
70 "Bone10" 68
71 "Object01" -1
72 "Object02" -1
end
skeleton
time 0
0 88.799866 -0.000001 32.090240 1.570796 0.000000 0.000000
1 0.056815 31.013531 125.479889 0.000000 1.047198 -1.570795
2 57.863796 -0.000002 -33.407677 -1.047198 -0.000001 1.570796
3 0.578574 -0.000000 1.002115 -1.570795 -1.570796 0.000000
4 19.667530 -0.015390 0.000027 -0.000004 -0.000001 0.000796
5 -19.667507 0.030958 34.045998 -0.000003 -3.141592 0.154866
6 48.144661 -0.000001 -0.000001 0.000000 0.000000 -0.002013
7 8.787695 0.000005 -0.000002 -0.000000 0.000000 0.976145
8 37.448326 -0.000012 0.000003 0.000001 0.000000 -1.516600
9 10.603357 10.781821 -0.000001 -0.000000 -0.000000 1.570796
10 1.115359 -0.000003 0.000002 0.000000 0.000000 0.000000
11 1.115359 -0.000002 0.000001 0.000000 0.000000 0.000000
12 1.115359 -0.000002 0.000001 0.000000 0.000000 3.141593
13 -19.667507 0.031144 -34.045998 -3.141592 -0.000003 1.482765
14 48.144657 0.000004 -0.000002 -0.000000 -0.000000 -0.063632
15 8.787696 -0.000000 -0.000002 0.000000 -0.000000 1.390186
16 37.448330 -0.000008 -0.000001 0.000000 0.000000 -2.286454
17 10.603358 10.781816 -0.000002 0.000000 -0.000000 1.570796
18 1.115361 -0.000001 -0.000004 0.000000 0.000000 0.000000
19 1.115358 0.000004 0.000001 0.000000 0.000000 0.000000
20 1.115360 -0.000005 0.000003 0.000000 0.000000 0.000000
21 19.338167 -0.014462 -0.000000 -0.000000 -0.000001 0.349066
22 19.331417 -0.025932 -0.000000 -0.000000 0.000000 -0.057267
23 32.607124 -0.028570 -0.000000 -0.000000 0.000000 -0.144533
24 36.268288 -0.000003 -0.000000 -0.000001 0.000002 -0.671663
25 19.745602 -0.000003 -0.000000 0.000000 0.000000 0.000000
26 34.015541 78.836723 -0.056887 -0.000002 0.000000 -2.646049
27 46.423187 -0.561249 -0.057013 -0.000002 0.000000 -2.646049
28 48.038681 -49.315125 -0.057086 -0.000002 0.000000 -2.646049
29 18.660093 16.327126 10.634688 -0.000002 0.000000 -2.646049
30 18.660084 16.327164 -10.216352 -0.000002 0.000000 -2.646049
31 -7.090734 -8.295793 21.507050 -0.567210 -0.374705 -2.856060
32 67.635147 0.000001 -0.000001 -1.085584 -2.628034 0.169317
33 65.342247 0.000001 0.000009 -0.000000 0.000000 -0.149045
34 3.535512 0.000003 -0.000003 -2.006332 0.523599 0.000000
35 1.080034 0.049223 -0.517037 -0.000000 0.000796 1.570796
36 45.434570 0.000010 -0.000001 0.000000 -0.000000 0.261799
37 59.196026 0.000000 0.000002 0.000000 0.000000 0.000000
38 1.079212 0.000007 0.000004 0.000342 -0.173811 2.007069
39 112.200348 0.000009 -0.000002 0.000000 0.000000 0.000000
40 2.065482 0.000001 -0.000002 0.000000 0.000000 0.000000
41 1.078219 -0.061242 0.098178 0.000520 -0.173923 2.268837
42 112.891388 0.000001 0.000016 0.000000 0.000000 0.000000
43 1.721237 0.000002 -0.000002 0.000000 0.000000 0.000000
44 -0.726298 -2.959895 -3.646899 -1.990524 1.432494 -0.499779
45 0.272713 38.404099 1.817644 -0.000000 -0.000000 0.000000
46 -7.090734 -8.295675 -21.507095 0.567205 0.374706 -2.856061
47 67.635139 0.000001 -0.000002 1.085584 2.628034 0.169317
48 65.342247 0.000010 -0.000010 -0.000000 -0.000000 -0.149045
49 3.535513 -0.000002 0.000001 2.006332 -0.523599 0.000000
50 1.080034 0.049229 0.517055 -0.000000 -0.000796 1.570796
51 45.434563 0.000013 -0.000027 0.000000 -0.000000 0.261799
52 59.196026 0.000005 0.000010 0.000000 0.000000 3.141593
53 1.079216 0.000002 0.000001 -0.000342 0.173811 2.007069
54 112.200348 -0.000004 0.000003 0.000000 0.000000 0.000000
55 2.065482 0.000003 0.000006 0.000000 0.000000 3.141593
56 1.078217 -0.061240 -0.098179 -0.000520 0.173923 2.268838
57 112.891380 0.000000 -0.000001 0.000000 0.000000 0.000000
58 1.721238 -0.000000 -0.000000 0.000000 0.000000 3.141593
59 -0.114826 -2.044660 3.888005 1.151061 1.432497 2.641807
60 0.845748 38.795277 0.842526 -0.000000 -0.000000 0.000000
61 9.521307 -35.732071 -0.056959 -0.000002 -0.000002 2.763674
62 41.908100 25.045692 28.730310 -0.000002 -0.000002 2.763674
63 41.908016 25.045834 -28.756018 -0.000002 -0.000002 2.763674
64 -48.037945 -11.100415 -0.000032 -0.000006 0.000000 -3.099093
65 38.901497 -0.030353 0.000000 -0.000000 0.000000 -0.132033
66 38.465572 -0.031019 0.000000 -0.000000 0.000001 -0.219299
67 39.937439 -0.025155 0.000000 -0.000000 -0.000001 0.478832
68 35.603996 -0.038737 0.000000 -0.000000 -0.000001 0.391566
69 52.623203 -0.000002 0.000000 -3.141593 -0.000003 1.570000
70 70.786995 12.086710 -0.056412 0.000002 0.000001 -1.026751
71 88.799866 -0.000001 32.090240 1.570796 0.000000 0.000000
72 88.799866 -0.000001 32.090240 1.570796 0.000000 0.000000
time 1
0 88.799866 -0.000001 32.090240 1.570796 0.000000 0.000000
1 0.056815 31.013531 93.064133 0.000000 1.047198 -1.570795
2 30.416662 -0.000001 -17.561068 -1.047198 -0.000001 1.570796
3 0.578573 -0.000000 1.002114 -1.570795 -1.570796 0.000000
4 19.667528 -0.015391 0.000027 -0.000004 -0.000001 0.000796
5 -19.667507 0.030960 34.045998 -0.000003 -3.141592 -0.260064
6 48.144653 -0.000006 0.000002 0.000000 -0.000000 -0.002013
7 8.787699 0.000001 0.000002 -0.000000 -0.000000 1.356479
8 37.448334 0.000001 -0.000001 0.000001 0.000000 -1.496166
9 10.603355 10.781816 -0.000001 -0.000000 0.000000 1.832595
10 1.115359 0.000001 -0.000002 -0.000000 0.000000 0.261799
11 1.115363 0.000001 -0.000001 0.000000 0.000000 0.261799
12 1.115360 0.000000 0.000001 0.000000 0.000000 3.141593
13 -19.667507 0.031146 -34.045998 -0.000001 -3.141590 -1.069101
14 48.144657 0.000000 -0.000003 -0.000000 0.000000 -0.002013
15 8.787692 0.000000 0.000003 0.000000 -0.000000 0.837889
16 37.448334 0.000003 -0.000003 0.000000 0.000000 -0.876443
17 10.603357 10.781816 0.000000 0.000000 -0.000000 1.570796
18 1.115359 0.000000 -0.000002 0.000000 0.000000 0.000000
19 1.115361 -0.000000 0.000003 0.000000 0.000000 0.000000
20 1.115361 0.000000 0.000001 0.000000 0.000000 0.000000
21 19.338171 -0.014467 -0.000000 -0.000000 -0.000001 0.349066
22 19.326939 -0.025267 -0.000000 -0.000000 0.000001 -0.231799
23 32.607128 -0.028578 -0.000000 -0.000000 0.000000 -0.144533
24 36.268291 0.000000 -0.000000 -0.000000 0.000001 -0.497130
25 19.745596 -0.000003 -0.000000 0.000000 0.000000 0.000000
26 34.015530 78.836723 -0.056887 -0.000002 0.000000 -2.646049
27 46.423183 -0.561249 -0.057013 -0.000002 0.000000 -2.646049
28 48.038673 -49.315125 -0.057086 -0.000002 0.000000 -2.646049
29 18.660089 16.327126 10.634688 -0.000002 0.000000 -2.646049
30 18.660078 16.327164 -10.216352 -0.000002 0.000000 -2.646049
31 -5.537953 -9.400673 21.507046 -0.560067 -0.344649 -2.701819
32 67.635147 -0.000000 -0.000002 -1.078836 -2.663088 0.166105
33 65.342247 0.000001 0.000009 -0.000000 0.000000 -0.149045
34 3.535512 0.000005 -0.000003 -2.006332 0.523599 0.000000
35 1.080032 0.049216 -0.517047 -0.000000 0.000796 1.570796
36 45.434574 0.000004 0.000001 0.000000 -0.000000 0.261799
37 59.196018 0.000005 0.000011 0.000000 0.000000 0.000000
38 1.079210 0.000000 -0.000006 0.000342 -0.173811 2.007069
39 112.200348 0.000010 0.000001 0.000000 0.000000 0.000000
40 2.065484 0.000000 0.000002 0.000000 0.000000 0.000000
41 1.078221 -0.061245 0.098174 0.000520 -0.173923 2.268837
42 112.891380 0.000012 0.000009 0.000000 0.000000 0.000000
43 1.721234 0.000001 -0.000001 0.000000 0.000000 0.000000
44 -0.726298 -2.959902 -3.646903 -1.990524 1.432494 -0.499779
45 0.272710 38.404095 1.817653 -0.000000 -0.000000 0.000000
46 -5.537953 -9.400556 -21.507099 0.560061 0.344652 -2.701821
47 67.635139 -0.000000 0.000005 1.078837 2.663088 0.166104
48 65.342247 -0.000001 -0.000006 -0.000000 -0.000000 -0.149045
49 3.535513 0.000005 0.000002 2.006332 -0.523599 0.000000
50 1.080031 0.049220 0.517042 -0.000000 -0.000796 1.570796
51 45.434570 0.000010 -0.000001 0.000000 -0.000000 0.261799
52 59.196018 0.000009 -0.000001 0.000000 0.000000 3.141593
53 1.079221 0.000002 -0.000001 -0.000342 0.173811 2.007069
54 112.200356 0.000005 0.000011 0.000000 0.000000 0.000000
55 2.065485 0.000004 -0.000001 0.000000 0.000000 3.141593
56 1.078212 -0.061240 -0.098177 -0.000520 0.173923 2.268838
57 112.891365 0.000010 -0.000006 0.000000 0.000000 0.000000
58 1.721241 0.000001 0.000002 0.000000 0.000000 3.141593
59 -0.114826 -2.044658 3.888002 1.151061 1.432497 2.641807
60 0.845744 38.795277 0.842512 -0.000000 -0.000000 0.000000
61 9.521310 -35.732082 -0.056959 -0.000002 -0.000002 2.763674
62 41.908104 25.045687 28.730310 -0.000002 -0.000002 2.763674
63 41.908020 25.045830 -28.756018 -0.000002 -0.000002 2.763674
64 -48.040630 -11.100650 -0.000032 -0.000006 0.000000 -3.011827
65 38.904167 -0.030599 0.000000 -0.000000 0.000000 -0.044766
66 38.465572 -0.031031 0.000000 -0.000000 0.000001 -0.219299
67 39.928051 -0.028098 0.000000 -0.000000 -0.000000 0.129766
68 35.597015 -0.040924 0.000000 -0.000000 -0.000001 0.217033
69 52.623219 0.000001 0.000000 -3.141593 -0.000003 1.570000
70 70.786980 12.086711 -0.056411 0.000002 0.000001 -1.026751
71 88.799866 -0.000001 32.090240 1.570796 0.000000 0.000000
72 88.799866 -0.000001 32.090240 1.570796 0.000000 0.000000
time 2
0 88.799866 -0.000001 32.090240 1.570796 0.000000 0.000000
1 0.056815 31.013531 106.386780 0.000000 1.047198 -1.570795
2 91.248116 -0.000003 -52.682121 -1.047198 -0.000001 1.570796
3 0.578573 -0.000000 1.002114 -1.570795 -1.570796 0.000000
4 19.667528 -0.015392 0.000027 -0.000004 -0.000001 0.000796
5 -19.667507 0.030961 34.045998 -0.000002 -3.141590 -0.871866
6 48.144661 -0.000003 -0.000003 -0.000000 -0.000000 -0.002264
7 8.787699 0.000002 0.000000 0.000000 -0.000000 1.611407
8 37.448334 0.000007 0.000001 0.000000 -0.000000 -2.199020
9 10.603357 10.781816 -0.000001 -0.000000 -0.000000 1.570796
10 1.115360 -0.000001 0.000001 0.000000 0.000000 0.000000
11 1.115360 -0.000001 -0.000002 0.000000 0.000000 0.000000
12 1.115360 -0.000001 0.000003 0.000000 0.000000 3.141593
13 -19.667507 0.031147 -34.045998 -0.000003 -3.141592 -0.373679
14 48.144669 -0.000004 -0.000000 -0.000000 -0.000000 0.003122
15 8.787695 0.000002 -0.000001 -0.000000 -0.000000 0.828255
16 37.448338 -0.000004 -0.000003 -0.000000 0.000000 -1.079964
17 10.603355 10.781813 -0.000002 0.000000 -0.000000 1.570796
18 1.115362 0.000002 -0.000003 0.000000 0.000000 0.000000
19 1.115362 -0.000001 0.000002 0.000000 0.000000 0.000000
20 1.115363 -0.000001 -0.000000 0.000000 0.000000 0.000000
21 19.338169 -0.014458 -0.000000 -0.000000 -0.000001 0.349066
22 19.328688 -0.025625 -0.000000 -0.000000 0.000000 -0.163143
23 32.607124 -0.028585 -0.000000 -0.000000 0.000000 -0.144533
24 36.268291 -0.000004 -0.000000 -0.000000 0.000001 -0.565786
25 19.745602 -0.000003 -0.000000 0.000000 0.000000 0.000000
26 34.015533 78.836716 -0.056887 -0.000002 0.000000 -2.646049
27 46.423187 -0.561249 -0.057013 -0.000002 0.000000 -2.646049
28 48.038677 -49.315125 -0.057086 -0.000002 0.000000 -2.646049
29 18.660093 16.327126 10.634687 -0.000002 0.000000 -2.646049
30 18.660084 16.327164 -10.216352 -0.000002 0.000000 -2.646049
31 -6.171599 -8.998546 21.507048 -0.553639 -0.314467 -2.790334
32 67.635147 -0.000004 -0.000002 -1.072330 -2.698160 0.163210
33 65.342247 0.000003 0.000009 -0.000000 0.000000 -0.149045
34 3.535511 -0.000004 -0.000003 -2.006332 0.523599 0.000000
35 1.080034 0.049224 -0.517041 -0.000000 0.000796 1.570796
36 45.434574 0.000007 -0.000004 0.000000 -0.000000 0.261799
37 59.196022 0.000004 0.000011 0.000000 0.000000 0.000000
38 1.079212 0.000009 0.000000 0.000342 -0.173811 2.007069
39 112.200340 0.000005 0.000008 0.000000 0.000000 0.000000
40 2.065484 0.000001 -0.000006 0.000000 0.000000 0.000000
41 1.078219 -0.061241 0.098174 0.000520 -0.173923 2.268837
42 112.891380 0.000007 0.000015 0.000000 0.000000 0.000000
43 1.721238 0.000001 -0.000003 0.000000 0.000000 0.000000
44 -0.726297 -2.959894 -3.646899 -1.990524 1.432494 -0.499779
45 0.272715 38.404099 1.817647 -0.000000 -0.000000 0.000000
46 -6.171599 -8.998428 -21.507097 0.553634 0.314469 -2.790335
47 67.635147 -0.000003 0.000001 1.072330 2.698160 0.163210
48 65.342247 0.000011 -0.000010 -0.000000 -0.000000 -0.149045
49 3.535512 0.000007 0.000002 2.006332 -0.523599 0.000000
50 1.080029 0.049220 0.517050 -0.000000 -0.000796 1.570796
51 45.434574 0.000006 -0.000008 0.000000 -0.000000 0.261799
52 59.196018 0.000008 0.000002 0.000000 0.000000 3.141593
53 1.079220 0.000002 0.000006 -0.000342 0.173811 2.007069
54 112.200348 -0.000003 -0.000005 0.000000 0.000000 0.000000
55 2.065485 0.000005 -0.000002 0.000000 0.000000 3.141593
56 1.078214 -0.061236 -0.098175 -0.000520 0.173923 2.268838
57 112.891365 0.000007 -0.000004 0.000000 0.000000 0.000000
58 1.721235 -0.000002 -0.000003 0.000000 0.000000 3.141593
59 -0.114826 -2.044659 3.888005 1.151061 1.432497 2.641807
60 0.845747 38.795277 0.842528 -0.000000 -0.000000 0.000000
61 9.521307 -35.732075 -0.056959 -0.000002 -0.000002 2.763674
62 41.908100 25.045689 28.730310 -0.000002 -0.000002 2.763674
63 41.908020 25.045832 -28.756018 -0.000002 -0.000002 2.763674
64 -48.043293 -11.101117 -0.000032 -0.000005 0.000001 -2.924560
65 38.909496 -0.030372 0.000000 -0.000000 -0.000000 0.129766
66 38.468311 -0.031523 0.000000 -0.000000 0.000000 -0.132033
67 39.918201 -0.027650 0.000000 -0.000000 0.000001 -0.219299
68 35.586136 -0.041858 0.000000 -0.000000 0.000000 -0.044767
69 52.623203 0.000004 0.000001 -3.141593 -0.000003 1.570000
70 70.786980 12.086716 -0.056411 0.000002 0.000001 -1.026751
71 88.799866 -0.000001 32.090240 1.570796 0.000000 0.000000
72 88.799866 -0.000001 32.090240 1.570796 0.000000 0.000000
time 3
0 88.799866 -0.000001 32.090240 1.570796 0.000000 0.000000
1 0.056815 31.013531 120.134720 0.000000 1.047198 -1.570795
2 91.649414 -0.000003 -52.913807 -1.047198 -0.000001 1.570796
3 0.578574 -0.000000 1.002115 -1.570795 -1.570796 0.000000
4 19.667526 -0.015389 0.000027 -0.000004 -0.000001 0.000796
5 -19.667505 0.030957 34.045998 -3.141592 -0.000003 1.464468
6 48.144653 0.000004 -0.000000 0.000000 -0.000000 -0.286937
7 8.787701 -0.000002 0.000001 0.000000 0.000000 1.596400
8 37.448338 0.000001 -0.000001 -0.000000 -0.000000 -2.287659
9 10.603359 10.781817 -0.000001 -0.000000 0.000000 1.570796
10 1.115360 0.000000 -0.000003 0.000000 0.000000 0.000000
11 1.115358 0.000006 0.000002 0.000000 0.000000 0.000000
12 1.115360 -0.000002 -0.000000 0.000000 0.000000 3.141593
13 -19.667505 0.031143 -34.045998 -0.000002 3.141591 0.154382
14 48.144653 -0.000001 -0.000001 -0.000000 0.000000 -0.002013
15 8.787692 0.000001 -0.000001 -0.000000 0.000000 0.974359
16 37.448334 -0.000007 -0.000002 -0.000001 0.000000 -1.515299
17 10.603355 10.781816 0.000001 0.000000 0.000000 1.570796
18 1.115361 -0.000000 0.000001 0.000000 0.000000 0.000000
19 1.115361 -0.000000 0.000001 0.000000 0.000000 0.000000
20 1.115360 -0.000000 0.000001 0.000000 0.000000 0.000000
21 19.338169 -0.014463 -0.000000 -0.000000 -0.000001 0.349066
22 19.330315 -0.025855 -0.000000 -0.000000 0.000000 -0.099853
23 32.607132 -0.028559 -0.000000 -0.000000 0.000000 -0.144533
24 36.268288 -0.000005 -0.000000 -0.000001 0.000002 -0.629077
25 19.745590 -0.000003 -0.000000 0.000000 0.000000 0.000000
26 34.015530 78.836723 -0.056887 -0.000002 0.000000 -2.646049
27 46.423176 -0.561249 -0.057013 -0.000002 0.000000 -2.646049
28 48.038670 -49.315125 -0.057086 -0.000002 0.000000 -2.646049
29 18.660084 16.327126 10.634688 -0.000002 0.000000 -2.646049
30 18.660072 16.327164 -10.216352 -0.000002 0.000000 -2.646049
31 -6.730021 -8.590113 21.507048 -0.550946 -0.300709 -2.862520
32 67.635139 0.000002 0.000002 -1.069445 -2.714108 0.161993
33 65.342247 0.000013 0.000009 -0.000000 0.000000 -0.149045
34 3.535513 -0.000008 -0.000002 -2.006332 0.523599 0.000000
35 1.080032 0.049219 -0.517050 -0.000000 0.000796 1.570796
36 45.434578 0.000005 -0.000001 0.000000 -0.000000 0.261799
37 59.196022 0.000004 0.000007 0.000000 0.000000 0.000000
38 1.079210 0.000004 -0.000010 0.000342 -0.173811 2.007069
39 112.200340 0.000008 0.000003 0.000000 0.000000 0.000000
40 2.065482 -0.000000 0.000004 0.000000 0.000000 0.000000
41 1.078221 -0.061242 0.098171 0.000520 -0.173923 2.268837
42 112.891380 0.000009 0.000011 0.000000 0.000000 0.000000
43 1.721235 0.000002 -0.000007 0.000000 0.000000 0.000000
44 -0.726297 -2.959884 -3.646899 -1.990524 1.432494 -0.499779
45 0.272714 38.404099 1.817640 -0.000000 -0.000000 0.000000
46 -6.730021 -8.589995 -21.507097 0.550940 0.300711 -2.862522
47 67.635139 0.000004 -0.000001 1.069445 2.714108 0.161993
48 65.342247 0.000004 -0.000010 -0.000000 -0.000000 -0.149045
49 3.535514 0.000001 0.000001 2.006332 -0.523599 0.000000
50 1.080031 0.049218 0.517040 -0.000000 -0.000796 1.570796
51 45.434570 0.000011 -0.000003 0.000000 -0.000000 0.261799
52 59.196022 0.000007 -0.000002 0.000000 0.000000 3.141593
53 1.079218 0.000002 -0.000004 -0.000342 0.173811 2.007069
54 112.200340 0.000001 0.000001 0.000000 0.000000 0.000000
55 2.065483 0.000004 0.000004 0.000000 0.000000 3.141593
56 1.078215 -0.061244 -0.098178 -0.000520 0.173923 2.268838
57 112.891373 0.000008 -0.000013 0.000000 0.000000 0.000000
58 1.721239 -0.000000 0.000003 0.000000 0.000000 3.141593
59 -0.114827 -2.044666 3.888005 1.151061 1.432497 2.641807
60 0.845747 38.795277 0.842520 -0.000000 -0.000000 0.000000
61 9.521308 -35.732079 -0.056959 -0.000002 -0.000002 2.763674
62 41.908100 25.045683 28.730310 -0.000002 -0.000002 2.763674
63 41.908020 25.045826 -28.756018 -0.000002 -0.000002 2.763674
64 -48.045906 -11.101817 -0.000032 -0.000005 0.000001 -2.837293
65 38.912136 -0.029923 0.000000 -0.000000 -0.000001 0.217033
66 38.476604 -0.031516 0.000000 -0.000000 -0.000000 0.129766
67 39.932880 -0.027048 -0.000000 -0.000000 -0.000001 0.304299
68 35.578865 -0.040880 -0.000000 -0.000000 0.000001 -0.219299
69 52.623207 0.000005 0.000000 -3.141593 -0.000003 1.570000
70 70.787003 12.086715 -0.056412 0.000002 0.000001 -1.026751
71 88.799866 -0.000001 32.090240 1.570796 0.000000 0.000000
72 88.799866 -0.000001 32.090240 1.570796 0.000000 0.000000
time 4
0 88.799866 -0.000001 32.090240 1.570796 0.000000 0.000000
1 0.056815 31.013531 90.270775 0.000000 1.047198 -1.570795
2 32.639290 -0.000001 -18.844303 -1.047198 -0.000001 1.570796
3 0.578571 -0.000000 1.002114 -1.570795 -1.570796 0.000000
4 19.667530 -0.015392 0.000027 -0.000004 -0.000001 0.000796
5 -19.667511 0.030963 34.045998 -0.000001 -3.141590 -1.069101
6 48.144661 0.000000 0.000001 -0.000000 -0.000000 -0.002013
7 8.787691 -0.000000 0.000001 0.000000 -0.000000 0.837889
8 37.448338 0.000002 -0.000000 0.000000 -0.000000 -0.876443
9 10.603357 10.781816 -0.000001 -0.000000 -0.000000 1.570796
10 1.115360 0.000000 -0.000004 0.000000 0.000000 0.000000
11 1.115361 -0.000000 0.000002 0.000000 0.000000 0.000000
12 1.115361 0.000000 0.000003 0.000000 0.000000 3.141593
13 -19.667509 0.031149 -34.045998 -0.000003 -3.141592 -0.260064
14 48.144661 -0.000002 -0.000003 0.000000 -0.000000 -0.002013
15 8.787694 -0.000000 0.000002 0.000000 -0.000000 1.356479
16 37.448334 0.000002 -0.000003 -0.000000 -0.000000 -1.496166
17 10.603354 10.781816 -0.000000 0.000000 -0.000000 1.832596
18 1.115360 0.000000 0.000003 -0.000000 0.000000 0.261799
19 1.115360 0.000001 0.000001 0.000000 -0.000000 0.261799
20 1.115359 0.000000 -0.000000 0.000000 0.000000 0.000000
21 19.338171 -0.014470 -0.000000 -0.000000 -0.000001 0.349066
22 19.325064 -0.024758 -0.000000 -0.000000 0.000001 -0.306577
23 32.607117 -0.028565 -0.000000 -0.000000 0.000000 -0.144533
24 36.268295 -0.000006 -0.000000 -0.000000 0.000001 -0.422352
25 19.745604 -0.000003 -0.000000 0.000000 0.000000 0.000000
26 34.015537 78.836723 -0.056887 -0.000002 0.000000 -2.646049
27 46.423191 -0.561249 -0.057013 -0.000002 0.000000 -2.646049
28 48.038681 -49.315128 -0.057086 -0.000002 0.000000 -2.646049
29 18.660095 16.327126 10.634688 -0.000002 0.000000 -2.646049
30 18.660086 16.327164 -10.216352 -0.000002 0.000000 -2.646049
31 -4.818243 -9.788051 21.507044 -0.553639 -0.314467 -2.646900
32 67.635139 -0.000005 0.000001 -1.072330 -2.698160 0.163210
33 65.342247 0.000006 0.000006 -0.000000 0.000000 -0.149045
34 3.535512 0.000007 -0.000002 -2.006332 0.523599 0.000000
35 1.080028 0.049210 -0.517038 -0.000000 0.000796 1.570796
36 45.434582 0.000002 -0.000006 0.000000 -0.000000 0.261799
37 59.196014 0.000005 0.000012 0.000000 0.000000 0.000000
38 1.079208 -0.000000 -0.000002 0.000342 -0.173811 2.007069
39 112.200356 0.000006 0.000001 0.000000 0.000000 0.000000
40 2.065483 0.000000 0.000001 0.000000 0.000000 0.000000
41 1.078219 -0.061246 0.098178 0.000520 -0.173923 2.268837
42 112.891380 0.000012 0.000008 0.000000 0.000000 0.000000
43 1.721239 0.000001 -0.000002 0.000000 0.000000 0.000000
44 -0.726298 -2.959890 -3.646902 -1.990524 1.432494 -0.499779
45 0.272711 38.404095 1.817645 -0.000000 -0.000000 0.000000
46 -4.818242 -9.787933 -21.507101 0.553634 0.314469 -2.646901
47 67.635139 -0.000005 -0.000002 1.072330 2.698160 0.163210
48 65.342247 0.000001 -0.000007 -0.000000 -0.000000 -0.149045
49 3.535513 0.000005 0.000003 2.006332 -0.523599 0.000000
50 1.080029 0.049217 0.517036 -0.000000 -0.000796 1.570796
51 45.434570 0.000010 -0.000002 0.000000 -0.000000 0.261799
52 59.196014 0.000009 -0.000003 0.000000 0.000000 3.141593
53 1.079219 -0.000001 -0.000007 -0.000342 0.173811 2.007069
54 112.200356 0.000000 0.000010 0.000000 0.000000 0.000000
55 2.065482 0.000004 0.000005 0.000000 0.000000 3.141593
56 1.078210 -0.061243 -0.098183 -0.000520 0.173923 2.268838
57 112.891365 0.000010 -0.000006 0.000000 0.000000 0.000000
58 1.721236 -0.000003 0.000002 0.000000 0.000000 3.141593
59 -0.114824 -2.044656 3.888001 1.151061 1.432497 2.641807
60 0.845743 38.795280 0.842519 -0.000000 -0.000000 0.000000
61 9.521308 -35.732082 -0.056959 -0.000002 -0.000002 2.763674
62 41.908100 25.045689 28.730310 -0.000002 -0.000002 2.763674
63 41.908020 25.045832 -28.756018 -0.000002 -0.000002 2.763674
64 -48.043297 -11.101116 -0.000032 -0.000005 0.000001 -2.924560
65 38.904167 -0.030601 0.000000 -0.000000 0.000000 -0.044767
66 38.479321 -0.031048 0.000000 -0.000000 -0.000001 0.217033
67 39.937458 -0.025157 0.000000 -0.000000 -0.000001 0.478832
68 35.603981 -0.038738 -0.000000 -0.000000 -0.000001 0.391566
69 52.623222 -0.000004 -0.000000 -3.141593 -0.000003 1.570000
70 70.787003 12.086715 -0.056413 0.000002 0.000001 -1.026751
71 88.799866 -0.000001 32.090240 1.570796 0.000000 0.000000
72 88.799866 -0.000001 32.090240 1.570796 0.000000 0.000000
time 5
0 88.799866 -0.000001 32.090240 1.570796 0.000000 0.000000
1 0.056815 31.013531 104.257507 0.000000 1.047198 -1.570795
2 91.823227 -0.000003 -53.014164 -1.047198 -0.000001 1.570796
3 0.578575 -0.000000 1.002114 -1.570795 -1.570796 0.000000
4 19.667528 -0.015389 0.000027 -0.000004 -0.000001 0.000796
5 -19.667507 0.030956 34.045998 -0.000003 -3.141591 -0.457670
6 48.144657 0.000002 0.000000 -0.000000 0.000000 0.021731
7 8.787696 -0.000005 -0.000003 -0.000000 -0.000000 0.837228
8 37.448338 -0.000000 0.000001 0.000000 -0.000000 -1.051651
9 10.603358 10.781815 -0.000001 -0.000000 0.000000 1.570796
10 1.115362 0.000004 0.000002 0.000000 0.000000 0.000000
11 1.115361 -0.000000 -0.000005 0.000000 0.000000 0.000000
12 1.115361 -0.000001 0.000000 0.000000 0.000000 3.141593
13 -19.667507 0.031142 -34.045998 -0.000001 -3.141590 -1.107368
14 48.144653 -0.000000 0.000002 0.000000 -0.000000 -0.015513
15 8.787697 0.000000 -0.000002 0.000000 -0.000000 1.344988
16 37.448334 0.000006 -0.000000 -0.000000 0.000000 -2.195306
17 10.603358 10.781815 -0.000002 0.000000 -0.000000 1.570796
18 1.115361 -0.000001 -0.000002 0.000000 0.000000 0.000000
19 1.115360 0.000001 -0.000000 0.000000 0.000000 0.000000
20 1.115360 -0.000000 0.000001 0.000000 0.000000 0.000000
21 19.338173 -0.014470 -0.000000 -0.000000 -0.000001 0.349066
22 19.327501 -0.025403 -0.000000 -0.000000 0.000001 -0.209537
23 32.607132 -0.028559 -0.000000 -0.000000 0.000000 -0.144533
24 36.268295 -0.000006 -0.000000 -0.000000 0.000001 -0.519393
25 19.745592 -0.000003 -0.000000 0.000000 0.000000 0.000000
26 34.015526 78.836723 -0.056887 -0.000002 0.000000 -2.646049
27 46.423180 -0.561249 -0.057013 -0.000002 0.000000 -2.646049
28 48.038670 -49.315125 -0.057086 -0.000002 0.000000 -2.646049
29 18.660086 16.327127 10.634687 -0.000002 0.000000 -2.646049
30 18.660074 16.327164 -10.216352 -0.000002 0.000000 -2.646049
31 -5.746425 -9.275049 21.507046 -0.560067 -0.344650 -2.724082
32 67.635139 -0.000003 -0.000001 -1.078836 -2.663088 0.166105
33 65.342247 0.000008 0.000009 -0.000000 0.000000 -0.149045
34 3.535512 0.000003 -0.000003 -2.006332 0.523599 0.000000
35 1.080032 0.049221 -0.517044 -0.000000 0.000796 1.570796
36 45.434578 0.000003 -0.000001 0.000000 -0.000000 0.261799
37 59.196018 0.000003 0.000007 0.000000 0.000000 0.000000
38 1.079210 0.000005 -0.000003 0.000342 -0.173811 2.007069
39 112.200348 0.000005 0.000005 0.000000 0.000000 0.000000
40 2.065484 0.000001 0.000005 0.000000 0.000000 0.000000
41 1.078221 -0.061241 0.098177 0.000520 -0.173923 2.268837
42 112.891380 0.000010 0.000008 0.000000 0.000000 0.000000
43 1.721239 -0.000001 -0.000010 0.000000 0.000000 0.000000
44 -0.726297 -2.959889 -3.646898 -1.990524 1.432494 -0.499779
45 0.272715 38.404102 1.817635 -0.000000 -0.000000 0.000000
46 -5.746424 -9.274932 -21.507099 0.560061 0.344652 -2.724084
47 67.635139 -0.000003 0.000001 1.078837 2.663088 0.166104
48 65.342247 0.000017 -0.000010 -0.000000 -0.000000 -0.149045
49 3.535513 0.000000 0.000002 2.006332 -0.523599 0.000000
50 1.080031 0.049220 0.517046 -0.000000 -0.000796 1.570796
51 45.434570 0.000009 0.000001 0.000000 -0.000000 0.261799
52 59.196018 0.000008 0.000002 0.000000 0.000000 3.141593
53 1.079221 0.000002 0.000002 -0.000342 0.173811 2.007069
54 112.200348 0.000002 0.000012 0.000000 0.000000 0.000000
55 2.065485 0.000002 -0.000000 0.000000 0.000000 3.141593
56 1.078212 -0.061240 -0.098173 -0.000520 0.173923 2.268838
57 112.891365 0.000008 0.000001 0.000000 0.000000 0.000000
58 1.721234 -0.000000 0.000002 0.000000 0.000000 3.141593
59 -0.114827 -2.044653 3.888005 1.151061 1.432497 2.641807
60 0.845748 38.795280 0.842517 -0.000000 -0.000000 0.000000
61 9.521310 -35.732075 -0.056959 -0.000002 -0.000002 2.763674
62 41.908104 25.045692 28.730310 -0.000002 -0.000002 2.763674
63 41.908020 25.045835 -28.756018 -0.000002 -0.000002 2.763674
64 -48.040630 -11.100654 -0.000032 -0.000006 0.000000 -3.011827
65 38.898884 -0.029887 0.000000 -0.000000 0.000001 -0.219299
66 38.479328 -0.031051 0.000000 -0.000000 -0.000001 0.217033
67 39.932880 -0.027028 0.000000 -0.000000 -0.000001 0.304299
68 35.603989 -0.038745 0.000000 -0.000000 -0.000001 0.391566
69 52.623226 0.000001 -0.000000 -3.141593 -0.000003 1.570000
70 70.787010 12.086713 -0.056412 0.000002 0.000001 -1.026751
71 88.799866 -0.000001 32.090240 1.570796 0.000000 0.000000
72 88.799866 -0.000001 32.090240 1.570796 0.000000 0.000000
time 6
0 88.799866 -0.000001 32.090240 1.570796 0.000000 0.000000
1 0.056815 31.013531 126.217087 0.000000 1.047198 -1.570795
2 100.519447 -0.000003 -58.034927 -1.047198 -0.000001 1.570796
3 0.578569 -0.000000 1.002115 -1.570795 -1.570796 0.000000
4 19.667530 -0.015387 0.000027 -0.000004 -0.000001 0.000796
5 -19.667505 0.030958 34.045998 -0.000003 -3.141592 0.154382
6 48.144661 0.000007 -0.000002 0.000000 -0.000000 -0.002013
7 8.787693 -0.000003 -0.000003 0.000000 -0.000000 0.974359
8 37.448330 -0.000010 0.000003 0.000001 0.000000 -1.515299
9 10.603353 10.781822 -0.000001 -0.000000 -0.000000 1.570796
10 1.115360 0.000002 0.000002 0.000000 0.000000 0.000000
11 1.115360 0.000002 0.000001 0.000000 0.000000 0.000000
12 1.115360 0.000002 0.000001 0.000000 0.000000 3.141593
13 -19.667503 0.031144 -34.045998 -3.141592 -0.000003 1.482765
14 48.144653 0.000003 -0.000002 -0.000000 -0.000000 -0.063632
15 8.787696 0.000000 -0.000002 0.000000 -0.000000 1.390186
16 37.448330 -0.000003 -0.000001 0.000000 0.000000 -2.286454
17 10.603360 10.781816 -0.000002 0.000000 -0.000000 1.570796
18 1.115361 -0.000003 -0.000001 0.000000 0.000000 0.000000
19 1.115358 0.000002 0.000001 0.000000 0.000000 0.000000
20 1.115360 0.000001 0.000002 0.000000 0.000000 0.000000
21 19.338171 -0.014462 -0.000000 -0.000000 -0.000001 0.349066
22 19.331419 -0.025927 -0.000000 -0.000000 0.000000 -0.057267
23 32.607124 -0.028567 -0.000000 -0.000000 0.000000 -0.144533
24 36.268288 -0.000004 -0.000000 -0.000001 0.000002 -0.671663
25 19.745590 -0.000003 -0.000000 0.000000 0.000000 0.000000
26 34.015530 78.836723 -0.056887 -0.000002 0.000000 -2.646049
27 46.423176 -0.561250 -0.057013 -0.000002 0.000000 -2.646049
28 48.038670 -49.315125 -0.057086 -0.000002 0.000000 -2.646049
29 18.660084 16.327126 10.634688 -0.000002 0.000000 -2.646049
30 18.660072 16.327164 -10.216352 -0.000002 0.000000 -2.646049
31 -7.090734 -8.295788 21.507050 -0.567210 -0.374705 -2.856060
32 67.635147 0.000003 0.000002 -1.085584 -2.628034 0.169317
33 65.342247 0.000014 0.000009 -0.000000 0.000000 -0.149045
34 3.535512 -0.000005 -0.000004 -2.006332 0.523599 0.000000
35 1.080034 0.049219 -0.517041 -0.000000 0.000796 1.570796
36 45.434566 0.000010 -0.000004 0.000000 -0.000000 0.261799
37 59.196026 0.000002 -0.000001 0.000000 0.000000 0.000000
38 1.079212 0.000003 0.000000 0.000342 -0.173811 2.007069
39 112.200348 0.000008 0.000004 0.000000 0.000000 0.000000
40 2.065485 0.000000 0.000005 0.000000 0.000000 0.000000
41 1.078219 -0.061246 0.098175 0.000520 -0.173923 2.268837
42 112.891380 0.000001 0.000005 0.000000 0.000000 0.000000
43 1.721235 0.000002 0.000002 0.000000 0.000000 0.000000
44 -0.726297 -2.959883 -3.646899 -1.990524 1.432494 -0.499779
45 0.272717 38.404102 1.817637 -0.000000 -0.000000 0.000000
46 -7.090734 -8.295671 -21.507095 0.567205 0.374706 -2.856061
47 67.635139 0.000004 -0.000005 1.085584 2.628034 0.169317
48 65.342247 0.000007 -0.000010 -0.000000 -0.000000 -0.149045
49 3.535513 0.000006 0.000001 2.006332 -0.523599 0.000000
50 1.080033 0.049232 0.517058 -0.000000 -0.000796 1.570796
51 45.434555 0.000013 -0.000024 0.000000 -0.000000 0.261799
52 59.196026 0.000005 0.000013 0.000000 0.000000 3.141593
53 1.079216 0.000006 0.000004 -0.000342 0.173811 2.007069
54 112.200348 -0.000005 -0.000004 0.000000 0.000000 0.000000
55 2.065485 0.000003 -0.000001 0.000000 0.000000 3.141593
56 1.078217 -0.061237 -0.098175 -0.000520 0.173923 2.268838
57 112.891380 0.000001 0.000010 0.000000 0.000000 0.000000
58 1.721236 -0.000000 -0.000004 0.000000 0.000000 3.141593
59 -0.114827 -2.044663 3.888005 1.151061 1.432497 2.641807
60 0.845748 38.795277 0.842519 -0.000000 -0.000000 0.000000
61 9.521308 -35.732063 -0.056959 -0.000002 -0.000002 2.763674
62 41.908100 25.045704 28.730310 -0.000002 -0.000002 2.763674
63 41.908016 25.045847 -28.756018 -0.000002 -0.000002 2.763674
64 -48.037941 -11.100415 -0.000032 -0.000006 0.000000 -3.099093
65 38.898861 -0.029890 0.000000 -0.000000 0.000001 -0.219299
66 38.465576 -0.031021 0.000000 -0.000000 0.000001 -0.219299
67 39.937439 -0.025149 0.000001 -0.000000 -0.000001 0.478832
68 35.603981 -0.038741 0.000000 -0.000000 -0.000001 0.391566
69 52.623207 0.000000 0.000000 -3.141593 -0.000003 1.570000
70 70.786995 12.086717 -0.056412 0.000002 0.000001 -1.026751
71 88.799866 -0.000001 32.090240 1.570796 0.000000 0.000000
72 88.799866 -0.000001 32.090240 1.570796 0.000000 0.000000
end
