version 1
nodes
0 "Box01" -1
1 "Bip01" -1
2 "Bip01 Footsteps" 1
3 "Bip01 Pelvis" 1
4 "Bip01 Spine" 3
5 "Bip01 L Thigh" 4
6 "Bip01 L Calf" 5
7 "Bip01 L HorseLink" 6
8 "Bip01 L Foot" 7
9 "Bip01 L Toe0" 8
10 "Bip01 L Toe01" 9
11 "Bip01 L Toe02" 10
12 "Bip01 L Toe0Nub" 11
13 "Bip01 R Thigh" 4
14 "Bip01 R Calf" 13
15 "Bip01 R HorseLink" 14
16 "Bip01 R Foot" 15
17 "Bip01 R Toe0" 16
18 "Bip01 R Toe01" 17
19 "Bip01 R Toe02" 18
20 "Bip01 R Toe0Nub" 19
21 "Bip01 Spine1" 4
22 "Bip01 Neck" 21
23 "Bip01 Neck1" 22
24 "Bip01 Head" 23
25 "Bip01 HeadNub" 24
26 "Bone02" 24
27 "Bone03" 24
28 "Bone04" 24
29 "Bone05" 24
30 "Bone06" 24
31 "Bip01 L Clavicle" 22
32 "Bip01 L UpperArm" 31
33 "Bip01 L Forearm" 32
34 "Bip01 L Hand" 33
35 "Bip01 L Finger0" 34
36 "Bip01 L Finger01" 35
37 "Bip01 L Finger0Nub" 36
38 "Bip01 L Finger1" 34
39 "Bip01 L Finger11" 38
40 "Bip01 L Finger1Nub" 39
41 "Bip01 L Finger2" 34
42 "Bip01 L Finger21" 41
43 "Bip01 L Finger2Nub" 42
44 "Box02" 32
45 "Box04" 44
46 "Bip01 R Clavicle" 22
47 "Bip01 R UpperArm" 46
48 "Bip01 R Forearm" 47
49 "Bip01 R Hand" 48
50 "Bip01 R Finger0" 49
51 "Bip01 R Finger01" 50
52 "Bip01 R Finger0Nub" 51
53 "Bip01 R Finger1" 49
54 "Bip01 R Finger11" 53
55 "Bip01 R Finger1Nub" 54
56 "Bip01 R Finger2" 49
57 "Bip01 R Finger21" 56
58 "Bip01 R Finger2Nub" 57
59 "Box03" 47
60 "Box05" 59
61 "Bone09" 21
62 "Bone08" 21
63 "Bone07" 21
64 "Bip01 Tail" 4
65 "Bip01 Tail1" 64
66 "Bip01 Tail2" 65
67 "Bip01 Tail3" 66
68 "Bip01 Tail4" 67
69 "Bip01 TailNub" 68
70 "Bone10" 68
71 "Object01" -1
72 "Object02" -1
end
skeleton
time 0
0 88.799866 -0.000001 32.090240 1.570796 0.000000 0.000000
1 0.056815 31.013531 91.612999 0.000000 1.047198 -1.570795
2 79.141823 -0.000003 -45.692551 -1.047198 -0.000001 1.570796
3 0.578570 -0.000000 1.002114 -1.570795 -1.570796 0.000000
4 19.667530 -0.015393 0.000027 -0.000004 -0.000001 0.000796
5 -19.667509 0.030970 34.045998 -0.000002 -3.141590 -0.901178
6 48.144657 0.000001 -0.000001 0.000000 0.000000 -0.438997
7 8.787698 -0.000001 0.000000 -0.000000 0.000000 1.395371
8 37.448338 0.000006 -0.000001 0.000000 -0.000000 -0.809559
9 10.603358 10.781816 -0.000002 -0.000000 -0.000000 1.570796
10 1.115360 0.000000 -0.000004 0.000000 0.000000 0.000000
11 1.115360 0.000000 0.000001 0.000000 0.000000 0.000000
12 1.115360 0.000000 0.000003 0.000000 0.000000 3.141593
13 -19.667509 0.031155 -34.045998 -0.000002 -3.141590 -0.901164
14 48.144665 0.000002 0.000002 0.000000 0.000000 -0.438918
15 8.787700 -0.000003 -0.000000 0.000000 0.000000 1.395311
16 37.448326 0.000008 0.000002 0.000000 -0.000000 -0.809563
17 10.603358 10.781816 -0.000002 0.000000 0.000000 1.570796
18 1.115360 0.000000 -0.000004 0.000000 0.000000 0.000000
19 1.115360 0.000000 0.000001 0.000000 0.000000 0.000000
20 1.115360 0.000000 0.000003 0.000000 0.000000 0.000000
21 19.338173 -0.014464 -0.000000 -0.000000 -0.000001 0.349066
22 19.316818 -0.020385 -0.000000 -0.000001 0.000002 -0.668132
23 32.612156 -0.028859 -0.000001 -0.000000 -0.000000 0.030000
24 36.268276 0.000004 -0.000000 -0.000000 0.000001 -0.235331
25 19.745592 -0.000003 -0.000000 0.000000 0.000000 0.000000
26 33.941761 77.867058 -0.056880 -0.000002 0.000000 -2.646049
27 46.349415 -1.530874 -0.057007 -0.000002 0.000000 -2.646049
28 47.964890 -50.284748 -0.057080 -0.000002 0.000000 -2.646049
29 18.586317 15.357495 10.634696 -0.000002 0.000000 -2.646049
30 18.586306 15.357533 -10.216348 -0.000002 0.000000 -2.646049
31 -1.035257 -10.857908 21.507042 -0.567209 -0.374703 -2.245195
32 67.635147 -0.000000 -0.000001 -1.085584 -2.628034 0.169317
33 65.342247 0.000013 0.000009 -0.000000 0.000000 -0.149045
34 3.535512 -0.000002 -0.000003 -2.006332 0.523599 0.000000
35 1.080032 0.049222 -0.517037 0.000000 0.000796 1.570796
36 45.434566 0.000005 -0.000000 0.000000 -0.000000 0.261799
37 59.196022 0.000007 0.000009 0.000000 0.000000 0.000000
38 1.079212 0.000005 0.000003 0.000342 -0.173811 2.007069
39 112.200348 0.000013 0.000002 0.000000 0.000000 0.000000
40 2.065485 -0.000001 0.000003 0.000000 0.000000 0.000000
41 1.078219 -0.061244 0.098177 0.000520 -0.173923 2.268838
42 112.891380 0.000006 0.000027 0.000000 0.000000 0.000000
43 1.721239 -0.000001 -0.000006 0.000000 0.000000 0.000000
44 -0.726299 -2.959890 -3.646902 -1.990524 1.432494 -0.499779
45 0.272711 38.404099 1.817649 -0.000000 -0.000000 0.000000
46 -1.035256 -10.857791 -21.507103 0.567206 0.374707 -2.245196
47 67.635147 -0.000002 0.000003 1.085584 2.628034 0.169317
48 65.342247 0.000011 -0.000010 -0.000000 -0.000000 -0.149045
49 3.535513 -0.000002 0.000002 2.006332 -0.523599 0.000000
50 1.080028 0.049221 0.517049 -0.000000 -0.000796 1.570796
51 45.434582 0.000003 -0.000005 -0.000000 0.000000 0.261799
52 59.196018 0.000013 0.000000 0.000000 0.000000 3.141593
53 1.079217 0.000004 0.000005 -0.000342 0.173811 2.007069
54 112.200356 -0.000001 0.000002 0.000000 0.000000 0.000000
55 2.065482 0.000005 0.000005 0.000000 0.000000 3.141593
56 1.078217 -0.061239 -0.098175 -0.000520 0.173923 2.268838
57 112.891373 0.000010 -0.000005 0.000000 0.000000 0.000000
58 1.721240 -0.000002 -0.000005 0.000000 0.000000 3.141593
59 -0.114826 -2.044652 3.888001 1.151061 1.432497 2.641807
60 0.845744 38.795284 0.842517 -0.000000 -0.000000 0.000000
61 5.862274 -38.093346 -0.056959 -0.000002 -0.000002 2.763674
62 45.102818 23.394558 28.730303 -0.000002 -0.000002 2.763674
63 45.102734 23.394701 -28.756025 -0.000002 -0.000002 2.763674
64 -59.432369 7.768413 0.009486 -0.309856 0.054713 2.718564
65 38.920547 -0.022143 -0.014929 0.888000 -0.892167 -0.167911
66 38.481655 -0.028946 -0.009410 0.437676 -0.798331 -0.016489
67 39.929047 -0.027952 -0.000300 0.011931 -0.457601 0.160138
68 35.594025 -0.041301 0.003706 -0.109470 -0.618963 0.208437
69 52.623211 0.000001 -0.000003 3.141593 -0.000003 1.570000
70 76.977310 14.423798 -0.056396 0.000002 0.000001 -1.026751
71 88.799866 -0.000001 32.090240 1.570796 0.000000 0.000000
72 88.799866 -0.000001 32.090240 1.570796 0.000000 0.000000
time 1
0 88.799866 -0.000001 32.090240 1.570796 0.000000 0.000000
1 0.056815 31.013531 89.089508 0.000000 1.047198 -1.570795
2 76.956459 -0.000003 -44.430836 -1.047198 -0.000001 1.570796
3 0.578568 -0.000000 1.002115 -1.570795 -1.570796 0.000000
4 19.667526 -0.015389 0.000027 -0.000004 -0.000001 0.000796
5 -19.667509 0.030957 34.045998 -0.000002 -3.141590 -0.957730
6 48.144657 -0.000002 -0.000000 0.000000 0.000000 -0.945965
7 8.787701 -0.000000 0.000000 0.000000 0.000000 1.845788
8 37.448334 0.000006 -0.000001 0.000000 -0.000000 -0.809560
9 10.603358 10.781816 -0.000002 -0.000000 0.000000 1.570796
10 1.115360 0.000000 -0.000001 0.000000 0.000000 0.000000
11 1.115360 0.000000 0.000001 0.000000 0.000000 0.000000
12 1.115360 0.000000 0.000003 0.000000 0.000000 3.141593
13 -19.667507 0.031142 -34.045998 -0.000002 -3.141590 -0.957724
14 48.144657 -0.000003 -0.000001 -0.000000 -0.000000 -0.945939
15 8.787697 0.000001 -0.000004 -0.000000 0.000000 1.845772
16 37.448338 0.000005 0.000002 0.000000 -0.000000 -0.809563
17 10.603358 10.781816 -0.000002 0.000000 0.000000 1.570796
18 1.115360 0.000000 -0.000001 0.000000 0.000000 0.000000
19 1.115360 0.000000 0.000001 0.000000 0.000000 0.000000
20 1.115360 0.000000 0.000003 0.000000 0.000000 0.000000
21 19.338171 -0.014470 -0.000000 -0.000000 -0.000001 0.349066
22 19.319078 -0.021973 -0.000000 -0.000000 0.000001 -0.561473
23 32.609089 -0.028803 -0.000001 -0.000000 0.000000 -0.076659
24 36.268284 0.000005 -0.000000 -0.000000 0.000001 -0.199778
25 19.745598 -0.000000 -0.000000 0.000000 0.000000 0.000000
26 33.941753 77.867065 -0.056880 -0.000002 0.000000 -2.646049
27 46.349407 -1.530875 -0.057007 -0.000002 0.000000 -2.646049
28 47.964901 -50.284752 -0.057080 -0.000002 0.000000 -2.646049
29 18.586330 15.357490 10.634696 -0.000002 0.000000 -2.646049
30 18.586319 15.357528 -10.216348 -0.000002 0.000000 -2.646049
31 -2.188027 -10.685860 21.507042 -0.560066 -0.344649 -2.372146
32 67.635139 -0.000001 0.000002 -1.078836 -2.663088 0.166105
33 65.342247 0.000004 0.000005 -0.000000 0.000000 -0.149045
34 3.535512 -0.000001 -0.000003 -2.006332 0.523599 0.000000
35 1.080028 0.049216 -0.517039 0.000000 0.000796 1.570796
36 45.434574 0.000002 -0.000000 0.000000 -0.000000 0.261799
37 59.196022 0.000006 0.000009 0.000000 0.000000 0.000000
38 1.079210 0.000005 -0.000004 0.000342 -0.173811 2.007069
39 112.200348 0.000013 0.000009 0.000000 0.000000 0.000000
40 2.065485 -0.000001 0.000002 0.000000 0.000000 0.000000
41 1.078219 -0.061246 0.098181 0.000520 -0.173923 2.268838
42 112.891380 0.000009 0.000013 0.000000 0.000000 0.000000
43 1.721238 0.000003 -0.000004 0.000000 0.000000 0.000000
44 -0.726298 -2.959893 -3.646903 -1.990524 1.432494 -0.499779
45 0.272711 38.404095 1.817646 -0.000000 -0.000000 0.000000
46 -2.188026 -10.685742 -21.507103 0.560062 0.344653 -2.372148
47 67.635139 -0.000001 0.000000 1.078837 2.663088 0.166104
48 65.342247 0.000008 -0.000006 -0.000000 -0.000000 -0.149045
49 3.535513 0.000006 0.000002 2.006332 -0.523599 0.000000
50 1.080027 0.049215 0.517036 -0.000000 -0.000796 1.570796
51 45.434582 0.000007 -0.000001 -0.000000 0.000000 0.261799
52 59.196014 0.000012 -0.000003 0.000000 0.000000 3.141593
53 1.079221 0.000002 -0.000002 -0.000342 0.173811 2.007069
54 112.200356 0.000006 0.000003 0.000000 0.000000 0.000000
55 2.065485 0.000004 0.000006 0.000000 0.000000 3.141593
56 1.078210 -0.061246 -0.098183 -0.000520 0.173923 2.268838
57 112.891365 0.000008 -0.000007 0.000000 0.000000 0.000000
58 1.721236 -0.000000 0.000001 0.000000 0.000000 3.141593
59 -0.114825 -2.044648 3.888001 1.151061 1.432497 2.641807
60 0.845742 38.795277 0.842513 -0.000000 -0.000000 0.000000
61 5.862275 -38.093349 -0.056959 -0.000002 -0.000002 2.763674
62 45.102818 23.394556 28.730303 -0.000002 -0.000002 2.763674
63 45.102734 23.394697 -28.756025 -0.000002 -0.000002 2.763674
64 -59.432365 7.768393 0.009486 -0.309856 0.054713 2.718564
65 38.920547 -0.022149 -0.014930 0.888000 -0.892167 -0.167911
66 38.481655 -0.028946 -0.009413 0.437676 -0.798331 -0.016489
67 39.929062 -0.027948 -0.000304 0.011550 -0.370341 0.161257
68 35.594017 -0.041301 0.003709 -0.094972 -0.358508 0.178266
69 52.623211 0.000000 -0.000010 -3.141593 -0.000003 1.570000
70 76.977303 14.423799 -0.056407 0.000002 0.000001 -1.026751
71 88.799866 -0.000001 32.090240 1.570796 0.000000 0.000000
72 88.799866 -0.000001 32.090240 1.570796 0.000000 0.000000
time 2
0 88.799866 -0.000001 32.090240 1.570796 0.000000 0.000000
1 0.056815 31.013531 86.566032 0.000000 1.047198 -1.570795
2 74.771019 -0.000003 -43.169067 -1.047198 -0.000001 1.570796
3 0.578568 -0.000000 1.002115 -1.570795 -1.570796 0.000000
4 19.667530 -0.015396 0.000027 -0.000004 -0.000001 0.000796
5 -19.667511 0.030969 34.045998 -0.000002 -3.141590 -0.979072
6 48.144665 -0.000004 -0.000002 -0.000000 -0.000000 -1.287212
7 8.787698 0.000003 0.000004 0.000000 0.000000 2.165695
8 37.448338 0.000006 -0.000001 0.000000 -0.000000 -0.809560
9 10.603358 10.781816 -0.000002 -0.000000 0.000000 1.570796
10 1.115360 0.000000 -0.000001 0.000000 0.000000 0.000000
11 1.115360 0.000000 0.000001 0.000000 0.000000 0.000000
12 1.115360 0.000000 0.000003 0.000000 0.000000 3.141593
13 -19.667511 0.031154 -34.045998 -0.000002 -3.141590 -0.979070
14 48.144657 -0.000005 -0.000002 0.000000 0.000000 -1.287206
15 8.787697 -0.000004 0.000004 -0.000000 0.000000 2.165692
16 37.448334 0.000005 -0.000001 0.000000 -0.000000 -0.809562
17 10.603358 10.781816 -0.000002 0.000000 0.000000 1.570796
18 1.115360 0.000000 -0.000001 0.000000 0.000000 0.000000
19 1.115360 0.000000 0.000001 0.000000 0.000000 0.000000
20 1.115360 0.000000 0.000003 0.000000 0.000000 0.000000
21 19.338171 -0.014465 -0.000000 -0.000000 -0.000001 0.349066
22 19.321497 -0.023325 -0.000000 -0.000000 0.000001 -0.454814
23 32.606030 -0.028406 -0.000000 -0.000000 0.000001 -0.183318
24 36.268284 0.000004 -0.000000 -0.000000 0.000000 -0.164225
25 19.745598 0.000002 -0.000000 0.000000 0.000000 0.000000
26 33.941772 77.867073 -0.056880 -0.000002 0.000000 -2.646049
27 46.349415 -1.530874 -0.057007 -0.000002 0.000000 -2.646049
28 47.964905 -50.284752 -0.057080 -0.000002 0.000000 -2.646049
29 18.586338 15.357491 10.634696 -0.000002 0.000000 -2.646049
30 18.586325 15.357529 -10.216348 -0.000002 0.000000 -2.646049
31 -3.315932 -10.392055 21.507044 -0.553639 -0.314466 -2.498664
32 67.635147 -0.000001 0.000004 -1.072330 -2.698160 0.163210
33 65.342247 0.000002 0.000005 -0.000000 0.000000 -0.149045
34 3.535513 -0.000004 -0.000003 -2.006332 0.523599 0.000000
35 1.080030 0.049214 -0.517040 0.000000 0.000796 1.570796
36 45.434574 0.000006 -0.000006 0.000000 -0.000000 0.261799
37 59.196022 0.000006 0.000011 0.000000 0.000000 0.000000
38 1.079212 0.000003 -0.000004 0.000342 -0.173811 2.007069
39 112.200348 0.000013 0.000003 0.000000 0.000000 0.000000
40 2.065482 -0.000001 0.000003 0.000000 0.000000 0.000000
41 1.078217 -0.061252 0.098175 0.000520 -0.173923 2.268838
42 112.891380 0.000004 0.000022 0.000000 0.000000 0.000000
43 1.721239 0.000001 -0.000004 0.000000 0.000000 0.000000
44 -0.726297 -2.959895 -3.646903 -1.990524 1.432494 -0.499779
45 0.272712 38.404095 1.817652 -0.000000 -0.000000 0.000000
46 -3.315932 -10.391937 -21.507101 0.553634 0.314469 -2.498665
47 67.635147 -0.000001 -0.000000 1.072330 2.698160 0.163210
48 65.342247 -0.000003 -0.000006 -0.000000 -0.000000 -0.149045
49 3.535513 -0.000007 0.000002 2.006332 -0.523599 0.000000
50 1.080026 0.049213 0.517046 -0.000000 -0.000796 1.570796
51 45.434578 0.000004 -0.000004 -0.000000 0.000000 0.261799
52 59.196018 0.000012 0.000001 0.000000 0.000000 3.141593
53 1.079220 -0.000001 0.000008 -0.000342 0.173811 2.007069
54 112.200356 -0.000001 -0.000003 0.000000 0.000000 0.000000
55 2.065484 0.000003 0.000000 0.000000 0.000000 3.141593
56 1.078212 -0.061245 -0.098179 -0.000520 0.173923 2.268838
57 112.891365 0.000009 -0.000012 0.000000 0.000000 0.000000
58 1.721237 0.000001 0.000004 0.000000 0.000000 3.141593
59 -0.114826 -2.044660 3.888002 1.151061 1.432497 2.641807
60 0.845743 38.795277 0.842518 -0.000000 -0.000000 0.000000
61 5.862274 -38.093349 -0.056959 -0.000002 -0.000002 2.763674
62 45.102818 23.394554 28.730303 -0.000002 -0.000002 2.763674
63 45.102730 23.394695 -28.756025 -0.000002 -0.000002 2.763674
64 -59.432369 7.768405 0.009486 -0.309856 0.054713 2.718564
65 38.920547 -0.022149 -0.014930 0.888000 -0.892167 -0.167911
66 38.481655 -0.028947 -0.009410 0.437676 -0.798331 -0.016489
67 39.929050 -0.027950 -0.000311 0.011113 -0.195819 0.163314
68 35.594017 -0.041302 0.003720 -0.089143 -0.097804 0.153630
69 52.623219 -0.000002 -0.000005 3.141593 -0.000003 1.570000
70 76.977310 14.423794 -0.056398 0.000002 0.000001 -1.026751
71 88.799866 -0.000001 32.090240 1.570796 0.000000 0.000000
72 88.799866 -0.000001 32.090240 1.570796 0.000000 0.000000
time 3
0 88.799866 -0.000001 32.090240 1.570796 0.000000 0.000000
1 0.056815 31.013531 85.430237 0.000000 1.047198 -1.570795
2 73.787392 -0.000003 -42.601170 -1.047198 -0.000001 1.570796
3 0.578568 -0.000000 1.002115 -1.570795 -1.570796 0.000000
4 19.667526 -0.015389 0.000027 -0.000004 -0.000001 0.000796
5 -19.667505 0.030963 34.045998 -0.000002 -3.141590 -0.982648
6 48.144657 -0.000001 -0.000002 -0.000000 -0.000000 -1.422900
7 8.787697 -0.000000 0.000004 0.000000 0.000000 2.297809
8 37.448330 0.000003 -0.000001 0.000000 -0.000000 -0.809563
9 10.603358 10.781816 -0.000002 -0.000000 -0.000000 1.570796
10 1.115360 0.000000 -0.000004 0.000000 0.000000 0.000000
11 1.115360 0.000000 0.000001 0.000000 0.000000 0.000000
12 1.115360 0.000000 0.000003 0.000000 0.000000 3.141593
13 -19.667505 0.031149 -34.045998 -0.000002 -3.141590 -0.982646
14 48.144653 -0.000001 -0.000002 0.000000 0.000000 -1.422898
15 8.787700 0.000002 0.000004 0.000000 0.000000 2.297809
16 37.448338 0.000008 -0.000001 0.000000 -0.000000 -0.809563
17 10.603358 10.781816 -0.000002 0.000000 0.000000 1.570796
18 1.115360 0.000000 -0.000004 0.000000 0.000000 0.000000
19 1.115360 0.000000 0.000001 0.000000 0.000000 0.000000
20 1.115360 0.000000 0.000003 0.000000 0.000000 0.000000
21 19.338173 -0.014464 -0.000000 -0.000000 -0.000001 0.349066
22 19.322638 -0.023854 -0.000000 -0.000000 0.000001 -0.406332
23 32.604652 -0.028106 -0.000000 -0.000000 0.000001 -0.231799
24 36.268288 0.000004 -0.000000 -0.000000 0.000000 -0.148064
25 19.745596 0.000002 -0.000000 0.000000 0.000000 0.000000
26 33.941765 77.867058 -0.056880 -0.000002 0.000000 -2.646049
27 46.349422 -1.530872 -0.057007 -0.000002 0.000000 -2.646049
28 47.964905 -50.284752 -0.057080 -0.000002 0.000000 -2.646049
29 18.586327 15.357496 10.634696 -0.000002 0.000000 -2.646049
30 18.586327 15.357526 -10.216348 -0.000002 0.000000 -2.646049
31 -3.816920 -10.219112 21.507044 -0.550945 -0.300708 -2.556041
32 67.635147 -0.000001 0.000004 -1.069445 -2.714108 0.161993
33 65.342247 0.000003 0.000005 -0.000000 0.000000 -0.149045
34 3.535512 -0.000005 -0.000003 -2.006332 0.523599 0.000000
35 1.080028 0.049212 -0.517037 0.000000 0.000796 1.570796
36 45.434574 0.000002 -0.000000 0.000000 -0.000000 0.261799
37 59.196022 0.000006 0.000009 0.000000 0.000000 0.000000
38 1.079210 0.000001 -0.000001 0.000342 -0.173811 2.007069
39 112.200348 0.000014 0.000009 0.000000 0.000000 0.000000
40 2.065485 0.000000 0.000002 0.000000 0.000000 0.000000
41 1.078219 -0.061250 0.098184 0.000520 -0.173923 2.268838
42 112.891373 0.000012 0.000012 0.000000 0.000000 0.000000
43 1.721240 0.000001 -0.000006 0.000000 0.000000 0.000000
44 -0.726299 -2.959893 -3.646903 -1.990524 1.432494 -0.499779
45 0.272710 38.404099 1.817646 -0.000000 -0.000000 0.000000
46 -3.816919 -10.218995 -21.507101 0.550941 0.300711 -2.556042
47 67.635139 -0.000001 0.000003 1.069445 2.714108 0.161993
48 65.342247 0.000006 -0.000006 -0.000000 -0.000000 -0.149045
49 3.535513 -0.000008 0.000002 2.006332 -0.523599 0.000000
50 1.080028 0.049214 0.517038 -0.000000 -0.000796 1.570796
51 45.434578 0.000007 0.000003 -0.000000 0.000000 0.261799
52 59.196014 0.000012 0.000001 0.000000 0.000000 3.141593
53 1.079219 0.000003 -0.000002 -0.000342 0.173811 2.007069
54 112.200348 0.000005 0.000006 0.000000 0.000000 0.000000
55 2.065483 0.000003 0.000002 0.000000 0.000000 3.141593
56 1.078213 -0.061248 -0.098180 -0.000520 0.173923 2.268838
57 112.891373 0.000011 -0.000010 0.000000 0.000000 0.000000
58 1.721235 -0.000001 -0.000001 0.000000 0.000000 3.141593
59 -0.114826 -2.044651 3.888002 1.151061 1.432497 2.641807
60 0.845743 38.795280 0.842519 -0.000000 -0.000000 0.000000
61 5.862274 -38.093353 -0.056959 -0.000002 -0.000002 2.763674
62 45.102818 23.394552 28.730303 -0.000002 -0.000002 2.763674
63 45.102730 23.394693 -28.756025 -0.000002 -0.000002 2.763674
64 -59.432365 7.768400 0.009486 -0.309856 0.054713 2.718564
65 38.920547 -0.022151 -0.014929 0.888000 -0.892167 -0.167911
66 38.481655 -0.028946 -0.009409 0.437676 -0.798331 -0.016489
67 39.929050 -0.027950 -0.000310 0.011132 0.065964 0.166225
68 35.594025 -0.041303 0.003705 -0.093648 0.336766 0.113837
69 52.623215 0.000000 0.000002 -3.141593 -0.000003 1.570000
70 76.977310 14.423798 -0.056398 0.000002 0.000001 -1.026751
71 88.799866 -0.000001 32.090240 1.570796 0.000000 0.000000
72 88.799866 -0.000001 32.090240 1.570796 0.000000 0.000000
time 4
0 88.799866 -0.000001 32.090240 1.570796 0.000000 0.000000
1 0.056815 31.013531 86.607262 0.000000 1.047198 -1.570795
2 74.806671 -0.000003 -43.189651 -1.047198 -0.000001 1.570796
3 0.578568 -0.000000 1.002115 -1.570795 -1.570796 0.000000
4 19.667530 -0.015396 0.000027 -0.000004 -0.000001 0.000796
5 -19.667509 0.030967 34.045998 -0.000002 -3.141590 -0.978880
6 48.144653 -0.000003 -0.000002 -0.000000 -0.000000 -1.282136
7 8.787696 -0.000003 0.000004 0.000000 -0.000000 2.160816
8 37.448341 0.000005 -0.000001 0.000000 -0.000000 -0.809566
9 10.603358 10.781816 -0.000002 -0.000000 0.000000 1.570796
10 1.115360 0.000000 -0.000001 0.000000 0.000000 0.000000
11 1.115360 0.000000 0.000001 0.000000 0.000000 0.000000
12 1.115360 0.000000 0.000003 0.000000 0.000000 3.141593
13 -19.667509 0.031153 -34.045998 -0.000002 -3.141590 -0.978879
14 48.144657 -0.000005 -0.000003 -0.000000 0.000000 -1.282139
15 8.787697 0.000002 0.000004 -0.000000 0.000000 2.160820
16 37.448334 0.000004 -0.000001 0.000000 -0.000000 -0.809567
17 10.603358 10.781816 -0.000002 0.000000 0.000000 1.570796
18 1.115360 0.000000 -0.000001 0.000000 0.000000 0.000000
19 1.115360 0.000000 0.000001 0.000000 0.000000 0.000000
20 1.115360 0.000000 0.000003 0.000000 0.000000 0.000000
21 19.338173 -0.014466 -0.000000 -0.000000 -0.000001 0.349066
22 19.321497 -0.023322 -0.000000 -0.000000 0.000001 -0.454814
23 32.606018 -0.028400 -0.000000 -0.000000 0.000001 -0.183318
24 36.268295 0.000005 -0.000000 -0.000000 0.000000 -0.164225
25 19.745586 0.000002 -0.000000 0.000000 0.000000 0.000000
26 33.941761 77.867073 -0.056880 -0.000002 0.000000 -2.646049
27 46.349403 -1.530874 -0.057007 -0.000002 0.000000 -2.646049
28 47.964893 -50.284752 -0.057080 -0.000002 0.000000 -2.646049
29 18.586327 15.357490 10.634696 -0.000002 0.000000 -2.646049
30 18.586315 15.357528 -10.216348 -0.000002 0.000000 -2.646049
31 -3.315935 -10.392056 21.507044 -0.553639 -0.314466 -2.498663
32 67.635139 -0.000003 0.000005 -1.072330 -2.698160 0.163210
33 65.342247 -0.000005 0.000005 -0.000000 0.000000 -0.149045
34 3.535512 0.000001 -0.000003 -2.006332 0.523599 0.000000
35 1.080029 0.049217 -0.517037 0.000000 0.000796 1.570796
36 45.434574 0.000002 0.000001 0.000000 -0.000000 0.261799
37 59.196022 0.000006 0.000010 0.000000 0.000000 0.000000
38 1.079210 0.000006 -0.000002 0.000342 -0.173811 2.007069
39 112.200356 0.000014 0.000005 0.000000 0.000000 0.000000
40 2.065484 -0.000000 -0.000002 0.000000 0.000000 0.000000
41 1.078219 -0.061246 0.098183 0.000520 -0.173923 2.268838
42 112.891380 0.000013 0.000014 0.000000 0.000000 0.000000
43 1.721233 0.000002 -0.000003 0.000000 0.000000 0.000000
44 -0.726300 -2.959901 -3.646903 -1.990524 1.432494 -0.499779
45 0.272711 38.404095 1.817649 -0.000000 -0.000000 0.000000
46 -3.315934 -10.391938 -21.507101 0.553634 0.314470 -2.498665
47 67.635139 -0.000004 0.000001 1.072330 2.698160 0.163210
48 65.342247 0.000006 -0.000006 -0.000000 -0.000000 -0.149045
49 3.535513 -0.000002 0.000002 2.006332 -0.523599 0.000000
50 1.080028 0.049219 0.517038 -0.000000 -0.000796 1.570796
51 45.434574 0.000007 0.000002 -0.000000 0.000000 0.261799
52 59.196018 0.000012 -0.000000 0.000000 0.000000 3.141593
53 1.079222 0.000005 -0.000000 -0.000342 0.173811 2.007069
54 112.200356 0.000004 0.000003 0.000000 0.000000 0.000000
55 2.065485 0.000004 0.000006 0.000000 0.000000 3.141593
56 1.078210 -0.061242 -0.098181 -0.000520 0.173923 2.268838
57 112.891365 0.000010 -0.000005 0.000000 0.000000 0.000000
58 1.721238 -0.000002 0.000003 0.000000 0.000000 3.141593
59 -0.114825 -2.044651 3.888001 1.151061 1.432497 2.641807
60 0.845743 38.795277 0.842514 -0.000000 -0.000000 0.000000
61 5.862274 -38.093349 -0.056959 -0.000002 -0.000002 2.763674
62 45.102818 23.394556 28.730303 -0.000002 -0.000002 2.763674
63 45.102730 23.394697 -28.756025 -0.000002 -0.000002 2.763674
64 -59.432365 7.768404 0.009486 -0.309856 0.054713 2.718564
65 38.920547 -0.022148 -0.014930 0.888000 -0.892167 -0.167911
66 38.481655 -0.028948 -0.009410 0.437676 -0.798331 -0.016489
67 39.929050 -0.027950 -0.000308 0.011113 -0.195819 0.163314
68 35.594013 -0.041302 0.003717 -0.089143 -0.097804 0.153630
69 52.623215 -0.000002 -0.000004 3.141593 -0.000003 1.570000
70 76.977310 14.423794 -0.056397 0.000002 0.000001 -1.026751
71 88.799866 -0.000001 32.090240 1.570796 0.000000 0.000000
72 88.799866 -0.000001 32.090240 1.570796 0.000000 0.000000
time 5
0 88.799866 -0.000001 32.090240 1.570796 0.000000 0.000000
1 0.056815 31.013531 89.171959 0.000000 1.047198 -1.570795
2 77.027725 -0.000003 -44.471977 -1.047198 -0.000001 1.570796
3 0.578574 -0.000000 1.002115 -1.570795 -1.570796 0.000000
4 19.667530 -0.015396 0.000027 -0.000004 -0.000001 0.000796
5 -19.667511 0.030969 34.045998 -0.000002 -3.141590 -0.956636
6 48.144657 -0.000002 -0.000000 -0.000000 -0.000000 -0.933282
7 8.787700 0.000000 0.000000 0.000000 0.000000 1.834208
8 37.448334 0.000004 -0.000001 0.000000 -0.000000 -0.809568
9 10.603358 10.781816 -0.000002 -0.000000 0.000000 1.570796
10 1.115360 0.000000 -0.000001 0.000000 0.000000 0.000000
11 1.115360 0.000000 0.000001 0.000000 0.000000 0.000000
12 1.115360 0.000000 0.000003 0.000000 0.000000 3.141593
13 -19.667511 0.031154 -34.045998 -0.000002 -3.141590 -0.956638
14 48.144657 -0.000001 -0.000001 -0.000000 -0.000000 -0.933292
15 8.787699 -0.000003 -0.000004 0.000000 -0.000000 1.834217
16 37.448338 0.000005 0.000002 0.000000 -0.000000 -0.809570
17 10.603358 10.781816 -0.000002 0.000000 0.000000 1.570796
18 1.115360 0.000000 -0.000001 0.000000 0.000000 0.000000
19 1.115360 0.000000 0.000001 0.000000 0.000000 0.000000
20 1.115360 0.000000 0.000003 0.000000 0.000000 0.000000
21 19.338171 -0.014465 -0.000000 -0.000000 -0.000001 0.349066
22 19.319080 -0.021976 -0.000000 -0.000000 0.000001 -0.561473
23 32.609093 -0.028805 -0.000001 -0.000000 0.000000 -0.076659
24 36.268284 0.000001 -0.000000 -0.000000 0.000001 -0.199778
25 19.745598 -0.000000 -0.000000 0.000000 0.000000 0.000000
26 33.941753 77.867065 -0.056880 -0.000002 0.000000 -2.646049
27 46.349407 -1.530875 -0.057007 -0.000002 0.000000 -2.646049
28 47.964901 -50.284752 -0.057080 -0.000002 0.000000 -2.646049
29 18.586330 15.357490 10.634696 -0.000002 0.000000 -2.646049
30 18.586319 15.357528 -10.216348 -0.000002 0.000000 -2.646049
31 -2.188025 -10.685862 21.507042 -0.560066 -0.344649 -2.372146
32 67.635139 0.000005 -0.000002 -1.078836 -2.663088 0.166105
33 65.342247 0.000002 0.000005 -0.000000 0.000000 -0.149045
34 3.535512 0.000000 -0.000003 -2.006332 0.523599 0.000000
35 1.080028 0.049219 -0.517041 0.000000 0.000796 1.570796
36 45.434574 0.000002 0.000004 0.000000 -0.000000 0.261799
37 59.196022 0.000006 0.000006 0.000000 0.000000 0.000000
38 1.079210 0.000008 -0.000005 0.000342 -0.173811 2.007069
39 112.200348 0.000013 0.000010 0.000000 0.000000 0.000000
40 2.065482 -0.000001 0.000003 0.000000 0.000000 0.000000
41 1.078219 -0.061244 0.098180 0.000520 -0.173923 2.268838
42 112.891380 0.000013 0.000018 0.000000 0.000000 0.000000
43 1.721233 0.000002 -0.000000 0.000000 0.000000 0.000000
44 -0.726299 -2.959895 -3.646903 -1.990524 1.432494 -0.499779
45 0.272712 38.404099 1.817647 -0.000000 -0.000000 0.000000
46 -2.188024 -10.685743 -21.507103 0.560062 0.344653 -2.372148
47 67.635139 -0.000003 -0.000003 1.078837 2.663088 0.166104
48 65.342247 0.000006 -0.000006 -0.000000 -0.000000 -0.149045
49 3.535513 -0.000008 0.000002 2.006332 -0.523599 0.000000
50 1.080027 0.049217 0.517038 -0.000000 -0.000796 1.570796
51 45.434582 0.000008 0.000003 -0.000000 0.000000 0.261799
52 59.196018 0.000012 0.000001 0.000000 0.000000 3.141593
53 1.079221 0.000004 -0.000001 -0.000342 0.173811 2.007069
54 112.200356 0.000005 0.000002 0.000000 0.000000 0.000000
55 2.065485 0.000003 0.000005 0.000000 0.000000 3.141593
56 1.078210 -0.061243 -0.098181 -0.000520 0.173923 2.268838
57 112.891365 0.000007 -0.000012 0.000000 0.000000 0.000000
58 1.721239 -0.000001 0.000004 0.000000 0.000000 3.141593
59 -0.114825 -2.044650 3.888001 1.151061 1.432497 2.641807
60 0.845743 38.795277 0.842514 -0.000000 -0.000000 0.000000
61 5.862275 -38.093349 -0.056959 -0.000002 -0.000002 2.763674
62 45.102818 23.394554 28.730303 -0.000002 -0.000002 2.763674
63 45.102734 23.394695 -28.756025 -0.000002 -0.000002 2.763674
64 -59.432369 7.768405 0.009486 -0.309856 0.054713 2.718564
65 38.920547 -0.022150 -0.014930 0.888000 -0.892167 -0.167911
66 38.481655 -0.028946 -0.009411 0.437676 -0.798331 -0.016489
67 39.929062 -0.027948 -0.000306 0.011550 -0.370341 0.161257
68 35.594017 -0.041302 0.003712 -0.094972 -0.358508 0.178266
69 52.623211 0.000001 -0.000013 -3.141593 -0.000003 1.570000
70 76.977303 14.423800 -0.056410 0.000002 0.000001 -1.026751
71 88.799866 -0.000001 32.090240 1.570796 0.000000 0.000000
72 88.799866 -0.000001 32.090240 1.570796 0.000000 0.000000
time 6
0 88.799866 -0.000001 32.090240 1.570796 0.000000 0.000000
1 0.056815 31.013531 91.736671 0.000000 1.047198 -1.570795
2 79.248795 -0.000003 -45.754311 -1.047198 -0.000001 1.570796
3 0.578568 -0.000000 1.002114 -1.570795 -1.570796 0.000000
4 19.667530 -0.015395 0.000027 -0.000004 -0.000001 0.000796
5 -19.667511 0.030964 34.045998 -0.000002 -3.141590 -0.895850
6 48.144653 0.000003 -0.000001 0.000000 0.000000 -0.399422
7 8.787701 -0.000005 0.000000 0.000000 0.000000 1.361136
8 37.448334 0.000006 -0.000001 0.000000 -0.000000 -0.809570
9 10.603358 10.781816 -0.000002 -0.000000 -0.000000 1.570796
10 1.115360 0.000000 -0.000004 0.000000 0.000000 0.000000
11 1.115360 0.000000 0.000001 0.000000 0.000000 0.000000
12 1.115360 0.000000 0.000003 0.000000 0.000000 3.141593
13 -19.667511 0.031150 -34.045998 -0.000002 -3.141590 -0.895858
14 48.144650 0.000003 0.000001 0.000000 0.000000 -0.399460
15 8.787699 -0.000003 -0.000000 0.000000 0.000000 1.361169
16 37.448338 0.000007 0.000002 0.000000 -0.000000 -0.809573
17 10.603358 10.781816 -0.000002 0.000000 0.000000 1.570796
18 1.115360 0.000000 -0.000004 0.000000 0.000000 0.000000
19 1.115360 0.000000 0.000001 0.000000 0.000000 0.000000
20 1.115360 0.000000 0.000003 0.000000 0.000000 0.000000
21 19.338171 -0.014469 -0.000000 -0.000000 -0.000001 0.349066
22 19.316818 -0.020384 -0.000000 -0.000001 0.000002 -0.668132
23 32.612156 -0.028863 -0.000001 -0.000000 -0.000000 0.030000
24 36.268276 0.000003 -0.000000 -0.000000 0.000001 -0.235331
25 19.745594 -0.000003 -0.000000 0.000000 0.000000 0.000000
26 33.941761 77.867058 -0.056880 -0.000002 0.000000 -2.646049
27 46.349415 -1.530873 -0.057007 -0.000002 0.000000 -2.646049
28 47.964890 -50.284748 -0.057080 -0.000002 0.000000 -2.646049
29 18.586319 15.357495 10.634696 -0.000002 0.000000 -2.646049
30 18.586308 15.357533 -10.216348 -0.000002 0.000000 -2.646049
31 -1.035257 -10.857912 21.507042 -0.567209 -0.374703 -2.245195
32 67.635147 -0.000000 -0.000004 -1.085584 -2.628034 0.169317
33 65.342247 0.000012 0.000008 -0.000000 0.000000 -0.149045
34 3.535512 -0.000006 -0.000003 -2.006332 0.523599 0.000000
35 1.080032 0.049225 -0.517038 0.000000 0.000796 1.570796
36 45.434570 0.000005 -0.000004 0.000000 -0.000000 0.261799
37 59.196022 0.000007 0.000013 0.000000 0.000000 0.000000
38 1.079212 0.000008 0.000002 0.000342 -0.173811 2.007069
39 112.200348 0.000014 0.000007 0.000000 0.000000 0.000000
40 2.065485 -0.000000 0.000008 0.000000 0.000000 0.000000
41 1.078219 -0.061241 0.098177 0.000520 -0.173923 2.268838
42 112.891380 0.000004 0.000019 0.000000 0.000000 0.000000
43 1.721240 0.000001 0.000001 0.000000 0.000000 0.000000
44 -0.726298 -2.959891 -3.646903 -1.990524 1.432494 -0.499779
45 0.272711 38.404095 1.817645 -0.000000 -0.000000 0.000000
46 -1.035256 -10.857794 -21.507103 0.567206 0.374707 -2.245196
47 67.635147 -0.000002 -0.000001 1.085584 2.628034 0.169317
48 65.342247 0.000009 -0.000009 -0.000000 -0.000000 -0.149045
49 3.535512 -0.000007 0.000002 2.006332 -0.523599 0.000000
50 1.080028 0.049216 0.517049 -0.000000 -0.000796 1.570796
51 45.434586 0.000003 -0.000001 -0.000000 0.000000 0.261799
52 59.196018 0.000013 -0.000004 0.000000 0.000000 3.141593
53 1.079216 -0.000001 0.000005 -0.000342 0.173811 2.007069
54 112.200356 -0.000001 -0.000003 0.000000 0.000000 0.000000
55 2.065482 0.000003 -0.000000 0.000000 0.000000 3.141593
56 1.078217 -0.061243 -0.098174 -0.000520 0.173923 2.268838
57 112.891373 0.000009 -0.000012 0.000000 0.000000 0.000000
58 1.721234 0.000000 0.000003 0.000000 0.000000 3.141593
59 -0.114825 -2.044654 3.888002 1.151061 1.432497 2.641807
60 0.845742 38.795280 0.842513 -0.000000 -0.000000 0.000000
61 5.862275 -38.093346 -0.056959 -0.000002 -0.000002 2.763674
62 45.102818 23.394558 28.730303 -0.000002 -0.000002 2.763674
63 45.102734 23.394701 -28.756025 -0.000002 -0.000002 2.763674
64 -59.432373 7.768407 0.009486 -0.309856 0.054713 2.718564
65 38.920544 -0.022146 -0.014930 0.888000 -0.892167 -0.167911
66 38.481655 -0.028947 -0.009410 0.437676 -0.798331 -0.016489
67 39.929047 -0.027950 -0.000298 0.011931 -0.457601 0.160138
68 35.594025 -0.041301 0.003706 -0.109470 -0.618963 0.208437
69 52.623211 -0.000000 -0.000004 3.141593 -0.000003 1.570000
70 76.977310 14.423797 -0.056405 0.000002 0.000001 -1.026751
71 88.799866 -0.000001 32.090240 1.570796 0.000000 0.000000
72 88.799866 -0.000001 32.090240 1.570796 0.000000 0.000000
end
