version 1
nodes
0 "Box01" -1
1 "Bip01" -1
2 "Bip01 Footsteps" 1
3 "Bip01 Pelvis" 1
4 "Bip01 Spine" 3
5 "Bip01 L Thigh" 4
6 "Bip01 L Calf" 5
7 "Bip01 L HorseLink" 6
8 "Bip01 L Foot" 7
9 "Bip01 L Toe0" 8
10 "Bip01 L Toe01" 9
11 "Bip01 L Toe02" 10
12 "Bip01 L Toe0Nub" 11
13 "Bip01 R Thigh" 4
14 "Bip01 R Calf" 13
15 "Bip01 R HorseLink" 14
16 "Bip01 R Foot" 15
17 "Bip01 R Toe0" 16
18 "Bip01 R Toe01" 17
19 "Bip01 R Toe02" 18
20 "Bip01 R Toe0Nub" 19
21 "Bip01 Spine1" 4
22 "Bip01 Neck" 21
23 "Bip01 Neck1" 22
24 "Bip01 Head" 23
25 "Bip01 HeadNub" 24
26 "Bone02" 24
27 "Bone03" 24
28 "Bone04" 24
29 "Bone05" 24
30 "Bone06" 24
31 "Bip01 L Clavicle" 22
32 "Bip01 L UpperArm" 31
33 "Bip01 L Forearm" 32
34 "Bip01 L Hand" 33
35 "Bip01 L Finger0" 34
36 "Bip01 L Finger01" 35
37 "Bip01 L Finger0Nub" 36
38 "Bip01 L Finger1" 34
39 "Bip01 L Finger11" 38
40 "Bip01 L Finger1Nub" 39
41 "Bip01 L Finger2" 34
42 "Bip01 L Finger21" 41
43 "Bip01 L Finger2Nub" 42
44 "Box02" 32
45 "Box04" 44
46 "Bip01 R Clavicle" 22
47 "Bip01 R UpperArm" 46
48 "Bip01 R Forearm" 47
49 "Bip01 R Hand" 48
50 "Bip01 R Finger0" 49
51 "Bip01 R Finger01" 50
52 "Bip01 R Finger0Nub" 51
53 "Bip01 R Finger1" 49
54 "Bip01 R Finger11" 53
55 "Bip01 R Finger1Nub" 54
56 "Bip01 R Finger2" 49
57 "Bip01 R Finger21" 56
58 "Bip01 R Finger2Nub" 57
59 "Box03" 47
60 "Box05" 59
61 "Bone09" 21
62 "Bone08" 21
63 "Bone07" 21
64 "Bip01 Tail" 4
65 "Bip01 Tail1" 64
66 "Bip01 Tail2" 65
67 "Bip01 Tail3" 66
68 "Bip01 Tail4" 67
69 "Bip01 TailNub" 68
70 "Bone10" 68
71 "Object01" -1
72 "Object02" -1
end
skeleton
time 0
0 88.799866 -0.000001 32.090240 1.570796 0.000000 0.000000
1 0.056815 32.744511 91.294289 0.000000 1.047198 -1.570795
2 79.141693 -0.000003 -45.692478 -1.047198 -0.000001 1.570796
3 0.578569 -0.000000 1.002115 -1.570795 -1.570796 0.000000
4 19.667530 -0.015394 0.000027 -0.000004 -0.000001 0.000796
5 -19.667513 0.030969 34.045998 -0.000002 -3.141590 -0.901176
6 48.144657 0.000000 -0.000003 -0.000000 0.000000 -0.438978
7 8.787694 -0.000004 0.000002 -0.000000 0.000000 1.395361
8 37.448341 0.000004 -0.000003 0.000000 -0.000000 -0.809566
9 10.603357 10.781816 -0.000000 -0.000000 -0.000000 1.570796
10 1.115360 0.000000 -0.000003 0.000000 0.000000 0.000000
11 1.115360 0.000000 0.000003 0.000000 0.000000 0.000000
12 1.115360 0.000000 0.000001 0.000000 0.000000 3.141593
13 -19.667511 0.031155 -34.045998 -0.000002 -3.141590 -0.901161
14 48.144661 -0.000002 0.000001 0.000000 0.000000 -0.438900
15 8.787699 -0.000003 0.000002 -0.000000 0.000000 1.395304
16 37.448334 0.000004 0.000001 0.000000 -0.000000 -0.809572
17 10.603358 10.781816 -0.000000 0.000000 0.000000 1.570796
18 1.115360 0.000000 -0.000003 0.000000 0.000000 0.000000
19 1.115360 0.000000 0.000003 0.000000 0.000000 0.000000
20 1.115360 0.000000 0.000001 0.000000 0.000000 0.000000
21 19.338169 -0.014464 -0.000000 -0.000000 -0.000001 0.349066
22 19.350187 -0.019391 -0.000000 -0.000001 -0.000002 0.728131
23 32.624260 -0.025811 0.000000 -0.000000 -0.000001 0.466332
24 36.268288 0.000000 0.000000 -0.000001 0.000002 -0.846196
25 19.745592 0.000000 -0.000000 0.000000 0.000000 0.000000
26 33.906574 77.904572 -0.056892 -0.000002 0.000000 -2.646049
27 46.314243 -1.493384 -0.057019 -0.000002 0.000000 -2.646049
28 47.929737 -50.247265 -0.057093 -0.000002 0.000000 -2.646049
29 18.551147 15.394995 10.634682 -0.000002 0.000000 -2.646049
30 18.551136 15.395023 -10.216358 -0.000002 0.000000 -2.646049
31 -10.898237 -0.844522 21.507069 -0.567210 -0.374707 2.641728
32 67.635147 -0.000003 0.000000 -1.085584 -2.628034 0.169317
33 65.342247 0.000014 0.000009 -0.000000 0.000000 -0.149045
34 3.535512 -0.000000 -0.000002 -2.006332 0.523599 0.000000
35 1.080032 0.049226 -0.517045 0.000000 0.000796 1.570796
36 45.434570 0.000005 -0.000007 0.000000 -0.000000 0.261799
37 59.196022 0.000007 0.000010 0.000000 0.000000 0.000000
38 1.079212 0.000009 -0.000004 0.000342 -0.173811 2.007069
39 112.200348 0.000013 0.000000 0.000000 0.000000 0.000000
40 2.065484 -0.000000 0.000001 0.000000 0.000000 0.000000
41 1.078219 -0.061240 0.098170 0.000520 -0.173923 2.268838
42 112.891380 0.000008 0.000022 0.000000 0.000000 0.000000
43 1.721238 0.000001 0.000005 0.000000 0.000000 0.000000
44 -0.726300 -2.959889 -3.646903 -0.956394 1.361472 0.936496
45 0.272711 38.404091 1.817646 -0.000000 0.000000 0.000000
46 -10.898239 -0.844405 -21.507076 0.567205 0.374704 2.641726
47 67.635147 -0.000002 -0.000002 1.085584 2.628034 0.169317
48 65.342247 0.000009 -0.000010 -0.000000 -0.000000 -0.149045
49 3.535513 -0.000003 0.000002 2.006332 -0.523599 0.000000
50 1.080028 0.049222 0.517045 -0.000000 -0.000796 1.570796
51 45.434574 0.000006 -0.000007 0.000000 0.000000 0.261799
52 59.196022 0.000011 0.000001 0.000000 0.000000 3.141593
53 1.079216 0.000006 0.000000 -0.000342 0.173811 2.007069
54 112.200356 0.000000 0.000007 0.000000 0.000000 0.000000
55 2.065485 0.000004 0.000010 0.000000 0.000000 3.141593
56 1.078217 -0.061237 -0.098179 -0.000520 0.173923 2.268838
57 112.891373 0.000012 -0.000013 0.000000 0.000000 0.000000
58 1.721238 -0.000000 0.000003 0.000000 0.000000 3.141593
59 -0.114826 -2.044655 3.888002 -0.956387 1.780118 0.936505
60 0.845746 38.795280 0.842520 -0.000000 -0.000000 -0.000000
61 44.146183 23.470114 28.730305 -0.000002 -0.000002 2.763674
62 44.146099 23.470257 -28.756023 -0.000002 -0.000002 2.763674
63 11.035363 -33.182293 -0.056954 -0.000002 -0.000002 2.763674
64 -47.769928 -11.565482 -0.000034 -0.000006 0.000000 -3.099093
65 38.901501 -0.030358 0.000000 -0.000000 0.000000 -0.132033
66 38.465561 -0.031027 0.000000 -0.000000 0.000001 -0.219299
67 39.937443 -0.025151 0.000000 -0.000000 -0.000001 0.478832
68 35.603992 -0.038738 0.000000 -0.000000 -0.000001 0.391566
69 52.623211 -0.000002 0.000000 -3.141593 -0.000003 1.570000
70 77.492271 14.003127 -0.056411 0.000003 0.000001 -0.764951
71 88.799866 -0.000001 32.090240 1.570796 0.000000 0.000000
72 88.799866 -0.000001 32.090240 1.570796 0.000000 0.000000
time 1
0 88.799866 -0.000001 32.090240 1.570796 0.000000 0.000000
1 0.056815 32.744511 88.770798 0.000000 1.047198 -1.570795
2 76.956322 -0.000003 -44.430752 -1.047198 -0.000001 1.570796
3 0.578574 -0.000000 1.002115 -1.570795 -1.570796 0.000000
4 19.667526 -0.015390 0.000027 -0.000004 -0.000001 0.000796
5 -19.667507 0.030956 34.045998 -0.000003 -3.141591 -0.412680
6 48.144657 -0.000001 -0.000002 -0.000000 0.000000 -0.002013
7 8.787702 -0.000003 -0.000002 -0.000000 0.000000 1.201927
8 37.448341 0.000005 0.000001 0.000000 -0.000001 -0.899120
9 10.603357 10.781817 0.000000 -0.000000 0.000000 1.610792
10 1.115362 0.000000 -0.000002 0.000000 0.000000 0.000000
11 1.115359 0.000000 0.000003 0.000000 0.000000 0.000000
12 1.115359 0.000000 0.000001 0.000000 0.000000 -3.141593
13 -19.667507 0.031142 -34.045998 -0.000002 -3.141590 -0.957725
14 48.144661 -0.000004 -0.000001 -0.000000 -0.000000 -0.945936
15 8.787696 -0.000003 -0.000000 0.000000 -0.000000 1.845774
16 37.448338 0.000005 -0.000000 0.000000 -0.000000 -0.809570
17 10.603358 10.781816 -0.000000 0.000000 0.000000 1.570796
18 1.115360 0.000000 -0.000004 0.000000 0.000000 0.000000
19 1.115360 0.000000 0.000002 0.000000 0.000000 0.000000
20 1.115360 0.000000 0.000000 0.000000 0.000000 0.000000
21 19.338171 -0.014470 -0.000000 -0.000000 -0.000001 0.349066
22 19.350187 -0.019386 -0.000000 -0.000001 -0.000002 0.728131
23 32.622398 -0.026664 0.000000 -0.000000 -0.000001 0.395226
24 36.268288 -0.000001 0.000000 -0.000001 0.000002 -0.775090
25 19.745592 -0.000002 -0.000000 0.000000 0.000000 0.000000
26 33.906574 77.904572 -0.056892 -0.000002 0.000000 -2.646049
27 46.314243 -1.493387 -0.057019 -0.000002 0.000000 -2.646049
28 47.929737 -50.247265 -0.057093 -0.000002 0.000000 -2.646049
29 18.551147 15.394993 10.634682 -0.000002 0.000000 -2.646049
30 18.551136 15.395020 -10.216358 -0.000002 0.000000 -2.646049
31 -10.898237 -0.844518 21.507069 -0.560067 -0.344652 2.621435
32 67.635139 0.000004 0.000002 -1.078836 -2.663088 0.166105
33 65.342247 0.000004 0.000006 -0.000000 0.000000 -0.149045
34 3.535512 0.000001 -0.000003 -2.006332 0.523599 0.000000
35 1.080028 0.049213 -0.517039 0.000000 0.000796 1.570796
36 45.434574 0.000002 0.000001 0.000000 -0.000000 0.261799
37 59.196022 0.000006 0.000010 0.000000 0.000000 0.000000
38 1.079210 0.000002 -0.000003 0.000342 -0.173811 2.007069
39 112.200348 0.000013 0.000007 0.000000 0.000000 0.000000
40 2.065484 -0.000000 0.000000 0.000000 0.000000 0.000000
41 1.078219 -0.061250 0.098182 0.000520 -0.173923 2.268838
42 112.891380 0.000011 0.000009 0.000000 0.000000 0.000000
43 1.721237 0.000001 -0.000001 0.000000 0.000000 0.000000
44 -0.726297 -2.959892 -3.646902 -0.956394 1.361472 0.936496
45 0.272711 38.404091 1.817652 -0.000000 0.000000 0.000000
46 -10.898238 -0.844401 -21.507076 0.560061 0.344649 2.621433
47 67.635139 -0.000002 -0.000003 1.078837 2.663088 0.166104
48 65.342247 0.000006 -0.000006 -0.000000 -0.000000 -0.149045
49 3.535513 0.000005 0.000002 2.006332 -0.523599 0.000000
50 1.080027 0.049217 0.517040 -0.000000 -0.000796 1.570796
51 45.434574 0.000010 -0.000003 0.000000 0.000000 0.261799
52 59.196018 0.000011 -0.000002 0.000000 0.000000 3.141593
53 1.079219 -0.000002 -0.000004 -0.000342 0.173811 2.007069
54 112.200356 0.000001 0.000016 0.000000 0.000000 0.000000
55 2.065483 0.000003 0.000003 0.000000 0.000000 3.141593
56 1.078210 -0.061244 -0.098179 -0.000520 0.173923 2.268838
57 112.891365 0.000009 -0.000008 0.000000 0.000000 0.000000
58 1.721234 0.000001 0.000000 0.000000 0.000000 3.141593
59 -0.114826 -2.044650 3.888002 -0.956387 1.780118 0.936505
60 0.845746 38.795284 0.842520 -0.000000 -0.000000 -0.000000
61 44.146183 23.470119 28.730305 -0.000002 -0.000002 2.763674
62 44.146099 23.470261 -28.756023 -0.000002 -0.000002 2.763674
63 11.035363 -33.182289 -0.056954 -0.000002 -0.000002 2.763674
64 -47.772610 -11.565733 -0.000034 -0.000006 0.000000 -3.011827
65 38.904175 -0.030598 0.000000 -0.000000 0.000000 -0.044766
66 38.465553 -0.031030 0.000000 -0.000000 0.000001 -0.219299
67 39.928047 -0.028099 0.000000 -0.000000 -0.000000 0.129766
68 35.597015 -0.040924 0.000000 -0.000000 -0.000001 0.217033
69 52.623226 0.000000 0.000000 -3.141593 -0.000003 1.570000
70 77.492287 14.003130 -0.056410 0.000003 0.000001 -0.764951
71 88.799866 -0.000001 32.090240 1.570796 0.000000 0.000000
72 88.799866 -0.000001 32.090240 1.570796 0.000000 0.000000
time 2
0 88.799866 -0.000001 32.090240 1.570796 0.000000 0.000000
1 0.056815 32.744511 86.247322 0.000000 1.047198 -1.570795
2 74.770897 -0.000003 -43.168995 -1.047198 -0.000001 1.570796
3 0.578574 -0.000000 1.002115 -1.570795 -1.570796 0.000000
4 19.667530 -0.015397 0.000027 -0.000004 -0.000001 0.000796
5 -19.667511 0.030968 34.045998 -0.000003 -3.141592 0.006251
6 48.144665 -0.000002 -0.000001 -0.000000 0.000000 -0.002013
7 8.787694 0.000000 0.000001 -0.000000 0.000000 1.345528
8 37.448341 -0.000005 -0.000001 0.000000 -0.000001 -0.929224
9 10.603357 10.781812 -0.000001 -0.000000 -0.000000 1.621701
10 1.115358 -0.000003 -0.000003 0.000000 0.000000 0.000000
11 1.115361 0.000001 0.000002 0.000000 0.000000 0.000000
12 1.115364 0.000001 -0.000001 0.000000 0.000000 3.141593
13 -19.667509 0.031154 -34.045998 -0.000002 -3.141590 -0.979071
14 48.144657 -0.000003 -0.000001 -0.000000 -0.000000 -1.287205
15 8.787698 -0.000001 0.000001 0.000000 -0.000000 2.165694
16 37.448338 0.000008 -0.000001 0.000000 -0.000000 -0.809567
17 10.603358 10.781816 -0.000000 0.000000 0.000000 1.570796
18 1.115360 0.000000 -0.000004 0.000000 0.000000 0.000000
19 1.115360 0.000000 0.000002 0.000000 0.000000 0.000000
20 1.115360 0.000000 0.000000 0.000000 0.000000 0.000000
21 19.338171 -0.014465 -0.000000 -0.000000 -0.000001 0.349066
22 19.350187 -0.019388 -0.000000 -0.000001 -0.000002 0.728131
23 32.620472 -0.027383 0.000000 -0.000000 -0.000001 0.324120
24 36.268284 -0.000003 0.000000 -0.000001 0.000002 -0.703984
25 19.745594 0.000000 -0.000000 0.000000 0.000000 0.000000
26 33.906574 77.904572 -0.056892 -0.000002 0.000000 -2.646049
27 46.314243 -1.493384 -0.057019 -0.000002 0.000000 -2.646049
28 47.929733 -50.247261 -0.057093 -0.000002 0.000000 -2.646049
29 18.551151 15.394995 10.634682 -0.000002 0.000000 -2.646049
30 18.551138 15.395023 -10.216358 -0.000002 0.000000 -2.646049
31 -10.898237 -0.844518 21.507069 -0.553639 -0.314469 2.601577
32 67.635147 -0.000004 0.000000 -1.072330 -2.698160 0.163210
33 65.342247 0.000002 0.000005 -0.000000 0.000000 -0.149045
34 3.535512 -0.000003 -0.000003 -2.006332 0.523599 0.000000
35 1.080030 0.049218 -0.517039 0.000000 0.000796 1.570796
36 45.434574 0.000006 -0.000005 0.000000 -0.000000 0.261799
37 59.196022 0.000006 0.000012 0.000000 0.000000 0.000000
38 1.079212 0.000007 -0.000004 0.000342 -0.173811 2.007069
39 112.200348 0.000013 0.000001 0.000000 0.000000 0.000000
40 2.065484 -0.000001 0.000002 0.000000 0.000000 0.000000
41 1.078217 -0.061247 0.098176 0.000520 -0.173923 2.268838
42 112.891380 0.000006 0.000017 0.000000 0.000000 0.000000
43 1.721238 -0.000001 -0.000000 0.000000 0.000000 0.000000
44 -0.726299 -2.959895 -3.646903 -0.956394 1.361472 0.936496
45 0.272711 38.404091 1.817657 -0.000000 0.000000 0.000000
46 -10.898238 -0.844400 -21.507076 0.553634 0.314466 2.601575
47 67.635147 -0.000002 0.000000 1.072330 2.698160 0.163210
48 65.342247 0.000010 -0.000006 -0.000000 -0.000000 -0.149045
49 3.535513 -0.000008 0.000002 2.006332 -0.523599 0.000000
50 1.080025 0.049214 0.517042 -0.000000 -0.000796 1.570796
51 45.434570 0.000006 -0.000006 0.000000 0.000000 0.261799
52 59.196018 0.000011 0.000002 0.000000 0.000000 3.141593
53 1.079217 -0.000004 -0.000001 -0.000342 0.173811 2.007069
54 112.200356 -0.000005 0.000010 0.000000 0.000000 0.000000
55 2.065482 0.000005 0.000005 0.000000 0.000000 3.141593
56 1.078212 -0.061243 -0.098183 -0.000520 0.173923 2.268838
57 112.891365 0.000007 -0.000005 0.000000 0.000000 0.000000
58 1.721235 -0.000002 0.000003 0.000000 0.000000 3.141593
59 -0.114826 -2.044647 3.888001 -0.956387 1.780118 0.936505
60 0.845745 38.795284 0.842518 -0.000000 -0.000000 -0.000000
61 44.146183 23.470118 28.730305 -0.000002 -0.000002 2.763674
62 44.146099 23.470259 -28.756023 -0.000002 -0.000002 2.763674
63 11.035363 -33.182289 -0.056954 -0.000002 -0.000002 2.763674
64 -47.775269 -11.566186 -0.000034 -0.000005 0.000001 -2.924560
65 38.909496 -0.030385 0.000000 -0.000000 -0.000000 0.129766
66 38.468311 -0.031511 0.000000 -0.000000 0.000000 -0.132033
67 39.918205 -0.027654 0.000000 -0.000000 0.000001 -0.219299
68 35.586132 -0.041850 0.000000 -0.000000 0.000000 -0.044766
69 52.623211 0.000005 0.000001 -3.141593 -0.000003 1.570000
70 77.492279 14.003139 -0.056410 0.000003 0.000001 -0.764951
71 88.799866 -0.000001 32.090240 1.570796 0.000000 0.000000
72 88.799866 -0.000001 32.090240 1.570796 0.000000 0.000000
time 3
0 88.799866 -0.000001 32.090240 1.570796 0.000000 0.000000
1 0.056815 32.744511 85.111526 0.000000 1.047198 -1.570795
2 73.787292 -0.000003 -42.601109 -1.047198 -0.000001 1.570796
3 0.578575 -0.000000 1.002115 -1.570795 -1.570796 0.000000
4 19.667526 -0.015390 0.000027 -0.000004 -0.000001 0.000796
5 -19.667505 0.030963 34.045998 -0.000003 3.141592 0.427570
6 48.144661 0.000007 -0.000002 0.000000 -0.000000 -0.002013
7 8.787695 -0.000012 -0.000000 0.000000 -0.000000 0.979780
8 37.448345 0.000005 -0.000004 0.000001 -0.000001 -0.985731
9 10.603355 10.781814 -0.000001 -0.000000 -0.000000 1.570796
10 1.115364 -0.000004 0.000002 0.000000 0.000000 0.000000
11 1.115359 0.000007 -0.000001 0.000000 0.000000 0.000000
12 1.115356 0.000003 -0.000001 0.000000 0.000000 3.141593
13 -19.667505 0.031149 -34.045998 -0.000002 -3.141590 -0.982648
14 48.144653 -0.000002 -0.000001 -0.000000 0.000000 -1.422901
15 8.787699 0.000002 0.000001 0.000000 0.000000 2.297811
16 37.448338 0.000008 -0.000001 0.000000 -0.000000 -0.809565
17 10.603358 10.781816 -0.000000 0.000000 0.000000 1.570796
18 1.115360 0.000000 -0.000003 0.000000 0.000000 0.000000
19 1.115360 0.000000 0.000003 0.000000 0.000000 0.000000
20 1.115360 0.000000 0.000001 0.000000 0.000000 0.000000
21 19.338173 -0.014464 -0.000000 -0.000000 -0.000001 0.349066
22 19.350183 -0.019390 -0.000000 -0.000001 -0.000002 0.728131
23 32.619595 -0.027666 0.000000 -0.000000 -0.000001 0.291800
24 36.268288 0.000004 0.000000 -0.000001 0.000002 -0.671663
25 19.745594 -0.000002 -0.000000 0.000000 0.000000 0.000000
26 33.906574 77.904572 -0.056892 -0.000002 0.000000 -2.646049
27 46.314243 -1.493386 -0.057019 -0.000002 0.000000 -2.646049
28 47.929741 -50.247265 -0.057093 -0.000002 0.000000 -2.646049
29 18.551149 15.394993 10.634683 -0.000002 0.000000 -2.646049
30 18.551136 15.395021 -10.216357 -0.000002 0.000000 -2.646049
31 -10.898237 -0.844519 21.507069 -0.550946 -0.300711 2.592681
32 67.635147 -0.000004 -0.000002 -1.069445 -2.714108 0.161993
33 65.342247 0.000003 0.000005 -0.000000 0.000000 -0.149045
34 3.535512 -0.000004 -0.000002 -2.006332 0.523599 0.000000
35 1.080028 0.049216 -0.517036 0.000000 0.000796 1.570796
36 45.434578 0.000002 0.000001 0.000000 -0.000000 0.261799
37 59.196022 0.000006 0.000010 0.000000 0.000000 0.000000
38 1.079210 0.000005 -0.000001 0.000342 -0.173811 2.007069
39 112.200356 0.000014 0.000007 0.000000 0.000000 0.000000
40 2.065484 0.000000 0.000000 0.000000 0.000000 0.000000
41 1.078219 -0.061246 0.098184 0.000520 -0.173923 2.268838
42 112.891380 0.000010 0.000015 0.000000 0.000000 0.000000
43 1.721239 -0.000001 -0.000003 0.000000 0.000000 0.000000
44 -0.726298 -2.959893 -3.646903 -0.956394 1.361472 0.936496
45 0.272711 38.404091 1.817648 -0.000000 0.000000 0.000000
46 -10.898238 -0.844401 -21.507076 0.550941 0.300708 2.592679
47 67.635139 -0.000001 0.000005 1.069445 2.714108 0.161993
48 65.342247 0.000003 -0.000006 -0.000000 -0.000000 -0.149045
49 3.535512 0.000006 0.000002 2.006332 -0.523599 0.000000
50 1.080028 0.049216 0.517041 -0.000000 -0.000796 1.570796
51 45.434570 0.000010 -0.000007 0.000000 0.000000 0.261799
52 59.196018 0.000011 0.000001 0.000000 0.000000 3.141593
53 1.079217 -0.000001 -0.000003 -0.000342 0.173811 2.007069
54 112.200356 0.000001 0.000012 0.000000 0.000000 0.000000
55 2.065482 0.000005 -0.000001 0.000000 0.000000 3.141593
56 1.078207 -0.061242 -0.098179 -0.000520 0.173923 2.268838
57 112.891365 0.000009 -0.000010 0.000000 0.000000 0.000000
58 1.721241 0.000000 -0.000002 0.000000 0.000000 3.141593
59 -0.114825 -2.044653 3.888001 -0.956387 1.780118 0.936505
60 0.845746 38.795280 0.842524 -0.000000 -0.000000 -0.000000
61 44.146179 23.470116 28.730305 -0.000002 -0.000002 2.763674
62 44.146099 23.470259 -28.756023 -0.000002 -0.000002 2.763674
63 11.035362 -33.182293 -0.056954 -0.000002 -0.000002 2.763674
64 -47.777882 -11.566891 -0.000034 -0.000005 0.000001 -2.837293
65 38.912136 -0.029923 0.000000 -0.000000 -0.000001 0.217033
66 38.476601 -0.031524 0.000000 -0.000000 -0.000000 0.129766
67 39.932888 -0.027041 -0.000000 -0.000000 -0.000001 0.304299
68 35.578896 -0.040899 -0.000000 -0.000000 0.000001 -0.219299
69 52.623219 -0.000005 0.000000 -3.141593 -0.000003 1.570000
70 77.492279 14.003129 -0.056411 0.000003 0.000001 -0.764951
71 88.799866 -0.000001 32.090240 1.570796 0.000000 0.000000
72 88.799866 -0.000001 32.090240 1.570796 0.000000 0.000000
time 4
0 88.799866 -0.000001 32.090240 1.570796 0.000000 0.000000
1 0.056815 32.744511 86.288551 0.000000 1.047198 -1.570795
2 74.806633 -0.000003 -43.189625 -1.047198 -0.000001 1.570796
3 0.578574 -0.000000 1.002115 -1.570795 -1.570796 0.000000
4 19.667530 -0.015397 0.000027 -0.000004 -0.000001 0.000796
5 -19.667509 0.030967 34.045998 -0.000003 -3.141592 -0.001832
6 48.144665 0.000000 -0.000001 0.000000 0.000000 -0.047409
7 8.787703 0.000002 -0.000002 0.000000 -0.000000 2.137421
8 37.448341 0.000004 0.000001 0.000000 -0.000001 -1.612697
9 10.603359 10.781819 -0.000000 -0.000000 -0.000000 1.570796
10 1.115360 -0.000000 -0.000003 0.000000 0.000000 0.000000
11 1.115358 -0.000001 0.000002 0.000000 0.000000 0.000000
12 1.115362 0.000001 0.000003 0.000000 0.000000 3.141593
13 -19.667507 0.031153 -34.045998 -0.000002 -3.141590 -0.978881
14 48.144657 -0.000006 -0.000001 0.000000 -0.000000 -1.282150
15 8.787697 -0.000000 0.000001 0.000000 0.000000 2.160825
16 37.448334 0.000003 -0.000001 0.000000 -0.000000 -0.809563
17 10.603358 10.781816 -0.000000 0.000000 0.000000 1.570796
18 1.115360 0.000000 -0.000004 0.000000 0.000000 0.000000
19 1.115360 0.000000 0.000002 0.000000 0.000000 0.000000
20 1.115360 0.000000 0.000000 0.000000 0.000000 0.000000
21 19.338175 -0.014466 -0.000000 -0.000000 -0.000001 0.349066
22 19.350185 -0.019385 -0.000000 -0.000001 -0.000002 0.728131
23 32.620480 -0.027375 0.000000 -0.000000 -0.000001 0.324121
24 36.268284 -0.000002 0.000000 -0.000001 0.000002 -0.703984
25 19.745592 0.000001 -0.000000 0.000000 0.000000 0.000000
26 33.906574 77.904579 -0.056892 -0.000002 0.000000 -2.646049
27 46.314243 -1.493384 -0.057019 -0.000002 0.000000 -2.646049
28 47.929733 -50.247261 -0.057093 -0.000002 0.000000 -2.646049
29 18.551149 15.394996 10.634682 -0.000002 0.000000 -2.646049
30 18.551136 15.395024 -10.216358 -0.000002 0.000000 -2.646049
31 -10.898240 -0.844515 21.507069 -0.553639 -0.314469 2.601577
32 67.635139 -0.000006 0.000000 -1.072330 -2.698160 0.163210
33 65.342247 -0.000005 0.000005 -0.000000 0.000000 -0.149045
34 3.535512 0.000002 -0.000002 -2.006332 0.523599 0.000000
35 1.080028 0.049213 -0.517037 0.000000 0.000796 1.570796
36 45.434574 0.000002 0.000002 0.000000 -0.000000 0.261799
37 59.196022 0.000006 0.000011 0.000000 0.000000 0.000000
38 1.079210 0.000002 -0.000002 0.000342 -0.173811 2.007069
39 112.200348 0.000014 0.000003 0.000000 0.000000 0.000000
40 2.065482 0.000000 0.000003 0.000000 0.000000 0.000000
41 1.078218 -0.061249 0.098183 0.000520 -0.173923 2.268838
42 112.891380 0.000011 0.000010 0.000000 0.000000 0.000000
43 1.721240 0.000000 -0.000000 0.000000 0.000000 0.000000
44 -0.726299 -2.959901 -3.646903 -0.956394 1.361472 0.936496
45 0.272711 38.404091 1.817652 -0.000000 0.000000 0.000000
46 -10.898241 -0.844397 -21.507076 0.553634 0.314466 2.601575
47 67.635139 -0.000004 0.000002 1.072330 2.698160 0.163210
48 65.342247 0.000003 -0.000006 -0.000000 -0.000000 -0.149045
49 3.535513 -0.000003 0.000002 2.006332 -0.523599 0.000000
50 1.080027 0.049213 0.517042 -0.000000 -0.000796 1.570796
51 45.434570 0.000010 -0.000000 0.000000 0.000000 0.261799
52 59.196018 0.000011 0.000001 0.000000 0.000000 3.141593
53 1.079219 -0.000006 -0.000002 -0.000342 0.173811 2.007069
54 112.200356 -0.000000 0.000016 0.000000 0.000000 0.000000
55 2.065484 0.000004 0.000004 0.000000 0.000000 3.141593
56 1.078210 -0.061248 -0.098177 -0.000520 0.173923 2.268838
57 112.891365 0.000008 -0.000005 0.000000 0.000000 0.000000
58 1.721236 -0.000001 0.000003 0.000000 0.000000 3.141593
59 -0.114825 -2.044653 3.888002 -0.956387 1.780118 0.936505
60 0.845746 38.795284 0.842529 -0.000000 -0.000000 -0.000000
61 44.146179 23.470119 28.730305 -0.000002 -0.000002 2.763674
62 44.146099 23.470263 -28.756023 -0.000002 -0.000002 2.763674
63 11.035362 -33.182289 -0.056954 -0.000002 -0.000002 2.763674
64 -47.775269 -11.566188 -0.000034 -0.000005 0.000001 -2.924560
65 38.904167 -0.030601 0.000000 -0.000000 0.000000 -0.044767
66 38.479332 -0.031042 0.000000 -0.000000 -0.000001 0.217033
67 39.937447 -0.025156 0.000000 -0.000000 -0.000001 0.478832
68 35.603996 -0.038742 -0.000000 -0.000000 -0.000001 0.391566
69 52.623215 -0.000006 -0.000000 -3.141593 -0.000003 1.570000
70 77.492287 14.003119 -0.056411 0.000003 0.000001 -0.764951
71 88.799866 -0.000001 32.090240 1.570796 0.000000 0.000000
72 88.799866 -0.000001 32.090240 1.570796 0.000000 0.000000
time 5
0 88.799866 -0.000001 32.090240 1.570796 0.000000 0.000000
1 0.056815 32.744511 88.853249 0.000000 1.047198 -1.570795
2 77.027718 -0.000003 -44.471970 -1.047198 -0.000001 1.570796
3 0.578573 -0.000000 1.002115 -1.570795 -1.570796 0.000000
4 19.667530 -0.015398 0.000027 -0.000004 -0.000001 0.000796
5 -19.667511 0.030968 34.045998 -0.000003 -3.141591 -0.440898
6 48.144653 -0.000001 -0.000003 -0.000000 -0.000000 -0.491687
7 8.787703 -0.000007 0.000004 -0.000000 -0.000000 2.163738
8 37.448338 0.000004 -0.000003 0.000000 -0.000000 -1.296858
9 10.603356 10.781816 -0.000001 -0.000000 0.000000 1.570796
10 1.115359 -0.000000 -0.000003 0.000000 0.000000 0.000000
11 1.115359 0.000000 0.000002 0.000000 0.000000 0.000000
12 1.115360 0.000000 -0.000000 0.000000 0.000000 3.141593
13 -19.667511 0.031154 -34.045998 -0.000002 -3.141590 -0.956640
14 48.144661 -0.000004 -0.000002 -0.000000 -0.000000 -0.933303
15 8.787699 -0.000001 0.000002 0.000000 -0.000000 1.834221
16 37.448338 0.000006 0.000001 0.000000 -0.000000 -0.809564
17 10.603358 10.781816 -0.000000 0.000000 0.000000 1.570796
18 1.115360 0.000000 -0.000004 0.000000 0.000000 0.000000
19 1.115360 0.000000 0.000002 0.000000 0.000000 0.000000
20 1.115360 0.000000 0.000000 0.000000 0.000000 0.000000
21 19.338171 -0.014465 -0.000000 -0.000000 -0.000001 0.349066
22 19.350185 -0.019388 -0.000000 -0.000001 -0.000002 0.728131
23 32.622406 -0.026661 0.000000 -0.000000 -0.000001 0.395227
24 36.268284 -0.000002 0.000000 -0.000001 0.000002 -0.775090
25 19.745594 -0.000001 -0.000000 0.000000 0.000000 0.000000
26 33.906574 77.904572 -0.056892 -0.000002 0.000000 -2.646049
27 46.314243 -1.493385 -0.057019 -0.000002 0.000000 -2.646049
28 47.929741 -50.247265 -0.057093 -0.000002 0.000000 -2.646049
29 18.551151 15.394994 10.634682 -0.000002 0.000000 -2.646049
30 18.551138 15.395022 -10.216358 -0.000002 0.000000 -2.646049
31 -10.898238 -0.844520 21.507069 -0.560067 -0.344652 2.621435
32 67.635139 0.000002 0.000005 -1.078836 -2.663088 0.166105
33 65.342247 0.000002 0.000006 -0.000000 0.000000 -0.149045
34 3.535512 0.000001 -0.000003 -2.006332 0.523599 0.000000
35 1.080028 0.049215 -0.517040 0.000000 0.000796 1.570796
36 45.434574 0.000002 -0.000002 0.000000 -0.000000 0.261799
37 59.196022 0.000006 0.000006 0.000000 0.000000 0.000000
38 1.079210 0.000004 -0.000005 0.000342 -0.173811 2.007069
39 112.200356 0.000013 0.000008 0.000000 0.000000 0.000000
40 2.065484 -0.000001 0.000001 0.000000 0.000000 0.000000
41 1.078219 -0.061247 0.098180 0.000520 -0.173923 2.268838
42 112.891380 0.000011 0.000013 0.000000 0.000000 0.000000
43 1.721240 0.000000 -0.000005 0.000000 0.000000 0.000000
44 -0.726299 -2.959895 -3.646902 -0.956394 1.361472 0.936496
45 0.272711 38.404091 1.817652 -0.000000 0.000000 0.000000
46 -10.898240 -0.844402 -21.507076 0.560061 0.344649 2.621433
47 67.635139 -0.000003 0.000002 1.078837 2.663088 0.166104
48 65.342247 0.000004 -0.000006 -0.000000 -0.000000 -0.149045
49 3.535513 0.000006 0.000002 2.006332 -0.523599 0.000000
50 1.080027 0.049212 0.517041 -0.000000 -0.000796 1.570796
51 45.434574 0.000010 0.000001 0.000000 0.000000 0.261799
52 59.196018 0.000011 0.000001 0.000000 0.000000 3.141593
53 1.079219 -0.000007 -0.000002 -0.000342 0.173811 2.007069
54 112.200356 0.000001 0.000015 0.000000 0.000000 0.000000
55 2.065484 0.000005 0.000003 0.000000 0.000000 3.141593
56 1.078210 -0.061249 -0.098178 -0.000520 0.173923 2.268838
57 112.891365 0.000009 -0.000004 0.000000 0.000000 0.000000
58 1.721237 0.000000 0.000004 0.000000 0.000000 3.141593
59 -0.114824 -2.044652 3.888002 -0.956387 1.780118 0.936505
60 0.845746 38.795284 0.842521 -0.000000 -0.000000 -0.000000
61 44.146179 23.470118 28.730305 -0.000002 -0.000002 2.763674
62 44.146095 23.470259 -28.756023 -0.000002 -0.000002 2.763674
63 11.035362 -33.182289 -0.056954 -0.000002 -0.000002 2.763674
64 -47.772614 -11.565722 -0.000034 -0.000006 0.000000 -3.011827
65 38.898880 -0.029895 0.000000 -0.000000 0.000001 -0.219299
66 38.479328 -0.031053 0.000000 -0.000000 -0.000001 0.217033
67 39.932884 -0.027029 0.000000 -0.000000 -0.000001 0.304299
68 35.603985 -0.038739 0.000000 -0.000000 -0.000001 0.391566
69 52.623215 -0.000003 -0.000000 -3.141593 -0.000003 1.570000
70 77.492264 14.003132 -0.056411 0.000003 0.000001 -0.764951
71 88.799866 -0.000001 32.090240 1.570796 0.000000 0.000000
72 88.799866 -0.000001 32.090240 1.570796 0.000000 0.000000
time 6
0 88.799866 -0.000001 32.090240 1.570796 0.000000 0.000000
1 0.056815 32.744511 91.417961 0.000000 1.047198 -1.570795
2 79.248795 -0.000003 -45.754307 -1.047198 -0.000001 1.570796
3 0.578575 -0.000000 1.002115 -1.570795 -1.570796 0.000000
4 19.667530 -0.015396 0.000027 -0.000004 -0.000001 0.000796
5 -19.667511 0.030964 34.045998 -0.000002 -3.141590 -0.895838
6 48.144653 0.000000 -0.000003 0.000000 0.000000 -0.399368
7 8.787697 0.000000 0.000002 -0.000000 0.000000 1.361085
8 37.448338 0.000004 -0.000003 0.000000 -0.000000 -0.809561
9 10.603357 10.781816 -0.000000 -0.000000 -0.000000 1.570796
10 1.115360 0.000000 -0.000003 0.000000 0.000000 0.000000
11 1.115360 0.000000 0.000003 0.000000 0.000000 0.000000
12 1.115360 0.000000 0.000001 0.000000 0.000000 3.141593
13 -19.667509 0.031150 -34.045998 -0.000002 -3.141590 -0.895863
14 48.144653 -0.000001 0.000000 0.000000 0.000000 -0.399497
15 8.787697 -0.000003 0.000002 0.000000 0.000000 1.361191
16 37.448334 0.000002 0.000001 0.000000 -0.000000 -0.809564
17 10.603358 10.781816 -0.000000 0.000000 0.000000 1.570796
18 1.115360 0.000000 -0.000003 0.000000 0.000000 0.000000
19 1.115360 0.000000 0.000003 0.000000 0.000000 0.000000
20 1.115360 0.000000 0.000001 0.000000 0.000000 0.000000
21 19.338173 -0.014469 -0.000000 -0.000000 -0.000001 0.349066
22 19.350185 -0.019390 -0.000000 -0.000001 -0.000002 0.728131
23 32.624260 -0.025804 0.000000 -0.000000 -0.000001 0.466332
24 36.268288 0.000003 0.000000 -0.000001 0.000002 -0.846196
25 19.745594 -0.000006 -0.000000 0.000000 0.000000 0.000000
26 33.906574 77.904572 -0.056892 -0.000002 0.000000 -2.646049
27 46.314243 -1.493390 -0.057019 -0.000002 0.000000 -2.646049
28 47.929741 -50.247269 -0.057093 -0.000002 0.000000 -2.646049
29 18.551149 15.394989 10.634682 -0.000002 0.000000 -2.646049
30 18.551136 15.395018 -10.216358 -0.000002 0.000000 -2.646049
31 -10.898236 -0.844515 21.507069 -0.567210 -0.374707 2.641728
32 67.635147 -0.000003 -0.000002 -1.085584 -2.628034 0.169317
33 65.342247 0.000012 0.000009 -0.000000 0.000000 -0.149045
34 3.535512 -0.000005 -0.000003 -2.006332 0.523599 0.000000
35 1.080032 0.049222 -0.517038 0.000000 0.000796 1.570796
36 45.434570 0.000005 -0.000002 0.000000 -0.000000 0.261799
37 59.196022 0.000007 0.000006 0.000000 0.000000 0.000000
38 1.079212 0.000005 0.000003 0.000342 -0.173811 2.007069
39 112.200348 0.000014 0.000006 0.000000 0.000000 0.000000
40 2.065483 0.000000 0.000006 0.000000 0.000000 0.000000
41 1.078219 -0.061244 0.098177 0.000520 -0.173923 2.268838
42 112.891380 0.000006 0.000015 0.000000 0.000000 0.000000
43 1.721239 -0.000001 -0.000003 0.000000 0.000000 0.000000
44 -0.726297 -2.959891 -3.646903 -0.956394 1.361472 0.936496
45 0.272711 38.404091 1.817658 -0.000000 0.000000 0.000000
46 -10.898238 -0.844397 -21.507076 0.567205 0.374704 2.641726
47 67.635147 -0.000002 0.000001 1.085584 2.628034 0.169317
48 65.342247 0.000007 -0.000010 -0.000000 -0.000000 -0.149045
49 3.535513 -0.000008 0.000002 2.006332 -0.523599 0.000000
50 1.080028 0.049218 0.517045 -0.000000 -0.000796 1.570796
51 45.434578 0.000006 -0.000012 0.000000 0.000000 0.261799
52 59.196022 0.000011 0.000004 0.000000 0.000000 3.141593
53 1.079217 0.000001 0.000001 -0.000342 0.173811 2.007069
54 112.200356 0.000001 0.000002 0.000000 0.000000 0.000000
55 2.065485 0.000005 0.000005 0.000000 0.000000 3.141593
56 1.078217 -0.061241 -0.098179 -0.000520 0.173923 2.268838
57 112.891373 0.000010 -0.000005 0.000000 0.000000 0.000000
58 1.721240 -0.000002 -0.000004 0.000000 0.000000 3.141593
59 -0.114827 -2.044656 3.888001 -0.956387 1.780118 0.936505
60 0.845746 38.795280 0.842516 -0.000000 -0.000000 -0.000000
61 44.146179 23.470114 28.730305 -0.000002 -0.000002 2.763674
62 44.146099 23.470257 -28.756023 -0.000002 -0.000002 2.763674
63 11.035362 -33.182293 -0.056954 -0.000002 -0.000002 2.763674
64 -47.769924 -11.565488 -0.000034 -0.000006 0.000000 -3.099093
65 38.898872 -0.029887 0.000000 -0.000000 0.000001 -0.219299
66 38.465561 -0.031034 0.000000 -0.000000 0.000001 -0.219299
67 39.937439 -0.025156 0.000001 -0.000000 -0.000001 0.478832
68 35.603996 -0.038737 0.000000 -0.000000 -0.000001 0.391566
69 52.623207 -0.000001 0.000000 -3.141593 -0.000003 1.570000
70 77.492264 14.003127 -0.056411 0.000003 0.000001 -0.764951
71 88.799866 -0.000001 32.090240 1.570796 0.000000 0.000000
72 88.799866 -0.000001 32.090240 1.570796 0.000000 0.000000
end
