version 1
nodes
0 "Box01" -1
1 "Bip01" -1
2 "Bip01 Footsteps" 1
3 "Bip01 Pelvis" 1
4 "Bip01 Spine" 3
5 "Bip01 L Thigh" 4
6 "Bip01 L Calf" 5
7 "Bip01 L HorseLink" 6
8 "Bip01 L Foot" 7
9 "Bip01 L Toe0" 8
10 "Bip01 L Toe01" 9
11 "Bip01 L Toe02" 10
12 "Bip01 L Toe0Nub" 11
13 "Bip01 R Thigh" 4
14 "Bip01 R Calf" 13
15 "Bip01 R HorseLink" 14
16 "Bip01 R Foot" 15
17 "Bip01 R Toe0" 16
18 "Bip01 R Toe01" 17
19 "Bip01 R Toe02" 18
20 "Bip01 R Toe0Nub" 19
21 "Bip01 Spine1" 4
22 "Bip01 Neck" 21
23 "Bip01 Neck1" 22
24 "Bip01 Head" 23
25 "Bip01 HeadNub" 24
26 "Bone02" 24
27 "Bone03" 24
28 "Bone04" 24
29 "Bone05" 24
30 "Bone06" 24
31 "Bip01 L Clavicle" 22
32 "Bip01 L UpperArm" 31
33 "Bip01 L Forearm" 32
34 "Bip01 L Hand" 33
35 "Bip01 L Finger0" 34
36 "Bip01 L Finger01" 35
37 "Bip01 L Finger0Nub" 36
38 "Bip01 L Finger1" 34
39 "Bip01 L Finger11" 38
40 "Bip01 L Finger1Nub" 39
41 "Bip01 L Finger2" 34
42 "Bip01 L Finger21" 41
43 "Bip01 L Finger2Nub" 42
44 "Box02" 32
45 "Box04" 44
46 "Bip01 R Clavicle" 22
47 "Bip01 R UpperArm" 46
48 "Bip01 R Forearm" 47
49 "Bip01 R Hand" 48
50 "Bip01 R Finger0" 49
51 "Bip01 R Finger01" 50
52 "Bip01 R Finger0Nub" 51
53 "Bip01 R Finger1" 49
54 "Bip01 R Finger11" 53
55 "Bip01 R Finger1Nub" 54
56 "Bip01 R Finger2" 49
57 "Bip01 R Finger21" 56
58 "Bip01 R Finger2Nub" 57
59 "Box03" 47
60 "Box05" 59
61 "Bone09" 21
62 "Bone08" 21
63 "Bone07" 21
64 "Bip01 Tail" 4
65 "Bip01 Tail1" 64
66 "Bip01 Tail2" 65
67 "Bip01 Tail3" 66
68 "Bip01 Tail4" 67
69 "Bip01 TailNub" 68
70 "Bone10" 68
71 "Object01" -1
72 "Object02" -1
end
skeleton
time 0
0 88.799866 -0.000001 32.090240 1.570796 0.000000 0.000000
1 0.056815 32.744511 78.064316 0.000000 1.047198 -1.570795
2 58.506680 -0.000002 -33.778843 -1.047198 -0.000001 1.570796
3 0.578572 -0.000000 1.002115 -1.570795 -1.570796 0.000000
4 19.667526 -0.015392 0.000027 -0.000004 -0.000001 0.000796
5 -19.667505 0.030957 34.045998 -0.000003 -3.141592 -0.058070
6 48.144661 -0.000002 -0.000002 0.000000 0.000000 -0.002013
7 8.787691 0.000006 -0.000003 -0.000000 -0.000000 2.151230
8 37.448334 0.000001 0.000004 0.000000 -0.000000 -1.682891
9 10.603356 10.781817 0.000001 -0.000000 -0.000000 1.570796
10 1.115360 0.000001 -0.000001 0.000000 0.000000 0.000000
11 1.115358 -0.000001 -0.000000 0.000000 0.000000 0.000000
12 1.115362 -0.000000 0.000001 0.000000 0.000000 3.141593
13 -19.667505 0.031143 -34.045998 -0.000003 3.141593 -0.057677
14 48.144661 -0.000002 -0.000002 -0.000000 0.000000 -0.002013
15 8.787693 0.000001 0.000000 -0.000000 -0.000000 2.150537
16 37.448334 0.000001 0.000001 -0.000000 0.000000 -1.681805
17 10.603356 10.781817 -0.000001 0.000000 -0.000000 1.570796
18 1.115363 0.000001 -0.000003 0.000000 0.000000 -0.000000
19 1.115356 -0.000001 0.000003 0.000000 0.000000 -0.000000
20 1.115360 0.000000 0.000000 0.000000 0.000000 -0.000000
21 19.338173 -0.014470 -0.000000 -0.000000 -0.000001 0.349066
22 19.326937 -0.025271 -0.000000 -0.000000 0.000001 -0.231800
23 32.607124 -0.028567 -0.000000 -0.000000 0.000000 -0.144533
24 36.268291 -0.000001 -0.000000 -0.000000 0.000001 -0.497130
25 19.745605 -0.000003 -0.000000 0.000000 0.000000 0.000000
26 33.906593 77.904579 -0.056893 -0.000002 0.000000 -2.646049
27 46.314251 -1.493378 -0.057020 -0.000002 0.000000 -2.646049
28 47.929741 -50.247261 -0.057093 -0.000002 0.000000 -2.646049
29 18.551155 15.394991 10.634682 -0.000002 0.000000 -2.646049
30 18.551144 15.395028 -10.216358 -0.000002 0.000000 -2.646049
31 -5.537957 -9.400663 21.507046 -2.348531 -1.324598 -0.546750
32 67.635139 0.000002 0.000005 -0.201292 -0.248663 -0.264088
33 65.342239 0.000000 0.000003 0.000000 -0.000000 -0.149045
34 3.535504 0.000009 0.000006 -1.961129 -0.283652 0.343962
35 1.080034 0.049215 -0.517037 -0.000337 0.000722 1.134464
36 45.434563 0.000008 -0.000007 0.000000 -0.000000 0.261799
37 59.196018 0.000006 -0.000004 0.000000 0.000000 0.000000
38 1.079235 0.000013 0.000004 0.045742 -0.167743 1.741453
39 112.200333 0.000051 -0.000009 0.000000 0.000000 0.000000
40 2.065484 0.000002 0.000001 0.000000 0.000000 0.000000
41 1.078220 -0.061238 0.098187 0.000530 -0.261189 2.268791
42 112.891380 0.000018 0.000012 0.000000 0.000000 0.000000
43 1.721237 0.000005 -0.000006 0.000000 0.000000 0.000000
44 -0.726297 -2.959897 -3.646902 -1.438279 0.435614 0.388639
45 0.272707 38.404095 1.817652 -0.000000 0.000000 0.872665
46 -5.537956 -9.400546 -21.507099 2.348551 1.324601 -0.546731
47 67.635139 0.000004 -0.000007 0.201292 0.248663 -0.264088
48 65.342232 0.000004 -0.000008 -0.000000 0.000000 -0.149044
49 3.535506 -0.000002 0.000001 1.961129 0.283652 0.343962
50 1.080034 0.049216 0.517042 0.000337 -0.000722 1.134464
51 45.434566 -0.000009 0.000007 0.000000 0.000000 0.261799
52 59.196014 0.000011 0.000005 0.000000 0.000000 3.141593
53 1.079232 0.000016 -0.000001 -0.045742 0.167743 1.741453
54 112.200340 0.000029 0.000011 0.000000 0.000000 0.000000
55 2.065480 -0.000002 0.000005 0.000000 0.000000 3.141593
56 1.078207 -0.061246 -0.098178 -0.000530 0.261189 2.268791
57 112.891373 0.000016 -0.000001 0.000000 0.000000 0.000000
58 1.721238 0.000007 0.000003 0.000000 0.000000 3.141593
59 -0.114822 -2.044653 3.888006 -1.438280 2.705976 0.388640
60 0.845749 38.795280 0.842522 -0.000000 0.000000 0.000000
61 44.146179 23.470119 28.730305 -0.000002 -0.000002 2.763674
62 44.146099 23.470261 -28.756023 -0.000002 -0.000002 2.763674
63 11.035362 -33.182289 -0.056954 -0.000002 -0.000002 2.763674
64 -47.769917 -11.565501 -0.000034 -0.000006 0.000000 -3.099093
65 38.901505 -0.030363 0.000000 -0.000000 0.000000 -0.132033
66 38.465561 -0.031029 0.000000 -0.000000 0.000001 -0.219299
67 39.937439 -0.025153 0.000000 -0.000000 -0.000001 0.478832
68 35.603992 -0.038734 0.000000 -0.000000 -0.000001 0.391566
69 52.623203 -0.000002 0.000000 -3.141593 -0.000003 1.570000
70 77.492256 14.003129 -0.056411 0.000003 0.000001 -0.764951
71 88.799866 -0.000001 32.090240 1.570796 0.000000 0.000000
72 88.799866 -0.000001 32.090240 1.570796 0.000000 0.000000
time 1
0 88.799866 -0.000001 32.090240 1.570796 0.000000 0.000000
1 0.056815 32.744511 73.022011 0.000000 1.047198 -1.570795
2 44.847576 -0.000002 -25.892759 -1.047198 -0.000001 1.570796
3 0.578569 -0.000000 1.002115 -1.570795 -1.570796 0.000000
4 19.668428 -0.015370 0.000027 -0.000004 -0.000001 0.059156
5 -19.633114 1.178073 34.046001 -0.000003 -3.141592 -0.206100
6 48.144661 -0.000007 -0.000002 0.000000 0.000000 -0.002013
7 8.787696 0.000001 -0.000002 -0.000000 -0.000000 2.015375
8 37.448330 -0.000001 -0.000003 0.000000 -0.000000 -1.636707
9 10.603356 10.781816 0.000001 -0.000000 -0.000000 1.570796
10 1.115362 0.000000 -0.000003 0.000000 0.000000 0.000000
11 1.115359 -0.000001 0.000002 0.000000 0.000000 0.000000
12 1.115360 0.000001 -0.000000 0.000000 0.000000 3.141593
13 -19.633114 1.178259 -34.045994 -0.000003 -3.141593 -0.152943
14 48.144657 0.000001 0.000001 0.000000 0.000000 -0.002013
15 8.787703 0.000002 0.000000 -0.000000 0.000000 2.113478
16 37.448338 0.000002 0.000001 -0.000000 0.000000 -1.681653
17 10.603356 10.781817 0.000001 0.000000 -0.000000 1.570796
18 1.115359 0.000000 -0.000000 0.000000 0.000000 -0.000000
19 1.115356 -0.000001 0.000001 0.000000 0.000000 -0.000000
20 1.115360 0.000000 0.000003 0.000000 0.000000 -0.000000
21 19.338169 -0.014465 -0.000000 -0.000000 -0.000001 0.349066
22 19.329840 -0.025787 -0.000000 -0.000000 0.000000 -0.118353
23 32.607132 -0.028573 -0.000000 -0.000000 0.000000 -0.144533
24 36.268288 0.000005 -0.000000 -0.000001 0.000002 -0.668936
25 19.745592 -0.000003 -0.000000 0.000000 0.000000 0.000000
26 33.906582 77.904579 -0.056893 -0.000002 0.000000 -2.646049
27 46.314240 -1.493378 -0.057020 -0.000002 0.000000 -2.646049
28 47.929729 -50.247261 -0.057093 -0.000002 0.000000 -2.646049
29 18.551144 15.394991 10.634682 -0.000002 0.000000 -2.646049
30 18.551132 15.395028 -10.216358 -0.000002 0.000000 -2.646049
31 -6.569479 -8.713151 21.507048 -1.742300 -1.116399 -1.262809
32 67.635147 0.000002 0.000002 -0.324419 -0.269838 -0.332282
33 65.342232 -0.000004 0.000006 0.000000 -0.000000 -0.149045
34 3.535499 0.000001 0.000005 -1.940627 -0.291688 0.329042
35 1.080023 0.049215 -0.517045 -0.009877 0.106163 1.160295
36 45.434563 0.000012 -0.000011 0.000000 -0.000000 0.261799
37 59.196018 0.000006 -0.000014 0.000000 0.000000 0.000000
38 1.079209 -0.000008 -0.000001 0.047203 0.079003 1.747457
39 112.200348 0.000031 -0.000008 0.000000 0.000000 0.000000
40 2.065478 0.000008 -0.000003 0.000000 0.000000 0.000000
41 1.078213 -0.061237 0.098182 0.020347 -0.034044 2.354318
42 112.891403 0.000017 0.000004 0.000000 0.000000 0.000000
43 1.721234 0.000004 0.000002 0.000000 0.000000 0.000000
44 -0.726298 -2.959897 -3.646902 -1.438279 0.435614 0.388639
45 0.272716 38.404099 1.817642 -0.000000 0.000000 0.872665
46 -6.569479 -8.713034 -21.507097 1.742304 1.116404 -1.262805
47 67.635139 -0.000002 -0.000005 0.324419 0.269838 -0.332283
48 65.342239 -0.000003 -0.000006 0.000000 0.000000 -0.149045
49 3.535512 0.000003 -0.000003 1.940627 0.291688 0.329042
50 1.080032 0.049216 0.517045 0.009877 -0.106163 1.160295
51 45.434563 0.000011 0.000004 -0.000000 0.000000 0.261799
52 59.196018 0.000013 -0.000001 0.000000 0.000000 3.141593
53 1.079218 -0.000008 0.000002 -0.047203 -0.079003 1.747457
54 112.200340 0.000062 0.000002 0.000000 0.000000 0.000000
55 2.065479 -0.000004 -0.000001 0.000000 0.000000 3.141593
56 1.078212 -0.061248 -0.098178 -0.020347 0.034044 2.354318
57 112.891411 0.000009 -0.000012 0.000000 0.000000 0.000000
58 1.721234 0.000007 0.000006 0.000000 0.000000 3.141593
59 -0.114828 -2.044651 3.888003 -1.438280 2.705976 0.388640
60 0.845741 38.795280 0.842520 -0.000000 -0.000000 -0.000000
61 44.146183 23.470121 28.730303 -0.000002 -0.000002 2.763674
62 44.146099 23.470261 -28.756025 -0.000002 -0.000002 2.763674
63 11.035363 -33.182289 -0.056954 -0.000002 -0.000002 2.763674
64 -48.366768 -8.759606 -0.000026 -0.000006 0.000000 -3.070186
65 38.904175 -0.030599 0.000000 -0.000000 0.000000 -0.044766
66 38.465553 -0.031027 0.000000 -0.000000 0.000001 -0.219299
67 39.928047 -0.028097 0.000000 -0.000000 -0.000000 0.129766
68 35.597023 -0.040925 0.000000 -0.000000 -0.000001 0.217033
69 52.623215 0.000002 0.000000 -3.141593 -0.000003 1.570000
70 77.492271 14.003130 -0.056410 0.000003 0.000001 -0.764951
71 88.799866 -0.000001 32.090240 1.570796 0.000000 0.000000
72 88.799866 -0.000001 32.090240 1.570796 0.000000 0.000000
time 2
0 88.799866 -0.000001 32.090240 1.570796 0.000000 0.000000
1 0.056815 32.744511 67.256660 0.000000 1.047198 -1.570795
2 49.146976 -0.000002 -28.375017 -1.047198 -0.000001 1.570796
3 0.578573 -0.000000 1.002115 -1.570795 -1.570796 0.000000
4 19.669474 -0.015272 0.000027 -0.000004 -0.000001 0.127333
5 -19.508289 2.512859 34.046005 -0.000003 -3.141591 -0.371869
6 48.144657 -0.000003 -0.000000 0.000000 -0.000000 -0.002013
7 8.787699 -0.000001 0.000000 -0.000000 -0.000000 1.870718
8 37.448341 0.000004 -0.000001 0.000000 -0.000000 -1.589643
9 10.603357 10.781815 0.000000 -0.000000 -0.000000 1.570796
10 1.115361 0.000000 -0.000003 0.000000 0.000000 0.000000
11 1.115357 -0.000001 0.000002 0.000000 0.000000 0.000000
12 1.115361 0.000002 -0.000001 0.000000 0.000000 3.141593
13 -19.508289 2.513045 -34.045990 -0.000003 -3.141592 -0.261911
14 48.144657 -0.000007 -0.000003 -0.000000 0.000000 -0.002013
15 8.787698 0.000001 0.000001 -0.000000 -0.000000 2.072520
16 37.448338 0.000000 0.000002 -0.000000 0.000000 -1.681486
17 10.603356 10.781816 0.000000 0.000000 -0.000000 1.570796
18 1.115361 0.000000 -0.000001 0.000000 0.000000 -0.000000
19 1.115359 -0.000001 0.000001 0.000000 0.000000 -0.000000
20 1.115359 0.000001 0.000002 0.000000 0.000000 -0.000000
21 19.338171 -0.014475 -0.000000 -0.000000 -0.000001 0.349066
22 19.333227 -0.025967 -0.000000 -0.000000 -0.000000 0.012547
23 32.607132 -0.028583 -0.000000 -0.000000 0.000000 -0.144533
24 36.268291 0.000011 -0.000000 -0.000001 0.000002 -0.868012
25 19.745592 0.000000 -0.000000 0.000000 0.000000 0.000000
26 33.906590 77.904587 -0.056893 -0.000002 0.000000 -2.646049
27 46.314255 -1.493383 -0.057020 -0.000002 0.000000 -2.646049
28 47.929729 -50.247257 -0.057093 -0.000002 0.000000 -2.646049
29 18.551149 15.394990 10.634681 -0.000002 0.000000 -2.646049
30 18.551140 15.395027 -10.216359 -0.000002 0.000000 -2.646049
31 -7.653951 -7.780902 21.507051 1.568102 -2.251481 1.560920
32 67.635139 -0.000002 0.000004 -0.417956 -0.263742 -0.406619
33 65.342239 0.000010 0.000005 -0.000000 -0.000000 -0.149045
34 3.535505 -0.000010 0.000005 -1.928243 -0.296368 0.319992
35 1.080043 0.049215 -0.517036 -0.013994 0.186984 1.175398
36 45.434559 0.000008 -0.000009 0.000000 0.000000 0.261799
37 59.196007 0.000022 -0.000010 0.000000 0.000000 0.000000
38 1.079240 0.000007 0.000002 0.048890 0.235762 1.751759
39 112.200333 0.000067 -0.000006 0.000000 0.000000 0.000000
40 2.065477 0.000012 0.000002 0.000000 0.000000 0.000000
41 1.078218 -0.061247 0.098178 0.042188 0.109842 2.408131
42 112.891403 0.000025 0.000016 0.000000 0.000000 0.000000
43 1.721233 0.000004 0.000003 0.000000 0.000000 0.000000
44 -0.726300 -2.959895 -3.646902 -1.438279 0.435614 0.388639
45 0.272712 38.404102 1.817644 -0.000000 0.000000 0.872665
46 -7.653950 -7.780785 -21.507093 -1.568102 2.251475 1.560920
47 67.635132 -0.000012 -0.000003 0.417956 0.263742 -0.406619
48 65.342247 0.000002 -0.000007 -0.000000 0.000000 -0.149045
49 3.535499 -0.000001 -0.000004 1.928243 0.296368 0.319992
50 1.080032 0.049224 0.517044 0.013994 -0.186984 1.175398
51 45.434551 0.000008 0.000012 -0.000000 -0.000000 0.261799
52 59.195999 0.000022 0.000001 0.000000 0.000000 3.141593
53 1.079224 -0.000002 -0.000006 -0.048890 -0.235762 1.751759
54 112.200325 0.000069 0.000001 0.000000 0.000000 0.000000
55 2.065484 -0.000012 0.000001 0.000000 0.000000 3.141593
56 1.078212 -0.061243 -0.098185 -0.042188 -0.109842 2.408131
57 112.891403 0.000028 -0.000008 0.000000 0.000000 0.000000
58 1.721233 -0.000005 -0.000001 0.000000 0.000000 3.141593
59 -0.114830 -2.044654 3.888000 -1.438280 2.705976 0.388640
60 0.845745 38.795277 0.842516 -0.000000 -0.000000 0.000000
61 44.146179 23.470121 28.730303 -0.000002 -0.000002 2.763674
62 44.146095 23.470263 -28.756025 -0.000002 -0.000002 2.763674
63 11.035362 -33.182285 -0.056954 -0.000002 -0.000002 2.763674
64 -48.854889 -5.444400 -0.000017 -0.000006 0.000000 -3.051096
65 38.909496 -0.030383 0.000000 -0.000000 -0.000000 0.129766
66 38.468307 -0.031507 0.000000 -0.000000 0.000000 -0.132033
67 39.918205 -0.027662 0.000000 -0.000000 0.000001 -0.219299
68 35.586140 -0.041855 0.000000 -0.000000 0.000000 -0.044766
69 52.623215 -0.000004 0.000001 -3.141593 -0.000003 1.570000
70 77.492287 14.003130 -0.056410 0.000003 0.000001 -0.764951
71 88.799866 -0.000001 32.090240 1.570796 0.000000 0.000000
72 88.799866 -0.000001 32.090240 1.570796 0.000000 0.000000
time 3
0 88.799866 -0.000001 32.090240 1.570796 0.000000 0.000000
1 0.056815 32.744511 62.937401 0.000000 1.047198 -1.570795
2 55.371368 -0.000002 -31.968674 -1.047198 -0.000001 1.570796
3 0.578569 -0.000000 1.002115 -1.570795 -1.570796 0.000000
4 19.670208 -0.015153 0.000027 -0.000004 -0.000001 0.175875
5 -19.364120 3.456509 34.046009 -0.000003 -3.141591 -0.502314
6 48.144657 -0.000004 0.000003 0.000000 -0.000000 -0.002013
7 8.787696 -0.000006 -0.000003 0.000000 0.000000 1.743940
8 37.448334 0.000002 0.000002 0.000000 -0.000000 -1.544768
9 10.603356 10.781815 -0.000000 -0.000000 -0.000000 1.570796
10 1.115362 -0.000001 -0.000004 0.000000 0.000000 0.000000
11 1.115359 -0.000002 0.000001 0.000000 0.000000 0.000000
12 1.115361 0.000001 0.000002 0.000000 0.000000 3.141593
13 -19.364120 3.456695 -34.045986 -0.000002 -3.141592 -0.343474
14 48.144661 -0.000003 0.000002 -0.000000 0.000000 -0.002013
15 8.787695 0.000003 0.000001 -0.000000 0.000000 2.039363
16 37.448334 0.000001 -0.000001 -0.000000 0.000000 -1.681351
17 10.603356 10.781816 -0.000001 0.000000 -0.000000 1.570796
18 1.115360 -0.000000 -0.000002 0.000000 0.000000 -0.000000
19 1.115357 -0.000002 0.000003 0.000000 0.000000 -0.000000
20 1.115362 0.000000 0.000001 0.000000 0.000000 -0.000000
21 19.338171 -0.014476 -0.000000 -0.000000 -0.000001 0.349066
22 19.335712 -0.025811 -0.000000 -0.000000 -0.000000 0.108540
23 32.607132 -0.028579 -0.000000 -0.000000 0.000000 -0.144533
24 36.268288 0.000006 -0.000000 -0.000001 0.000002 -1.012547
25 19.745590 0.000001 -0.000000 0.000000 0.000000 0.000000
26 33.906590 77.904587 -0.056893 -0.000002 0.000000 -2.646049
27 46.314243 -1.493378 -0.057020 -0.000002 0.000000 -2.646049
28 47.929726 -50.247257 -0.057093 -0.000002 0.000000 -2.646049
29 18.551146 15.394991 10.634682 -0.000002 0.000000 -2.646049
30 18.551136 15.395028 -10.216358 -0.000002 0.000000 -2.646049
31 -8.366961 -7.011358 21.507053 -1.509696 -0.647670 -1.781186
32 67.635132 -0.000001 0.000002 -0.460986 -0.232383 -0.506011
33 65.342232 -0.000005 0.000006 -0.000000 -0.000000 -0.149045
34 3.535507 -0.000002 -0.000002 -1.914410 -0.301441 0.309850
35 1.080024 0.049214 -0.517037 -0.017294 0.272027 1.192078
36 45.434570 0.000006 -0.000002 0.000000 -0.000000 0.261799
37 59.196026 0.000010 -0.000005 0.000000 0.000000 0.000000
38 1.079221 0.000005 -0.000001 0.048743 0.189609 1.745746
39 112.200348 0.000020 0.000007 0.000000 0.000000 0.000000
40 2.065487 0.000001 -0.000004 0.000000 0.000000 0.000000
41 1.078207 -0.061242 0.098182 0.037378 0.055364 2.315970
42 112.891380 0.000009 0.000008 0.000000 0.000000 0.000000
43 1.721236 0.000001 -0.000001 0.000000 0.000000 0.000000
44 -0.726298 -2.959902 -3.646901 -1.438279 0.435614 0.388639
45 0.272711 38.404099 1.817644 -0.000000 0.000000 0.872665
46 -8.366961 -7.011240 -21.507092 1.509694 0.647675 -1.781187
47 67.635132 -0.000004 -0.000003 0.460986 0.232383 -0.506011
48 65.342239 0.000006 -0.000010 0.000000 0.000000 -0.149045
49 3.535509 -0.000003 0.000001 1.914410 0.301441 0.309850
50 1.080019 0.049208 0.517035 0.017294 -0.272027 1.192078
51 45.434586 0.000006 0.000001 0.000000 0.000000 0.261799
52 59.196014 0.000014 0.000000 0.000000 0.000000 3.141593
53 1.079214 0.000002 -0.000004 -0.048743 -0.189609 1.745746
54 112.200356 0.000026 -0.000001 0.000000 0.000000 0.000000
55 2.065485 -0.000006 0.000003 0.000000 0.000000 3.141593
56 1.078206 -0.061244 -0.098181 -0.037378 -0.055364 2.315970
57 112.891388 0.000010 -0.000009 0.000000 0.000000 0.000000
58 1.721236 -0.000010 0.000002 0.000000 0.000000 3.141593
59 -0.114826 -2.044655 3.888004 -1.438280 2.705976 0.388640
60 0.845743 38.795280 0.842523 0.000000 0.000000 0.000000
61 44.146179 23.470121 28.730303 -0.000002 -0.000002 2.763674
62 44.146099 23.470263 -28.756025 -0.000002 -0.000002 2.763674
63 11.035363 -33.182281 -0.056954 -0.000002 -0.000002 2.763674
64 -49.064960 -3.067626 -0.000010 -0.000006 0.000000 -3.012372
65 38.912140 -0.029915 0.000000 -0.000000 -0.000001 0.217033
66 38.476601 -0.031531 0.000000 -0.000000 -0.000000 0.129766
67 39.932884 -0.027047 -0.000000 -0.000000 -0.000001 0.304299
68 35.578896 -0.040898 -0.000000 -0.000000 0.000001 -0.219299
69 52.623211 -0.000006 0.000000 -3.141593 -0.000003 1.570000
70 77.492271 14.003128 -0.056411 0.000003 0.000001 -0.764951
71 88.799866 -0.000001 32.090240 1.570796 0.000000 0.000000
72 88.799866 -0.000001 32.090240 1.570796 0.000000 0.000000
time 4
0 88.799866 -0.000001 32.090240 1.570796 0.000000 0.000000
1 0.056815 32.744511 62.233345 0.000000 1.047198 -1.570795
2 62.547020 -0.000002 -36.111538 -1.047198 -0.000001 1.570796
3 0.578573 -0.000000 1.002115 -1.570795 -1.570796 0.000000
4 19.670200 -0.015160 0.000027 -0.000004 -0.000001 0.175329
5 -19.365995 3.445955 34.046009 -0.000003 -3.141591 -0.544448
6 48.144657 -0.000001 -0.000003 -0.000000 0.000000 -0.002013
7 8.787693 -0.000002 0.000003 -0.000000 0.000000 1.661860
8 37.448334 -0.000000 -0.000003 0.000000 -0.000000 -1.505366
9 10.603357 10.781817 0.000001 -0.000000 -0.000000 1.570796
10 1.115359 0.000000 -0.000003 0.000000 0.000000 0.000000
11 1.115361 0.000001 0.000002 0.000000 0.000000 0.000000
12 1.115362 0.000001 -0.000000 0.000000 0.000000 3.141593
13 -19.365995 3.446141 -34.045986 -0.000002 -3.141592 -0.356526
14 48.144657 -0.000005 -0.000002 0.000000 0.000000 -0.002013
15 8.787700 -0.000004 0.000002 -0.000000 0.000000 2.025710
16 37.448345 0.000002 0.000003 -0.000000 0.000000 -1.681295
17 10.603357 10.781817 -0.000000 0.000000 -0.000000 1.570796
18 1.115360 0.000001 -0.000002 0.000000 0.000000 -0.000000
19 1.115358 -0.000002 0.000000 0.000000 0.000000 -0.000000
20 1.115360 -0.000000 0.000002 0.000000 0.000000 -0.000000
21 19.338169 -0.014470 -0.000000 -0.000000 -0.000001 0.349066
22 19.335941 -0.025789 -0.000000 -0.000000 -0.000000 0.117266
23 32.607124 -0.028574 -0.000000 -0.000000 0.000000 -0.144533
24 36.268288 0.000005 -0.000000 -0.000001 0.000002 -1.020729
25 19.745588 0.000000 -0.000000 0.000000 0.000000 0.000000
26 33.906582 77.904579 -0.056893 -0.000002 0.000000 -2.646049
27 46.314243 -1.493379 -0.057020 -0.000002 0.000000 -2.646049
28 47.929722 -50.247257 -0.057093 -0.000002 0.000000 -2.646049
29 18.551144 15.394990 10.634682 -0.000002 0.000000 -2.646049
30 18.551134 15.395028 -10.216358 -0.000002 0.000000 -2.646049
31 -8.428056 -6.938080 21.507053 -1.497795 -0.694940 -1.802574
32 67.635132 0.000005 0.000004 -0.443788 -0.327267 -0.488629
33 65.342232 -0.000004 0.000006 0.000000 0.000000 -0.149045
34 3.535518 0.000006 0.000002 -1.961129 -0.283652 0.343962
35 1.080030 0.049220 -0.517046 -0.000342 0.175255 1.134405
36 45.434578 0.000014 -0.000006 -0.000000 0.000000 0.261799
37 59.196007 0.000004 0.000001 0.000000 0.000000 0.000000
38 1.079220 -0.000005 0.000001 0.045247 -0.080567 1.745452
39 112.200356 0.000029 -0.000002 0.000000 0.000000 0.000000
40 2.065482 -0.000002 -0.000000 0.000000 0.000000 0.000000
41 1.078213 -0.061236 0.098178 0.000520 -0.173923 2.268838
42 112.891388 0.000004 -0.000001 0.000000 0.000000 0.000000
43 1.721236 0.000000 -0.000003 0.000000 0.000000 0.000000
44 -0.726296 -2.959894 -3.646901 -1.438279 0.435614 0.388639
45 0.272717 38.404099 1.817648 -0.000000 0.000000 0.872665
46 -8.428056 -6.937963 -21.507092 1.497793 0.694946 -1.802575
47 67.635139 -0.000013 -0.000005 0.443788 0.327267 -0.488629
48 65.342232 -0.000000 -0.000006 -0.000000 -0.000000 -0.149045
49 3.535517 0.000000 -0.000001 1.961129 0.283652 0.343962
50 1.080029 0.049222 0.517045 0.000342 -0.175255 1.134405
51 45.434566 0.000004 -0.000001 0.000000 0.000000 0.261799
52 59.196003 0.000006 0.000002 0.000000 0.000000 3.141593
53 1.079223 0.000002 -0.000002 -0.045247 0.080567 1.745452
54 112.200348 0.000017 0.000006 0.000000 0.000000 0.000000
55 2.065475 0.000004 -0.000005 0.000000 0.000000 3.141593
56 1.078212 -0.061238 -0.098176 -0.000520 0.173923 2.268838
57 112.891373 0.000009 -0.000004 0.000000 0.000000 0.000000
58 1.721236 -0.000005 0.000004 0.000000 0.000000 3.141593
59 -0.114824 -2.044643 3.888000 -1.438280 2.705976 0.388640
60 0.845747 38.795277 0.842519 -0.000000 0.000000 0.000000
61 44.146179 23.470119 28.730303 -0.000002 -0.000002 2.763674
62 44.146095 23.470261 -28.756025 -0.000002 -0.000002 2.763674
63 11.035362 -33.182281 -0.056954 -0.000002 -0.000002 2.763674
64 -49.060574 -3.094146 -0.000010 -0.000006 0.000000 -3.099093
65 38.904167 -0.030600 0.000000 -0.000000 0.000000 -0.044767
66 38.479332 -0.031049 0.000000 -0.000000 -0.000001 0.217033
67 39.937435 -0.025156 0.000000 -0.000000 -0.000001 0.478832
68 35.604027 -0.038753 -0.000000 -0.000000 -0.000001 0.391566
69 52.623203 -0.000003 -0.000000 -3.141593 -0.000003 1.570000
70 77.492256 14.003136 -0.056411 0.000003 0.000001 -0.764951
71 88.799866 -0.000001 32.090240 1.570796 0.000000 0.000000
72 88.799866 -0.000001 32.090240 1.570796 0.000000 0.000000
time 5
0 88.799866 -0.000001 32.090240 1.570796 0.000000 0.000000
1 0.056815 32.744511 87.197273 0.000000 1.047198 -1.570795
2 87.207428 -0.000003 -50.349228 -1.047198 -0.000001 1.570796
3 0.578570 -0.000000 1.002115 -1.570795 -1.570796 0.000000
4 19.664856 -0.015158 0.000027 -0.000004 -0.000002 -0.173737
5 -19.371435 -3.384507 34.045990 -0.000003 -3.141592 0.040433
6 48.144665 -0.000004 0.000001 0.000000 0.000000 -0.002013
7 8.787699 0.000001 -0.000001 -0.000000 0.000000 1.897128
8 37.448341 0.000004 -0.000002 0.000001 -0.000001 -1.504820
9 10.603356 10.781816 0.000001 -0.000000 -0.000000 1.570796
10 1.115359 0.000001 -0.000002 0.000000 0.000000 0.000000
11 1.115357 -0.000002 0.000003 0.000000 0.000000 0.000000
12 1.115361 0.000001 0.000000 0.000000 0.000000 3.141593
13 -19.371433 -3.384321 -34.046005 -0.000003 3.141592 0.039159
14 48.144657 -0.000007 -0.000002 -0.000000 0.000000 -0.002013
15 8.787697 -0.000002 0.000001 -0.000000 -0.000000 2.072520
16 37.448338 -0.000002 0.000002 -0.000000 0.000000 -1.681486
17 10.603354 10.781816 -0.000001 0.000000 -0.000000 1.570796
18 1.115360 0.000000 -0.000003 0.000000 0.000000 -0.000000
19 1.115357 -0.000002 0.000003 0.000000 0.000000 -0.000000
20 1.115362 0.000000 0.000000 0.000000 0.000000 -0.000000
21 19.338169 -0.014470 -0.000000 -0.000000 -0.000001 0.349066
22 19.320601 -0.022861 -0.000000 -0.000000 0.000001 -0.493599
23 32.607132 -0.028580 -0.000001 -0.000000 0.000000 -0.144533
24 36.268288 -0.000002 -0.000001 -0.000000 0.000000 -0.060798
25 19.745592 0.000001 -0.000000 0.000000 0.000000 0.000000
26 33.906578 77.904579 -0.056893 -0.000002 0.000000 -2.646049
27 46.314236 -1.493380 -0.057020 -0.000002 0.000000 -2.646049
28 47.929726 -50.247257 -0.057093 -0.000002 0.000000 -2.646049
29 18.551142 15.394996 10.634682 -0.000002 0.000000 -2.646049
30 18.551128 15.395026 -10.216358 -0.000002 0.000000 -2.646049
31 -2.909478 -10.512799 21.507042 -1.149367 -2.150696 -1.569946
32 67.635139 0.000001 -0.000001 0.492142 -0.345526 -0.484571
33 65.342239 0.000001 -0.000000 0.000000 -0.000000 -0.149044
34 3.535514 0.000004 0.000001 -2.264991 -0.119659 0.552534
35 1.080027 0.049220 -0.517047 0.398968 -0.695196 0.552034
36 45.434563 -0.000007 0.000010 0.000000 0.000000 0.261799
37 59.196011 -0.000002 0.000003 0.000000 0.000000 0.000000
38 1.079219 0.000002 0.000001 -0.032163 -1.041251 1.838939
39 112.200348 0.000026 0.000003 0.000000 0.000000 0.000000
40 2.065489 0.000003 0.000004 0.000000 0.000000 0.000000
41 1.078217 -0.061244 0.098180 -0.465495 -0.767214 2.895783
42 112.891396 -0.000009 -0.000003 0.000000 0.000000 0.000000
43 1.721238 0.000000 -0.000003 0.000000 0.000000 0.000000
44 -0.726299 -2.959897 -3.646901 -1.438279 0.435614 0.388639
45 0.272712 38.404102 1.817649 -0.000000 0.000000 0.872665
46 -2.909476 -10.512680 -21.507103 1.149367 2.150701 -1.569946
47 67.635132 0.000005 -0.000001 -0.492142 0.345526 -0.484572
48 65.342239 -0.000008 -0.000006 -0.000000 0.000000 -0.149044
49 3.535510 -0.000004 0.000001 2.264991 0.119659 0.552534
50 1.080031 0.049217 0.517039 -0.398968 0.695196 0.552034
51 45.434582 0.000001 -0.000009 0.000000 -0.000000 0.261799
52 59.196011 -0.000002 -0.000008 0.000000 0.000000 3.141593
53 1.079214 -0.000003 0.000005 0.032163 1.041251 1.838939
54 112.200356 0.000017 -0.000012 0.000000 0.000000 0.000000
55 2.065475 0.000003 0.000002 0.000000 0.000000 3.141593
56 1.078215 -0.061246 -0.098180 0.465496 0.767214 2.895783
57 112.891403 -0.000008 -0.000004 0.000000 0.000000 0.000000
58 1.721236 0.000005 -0.000002 0.000000 0.000000 3.141593
59 -0.114826 -2.044661 3.888006 -1.438280 2.705976 0.388640
60 0.845747 38.795277 0.842521 -0.000000 0.000000 0.000000
61 44.146179 23.470118 28.730303 -0.000002 -0.000002 2.763674
62 44.146095 23.470261 -28.756025 -0.000002 -0.000002 2.763674
63 11.035364 -33.182285 -0.056954 -0.000002 -0.000002 2.763674
64 -45.035797 -19.685417 -0.000056 -0.000005 0.000001 -2.837294
65 38.898876 -0.029894 0.000000 -0.000000 0.000001 -0.219299
66 38.479328 -0.031056 0.000000 -0.000000 -0.000001 0.217033
67 39.932884 -0.027029 0.000000 -0.000000 -0.000001 0.304299
68 35.603996 -0.038739 0.000000 -0.000000 -0.000001 0.391566
69 52.623215 -0.000007 -0.000000 -3.141593 -0.000003 1.570000
70 77.492264 14.003126 -0.056411 0.000003 0.000001 -0.764951
71 88.799866 -0.000001 32.090240 1.570796 0.000000 0.000000
72 88.799866 -0.000001 32.090240 1.570796 0.000000 0.000000
time 6
0 88.799866 -0.000001 32.090240 1.570796 0.000000 0.000000
1 0.056815 32.744511 77.873077 0.000000 1.047198 -1.570795
2 49.236515 -0.000002 -28.426714 -1.047198 -0.000001 1.570796
3 0.578571 -0.000000 1.002115 -1.570795 -1.570796 0.000000
4 19.666187 -0.015332 0.000027 -0.000004 -0.000002 -0.086470
5 -19.594034 -1.683231 34.045994 -0.000003 -3.141593 0.029197
6 48.144661 -0.000004 -0.000002 0.000000 0.000000 -0.002013
7 8.787690 0.000002 -0.000003 -0.000000 -0.000000 2.151230
8 37.448334 0.000001 0.000005 0.000000 -0.000000 -1.682891
9 10.603356 10.781817 0.000001 -0.000000 -0.000000 1.570796
10 1.115360 0.000001 -0.000001 0.000000 0.000000 0.000000
11 1.115358 -0.000002 -0.000000 0.000000 0.000000 0.000000
12 1.115362 0.000001 0.000001 0.000000 0.000000 3.141593
13 -19.594032 -1.683046 -34.046001 -0.000003 3.141592 0.029590
14 48.144661 -0.000001 -0.000002 -0.000000 0.000000 -0.002013
15 8.787692 -0.000000 0.000000 -0.000000 -0.000000 2.150537
16 37.448338 0.000002 0.000001 -0.000000 0.000000 -1.681805
17 10.603356 10.781817 -0.000001 0.000000 -0.000000 1.570796
18 1.115363 0.000000 -0.000003 0.000000 0.000000 -0.000000
19 1.115356 -0.000001 0.000003 0.000000 0.000000 -0.000000
20 1.115360 0.000000 0.000000 0.000000 0.000000 -0.000000
21 19.338171 -0.014463 -0.000000 -0.000000 -0.000001 0.349066
22 19.326937 -0.025274 -0.000000 -0.000000 0.000001 -0.231799
23 32.607132 -0.028584 -0.000000 -0.000000 0.000000 -0.144533
24 36.268291 0.000001 -0.000000 -0.000000 0.000001 -0.409863
25 19.745592 -0.000003 -0.000000 0.000000 0.000000 0.000000
26 33.906582 77.904587 -0.056893 -0.000002 0.000000 -2.646049
27 46.314240 -1.493378 -0.057020 -0.000002 0.000000 -2.646049
28 47.929726 -50.247261 -0.057093 -0.000002 0.000000 -2.646049
29 18.551142 15.394991 10.634682 -0.000002 0.000000 -2.646049
30 18.551130 15.395028 -10.216358 -0.000002 0.000000 -2.646049
31 -5.537956 -9.400671 21.507046 1.992227 -0.990897 1.309846
32 67.635147 -0.000003 0.000001 0.405975 -0.453269 -0.358985
33 65.342239 -0.000006 -0.000000 0.000000 -0.000000 -0.149044
34 3.535508 0.000005 0.000004 -2.222928 -0.283652 0.343962
35 1.080035 0.049215 -0.517047 0.310223 0.213876 0.883716
36 45.434574 -0.000016 -0.000006 -0.000000 0.000000 0.261799
37 59.196014 -0.000011 -0.000014 0.000000 0.000000 0.000000
38 1.079224 0.000002 0.000000 0.132220 -0.068354 1.585687
39 112.200340 0.000017 -0.000024 0.000000 0.000000 0.000000
40 2.065484 0.000002 -0.000005 0.000000 0.000000 0.000000
41 1.078216 -0.061240 0.098177 -0.186426 -0.205642 2.270883
42 112.891396 0.000022 0.000003 0.000000 0.000000 0.000000
43 1.721232 0.000002 -0.000000 0.000000 0.000000 0.000000
44 -0.726297 -2.959899 -3.646906 -1.438279 0.435614 0.388639
45 0.272718 38.404099 1.817644 -0.000000 0.000000 0.872665
46 -5.537954 -9.400553 -21.507099 -1.992224 0.990892 1.309848
47 67.635139 -0.000001 -0.000002 -0.405975 0.453269 -0.358985
48 65.342239 -0.000003 -0.000003 -0.000000 0.000000 -0.149044
49 3.535509 -0.000002 0.000000 2.222928 0.283652 0.343962
50 1.080035 0.049215 0.517043 -0.310223 -0.213876 0.883716
51 45.434566 -0.000012 0.000013 0.000000 -0.000000 0.261799
52 59.196018 -0.000011 0.000004 0.000000 0.000000 3.141593
53 1.079218 -0.000005 0.000009 -0.132220 0.068354 1.585687
54 112.200348 0.000013 0.000001 0.000000 0.000000 0.000000
55 2.065482 -0.000002 0.000006 0.000000 0.000000 3.141593
56 1.078213 -0.061243 -0.098175 0.186426 0.205642 2.270883
57 112.891396 0.000018 -0.000008 0.000000 0.000000 0.000000
58 1.721237 -0.000001 -0.000005 0.000000 0.000000 3.141593
59 -0.114824 -2.044655 3.888003 -1.438280 2.705976 0.388640
60 0.845740 38.795288 0.842519 -0.000000 -0.000000 0.000000
61 44.146187 23.470118 28.730303 -0.000002 -0.000002 2.763674
62 44.146099 23.470259 -28.756025 -0.000002 -0.000002 2.763674
63 11.035363 -33.182289 -0.056954 -0.000002 -0.000002 2.763674
64 -46.578800 -15.684848 -0.000045 -0.000006 0.000000 -3.011827
65 38.898876 -0.029894 0.000000 -0.000000 0.000001 -0.219299
66 38.465557 -0.031028 0.000000 -0.000000 0.000001 -0.219299
67 39.937447 -0.025159 0.000001 -0.000000 -0.000001 0.478832
68 35.603970 -0.038738 0.000000 -0.000000 -0.000001 0.391566
69 52.623215 -0.000002 0.000000 -3.141593 -0.000003 1.570000
70 77.492279 14.003126 -0.056411 0.000003 0.000001 -0.764951
71 88.799866 -0.000001 32.090240 1.570796 0.000000 0.000000
72 88.799866 -0.000001 32.090240 1.570796 0.000000 0.000000
end
