version 1
nodes
0 "Box01" -1
1 "Bip01" -1
2 "Bip01 Footsteps" 1
3 "Bip01 Pelvis" 1
4 "Bip01 Spine" 3
5 "Bip01 L Thigh" 4
6 "Bip01 L Calf" 5
7 "Bip01 L HorseLink" 6
8 "Bip01 L Foot" 7
9 "Bip01 L Toe0" 8
10 "Bip01 L Toe01" 9
11 "Bip01 L Toe02" 10
12 "Bip01 L Toe0Nub" 11
13 "Bip01 R Thigh" 4
14 "Bip01 R Calf" 13
15 "Bip01 R HorseLink" 14
16 "Bip01 R Foot" 15
17 "Bip01 R Toe0" 16
18 "Bip01 R Toe01" 17
19 "Bip01 R Toe02" 18
20 "Bip01 R Toe0Nub" 19
21 "Bip01 Spine1" 4
22 "Bip01 Neck" 21
23 "Bip01 Neck1" 22
24 "Bip01 Head" 23
25 "Bip01 HeadNub" 24
26 "Bone02" 24
27 "Bone03" 24
28 "Bone04" 24
29 "Bone05" 24
30 "Bone06" 24
31 "Bip01 L Clavicle" 22
32 "Bip01 L UpperArm" 31
33 "Bip01 L Forearm" 32
34 "Bip01 L Hand" 33
35 "Bip01 L Finger0" 34
36 "Bip01 L Finger01" 35
37 "Bip01 L Finger0Nub" 36
38 "Bip01 L Finger1" 34
39 "Bip01 L Finger11" 38
40 "Bip01 L Finger1Nub" 39
41 "Bip01 L Finger2" 34
42 "Bip01 L Finger21" 41
43 "Bip01 L Finger2Nub" 42
44 "Box02" 32
45 "Box04" 44
46 "Bip01 R Clavicle" 22
47 "Bip01 R UpperArm" 46
48 "Bip01 R Forearm" 47
49 "Bip01 R Hand" 48
50 "Bip01 R Finger0" 49
51 "Bip01 R Finger01" 50
52 "Bip01 R Finger0Nub" 51
53 "Bip01 R Finger1" 49
54 "Bip01 R Finger11" 53
55 "Bip01 R Finger1Nub" 54
56 "Bip01 R Finger2" 49
57 "Bip01 R Finger21" 56
58 "Bip01 R Finger2Nub" 57
59 "Box03" 47
60 "Box05" 59
61 "Bone09" 21
62 "Bone08" 21
63 "Bone07" 21
64 "Bip01 Tail" 4
65 "Bip01 Tail1" 64
66 "Bip01 Tail2" 65
67 "Bip01 Tail3" 66
68 "Bip01 Tail4" 67
69 "Bip01 TailNub" 68
70 "Bone10" 68
71 "Object01" -1
72 "Object02" -1
end
skeleton
time 0
0 88.799866 -0.000001 32.090240 1.570796 0.000000 0.000000
1 0.056815 32.744511 91.294289 0.000000 1.047198 -1.570795
2 80.727264 -0.000003 -46.607906 -1.047198 -0.000001 1.570796
3 0.578569 -0.000000 1.002115 -1.570795 -1.570796 0.000000
4 19.667530 -0.015394 0.000027 -0.000004 -0.000001 0.000796
5 -19.667513 0.030969 34.045998 -0.000002 -3.141590 -0.901179
6 48.144657 0.000003 -0.000003 0.000000 0.000000 -0.438989
7 8.787696 -0.000004 0.000002 -0.000000 -0.000000 1.395371
8 37.448334 0.000002 -0.000003 0.000000 -0.000000 -0.809567
9 10.603357 10.781816 -0.000000 -0.000000 -0.000000 1.570796
10 1.115360 0.000000 -0.000003 0.000000 0.000000 0.000000
11 1.115360 0.000000 0.000003 0.000000 0.000000 0.000000
12 1.115360 0.000000 0.000001 0.000000 0.000000 3.141593
13 -19.667511 0.031155 -34.045998 -0.000002 -3.141590 -0.901169
14 48.144661 0.000002 0.000001 -0.000000 -0.000000 -0.438939
15 8.787698 -0.000004 0.000002 0.000000 -0.000000 1.395334
16 37.448338 0.000005 0.000001 0.000000 -0.000000 -0.809570
17 10.603358 10.781816 -0.000000 0.000000 0.000000 1.570796
18 1.115360 0.000000 -0.000003 0.000000 0.000000 0.000000
19 1.115360 0.000000 0.000003 0.000000 0.000000 0.000000
20 1.115360 0.000000 0.000001 0.000000 0.000000 0.000000
21 19.338169 -0.014464 -0.000000 -0.000000 -0.000001 0.349066
22 19.326941 -0.025276 -0.000000 -0.000000 0.000001 -0.231800
23 32.607121 -0.028571 -0.000000 -0.000000 0.000000 -0.144533
24 36.268295 -0.000002 -0.000000 -0.000000 0.000001 -0.497130
25 19.745592 -0.000003 -0.000000 0.000000 0.000000 0.000000
26 33.906582 77.904579 -0.056893 -0.000002 0.000000 -2.646049
27 46.314240 -1.493378 -0.057020 -0.000002 0.000000 -2.646049
28 47.929729 -50.247261 -0.057093 -0.000002 0.000000 -2.646049
29 18.551144 15.394991 10.634682 -0.000002 0.000000 -2.646049
30 18.551132 15.395028 -10.216358 -0.000002 0.000000 -2.646049
31 -5.537961 -9.400667 21.507046 -2.348531 -1.324598 -0.546750
32 67.635139 0.000002 0.000004 -0.201292 -0.248663 -0.264088
33 65.342239 0.000008 0.000008 0.000000 -0.000000 -0.149045
34 3.535508 -0.000005 0.000003 -1.961129 -0.283652 0.343962
35 1.080029 0.049219 -0.517042 -0.000337 0.000722 1.134464
36 45.434563 0.000012 -0.000003 0.000000 -0.000000 0.261799
37 59.196018 0.000011 -0.000009 0.000000 0.000000 0.000000
38 1.079234 0.000008 0.000010 0.045742 -0.167743 1.741453
39 112.200333 0.000043 -0.000005 0.000000 0.000000 0.000000
40 2.065487 -0.000006 0.000002 0.000000 0.000000 0.000000
41 1.078217 -0.061238 0.098187 0.000530 -0.261189 2.268791
42 112.891388 0.000024 0.000009 0.000000 0.000000 0.000000
43 1.721238 0.000003 -0.000009 0.000000 0.000000 0.000000
44 -0.726298 -2.959888 -3.646899 -1.438279 0.435614 0.388639
45 0.272710 38.404095 1.817643 -0.000000 0.000000 0.872665
46 -5.537960 -9.400550 -21.507099 2.348551 1.324601 -0.546731
47 67.635139 0.000012 -0.000006 0.201292 0.248663 -0.264088
48 65.342232 -0.000004 -0.000013 -0.000000 0.000000 -0.149044
49 3.535507 -0.000010 -0.000001 1.961129 0.283652 0.343962
50 1.080029 0.049221 0.517043 0.000337 -0.000722 1.134464
51 45.434566 -0.000009 0.000005 0.000000 0.000000 0.261799
52 59.196011 0.000014 0.000004 0.000000 0.000000 3.141593
53 1.079231 0.000011 -0.000012 -0.045742 0.167743 1.741453
54 112.200333 0.000023 0.000004 0.000000 0.000000 0.000000
55 2.065485 0.000008 -0.000002 0.000000 0.000000 3.141593
56 1.078204 -0.061246 -0.098183 -0.000530 0.261189 2.268791
57 112.891380 0.000010 -0.000011 0.000000 0.000000 0.000000
58 1.721238 0.000009 0.000008 0.000000 0.000000 3.141593
59 -0.114825 -2.044652 3.888001 -1.438280 2.705976 0.388640
60 0.845748 38.795277 0.842516 -0.000000 0.000000 0.000000
61 44.146183 23.470114 28.730305 -0.000002 -0.000002 2.763674
62 44.146099 23.470257 -28.756023 -0.000002 -0.000002 2.763674
63 11.035363 -33.182293 -0.056954 -0.000002 -0.000002 2.763674
64 -47.769928 -11.565482 -0.000034 -0.000006 0.000000 -3.099093
65 38.901501 -0.030358 0.000000 -0.000000 0.000000 -0.132033
66 38.465561 -0.031027 0.000000 -0.000000 0.000001 -0.219299
67 39.937439 -0.025151 0.000000 -0.000000 -0.000001 0.478832
68 35.604000 -0.038739 0.000000 -0.000000 -0.000001 0.391566
69 52.623211 -0.000001 0.000000 -3.141593 -0.000003 1.570000
70 77.492271 14.003129 -0.056411 0.000003 0.000001 -0.764951
71 88.799866 -0.000001 32.090240 1.570796 0.000000 0.000000
72 88.799866 -0.000001 32.090240 1.570796 0.000000 0.000000
time 1
0 88.799866 -0.000001 32.090240 1.570796 0.000000 0.000000
1 0.056815 32.744511 89.248505 0.000000 1.047198 -1.570795
2 77.369972 -0.000003 -44.669575 -1.047198 -0.000001 1.570796
3 0.578572 -0.000000 1.002115 -1.570795 -1.570796 0.000000
4 19.668425 -0.015367 0.000027 -0.000004 -0.000001 0.059156
5 -19.633110 1.178070 34.046001 -0.000001 -3.141590 -1.115487
6 48.144665 -0.000001 -0.000002 -0.000000 -0.000000 -0.911787
7 8.787701 -0.000001 -0.000000 0.000000 -0.000000 1.712309
8 37.448334 0.000006 -0.000001 0.000000 0.000000 -0.783476
9 10.603358 10.781816 0.000000 -0.000000 0.000000 1.544616
10 1.115360 -0.000000 -0.000002 0.000000 0.000000 0.000000
11 1.115360 0.000000 -0.000000 0.000000 0.000000 0.000000
12 1.115360 0.000000 0.000002 0.000000 0.000000 3.141593
13 -19.633110 1.178256 -34.045994 -0.000002 -3.141590 -1.009308
14 48.144661 -0.000005 0.000002 0.000000 -0.000000 -0.870511
15 8.787695 0.000002 -0.000004 0.000000 -0.000000 1.777123
16 37.448334 0.000006 -0.000000 0.000000 -0.000000 -0.809566
17 10.603358 10.781816 -0.000000 0.000000 0.000000 1.570796
18 1.115360 0.000000 -0.000004 0.000000 0.000000 0.000000
19 1.115360 0.000000 0.000002 0.000000 0.000000 0.000000
20 1.115360 0.000000 0.000000 0.000000 0.000000 0.000000
21 19.338169 -0.014461 -0.000000 -0.000000 -0.000001 0.349066
22 19.329840 -0.025784 -0.000000 -0.000000 0.000000 -0.118353
23 32.607128 -0.028570 -0.000000 -0.000000 0.000000 -0.144533
24 36.268288 0.000002 -0.000000 -0.000001 0.000002 -0.668936
25 19.745602 -0.000003 -0.000000 0.000000 0.000000 0.000000
26 33.906590 77.904579 -0.056893 -0.000002 0.000000 -2.646049
27 46.314247 -1.493378 -0.057020 -0.000002 0.000000 -2.646049
28 47.929737 -50.247261 -0.057093 -0.000002 0.000000 -2.646049
29 18.551151 15.394991 10.634682 -0.000002 0.000000 -2.646049
30 18.551142 15.395028 -10.216358 -0.000002 0.000000 -2.646049
31 -6.569481 -8.713156 21.507048 -1.742300 -1.116399 -1.262809
32 67.635147 0.000005 0.000003 -0.324419 -0.269838 -0.332282
33 65.342232 -0.000008 0.000002 0.000000 -0.000000 -0.149045
34 3.535510 0.000004 0.000003 -1.940627 -0.291688 0.329042
35 1.080028 0.049216 -0.517042 -0.009877 0.106163 1.160295
36 45.434563 0.000021 -0.000011 0.000000 -0.000000 0.261799
37 59.196014 0.000012 -0.000009 0.000000 0.000000 0.000000
38 1.079215 -0.000007 0.000002 0.047203 0.079003 1.747457
39 112.200348 0.000039 -0.000009 0.000000 0.000000 0.000000
40 2.065477 -0.000000 -0.000003 0.000000 0.000000 0.000000
41 1.078218 -0.061236 0.098186 0.020347 -0.034044 2.354318
42 112.891403 0.000019 -0.000001 0.000000 0.000000 0.000000
43 1.721236 -0.000001 -0.000002 0.000000 0.000000 0.000000
44 -0.726295 -2.959909 -3.646908 -1.438279 0.435614 0.388639
45 0.272710 38.404099 1.817640 -0.000000 0.000000 0.872665
46 -6.569480 -8.713038 -21.507097 1.742304 1.116404 -1.262805
47 67.635139 -0.000005 -0.000005 0.324419 0.269838 -0.332283
48 65.342239 -0.000007 -0.000006 0.000000 0.000000 -0.149045
49 3.535505 0.000006 -0.000000 1.940627 0.291688 0.329042
50 1.080035 0.049215 0.517042 0.009877 -0.106163 1.160295
51 45.434566 0.000002 0.000007 -0.000000 0.000000 0.261799
52 59.196018 0.000007 0.000002 0.000000 0.000000 3.141593
53 1.079221 -0.000008 -0.000002 -0.047203 -0.079003 1.747457
54 112.200333 0.000055 -0.000001 0.000000 0.000000 0.000000
55 2.065486 -0.000009 -0.000002 0.000000 0.000000 3.141593
56 1.078214 -0.061249 -0.098182 -0.020347 0.034044 2.354318
57 112.891403 0.000015 -0.000014 0.000000 0.000000 0.000000
58 1.721235 0.000005 0.000003 0.000000 0.000000 3.141593
59 -0.114827 -2.044656 3.888003 -1.438280 2.705976 0.388640
60 0.845743 38.795277 0.842519 -0.000000 -0.000000 -0.000000
61 44.146183 23.470123 28.730303 -0.000002 -0.000002 2.763674
62 44.146099 23.470263 -28.756025 -0.000002 -0.000002 2.763674
63 11.035363 -33.182285 -0.056954 -0.000002 -0.000002 2.763674
64 -48.366764 -8.759610 -0.000026 -0.000006 0.000000 -3.070186
65 38.904175 -0.030592 0.000000 -0.000000 0.000000 -0.044766
66 38.465557 -0.031029 0.000000 -0.000000 0.000001 -0.219299
67 39.928055 -0.028104 0.000000 -0.000000 -0.000000 0.129766
68 35.597015 -0.040925 0.000000 -0.000000 -0.000001 0.217033
69 52.623219 0.000003 0.000000 -3.141593 -0.000003 1.570000
70 77.492279 14.003132 -0.056410 0.000003 0.000001 -0.764951
71 88.799866 -0.000001 32.090240 1.570796 0.000000 0.000000
72 88.799866 -0.000001 32.090240 1.570796 0.000000 0.000000
time 2
0 88.799866 -0.000001 32.090240 1.570796 0.000000 0.000000
1 0.056815 32.744511 86.974907 0.000000 1.047198 -1.570795
2 75.990746 -0.000003 -43.873276 -1.047198 -0.000001 1.570796
3 0.578571 -0.000000 1.002115 -1.570795 -1.570796 0.000000
4 19.669472 -0.015267 0.000027 -0.000004 -0.000001 0.127333
5 -19.508289 2.512861 34.046005 -0.000001 -3.141590 -1.304716
6 48.144657 -0.000001 -0.000000 0.000000 0.000000 -1.132621
7 8.787702 0.000002 0.000001 0.000000 0.000000 1.812241
8 37.448338 0.000007 -0.000001 0.000000 0.000000 -0.739992
9 10.603357 10.781815 -0.000003 -0.000000 0.000000 1.500983
10 1.115360 -0.000000 -0.000004 0.000000 0.000000 0.000000
11 1.115360 0.000000 0.000002 0.000000 0.000000 0.000000
12 1.115360 0.000000 0.000000 0.000000 0.000000 3.141593
13 -19.508289 2.513047 -34.045990 -0.000001 -3.141590 -1.101530
14 48.144653 -0.000003 0.000001 -0.000000 -0.000000 -1.195833
15 8.787699 0.000002 -0.000000 0.000000 -0.000000 2.078397
16 37.448338 0.000006 -0.000000 0.000000 -0.000000 -0.809564
17 10.603358 10.781816 -0.000000 0.000000 0.000000 1.570796
18 1.115360 0.000000 -0.000004 0.000000 0.000000 0.000000
19 1.115360 0.000000 0.000002 0.000000 0.000000 0.000000
20 1.115360 0.000000 0.000000 0.000000 0.000000 0.000000
21 19.338173 -0.014472 -0.000000 -0.000000 -0.000001 0.349066
22 19.333227 -0.025971 -0.000000 -0.000000 -0.000000 0.012547
23 32.607132 -0.028585 -0.000000 -0.000000 0.000000 -0.144533
24 36.268291 0.000007 -0.000000 -0.000001 0.000002 -0.868012
25 19.745584 0.000001 -0.000000 0.000000 0.000000 0.000000
26 33.906582 77.904587 -0.056893 -0.000002 0.000000 -2.646049
27 46.314247 -1.493382 -0.057020 -0.000002 0.000000 -2.646049
28 47.929722 -50.247257 -0.057093 -0.000002 0.000000 -2.646049
29 18.551142 15.394991 10.634681 -0.000002 0.000000 -2.646049
30 18.551130 15.395029 -10.216359 -0.000002 0.000000 -2.646049
31 -7.653949 -7.780904 21.507051 1.568102 -2.251481 1.560920
32 67.635139 -0.000001 0.000004 -0.417956 -0.263742 -0.406619
33 65.342239 0.000008 0.000002 -0.000000 -0.000000 -0.149045
34 3.535495 -0.000010 0.000002 -1.928243 -0.296368 0.319992
35 1.080033 0.049215 -0.517036 -0.013994 0.186984 1.175398
36 45.434559 0.000003 -0.000006 0.000000 0.000000 0.261799
37 59.196003 0.000023 -0.000007 0.000000 0.000000 0.000000
38 1.079230 0.000007 0.000002 0.048890 0.235762 1.751759
39 112.200340 0.000060 -0.000005 0.000000 0.000000 0.000000
40 2.065479 0.000005 0.000002 0.000000 0.000000 0.000000
41 1.078208 -0.061248 0.098178 0.042188 0.109842 2.408131
42 112.891403 0.000020 0.000013 0.000000 0.000000 0.000000
43 1.721233 0.000000 -0.000001 0.000000 0.000000 0.000000
44 -0.726299 -2.959897 -3.646903 -1.438279 0.435614 0.388639
45 0.272712 38.404099 1.817645 -0.000000 0.000000 0.872665
46 -7.653948 -7.780787 -21.507093 -1.568102 2.251475 1.560920
47 67.635132 -0.000013 -0.000003 0.417956 0.263742 -0.406619
48 65.342239 0.000008 -0.000006 -0.000000 0.000000 -0.149045
49 3.535500 -0.000001 -0.000003 1.928243 0.296368 0.319992
50 1.080034 0.049224 0.517043 0.013994 -0.186984 1.175398
51 45.434551 0.000007 0.000010 -0.000000 -0.000000 0.261799
52 59.196003 0.000025 0.000005 0.000000 0.000000 3.141593
53 1.079226 -0.000002 -0.000007 -0.048890 -0.235762 1.751759
54 112.200325 0.000080 0.000001 0.000000 0.000000 0.000000
55 2.065484 -0.000001 0.000000 0.000000 0.000000 3.141593
56 1.078213 -0.061244 -0.098186 -0.042188 -0.109842 2.408131
57 112.891396 0.000028 -0.000009 0.000000 0.000000 0.000000
58 1.721233 -0.000005 -0.000002 0.000000 0.000000 3.141593
59 -0.114833 -2.044649 3.888001 -1.438280 2.705976 0.388640
60 0.845745 38.795280 0.842513 -0.000000 -0.000000 0.000000
61 44.146179 23.470116 28.730303 -0.000002 -0.000002 2.763674
62 44.146099 23.470255 -28.756025 -0.000002 -0.000002 2.763674
63 11.035363 -33.182289 -0.056954 -0.000002 -0.000002 2.763674
64 -48.854885 -5.444402 -0.000017 -0.000006 0.000000 -3.051096
65 38.909496 -0.030374 0.000000 -0.000000 -0.000000 0.129766
66 38.468311 -0.031517 0.000000 -0.000000 0.000000 -0.132033
67 39.918209 -0.027658 0.000000 -0.000000 0.000001 -0.219299
68 35.586128 -0.041861 0.000000 -0.000000 0.000000 -0.044766
69 52.623219 -0.000008 0.000001 -3.141593 -0.000003 1.570000
70 77.492287 14.003126 -0.056410 0.000003 0.000001 -0.764951
71 88.799866 -0.000001 32.090240 1.570796 0.000000 0.000000
72 88.799866 -0.000001 32.090240 1.570796 0.000000 0.000000
time 3
0 88.799866 -0.000001 32.090240 1.570796 0.000000 0.000000
1 0.056815 32.744511 85.156944 0.000000 1.047198 -1.570795
2 75.412170 -0.000003 -43.539234 -1.047198 -0.000001 1.570796
3 0.578571 -0.000000 1.002115 -1.570795 -1.570796 0.000000
4 19.670210 -0.015150 0.000027 -0.000004 -0.000001 0.175875
5 -19.364120 3.456516 34.046009 -0.000000 -3.141590 -1.478155
6 48.144653 0.000000 -0.000000 -0.000000 0.000000 -1.315178
7 8.787699 0.000000 -0.000004 0.000000 0.000000 1.869929
8 37.448341 0.000004 0.000000 -0.000000 0.000000 -0.731293
9 10.603358 10.781816 -0.000001 -0.000000 0.000000 1.492256
10 1.115360 -0.000000 -0.000001 0.000000 0.000000 0.000000
11 1.115360 0.000000 0.000001 0.000000 0.000000 0.000000
12 1.115360 0.000000 0.000002 0.000000 0.000000 3.141593
13 -19.364120 3.456701 -34.045986 -0.000001 -3.141590 -1.157647
14 48.144661 -0.000002 -0.000001 -0.000000 -0.000000 -1.417614
15 8.787697 0.000002 0.000001 0.000000 0.000000 2.292602
16 37.448338 0.000006 -0.000001 0.000000 -0.000000 -0.809562
17 10.603358 10.781816 -0.000000 0.000000 0.000000 1.570796
18 1.115360 0.000000 -0.000003 0.000000 0.000000 0.000000
19 1.115360 0.000000 0.000003 0.000000 0.000000 0.000000
20 1.115360 0.000000 0.000001 0.000000 0.000000 0.000000
21 19.338171 -0.014470 -0.000000 -0.000000 -0.000001 0.349066
22 19.335712 -0.025814 -0.000000 -0.000000 -0.000000 0.108540
23 32.607132 -0.028585 -0.000000 -0.000000 0.000000 -0.144533
24 36.268291 0.000008 -0.000000 -0.000001 0.000002 -1.012547
25 19.745590 0.000000 -0.000000 0.000000 0.000000 0.000000
26 33.906586 77.904579 -0.056893 -0.000002 0.000000 -2.646049
27 46.314251 -1.493383 -0.057020 -0.000002 0.000000 -2.646049
28 47.929726 -50.247257 -0.057093 -0.000002 0.000000 -2.646049
29 18.551147 15.394990 10.634682 -0.000002 0.000000 -2.646049
30 18.551136 15.395028 -10.216358 -0.000002 0.000000 -2.646049
31 -8.366961 -7.011364 21.507053 -1.509696 -0.647670 -1.781186
32 67.635132 -0.000002 0.000003 -0.460986 -0.232383 -0.506011
33 65.342224 0.000000 0.000004 -0.000000 -0.000000 -0.149045
34 3.535516 -0.000002 0.000000 -1.914410 -0.301441 0.309850
35 1.080029 0.049213 -0.517040 -0.017294 0.272027 1.192078
36 45.434570 -0.000003 -0.000002 0.000000 -0.000000 0.261799
37 59.196026 0.000008 -0.000005 0.000000 0.000000 0.000000
38 1.079226 0.000005 -0.000004 0.048743 0.189609 1.745746
39 112.200348 0.000010 0.000012 0.000000 0.000000 0.000000
40 2.065487 -0.000009 -0.000006 0.000000 0.000000 0.000000
41 1.078212 -0.061243 0.098178 0.037378 0.055364 2.315970
42 112.891380 -0.000001 0.000007 0.000000 0.000000 0.000000
43 1.721236 0.000005 -0.000002 0.000000 0.000000 0.000000
44 -0.726305 -2.959898 -3.646902 -1.438279 0.435614 0.388639
45 0.272717 38.404095 1.817650 -0.000000 0.000000 0.872665
46 -8.366960 -7.011247 -21.507092 1.509694 0.647675 -1.781187
47 67.635139 -0.000007 -0.000004 0.460986 0.232383 -0.506011
48 65.342232 0.000012 -0.000010 0.000000 0.000000 -0.149045
49 3.535514 0.000006 0.000001 1.914410 0.301441 0.309850
50 1.080020 0.049208 0.517038 0.017294 -0.272027 1.192078
51 45.434586 0.000001 0.000009 0.000000 0.000000 0.261799
52 59.196014 0.000015 0.000000 0.000000 0.000000 3.141593
53 1.079215 0.000002 -0.000002 -0.048743 -0.189609 1.745746
54 112.200348 0.000035 0.000001 0.000000 0.000000 0.000000
55 2.065484 0.000003 0.000004 0.000000 0.000000 3.141593
56 1.078207 -0.061244 -0.098179 -0.037378 -0.055364 2.315970
57 112.891380 0.000020 -0.000009 0.000000 0.000000 0.000000
58 1.721235 -0.000001 0.000002 0.000000 0.000000 3.141593
59 -0.114830 -2.044650 3.888003 -1.438280 2.705976 0.388640
60 0.845745 38.795284 0.842520 0.000000 0.000000 0.000000
61 44.146183 23.470121 28.730303 -0.000002 -0.000002 2.763674
62 44.146099 23.470264 -28.756025 -0.000002 -0.000002 2.763674
63 11.035363 -33.182278 -0.056954 -0.000002 -0.000002 2.763674
64 -49.064960 -3.067616 -0.000010 -0.000006 0.000000 -3.012372
65 38.912136 -0.029916 0.000000 -0.000000 -0.000001 0.217033
66 38.476597 -0.031524 0.000000 -0.000000 -0.000000 0.129766
67 39.932884 -0.027041 -0.000000 -0.000000 -0.000001 0.304299
68 35.578896 -0.040899 -0.000000 -0.000000 0.000001 -0.219299
69 52.623219 -0.000008 0.000000 -3.141593 -0.000003 1.570000
70 77.492279 14.003125 -0.056411 0.000003 0.000001 -0.764951
71 88.799866 -0.000001 32.090240 1.570796 0.000000 0.000000
72 88.799866 -0.000001 32.090240 1.570796 0.000000 0.000000
time 4
0 88.799866 -0.000001 32.090240 1.570796 0.000000 0.000000
1 0.056815 32.744511 84.478096 0.000000 1.047198 -1.570795
2 75.025284 -0.000003 -43.315865 -1.047198 -0.000001 1.570796
3 0.578573 -0.000000 1.002115 -1.570795 -1.570796 0.000000
4 19.670202 -0.015160 0.000027 -0.000004 -0.000001 0.175329
5 -19.365993 3.445955 34.046009 -3.141593 -0.000003 1.516526
6 48.144653 -0.000001 -0.000001 0.000000 -0.000000 -1.521536
7 8.787695 -0.000003 0.000003 0.000000 0.000000 1.928557
8 37.448338 0.000004 -0.000005 -0.000000 0.000000 -0.809560
9 10.603358 10.781816 -0.000002 -0.000000 0.000000 1.570796
10 1.115360 0.000000 -0.000004 0.000000 0.000000 0.000000
11 1.115360 0.000000 0.000001 0.000000 0.000000 0.000000
12 1.115360 0.000000 0.000003 0.000000 0.000000 3.141593
13 -19.365993 3.446140 -34.045986 -0.000001 -3.141590 -1.157797
14 48.144657 -0.000004 -0.000001 -0.000000 0.000000 -1.495922
15 8.787700 0.000003 0.000001 0.000000 0.000000 2.370214
16 37.448334 0.000007 -0.000001 0.000000 -0.000000 -0.809561
17 10.603358 10.781816 -0.000000 0.000000 0.000000 1.570796
18 1.115360 0.000000 -0.000004 0.000000 0.000000 0.000000
19 1.115360 0.000000 0.000002 0.000000 0.000000 0.000000
20 1.115360 0.000000 0.000000 0.000000 0.000000 0.000000
21 19.338171 -0.014470 -0.000000 -0.000000 -0.000001 0.349066
22 19.335939 -0.025790 -0.000000 -0.000000 -0.000000 0.117266
23 32.607124 -0.028576 -0.000000 -0.000000 0.000000 -0.144533
24 36.268291 0.000000 -0.000000 -0.000001 0.000002 -1.020729
25 19.745584 0.000002 -0.000000 0.000000 0.000000 0.000000
26 33.906582 77.904587 -0.056893 -0.000002 0.000000 -2.646049
27 46.314243 -1.493381 -0.057020 -0.000002 0.000000 -2.646049
28 47.929718 -50.247257 -0.057093 -0.000002 0.000000 -2.646049
29 18.551140 15.394992 10.634682 -0.000002 0.000000 -2.646049
30 18.551130 15.395029 -10.216358 -0.000002 0.000000 -2.646049
31 -8.428055 -6.938082 21.507053 -1.497795 -0.694940 -1.802574
32 67.635139 0.000005 0.000003 -0.443788 -0.327267 -0.488629
33 65.342239 -0.000000 0.000006 0.000000 0.000000 -0.149045
34 3.535515 -0.000003 0.000001 -1.961129 -0.283652 0.343962
35 1.080025 0.049221 -0.517048 -0.000342 0.175255 1.134405
36 45.434566 0.000008 0.000004 -0.000000 0.000000 0.261799
37 59.196014 0.000009 -0.000001 0.000000 0.000000 0.000000
38 1.079215 -0.000005 -0.000001 0.045247 -0.080567 1.745452
39 112.200356 0.000023 -0.000001 0.000000 0.000000 0.000000
40 2.065477 0.000007 0.000001 0.000000 0.000000 0.000000
41 1.078208 -0.061236 0.098176 0.000520 -0.173923 2.268838
42 112.891388 0.000002 -0.000002 0.000000 0.000000 0.000000
43 1.721236 -0.000002 -0.000003 0.000000 0.000000 0.000000
44 -0.726292 -2.959891 -3.646900 -1.438279 0.435614 0.388639
45 0.272712 38.404102 1.817642 -0.000000 0.000000 0.872665
46 -8.428056 -6.937965 -21.507092 1.497793 0.694946 -1.802575
47 67.635139 -0.000012 -0.000004 0.443788 0.327267 -0.488629
48 65.342232 -0.000002 -0.000006 -0.000000 -0.000000 -0.149045
49 3.535510 0.000008 0.000001 1.961129 0.283652 0.343962
50 1.080035 0.049222 0.517046 0.000342 -0.175255 1.134405
51 45.434566 0.000011 0.000000 0.000000 0.000000 0.261799
52 59.196003 -0.000002 -0.000003 0.000000 0.000000 3.141593
53 1.079229 0.000002 -0.000000 -0.045247 0.080567 1.745452
54 112.200348 0.000018 0.000002 0.000000 0.000000 0.000000
55 2.065481 0.000006 -0.000000 0.000000 0.000000 3.141593
56 1.078219 -0.061238 -0.098174 -0.000520 0.173923 2.268838
57 112.891373 0.000012 -0.000005 0.000000 0.000000 0.000000
58 1.721236 -0.000002 0.000003 0.000000 0.000000 3.141593
59 -0.114824 -2.044645 3.888000 -1.438280 2.705976 0.388640
60 0.845744 38.795280 0.842523 -0.000000 0.000000 0.000000
61 44.146179 23.470116 28.730303 -0.000002 -0.000002 2.763674
62 44.146095 23.470257 -28.756025 -0.000002 -0.000002 2.763674
63 11.035363 -33.182293 -0.056954 -0.000002 -0.000002 2.763674
64 -49.060574 -3.094151 -0.000010 -0.000006 0.000000 -3.099093
65 38.904167 -0.030601 0.000000 -0.000000 0.000000 -0.044767
66 38.479332 -0.031049 0.000000 -0.000000 -0.000001 0.217033
67 39.937428 -0.025153 0.000000 -0.000000 -0.000001 0.478832
68 35.604023 -0.038750 -0.000000 -0.000000 -0.000001 0.391566
69 52.623211 -0.000001 -0.000000 -3.141593 -0.000003 1.570000
70 77.492271 14.003138 -0.056411 0.000003 0.000001 -0.764951
71 88.799866 -0.000001 32.090240 1.570796 0.000000 0.000000
72 88.799866 -0.000001 32.090240 1.570796 0.000000 0.000000
time 5
0 88.799866 -0.000001 32.090240 1.570796 0.000000 0.000000
1 0.056815 32.744511 91.886932 0.000000 1.047198 -1.570795
2 79.654991 -0.000003 -45.988831 -1.047198 -0.000001 1.570796
3 0.578569 -0.000000 1.002115 -1.570795 -1.570796 0.000000
4 19.664852 -0.015152 0.000027 -0.000004 -0.000002 -0.173737
5 -19.371429 -3.384506 34.045990 -0.000004 -3.141592 -0.056517
6 48.144661 -0.000003 -0.000001 0.000000 0.000000 -0.002013
7 8.787693 0.000000 -0.000003 -0.000000 0.000000 1.626316
8 37.448338 0.000004 0.000001 0.000001 -0.000001 -1.505491
9 10.603360 10.781815 -0.000001 -0.000000 0.000000 1.570796
10 1.115359 0.000000 -0.000003 0.000000 0.000000 -0.000000
11 1.115357 -0.000002 0.000002 0.000000 0.000000 -0.000000
12 1.115361 0.000000 0.000000 0.000000 0.000000 3.141593
13 -19.371429 -3.384321 -34.046005 -0.000002 -3.141591 -0.691135
14 48.144657 0.000002 0.000002 0.000000 0.000000 -0.186976
15 8.787692 -0.000006 -0.000002 0.000000 0.000000 1.178865
16 37.448334 0.000004 0.000001 0.000000 -0.000000 -0.809563
17 10.603358 10.781816 -0.000000 0.000000 0.000000 1.570796
18 1.115360 0.000000 -0.000004 0.000000 0.000000 0.000000
19 1.115360 0.000000 0.000002 0.000000 0.000000 0.000000
20 1.115360 0.000000 0.000000 0.000000 0.000000 0.000000
21 19.338169 -0.014464 -0.000000 -0.000000 -0.000001 0.349066
22 19.320602 -0.022864 -0.000000 -0.000000 0.000001 -0.493599
23 32.607128 -0.028579 -0.000001 -0.000000 0.000000 -0.144533
24 36.268295 -0.000002 -0.000001 -0.000000 0.000000 -0.060798
25 19.745598 -0.000000 -0.000000 0.000000 0.000000 0.000000
26 33.906586 77.904579 -0.056893 -0.000002 0.000000 -2.646049
27 46.314240 -1.493382 -0.057020 -0.000002 0.000000 -2.646049
28 47.929729 -50.247261 -0.057093 -0.000002 0.000000 -2.646049
29 18.551147 15.394994 10.634682 -0.000002 0.000000 -2.646049
30 18.551132 15.395024 -10.216358 -0.000002 0.000000 -2.646049
31 -2.909482 -10.512799 21.507042 -1.149367 -2.150696 -1.569946
32 67.635139 -0.000001 0.000001 0.492142 -0.345526 -0.484571
33 65.342239 0.000006 0.000002 0.000000 -0.000000 -0.149044
34 3.535519 -0.000002 -0.000002 -2.264991 -0.119659 0.552534
35 1.080026 0.049218 -0.517044 0.398968 -0.695196 0.552034
36 45.434566 -0.000009 0.000009 0.000000 0.000000 0.261799
37 59.196011 0.000004 0.000006 0.000000 0.000000 0.000000
38 1.079219 0.000010 -0.000002 -0.032163 -1.041251 1.838939
39 112.200340 0.000030 0.000012 0.000000 0.000000 0.000000
40 2.065481 -0.000001 -0.000002 0.000000 0.000000 0.000000
41 1.078216 -0.061242 0.098181 -0.465495 -0.767214 2.895783
42 112.891396 -0.000001 0.000010 0.000000 0.000000 0.000000
43 1.721234 0.000000 -0.000005 0.000000 0.000000 0.000000
44 -0.726299 -2.959898 -3.646901 -1.438279 0.435614 0.388639
45 0.272711 38.404102 1.817649 -0.000000 0.000000 0.872665
46 -2.909481 -10.512680 -21.507103 1.149367 2.150701 -1.569946
47 67.635139 0.000004 -0.000003 -0.492142 0.345526 -0.484572
48 65.342239 0.000008 -0.000007 -0.000000 0.000000 -0.149044
49 3.535517 -0.000012 0.000004 2.264991 0.119659 0.552534
50 1.080030 0.049218 0.517041 -0.398968 0.695196 0.552034
51 45.434578 0.000001 -0.000012 0.000000 -0.000000 0.261799
52 59.196011 0.000005 -0.000007 0.000000 0.000000 3.141593
53 1.079213 -0.000002 0.000007 0.032163 1.041251 1.838939
54 112.200356 0.000013 -0.000014 0.000000 0.000000 0.000000
55 2.065482 -0.000000 0.000000 0.000000 0.000000 3.141593
56 1.078214 -0.061245 -0.098178 0.465496 0.767214 2.895783
57 112.891403 -0.000007 -0.000011 0.000000 0.000000 0.000000
58 1.721237 0.000006 0.000007 0.000000 0.000000 3.141593
59 -0.114826 -2.044648 3.888006 -1.438280 2.705976 0.388640
60 0.845746 38.795277 0.842521 -0.000000 0.000000 0.000000
61 44.146183 23.470116 28.730303 -0.000002 -0.000002 2.763674
62 44.146099 23.470259 -28.756025 -0.000002 -0.000002 2.763674
63 11.035365 -33.182289 -0.056954 -0.000002 -0.000002 2.763674
64 -45.035793 -19.685417 -0.000056 -0.000005 0.000001 -2.837294
65 38.898876 -0.029896 0.000000 -0.000000 0.000001 -0.219299
66 38.479328 -0.031057 0.000000 -0.000000 -0.000001 0.217033
67 39.932888 -0.027035 0.000000 -0.000000 -0.000001 0.304299
68 35.603985 -0.038738 0.000000 -0.000000 -0.000001 0.391566
69 52.623222 -0.000004 -0.000000 -3.141593 -0.000003 1.570000
70 77.492271 14.003125 -0.056411 0.000003 0.000001 -0.764951
71 88.799866 -0.000001 32.090240 1.570796 0.000000 0.000000
72 88.799866 -0.000001 32.090240 1.570796 0.000000 0.000000
time 6
0 88.799866 -0.000001 32.090240 1.570796 0.000000 0.000000
1 0.056815 32.744511 91.886932 0.000000 1.047198 -1.570795
2 79.654976 -0.000003 -45.988819 -1.047198 -0.000001 1.570796
3 0.578569 -0.000000 1.002115 -1.570795 -1.570796 0.000000
4 19.666187 -0.015333 0.000027 -0.000004 -0.000002 -0.086470
5 -19.594034 -1.683236 34.045994 -0.000002 -3.141591 -0.778377
6 48.144665 -0.000000 -0.000002 -0.000000 -0.000000 -0.186836
7 8.787698 -0.000002 -0.000002 0.000000 0.000000 1.178750
8 37.448338 0.000006 -0.000003 0.000000 -0.000000 -0.809563
9 10.603357 10.781816 -0.000000 -0.000000 -0.000000 1.570796
10 1.115360 0.000000 -0.000003 0.000000 0.000000 0.000000
11 1.115360 0.000000 0.000003 0.000000 0.000000 0.000000
12 1.115360 0.000000 0.000001 0.000000 0.000000 3.141593
13 -19.594032 -1.683050 -34.046001 -0.000002 -3.141591 -0.778404
14 48.144657 -0.000002 0.000002 -0.000000 -0.000000 -0.186987
15 8.787700 -0.000004 0.000002 0.000000 0.000000 1.178877
16 37.448334 0.000006 0.000000 0.000000 -0.000000 -0.809566
17 10.603358 10.781816 -0.000000 0.000000 0.000000 1.570796
18 1.115360 0.000000 -0.000003 0.000000 0.000000 0.000000
19 1.115360 0.000000 0.000003 0.000000 0.000000 0.000000
20 1.115360 0.000000 0.000001 0.000000 0.000000 0.000000
21 19.338171 -0.014467 -0.000000 -0.000000 -0.000001 0.349066
22 19.326937 -0.025271 -0.000000 -0.000000 0.000001 -0.231799
23 32.607132 -0.028583 -0.000000 -0.000000 0.000000 -0.144533
24 36.268288 -0.000002 -0.000000 -0.000000 0.000001 -0.409863
25 19.745602 -0.000003 -0.000000 0.000000 0.000000 0.000000
26 33.906593 77.904587 -0.056893 -0.000002 0.000000 -2.646049
27 46.314251 -1.493378 -0.057020 -0.000002 0.000000 -2.646049
28 47.929737 -50.247261 -0.057093 -0.000002 0.000000 -2.646049
29 18.551153 15.394991 10.634682 -0.000002 0.000000 -2.646049
30 18.551142 15.395028 -10.216358 -0.000002 0.000000 -2.646049
31 -5.537958 -9.400671 21.507046 1.992227 -0.990897 1.309846
32 67.635147 -0.000001 0.000003 0.405975 -0.453269 -0.358985
33 65.342239 0.000004 0.000002 0.000000 -0.000000 -0.149044
34 3.535522 -0.000013 -0.000001 -2.222928 -0.283652 0.343962
35 1.080035 0.049216 -0.517048 0.310223 0.213876 0.883716
36 45.434570 -0.000016 -0.000004 -0.000000 0.000000 0.261799
37 59.196022 -0.000014 -0.000014 0.000000 0.000000 0.000000
38 1.079223 -0.000004 0.000003 0.132220 -0.068354 1.585687
39 112.200333 0.000016 -0.000019 0.000000 0.000000 0.000000
40 2.065479 0.000002 -0.000000 0.000000 0.000000 0.000000
41 1.078216 -0.061243 0.098179 -0.186426 -0.205642 2.270883
42 112.891388 0.000030 0.000007 0.000000 0.000000 0.000000
43 1.721232 0.000003 -0.000004 0.000000 0.000000 0.000000
44 -0.726296 -2.959896 -3.646906 -1.438279 0.435614 0.388639
45 0.272718 38.404099 1.817641 -0.000000 0.000000 0.872665
46 -5.537956 -9.400553 -21.507099 -1.992224 0.990892 1.309848
47 67.635139 0.000001 0.000000 -0.405975 0.453269 -0.358985
48 65.342239 0.000002 -0.000005 -0.000000 0.000000 -0.149044
49 3.535513 -0.000006 0.000004 2.222928 0.283652 0.343962
50 1.080034 0.049220 0.517047 -0.310223 -0.213876 0.883716
51 45.434563 -0.000016 0.000013 0.000000 -0.000000 0.261799
52 59.196018 -0.000015 0.000007 0.000000 0.000000 3.141593
53 1.079216 -0.000006 0.000009 -0.132220 0.068354 1.585687
54 112.200340 0.000014 -0.000008 0.000000 0.000000 0.000000
55 2.065482 -0.000001 0.000004 0.000000 0.000000 3.141593
56 1.078212 -0.061242 -0.098173 0.186426 0.205642 2.270883
57 112.891388 0.000021 -0.000017 0.000000 0.000000 0.000000
58 1.721237 -0.000005 -0.000007 0.000000 0.000000 3.141593
59 -0.114825 -2.044654 3.888003 -1.438280 2.705976 0.388640
60 0.845743 38.795288 0.842523 -0.000000 -0.000000 0.000000
61 44.146183 23.470119 28.730303 -0.000002 -0.000002 2.763674
62 44.146103 23.470261 -28.756025 -0.000002 -0.000002 2.763674
63 11.035362 -33.182285 -0.056954 -0.000002 -0.000002 2.763674
64 -46.578804 -15.684846 -0.000045 -0.000006 0.000000 -3.011827
65 38.898872 -0.029886 0.000000 -0.000000 0.000001 -0.219299
66 38.465561 -0.031028 0.000000 -0.000000 0.000001 -0.219299
67 39.937439 -0.025150 0.000001 -0.000000 -0.000001 0.478832
68 35.603981 -0.038738 0.000000 -0.000000 -0.000001 0.391566
69 52.623207 -0.000001 0.000000 -3.141593 -0.000003 1.570000
70 77.492271 14.003127 -0.056411 0.000003 0.000001 -0.764951
71 88.799866 -0.000001 32.090240 1.570796 0.000000 0.000000
72 88.799866 -0.000001 32.090240 1.570796 0.000000 0.000000
end
