version 1
nodes
0 "Box01" -1
1 "Bip01" -1
2 "Bip01 Footsteps" 1
3 "Bip01 Pelvis" 1
4 "Bip01 Spine" 3
5 "Bip01 L Thigh" 4
6 "Bip01 L Calf" 5
7 "Bip01 L HorseLink" 6
8 "Bip01 L Foot" 7
9 "Bip01 L Toe0" 8
10 "Bip01 L Toe01" 9
11 "Bip01 L Toe02" 10
12 "Bip01 L Toe0Nub" 11
13 "Bip01 R Thigh" 4
14 "Bip01 R Calf" 13
15 "Bip01 R HorseLink" 14
16 "Bip01 R Foot" 15
17 "Bip01 R Toe0" 16
18 "Bip01 R Toe01" 17
19 "Bip01 R Toe02" 18
20 "Bip01 R Toe0Nub" 19
21 "Bip01 Spine1" 4
22 "Bip01 Neck" 21
23 "Bip01 Neck1" 22
24 "Bip01 Head" 23
25 "Bip01 HeadNub" 24
26 "Bone02" 24
27 "Bone03" 24
28 "Bone04" 24
29 "Bone05" 24
30 "Bone06" 24
31 "Bip01 L Clavicle" 22
32 "Bip01 L UpperArm" 31
33 "Bip01 L Forearm" 32
34 "Bip01 L Hand" 33
35 "Bip01 L Finger0" 34
36 "Bip01 L Finger01" 35
37 "Bip01 L Finger0Nub" 36
38 "Bip01 L Finger1" 34
39 "Bip01 L Finger11" 38
40 "Bip01 L Finger1Nub" 39
41 "Bip01 L Finger2" 34
42 "Bip01 L Finger21" 41
43 "Bip01 L Finger2Nub" 42
44 "Box02" 32
45 "Box04" 44
46 "Bip01 R Clavicle" 22
47 "Bip01 R UpperArm" 46
48 "Bip01 R Forearm" 47
49 "Bip01 R Hand" 48
50 "Bip01 R Finger0" 49
51 "Bip01 R Finger01" 50
52 "Bip01 R Finger0Nub" 51
53 "Bip01 R Finger1" 49
54 "Bip01 R Finger11" 53
55 "Bip01 R Finger1Nub" 54
56 "Bip01 R Finger2" 49
57 "Bip01 R Finger21" 56
58 "Bip01 R Finger2Nub" 57
59 "Box03" 47
60 "Box05" 59
61 "Bone09" 21
62 "Bone08" 21
63 "Bone07" 21
64 "Bip01 Tail" 4
65 "Bip01 Tail1" 64
66 "Bip01 Tail2" 65
67 "Bip01 Tail3" 66
68 "Bip01 Tail4" 67
69 "Bip01 TailNub" 68
70 "Bone10" 68
71 "Object01" -1
72 "Object02" -1
end
skeleton
time 0
0 88.799866 -0.000001 32.090240 1.570796 0.000000 0.000000
1 0.056815 32.744511 78.069092 0.000000 1.047198 -1.570795
2 46.600662 -0.000002 -26.904903 -1.047198 -0.000001 1.570796
3 0.578571 -0.000000 1.002115 -1.570795 -1.570796 0.000000
4 19.667526 -0.015393 0.000027 -0.000004 -0.000001 0.000796
5 -19.667505 0.030962 34.045998 -0.000003 3.141593 0.040740
6 48.144665 -0.000005 -0.000000 -0.000000 -0.000000 -0.002264
7 8.787694 0.000005 -0.000000 0.000000 -0.000000 2.247671
8 37.448334 0.000000 -0.000000 0.000000 -0.000000 -1.767538
9 10.603357 10.781816 0.000002 -0.000000 -0.000000 1.570796
10 1.115360 -0.000002 -0.000001 0.000000 0.000000 0.000000
11 1.115360 0.000001 0.000000 0.000000 0.000000 0.000000
12 1.115361 0.000001 0.000002 0.000000 0.000000 3.141593
13 -19.667505 0.031147 -34.045998 -0.000003 3.141593 0.040740
14 48.144665 -0.000007 -0.000000 -0.000000 -0.000000 -0.002264
15 8.787693 0.000003 -0.000000 0.000000 -0.000000 2.247671
16 37.448334 0.000000 -0.000000 0.000000 -0.000000 -1.767538
17 10.603357 10.781818 0.000002 0.000000 -0.000000 1.570796
18 1.115360 -0.000001 -0.000004 0.000000 0.000000 0.000000
19 1.115358 -0.000001 0.000001 0.000000 0.000000 0.000000
20 1.115362 0.000001 0.000002 0.000000 0.000000 0.000000
21 19.338173 -0.014465 -0.000000 -0.000000 -0.000001 0.349066
22 19.351809 -0.017819 -0.000000 -0.000001 -0.000002 0.815398
23 32.626480 -0.024571 0.000000 -0.000000 -0.000001 0.553599
24 36.268291 0.000001 0.000000 -0.000001 0.000002 -0.846196
25 19.745594 -0.000002 0.000000 0.000000 0.000000 0.000000
26 33.906578 77.904572 -0.056892 -0.000002 0.000000 -2.646049
27 46.314243 -1.493389 -0.057019 -0.000002 0.000000 -2.646049
28 47.929737 -50.247265 -0.057093 -0.000002 0.000000 -2.646049
29 18.551144 15.394990 10.634682 -0.000002 0.000000 -2.646049
30 18.551134 15.395020 -10.216358 -0.000002 0.000000 -2.646049
31 -10.932621 0.108644 21.507072 1.214319 -1.102947 1.149867
32 67.635139 0.000008 0.000002 0.288270 -0.405899 0.122643
33 65.342232 -0.000002 0.000003 0.000000 -0.000000 -0.149045
34 3.535511 -0.000005 -0.000001 -1.570000 -0.087266 0.000000
35 1.080034 0.049219 -0.517037 -0.000753 -0.523142 0.611242
36 45.434559 -0.000009 0.000006 -0.000000 -0.000000 0.261799
37 59.196007 0.000007 0.000002 0.000000 0.000000 0.000000
38 1.079218 0.000000 0.000001 -0.000147 -0.348282 1.396314
39 112.200348 0.000030 -0.000006 0.000000 0.000000 0.000000
40 2.065478 0.000004 0.000002 0.000000 0.000000 0.000000
41 1.078211 -0.061243 0.098179 0.000512 0.000610 2.268928
42 112.891396 0.000018 -0.000013 0.000000 0.000000 0.000000
43 1.721236 0.000001 0.000007 0.000000 0.000000 0.000000
44 -0.726299 -2.959896 -3.646903 -1.641847 0.657745 -0.127091
45 0.272714 38.404102 1.817644 -0.000000 0.000000 0.000000
46 -10.932623 0.108762 -21.507072 -1.214314 1.102942 1.149871
47 67.635139 0.000006 -0.000003 -0.288270 0.405899 0.122643
48 65.342247 -0.000001 -0.000001 -0.000000 0.000000 -0.149045
49 3.535500 0.000002 -0.000003 1.570000 0.087266 0.000000
50 1.080033 0.049220 0.517038 0.000753 0.523142 0.611242
51 45.434578 -0.000008 0.000004 0.000000 0.000000 0.261799
52 59.196022 0.000005 -0.000005 0.000000 0.000000 3.141593
53 1.079233 0.000003 -0.000004 0.000147 0.348282 1.396314
54 112.200333 0.000049 0.000009 0.000000 0.000000 0.000000
55 2.065490 0.000000 -0.000001 0.000000 0.000000 3.141593
56 1.078210 -0.061242 -0.098178 -0.000512 -0.000610 2.268928
57 112.891396 0.000005 0.000012 0.000000 0.000000 0.000000
58 1.721238 -0.000000 -0.000005 0.000000 0.000000 3.141593
59 -0.114826 -2.044653 3.888004 1.499746 0.657748 3.014501
60 0.845741 38.795284 0.842514 -0.000000 0.000000 0.000000
61 44.146179 23.470116 28.730305 -0.000002 -0.000002 2.763674
62 44.146099 23.470257 -28.756023 -0.000002 -0.000002 2.763674
63 11.035362 -33.182293 -0.056954 -0.000002 -0.000002 2.763674
64 -47.772610 -11.565728 -0.000034 -0.000006 0.000000 -3.011827
65 38.898880 -0.029899 0.000000 -0.000000 0.000001 -0.219299
66 38.460278 -0.029363 0.000000 -0.000000 0.000001 -0.393832
67 39.932880 -0.027023 0.000001 -0.000000 -0.000001 0.304299
68 35.607304 -0.037197 0.000000 -0.000000 -0.000001 0.478832
69 52.623203 0.000000 0.000000 -3.141593 -0.000003 1.570000
70 77.492271 14.003131 -0.056410 0.000003 0.000001 -0.764951
71 88.799866 -0.000001 32.090240 1.570796 0.000000 0.000000
72 88.799866 -0.000001 32.090240 1.570796 0.000000 0.000000
time 1
0 88.799866 -0.000001 32.090240 1.570796 0.000000 0.000000
1 0.056815 32.744511 76.808174 0.000000 1.047198 -1.570795
2 43.983551 -0.000002 -25.393913 -1.047198 -0.000001 1.570796
3 0.578571 -0.000000 1.002115 -1.570795 -1.570796 0.000000
4 19.667530 -0.015393 0.000027 -0.000004 -0.000001 0.000796
5 -19.667509 0.030967 34.045998 -0.000003 -3.141592 -0.033913
6 48.144657 -0.000006 0.000000 0.000000 0.000000 -0.002497
7 8.787695 0.000005 -0.000001 -0.000000 0.000000 2.197436
8 37.448334 0.000004 0.000001 0.000000 -0.000000 -1.843537
9 10.603358 10.781817 0.000000 -0.000000 -0.000000 1.545236
10 1.115359 -0.000001 -0.000003 -0.000000 0.000000 -0.025560
11 1.115360 0.000001 0.000002 0.000000 0.000000 -0.025560
12 1.115359 -0.000001 -0.000000 0.000000 0.000000 3.141593
13 -19.667509 0.031152 -34.045998 -0.000003 3.141593 -0.033913
14 48.144657 -0.000007 0.000001 -0.000000 0.000000 -0.002497
15 8.787694 0.000004 0.000000 0.000000 -0.000000 2.197436
16 37.448334 0.000005 -0.000001 -0.000000 0.000000 -1.843537
17 10.603357 10.781815 0.000000 0.000000 0.000000 1.545236
18 1.115358 0.000000 -0.000002 0.000000 0.000000 -0.025560
19 1.115359 0.000001 -0.000000 -0.000000 -0.000000 -0.025560
20 1.115360 -0.000001 0.000001 0.000000 0.000000 0.000000
21 19.338173 -0.014467 -0.000000 -0.000000 -0.000001 0.349066
22 19.350861 -0.018768 -0.000000 -0.000001 -0.000002 0.763584
23 32.625824 -0.024960 0.000000 -0.000000 -0.000001 0.527692
24 36.268295 0.000002 0.000000 -0.000001 0.000002 -0.768474
25 19.745588 0.000004 0.000000 0.000000 0.000000 0.000000
26 33.906574 77.904572 -0.056892 -0.000002 0.000000 -2.646049
27 46.314243 -1.493386 -0.057019 -0.000002 0.000000 -2.646049
28 47.929733 -50.247265 -0.057093 -0.000002 0.000000 -2.646049
29 18.551147 15.394993 10.634682 -0.000002 0.000000 -2.646049
30 18.551136 15.395023 -10.216358 -0.000002 0.000000 -2.646049
31 -10.922238 -0.457683 21.507071 0.466700 -1.375864 1.918152
32 67.635139 0.000002 -0.000000 0.416514 -0.336406 -0.420409
33 65.342247 0.000001 -0.000000 -0.000000 -0.000000 0.200021
34 3.535508 0.000001 0.000000 -1.570000 0.261799 -0.000000
35 1.080035 0.049217 -0.517036 0.190776 0.455806 0.390281
36 45.434566 0.000001 -0.000011 -0.000000 0.000000 -0.087266
37 59.196011 -0.000005 -0.000004 0.000000 0.000000 0.000000
38 1.079223 -0.000005 0.000005 0.130054 0.453205 1.123838
39 112.200363 0.000025 -0.000011 -0.000000 0.000000 -0.349066
40 2.065469 0.000004 -0.000000 0.000000 0.000000 0.000000
41 1.078221 -0.061241 0.098181 0.000282 0.262548 1.919935
42 112.891403 -0.000009 0.000003 0.000000 -0.000000 -0.349066
43 1.721241 0.000002 0.000001 0.000000 0.000000 0.000000
44 -0.726296 -2.959895 -3.646903 -2.165446 0.657745 -0.127091
45 0.272718 38.404099 1.817643 -0.000000 0.000000 0.000000
46 -10.922239 -0.457565 -21.507074 -0.466709 1.375859 1.918143
47 67.635139 0.000009 -0.000005 -0.416514 0.336406 -0.420409
48 65.342239 -0.000004 -0.000003 0.000000 0.000000 0.200021
49 3.535510 0.000006 0.000000 1.570000 -0.261799 0.000000
50 1.080031 0.049216 0.517036 -0.190776 -0.455806 0.390281
51 45.434566 0.000002 0.000012 -0.000000 0.000000 -0.087266
52 59.196011 -0.000002 0.000011 0.000000 0.000000 3.141593
53 1.079220 0.000004 -0.000004 -0.130054 -0.453205 1.123838
54 112.200348 0.000029 0.000032 -0.000000 -0.000000 -0.349066
55 2.065488 -0.000001 -0.000001 0.000000 0.000000 3.141593
56 1.078218 -0.061240 -0.098182 -0.000282 -0.262548 1.919935
57 112.891403 0.000003 0.000005 0.000000 0.000000 -0.349066
58 1.721236 0.000001 -0.000001 0.000000 0.000000 3.141593
59 -0.114825 -2.044659 3.888005 0.976147 0.657748 3.014501
60 0.845741 38.795280 0.842517 -0.000000 -0.000000 -0.000000
61 44.146179 23.470114 28.730305 -0.000002 -0.000002 2.763674
62 44.146099 23.470257 -28.756023 -0.000002 -0.000002 2.763674
63 11.035362 -33.182293 -0.056954 -0.000002 -0.000002 2.763674
64 -47.780426 -11.567796 -0.000034 -0.000005 0.000001 -2.750027
65 38.901508 -0.030354 0.000000 -0.000000 0.000000 -0.132033
66 38.457767 -0.028179 0.000000 -0.000000 0.000001 -0.481099
67 39.925591 -0.028303 0.000000 -0.000000 -0.000000 0.042500
68 35.586117 -0.041862 0.000000 -0.000000 0.000000 -0.044767
69 52.623222 -0.000002 0.000001 -3.141593 -0.000003 1.570000
70 77.492271 14.003123 -0.056410 0.000003 0.000001 -0.764951
71 88.799866 -0.000001 32.090240 1.570796 0.000000 0.000000
72 88.799866 -0.000001 32.090240 1.570796 0.000000 0.000000
time 2
0 88.799866 -0.000001 32.090240 1.570796 0.000000 0.000000
1 0.056815 32.744511 75.414536 0.000000 1.047198 -1.570795
2 46.340549 -0.000002 -26.754726 -1.047198 -0.000001 1.570796
3 0.578573 -0.000000 1.002115 -1.570795 -1.570796 0.000000
4 19.667526 -0.015392 0.000027 -0.000004 -0.000001 0.000796
5 -19.667505 0.030958 34.045998 -0.000003 -3.141592 -0.116424
6 48.144665 -0.000003 -0.000003 -0.000000 0.000000 -0.002755
7 8.787693 0.000002 0.000002 -0.000000 -0.000000 2.141912
8 37.448338 -0.000001 -0.000003 0.000000 -0.000001 -1.927535
9 10.603357 10.781816 -0.000000 -0.000000 -0.000000 1.483529
10 1.115361 0.000001 -0.000004 -0.000000 -0.000000 -0.087267
11 1.115362 0.000001 0.000001 0.000000 -0.000000 -0.087267
12 1.115359 -0.000000 0.000002 0.000000 0.000000 -3.141593
13 -19.667505 0.031144 -34.045998 -0.000002 3.141593 -0.116424
14 48.144665 -0.000005 0.000001 -0.000000 -0.000000 -0.002755
15 8.787694 0.000001 -0.000002 0.000000 -0.000000 2.141912
16 37.448338 -0.000001 -0.000001 -0.000000 0.000000 -1.927535
17 10.603357 10.781814 -0.000000 0.000000 0.000000 1.483530
18 1.115357 -0.000004 -0.000002 -0.000000 -0.000000 -0.087267
19 1.115363 0.000005 0.000003 -0.000000 -0.000000 -0.087267
20 1.115359 0.000000 0.000000 0.000000 0.000000 0.000000
21 19.338173 -0.014469 -0.000000 -0.000000 -0.000001 0.349066
22 19.349756 -0.019767 -0.000000 -0.000001 -0.000002 0.706315
23 32.625111 -0.025370 0.000000 -0.000000 -0.000001 0.499057
24 36.268284 -0.000001 0.000000 -0.000001 0.000002 -0.682571
25 19.745592 -0.000001 0.000000 0.000000 0.000000 0.000000
26 33.906574 77.904572 -0.056892 -0.000002 0.000000 -2.646049
27 46.314247 -1.493391 -0.057019 -0.000002 0.000000 -2.646049
28 47.929741 -50.247272 -0.057093 -0.000002 0.000000 -2.646049
29 18.551149 15.394988 10.634683 -0.000002 0.000000 -2.646049
30 18.551140 15.395018 -10.216357 -0.000002 0.000000 -2.646049
31 -10.876651 -1.082052 21.507069 -1.125647 -1.182132 -2.753908
32 67.635132 0.000001 0.000001 0.357260 -0.434508 -0.528741
33 65.342247 -0.000007 0.000006 0.000000 0.000000 0.200021
34 3.535497 0.000003 0.000004 -1.570000 0.261799 -0.000000
35 1.080030 0.049216 -0.517042 0.211810 0.626841 0.430949
36 45.434582 0.000002 0.000008 0.000000 -0.000000 -0.087266
37 59.196018 0.000012 -0.000009 0.000000 0.000000 0.000000
38 1.079224 0.000000 -0.000005 0.144391 0.626110 1.151633
39 112.200356 0.000016 0.000010 -0.000000 0.000000 -0.349066
40 2.065475 0.000007 -0.000007 0.000000 0.000000 0.000000
41 1.078218 -0.061237 0.098176 0.000301 0.437081 1.919989
42 112.891388 -0.000014 -0.000017 0.000000 -0.000000 -0.349066
43 1.721235 -0.000004 0.000000 0.000000 0.000000 0.000000
44 -0.726294 -2.959901 -3.646903 -2.339978 0.657745 -0.127091
45 0.272712 38.404102 1.817641 -0.000000 0.000000 0.000000
46 -10.876652 -1.081934 -21.507076 1.125634 1.182135 -2.753921
47 67.635139 0.000005 -0.000004 -0.357260 0.434509 -0.528741
48 65.342239 0.000000 -0.000006 -0.000000 -0.000000 0.200021
49 3.535501 0.000002 -0.000001 1.570000 -0.261799 -0.000000
50 1.080029 0.049216 0.517043 -0.211810 -0.626841 0.430949
51 45.434563 0.000011 0.000014 0.000000 0.000000 -0.087266
52 59.196026 0.000011 -0.000006 0.000000 0.000000 3.141593
53 1.079224 -0.000006 0.000007 -0.144391 -0.626110 1.151633
54 112.200371 0.000020 -0.000024 0.000000 -0.000000 -0.349066
55 2.065490 -0.000008 0.000006 0.000000 0.000000 3.141593
56 1.078217 -0.061242 -0.098175 -0.000301 -0.437081 1.919989
57 112.891388 -0.000018 0.000010 -0.000000 -0.000000 -0.349066
58 1.721236 -0.000009 0.000001 0.000000 0.000000 3.141593
59 -0.114827 -2.044652 3.888002 0.801614 0.657748 3.014501
60 0.845752 38.795284 0.842514 0.000000 0.000000 -0.000000
61 44.146179 23.470116 28.730305 -0.000002 -0.000002 2.763674
62 44.146099 23.470257 -28.756023 -0.000002 -0.000002 2.763674
63 11.035362 -33.182293 -0.056954 -0.000002 -0.000002 2.763674
64 -47.787437 -11.571846 -0.000034 -0.000005 0.000002 -2.488228
65 38.904167 -0.030597 -0.000000 -0.000000 0.000000 -0.044767
66 38.462891 -0.030307 0.000000 -0.000000 0.000001 -0.306566
67 39.915840 -0.027025 0.000000 -0.000000 0.000001 -0.306566
68 35.568596 -0.037140 0.000000 -0.000000 0.000001 -0.481099
69 52.623207 -0.000001 0.000001 -3.141593 -0.000003 1.570000
70 77.492279 14.003139 -0.056410 0.000003 0.000001 -0.764951
71 88.799866 -0.000001 32.090240 1.570796 0.000000 0.000000
72 88.799866 -0.000001 32.090240 1.570796 0.000000 0.000000
time 3
0 88.799866 -0.000001 32.090240 1.570796 0.000000 0.000000
1 0.056815 32.744511 74.286346 0.000000 1.047198 -1.570795
2 49.124958 -0.000002 -28.362307 -1.047198 -0.000001 1.570796
3 0.578570 -0.000000 1.002114 -1.570795 -1.570796 0.000000
4 19.667526 -0.015387 0.000027 -0.000004 -0.000001 0.000796
5 -19.667505 0.030962 34.045998 -0.000003 -3.141592 -0.183218
6 48.144665 -0.000007 0.000000 -0.000000 0.000000 -0.002964
7 8.787699 -0.000003 -0.000000 -0.000000 -0.000000 2.096965
8 37.448338 0.000004 0.000001 0.000001 -0.000001 -1.995534
9 10.603356 10.781816 0.000003 -0.000000 -0.000000 1.421823
10 1.115360 -0.000001 -0.000001 0.000000 -0.000000 -0.148973
11 1.115360 -0.000001 -0.000004 -0.000000 -0.000000 -0.148973
12 1.115361 0.000002 0.000001 0.000000 0.000000 3.141593
13 -19.667505 0.031148 -34.045998 -0.000002 3.141593 -0.183218
14 48.144665 -0.000008 -0.000003 -0.000000 -0.000000 -0.002964
15 8.787698 -0.000004 0.000001 -0.000000 -0.000000 2.096965
16 37.448341 0.000004 0.000003 -0.000000 0.000001 -1.995534
17 10.603356 10.781817 0.000003 0.000000 0.000000 1.421823
18 1.115359 -0.000000 0.000001 0.000000 -0.000000 -0.148973
19 1.115360 0.000000 -0.000002 0.000000 0.000000 -0.148973
20 1.115361 0.000001 0.000002 0.000000 0.000000 0.000000
21 19.338173 -0.014465 -0.000000 -0.000000 -0.000001 0.349066
22 19.348825 -0.020528 -0.000000 -0.000001 -0.000002 0.659955
23 32.624516 -0.025677 0.000000 -0.000000 -0.000001 0.475877
24 36.268288 0.000006 0.000000 -0.000001 0.000002 -0.613031
25 19.745590 0.000001 0.000000 0.000000 0.000000 0.000000
26 33.906574 77.904572 -0.056892 -0.000002 0.000000 -2.646049
27 46.314247 -1.493389 -0.057019 -0.000002 0.000000 -2.646049
28 47.929733 -50.247265 -0.057093 -0.000002 0.000000 -2.646049
29 18.551147 15.394990 10.634682 -0.000002 0.000000 -2.646049
30 18.551138 15.395020 -10.216358 -0.000002 0.000000 -2.646049
31 -10.813621 -1.584924 21.507067 -1.327709 -0.938557 -2.529791
32 67.635147 0.000009 0.000004 0.229502 -0.515335 -0.431497
33 65.342239 0.000007 -0.000001 -0.000000 -0.000000 0.200022
34 3.535503 0.000007 0.000002 -1.570000 0.349066 0.000000
35 1.080032 0.049216 -0.517037 0.211810 0.626841 0.430949
36 45.434566 -0.000000 -0.000004 0.000000 -0.000000 -0.087266
37 59.196030 -0.000001 -0.000001 0.000000 0.000000 0.000000
38 1.079214 -0.000005 0.000002 0.136336 0.539700 1.137014
39 112.200356 0.000006 -0.000006 -0.000000 0.000000 -0.349066
40 2.065476 -0.000001 0.000005 0.000000 0.000000 0.000000
41 1.078215 -0.061234 0.098182 -0.015158 0.174631 1.831292
42 112.891380 0.000001 -0.000003 -0.000000 -0.000000 -0.349066
43 1.721234 -0.000003 0.000005 0.000000 0.000000 0.000000
44 -0.726300 -2.959898 -3.646904 -2.223623 0.657745 -0.127091
45 0.272710 38.404091 1.817649 -0.000000 0.000000 0.000000
46 -10.813622 -1.584806 -21.507078 1.327702 0.938560 -2.529798
47 67.635132 0.000001 0.000001 -0.229502 0.515335 -0.431497
48 65.342232 0.000013 -0.000006 -0.000000 0.000000 0.200022
49 3.535522 -0.000002 0.000003 1.570000 -0.349066 -0.000000
50 1.080038 0.049215 0.517038 -0.211810 -0.626841 0.430949
51 45.434574 -0.000002 0.000001 -0.000000 0.000000 -0.087266
52 59.196007 0.000002 0.000005 0.000000 0.000000 3.141593
53 1.079234 -0.000002 0.000005 -0.136336 -0.539700 1.137014
54 112.200348 0.000024 0.000005 -0.000000 0.000000 -0.349066
55 2.065481 0.000004 -0.000005 0.000000 0.000000 3.141593
56 1.078220 -0.061237 -0.098180 0.015158 -0.174631 1.831292
57 112.891388 0.000013 0.000004 -0.000000 0.000000 -0.349066
58 1.721238 0.000004 -0.000002 0.000000 0.000000 3.141593
59 -0.114825 -2.044650 3.888002 0.917969 0.657748 3.014501
60 0.845745 38.795277 0.842529 0.000000 0.000000 -0.000000
61 44.146179 23.470114 28.730305 -0.000002 -0.000002 2.763674
62 44.146099 23.470257 -28.756023 -0.000002 -0.000002 2.763674
63 11.035361 -33.182293 -0.056954 -0.000002 -0.000002 2.763674
64 -47.789509 -11.573573 -0.000034 -0.000005 0.000002 -2.400961
65 38.906853 -0.030610 -0.000000 -0.000000 -0.000000 0.042500
66 38.471058 -0.031753 -0.000000 -0.000000 0.000000 -0.044767
67 39.915825 -0.027018 -0.000000 -0.000000 0.000001 -0.306566
68 35.565437 -0.035293 0.000000 -0.000000 0.000001 -0.568365
69 52.623211 -0.000002 0.000001 -3.141593 -0.000003 1.570000
70 77.492271 14.003128 -0.056410 0.000003 0.000001 -0.764951
71 88.799866 -0.000001 32.090240 1.570796 0.000000 0.000000
72 88.799866 -0.000001 32.090240 1.570796 0.000000 0.000000
time 4
0 88.799866 -0.000001 32.090240 1.570796 0.000000 0.000000
1 0.056815 32.744511 73.821800 0.000000 1.047198 -1.570795
2 51.616222 -0.000002 -29.800638 -1.047198 -0.000001 1.570796
3 0.578573 -0.000000 1.002114 -1.570795 -1.570796 0.000000
4 19.667530 -0.015398 0.000027 -0.000004 -0.000001 0.000796
5 -19.667509 0.030967 34.045998 -0.000003 -3.141591 -0.210722
6 48.144657 -0.000000 -0.000001 0.000000 0.000000 -0.003049
7 8.787696 -0.000002 -0.000001 -0.000000 0.000000 2.078457
8 37.448341 -0.000001 0.000001 0.000001 -0.000001 -2.023534
9 10.603358 10.781815 0.000000 -0.000000 -0.000000 1.396263
10 1.115361 -0.000001 0.000000 0.000000 -0.000000 -0.174533
11 1.115360 -0.000000 -0.000003 -0.000000 -0.000000 -0.174533
12 1.115360 0.000003 0.000002 0.000000 0.000000 3.141593
13 -19.667509 0.031153 -34.045998 -0.000002 3.141593 -0.210722
14 48.144653 -0.000001 -0.000002 0.000000 -0.000000 -0.003049
15 8.787697 -0.000004 0.000001 0.000000 -0.000000 2.078457
16 37.448341 -0.000001 0.000003 -0.000001 0.000001 -2.023534
17 10.603358 10.781816 0.000000 0.000000 0.000000 1.396263
18 1.115361 0.000000 0.000002 -0.000000 -0.000000 -0.174533
19 1.115360 0.000000 -0.000005 -0.000000 -0.000000 -0.174533
20 1.115360 0.000001 -0.000000 0.000000 0.000000 -0.000000
21 19.338173 -0.014467 -0.000000 -0.000000 -0.000001 0.349066
22 19.348431 -0.020819 -0.000000 -0.000001 -0.000002 0.640865
23 32.624264 -0.025810 0.000000 -0.000000 -0.000001 0.466332
24 36.268288 0.000005 0.000000 -0.000000 0.000002 -0.584396
25 19.745590 -0.000001 0.000000 0.000000 0.000000 0.000000
26 33.906574 77.904572 -0.056892 -0.000002 0.000000 -2.646049
27 46.314247 -1.493391 -0.057019 -0.000002 0.000000 -2.646049
28 47.929737 -50.247265 -0.057093 -0.000002 0.000000 -2.646049
29 18.551149 15.394988 10.634683 -0.000002 0.000000 -2.646049
30 18.551138 15.395017 -10.216357 -0.000002 0.000000 -2.646049
31 -10.780904 -1.791054 21.507067 -1.398866 -0.770317 -2.456836
32 67.635139 -0.000000 0.000003 0.211943 -0.520567 -0.520716
33 65.342239 0.000004 0.000008 0.000000 0.000000 0.200021
34 3.535508 0.000006 -0.000001 -1.570000 0.349066 -0.000000
35 1.080028 0.049219 -0.517042 0.211810 0.626841 0.430949
36 45.434582 0.000007 0.000008 0.000000 -0.000000 -0.087266
37 59.196026 0.000018 -0.000007 0.000000 0.000000 0.000000
38 1.079219 -0.000003 -0.000001 0.121622 0.280043 1.100403
39 112.200371 -0.000028 0.000010 -0.000000 -0.000000 -0.349066
40 2.065481 0.000003 0.000004 0.000000 0.000000 0.000000
41 1.078220 -0.061242 0.098180 0.000069 0.000793 1.658063
42 112.891373 -0.000029 -0.000010 -0.000000 -0.000000 -0.349066
43 1.721236 0.000008 0.000002 0.000000 0.000000 0.000000
44 -0.726299 -2.959897 -3.646901 -1.990913 0.657745 -0.127091
45 0.272717 38.404099 1.817648 -0.000000 0.000000 0.000000
46 -10.780905 -1.790937 -21.507078 1.398860 0.770321 -2.456840
47 67.635147 0.000001 -0.000003 -0.211943 0.520567 -0.520716
48 65.342232 -0.000004 -0.000009 -0.000000 -0.000000 0.200021
49 3.535516 0.000003 0.000003 1.570000 -0.349066 -0.000000
50 1.080032 0.049219 0.517044 -0.211810 -0.626841 0.430949
51 45.434586 0.000005 -0.000004 -0.000000 0.000000 -0.087266
52 59.196022 0.000011 -0.000022 0.000000 0.000000 3.141593
53 1.079236 0.000001 0.000010 -0.121622 -0.280043 1.100403
54 112.200363 -0.000029 -0.000019 0.000000 0.000000 -0.349066
55 2.065480 -0.000002 0.000001 0.000000 0.000000 3.141593
56 1.078224 -0.061241 -0.098178 -0.000069 -0.000793 1.658063
57 112.891365 -0.000025 0.000005 0.000000 0.000000 -0.349066
58 1.721234 0.000001 -0.000005 0.000000 0.000000 3.141593
59 -0.114823 -2.044659 3.888003 1.150680 0.657748 3.014501
60 0.845745 38.795280 0.842523 -0.000000 -0.000000 -0.000000
61 44.146183 23.470118 28.730305 -0.000002 -0.000002 2.763674
62 44.146099 23.470259 -28.756023 -0.000002 -0.000002 2.763674
63 11.035361 -33.182281 -0.056954 -0.000002 -0.000002 2.763674
64 -47.791420 -11.575480 -0.000034 -0.000005 0.000002 -2.313695
65 38.906845 -0.030610 -0.000000 -0.000000 -0.000000 0.042500
66 38.476585 -0.031524 -0.000000 -0.000000 -0.000000 0.129766
67 39.928047 -0.028106 -0.000000 -0.000000 -0.000000 0.129766
68 35.589783 -0.041872 -0.000000 -0.000000 -0.000000 0.042500
69 52.623207 -0.000011 -0.000000 -3.141593 -0.000003 1.570000
70 77.492271 14.003128 -0.056411 0.000003 0.000001 -0.764951
71 88.799866 -0.000001 32.090240 1.570796 0.000000 0.000000
72 88.799866 -0.000001 32.090240 1.570796 0.000000 0.000000
time 5
0 88.799866 -0.000001 32.090240 1.570796 0.000000 0.000000
1 0.056815 32.744511 74.286346 0.000000 1.047198 -1.570795
2 53.167725 -0.000002 -30.696402 -1.047198 -0.000001 1.570796
3 0.578570 -0.000000 1.002114 -1.570795 -1.570796 0.000000
4 19.667526 -0.015387 0.000027 -0.000004 -0.000001 0.000796
5 -19.667505 0.030962 34.045998 -0.000003 -3.141592 -0.183218
6 48.144665 -0.000007 0.000000 -0.000000 0.000000 -0.002964
7 8.787699 -0.000003 -0.000000 -0.000000 -0.000000 2.096965
8 37.448338 0.000004 0.000001 0.000001 -0.000001 -1.995534
9 10.603356 10.781816 0.000003 -0.000000 -0.000000 1.421823
10 1.115362 0.000003 -0.000001 0.000000 -0.000000 -0.148973
11 1.115360 -0.000002 -0.000004 0.000000 0.000000 -0.148973
12 1.115359 -0.000000 0.000001 0.000000 0.000000 3.141593
13 -19.667505 0.031148 -34.045998 -0.000002 3.141593 -0.183218
14 48.144665 -0.000008 -0.000003 -0.000000 -0.000000 -0.002964
15 8.787698 -0.000004 0.000001 -0.000000 -0.000000 2.096965
16 37.448341 0.000004 0.000003 -0.000000 0.000001 -1.995534
17 10.603356 10.781817 0.000003 0.000000 0.000000 1.421823
18 1.115361 0.000003 0.000001 0.000000 -0.000000 -0.148973
19 1.115359 -0.000001 -0.000002 0.000000 0.000000 -0.148973
20 1.115360 -0.000002 0.000002 0.000000 0.000000 0.000000
21 19.338173 -0.014465 -0.000000 -0.000000 -0.000001 0.349066
22 19.348825 -0.020528 -0.000000 -0.000001 -0.000002 0.659955
23 32.624516 -0.025677 0.000000 -0.000000 -0.000001 0.475877
24 36.268288 0.000006 0.000000 -0.000001 0.000002 -0.613031
25 19.745590 0.000001 0.000000 0.000000 0.000000 0.000000
26 33.906574 77.904572 -0.056892 -0.000002 0.000000 -2.646049
27 46.314247 -1.493389 -0.057019 -0.000002 0.000000 -2.646049
28 47.929733 -50.247265 -0.057093 -0.000002 0.000000 -2.646049
29 18.551147 15.394990 10.634682 -0.000002 0.000000 -2.646049
30 18.551138 15.395020 -10.216358 -0.000002 0.000000 -2.646049
31 -10.813621 -1.584924 21.507067 -1.214321 -1.102943 -2.626810
32 67.635139 -0.000002 0.000001 -0.015017 -0.557504 0.163147
33 65.342247 0.000007 0.000004 -0.000000 -0.000000 0.200021
34 3.535515 -0.000000 0.000003 -1.570000 -0.087266 0.000000
35 1.080041 0.049218 -0.517037 0.171155 0.026360 0.310030
36 45.434566 -0.000031 0.000017 0.000000 0.000000 -0.087266
37 59.196011 -0.000043 0.000006 0.000000 0.000000 0.000000
38 1.079224 -0.000002 0.000005 0.120323 -0.239900 1.037913
39 112.200317 0.000040 0.000022 -0.000000 0.000000 -0.349066
40 2.065463 0.000004 -0.000000 0.000000 0.000000 0.000000
41 1.078216 -0.061238 0.098174 0.000282 -0.261051 1.919789
42 112.891411 0.000059 -0.000018 -0.000000 -0.000000 -0.349066
43 1.721231 0.000005 -0.000000 0.000000 0.000000 0.000000
44 -0.726299 -2.959898 -3.646902 -1.467314 0.657745 -0.127091
45 0.272716 38.404102 1.817645 -0.000000 0.000000 0.000000
46 -10.813622 -1.584806 -21.507078 1.214311 1.102945 -2.626819
47 67.635139 0.000006 -0.000003 0.015017 0.557504 0.163147
48 65.342247 0.000006 -0.000004 0.000000 0.000000 0.200022
49 3.535504 -0.000003 -0.000001 1.570000 0.087266 0.000000
50 1.080033 0.049218 0.517038 -0.171155 -0.026360 0.310030
51 45.434574 -0.000019 -0.000010 -0.000000 -0.000000 -0.087266
52 59.196014 -0.000027 -0.000018 0.000000 0.000000 3.141593
53 1.079215 0.000003 -0.000005 -0.120323 0.239900 1.037913
54 112.200325 0.000019 -0.000014 0.000000 -0.000000 -0.349066
55 2.065469 0.000005 -0.000001 0.000000 0.000000 3.141593
56 1.078210 -0.061243 -0.098172 -0.000282 0.261051 1.919789
57 112.891403 0.000042 0.000011 0.000000 -0.000000 -0.349066
58 1.721234 0.000002 0.000006 0.000000 0.000000 3.141593
59 -0.114820 -2.044653 3.888006 -1.467314 2.483845 -0.127091
60 0.845749 38.795277 0.842511 -0.000000 0.000000 -0.000000
61 44.146179 23.470114 28.730305 -0.000002 -0.000002 2.763674
62 44.146099 23.470257 -28.756023 -0.000002 -0.000002 2.763674
63 11.035361 -33.182293 -0.056954 -0.000002 -0.000002 2.763674
64 -47.785210 -11.570295 -0.000034 -0.000005 0.000001 -2.575494
65 38.912140 -0.029924 0.000000 -0.000000 -0.000001 0.217033
66 38.476601 -0.031531 -0.000000 -0.000000 -0.000000 0.129766
67 39.930489 -0.027683 -0.000000 -0.000000 -0.000001 0.217033
68 35.597027 -0.040914 -0.000000 -0.000000 -0.000001 0.217033
69 52.623219 0.000006 -0.000000 -3.141593 -0.000003 1.570000
70 77.492279 14.003124 -0.056412 0.000003 0.000001 -0.764951
71 88.799866 -0.000001 32.090240 1.570796 0.000000 0.000000
72 88.799866 -0.000001 32.090240 1.570796 0.000000 0.000000
time 6
0 88.799866 -0.000001 32.090240 1.570796 0.000000 0.000000
1 0.056815 32.744511 75.414536 0.000000 1.047198 -1.570795
2 52.995571 -0.000002 -30.597006 -1.047198 -0.000001 1.570796
3 0.578573 -0.000000 1.002115 -1.570795 -1.570796 0.000000
4 19.667526 -0.015392 0.000027 -0.000004 -0.000001 0.000796
5 -19.667505 0.030958 34.045998 -0.000003 -3.141592 -0.116424
6 48.144665 -0.000003 -0.000003 -0.000000 0.000000 -0.002755
7 8.787693 0.000002 0.000002 -0.000000 -0.000000 2.141912
8 37.448338 -0.000001 -0.000003 0.000000 -0.000001 -1.927535
9 10.603357 10.781816 -0.000000 -0.000000 -0.000000 1.483530
10 1.115361 0.000000 -0.000004 -0.000000 0.000000 -0.087266
11 1.115360 -0.000003 0.000001 -0.000000 -0.000000 -0.087266
12 1.115362 0.000002 0.000002 0.000000 0.000000 -3.141593
13 -19.667505 0.031144 -34.045998 -0.000002 3.141593 -0.116424
14 48.144665 -0.000005 0.000001 -0.000000 -0.000000 -0.002755
15 8.787694 0.000001 -0.000002 0.000000 -0.000000 2.141912
16 37.448338 -0.000001 -0.000001 -0.000000 0.000000 -1.927535
17 10.603357 10.781814 -0.000000 0.000000 0.000000 1.483530
18 1.115360 -0.000000 -0.000002 -0.000000 -0.000000 -0.087266
19 1.115357 -0.000002 0.000003 0.000000 0.000000 -0.087266
20 1.115360 0.000001 0.000000 0.000000 0.000000 0.000000
21 19.338173 -0.014469 -0.000000 -0.000000 -0.000001 0.349066
22 19.349756 -0.019767 -0.000000 -0.000001 -0.000002 0.706315
23 32.625111 -0.025370 0.000000 -0.000000 -0.000001 0.499057
24 36.268284 -0.000001 0.000000 -0.000001 0.000002 -0.682571
25 19.745592 -0.000001 0.000000 0.000000 0.000000 0.000000
26 33.906574 77.904572 -0.056892 -0.000002 0.000000 -2.646049
27 46.314247 -1.493391 -0.057019 -0.000002 0.000000 -2.646049
28 47.929741 -50.247272 -0.057093 -0.000002 0.000000 -2.646049
29 18.551149 15.394988 10.634683 -0.000002 0.000000 -2.646049
30 18.551140 15.395018 -10.216357 -0.000002 0.000000 -2.646049
31 -10.876651 -1.082052 21.507069 -0.000012 -1.396265 2.434493
32 67.635132 0.000004 -0.000001 0.109658 -0.525842 0.230306
33 65.342232 -0.000004 0.000003 0.000000 -0.000000 0.200022
34 3.535499 0.000011 0.000004 -1.570000 0.087266 0.000000
35 1.080019 0.049215 -0.517036 0.171155 0.026360 0.310030
36 45.434566 -0.000010 0.000001 0.000000 -0.000000 -0.087266
37 59.196007 -0.000012 0.000012 0.000000 0.000000 0.000000
38 1.079203 -0.000001 0.000002 0.123413 -0.326520 1.026867
39 112.200348 0.000035 0.000004 -0.000000 0.000000 -0.349066
40 2.065500 0.000001 -0.000004 0.000000 0.000000 0.000000
41 1.078208 -0.061245 0.098182 0.000300 -0.435584 1.919735
42 112.891396 0.000006 -0.000016 0.000000 -0.000000 -0.349066
43 1.721224 0.000005 -0.000004 0.000000 0.000000 0.000000
44 -0.726303 -2.959899 -3.646901 -1.118248 0.657745 -0.127091
45 0.272707 38.404095 1.817649 -0.000000 0.000000 0.000000
46 -10.876652 -1.081934 -21.507076 -0.000012 1.396262 2.434469
47 67.635132 -0.000003 -0.000001 -0.109658 0.525842 0.230306
48 65.342232 0.000009 -0.000005 -0.000000 0.000000 0.200022
49 3.535514 -0.000006 0.000002 1.570000 -0.087266 0.000000
50 1.080034 0.049214 0.517037 -0.171155 -0.026360 0.310030
51 45.434570 -0.000008 -0.000002 -0.000000 0.000000 -0.087266
52 59.196007 -0.000013 -0.000005 0.000000 0.000000 3.141593
53 1.079228 -0.000003 0.000012 -0.123413 0.326520 1.026867
54 112.200348 0.000034 -0.000005 -0.000000 -0.000000 -0.349066
55 2.065470 -0.000001 0.000002 0.000000 0.000000 3.141593
56 1.078223 -0.061247 -0.098181 -0.000300 0.435584 1.919735
57 112.891396 0.000007 0.000018 0.000000 0.000000 -0.349066
58 1.721228 0.000000 0.000003 0.000000 0.000000 3.141593
59 -0.114826 -2.044652 3.888004 -1.118248 2.483845 -0.127091
60 0.845745 38.795280 0.842519 -0.000000 0.000000 -0.000000
61 44.146179 23.470116 28.730305 -0.000002 -0.000002 2.763674
62 44.146099 23.470257 -28.756023 -0.000002 -0.000002 2.763674
63 11.035362 -33.182293 -0.056954 -0.000002 -0.000002 2.763674
64 -47.780422 -11.567804 -0.000034 -0.000005 0.000001 -2.750027
65 38.909500 -0.030370 0.000000 -0.000000 -0.000000 0.129766
66 38.479332 -0.031046 0.000000 -0.000000 -0.000001 0.217033
67 39.928055 -0.028105 -0.000000 -0.000000 -0.000000 0.129766
68 35.593410 -0.041555 -0.000000 -0.000000 -0.000000 0.129766
69 52.623226 -0.000005 -0.000000 -3.141593 -0.000003 1.570000
70 77.492287 14.003124 -0.056411 0.000003 0.000001 -0.764951
71 88.799866 -0.000001 32.090240 1.570796 0.000000 0.000000
72 88.799866 -0.000001 32.090240 1.570796 0.000000 0.000000
time 7
0 88.799866 -0.000001 32.090240 1.570796 0.000000 0.000000
1 0.056815 32.744511 76.808174 0.000000 1.047198 -1.570795
2 51.308926 -0.000002 -29.623220 -1.047198 -0.000001 1.570796
3 0.578571 -0.000000 1.002115 -1.570795 -1.570796 0.000000
4 19.667530 -0.015393 0.000027 -0.000004 -0.000001 0.000796
5 -19.667509 0.030967 34.045998 -0.000003 -3.141592 -0.033913
6 48.144657 -0.000006 0.000000 0.000000 0.000000 -0.002497
7 8.787695 0.000005 -0.000001 -0.000000 0.000000 2.197436
8 37.448334 0.000004 0.000001 0.000000 -0.000000 -1.843537
9 10.603358 10.781817 0.000000 -0.000000 -0.000000 1.545236
10 1.115360 0.000000 -0.000003 -0.000000 0.000000 -0.025560
11 1.115359 0.000000 0.000002 0.000000 0.000000 -0.025560
12 1.115359 -0.000001 -0.000000 0.000000 0.000000 3.141593
13 -19.667509 0.031152 -34.045998 -0.000003 3.141593 -0.033913
14 48.144657 -0.000007 0.000001 -0.000000 0.000000 -0.002497
15 8.787694 0.000004 0.000000 0.000000 -0.000000 2.197436
16 37.448334 0.000005 -0.000001 -0.000000 0.000000 -1.843537
17 10.603357 10.781815 0.000000 0.000000 0.000000 1.545237
18 1.115359 0.000000 -0.000002 -0.000000 -0.000000 -0.025560
19 1.115359 -0.000000 -0.000000 0.000000 -0.000000 -0.025560
20 1.115362 0.000002 0.000001 0.000000 0.000000 0.000000
21 19.338173 -0.014467 -0.000000 -0.000000 -0.000001 0.349066
22 19.350861 -0.018768 -0.000000 -0.000001 -0.000002 0.763584
23 32.625824 -0.024960 0.000000 -0.000000 -0.000001 0.527692
24 36.268295 0.000002 0.000000 -0.000001 0.000002 -0.768474
25 19.745588 0.000004 0.000000 0.000000 0.000000 0.000000
26 33.906574 77.904572 -0.056892 -0.000002 0.000000 -2.646049
27 46.314243 -1.493386 -0.057019 -0.000002 0.000000 -2.646049
28 47.929733 -50.247265 -0.057093 -0.000002 0.000000 -2.646049
29 18.551147 15.394993 10.634682 -0.000002 0.000000 -2.646049
30 18.551136 15.395023 -10.216358 -0.000002 0.000000 -2.646049
31 -10.922238 -0.457683 21.507071 0.946125 -1.277966 1.451862
32 67.635147 0.000007 0.000001 0.209643 -0.474289 0.182207
33 65.342232 0.000001 0.000006 0.000000 -0.000000 0.040033
34 3.535522 -0.000002 -0.000001 -1.570000 0.021817 0.000000
35 1.080020 0.049216 -0.517039 0.116494 -0.231407 0.430968
36 45.434574 -0.000002 -0.000004 0.000000 0.000000 0.072722
37 59.195999 0.000006 0.000006 0.000000 0.000000 0.000000
38 1.079207 -0.000007 -0.000000 0.067585 -0.349115 1.194950
39 112.200340 0.000033 -0.000007 -0.000000 -0.000000 -0.189077
40 2.065490 -0.000006 -0.000003 0.000000 0.000000 0.000000
41 1.078205 -0.061242 0.098178 -0.020466 -0.250267 2.084839
42 112.891396 0.000007 -0.000005 -0.000000 0.000000 -0.189077
43 1.721236 -0.000002 -0.000001 0.000000 0.000000 0.000000
44 -0.726299 -2.959899 -3.646903 -1.329142 0.657745 -0.127091
45 0.272717 38.404095 1.817647 -0.000000 0.000000 0.000000
46 -10.922239 -0.457565 -21.507074 -0.946123 1.277961 1.451864
47 67.635139 -0.000003 -0.000002 -0.209643 0.474289 0.182207
48 65.342232 0.000007 -0.000008 -0.000000 0.000000 0.040033
49 3.535523 -0.000008 0.000002 1.570000 -0.021817 0.000000
50 1.080024 0.049215 0.517043 -0.116494 0.231407 0.430968
51 45.434555 0.000005 -0.000012 0.000000 -0.000000 0.072722
52 59.196011 0.000004 -0.000003 0.000000 0.000000 3.141593
53 1.079211 -0.000007 0.000004 -0.067585 0.349115 1.194950
54 112.200348 0.000040 -0.000002 -0.000000 0.000000 -0.189077
55 2.065485 0.000001 0.000004 0.000000 0.000000 3.141593
56 1.078210 -0.061241 -0.098174 0.020466 0.250267 2.084839
57 112.891396 -0.000016 0.000006 0.000000 -0.000000 -0.189077
58 1.721234 0.000004 0.000001 0.000000 0.000000 3.141593
59 -0.114825 -2.044649 3.888004 -1.329142 2.483845 -0.127091
60 0.845750 38.795280 0.842515 -0.000000 0.000000 0.000000
61 44.146179 23.470114 28.730305 -0.000002 -0.000002 2.763674
62 44.146099 23.470257 -28.756023 -0.000002 -0.000002 2.763674
63 11.035362 -33.182293 -0.056954 -0.000002 -0.000002 2.763674
64 -47.773834 -11.565908 -0.000034 -0.000006 0.000000 -2.971829
65 38.904400 -0.030609 0.000000 -0.000000 0.000000 -0.037494
66 38.470692 -0.031740 0.000000 -0.000000 0.000000 -0.055675
67 39.930084 -0.027755 0.000000 -0.000000 -0.000001 0.202488
68 35.599678 -0.040245 0.000000 -0.000000 -0.000001 0.282483
69 52.623219 -0.000003 0.000000 -3.141593 -0.000003 1.570000
70 77.492271 14.003128 -0.056411 0.000003 0.000001 -0.764951
71 88.799866 -0.000001 32.090240 1.570796 0.000000 0.000000
72 88.799866 -0.000001 32.090240 1.570796 0.000000 0.000000
time 8
0 88.799866 -0.000001 32.090240 1.570796 0.000000 0.000000
1 0.056815 32.744511 78.069092 0.000000 1.047198 -1.570795
2 48.639462 -0.000002 -28.082005 -1.047198 -0.000001 1.570796
3 0.578571 -0.000000 1.002115 -1.570795 -1.570796 0.000000
4 19.667526 -0.015393 0.000027 -0.000004 -0.000001 0.000796
5 -19.667505 0.030962 34.045998 -0.000003 3.141593 0.040740
6 48.144665 -0.000005 -0.000000 -0.000000 -0.000000 -0.002264
7 8.787694 0.000005 -0.000000 0.000000 -0.000000 2.247671
8 37.448334 0.000000 -0.000000 0.000000 -0.000000 -1.767538
9 10.603357 10.781816 0.000002 -0.000000 -0.000000 1.570796
10 1.115360 -0.000002 -0.000001 0.000000 0.000000 0.000000
11 1.115360 0.000001 0.000000 0.000000 0.000000 0.000000
12 1.115361 0.000001 0.000002 0.000000 0.000000 3.141593
13 -19.667505 0.031147 -34.045998 -0.000003 3.141593 0.040740
14 48.144665 -0.000007 -0.000000 -0.000000 -0.000000 -0.002264
15 8.787693 0.000003 -0.000000 0.000000 -0.000000 2.247671
16 37.448334 0.000000 -0.000000 0.000000 -0.000000 -1.767538
17 10.603357 10.781818 0.000002 0.000000 -0.000000 1.570796
18 1.115360 -0.000001 -0.000004 0.000000 0.000000 0.000000
19 1.115358 -0.000001 0.000001 0.000000 0.000000 0.000000
20 1.115362 0.000001 0.000002 0.000000 0.000000 0.000000
21 19.338173 -0.014465 -0.000000 -0.000000 -0.000001 0.349066
22 19.351809 -0.017819 -0.000000 -0.000001 -0.000002 0.815398
23 32.626480 -0.024571 0.000000 -0.000000 -0.000001 0.553599
24 36.268291 0.000001 0.000000 -0.000001 0.000002 -0.846196
25 19.745594 -0.000002 0.000000 0.000000 0.000000 0.000000
26 33.906578 77.904572 -0.056892 -0.000002 0.000000 -2.646049
27 46.314243 -1.493389 -0.057019 -0.000002 0.000000 -2.646049
28 47.929737 -50.247265 -0.057093 -0.000002 0.000000 -2.646049
29 18.551144 15.394990 10.634682 -0.000002 0.000000 -2.646049
30 18.551134 15.395020 -10.216358 -0.000002 0.000000 -2.646049
31 -10.932621 0.108644 21.507072 1.214319 -1.102947 1.149867
32 67.635139 0.000008 0.000002 0.288269 -0.405899 0.122643
33 65.342232 -0.000002 0.000004 0.000000 -0.000000 -0.149045
34 3.535509 -0.000000 0.000002 -1.570000 -0.087267 0.000000
35 1.080034 0.049219 -0.517041 -0.000753 -0.523142 0.611242
36 45.434566 -0.000003 0.000013 -0.000000 -0.000000 0.261799
37 59.196007 0.000008 0.000004 0.000000 0.000000 0.000000
38 1.079216 0.000002 0.000001 -0.000147 -0.348282 1.396314
39 112.200356 0.000026 -0.000008 0.000000 0.000000 0.000000
40 2.065485 0.000008 0.000000 0.000000 0.000000 0.000000
41 1.078207 -0.061239 0.098181 0.000512 0.000610 2.268928
42 112.891396 0.000008 -0.000013 0.000000 0.000000 0.000000
43 1.721239 -0.000002 0.000006 0.000000 0.000000 0.000000
44 -0.726299 -2.959895 -3.646903 -1.641847 0.657745 -0.127091
45 0.272719 38.404095 1.817645 -0.000000 0.000000 0.000000
46 -10.932623 0.108762 -21.507072 -1.214314 1.102942 1.149871
47 67.635139 0.000006 -0.000003 -0.288270 0.405899 0.122643
48 65.342247 -0.000001 -0.000001 -0.000000 0.000000 -0.149045
49 3.535500 0.000002 -0.000003 1.570000 0.087266 0.000000
50 1.080033 0.049219 0.517038 0.000753 0.523142 0.611242
51 45.434566 -0.000007 -0.000002 0.000000 0.000000 0.261799
52 59.196011 0.000005 -0.000001 0.000000 0.000000 3.141593
53 1.079233 0.000003 -0.000004 0.000147 0.348282 1.396314
54 112.200333 0.000049 0.000009 0.000000 0.000000 0.000000
55 2.065490 0.000000 -0.000001 0.000000 0.000000 3.141593
56 1.078210 -0.061242 -0.098178 -0.000512 -0.000610 2.268928
57 112.891396 0.000005 0.000012 0.000000 0.000000 0.000000
58 1.721238 -0.000000 -0.000005 0.000000 0.000000 3.141593
59 -0.114826 -2.044653 3.888004 1.499746 0.657748 3.014501
60 0.845743 38.795280 0.842516 -0.000000 0.000000 0.000000
61 44.146179 23.470116 28.730305 -0.000002 -0.000002 2.763674
62 44.146099 23.470257 -28.756023 -0.000002 -0.000002 2.763674
63 11.035362 -33.182293 -0.056954 -0.000002 -0.000002 2.763674
64 -47.772610 -11.565728 -0.000034 -0.000006 0.000000 -3.011827
65 38.898880 -0.029899 0.000000 -0.000000 0.000001 -0.219299
66 38.460278 -0.029363 0.000000 -0.000000 0.000001 -0.393832
67 39.932880 -0.027023 0.000001 -0.000000 -0.000001 0.304299
68 35.607304 -0.037197 0.000000 -0.000000 -0.000001 0.478832
69 52.623203 0.000000 0.000000 -3.141593 -0.000003 1.570000
70 77.492271 14.003131 -0.056410 0.000003 0.000001 -0.764951
71 88.799866 -0.000001 32.090240 1.570796 0.000000 0.000000
72 88.799866 -0.000001 32.090240 1.570796 0.000000 0.000000
end
