version 1
nodes
0 "Box01" -1
1 "Bip01" -1
2 "Bip01 Footsteps" 1
3 "Bip01 Pelvis" 1
4 "Bip01 Spine" 3
5 "Bip01 L Thigh" 4
6 "Bip01 L Calf" 5
7 "Bip01 L HorseLink" 6
8 "Bip01 L Foot" 7
9 "Bip01 L Toe0" 8
10 "Bip01 L Toe01" 9
11 "Bip01 L Toe02" 10
12 "Bip01 L Toe0Nub" 11
13 "Bip01 R Thigh" 4
14 "Bip01 R Calf" 13
15 "Bip01 R HorseLink" 14
16 "Bip01 R Foot" 15
17 "Bip01 R Toe0" 16
18 "Bip01 R Toe01" 17
19 "Bip01 R Toe02" 18
20 "Bip01 R Toe0Nub" 19
21 "Bip01 Spine1" 4
22 "Bip01 Neck" 21
23 "Bip01 Neck1" 22
24 "Bip01 Head" 23
25 "Bip01 HeadNub" 24
26 "Bone02" 24
27 "Bone03" 24
28 "Bone04" 24
29 "Bone05" 24
30 "Bone06" 24
31 "Bip01 L Clavicle" 22
32 "Bip01 L UpperArm" 31
33 "Bip01 L Forearm" 32
34 "Bip01 L Hand" 33
35 "Bip01 L Finger0" 34
36 "Bip01 L Finger01" 35
37 "Bip01 L Finger0Nub" 36
38 "Bip01 L Finger1" 34
39 "Bip01 L Finger11" 38
40 "Bip01 L Finger1Nub" 39
41 "Bip01 L Finger2" 34
42 "Bip01 L Finger21" 41
43 "Bip01 L Finger2Nub" 42
44 "Box02" 32
45 "Box04" 44
46 "Bip01 R Clavicle" 22
47 "Bip01 R UpperArm" 46
48 "Bip01 R Forearm" 47
49 "Bip01 R Hand" 48
50 "Bip01 R Finger0" 49
51 "Bip01 R Finger01" 50
52 "Bip01 R Finger0Nub" 51
53 "Bip01 R Finger1" 49
54 "Bip01 R Finger11" 53
55 "Bip01 R Finger1Nub" 54
56 "Bip01 R Finger2" 49
57 "Bip01 R Finger21" 56
58 "Bip01 R Finger2Nub" 57
59 "Box03" 47
60 "Box05" 59
61 "Bone09" 21
62 "Bone08" 21
63 "Bone07" 21
64 "Bip01 Tail" 4
65 "Bip01 Tail1" 64
66 "Bip01 Tail2" 65
67 "Bip01 Tail3" 66
68 "Bip01 Tail4" 67
69 "Bip01 TailNub" 68
70 "Bone10" 68
71 "Object01" -1
72 "Object02" -1
end
skeleton
time 0
0 88.799866 -0.000001 32.090240 1.570796 0.000000 0.000000
1 0.056815 31.013531 77.908813 0.000000 1.047198 -1.570795
2 72.424049 -0.000002 -41.814041 -1.047198 -0.000001 1.570796
3 0.578571 -0.000000 1.002115 -1.570795 -1.570796 0.000000
4 19.667526 -0.015386 0.000027 -0.000004 -0.000001 0.000796
5 -19.667505 0.030960 34.045998 -0.000004 3.141593 0.223661
6 48.144657 -0.000005 -0.000001 -0.000000 -0.000000 -0.002013
7 8.787697 -0.000004 -0.000001 0.000000 0.000000 0.591400
8 37.448334 0.000005 0.000001 0.000001 0.000000 -1.324860
9 10.603359 10.781814 -0.000002 -0.000000 -0.000000 1.396263
10 1.115356 0.000005 0.000004 -0.000000 -0.000000 -0.174533
11 1.115362 -0.000001 -0.000001 0.000000 0.000000 -0.174533
12 1.115359 -0.000001 -0.000003 0.000000 0.000000 3.141593
13 -19.667505 0.031146 -34.045998 -0.000002 3.141592 0.223661
14 48.144657 0.000001 -0.000003 0.000000 -0.000000 -0.002013
15 8.787699 -0.000005 0.000003 -0.000000 0.000000 0.591400
16 37.448334 0.000004 0.000000 -0.000001 -0.000000 -1.324860
17 10.603354 10.781813 -0.000002 0.000000 0.000000 1.396263
18 1.115355 -0.000000 0.000003 -0.000000 -0.000000 -0.174533
19 1.115365 0.000002 -0.000002 0.000000 0.000000 -0.174533
20 1.115362 0.000001 0.000000 0.000000 0.000000 0.000000
21 19.338173 -0.014467 -0.000000 -0.000000 -0.000001 0.349066
22 19.340376 -0.024872 -0.000000 -0.000000 -0.000001 0.291799
23 32.612144 -0.028873 -0.000000 -0.000000 -0.000000 0.030000
24 36.268291 0.000002 -0.000000 -0.000002 0.000003 -1.195262
25 19.745594 -0.000000 -0.000000 0.000000 0.000000 0.000000
26 33.906593 77.904579 -0.056893 -0.000002 0.000000 -2.646049
27 46.314255 -1.493383 -0.057020 -0.000002 0.000000 -2.646049
28 47.929729 -50.247257 -0.057093 -0.000002 0.000000 -2.646049
29 18.551151 15.394990 10.634682 -0.000002 0.000000 -2.646049
30 18.551140 15.395027 -10.216358 -0.000002 0.000000 -2.646049
31 -9.509299 -5.368762 21.507057 1.214315 -1.102947 1.673468
32 67.635139 0.000007 0.000003 0.288269 -0.405899 0.122643
33 65.342232 -0.000002 0.000005 0.000000 -0.000000 -0.149045
34 3.535513 0.000001 0.000003 -1.570000 -0.087266 0.000000
35 1.080036 0.049219 -0.517044 -0.000753 -0.523142 0.611242
36 45.434570 -0.000003 0.000013 0.000000 -0.000000 0.261799
37 59.196011 0.000003 0.000004 0.000000 0.000000 0.000000
38 1.079220 0.000002 -0.000006 -0.000147 -0.348282 1.396314
39 112.200340 0.000039 -0.000007 0.000000 0.000000 0.000000
40 2.065480 0.000006 0.000001 0.000000 0.000000 0.000000
41 1.078209 -0.061239 0.098178 0.000512 0.000610 2.268928
42 112.891396 0.000002 -0.000012 0.000000 0.000000 0.000000
43 1.721235 0.000000 0.000008 0.000000 0.000000 0.000000
44 -0.726296 -2.959894 -3.646902 -1.641847 0.657745 -0.127091
45 0.272719 38.404099 1.817649 -0.000000 0.000000 0.000000
46 -9.509300 -5.368644 -21.507088 -1.214316 1.102941 1.673467
47 67.635139 0.000007 -0.000003 -0.288270 0.405899 0.122643
48 65.342247 0.000001 -0.000000 -0.000000 0.000000 -0.149045
49 3.535501 -0.000003 -0.000004 1.570000 0.087266 0.000000
50 1.080032 0.049220 0.517031 0.000753 0.523142 0.611242
51 45.434574 -0.000007 0.000005 0.000000 0.000000 0.261799
52 59.196014 0.000005 -0.000004 0.000000 0.000000 3.141593
53 1.079232 0.000004 -0.000010 0.000147 0.348282 1.396314
54 112.200340 0.000054 0.000007 0.000000 0.000000 0.000000
55 2.065492 -0.000002 -0.000003 0.000000 0.000000 3.141593
56 1.078210 -0.061241 -0.098185 -0.000512 -0.000610 2.268928
57 112.891396 0.000002 0.000017 0.000000 0.000000 0.000000
58 1.721233 0.000005 -0.000001 0.000000 0.000000 3.141593
59 -0.114827 -2.044651 3.888005 1.499746 0.657748 3.014501
60 0.845743 38.795284 0.842519 -0.000000 0.000000 0.000000
61 44.146183 23.470119 28.730305 -0.000002 -0.000002 2.763674
62 44.146099 23.470263 -28.756023 -0.000002 -0.000002 2.763674
63 11.035362 -33.182289 -0.056954 -0.000002 -0.000002 2.763674
64 -47.772610 -11.565729 -0.000034 -0.000006 0.000000 -3.011827
65 38.898880 -0.029893 0.000000 -0.000000 0.000001 -0.219299
66 38.460289 -0.029353 0.000000 -0.000000 0.000001 -0.393832
67 39.932865 -0.027047 0.000001 -0.000000 -0.000001 0.304299
68 35.607311 -0.037188 0.000000 -0.000000 -0.000001 0.478832
69 52.623207 -0.000001 0.000000 -3.141593 -0.000003 1.570000
70 77.492279 14.003130 -0.056410 0.000003 0.000001 -0.764951
71 88.799866 -0.000001 32.090240 1.570796 0.000000 0.000000
72 88.799866 -0.000001 32.090240 1.570796 0.000000 0.000000
time 1
0 88.799866 -0.000001 32.090240 1.570796 0.000000 0.000000
1 0.056815 31.013531 73.794533 0.000000 1.047198 -1.570795
2 45.306480 -0.000002 -26.157707 -1.047198 -0.000001 1.570796
3 0.578570 -0.000000 1.002115 -1.570795 -1.570796 0.000000
4 19.667530 -0.015393 0.000027 -0.000004 -0.000001 0.000796
5 -19.667509 0.030964 34.045998 -0.000004 -3.141593 0.181404
6 48.144669 -0.000005 -0.000001 0.000000 0.000000 0.023894
7 8.787696 -0.000001 0.000000 0.000000 -0.000000 0.678126
8 37.448330 0.000005 -0.000002 0.000001 0.000000 -1.479751
9 10.603357 10.781814 -0.000001 -0.000000 -0.000000 1.396263
10 1.115359 0.000003 0.000001 -0.000000 -0.000000 -0.174533
11 1.115364 -0.000004 0.000000 0.000000 0.000000 -0.174533
12 1.115357 -0.000003 -0.000001 0.000000 0.000000 3.141593
13 -19.667509 0.031150 -34.045998 -0.000002 3.141592 0.181404
14 48.144669 -0.000006 0.000000 -0.000000 -0.000000 0.023894
15 8.787696 0.000005 -0.000002 -0.000000 0.000000 0.678126
16 37.448330 0.000005 -0.000000 -0.000001 -0.000000 -1.479751
17 10.603359 10.781814 -0.000001 0.000000 0.000000 1.396263
18 1.115357 0.000005 0.000003 -0.000000 -0.000000 -0.174533
19 1.115362 -0.000002 -0.000002 0.000000 0.000000 -0.174533
20 1.115363 -0.000001 -0.000003 0.000000 0.000000 0.000000
21 19.338173 -0.014470 -0.000000 -0.000000 -0.000001 0.349066
22 19.338421 -0.025380 -0.000000 -0.000000 -0.000001 0.214078
23 32.612152 -0.028866 -0.000000 -0.000000 -0.000000 0.030000
24 36.268291 -0.000001 -0.000000 -0.000002 0.000002 -1.117540
25 19.745592 0.000000 -0.000000 0.000000 0.000000 0.000000
26 33.906590 77.904587 -0.056893 -0.000002 0.000000 -2.646049
27 46.314255 -1.493382 -0.057020 -0.000002 0.000000 -2.646049
28 47.929729 -50.247257 -0.057093 -0.000002 0.000000 -2.646049
29 18.551149 15.394990 10.634681 -0.000002 0.000000 -2.646049
30 18.551138 15.395028 -10.216359 -0.000002 0.000000 -2.646049
31 -9.061730 -6.090809 21.507055 1.570803 -1.483532 1.355916
32 67.635147 -0.000000 0.000001 0.344464 -0.176353 -0.402072
33 65.342232 -0.000006 0.000008 0.000000 0.000000 0.200022
34 3.535503 0.000000 -0.000002 -1.570000 0.261799 -0.000000
35 1.080028 0.049217 -0.517043 0.190776 0.455806 0.390281
36 45.434589 0.000008 0.000009 0.000000 -0.000000 -0.087266
37 59.196033 0.000017 -0.000008 0.000000 0.000000 0.000000
38 1.079217 0.000002 -0.000003 0.130054 0.453205 1.123838
39 112.200371 -0.000047 0.000008 0.000000 -0.000000 -0.349066
40 2.065477 0.000007 -0.000002 0.000000 0.000000 0.000000
41 1.078215 -0.061238 0.098174 0.000282 0.262548 1.919935
42 112.891365 -0.000029 -0.000018 0.000000 0.000000 -0.349066
43 1.721235 -0.000001 -0.000005 0.000000 0.000000 0.000000
44 -0.726295 -2.959900 -3.646903 -2.165445 0.657745 -0.127091
45 0.272712 38.404099 1.817644 -0.000000 0.000000 0.000000
46 -9.061731 -6.090692 -21.507090 -1.570789 1.483527 1.355929
47 67.635132 0.000006 -0.000003 -0.344464 0.176353 -0.402072
48 65.342239 -0.000003 -0.000005 -0.000000 -0.000000 0.200022
49 3.535511 0.000002 0.000001 1.570000 -0.261799 0.000000
50 1.080030 0.049215 0.517036 -0.190776 -0.455806 0.390281
51 45.434578 0.000015 0.000002 -0.000000 -0.000000 -0.087266
52 59.196026 0.000016 -0.000001 0.000000 0.000000 3.141593
53 1.079219 0.000005 -0.000004 -0.130054 -0.453205 1.123838
54 112.200363 -0.000024 -0.000001 -0.000000 0.000000 -0.349066
55 2.065477 0.000001 -0.000004 0.000000 0.000000 3.141593
56 1.078217 -0.061239 -0.098181 -0.000282 -0.262548 1.919935
57 112.891365 -0.000034 0.000018 0.000000 0.000000 -0.349066
58 1.721235 -0.000003 0.000005 0.000000 0.000000 3.141593
59 -0.114823 -2.044655 3.888005 0.976147 0.657748 3.014501
60 0.845740 38.795280 0.842514 -0.000000 -0.000000 -0.000000
61 44.146179 23.470118 28.730305 -0.000002 -0.000002 2.763674
62 44.146099 23.470261 -28.756023 -0.000002 -0.000002 2.763674
63 11.035360 -33.182281 -0.056954 -0.000002 -0.000002 2.763674
64 -47.780426 -11.567799 -0.000034 -0.000005 0.000001 -2.750027
65 38.901516 -0.030355 0.000000 -0.000000 0.000000 -0.132033
66 38.457752 -0.028186 0.000000 -0.000000 0.000001 -0.481099
67 39.925591 -0.028297 0.000000 -0.000000 -0.000000 0.042500
68 35.586109 -0.041861 0.000000 -0.000000 0.000000 -0.044767
69 52.623215 0.000009 0.000001 -3.141593 -0.000003 1.570000
70 77.492264 14.003136 -0.056410 0.000003 0.000001 -0.764951
71 88.799866 -0.000001 32.090240 1.570796 0.000000 0.000000
72 88.799866 -0.000001 32.090240 1.570796 0.000000 0.000000
time 2
0 88.799866 -0.000001 32.090240 1.570796 0.000000 0.000000
1 0.056815 31.013531 69.580009 0.000000 1.047198 -1.570795
2 50.235786 -0.000002 -29.003645 -1.047198 -0.000001 1.570796
3 0.578568 -0.000000 1.002115 -1.570795 -1.570796 0.000000
4 19.667530 -0.015396 0.000027 -0.000004 -0.000001 0.000796
5 -19.667509 0.030967 34.045998 -0.000004 -3.141593 0.134699
6 48.144657 -0.000003 0.000000 -0.000000 -0.000000 0.052528
7 8.787702 -0.000000 -0.000002 0.000000 -0.000000 0.773982
8 37.448338 -0.000004 -0.000000 0.000001 0.000000 -1.650946
9 10.603354 10.781815 -0.000002 -0.000000 -0.000000 1.396263
10 1.115358 0.000001 0.000004 -0.000000 -0.000000 -0.174533
11 1.115365 -0.000004 -0.000001 0.000000 0.000000 -0.174533
12 1.115361 0.000000 -0.000002 0.000000 0.000000 3.141593
13 -19.667509 0.031153 -34.045998 -0.000002 3.141592 0.134699
14 48.144657 -0.000004 -0.000001 0.000000 -0.000000 0.052528
15 8.787702 -0.000002 0.000001 0.000000 0.000000 0.773982
16 37.448338 -0.000003 -0.000002 -0.000001 -0.000000 -1.650946
17 10.603357 10.781814 -0.000002 0.000000 0.000000 1.396263
18 1.115358 0.000002 0.000002 -0.000000 -0.000000 -0.174533
19 1.115358 -0.000003 0.000001 0.000000 0.000000 -0.174533
20 1.115362 0.000001 -0.000001 0.000000 0.000000 0.000000
21 19.338173 -0.014467 -0.000000 -0.000000 -0.000001 0.349066
22 19.336220 -0.025759 -0.000000 -0.000000 -0.000000 0.128175
23 32.612152 -0.028860 -0.000000 -0.000000 -0.000000 0.030000
24 36.268291 -0.000002 -0.000000 -0.000001 0.000002 -1.031637
25 19.745588 0.000001 -0.000000 0.000000 0.000000 0.000000
26 33.906586 77.904587 -0.056893 -0.000002 0.000000 -2.646049
27 46.314251 -1.493382 -0.057020 -0.000002 0.000000 -2.646049
28 47.929726 -50.247257 -0.057093 -0.000002 0.000000 -2.646049
29 18.551146 15.394991 10.634682 -0.000002 0.000000 -2.646049
30 18.551134 15.395028 -10.216358 -0.000002 0.000000 -2.646049
31 -8.503516 -6.845726 21.507053 -2.015950 -1.182131 -1.223763
32 67.635139 0.000007 0.000003 0.182415 -0.128054 -0.479515
33 65.342232 -0.000000 0.000003 0.000000 0.000000 0.200021
34 3.535521 0.000000 -0.000002 -1.570000 0.261799 -0.000000
35 1.080020 0.049216 -0.517039 0.211810 0.626841 0.430949
36 45.434578 0.000002 0.000004 0.000000 -0.000000 -0.087266
37 59.196018 0.000012 0.000002 0.000000 0.000000 0.000000
38 1.079214 -0.000004 -0.000003 0.144391 0.626110 1.151633
39 112.200356 0.000015 0.000007 -0.000000 0.000000 -0.349066
40 2.065482 0.000003 -0.000003 0.000000 0.000000 0.000000
41 1.078208 -0.061239 0.098179 0.000301 0.437081 1.919989
42 112.891380 -0.000022 -0.000018 0.000000 -0.000000 -0.349066
43 1.721232 -0.000004 0.000003 0.000000 0.000000 0.000000
44 -0.726299 -2.959894 -3.646904 -2.339978 0.657745 -0.127091
45 0.272713 38.404102 1.817649 -0.000000 0.000000 0.000000
46 -8.503516 -6.845609 -21.507092 2.015955 1.182136 -1.223758
47 67.635132 0.000005 -0.000006 -0.182415 0.128054 -0.479516
48 65.342232 -0.000000 -0.000007 -0.000000 -0.000000 0.200021
49 3.535526 -0.000001 0.000002 1.570000 -0.261799 -0.000000
50 1.080032 0.049216 0.517040 -0.211810 -0.626841 0.430949
51 45.434559 0.000010 0.000011 0.000000 0.000000 -0.087266
52 59.196026 0.000010 -0.000010 0.000000 0.000000 3.141593
53 1.079227 -0.000004 0.000004 -0.144391 -0.626110 1.151633
54 112.200356 0.000016 -0.000014 -0.000000 -0.000000 -0.349066
55 2.065485 -0.000004 -0.000001 0.000000 0.000000 3.141593
56 1.078221 -0.061247 -0.098178 -0.000301 -0.437081 1.919989
57 112.891388 -0.000023 0.000009 -0.000000 -0.000000 -0.349066
58 1.721235 -0.000007 0.000000 0.000000 0.000000 3.141593
59 -0.114830 -2.044653 3.888004 0.801614 0.657748 3.014501
60 0.845750 38.795284 0.842518 0.000000 0.000000 -0.000000
61 44.146183 23.470118 28.730305 -0.000002 -0.000002 2.763674
62 44.146099 23.470259 -28.756023 -0.000002 -0.000002 2.763674
63 11.035362 -33.182281 -0.056954 -0.000002 -0.000002 2.763674
64 -47.787441 -11.571837 -0.000034 -0.000005 0.000002 -2.488228
65 38.904160 -0.030595 -0.000000 -0.000000 0.000000 -0.044766
66 38.462891 -0.030316 0.000000 -0.000000 0.000001 -0.306566
67 39.915836 -0.027010 0.000000 -0.000000 0.000001 -0.306566
68 35.568611 -0.037144 0.000000 -0.000000 0.000001 -0.481099
69 52.623203 0.000005 0.000001 -3.141593 -0.000003 1.570000
70 77.492264 14.003130 -0.056410 0.000003 0.000001 -0.764951
71 88.799866 -0.000001 32.090240 1.570796 0.000000 0.000000
72 88.799866 -0.000001 32.090240 1.570796 0.000000 0.000000
time 3
0 88.799866 -0.000001 32.090240 1.570796 0.000000 0.000000
1 0.056815 31.013531 65.565979 0.000000 1.047198 -1.570795
2 55.126698 -0.000002 -31.827414 -1.047198 -0.000001 1.570796
3 0.578570 -0.000000 1.002115 -1.570795 -1.570796 0.000000
4 19.667526 -0.015387 0.000027 -0.000004 -0.000001 0.000796
5 -19.667507 0.030957 34.045998 -0.000004 -3.141592 0.096890
6 48.144665 -0.000005 0.000000 -0.000000 -0.000000 0.075708
7 8.787700 -0.000000 -0.000000 0.000000 -0.000000 0.851579
8 37.448334 -0.000002 0.000001 0.000001 0.000000 -1.789532
9 10.603354 10.781813 -0.000000 -0.000000 -0.000000 1.396263
10 1.115355 0.000006 0.000002 -0.000000 -0.000000 -0.174533
11 1.115362 0.000002 -0.000003 0.000000 0.000000 -0.174533
12 1.115364 -0.000000 -0.000000 0.000000 0.000000 3.141593
13 -19.667505 0.031142 -34.045998 -0.000002 3.141592 0.096890
14 48.144665 -0.000006 -0.000001 -0.000000 0.000000 0.075708
15 8.787700 -0.000002 0.000000 -0.000000 0.000000 0.851579
16 37.448334 -0.000000 0.000000 -0.000001 -0.000000 -1.789532
17 10.603356 10.781814 -0.000000 0.000000 0.000000 1.396263
18 1.115358 0.000006 0.000003 -0.000000 -0.000000 -0.174533
19 1.115365 -0.000005 -0.000002 0.000000 0.000000 -0.174533
20 1.115359 0.000001 0.000000 0.000000 0.000000 0.000000
21 19.338171 -0.014470 -0.000000 -0.000000 -0.000001 0.349066
22 19.334427 -0.025922 -0.000000 -0.000000 -0.000000 0.058634
23 32.612148 -0.028874 -0.000000 -0.000000 -0.000000 0.030000
24 36.268291 0.000003 -0.000000 -0.000001 0.000002 -0.962097
25 19.745592 0.000001 -0.000000 0.000000 0.000000 0.000000
26 33.906586 77.904579 -0.056893 -0.000002 0.000000 -2.646049
27 46.314247 -1.493378 -0.057020 -0.000002 0.000000 -2.646049
28 47.929733 -50.247261 -0.057093 -0.000002 0.000000 -2.646049
29 18.551149 15.394991 10.634682 -0.000002 0.000000 -2.646049
30 18.551140 15.395028 -10.216358 -0.000002 0.000000 -2.646049
31 -8.005499 -7.419987 21.507051 -1.924851 -0.912832 -1.193200
32 67.635132 -0.000002 0.000004 0.054093 -0.374311 -0.389054
33 65.342239 0.000000 0.000010 -0.000000 0.000000 0.200021
34 3.535521 -0.000000 -0.000007 -1.570000 0.349066 0.000000
35 1.080042 0.049219 -0.517049 0.211810 0.626841 0.430949
36 45.434574 -0.000004 -0.000003 0.000000 -0.000000 -0.087266
37 59.196022 0.000004 -0.000003 0.000000 0.000000 0.000000
38 1.079232 0.000001 0.000000 0.136336 0.539700 1.137014
39 112.200348 0.000018 0.000001 0.000000 -0.000000 -0.349066
40 2.065482 0.000001 -0.000001 0.000000 0.000000 0.000000
41 1.078209 -0.061246 0.098181 -0.015158 0.174631 1.831292
42 112.891388 -0.000004 -0.000015 -0.000000 -0.000000 -0.349066
43 1.721238 -0.000006 0.000000 0.000000 0.000000 0.000000
44 -0.726297 -2.959888 -3.646902 -2.223623 0.657745 -0.127091
45 0.272711 38.404099 1.817646 -0.000000 0.000000 0.000000
46 -8.005499 -7.419869 -21.507093 1.924854 0.912837 -1.193197
47 67.635139 0.000001 -0.000006 -0.054092 0.374311 -0.389054
48 65.342239 0.000012 -0.000008 -0.000000 -0.000000 0.200021
49 3.535507 0.000003 -0.000004 1.570000 -0.349066 0.000000
50 1.080021 0.049215 0.517042 -0.211810 -0.626841 0.430949
51 45.434570 -0.000002 0.000001 -0.000000 0.000000 -0.087266
52 59.196026 0.000001 0.000002 0.000000 0.000000 3.141593
53 1.079223 0.000003 -0.000001 -0.136336 -0.539700 1.137014
54 112.200356 0.000008 0.000000 -0.000000 0.000000 -0.349066
55 2.065478 -0.000001 0.000002 0.000000 0.000000 3.141593
56 1.078213 -0.061236 -0.098176 0.015158 -0.174631 1.831292
57 112.891396 0.000017 0.000011 0.000000 0.000000 -0.349066
58 1.721235 -0.000004 -0.000002 0.000000 0.000000 3.141593
59 -0.114828 -2.044651 3.888004 0.917969 0.657748 3.014501
60 0.845748 38.795280 0.842523 0.000000 0.000000 0.000000
61 44.146183 23.470121 28.730305 -0.000002 -0.000002 2.763674
62 44.146099 23.470263 -28.756023 -0.000002 -0.000002 2.763674
63 11.035361 -33.182278 -0.056954 -0.000002 -0.000002 2.763674
64 -47.789505 -11.573582 -0.000034 -0.000005 0.000002 -2.400961
65 38.906841 -0.030613 -0.000000 -0.000000 -0.000000 0.042500
66 38.471062 -0.031762 -0.000000 -0.000000 0.000000 -0.044767
67 39.915840 -0.027015 -0.000000 -0.000000 0.000001 -0.306566
68 35.565426 -0.035301 0.000000 -0.000000 0.000001 -0.568365
69 52.623215 0.000008 0.000001 -3.141593 -0.000003 1.570000
70 77.492264 14.003131 -0.056410 0.000003 0.000001 -0.764951
71 88.799866 -0.000001 32.090240 1.570796 0.000000 0.000000
72 88.799866 -0.000001 32.090240 1.570796 0.000000 0.000000
time 4
0 88.799866 -0.000001 32.090240 1.570796 0.000000 0.000000
1 0.056815 31.013531 62.053181 0.000000 1.047198 -1.570795
2 58.692669 -0.000002 -33.886227 -1.047198 -0.000001 1.570796
3 0.578575 -0.000000 1.002115 -1.570795 -1.570796 0.000000
4 19.667528 -0.015394 0.000027 -0.000004 -0.000001 0.000796
5 -19.667509 0.030962 34.045998 -0.000004 -3.141592 0.081321
6 48.144657 -0.000000 0.000002 -0.000000 -0.000000 0.085253
7 8.787700 -0.000004 -0.000002 0.000000 -0.000000 0.883531
8 37.448334 -0.000003 -0.000001 0.000001 0.000000 -1.846598
9 10.603354 10.781816 -0.000000 -0.000000 -0.000000 1.396263
10 1.115359 0.000002 0.000003 -0.000000 -0.000000 -0.174533
11 1.115364 -0.000002 -0.000002 0.000000 0.000000 -0.174533
12 1.115361 -0.000001 0.000000 0.000000 0.000000 3.141593
13 -19.667509 0.031148 -34.045998 -0.000002 3.141592 0.081321
14 48.144657 -0.000002 0.000003 -0.000000 0.000000 0.085253
15 8.787699 -0.000005 -0.000004 0.000000 0.000000 0.883531
16 37.448334 -0.000000 -0.000000 -0.000001 -0.000000 -1.846598
17 10.603356 10.781814 -0.000000 0.000000 0.000000 1.396263
18 1.115358 0.000001 0.000003 -0.000000 -0.000000 -0.174533
19 1.115360 -0.000001 -0.000002 0.000000 0.000000 -0.174533
20 1.115364 -0.000001 0.000000 0.000000 0.000000 0.000000
21 19.338173 -0.014468 -0.000000 -0.000000 -0.000001 0.349066
22 19.333681 -0.025956 -0.000000 -0.000000 -0.000000 0.030000
23 32.612160 -0.028868 -0.000000 -0.000000 -0.000000 0.030000
24 36.268288 0.000007 -0.000000 -0.000001 0.000002 -0.933462
25 19.745592 0.000001 -0.000000 0.000000 0.000000 0.000000
26 33.906586 77.904579 -0.056893 -0.000002 0.000000 -2.646049
27 46.314243 -1.493378 -0.057020 -0.000002 0.000000 -2.646049
28 47.929733 -50.247261 -0.057093 -0.000002 0.000000 -2.646049
29 18.551147 15.394991 10.634682 -0.000002 0.000000 -2.646049
30 18.551138 15.395029 -10.216358 -0.000002 0.000000 -2.646049
31 -7.789032 -7.646130 21.507051 -1.900343 -0.726773 -1.126230
32 67.635132 -0.000005 0.000007 -0.043240 -0.403257 -0.432171
33 65.342239 -0.000006 0.000007 -0.000000 -0.000000 0.200022
34 3.535503 0.000006 0.000007 -1.570000 0.349066 0.000000
35 1.080030 0.049212 -0.517035 0.211810 0.626841 0.430949
36 45.434582 -0.000008 -0.000007 0.000000 -0.000000 -0.087266
37 59.196003 -0.000002 -0.000010 0.000000 0.000000 0.000000
38 1.079226 -0.000002 -0.000001 0.121622 0.280043 1.100403
39 112.200333 0.000072 0.000005 -0.000000 0.000000 -0.349066
40 2.065483 0.000003 -0.000010 0.000000 0.000000 0.000000
41 1.078209 -0.061242 0.098185 0.000069 0.000793 1.658063
42 112.891418 0.000027 -0.000009 -0.000000 -0.000000 -0.349066
43 1.721237 0.000007 -0.000001 0.000000 0.000000 0.000000
44 -0.726299 -2.959896 -3.646904 -1.990913 0.657745 -0.127091
45 0.272715 38.404095 1.817644 -0.000000 0.000000 0.000000
46 -7.789032 -7.646013 -21.507093 1.900346 0.726778 -1.126228
47 67.635139 0.000002 -0.000006 0.043240 0.403257 -0.432171
48 65.342239 -0.000005 -0.000015 0.000000 0.000000 0.200022
49 3.535506 -0.000000 0.000002 1.570000 -0.349066 0.000000
50 1.080024 0.049215 0.517047 -0.211810 -0.626841 0.430949
51 45.434578 -0.000005 0.000000 -0.000000 0.000000 -0.087266
52 59.196011 -0.000010 0.000022 0.000000 0.000000 3.141593
53 1.079221 -0.000001 -0.000003 -0.121622 -0.280043 1.100403
54 112.200340 0.000064 0.000005 0.000000 -0.000000 -0.349066
55 2.065478 0.000005 0.000004 0.000000 0.000000 3.141593
56 1.078219 -0.061244 -0.098181 -0.000069 -0.000793 1.658063
57 112.891411 0.000040 -0.000011 0.000000 -0.000000 -0.349066
58 1.721236 -0.000009 0.000001 0.000000 0.000000 3.141593
59 -0.114829 -2.044656 3.888002 1.150680 0.657748 3.014501
60 0.845749 38.795273 0.842524 -0.000000 0.000000 0.000000
61 44.146183 23.470118 28.730305 -0.000002 -0.000002 2.763674
62 44.146099 23.470261 -28.756023 -0.000002 -0.000002 2.763674
63 11.035361 -33.182281 -0.056954 -0.000002 -0.000002 2.763674
64 -47.791424 -11.575480 -0.000034 -0.000005 0.000002 -2.313695
65 38.906834 -0.030608 -0.000000 -0.000000 -0.000000 0.042500
66 38.476604 -0.031527 -0.000000 -0.000000 -0.000000 0.129766
67 39.928043 -0.028113 -0.000000 -0.000000 -0.000000 0.129766
68 35.589764 -0.041863 -0.000000 -0.000000 -0.000000 0.042500
69 52.623219 0.000001 -0.000000 -3.141593 -0.000003 1.570000
70 77.492279 14.003128 -0.056411 0.000003 0.000001 -0.764951
71 88.799866 -0.000001 32.090240 1.570796 0.000000 0.000000
72 88.799866 -0.000001 32.090240 1.570796 0.000000 0.000000
time 5
0 88.799866 -0.000001 32.090240 1.570796 0.000000 0.000000
1 0.056815 31.013531 62.099155 0.000000 1.047198 -1.570795
2 62.877842 -0.000002 -36.302540 -1.047198 -0.000001 1.570796
3 0.578570 -0.000000 1.002115 -1.570795 -1.570796 0.000000
4 19.667528 -0.015391 0.000027 -0.000004 -0.000001 0.000796
5 -19.667509 0.030962 34.045998 -0.000004 -3.141592 0.096890
6 48.144665 -0.000005 0.000001 -0.000000 -0.000000 0.075708
7 8.787703 -0.000001 -0.000000 0.000000 -0.000000 0.851579
8 37.448334 -0.000002 0.000002 0.000001 0.000000 -1.789532
9 10.603360 10.781816 -0.000000 -0.000000 -0.000000 1.396263
10 1.115359 0.000000 0.000002 -0.000000 -0.000000 -0.174533
11 1.115359 0.000001 -0.000003 0.000000 0.000000 -0.174533
12 1.115364 0.000001 -0.000000 0.000000 0.000000 3.141593
13 -19.667507 0.031147 -34.045998 -0.000002 3.141592 0.096890
14 48.144665 -0.000007 -0.000001 -0.000000 0.000000 0.075708
15 8.787702 -0.000003 0.000001 -0.000000 0.000000 0.851579
16 37.448334 0.000000 0.000001 -0.000001 -0.000000 -1.789532
17 10.603354 10.781813 -0.000000 0.000000 0.000000 1.396263
18 1.115358 0.000007 0.000003 -0.000000 -0.000000 -0.174533
19 1.115363 0.000001 -0.000002 0.000000 0.000000 -0.174533
20 1.115359 0.000001 0.000000 0.000000 0.000000 0.000000
21 19.338173 -0.014468 -0.000000 -0.000000 -0.000001 0.349066
22 19.334427 -0.025928 -0.000000 -0.000000 -0.000000 0.058634
23 32.612148 -0.028872 -0.000000 -0.000000 -0.000000 0.030000
24 36.268288 0.000007 -0.000000 -0.000001 0.000002 -0.962097
25 19.745586 0.000002 -0.000000 0.000000 0.000000 0.000000
26 33.906582 77.904579 -0.056893 -0.000002 0.000000 -2.646049
27 46.314247 -1.493381 -0.057020 -0.000002 0.000000 -2.646049
28 47.929722 -50.247253 -0.057093 -0.000002 0.000000 -2.646049
29 18.551144 15.394992 10.634682 -0.000002 0.000000 -2.646049
30 18.551132 15.395030 -10.216358 -0.000002 0.000000 -2.646049
31 -8.005498 -7.419985 21.507051 -2.203628 -1.019125 -0.919254
32 67.635147 0.000003 0.000003 0.067842 -0.213685 0.126598
33 65.342224 0.000001 0.000014 -0.000000 0.000000 0.200021
34 3.535515 0.000004 -0.000007 -1.570000 -0.087266 0.000000
35 1.080036 0.049213 -0.517039 0.171155 0.026360 0.310030
36 45.434586 0.000020 0.000011 0.000000 -0.000000 -0.087266
37 59.196018 0.000014 -0.000006 0.000000 0.000000 0.000000
38 1.079226 0.000004 -0.000000 0.120323 -0.239900 1.037913
39 112.200363 -0.000000 -0.000008 -0.000000 0.000000 -0.349066
40 2.065476 -0.000001 0.000005 0.000000 0.000000 0.000000
41 1.078225 -0.061242 0.098186 0.000282 -0.261051 1.919789
42 112.891380 -0.000011 -0.000009 0.000000 -0.000000 -0.349066
43 1.721239 -0.000003 0.000009 0.000000 0.000000 0.000000
44 -0.726308 -2.959897 -3.646901 -1.467314 0.657745 -0.127091
45 0.272709 38.404095 1.817653 -0.000000 0.000000 0.000000
46 -8.005498 -7.419868 -21.507093 2.203634 1.019129 -0.919248
47 67.635139 0.000004 -0.000005 -0.067842 0.213685 0.126598
48 65.342232 0.000005 -0.000010 0.000000 0.000000 0.200021
49 3.535527 0.000004 -0.000002 1.570000 0.087266 -0.000000
50 1.080032 0.049217 0.517041 -0.171155 -0.026360 0.310030
51 45.434578 -0.000013 -0.000001 -0.000000 0.000000 -0.087266
52 59.196014 -0.000019 -0.000010 0.000000 0.000000 3.141593
53 1.079224 0.000004 0.000003 -0.120323 0.239900 1.037913
54 112.200317 0.000028 -0.000017 0.000000 -0.000000 -0.349066
55 2.065480 -0.000004 0.000006 0.000000 0.000000 3.141593
56 1.078210 -0.061239 -0.098174 -0.000282 0.261051 1.919789
57 112.891388 0.000045 -0.000000 0.000000 -0.000000 -0.349066
58 1.721231 -0.000004 -0.000000 0.000000 0.000000 3.141593
59 -0.114823 -2.044653 3.888005 -1.467314 2.483845 -0.127091
60 0.845749 38.795280 0.842521 -0.000000 0.000000 0.000000
61 44.146179 23.470116 28.730305 -0.000002 -0.000002 2.763674
62 44.146099 23.470259 -28.756023 -0.000002 -0.000002 2.763674
63 11.035360 -33.182285 -0.056954 -0.000002 -0.000002 2.763674
64 -47.785217 -11.570289 -0.000034 -0.000005 0.000001 -2.575494
65 38.912144 -0.029917 0.000000 -0.000000 -0.000001 0.217033
66 38.476585 -0.031528 -0.000000 -0.000000 -0.000000 0.129766
67 39.930485 -0.027685 -0.000000 -0.000000 -0.000001 0.217033
68 35.597027 -0.040916 -0.000000 -0.000000 -0.000001 0.217033
69 52.623219 -0.000006 -0.000000 -3.141593 -0.000003 1.570000
70 77.492264 14.003122 -0.056412 0.000003 0.000001 -0.764951
71 88.799866 -0.000001 32.090240 1.570796 0.000000 0.000000
72 88.799866 -0.000001 32.090240 1.570796 0.000000 0.000000
time 6
0 88.799866 -0.000001 32.090240 1.570796 0.000000 0.000000
1 0.056815 31.013531 66.788612 0.000000 1.047198 -1.570795
2 65.796028 -0.000002 -37.987354 -1.047198 -0.000001 1.570796
3 0.578569 -0.000000 1.002115 -1.570795 -1.570796 0.000000
4 19.667530 -0.015395 0.000027 -0.000004 -0.000001 0.000796
5 -19.667511 0.030965 34.045998 -0.000004 -3.141593 0.134699
6 48.144657 -0.000008 -0.000000 -0.000000 -0.000000 0.052528
7 8.787701 0.000004 -0.000002 0.000000 -0.000000 0.773982
8 37.448338 -0.000005 0.000003 0.000001 0.000000 -1.650946
9 10.603354 10.781814 -0.000002 -0.000000 -0.000000 1.396263
10 1.115357 0.000007 0.000005 -0.000000 -0.000000 -0.174533
11 1.115364 -0.000003 -0.000000 0.000000 0.000000 -0.174533
12 1.115358 -0.000004 -0.000002 0.000000 0.000000 3.141593
13 -19.667509 0.031151 -34.045998 -0.000002 3.141592 0.134699
14 48.144657 -0.000002 0.000001 0.000000 -0.000000 0.052528
15 8.787701 0.000002 0.000002 0.000000 0.000000 0.773982
16 37.448338 -0.000004 -0.000005 -0.000001 -0.000000 -1.650946
17 10.603357 10.781814 -0.000002 0.000000 0.000000 1.396263
18 1.115358 0.000007 0.000002 -0.000000 -0.000000 -0.174533
19 1.115365 -0.000002 -0.000003 0.000000 0.000000 -0.174533
20 1.115359 -0.000003 -0.000001 0.000000 0.000000 0.000000
21 19.338171 -0.014469 -0.000000 -0.000000 -0.000001 0.349066
22 19.336220 -0.025758 -0.000000 -0.000000 -0.000000 0.128175
23 32.612152 -0.028865 -0.000000 -0.000000 -0.000000 0.030000
24 36.268291 0.000004 -0.000000 -0.000001 0.000002 -1.031637
25 19.745594 0.000002 -0.000000 0.000000 0.000000 0.000000
26 33.906590 77.904587 -0.056893 -0.000002 0.000000 -2.646049
27 46.314255 -1.493381 -0.057020 -0.000002 0.000000 -2.646049
28 47.929729 -50.247257 -0.057093 -0.000002 0.000000 -2.646049
29 18.551149 15.394992 10.634682 -0.000002 0.000000 -2.646049
30 18.551140 15.395029 -10.216358 -0.000002 0.000000 -2.646049
31 -8.503516 -6.845731 21.507053 -3.141577 -1.396263 -0.128987
32 67.635139 0.000009 0.000004 0.189168 -0.184716 0.202229
33 65.342232 0.000006 0.000005 -0.000000 -0.000000 0.200022
34 3.535507 -0.000003 -0.000001 -1.570000 0.087266 0.000000
35 1.080031 0.049214 -0.517036 0.171155 0.026360 0.310030
36 45.434570 -0.000013 -0.000000 0.000000 -0.000000 -0.087266
37 59.196011 -0.000011 0.000010 0.000000 0.000000 0.000000
38 1.079227 0.000002 -0.000004 0.123413 -0.326520 1.026867
39 112.200333 0.000036 0.000012 0.000000 0.000000 -0.349066
40 2.065499 0.000000 -0.000004 0.000000 0.000000 0.000000
41 1.078220 -0.061248 0.098182 0.000300 -0.435584 1.919735
42 112.891396 0.000011 -0.000014 -0.000000 -0.000000 -0.349066
43 1.721233 -0.000005 -0.000003 0.000000 0.000000 0.000000
44 -0.726301 -2.959894 -3.646903 -1.118248 0.657745 -0.127092
45 0.272712 38.404095 1.817647 -0.000000 0.000000 0.000000
46 -8.503516 -6.845614 -21.507092 -3.141577 1.396264 -0.128955
47 67.635132 0.000002 -0.000006 -0.189168 0.184716 0.202228
48 65.342239 -0.000001 -0.000003 0.000000 0.000000 0.200022
49 3.535509 0.000002 -0.000001 1.570000 -0.087266 0.000000
50 1.080032 0.049214 0.517034 -0.171155 -0.026360 0.310030
51 45.434563 -0.000014 -0.000002 -0.000000 0.000000 -0.087266
52 59.196014 -0.000012 -0.000002 0.000000 0.000000 3.141593
53 1.079226 -0.000007 0.000010 -0.123413 0.326520 1.026867
54 112.200340 0.000046 -0.000006 -0.000000 -0.000000 -0.349066
55 2.065472 -0.000001 0.000001 0.000000 0.000000 3.141593
56 1.078220 -0.061245 -0.098184 -0.000300 0.435584 1.919735
57 112.891388 0.000022 0.000010 0.000000 0.000000 -0.349066
58 1.721233 0.000002 0.000004 0.000000 0.000000 3.141593
59 -0.114826 -2.044657 3.888003 -1.118248 2.483845 -0.127091
60 0.845747 38.795280 0.842513 -0.000000 0.000000 0.000000
61 44.146179 23.470118 28.730305 -0.000002 -0.000002 2.763674
62 44.146099 23.470259 -28.756023 -0.000002 -0.000002 2.763674
63 11.035360 -33.182281 -0.056954 -0.000002 -0.000002 2.763674
64 -47.780426 -11.567804 -0.000034 -0.000005 0.000001 -2.750027
65 38.909508 -0.030378 0.000000 -0.000000 -0.000000 0.129766
66 38.479328 -0.031053 0.000000 -0.000000 -0.000001 0.217033
67 39.928036 -0.028096 -0.000000 -0.000000 -0.000000 0.129766
68 35.593441 -0.041567 -0.000000 -0.000000 -0.000000 0.129766
69 52.623219 -0.000009 -0.000000 -3.141593 -0.000003 1.570000
70 77.492279 14.003125 -0.056411 0.000003 0.000001 -0.764951
71 88.799866 -0.000001 32.090240 1.570796 0.000000 0.000000
72 88.799866 -0.000001 32.090240 1.570796 0.000000 0.000000
time 7
0 88.799866 -0.000001 32.090240 1.570796 0.000000 0.000000
1 0.056815 31.013531 72.348709 0.000000 1.047198 -1.570795
2 63.418137 -0.000002 -36.614479 -1.047198 -0.000001 1.570796
3 0.578570 -0.000000 1.002115 -1.570795 -1.570796 0.000000
4 19.667526 -0.015388 0.000027 -0.000004 -0.000001 0.000796
5 -19.667505 0.030958 34.045998 -0.000004 -3.141593 0.181404
6 48.144669 -0.000004 -0.000003 0.000000 0.000000 0.023894
7 8.787697 0.000001 0.000002 0.000000 -0.000000 0.678126
8 37.448330 -0.000003 -0.000001 0.000001 0.000000 -1.479751
9 10.603356 10.781815 -0.000001 -0.000000 -0.000000 1.396263
10 1.115359 0.000002 0.000001 -0.000000 -0.000000 -0.174533
11 1.115361 0.000001 0.000000 0.000000 0.000000 -0.174533
12 1.115363 -0.000002 -0.000001 0.000000 0.000000 3.141593
13 -19.667505 0.031144 -34.045998 -0.000002 3.141592 0.181404
14 48.144669 -0.000006 -0.000001 -0.000000 -0.000000 0.023894
15 8.787698 -0.000001 -0.000003 -0.000000 0.000000 0.678126
16 37.448330 -0.000003 0.000002 -0.000001 -0.000000 -1.479751
17 10.603358 10.781814 -0.000001 0.000000 0.000000 1.396263
18 1.115357 0.000003 0.000003 -0.000000 -0.000000 -0.174533
19 1.115359 -0.000004 -0.000002 0.000000 0.000000 -0.174533
20 1.115361 -0.000000 -0.000003 0.000000 0.000000 0.000000
21 19.338171 -0.014469 -0.000000 -0.000000 -0.000001 0.349066
22 19.338421 -0.025379 -0.000000 -0.000000 -0.000001 0.214078
23 32.612152 -0.028867 -0.000000 -0.000000 -0.000000 0.030000
24 36.268291 0.000002 -0.000000 -0.000002 0.000002 -1.117540
25 19.745594 0.000002 -0.000000 0.000000 0.000000 0.000000
26 33.906593 77.904587 -0.056893 -0.000002 0.000000 -2.646049
27 46.314255 -1.493380 -0.057020 -0.000002 0.000000 -2.646049
28 47.929729 -50.247253 -0.057093 -0.000002 0.000000 -2.646049
29 18.551149 15.394993 10.634681 -0.000002 0.000000 -2.646049
30 18.551140 15.395030 -10.216359 -0.000002 0.000000 -2.646049
31 -9.061732 -6.090810 21.507055 0.946120 -1.277966 2.001373
32 67.635147 -0.000000 0.000002 0.209643 -0.474289 0.182207
33 65.342232 -0.000003 0.000006 0.000000 -0.000000 0.040033
34 3.535513 0.000004 0.000001 -1.570000 0.021817 0.000000
35 1.080034 0.049216 -0.517041 0.116494 -0.231407 0.430968
36 45.434566 -0.000002 -0.000004 0.000000 0.000000 0.072722
37 59.196011 0.000007 0.000006 0.000000 0.000000 0.000000
38 1.079221 -0.000008 -0.000002 0.067585 -0.349115 1.194950
39 112.200340 0.000031 -0.000010 -0.000000 -0.000000 -0.189077
40 2.065479 -0.000003 -0.000001 0.000000 0.000000 0.000000
41 1.078219 -0.061240 0.098176 -0.020466 -0.250267 2.084839
42 112.891388 0.000007 -0.000004 -0.000000 0.000000 -0.189077
43 1.721233 0.000004 0.000000 0.000000 0.000000 0.000000
44 -0.726297 -2.959902 -3.646903 -1.329142 0.657745 -0.127091
45 0.272716 38.404095 1.817651 -0.000000 0.000000 0.000000
46 -9.061732 -6.090693 -21.507090 -0.946128 1.277961 2.001365
47 67.635139 -0.000001 -0.000001 -0.209643 0.474289 0.182207
48 65.342232 0.000004 -0.000008 -0.000000 0.000000 0.040033
49 3.535520 -0.000010 0.000002 1.570000 -0.021817 0.000000
50 1.080029 0.049215 0.517037 -0.116494 0.231407 0.430968
51 45.434551 0.000005 -0.000010 0.000000 -0.000000 0.072722
52 59.196011 0.000004 -0.000004 0.000000 0.000000 3.141593
53 1.079215 -0.000007 -0.000002 -0.067585 0.349115 1.194950
54 112.200356 0.000035 -0.000001 -0.000000 0.000000 -0.189077
55 2.065480 0.000003 0.000001 0.000000 0.000000 3.141593
56 1.078214 -0.061241 -0.098180 0.020466 0.250267 2.084839
57 112.891396 -0.000009 0.000007 0.000000 -0.000000 -0.189077
58 1.721231 0.000003 0.000003 0.000000 0.000000 3.141593
59 -0.114825 -2.044652 3.888004 -1.329142 2.483845 -0.127091
60 0.845751 38.795280 0.842513 -0.000000 0.000000 0.000000
61 44.146183 23.470118 28.730305 -0.000002 -0.000002 2.763674
62 44.146099 23.470261 -28.756023 -0.000002 -0.000002 2.763674
63 11.035361 -33.182281 -0.056954 -0.000002 -0.000002 2.763674
64 -47.773834 -11.565917 -0.000034 -0.000006 0.000000 -2.971829
65 38.904392 -0.030611 0.000000 -0.000000 0.000000 -0.037494
66 38.470703 -0.031740 0.000000 -0.000000 0.000000 -0.055675
67 39.930084 -0.027761 0.000000 -0.000000 -0.000001 0.202488
68 35.599678 -0.040249 0.000000 -0.000000 -0.000001 0.282483
69 52.623215 -0.000001 0.000000 -3.141593 -0.000003 1.570000
70 77.492271 14.003127 -0.056411 0.000003 0.000001 -0.764951
71 88.799866 -0.000001 32.090240 1.570796 0.000000 0.000000
72 88.799866 -0.000001 32.090240 1.570796 0.000000 0.000000
time 8
0 88.799866 -0.000001 32.090240 1.570796 0.000000 0.000000
1 0.056815 31.013531 77.908813 0.000000 1.047198 -1.570795
2 58.700867 -0.000002 -33.890961 -1.047198 -0.000001 1.570796
3 0.578571 -0.000000 1.002115 -1.570795 -1.570796 0.000000
4 19.667526 -0.015386 0.000027 -0.000004 -0.000001 0.000796
5 -19.667505 0.030960 34.045998 -0.000004 3.141593 0.223661
6 48.144657 -0.000005 -0.000001 -0.000000 -0.000000 -0.002013
7 8.787697 -0.000004 -0.000001 0.000000 0.000000 0.591400
8 37.448334 0.000005 0.000001 0.000001 0.000000 -1.324860
9 10.603359 10.781814 -0.000002 -0.000000 -0.000000 1.396263
10 1.115356 0.000005 0.000004 -0.000000 -0.000000 -0.174533
11 1.115362 -0.000001 -0.000001 0.000000 0.000000 -0.174533
12 1.115359 -0.000001 -0.000003 0.000000 0.000000 3.141593
13 -19.667505 0.031146 -34.045998 -0.000002 3.141592 0.223661
14 48.144657 0.000001 -0.000003 0.000000 -0.000000 -0.002013
15 8.787699 -0.000005 0.000003 -0.000000 0.000000 0.591400
16 37.448334 0.000004 0.000000 -0.000001 -0.000000 -1.324860
17 10.603354 10.781813 -0.000002 0.000000 0.000000 1.396263
18 1.115355 -0.000000 0.000003 -0.000000 -0.000000 -0.174533
19 1.115365 0.000002 -0.000002 0.000000 0.000000 -0.174533
20 1.115362 0.000001 0.000000 0.000000 0.000000 0.000000
21 19.338173 -0.014467 -0.000000 -0.000000 -0.000001 0.349066
22 19.340376 -0.024872 -0.000000 -0.000000 -0.000001 0.291799
23 32.612144 -0.028873 -0.000000 -0.000000 -0.000000 0.030000
24 36.268291 0.000002 -0.000000 -0.000002 0.000003 -1.195262
25 19.745594 -0.000000 -0.000000 0.000000 0.000000 0.000000
26 33.906593 77.904579 -0.056893 -0.000002 0.000000 -2.646049
27 46.314255 -1.493383 -0.057020 -0.000002 0.000000 -2.646049
28 47.929729 -50.247257 -0.057093 -0.000002 0.000000 -2.646049
29 18.551151 15.394990 10.634682 -0.000002 0.000000 -2.646049
30 18.551140 15.395027 -10.216358 -0.000002 0.000000 -2.646049
31 -9.509299 -5.368762 21.507057 1.214315 -1.102947 1.673468
32 67.635139 0.000007 0.000003 0.288269 -0.405899 0.122643
33 65.342232 -0.000002 0.000005 0.000000 -0.000000 -0.149045
34 3.535513 0.000001 0.000003 -1.570000 -0.087267 0.000000
35 1.080036 0.049218 -0.517044 -0.000753 -0.523142 0.611242
36 45.434570 -0.000002 0.000013 -0.000000 -0.000000 0.261799
37 59.196011 0.000003 0.000004 0.000000 0.000000 0.000000
38 1.079218 0.000000 -0.000002 -0.000147 -0.348282 1.396314
39 112.200356 0.000027 -0.000006 0.000000 0.000000 0.000000
40 2.065484 0.000001 0.000002 0.000000 0.000000 0.000000
41 1.078209 -0.061241 0.098178 0.000512 0.000610 2.268928
42 112.891396 0.000010 -0.000012 0.000000 0.000000 0.000000
43 1.721235 -0.000000 0.000008 0.000000 0.000000 0.000000
44 -0.726296 -2.959894 -3.646902 -1.641847 0.657745 -0.127091
45 0.272718 38.404099 1.817648 -0.000000 0.000000 0.000000
46 -9.509300 -5.368644 -21.507088 -1.214316 1.102941 1.673467
47 67.635139 0.000007 -0.000003 -0.288270 0.405899 0.122643
48 65.342247 0.000001 -0.000000 -0.000000 0.000000 -0.149045
49 3.535501 -0.000003 -0.000004 1.570000 0.087266 0.000000
50 1.080032 0.049220 0.517031 0.000753 0.523142 0.611242
51 45.434574 -0.000007 -0.000001 0.000000 0.000000 0.261799
52 59.196018 0.000005 -0.000004 0.000000 0.000000 3.141593
53 1.079232 0.000003 -0.000010 0.000147 0.348282 1.396314
54 112.200340 0.000054 0.000007 0.000000 0.000000 0.000000
55 2.065492 -0.000002 -0.000003 0.000000 0.000000 3.141593
56 1.078210 -0.061242 -0.098185 -0.000512 -0.000610 2.268928
57 112.891396 0.000002 0.000017 0.000000 0.000000 0.000000
58 1.721233 0.000005 -0.000001 0.000000 0.000000 3.141593
59 -0.114827 -2.044651 3.888005 1.499746 0.657748 3.014501
60 0.845741 38.795280 0.842521 -0.000000 0.000000 0.000000
61 44.146183 23.470119 28.730305 -0.000002 -0.000002 2.763674
62 44.146099 23.470263 -28.756023 -0.000002 -0.000002 2.763674
63 11.035362 -33.182289 -0.056954 -0.000002 -0.000002 2.763674
64 -47.772610 -11.565729 -0.000034 -0.000006 0.000000 -3.011827
65 38.898880 -0.029893 0.000000 -0.000000 0.000001 -0.219299
66 38.460289 -0.029353 0.000000 -0.000000 0.000001 -0.393832
67 39.932865 -0.027047 0.000001 -0.000000 -0.000001 0.304299
68 35.607311 -0.037188 0.000000 -0.000000 -0.000001 0.478832
69 52.623207 -0.000001 0.000000 -3.141593 -0.000003 1.570000
70 77.492279 14.003130 -0.056410 0.000003 0.000001 -0.764951
71 88.799866 -0.000001 32.090240 1.570796 0.000000 0.000000
72 88.799866 -0.000001 32.090240 1.570796 0.000000 0.000000
end
