version 1
nodes
0 "Box02" -1
end
skeleton
time 0
0 104.866531 -0.000001 14.495728 1.570796 0.000000 0.000000
end
triangles
Eldobox.jpg
0 -46.9962 63.7551 60.5548 0.0000 0.9956 -0.0941 0.9995 0.9995
0 46.6696 63.7551 60.5548 0.0000 0.9956 -0.0941 0.9995 0.0005
0 38.8671 58.0845 0.5538 0.0000 0.9956 -0.0941 0.0005 0.0837
Eldobox.jpg
0 -39.1937 -58.2130 0.5538 0.0000 -0.9956 -0.0941 0.0005 0.9163
0 46.6696 -63.8836 60.5548 0.0000 -0.9956 -0.0941 0.9995 0.0005
0 -46.9962 -63.8836 60.5548 0.0000 -0.9956 -0.0941 0.9995 0.9995
Eldobox.jpg
0 50.8519 -48.1535 10.2057 0.9882 0.0000 -0.1531 0.0005 0.0490
0 58.6541 53.1967 60.5548 0.9882 0.0000 -0.1531 0.9995 0.9995
0 58.6541 -53.3253 60.5548 0.9882 0.0000 -0.1531 0.9995 0.0005
Eldobox.jpg
0 24.2307 -38.2244 110.0583 0.0000 -0.0000 1.0000 0.6879 0.2225
0 -24.5573 38.0959 110.0583 0.0000 -0.0000 1.0000 0.0005 0.7775
0 -24.5573 -38.2244 110.0583 0.0000 -0.0000 1.0000 0.0005 0.2225
Eldobox.jpg
0 -24.5573 38.0959 110.0583 0.0000 -0.0000 1.0000 0.0005 0.7775
0 24.2307 -38.2244 110.0583 0.0000 -0.0000 1.0000 0.6879 0.2225
0 24.2307 38.0959 110.0583 0.0000 -0.0000 1.0000 0.6879 0.7775
Eldobox.jpg
0 -51.1785 -48.1535 10.2057 -0.9878 0.0000 -0.1555 0.0005 0.0490
0 -59.1036 -53.3253 60.5548 -0.9878 0.0000 -0.1555 0.9995 0.0005
0 -59.1036 53.1967 60.5548 -0.9878 0.0000 -0.1555 0.9995 0.9995
Eldobox.jpg
0 -39.1937 58.0846 0.5538 0.0000 0.0000 -1.0000 0.0075 0.7467
0 38.8671 58.0845 0.5538 0.0000 0.0000 -1.0000 0.6882 0.7467
0 38.8671 -58.2131 0.5538 0.0000 0.0000 -1.0000 0.6882 0.2340
Eldobox.jpg
0 38.8671 -58.2131 0.5538 0.0000 0.0000 -1.0000 0.6882 0.2340
0 -39.1937 -58.2130 0.5538 0.0000 0.0000 -1.0000 0.0075 0.2340
0 -39.1937 58.0846 0.5538 0.0000 0.0000 -1.0000 0.0075 0.7467
Eldobox.jpg
0 -24.5573 38.0959 110.0583 -0.6375 0.4901 0.5944 0.3458 1.0086
0 -59.1036 53.1967 60.5548 -0.6375 0.4901 0.5944 0.6736 0.0067
0 -37.3619 31.1702 102.0350 -0.6375 0.4901 0.5944 0.6734 0.9462
Eldobox.jpg
0 58.6541 53.1967 60.5548 0.5445 0.6180 0.5671 0.6860 0.0077
0 46.6696 63.7551 60.5548 0.5445 0.6180 0.5671 0.3495 0.0077
0 24.2307 38.0959 110.0583 0.5445 0.6180 0.5671 0.3495 1.0067
Eldobox.jpg
0 58.6541 -53.3253 60.5548 0.6531 -0.7413 -0.1550 0.0096 0.7534
0 46.6696 -63.8836 60.5548 0.6531 -0.7413 -0.1550 0.3430 0.7534
0 38.8671 -58.2131 0.5538 0.6531 -0.7413 -0.1550 0.3432 0.2425
Eldobox.jpg
0 -39.1937 -58.2130 0.5538 -0.7140 -0.6762 -0.1818 0.6700 0.2294
0 -59.1036 -53.3253 60.5548 -0.7140 -0.6762 -0.1818 0.3527 0.7521
0 -51.1785 -48.1535 10.2057 -0.7140 -0.6762 -0.1818 0.3527 0.2295
Eldobox.jpg
0 37.0353 31.1702 102.0350 0.5310 -0.0000 0.8474 0.9878 0.0421
0 24.2307 38.0959 110.0583 0.5310 -0.0000 0.8474 0.6810 -0.0594
0 24.2307 -38.2244 110.0583 0.5310 -0.0000 0.8474 0.6810 1.0594
Eldobox.jpg
0 24.2307 -38.2244 110.0583 0.5310 -0.0000 0.8474 0.6810 1.0594
0 37.0353 -31.2987 102.0350 0.5310 -0.0000 0.8474 0.9878 0.9579
0 37.0353 31.1702 102.0350 0.5310 -0.0000 0.8474 0.9878 0.0421
Eldobox.jpg
0 38.8671 58.0845 0.5538 0.6272 0.0000 -0.7788 0.6808 1.0894
0 50.8519 48.0250 10.2057 0.6272 0.0000 -0.7788 0.9842 0.9874
0 38.8671 -58.2131 0.5538 0.6272 0.0000 -0.7788 0.6808 -0.0894
Eldobox.jpg
0 50.8519 -48.1535 10.2057 0.6272 0.0000 -0.7788 0.9842 0.0126
0 38.8671 -58.2131 0.5538 0.6272 0.0000 -0.7788 0.6808 -0.0894
0 50.8519 48.0250 10.2057 0.6272 0.0000 -0.7788 0.9842 0.9874
Eldobox.jpg
0 -24.5573 38.0959 110.0583 -0.5310 -0.0000 0.8474 0.6810 -0.0594
0 -37.3619 31.1702 102.0350 -0.5310 -0.0000 0.8474 0.9878 0.0421
0 -24.5573 -38.2244 110.0583 -0.5310 -0.0000 0.8474 0.6810 1.0594
Eldobox.jpg
0 -37.3619 -31.2987 102.0350 -0.5310 -0.0000 0.8474 0.9878 0.9579
0 -24.5573 -38.2244 110.0583 -0.5310 -0.0000 0.8474 0.6810 1.0594
0 -37.3619 31.1702 102.0350 -0.5310 -0.0000 0.8474 0.9878 0.0421
Eldobox.jpg
0 -51.1785 48.0250 10.2057 -0.6272 0.0000 -0.7788 0.9842 0.9874
0 -39.1937 58.0846 0.5538 -0.6272 0.0000 -0.7788 0.6808 1.0894
0 -51.1785 -48.1535 10.2057 -0.6272 0.0000 -0.7788 0.9842 0.0126
Eldobox.jpg
0 -39.1937 -58.2130 0.5538 -0.6272 0.0000 -0.7788 0.6808 -0.0894
0 -51.1785 -48.1535 10.2057 -0.6272 0.0000 -0.7788 0.9842 0.0126
0 -39.1937 58.0846 0.5538 -0.6272 0.0000 -0.7788 0.6808 1.0894
Eldobox.jpg
0 38.8671 58.0845 0.5538 0.0000 0.9956 -0.0941 0.0005 0.0837
0 -39.1937 58.0846 0.5538 0.0000 0.9956 -0.0941 0.0005 0.9163
0 -46.9962 63.7551 60.5548 0.0000 0.9956 -0.0941 0.9995 0.9995
Eldobox.jpg
0 -46.9962 63.7551 60.5548 0.0000 0.8878 0.4602 0.0005 0.7973
0 24.2307 38.0959 110.0583 0.0000 0.8878 0.4602 0.9995 0.3451
0 46.6696 63.7551 60.5548 0.0000 0.8878 0.4602 0.0005 0.2027
Eldobox.jpg
0 -24.5573 38.0959 110.0583 0.0000 0.8878 0.4602 0.9995 0.6549
0 24.2307 38.0959 110.0583 0.0000 0.8878 0.4602 0.9995 0.3451
0 -46.9962 63.7551 60.5548 0.0000 0.8878 0.4602 0.0005 0.7973
Eldobox.jpg
0 -46.9962 -63.8836 60.5548 0.0000 -0.8878 0.4602 0.0005 0.7973
0 46.6696 -63.8836 60.5548 0.0000 -0.8878 0.4602 0.0005 0.2027
0 -24.5573 -38.2244 110.0583 0.0000 -0.8878 0.4602 0.9995 0.6549
Eldobox.jpg
0 46.6696 -63.8836 60.5548 0.0000 -0.8878 0.4602 0.0005 0.2027
0 24.2307 -38.2244 110.0583 0.0000 -0.8878 0.4602 0.9995 0.3451
0 -24.5573 -38.2244 110.0583 0.0000 -0.8878 0.4602 0.9995 0.6549
Eldobox.jpg
0 46.6696 -63.8836 60.5548 0.0000 -0.9956 -0.0941 0.9995 0.0005
0 -39.1937 -58.2130 0.5538 0.0000 -0.9956 -0.0941 0.0005 0.9163
0 38.8671 -58.2131 0.5538 0.0000 -0.9956 -0.0941 0.0005 0.0837
Eldobox.jpg
0 58.6541 -53.3253 60.5548 0.8868 -0.0000 0.4622 0.0005 0.2039
0 58.6541 53.1967 60.5548 0.8868 -0.0000 0.4622 0.0005 0.8057
0 37.0353 -31.2987 102.0350 0.8868 -0.0000 0.4622 0.6804 0.3284
Eldobox.jpg
0 58.6541 53.1967 60.5548 0.8868 -0.0000 0.4622 0.0005 0.8057
0 37.0353 31.1702 102.0350 0.8868 -0.0000 0.4622 0.6804 0.6813
0 37.0353 -31.2987 102.0350 0.8868 -0.0000 0.4622 0.6804 0.3284
Eldobox.jpg
0 58.6541 53.1967 60.5548 0.9882 0.0000 -0.1531 0.9995 0.9995
0 50.8519 -48.1535 10.2057 0.9882 0.0000 -0.1531 0.0005 0.0490
0 50.8519 48.0250 10.2057 0.9882 0.0000 -0.1531 0.0005 0.9510
Eldobox.jpg
0 -59.1036 53.1967 60.5548 -0.9878 0.0000 -0.1555 0.9995 0.9995
0 -51.1785 48.0250 10.2057 -0.9878 0.0000 -0.1555 0.0005 0.9510
0 -51.1785 -48.1535 10.2057 -0.9878 0.0000 -0.1555 0.0005 0.0490
Eldobox.jpg
0 -59.1036 53.1967 60.5548 -0.8857 -0.0000 0.4642 0.0005 0.8057
0 -59.1036 -53.3253 60.5548 -0.8857 -0.0000 0.4642 0.0005 0.2039
0 -37.3619 -31.2987 102.0350 -0.8857 -0.0000 0.4642 0.6804 0.3284
Eldobox.jpg
0 -59.1036 53.1967 60.5548 -0.8857 -0.0000 0.4642 0.0005 0.8057
0 -37.3619 -31.2987 102.0350 -0.8857 -0.0000 0.4642 0.6804 0.3284
0 -37.3619 31.1702 102.0350 -0.8857 -0.0000 0.4642 0.6804 0.6813
Eldobox.jpg
0 -46.9962 63.7551 60.5548 -0.6493 0.7446 -0.1548 0.0152 0.7517
0 -39.1937 58.0846 0.5538 -0.6493 0.7446 -0.1548 0.0157 0.2293
0 -59.1036 53.1967 60.5548 -0.6493 0.7446 -0.1548 0.3527 0.7517
Eldobox.jpg
0 -39.1937 58.0846 0.5538 -0.7140 0.6762 -0.1818 0.0157 0.2293
0 -51.1785 48.0250 10.2057 -0.7140 0.6762 -0.1818 0.3527 0.2294
0 -59.1036 53.1967 60.5548 -0.7140 0.6762 -0.1818 0.3527 0.7517
Eldobox.jpg
0 -59.1036 53.1967 60.5548 -0.5413 0.6207 0.5671 0.6736 0.0067
0 -24.5573 38.0959 110.0583 -0.5413 0.6207 0.5671 0.3458 1.0086
0 -46.9962 63.7551 60.5548 -0.5413 0.6207 0.5671 0.3457 0.0072
Eldobox.jpg
0 58.6541 53.1967 60.5548 0.7134 0.6772 -0.1801 0.6807 0.7534
0 50.8519 48.0250 10.2057 0.7134 0.6772 -0.1801 0.6805 0.2425
0 38.8671 58.0845 0.5538 0.7134 0.6772 -0.1801 0.3512 0.2425
Eldobox.jpg
0 58.6541 53.1967 60.5548 0.6531 0.7413 -0.1550 0.6807 0.7534
0 38.8671 58.0845 0.5538 0.6531 0.7413 -0.1550 0.3512 0.2425
0 46.6696 63.7551 60.5548 0.6531 0.7413 -0.1550 0.3514 0.7535
Eldobox.jpg
0 24.2307 38.0959 110.0583 0.6376 0.4915 0.5933 0.3495 1.0067
0 37.0353 31.1702 102.0350 0.6376 0.4915 0.5933 0.6860 0.9294
0 58.6541 53.1967 60.5548 0.6376 0.4915 0.5933 0.6860 0.0077
Eldobox.jpg
0 38.8671 -58.2131 0.5538 0.7134 -0.6772 -0.1801 0.3432 0.2425
0 50.8519 -48.1535 10.2057 0.7134 -0.6772 -0.1801 0.0090 0.2427
0 58.6541 -53.3253 60.5548 0.7134 -0.6772 -0.1801 0.0096 0.7534
Eldobox.jpg
0 58.6541 -53.3253 60.5548 0.6376 -0.4915 0.5933 0.0037 0.0063
0 37.0353 -31.2987 102.0350 0.6376 -0.4915 0.5933 0.0035 0.9177
0 24.2307 -38.2244 110.0583 0.6376 -0.4915 0.5933 0.3496 1.0071
Eldobox.jpg
0 58.6541 -53.3253 60.5548 0.5445 -0.6180 0.5671 0.0037 0.0063
0 24.2307 -38.2244 110.0583 0.5445 -0.6180 0.5671 0.3496 1.0071
0 46.6696 -63.8836 60.5548 0.5445 -0.6180 0.5671 0.3496 0.0063
Eldobox.jpg
0 -59.1036 -53.3253 60.5548 -0.6493 -0.7446 -0.1548 0.3527 0.7521
0 -39.1937 -58.2130 0.5538 -0.6493 -0.7446 -0.1548 0.6700 0.2294
0 -46.9962 -63.8836 60.5548 -0.6493 -0.7446 -0.1548 0.6711 0.7522
Eldobox.jpg
0 -46.9962 -63.8836 60.5548 -0.5413 -0.6207 0.5671 0.3562 0.0064
0 -24.5573 -38.2244 110.0583 -0.5413 -0.6207 0.5671 0.3539 1.0127
0 -59.1036 -53.3253 60.5548 -0.5413 -0.6207 0.5671 0.0031 0.0066
Eldobox.jpg
0 -24.5573 -38.2244 110.0583 -0.6375 -0.4901 0.5944 0.3539 1.0127
0 -37.3619 -31.2987 102.0350 -0.6375 -0.4901 0.5944 0.0058 0.9302
0 -59.1036 -53.3253 60.5548 -0.6375 -0.4901 0.5944 0.0031 0.0066
end
