version 1
nodes
0 "Bip01" -1
1 "Bip01 Pelvis" 0
2 "Bip01 L Thigh" 1
3 "Bip01 L Calf" 2
4 "Bip01 L Foot" 3
5 "Bip01 L Toe0" 4
6 "Bip01 L Toe01" 5
7 "Bip01 L Toe02" 6
8 "Null 8" -1
9 "Bip01 R Thigh" 1
10 "Bip01 R Calf" 9
11 "Bip01 R Foot" 10
12 "Bip01 R Toe0" 11
13 "Bip01 R Toe01" 12
14 "Bip01 R Toe02" 13
15 "Null 15" -1
16 "Bip01 Spine" 1
17 "Bip01 Spine1" 16
18 "Bip01 Neck" 17
19 "Bip01 Head" 18
20 "Null 20" -1
21 "Bip01 Ponytail1" 19
22 "Bip01 Ponytail11" 21
23 "Null 23" -1
24 "Bip01 L Clavicle" 18
25 "Bip01 L UpperArm" 24
26 "Bip01 L Forearm" 25
27 "Bip01 L Hand" 26
28 "Bip01 L Finger0" 27
29 "Bip01 L Finger01" 28
30 "Null 30" -1
31 "Bip01 L Finger1" 27
32 "Bip01 L Finger11" 31
33 "Bip01 L Finger1Nub" 32
34 "hand_bofdgne01" 27
35 "Bip01 R Clavicle" 18
36 "Bip01 R UpperArm" 35
37 "Bip01 R Forearm" 36
38 "Bip01 R Hand" 37
39 "Bip01 R Finger0" 38
40 "Bip01 R Finger01" 39
41 "Null 41" -1
42 "Bip01 R Finger1" 38
43 "Bip01 R Finger11" 42
44 "Bip01 R Finger1Nub" 43
45 "knife_gdf" 38
46 "Bone03" 17
47 "Box04" 17
48 "Box01" 47
49 "eyebone01" 48
end
skeleton
time 0
0 0.000000 7.767428 96.137558 0.000000 0.000000 -1.570795
1 0.000000 0.000000 0.000000 -1.570795 -1.570796 0.000000
2 -0.000026 0.000030 18.595530 -0.088765 -2.774887 -0.843333
3 51.256508 0.000004 0.000004 0.000000 -0.000000 -1.358248
4 42.401642 0.000002 -0.000002 0.005287 -0.172125 0.469102
5 23.783974 40.997166 -0.000001 0.000000 -0.000000 1.570796
6 4.401492 0.000000 -0.000003 0.000000 0.000000 0.000000
7 4.401498 -0.000000 0.000003 0.000000 0.000000 0.000000
8 0.0 0.0 0.0 0.0 0.0 0.0
9 0.000026 -0.000022 -18.595530 0.360893 2.734021 -0.381225
10 51.256512 -0.000001 -0.000004 0.000000 -0.000000 -1.420701
11 42.401634 0.000001 0.000003 0.052930 0.214486 0.909509
12 23.783974 40.997162 0.000000 0.000000 0.000000 1.570796
13 4.401494 -0.000000 0.000004 0.000000 0.000000 0.000000
14 4.401495 0.000000 -0.000001 0.000000 0.000000 0.000000
15 0.0 0.0 0.0 0.0 0.0 0.0
16 11.444748 -0.019552 -0.003825 0.169042 -0.043626 0.511972
17 28.680393 -0.040422 -0.000001 -0.000000 0.000001 -0.296706
18 53.093925 -0.004325 -0.000000 0.000000 -0.000000 0.030000
19 5.437292 -0.000000 -0.000000 0.174533 0.000000 0.012836
20 0.0 0.0 0.0 0.0 0.0 0.0
21 7.285632 -7.278543 -0.000020 -0.000005 0.000001 -2.749229
22 16.349976 -0.013654 -0.000001 -0.000000 0.000001 -0.219299
23 0.0 0.0 0.0 0.0 0.0 0.0
24 -16.427872 0.510343 35.303993 -0.000014 -1.370796 3.110810
25 39.921352 -0.000000 -0.000006 0.520939 1.156512 0.496906
26 48.422325 -0.000002 -0.000001 0.000000 -0.000000 -0.451598
27 8.438255 0.000000 -0.000001 -1.648338 0.041525 -0.131120
28 88.895813 22.973209 -7.706260 2.801595 -0.065289 0.596260
29 5.595499 0.000006 -0.000003 -0.000000 0.000000 0.462512
30 0.0 0.0 0.0 0.0 0.0 0.0
31 92.364761 7.629379 2.440334 -0.001598 0.000398 0.244346
32 4.012197 -0.000003 -0.000001 -0.000000 -0.000000 0.523599
33 7.425241 -0.000000 0.000001 0.000000 -0.000000 0.000000
34 48.724422 -4.691669 -7.699067 -0.671515 -1.576963 0.751473
35 -17.143808 0.532522 -35.127754 -0.000014 1.370796 3.110783
36 39.921356 0.000001 -0.000008 -0.016730 -1.105058 0.257997
37 48.422314 0.000000 0.000002 0.000000 -0.000000 -0.568187
38 8.438264 -0.000003 0.000003 1.596193 -0.064491 0.191413
39 88.895821 22.973219 7.706262 -2.801595 0.065289 0.596260
40 5.595503 -0.000003 0.000007 -0.000000 0.000000 0.462512
41 0.0 0.0 0.0 0.0 0.0 0.0
42 92.364761 7.629397 -2.440334 0.001598 -0.000398 0.244346
43 4.012198 0.000001 0.000000 -0.000000 -0.000000 0.523599
44 7.425245 0.000002 -0.000000 0.000000 -0.000000 -3.141593
45 48.003223 -5.008460 6.468824 -2.046970 1.564393 1.171540
46 35.773132 -32.097881 -1.330358 -1.564896 -3.140380 -1.559171
47 26.836367 23.845194 -0.971343 1.564896 0.001213 -1.559171
48 -3.825685 0.003307 -0.381492 0.000000 0.000000 0.000000
49 31.302332 -0.003326 0.381508 -0.000000 0.000000 -0.000000
time 1
0 -3.891668 7.767428 111.871460 0.000000 0.000000 -1.570795
1 -0.000000 -0.000000 0.000000 -1.570795 -1.570796 0.000000
2 -0.000028 0.000031 18.595530 -0.346585 -2.796321 -0.240798
3 51.256508 0.000001 0.000000 0.000000 0.000000 -0.675230
4 42.401634 0.000001 -0.000000 0.005561 -0.227881 0.386276
5 23.783974 40.997158 -0.000003 0.000000 -0.000000 1.570796
6 4.401492 0.000000 0.000001 0.000000 0.000000 0.000000
7 4.401491 0.000000 0.000001 0.000000 0.000000 0.000000
8 0.0 0.0 0.0 0.0 0.0 0.0
9 0.000024 -0.000021 -18.595530 -0.013371 2.875866 -0.911474
10 51.256512 0.000003 -0.000001 -0.000000 -0.000000 -1.912714
11 42.401638 0.000000 -0.000000 -0.010451 0.308274 -0.042142
12 23.783974 40.997158 0.000001 0.000000 0.000000 1.570796
13 4.401493 0.000000 -0.000001 0.000000 0.000000 0.000000
14 4.401495 0.000001 0.000002 0.000000 0.000000 0.000000
15 0.0 0.0 0.0 0.0 0.0 0.0
16 11.444746 -0.019552 -0.003825 0.169042 -0.043626 0.511972
17 28.682192 -0.040633 0.004948 -0.117316 -0.003553 -0.254080
18 53.093937 -0.004326 -0.000000 0.000000 -0.000000 0.030000
19 5.437298 0.000000 0.000000 0.170970 0.003505 -0.029375
20 0.0 0.0 0.0 0.0 0.0 0.0
21 7.285634 -7.278547 -0.000019 -0.000005 0.000001 -2.749229
22 16.349972 -0.013656 -0.000001 -0.000000 0.000001 -0.219299
23 0.0 0.0 0.0 0.0 0.0 0.0
24 -16.427877 0.510345 35.303997 -0.000014 -1.370796 3.110810
25 39.921345 0.000003 0.000009 0.302632 1.118399 0.208027
26 48.422333 -0.000004 -0.000006 0.000000 0.000000 -0.459312
27 8.438261 -0.000000 0.000004 -1.633447 0.047593 -0.103015
28 88.895828 22.973211 -7.706259 2.798015 -0.041447 0.663347
29 5.595501 0.000003 -0.000004 -0.000000 0.000000 0.462512
30 0.0 0.0 0.0 0.0 0.0 0.0
31 92.364769 7.629383 2.440334 -0.001598 0.000398 0.244346
32 4.012197 -0.000004 0.000002 0.000000 0.000000 0.434716
33 7.425243 0.000002 -0.000001 0.000000 0.000000 0.000000
34 48.724426 -4.691672 -7.699066 -0.671516 -1.576963 0.751473
35 -17.143805 0.532521 -35.127758 -0.000014 1.370796 3.110783
36 39.921345 0.000000 -0.000007 0.163883 -1.139720 0.048752
37 48.422314 -0.000001 -0.000005 0.000000 0.000000 -0.528402
38 8.438261 0.000001 0.000002 1.601154 -0.062181 0.113073
39 88.895821 22.973206 7.706260 -2.798015 0.041447 0.663347
40 5.595505 0.000000 0.000006 -0.000000 -0.000000 0.462512
41 0.0 0.0 0.0 0.0 0.0 0.0
42 92.364769 7.629384 -2.440334 0.001598 -0.000398 0.244346
43 4.012198 0.000001 -0.000001 0.000000 0.000000 0.434716
44 7.425247 -0.000002 -0.000002 0.000000 -0.000000 -3.141593
45 48.003231 -5.008463 6.468821 -2.046970 1.564393 1.171540
46 35.773136 -32.097885 -1.330357 -1.564896 -3.140380 -1.559171
47 26.836353 23.845194 -0.971343 1.564896 0.001213 -1.559171
48 -3.825684 0.003307 -0.381493 0.000000 -0.000000 -0.000000
49 31.302334 -0.003326 0.381509 -0.000000 -0.000000 -0.000000
time 2
0 -7.783337 7.767428 101.338860 0.000000 0.000000 -1.570795
1 -0.000000 0.000000 0.000000 -1.570795 -1.570796 0.000000
2 -0.000023 0.000030 18.595530 -0.425731 -2.668124 -0.089454
3 51.256508 -0.000001 0.000003 0.000000 0.000000 -0.947583
4 42.401630 0.000001 0.000001 -0.033370 -0.383943 0.786108
5 23.783974 40.997162 -0.000001 0.000000 0.000000 1.570796
6 4.401494 0.000000 -0.000002 0.000000 0.000000 0.000000
7 4.401491 0.000000 0.000001 0.000000 0.000000 0.000000
8 0.0 0.0 0.0 0.0 0.0 0.0
9 0.000029 -0.000022 -18.595530 0.119347 2.871921 -1.216590
10 51.256504 0.000004 -0.000002 0.000000 0.000000 -1.455172
11 42.401642 0.000004 0.000000 0.078309 0.012536 0.004743
12 23.783978 40.997162 0.000001 -0.000000 -0.000000 1.570796
13 4.401494 -0.000001 0.000002 0.000000 0.000000 0.000000
14 4.401486 -0.000001 0.000001 0.000000 0.000000 0.000000
15 0.0 0.0 0.0 0.0 0.0 0.0
16 11.444743 -0.019552 -0.003825 0.169042 -0.043626 0.511972
17 28.684113 -0.040193 0.009830 -0.234677 -0.002092 -0.211332
18 53.093941 -0.004334 -0.000000 0.000000 -0.000000 0.030000
19 5.437282 0.000001 0.000000 0.167161 0.011922 -0.070888
20 0.0 0.0 0.0 0.0 0.0 0.0
21 7.285617 -7.278541 -0.000020 -0.000005 0.000001 -2.749229
22 16.349974 -0.013653 -0.000001 -0.000000 0.000001 -0.219299
23 0.0 0.0 0.0 0.0 0.0 0.0
24 -16.427895 0.510350 35.303993 -0.000014 -1.370796 3.110810
25 39.921349 -0.000003 0.000004 0.149560 1.044624 -0.013451
26 48.422321 -0.000002 0.000002 -0.000000 0.000000 -0.467027
27 8.438259 0.000000 0.000005 -1.618387 0.053240 -0.074815
28 88.895821 22.973215 -7.706258 2.796044 -0.017420 0.730301
29 5.595503 0.000001 -0.000006 0.000000 0.000000 0.462512
30 0.0 0.0 0.0 0.0 0.0 0.0
31 92.364769 7.629396 2.440335 -0.001598 0.000398 0.244346
32 4.012195 -0.000004 0.000001 -0.000000 0.000000 0.345834
33 7.425247 0.000000 -0.000001 0.000000 -0.000000 -0.000000
34 48.724415 -4.691666 -7.699067 -0.671511 -1.576963 0.751469
35 -17.143827 0.532526 -35.127750 -0.000014 1.370796 3.110783
36 39.921349 0.000000 -0.000002 0.364823 -1.165840 -0.181373
37 48.422318 -0.000000 0.000002 0.000000 0.000000 -0.488616
38 8.438254 0.000001 -0.000002 1.605917 -0.059491 0.034758
39 88.895821 22.973202 7.706254 -2.796044 0.017420 0.730301
40 5.595503 0.000002 0.000007 -0.000000 -0.000000 0.462512
41 0.0 0.0 0.0 0.0 0.0 0.0
42 92.364769 7.629374 -2.440336 0.001598 -0.000398 0.244346
43 4.012198 0.000001 0.000001 0.000000 -0.000000 0.345834
44 7.425247 0.000001 0.000001 0.000000 0.000000 3.141593
45 48.003227 -5.008471 6.468820 -2.046969 1.564393 1.171540
46 35.773136 -32.097889 -1.330358 -1.564896 -3.140380 -1.559171
47 26.836359 23.845190 -0.971343 1.564896 0.001213 -1.559171
48 -3.825686 0.003308 -0.381485 0.000000 0.000000 0.000000
49 31.302340 -0.003327 0.381505 -0.000000 -0.000000 -0.000000
time 3
0 -9.552277 7.767428 91.721329 0.000000 0.000000 -1.570795
1 -0.000000 0.000000 0.000000 -1.570795 -1.570796 0.000000
2 -0.000028 0.000030 18.595530 -0.493539 -2.574441 0.079717
3 51.256512 -0.000002 0.000005 -0.000000 -0.000000 -1.151848
4 42.401638 -0.000001 0.000004 -0.020422 -0.534422 0.936880
5 23.783974 40.997162 0.000000 0.000000 -0.000000 1.570796
6 4.401495 0.000000 -0.000002 0.000000 0.000000 0.000000
7 4.401494 -0.000000 0.000002 0.000000 0.000000 0.000000
8 0.0 0.0 0.0 0.0 0.0 0.0
9 0.000024 -0.000022 -18.595530 0.116157 2.871459 -0.988882
10 51.256512 0.000002 -0.000002 -0.000000 -0.000000 -1.494411
11 42.401627 -0.000001 -0.000001 0.042111 0.048882 0.482600
12 23.783974 40.997162 -0.000002 0.000000 0.000000 1.570796
13 4.401488 0.000000 -0.000002 0.000000 0.000000 0.000000
14 4.401492 -0.000000 0.000002 0.000000 0.000000 0.000000
15 0.0 0.0 0.0 0.0 0.0 0.0
16 11.444746 -0.019553 -0.003825 0.169042 -0.043626 0.511972
17 28.685032 -0.039791 0.012007 -0.287979 0.000227 -0.192019
18 53.093929 -0.004327 0.000000 0.000000 -0.000000 0.030000
19 5.437278 0.000001 -0.000000 0.165298 0.017340 -0.089374
20 0.0 0.0 0.0 0.0 0.0 0.0
21 7.285642 -7.278547 -0.000020 -0.000005 0.000001 -2.749229
22 16.349995 -0.013665 -0.000000 -0.000000 0.000001 -0.219299
23 0.0 0.0 0.0 0.0 0.0 0.0
24 -16.427881 0.510344 35.303993 -0.000014 -1.370797 3.110810
25 39.921345 -0.000003 -0.000006 0.103301 1.002849 -0.090407
26 48.422314 -0.000002 -0.000004 -0.000000 -0.000000 -0.470533
27 8.438259 0.000001 0.000007 -1.611488 0.055666 -0.061967
28 88.895813 22.973198 -7.706258 2.795681 -0.006466 0.760712
29 5.595501 0.000003 -0.000004 -0.000000 0.000000 0.462512
30 0.0 0.0 0.0 0.0 0.0 0.0
31 92.364761 7.629371 2.440333 -0.001598 0.000398 0.244346
32 4.012197 0.000001 0.000001 -0.000000 0.000000 0.305433
33 7.425244 -0.000001 -0.000002 -0.000000 -0.000000 -0.000000
34 48.724422 -4.691671 -7.699069 -0.671511 -1.576963 0.751470
35 -17.143822 0.532522 -35.127754 -0.000014 1.370796 3.110783
36 39.921352 0.000003 0.000007 0.462033 -1.174350 -0.292033
37 48.422325 -0.000002 0.000003 -0.000000 -0.000000 -0.470532
38 8.438257 0.000000 0.000004 1.608010 -0.058147 -0.000831
39 88.895836 22.973217 7.706258 -2.795681 0.006466 0.760712
40 5.595501 0.000003 0.000005 0.000000 -0.000000 0.462512
41 0.0 0.0 0.0 0.0 0.0 0.0
42 92.364777 7.629395 -2.440337 0.001598 -0.000398 0.244346
43 4.012197 0.000006 0.000001 0.000000 0.000000 0.305433
44 7.425246 -0.000002 0.000002 0.000000 -0.000000 -3.141593
45 48.003231 -5.008456 6.468821 -2.046969 1.564393 1.171541
46 35.773140 -32.097885 -1.330358 -1.564896 -3.140380 -1.559171
47 26.836367 23.845190 -0.971343 1.564896 0.001213 -1.559171
48 -3.825686 0.003308 -0.381491 -0.000000 0.000000 -0.000000
49 31.302336 -0.003327 0.381507 -0.000000 -0.000000 -0.000000
time 4
0 -7.783336 7.767428 112.945633 0.000000 0.000000 -1.570795
1 -0.000000 0.000000 0.000000 -1.570795 -1.570796 0.000000
2 -0.000023 0.000031 18.595530 -0.399497 -2.624028 -0.202065
3 51.256512 0.000002 -0.000001 0.000000 -0.000000 -1.409749
4 42.401630 -0.000000 0.000002 0.350368 -0.145112 -0.133064
5 23.783976 40.997162 0.000000 -0.000000 -0.000000 1.570796
6 4.401495 0.000001 -0.000000 0.000000 0.000000 0.000000
7 4.401495 -0.000001 0.000001 0.000000 0.000000 0.000000
8 0.0 0.0 0.0 0.0 0.0 0.0
9 0.000029 -0.000021 -18.595530 0.299911 2.947528 -0.393419
10 51.256504 0.000001 -0.000000 -0.000000 0.000000 -0.664038
11 42.401630 0.000000 0.000001 0.042051 0.054497 0.255831
12 23.783974 40.997162 0.000002 -0.000000 0.000000 1.570796
13 4.401495 -0.000000 -0.000000 0.000000 0.000000 0.000000
14 4.401495 0.000000 -0.000001 0.000000 0.000000 0.000000
15 0.0 0.0 0.0 0.0 0.0 0.0
16 11.444751 -0.019552 -0.003824 0.169042 -0.043626 0.511972
17 28.684116 -0.040197 0.009830 -0.234677 -0.002092 -0.211332
18 53.093948 -0.004332 -0.000000 0.000000 -0.000000 0.030000
19 5.437279 -0.000000 0.000000 0.167161 0.011922 -0.070888
20 0.0 0.0 0.0 0.0 0.0 0.0
21 7.285622 -7.278543 -0.000020 -0.000005 0.000001 -2.749229
22 16.349964 -0.013653 -0.000000 -0.000000 0.000001 -0.219299
23 0.0 0.0 0.0 0.0 0.0 0.0
24 -16.427896 0.510347 35.303993 -0.000014 -1.370796 3.110810
25 39.921349 0.000001 -0.000003 0.149560 1.044624 -0.013451
26 48.422318 0.000002 0.000001 -0.000000 0.000000 -0.467027
27 8.438263 0.000001 0.000003 -1.618387 0.053240 -0.074815
28 88.895828 22.973215 -7.706259 2.796044 -0.017420 0.730301
29 5.595504 0.000003 -0.000004 0.000000 0.000000 0.462512
30 0.0 0.0 0.0 0.0 0.0 0.0
31 92.364777 7.629396 2.440335 -0.001598 0.000398 0.244346
32 4.012198 -0.000004 0.000000 -0.000000 0.000000 0.345834
33 7.425243 0.000001 0.000001 -0.000000 0.000000 -0.000000
34 48.724422 -4.691664 -7.699068 -0.671513 -1.576963 0.751471
35 -17.143829 0.532523 -35.127750 -0.000014 1.370796 3.110783
36 39.921349 -0.000001 -0.000003 0.364823 -1.165840 -0.181373
37 48.422318 -0.000002 0.000002 0.000000 0.000000 -0.488616
38 8.438254 -0.000003 -0.000002 1.605918 -0.059491 0.034758
39 88.895821 22.973202 7.706254 -2.796044 0.017420 0.730301
40 5.595504 0.000000 0.000002 -0.000000 0.000000 0.462512
41 0.0 0.0 0.0 0.0 0.0 0.0
42 92.364769 7.629373 -2.440338 0.001598 -0.000398 0.244346
43 4.012197 0.000000 0.000001 0.000000 -0.000000 0.345834
44 7.425244 0.000004 -0.000002 0.000000 -0.000000 3.141593
45 48.003227 -5.008471 6.468818 -2.046970 1.564393 1.171540
46 35.773144 -32.097885 -1.330358 -1.564896 -3.140380 -1.559171
47 26.836369 23.845192 -0.971343 1.564896 0.001213 -1.559171
48 -3.825688 0.003308 -0.381496 0.000000 0.000000 0.000000
49 31.302338 -0.003326 0.381510 -0.000000 0.000000 -0.000000
time 5
0 -3.891669 7.767428 107.010620 0.000000 0.000000 -1.570795
1 -0.000000 -0.000000 0.000000 -1.570795 -1.570796 0.000000
2 -0.000028 0.000031 18.595530 -0.156739 -2.712599 -0.874884
3 51.256512 0.000005 0.000006 0.000000 0.000000 -1.311379
4 42.401646 -0.000000 -0.000002 0.096476 -0.134205 -0.202652
5 23.783974 40.997154 -0.000001 0.000000 -0.000000 1.570796
6 4.401495 0.000000 -0.000003 0.000000 0.000000 0.000000
7 4.401491 -0.000000 0.000001 0.000000 0.000000 0.000000
8 0.0 0.0 0.0 0.0 0.0 0.0
9 0.000024 -0.000021 -18.595530 0.342222 2.852199 -0.407659
10 51.256508 0.000001 -0.000000 -0.000000 0.000000 -1.039861
11 42.401630 -0.000002 -0.000001 0.041715 0.113264 0.569378
12 23.783974 40.997158 -0.000000 0.000000 0.000000 1.570796
13 4.401493 0.000000 -0.000002 0.000000 0.000000 0.000000
14 4.401494 0.000000 0.000000 0.000000 0.000000 0.000000
15 0.0 0.0 0.0 0.0 0.0 0.0
16 11.444746 -0.019552 -0.003825 0.169042 -0.043626 0.511972
17 28.682190 -0.040630 0.004948 -0.117316 -0.003553 -0.254080
18 53.093945 -0.004328 0.000000 0.000000 -0.000000 0.030000
19 5.437289 -0.000000 -0.000000 0.170970 0.003505 -0.029375
20 0.0 0.0 0.0 0.0 0.0 0.0
21 7.285642 -7.278548 -0.000019 -0.000005 0.000001 -2.749229
22 16.349974 -0.013657 -0.000001 -0.000000 0.000001 -0.219299
23 0.0 0.0 0.0 0.0 0.0 0.0
24 -16.427887 0.510345 35.303997 -0.000014 -1.370796 3.110810
25 39.921345 0.000004 0.000010 0.302632 1.118399 0.208027
26 48.422325 -0.000005 -0.000002 -0.000000 0.000000 -0.459312
27 8.438260 0.000000 0.000000 -1.633447 0.047593 -0.103015
28 88.895821 22.973202 -7.706259 2.798015 -0.041447 0.663347
29 5.595500 0.000002 -0.000004 0.000000 -0.000000 0.462512
30 0.0 0.0 0.0 0.0 0.0 0.0
31 92.364769 7.629381 2.440336 -0.001598 0.000398 0.244346
32 4.012199 -0.000006 0.000001 -0.000000 0.000000 0.434716
33 7.425243 0.000005 -0.000001 0.000000 -0.000000 0.000000
34 48.724426 -4.691673 -7.699066 -0.671516 -1.576963 0.751473
35 -17.143814 0.532520 -35.127758 -0.000014 1.370796 3.110783
36 39.921352 0.000001 -0.000008 0.163883 -1.139720 0.048752
37 48.422314 -0.000001 -0.000005 0.000000 0.000000 -0.528402
38 8.438260 0.000000 0.000003 1.601154 -0.062181 0.113073
39 88.895828 22.973207 7.706263 -2.798015 0.041447 0.663347
40 5.595502 0.000002 0.000008 -0.000000 -0.000000 0.462512
41 0.0 0.0 0.0 0.0 0.0 0.0
42 92.364769 7.629385 -2.440332 0.001598 -0.000398 0.244346
43 4.012198 0.000002 -0.000001 0.000000 0.000000 0.434716
44 7.425242 -0.000005 -0.000001 0.000000 -0.000000 -3.141593
45 48.003227 -5.008461 6.468825 -2.046970 1.564393 1.171540
46 35.773148 -32.097885 -1.330357 -1.564896 -3.140380 -1.559171
47 26.836361 23.845194 -0.971343 1.564896 0.001213 -1.559171
48 -3.825684 0.003307 -0.381501 0.000000 -0.000000 -0.000000
49 31.302334 -0.003326 0.381501 -0.000000 -0.000000 -0.000000
time 6
0 0.000000 7.767428 96.137558 0.000000 0.000000 -1.570795
1 0.000000 0.000000 0.000000 -1.570795 -1.570796 0.000000
2 -0.000026 0.000030 18.595530 -0.088966 -2.774752 -0.843320
3 51.256508 -0.000004 0.000002 0.000000 -0.000000 -1.358248
4 42.401634 0.000001 0.000001 0.005519 -0.172058 0.469063
5 23.783974 40.997162 -0.000001 0.000000 -0.000000 1.570796
6 4.401491 0.000000 -0.000003 0.000000 0.000000 0.000000
7 4.401496 -0.000000 0.000002 0.000000 0.000000 0.000000
8 0.0 0.0 0.0 0.0 0.0 0.0
9 0.000026 -0.000022 -18.595530 0.360778 2.734092 -0.381254
10 51.256512 0.000000 0.000000 -0.000000 -0.000000 -1.420701
11 42.401634 -0.000002 0.000003 0.053060 0.214471 0.909537
12 23.783974 40.997162 0.000002 0.000000 0.000000 1.570796
13 4.401492 -0.000000 0.000002 0.000000 0.000000 0.000000
14 4.401493 0.000000 0.000000 0.000000 0.000000 0.000000
15 0.0 0.0 0.0 0.0 0.0 0.0
16 11.444748 -0.019552 -0.003825 0.169042 -0.043626 0.511972
17 28.680393 -0.040422 -0.000001 -0.000000 0.000001 -0.296706
18 53.093925 -0.004325 -0.000000 0.000000 -0.000000 0.030000
19 5.437292 -0.000000 -0.000000 0.174533 0.000000 0.012836
20 0.0 0.0 0.0 0.0 0.0 0.0
21 7.285632 -7.278543 -0.000020 -0.000005 0.000001 -2.749229
22 16.349976 -0.013654 -0.000001 -0.000000 0.000001 -0.219299
23 0.0 0.0 0.0 0.0 0.0 0.0
24 -16.427872 0.510343 35.303993 -0.000014 -1.370796 3.110810
25 39.921352 -0.000000 -0.000006 0.520939 1.156512 0.496906
26 48.422325 -0.000002 -0.000001 0.000000 -0.000000 -0.451598
27 8.438255 0.000000 -0.000001 -1.648338 0.041525 -0.131120
28 88.895813 22.973209 -7.706260 2.801595 -0.065289 0.596260
29 5.595499 0.000006 -0.000003 -0.000000 0.000000 0.462512
30 0.0 0.0 0.0 0.0 0.0 0.0
31 92.364761 7.629379 2.440334 -0.001598 0.000398 0.244346
32 4.012197 -0.000003 -0.000001 -0.000000 -0.000000 0.523599
33 7.425241 -0.000000 0.000001 0.000000 -0.000000 0.000000
34 48.724422 -4.691669 -7.699067 -0.671515 -1.576963 0.751473
35 -17.143808 0.532522 -35.127754 -0.000014 1.370796 3.110783
36 39.921356 0.000001 -0.000008 -0.016730 -1.105058 0.257997
37 48.422314 0.000000 0.000002 0.000000 -0.000000 -0.568187
38 8.438264 -0.000003 0.000003 1.596193 -0.064491 0.191413
39 88.895821 22.973219 7.706262 -2.801595 0.065289 0.596260
40 5.595503 -0.000003 0.000007 -0.000000 0.000000 0.462512
41 0.0 0.0 0.0 0.0 0.0 0.0
42 92.364761 7.629397 -2.440334 0.001598 -0.000398 0.244346
43 4.012198 0.000001 0.000000 -0.000000 -0.000000 0.523599
44 7.425245 0.000002 -0.000000 0.000000 -0.000000 -3.141593
45 48.003223 -5.008460 6.468824 -2.046970 1.564393 1.171540
46 35.773132 -32.097881 -1.330358 -1.564896 -3.140380 -1.559171
47 26.836367 23.845194 -0.971343 1.564896 0.001213 -1.559171
48 -3.825685 0.003307 -0.381492 0.000000 0.000000 0.000000
49 31.302332 -0.003326 0.381508 -0.000000 0.000000 -0.000000
end
