version 1
nodes
0 "Bip01" -1
1 "Bip01 Pelvis" 0
2 "Bip01 L Thigh" 1
3 "Bip01 L Calf" 2
4 "Bip01 L Foot" 3
5 "Bip01 L Toe0" 4
6 "Bip01 L Toe01" 5
7 "Bip01 L Toe02" 6
8 "Null 8" -1
9 "Bip01 R Thigh" 1
10 "Bip01 R Calf" 9
11 "Bip01 R Foot" 10
12 "Bip01 R Toe0" 11
13 "Bip01 R Toe01" 12
14 "Bip01 R Toe02" 13
15 "Null 15" -1
16 "Bip01 Spine" 1
17 "Bip01 Spine1" 16
18 "Bip01 Neck" 17
19 "Bip01 Head" 18
20 "Null 20" -1
21 "Bip01 Ponytail1" 19
22 "Bip01 Ponytail11" 21
23 "Null 23" -1
24 "Bip01 L Clavicle" 18
25 "Bip01 L UpperArm" 24
26 "Bip01 L Forearm" 25
27 "Bip01 L Hand" 26
28 "Bip01 L Finger0" 27
29 "Bip01 L Finger01" 28
30 "Null 30" -1
31 "Bip01 L Finger1" 27
32 "Bip01 L Finger11" 31
33 "Bip01 L Finger1Nub" 32
34 "hand_bofdgne01" 27
35 "Bip01 R Clavicle" 18
36 "Bip01 R UpperArm" 35
37 "Bip01 R Forearm" 36
38 "Bip01 R Hand" 37
39 "Bip01 R Finger0" 38
40 "Bip01 R Finger01" 39
41 "Null 41" -1
42 "Bip01 R Finger1" 38
43 "Bip01 R Finger11" 42
44 "Bip01 R Finger1Nub" 43
45 "knife_gdf" 38
46 "Bone03" 17
47 "Box04" 17
48 "Box01" 47
49 "eyebone01" 48
end
skeleton
time 0
0 0.000000 7.767428 92.907204 0.000000 0.000000 -1.570795
1 0.000000 0.000000 0.000000 -1.570795 -1.570796 0.000000
2 -0.000026 0.000030 18.595530 -0.088765 -2.774887 -0.843333
3 51.256512 0.000001 0.000003 0.000000 0.000000 -1.358248
4 42.401634 0.000004 0.000002 0.005288 -0.172125 0.469103
5 23.783972 40.997162 -0.000001 -0.000000 0.000000 1.570796
6 4.401492 0.000000 0.000004 0.000000 0.000000 0.000000
7 4.401490 -0.000000 -0.000002 0.000000 0.000000 0.000000
8 0.0 0.0 0.0 0.0 0.0 0.0
9 0.000026 -0.000022 -18.595530 0.360893 2.734021 -0.381225
10 51.256504 -0.000001 -0.000001 -0.000000 0.000000 -1.420701
11 42.401630 0.000002 0.000001 0.052930 0.214486 0.909509
12 23.783974 40.997162 0.000003 0.000000 0.000000 1.570796
13 4.401495 0.000000 0.000002 0.000000 0.000000 0.000000
14 4.401495 0.000000 -0.000003 0.000000 0.000000 0.000000
15 0.0 0.0 0.0 0.0 0.0 0.0
16 11.444740 -0.019552 -0.003825 0.169042 -0.043626 0.511972
17 28.680405 -0.040430 0.000000 -0.000000 0.000001 -0.296706
18 53.093933 -0.004326 -0.000000 0.000000 -0.000000 0.030000
19 5.437289 -0.000001 0.000000 0.174533 0.000000 0.012836
20 0.0 0.0 0.0 0.0 0.0 0.0
21 7.285626 -7.278543 -0.000019 -0.000005 0.000001 -2.749229
22 16.349976 -0.013651 -0.000001 -0.000000 0.000001 -0.219299
23 0.0 0.0 0.0 0.0 0.0 0.0
24 -16.427874 0.510341 35.303993 -0.000014 -1.370796 3.110810
25 39.921352 -0.000001 0.000001 0.520939 1.156513 0.496906
26 48.422318 0.000002 0.000001 0.000000 -0.000000 -0.451598
27 8.438255 0.000002 0.000001 -1.648338 0.041525 -0.131120
28 88.895813 22.973207 -7.706261 2.801595 -0.065289 0.596260
29 5.595500 0.000007 -0.000004 -0.000000 0.000000 0.462512
30 0.0 0.0 0.0 0.0 0.0 0.0
31 92.364761 7.629378 2.440333 -0.001598 0.000398 0.244346
32 4.012196 -0.000005 -0.000000 -0.000000 -0.000000 0.523599
33 7.425243 0.000002 0.000000 0.000000 -0.000000 0.000000
34 48.724422 -4.691670 -7.699067 -0.671515 -1.576963 0.751473
35 -17.143810 0.532521 -35.127754 -0.000014 1.370796 3.110783
36 39.921356 -0.000001 -0.000008 -0.016730 -1.105058 0.257997
37 48.422314 0.000000 -0.000003 0.000000 -0.000000 -0.568187
38 8.438263 0.000000 -0.000001 1.596193 -0.064491 0.191413
39 88.895821 22.973223 7.706261 -2.801595 0.065289 0.596260
40 5.595502 -0.000002 0.000006 -0.000000 0.000000 0.462512
41 0.0 0.0 0.0 0.0 0.0 0.0
42 92.364769 7.629402 -2.440335 0.001598 -0.000398 0.244346
43 4.012198 -0.000002 0.000000 -0.000000 -0.000000 0.523599
44 7.425245 -0.000002 0.000000 0.000000 -0.000000 -3.141593
45 48.003227 -5.008455 6.468823 -2.046970 1.564393 1.171540
46 35.773140 -32.097885 -1.330357 -1.564896 -3.140380 -1.559171
47 26.836374 23.845192 -0.971343 1.564896 0.001213 -1.559171
48 -3.825685 0.003307 -0.381501 0.000000 0.000000 0.000000
49 31.302332 -0.003325 0.381513 -0.000000 -0.000000 -0.000000
time 1
0 -17.626392 23.206852 85.007553 0.000000 0.000000 -1.570795
1 0.000001 -0.000001 0.000000 -1.570795 -1.570796 0.000000
2 -0.000024 0.000029 18.595530 0.083193 -2.623075 -1.081447
3 51.256516 0.000004 0.000006 -0.000000 -0.000000 -1.204769
4 42.401638 0.000002 0.000003 0.098291 -0.310458 0.077096
5 23.783972 40.997158 0.000002 -0.000000 0.000000 1.570796
6 4.401495 0.000000 0.000002 0.000000 0.000000 0.000000
7 4.401493 -0.000000 -0.000004 0.000000 0.000000 0.000000
8 0.0 0.0 0.0 0.0 0.0 0.0
9 0.000027 -0.000024 -18.595531 0.499064 2.900198 -0.429767
10 51.256512 -0.000002 -0.000003 -0.000000 0.000000 -1.673524
11 42.401630 -0.000004 0.000005 -0.000067 -0.008603 1.184387
12 23.783972 40.997162 0.000003 0.000000 0.000000 1.570796
13 4.401495 0.000000 0.000001 0.000000 0.000000 0.000000
14 4.401493 0.000000 0.000000 0.000000 0.000000 0.000000
15 0.0 0.0 0.0 0.0 0.0 0.0
16 11.437716 -0.021091 -0.007731 0.350269 -0.155517 0.137624
17 28.667501 -0.033176 -0.006898 0.164247 0.059298 -0.640890
18 53.093945 -0.004320 -0.000001 0.000000 -0.000000 0.030000
19 5.437290 -0.000003 0.000001 -0.153664 0.246987 0.644149
20 0.0 0.0 0.0 0.0 0.0 0.0
21 7.285630 -7.278551 -0.000017 -0.000005 0.000001 -2.749229
22 16.349968 -0.013654 -0.000002 -0.000000 0.000001 -0.219299
23 0.0 0.0 0.0 0.0 0.0 0.0
24 -16.427887 0.510338 35.303997 0.414808 -1.352821 2.704749
25 39.921352 0.000003 0.000005 1.289601 0.508053 0.951804
26 48.422318 0.000003 -0.000003 -0.000000 0.000000 -0.302054
27 8.438265 -0.000007 -0.000004 -1.648338 0.041525 -0.131120
28 88.895821 22.973221 -7.706257 2.801595 -0.065289 0.596260
29 5.595500 0.000006 -0.000006 -0.000000 0.000000 0.462512
30 0.0 0.0 0.0 0.0 0.0 0.0
31 92.364769 7.629390 2.440340 -0.001598 0.000398 0.244346
32 4.012197 0.000001 -0.000003 0.000000 0.000000 0.523599
33 7.425243 -0.000000 0.000001 0.000000 -0.000000 0.000000
34 48.724422 -4.691667 -7.699068 -0.671516 -1.576963 0.751474
35 -17.143816 0.532516 -35.127758 1.071149 1.170543 -2.136620
36 39.921349 -0.000005 -0.000009 -0.326590 -0.966113 0.455834
37 48.422321 -0.000001 -0.000002 0.000000 0.000000 -0.568187
38 8.438254 -0.000003 0.000002 1.601715 -0.061889 0.104010
39 88.895821 22.973206 7.706264 -2.801595 0.065289 0.596260
40 5.595500 0.000004 -0.000000 0.000000 0.000000 0.462512
41 0.0 0.0 0.0 0.0 0.0 0.0
42 92.364761 7.629381 -2.440332 0.001598 -0.000398 0.244346
43 4.012197 -0.000002 -0.000004 0.000000 -0.000000 0.523599
44 7.425243 0.000001 0.000001 0.000000 0.000000 3.141593
45 48.003223 -5.008467 6.468822 -2.046970 1.564393 1.171540
46 35.773132 -32.097881 -1.330355 -1.564896 -3.140380 -1.559171
47 26.836361 23.845190 -0.971343 1.564896 0.001213 -1.559171
48 -3.825684 0.003306 -0.381504 0.000000 -0.349066 -0.000000
49 31.302328 -0.003325 0.381510 0.000000 -0.000000 -0.000000
time 2
0 0.000000 7.767428 92.907204 0.000000 0.000000 -1.570795
1 0.000000 0.000000 0.000000 -1.570795 -1.570796 0.000000
2 -0.000026 0.000030 18.595530 -0.088765 -2.774887 -0.843333
3 51.256512 0.000001 0.000003 0.000000 0.000000 -1.358248
4 42.401634 0.000004 0.000002 0.005288 -0.172125 0.469103
5 23.783972 40.997162 -0.000001 -0.000000 0.000000 1.570796
6 4.401492 0.000000 0.000004 0.000000 0.000000 0.000000
7 4.401490 -0.000000 -0.000002 0.000000 0.000000 0.000000
8 0.0 0.0 0.0 0.0 0.0 0.0
9 0.000026 -0.000022 -18.595530 0.360893 2.734021 -0.381225
10 51.256504 -0.000001 -0.000001 -0.000000 0.000000 -1.420701
11 42.401630 0.000002 0.000001 0.052930 0.214486 0.909509
12 23.783974 40.997162 0.000003 0.000000 0.000000 1.570796
13 4.401495 0.000000 0.000002 0.000000 0.000000 0.000000
14 4.401495 0.000000 -0.000003 0.000000 0.000000 0.000000
15 0.0 0.0 0.0 0.0 0.0 0.0
16 11.444740 -0.019552 -0.003825 0.169042 -0.043626 0.511972
17 28.680405 -0.040430 0.000000 -0.000000 0.000001 -0.296706
18 53.093933 -0.004326 -0.000000 0.000000 -0.000000 0.030000
19 5.437289 -0.000001 0.000000 0.174533 0.000000 0.012836
20 0.0 0.0 0.0 0.0 0.0 0.0
21 7.285626 -7.278543 -0.000019 -0.000005 0.000001 -2.749229
22 16.349976 -0.013651 -0.000001 -0.000000 0.000001 -0.219299
23 0.0 0.0 0.0 0.0 0.0 0.0
24 -16.427874 0.510341 35.303993 -0.000014 -1.370796 3.110810
25 39.921352 -0.000001 0.000001 0.520939 1.156513 0.496906
26 48.422318 0.000002 0.000001 0.000000 -0.000000 -0.451598
27 8.438255 0.000002 0.000001 -1.648338 0.041525 -0.131120
28 88.895813 22.973207 -7.706261 2.801595 -0.065289 0.596260
29 5.595500 0.000007 -0.000004 -0.000000 0.000000 0.462512
30 0.0 0.0 0.0 0.0 0.0 0.0
31 92.364761 7.629378 2.440333 -0.001598 0.000398 0.244346
32 4.012196 -0.000005 -0.000000 -0.000000 -0.000000 0.523599
33 7.425243 0.000002 0.000000 0.000000 -0.000000 0.000000
34 48.724422 -4.691670 -7.699067 -0.671515 -1.576963 0.751473
35 -17.143810 0.532521 -35.127754 -0.000014 1.370796 3.110783
36 39.921356 -0.000001 -0.000008 -0.016730 -1.105058 0.257997
37 48.422314 0.000000 -0.000003 0.000000 -0.000000 -0.568187
38 8.438263 0.000000 -0.000001 1.596193 -0.064491 0.191413
39 88.895821 22.973223 7.706261 -2.801595 0.065289 0.596260
40 5.595502 -0.000002 0.000006 -0.000000 0.000000 0.462512
41 0.0 0.0 0.0 0.0 0.0 0.0
42 92.364769 7.629402 -2.440335 0.001598 -0.000398 0.244346
43 4.012198 -0.000002 0.000000 -0.000000 -0.000000 0.523599
44 7.425245 -0.000002 0.000000 0.000000 -0.000000 -3.141593
45 48.003227 -5.008455 6.468823 -2.046970 1.564393 1.171540
46 35.773140 -32.097885 -1.330357 -1.564896 -3.140380 -1.559171
47 26.836374 23.845192 -0.971343 1.564896 0.001213 -1.559171
48 -3.825685 0.003307 -0.381501 0.000000 0.000000 0.000000
49 31.302332 -0.003325 0.381515 -0.000000 -0.000000 -0.000000
end
