version 1
nodes
0 "Bip01" -1
1 "Bip01 Pelvis" 0
2 "Bip01 L Thigh" 1
3 "Bip01 L Calf" 2
4 "Bip01 L Foot" 3
5 "Bip01 L Toe0" 4
6 "Bip01 L Toe01" 5
7 "Bip01 L Toe02" 6
8 "Null 8" -1
9 "Bip01 R Thigh" 1
10 "Bip01 R Calf" 9
11 "Bip01 R Foot" 10
12 "Bip01 R Toe0" 11
13 "Bip01 R Toe01" 12
14 "Bip01 R Toe02" 13
15 "Null 15" -1
16 "Bip01 Spine" 1
17 "Bip01 Spine1" 16
18 "Bip01 Neck" 17
19 "Bip01 Head" 18
20 "Null 20" -1
21 "Bip01 Ponytail1" 19
22 "Bip01 Ponytail11" 21
23 "Null 23" -1
24 "Bip01 L Clavicle" 18
25 "Bip01 L UpperArm" 24
26 "Bip01 L Forearm" 25
27 "Bip01 L Hand" 26
28 "Bip01 L Finger0" 27
29 "Bip01 L Finger01" 28
30 "Null 30" -1
31 "Bip01 L Finger1" 27
32 "Bip01 L Finger11" 31
33 "Bip01 L Finger1Nub" 32
34 "hand_bofdgne01" 27
35 "Bip01 R Clavicle" 18
36 "Bip01 R UpperArm" 35
37 "Bip01 R Forearm" 36
38 "Bip01 R Hand" 37
39 "Bip01 R Finger0" 38
40 "Bip01 R Finger01" 39
41 "Null 41" -1
42 "Bip01 R Finger1" 38
43 "Bip01 R Finger11" 42
44 "Bip01 R Finger1Nub" 43
45 "knife_gdf" 38
46 "Bone03" 17
47 "Box04" 17
48 "Box01" 47
49 "eyebone01" 48
end
skeleton
time 0
0 0.000000 7.767428 94.293533 0.000000 0.000000 -1.570795
1 0.000000 0.000000 0.000000 -1.570795 -1.570796 0.000000
2 -0.000026 0.000030 18.595530 -0.088765 -2.774887 -0.843333
3 51.256508 -0.000001 0.000003 0.000000 0.000000 -1.358248
4 42.401638 0.000002 -0.000002 0.005288 -0.172125 0.469103
5 23.783972 40.997162 0.000003 -0.000000 0.000000 1.570796
6 4.401493 -0.000000 0.000003 0.000000 0.000000 0.000000
7 4.401491 0.000000 -0.000002 0.000000 0.000000 0.000000
8 0.0 0.0 0.0 0.0 0.0 0.0
9 0.000026 -0.000022 -18.595530 0.360893 2.734021 -0.381225
10 51.256512 -0.000002 -0.000002 -0.000000 0.000000 -1.420701
11 42.401634 0.000001 0.000004 0.052930 0.214486 0.909509
12 23.783974 40.997158 -0.000002 -0.000000 0.000000 1.570796
13 4.401494 0.000000 0.000002 0.000000 0.000000 0.000000
14 4.401495 -0.000000 -0.000003 0.000000 0.000000 0.000000
15 0.0 0.0 0.0 0.0 0.0 0.0
16 11.444748 -0.019552 -0.003825 0.169042 -0.043626 0.511972
17 28.680395 -0.040419 -0.000001 -0.000000 0.000001 -0.296706
18 53.093925 -0.004326 -0.000001 0.000000 -0.000000 0.030000
19 5.437294 -0.000000 -0.000000 0.174533 0.000000 0.012836
20 0.0 0.0 0.0 0.0 0.0 0.0
21 7.285630 -7.278543 -0.000020 -0.000005 0.000001 -2.749229
22 16.349972 -0.013654 -0.000001 -0.000000 0.000001 -0.219299
23 0.0 0.0 0.0 0.0 0.0 0.0
24 -16.427870 0.510342 35.303993 -0.000014 -1.370796 3.110810
25 39.921352 -0.000001 -0.000010 0.520939 1.156513 0.496906
26 48.422314 -0.000001 -0.000002 0.000000 -0.000000 -0.451598
27 8.438255 -0.000001 -0.000003 -1.648338 0.041525 -0.131120
28 88.895813 22.973206 -7.706260 2.801595 -0.065289 0.596260
29 5.595498 0.000007 -0.000002 -0.000000 0.000000 0.462512
30 0.0 0.0 0.0 0.0 0.0 0.0
31 92.364761 7.629376 2.440334 -0.001598 0.000398 0.244346
32 4.012198 -0.000006 -0.000000 -0.000000 -0.000000 0.523599
33 7.425244 0.000000 -0.000000 0.000000 -0.000000 0.000000
34 48.724422 -4.691672 -7.699067 -0.671515 -1.576963 0.751473
35 -17.143806 0.532522 -35.127754 -0.000014 1.370796 3.110783
36 39.921356 -0.000001 -0.000005 -0.016730 -1.105058 0.257997
37 48.422321 -0.000000 -0.000002 0.000000 -0.000000 -0.568187
38 8.438259 -0.000001 -0.000001 1.596193 -0.064491 0.191413
39 88.895821 22.973221 7.706261 -2.801595 0.065289 0.596260
40 5.595503 -0.000004 0.000007 -0.000000 0.000000 0.462512
41 0.0 0.0 0.0 0.0 0.0 0.0
42 92.364769 7.629399 -2.440335 0.001598 -0.000398 0.244346
43 4.012198 0.000004 0.000000 -0.000000 -0.000000 0.523599
44 7.425244 0.000004 0.000000 0.000000 -0.000000 -3.141593
45 48.003227 -5.008458 6.468823 -2.046970 1.564393 1.171540
46 35.773129 -32.097885 -1.330357 -1.564896 -3.140380 -1.559171
47 26.836365 23.845192 -0.971344 1.564896 0.001213 -1.559171
48 -3.825685 0.003307 -0.381496 0.000000 0.000000 0.000000
49 31.302332 -0.003325 0.381519 -0.000000 -0.000000 -0.000000
time 1
0 -4.496028 7.974961 93.995262 0.001498 -0.062322 -1.581476
1 -0.000000 -0.000000 -0.000001 -1.570795 -1.570796 0.000000
2 -0.000029 0.000030 18.595528 -0.080480 -2.718630 -0.753811
3 51.256508 0.000002 0.000007 0.000000 -0.000000 -1.285925
4 42.401634 -0.000001 0.000005 0.025993 -0.225258 0.421063
5 23.783972 40.997162 0.000000 0.000000 -0.000000 1.570796
6 4.401493 -0.000000 0.000001 0.000000 0.000000 0.000000
7 4.401499 0.000000 -0.000001 0.000000 0.000000 0.000000
8 0.0 0.0 0.0 0.0 0.0 0.0
9 0.000024 -0.000022 -18.595528 0.404789 2.774194 -0.319009
10 51.256508 -0.000003 -0.000004 -0.000000 0.000000 -1.448869
11 42.401627 -0.000002 0.000001 0.021739 0.159272 0.949483
12 23.783974 40.997158 -0.000000 0.000000 -0.000000 1.570796
13 4.401493 -0.000000 -0.000000 0.000000 0.000000 0.000000
14 4.401496 0.000000 0.000002 0.000000 0.000000 0.000000
15 0.0 0.0 0.0 0.0 0.0 0.0
16 11.442714 -0.020809 -0.002290 0.101205 -0.053670 0.408682
17 28.680046 -0.040273 0.001852 -0.043914 -0.059107 -0.303177
18 53.093937 -0.004329 -0.000001 0.000000 -0.000000 0.030000
19 5.437285 -0.000001 -0.000000 0.293558 0.089701 0.126172
20 0.0 0.0 0.0 0.0 0.0 0.0
21 7.285624 -7.278541 -0.000020 -0.000005 0.000001 -2.749229
22 16.349968 -0.013651 -0.000000 -0.000000 0.000001 -0.219299
23 0.0 0.0 0.0 0.0 0.0 0.0
24 -16.427881 0.510344 35.303993 -0.000014 -1.370796 3.110810
25 39.921345 0.000001 0.000009 0.488659 1.082411 0.506178
26 48.422314 0.000002 -0.000002 0.000000 -0.000000 -0.695877
27 8.438257 0.000000 -0.000002 -1.657324 0.161367 -0.157281
28 88.895821 22.973207 -7.706250 2.801595 -0.065289 0.596260
29 5.595502 0.000002 -0.000002 0.000000 0.000000 0.462512
30 0.0 0.0 0.0 0.0 0.0 0.0
31 92.364777 7.629388 2.440341 -0.001598 0.000398 0.244346
32 4.012197 -0.000001 0.000002 0.000000 0.000000 0.523599
33 7.425242 -0.000003 0.000000 -0.000000 0.000000 -0.000000
34 48.724426 -4.691661 -7.699060 -0.671503 -1.576944 0.751460
35 -17.143812 0.532522 -35.127758 -0.000046 1.510558 3.110750
36 39.921349 -0.000001 -0.000011 0.484137 -0.621940 0.341316
37 48.422314 0.000011 0.000010 0.000000 0.000000 -0.644655
38 8.438265 -0.000001 0.000004 1.550657 -0.270730 -0.552175
39 88.895813 22.973219 7.706288 -2.801595 0.065289 0.596260
40 5.595499 0.000004 -0.000003 0.000000 0.000000 0.462512
41 0.0 0.0 0.0 0.0 0.0 0.0
42 92.364761 7.629394 -2.440300 0.001598 -0.000398 0.244345
43 4.012197 0.000010 0.000003 0.000000 -0.000000 0.523599
44 7.425243 -0.000006 0.000002 0.000000 0.000000 3.141593
45 48.003220 -5.008451 6.468834 -2.046972 1.564393 1.171538
46 35.773151 -32.097889 -1.330358 -1.564896 -3.140380 -1.559171
47 26.836357 23.845194 -0.971343 1.564896 0.001213 -1.559171
48 -3.825685 0.003308 -0.381496 0.024788 0.141274 -0.084780
49 31.302332 -0.003324 0.381519 -0.000000 -0.000000 -0.000000
time 2
0 -9.877025 8.648355 94.088493 0.005966 -0.129561 -1.605245
1 0.000000 0.000000 0.000002 -1.570795 -1.570796 0.000000
2 -0.000026 0.000029 18.595531 -0.059693 -2.653975 -0.685491
3 51.256516 0.000007 -0.000002 -0.000000 0.000000 -1.250492
4 42.401638 -0.000002 -0.000004 0.043476 -0.286452 0.359620
5 23.783972 40.997162 -0.000002 -0.000000 -0.000000 1.570796
6 4.401494 -0.000000 -0.000003 0.000000 0.000000 0.000000
7 4.401494 0.000000 0.000004 0.000000 0.000000 0.000000
8 0.0 0.0 0.0 0.0 0.0 0.0
9 0.000026 -0.000022 -18.595533 0.461054 2.825944 -0.251620
10 51.256512 0.000006 -0.000002 -0.000000 0.000000 -1.459850
11 42.401630 0.000001 0.000001 -0.028852 0.087630 0.981149
12 23.783972 40.997158 0.000001 -0.000000 0.000000 1.570796
13 4.401492 0.000000 0.000004 0.000000 0.000000 0.000000
14 4.401493 0.000000 -0.000001 0.000000 0.000000 0.000000
15 0.0 0.0 0.0 0.0 0.0 0.0
16 11.440103 -0.021878 -0.000761 0.034020 -0.074702 0.287663
17 28.679613 -0.040003 0.003715 -0.088697 -0.119829 -0.307125
18 53.093929 -0.004330 0.000003 0.000000 -0.000000 0.030000
19 5.437295 0.000002 -0.000001 0.432821 0.163464 0.268190
20 0.0 0.0 0.0 0.0 0.0 0.0
21 7.285617 -7.278541 -0.000021 -0.000005 0.000001 -2.749229
22 16.349976 -0.013656 -0.000001 -0.000000 0.000001 -0.219299
23 0.0 0.0 0.0 0.0 0.0 0.0
24 -16.427874 0.510348 35.303997 -0.000014 -1.370796 3.110810
25 39.921352 0.000001 0.000000 0.487881 1.029748 0.529565
26 48.422314 0.000001 -0.000000 -0.000000 -0.000000 -0.943573
27 8.438258 0.000002 -0.000003 -1.681030 0.285157 -0.206484
28 88.895828 22.973211 -7.706270 2.801595 -0.065289 0.596260
29 5.595503 0.000001 -0.000001 0.000000 -0.000000 0.462512
30 0.0 0.0 0.0 0.0 0.0 0.0
31 92.364777 7.629382 2.440323 -0.001598 0.000398 0.244346
32 4.012200 -0.000002 -0.000007 -0.000000 -0.000000 0.523599
33 7.425245 0.000001 0.000002 0.000000 0.000000 -0.000000
34 48.724430 -4.691665 -7.699071 -0.671519 -1.576963 0.751477
35 -17.143805 0.532525 -35.127762 -3.141548 1.508997 -0.030751
36 39.921356 0.000002 0.000003 0.814091 -0.216261 0.549059
37 48.422321 -0.000004 -0.000004 0.000000 0.000000 -0.711425
38 8.438253 0.000004 -0.000002 1.643855 -0.419873 -1.235005
39 88.895828 22.973219 7.706279 -2.801595 0.065289 0.596260
40 5.595501 0.000000 -0.000003 0.000000 -0.000000 0.462512
41 0.0 0.0 0.0 0.0 0.0 0.0
42 92.364784 7.629379 -2.440314 0.001598 -0.000398 0.244346
43 4.012212 0.000005 -0.000016 -0.000000 -0.000000 0.523599
44 7.425243 0.000004 0.000006 -0.000000 -0.000000 -3.141593
45 48.003235 -5.008466 6.468832 -2.046973 1.564393 1.171538
46 35.773140 -32.097889 -1.330357 -1.564896 -3.140380 -1.559171
47 26.836361 23.845192 -0.971342 1.564896 0.001213 -1.559171
48 -3.825682 0.003308 -0.381502 0.041573 0.294645 -0.167742
49 31.302336 -0.003324 0.381496 -0.000000 0.000000 -0.000000
time 3
0 -15.258021 9.321750 94.279579 0.012108 -0.196698 -1.629567
1 0.000000 -0.000000 0.000002 -1.570795 -1.570796 0.000000
2 -0.000024 0.000029 18.595530 0.007534 -2.573041 -0.731247
3 51.256512 -0.000005 0.000004 0.000000 0.000000 -1.381473
4 42.401634 -0.000003 -0.000002 0.105595 -0.339461 0.300185
5 23.783972 40.997162 -0.000003 0.000000 0.000000 1.570796
6 4.401492 -0.000000 0.000002 0.000000 0.000000 0.000000
7 4.401494 -0.000000 -0.000001 0.000000 0.000000 0.000000
8 0.0 0.0 0.0 0.0 0.0 0.0
9 0.000024 -0.000022 -18.595530 0.520688 2.880303 -0.174719
10 51.256508 -0.000001 -0.000001 -0.000000 -0.000000 -1.452019
11 42.401627 -0.000001 -0.000001 -0.082990 0.018300 1.008711
12 23.783970 40.997162 0.000001 0.000000 0.000000 1.570796
13 4.401492 0.000000 0.000004 0.000000 0.000000 0.000000
14 4.401494 0.000000 -0.000001 0.000000 0.000000 0.000000
15 0.0 0.0 0.0 0.0 0.0 0.0
16 11.437322 -0.022522 0.000705 -0.030349 -0.103629 0.168080
17 28.679075 -0.039611 0.005538 -0.133650 -0.180665 -0.308344
18 53.093922 -0.004335 0.000003 0.000000 -0.000000 0.030000
19 5.437296 0.000001 -0.000002 0.587483 0.209616 0.418522
20 0.0 0.0 0.0 0.0 0.0 0.0
21 7.285614 -7.278543 -0.000020 -0.000005 0.000001 -2.749229
22 16.349968 -0.013649 -0.000000 -0.000000 0.000001 -0.219299
23 0.0 0.0 0.0 0.0 0.0 0.0
24 -16.427870 0.510346 35.303997 -0.000014 -1.370796 3.110810
25 39.921356 0.000002 0.000011 0.488999 0.982130 0.558833
26 48.422321 0.000001 0.000002 -0.000000 0.000000 -1.191269
27 8.438260 -0.000002 -0.000003 -1.712360 0.407720 -0.261026
28 88.895821 22.973200 -7.706264 2.801595 -0.065289 0.596260
29 5.595502 0.000002 -0.000002 0.000000 -0.000000 0.462512
30 0.0 0.0 0.0 0.0 0.0 0.0
31 92.364769 7.629378 2.440326 -0.001598 0.000398 0.244346
32 4.012203 -0.000004 -0.000009 0.000000 -0.000000 0.523599
33 7.425244 0.000002 0.000010 -0.000000 0.000000 -0.000000
34 48.724422 -4.691672 -7.699073 -0.671517 -1.576963 0.751474
35 -17.143806 0.532526 -35.127766 -3.141560 1.484453 -0.030764
36 39.921352 0.000000 0.000003 0.775451 -0.180893 0.488917
37 48.422314 0.000006 -0.000013 -0.000000 -0.000000 -0.724853
38 8.438268 0.000001 0.000007 1.660256 -0.358374 -1.341843
39 88.895828 22.973204 7.706255 -2.801595 0.065289 0.596260
40 5.595500 -0.000013 0.000006 0.000000 0.000000 0.462512
41 0.0 0.0 0.0 0.0 0.0 0.0
42 92.364769 7.629386 -2.440336 0.001598 -0.000398 0.244346
43 4.012201 0.000012 0.000005 0.000000 0.000000 0.523599
44 7.425246 0.000007 -0.000006 0.000000 -0.000000 3.141593
45 48.003223 -5.008462 6.468825 -2.046969 1.564393 1.171541
46 35.773144 -32.097885 -1.330358 -1.564896 -3.140380 -1.559171
47 26.836353 23.845192 -0.971343 1.564896 0.001213 -1.559171
48 -3.825683 0.003309 -0.381499 0.038422 0.427550 -0.254960
49 31.302334 -0.003318 0.381515 -0.000000 -0.000000 -0.000000
time 4
0 -19.754049 9.529284 94.274933 0.016681 -0.258917 -1.641348
1 -0.000001 0.000000 0.000000 -1.570795 -1.570796 0.000000
2 -0.000026 0.000029 18.595531 0.109433 -2.490685 -0.849295
3 51.256519 0.000008 0.000005 0.000000 0.000000 -1.567196
4 42.401634 -0.000005 -0.000001 0.219570 -0.360017 0.217530
5 23.783972 40.997166 0.000001 0.000000 -0.000000 1.570796
6 4.401492 -0.000000 -0.000002 0.000000 0.000000 0.000000
7 4.401494 0.000000 0.000002 0.000000 0.000000 0.000000
8 0.0 0.0 0.0 0.0 0.0 0.0
9 0.000020 -0.000024 -18.595530 0.572640 2.928311 -0.092235
10 51.256512 -0.000003 -0.000003 0.000000 0.000000 -1.434962
11 42.401630 -0.000001 0.000001 -0.123354 -0.032608 1.036023
12 23.783974 40.997162 -0.000001 -0.000000 0.000000 1.570796
13 4.401494 0.000000 -0.000003 0.000000 0.000000 0.000000
14 4.401495 0.000000 0.000005 0.000000 0.000000 0.000000
15 0.0 0.0 0.0 0.0 0.0 0.0
16 11.434836 -0.022715 0.002083 -0.091515 -0.134706 0.068504
17 28.678507 -0.039121 0.007268 -0.178071 -0.240108 -0.306832
18 53.093922 -0.004335 0.000007 0.000000 -0.000000 0.030000
19 5.437285 0.000001 -0.000002 0.745364 0.226865 0.552332
20 0.0 0.0 0.0 0.0 0.0 0.0
21 7.285639 -7.278540 -0.000019 -0.000005 0.000001 -2.749229
22 16.349976 -0.013647 0.000001 -0.000000 0.000001 -0.219299
23 0.0 0.0 0.0 0.0 0.0 0.0
24 -16.427881 0.510345 35.303993 -0.000014 -1.370796 3.110810
25 39.921345 -0.000003 0.000018 0.469560 0.918485 0.588296
26 48.422314 0.000001 -0.000000 0.000000 0.000000 -1.435547
27 8.438262 -0.000008 -0.000000 -1.738175 0.525712 -0.299126
28 88.895813 22.973202 -7.706263 2.801595 -0.065289 0.596260
29 5.595501 -0.000002 -0.000000 -0.000000 0.000000 0.462512
30 0.0 0.0 0.0 0.0 0.0 0.0
31 92.364769 7.629369 2.440335 -0.001598 0.000398 0.244346
32 4.012202 0.000002 -0.000004 -0.000000 0.000000 0.523599
33 7.425244 -0.000001 0.000004 0.000000 -0.000000 0.000000
34 48.724422 -4.691671 -7.699068 -0.671515 -1.576963 0.751473
35 -17.143812 0.532528 -35.127766 -3.141558 1.489453 -0.030762
36 39.921349 -0.000004 0.000004 0.637604 -0.272923 0.351230
37 48.422321 0.000003 -0.000011 0.000000 -0.000000 -0.722118
38 8.438255 0.000004 0.000001 1.687192 -0.453055 -1.382747
39 88.895828 22.973209 7.706248 -2.801595 0.065289 0.596260
40 5.595496 -0.000007 0.000001 0.000000 0.000000 0.462512
41 0.0 0.0 0.0 0.0 0.0 0.0
42 92.364777 7.629391 -2.440346 0.001598 -0.000398 0.244346
43 4.012193 0.000001 0.000000 -0.000000 -0.000000 0.523599
44 7.425245 -0.000011 0.000002 -0.000000 -0.000000 -3.141593
45 48.003227 -5.008462 6.468813 -2.046973 1.564393 1.171538
46 35.773132 -32.097893 -1.330353 -1.564896 -3.140380 -1.559171
47 26.836359 23.845192 -0.971340 1.564896 0.001213 -1.559171
48 -3.825689 0.003306 -0.381493 0.007312 0.505856 -0.352258
49 31.302336 -0.003317 0.381501 -0.000000 -0.000000 -0.000000
time 5
0 -22.480139 8.805094 93.780914 0.014630 -0.311503 -1.626614
1 -0.000000 -0.000000 -0.000000 -1.570795 -1.570796 0.000000
2 -0.000026 0.000029 18.595530 0.238354 -2.448491 -0.993304
3 51.256504 0.000005 -0.000003 0.000000 0.000000 -1.735869
4 42.401634 0.000000 0.000003 0.331741 -0.347690 0.141080
5 23.783974 40.997166 0.000001 -0.000000 -0.000000 1.570796
6 4.401491 -0.000001 0.000003 0.000000 0.000000 0.000000
7 4.401498 0.000002 0.000000 0.000000 0.000000 0.000000
8 0.0 0.0 0.0 0.0 0.0 0.0
9 0.000030 -0.000021 -18.595531 0.606989 2.961643 -0.012922
10 51.256508 -0.000001 -0.000002 -0.000000 -0.000000 -1.426171
11 42.401630 -0.000000 -0.000001 -0.130574 -0.053776 1.067247
12 23.783979 40.997162 -0.000004 0.000000 -0.000000 1.570796
13 4.401496 0.000000 -0.000002 0.000000 0.000000 0.000000
14 4.401495 -0.000000 0.000000 0.000000 0.000000 0.000000
15 0.0 0.0 0.0 0.0 0.0 0.0
16 11.433178 -0.022586 0.003409 -0.151121 -0.160117 0.006936
17 28.677874 -0.038556 0.008867 -0.221185 -0.296659 -0.302800
18 53.093929 -0.004334 -0.000000 0.000000 -0.000000 0.030000
19 5.437300 0.000002 0.000000 0.893063 0.226162 0.644983
20 0.0 0.0 0.0 0.0 0.0 0.0
21 7.285616 -7.278540 -0.000020 -0.000005 0.000001 -2.749229
22 16.349974 -0.013651 0.000002 -0.000000 0.000001 -0.219299
23 0.0 0.0 0.0 0.0 0.0 0.0
24 -16.427868 0.510351 35.303993 -0.000014 -1.370797 3.110810
25 39.921349 -0.000004 0.000009 0.416885 0.815096 0.620044
26 48.422314 0.000001 0.000001 -0.000000 0.000000 -1.672989
27 8.438260 -0.000001 0.000001 -1.736964 0.637292 -0.291851
28 88.895813 22.973200 -7.706256 2.801595 -0.065289 0.596260
29 5.595503 0.000007 -0.000007 0.000000 0.000000 0.462512
30 0.0 0.0 0.0 0.0 0.0 0.0
31 92.364769 7.629370 2.440334 -0.001598 0.000398 0.244345
32 4.012192 0.000008 0.000001 -0.000000 0.000000 0.523599
33 7.425244 0.000000 0.000003 -0.000000 -0.000000 0.000000
34 48.724422 -4.691671 -7.699065 -0.671516 -1.576963 0.751474
35 -17.143803 0.532527 -35.127754 -3.141554 1.499642 -0.030757
36 39.921352 0.000007 0.000003 0.521047 -0.405230 0.223743
37 48.422314 0.000006 -0.000003 0.000000 -0.000000 -0.716543
38 8.438268 -0.000001 0.000006 1.670003 -0.355974 -1.333754
39 88.895828 22.973215 7.706249 -2.801595 0.065289 0.596260
40 5.595500 0.000007 0.000005 -0.000000 0.000000 0.462512
41 0.0 0.0 0.0 0.0 0.0 0.0
42 92.364784 7.629381 -2.440348 0.001598 -0.000398 0.244345
43 4.012198 0.000002 0.000003 0.000000 -0.000000 0.523599
44 7.425245 -0.000008 -0.000006 -0.000000 -0.000000 -3.141593
45 48.003227 -5.008461 6.468813 -2.046971 1.564393 1.171539
46 35.773144 -32.097889 -1.330359 -1.564896 -3.140380 -1.559171
47 26.836359 23.845196 -0.971343 1.564896 0.001213 -1.559171
48 -3.825682 0.003309 -0.381499 -0.072441 0.407245 -0.530360
49 31.302340 -0.003304 0.381512 -0.000000 -0.000000 -0.000000
time 6
0 -22.551329 6.683320 92.503891 0.000000 -0.349066 -1.570795
1 0.000001 0.000000 -0.000004 -1.570795 -1.570796 0.000000
2 -0.000031 0.000029 18.595531 0.342961 -2.482507 -1.079099
3 51.256512 0.000004 0.000002 -0.000000 -0.000000 -1.852638
4 42.401630 -0.000004 -0.000003 0.381752 -0.342070 0.138523
5 23.783976 40.997166 0.000000 -0.000000 0.000000 1.570796
6 4.401495 -0.000000 -0.000001 0.000000 0.000000 0.000000
7 4.401492 0.000001 -0.000001 0.000000 0.000000 0.000000
8 0.0 0.0 0.0 0.0 0.0 0.0
9 0.000022 -0.000022 -18.595533 0.616416 2.974431 0.057916
10 51.256512 -0.000002 -0.000001 0.000000 -0.000000 -1.440664
11 42.401630 -0.000002 0.000005 -0.085171 -0.035909 1.107988
12 23.783972 40.997162 0.000000 -0.000000 0.000000 1.570796
13 4.401495 0.000000 0.000002 0.000000 0.000000 0.000000
14 4.401495 0.000000 0.000001 0.000000 0.000000 0.000000
15 0.0 0.0 0.0 0.0 0.0 0.0
16 11.432773 -0.022332 0.004739 -0.211492 -0.170227 0.000647
17 28.677246 -0.037949 0.010291 -0.262079 -0.348859 -0.296685
18 53.093937 -0.004346 0.000007 0.000000 -0.000000 0.030000
19 5.437293 -0.000000 0.000001 1.020447 0.227765 0.676933
20 0.0 0.0 0.0 0.0 0.0 0.0
21 7.285624 -7.278542 -0.000020 -0.000005 0.000001 -2.749229
22 16.349970 -0.013650 -0.000002 -0.000000 0.000001 -0.219299
23 0.0 0.0 0.0 0.0 0.0 0.0
24 -16.427876 0.510352 35.303997 -0.000014 -1.370796 3.110810
25 39.921349 -0.000010 0.000009 0.325533 0.651575 0.671567
26 48.422310 -0.000001 0.000002 -0.000000 -0.000000 -1.900177
27 8.438259 0.000003 0.000003 -1.676085 0.736935 -0.199838
28 88.895813 22.973209 -7.706261 2.801595 -0.065289 0.596260
29 5.595502 0.000003 -0.000006 0.000000 -0.000000 0.462512
30 0.0 0.0 0.0 0.0 0.0 0.0
31 92.364761 7.629377 2.440332 -0.001598 0.000398 0.244345
32 4.012193 0.000003 0.000004 -0.000000 0.000000 0.523599
33 7.425244 0.000003 -0.000002 -0.000000 0.000000 -0.000000
34 48.724419 -4.691668 -7.699066 -0.671515 -1.576963 0.751473
35 -17.143820 0.532519 -35.127762 -3.141548 1.508997 -0.030752
36 39.921360 -0.000004 -0.000003 0.444216 -0.440024 0.170177
37 48.422314 -0.000006 -0.000001 0.000000 0.000000 -0.711424
38 8.438255 0.000006 -0.000002 1.643855 -0.419873 -1.235005
39 88.895836 22.973204 7.706276 -2.801595 0.065289 0.596260
40 5.595502 -0.000006 0.000003 -0.000000 -0.000000 0.462512
41 0.0 0.0 0.0 0.0 0.0 0.0
42 92.364777 7.629383 -2.440324 0.001598 -0.000398 0.244345
43 4.012203 -0.000005 -0.000003 -0.000000 0.000000 0.523599
44 7.425243 0.000010 -0.000000 0.000000 0.000000 3.141593
45 48.003231 -5.008462 6.468823 -2.046972 1.564393 1.171538
46 35.773148 -32.097900 -1.330356 -1.564896 -3.140380 -1.559171
47 26.836361 23.845188 -0.971338 1.564896 0.001213 -1.559171
48 -3.825682 0.003310 -0.381498 -0.133181 0.226064 -0.538739
49 31.302340 -0.003310 0.381502 -0.000000 -0.000000 -0.000000
time 7
0 10.858782 -13.063537 90.150253 -0.088249 -0.301468 -1.230677
1 0.000000 -0.000000 -0.000000 -1.570795 -1.570796 0.000000
2 -0.000021 0.000030 18.595528 0.131345 -2.982765 -0.478185
3 51.256508 0.000002 0.000001 0.000000 0.000000 -1.649232
4 42.401630 0.000000 0.000001 -0.000308 -0.120751 0.878619
5 23.783974 40.997158 -0.000000 -0.000000 -0.000000 1.570796
6 4.401492 0.000000 -0.000002 0.000000 0.000000 0.000000
7 4.401493 0.000000 0.000005 0.000000 0.000000 0.000000
8 0.0 0.0 0.0 0.0 0.0 0.0
9 0.000023 -0.000026 -18.595530 0.519503 2.869425 0.493702
10 51.256512 0.000002 -0.000001 0.000000 -0.000000 -1.056990
11 42.401630 -0.000000 -0.000001 0.360962 0.403492 1.049940
12 23.783972 40.997158 0.000006 0.000000 -0.000000 1.570796
13 4.401493 0.000000 -0.000001 0.000000 0.000000 0.000000
14 4.401493 0.000000 -0.000001 0.000000 0.000000 0.000000
15 0.0 0.0 0.0 0.0 0.0 0.0
16 11.447584 -0.017377 0.004880 -0.215075 0.068047 0.664160
17 28.677242 -0.037953 0.010290 -0.262079 -0.348859 -0.296685
18 53.093933 -0.004327 -0.000001 0.000000 -0.000000 0.030000
19 5.437287 0.000000 0.000002 0.814427 0.386553 -0.044049
20 0.0 0.0 0.0 0.0 0.0 0.0
21 7.285619 -7.278543 -0.000021 -0.000005 0.000001 -2.749229
22 16.349979 -0.013653 0.000000 -0.000000 0.000001 -0.219299
23 0.0 0.0 0.0 0.0 0.0 0.0
24 -16.427874 0.510344 35.303989 -0.000014 -1.370796 3.110810
25 39.921349 0.000003 0.000006 -0.288066 0.366404 0.693317
26 48.422318 -0.000002 -0.000008 0.000000 -0.000000 -2.205337
27 8.438263 0.000000 0.000001 -1.205320 0.697002 0.478736
28 88.895813 22.973221 -7.706253 2.801595 -0.065289 0.596260
29 5.595506 0.000005 -0.000001 0.000000 -0.000000 0.462512
30 0.0 0.0 0.0 0.0 0.0 0.0
31 92.364754 7.629397 2.440344 -0.001598 0.000398 0.244346
32 4.012198 0.000002 -0.000000 0.000000 0.000000 0.523599
33 7.425243 -0.000006 -0.000000 -0.000000 -0.000000 -0.000000
34 48.724419 -4.691663 -7.699059 -0.671516 -1.576963 0.751474
35 -17.143816 0.532524 -35.127750 -3.141548 1.508997 -0.030752
36 39.921352 -0.000003 -0.000016 0.883337 -0.235074 0.740378
37 48.422314 0.000009 0.000010 0.000000 0.000000 -0.711425
38 8.438261 -0.000002 -0.000003 -1.240149 -2.869793 1.178527
39 88.895828 22.973194 7.706258 -2.801595 0.065289 0.596260
40 5.595499 0.000012 0.000010 -0.000000 -0.000000 0.462512
41 0.0 0.0 0.0 0.0 0.0 0.0
42 92.364777 7.629374 -2.440327 0.001598 -0.000398 0.244346
43 4.012195 0.000010 0.000006 0.000000 0.000000 0.523599
44 7.425237 0.000002 -0.000001 0.000000 -0.000000 3.141593
45 48.003231 -5.008467 6.468831 -2.046971 1.564393 1.171539
46 35.773136 -32.097885 -1.330352 -1.564896 -3.140380 -1.559171
47 26.836363 23.845192 -0.971346 1.564896 0.001213 -1.559171
48 -3.825680 0.003307 -0.381497 -0.229235 0.151809 -0.026309
49 31.302326 -0.003324 0.381513 -0.000000 -0.000000 -0.000000
time 8
0 8.543047 -32.207973 70.374947 -0.126480 -0.178239 -0.948613
1 -0.000001 -0.000001 -0.000002 -1.570795 -1.570796 0.000000
2 -0.000023 0.000029 18.595528 0.370639 -2.756939 -0.682663
3 51.256512 0.000003 0.000004 0.000000 -0.000000 -2.033575
4 42.401638 0.000000 -0.000001 0.288548 -0.410684 1.269895
5 23.783974 40.997162 -0.000001 -0.000000 -0.000000 1.570796
6 4.401495 -0.000000 -0.000002 0.000000 0.000000 0.000000
7 4.401491 -0.000000 0.000001 0.000000 0.000000 0.000000
8 0.0 0.0 0.0 0.0 0.0 0.0
9 0.000022 -0.000024 -18.595530 0.416811 -3.109521 0.881420
10 51.256512 0.000000 -0.000005 0.000000 -0.000000 -0.733851
11 42.401630 0.000001 0.000001 0.791484 0.358184 1.355403
12 23.783974 40.997162 -0.000002 0.000000 -0.000000 1.570796
13 4.401490 0.000000 -0.000000 0.000000 0.000000 0.000000
14 4.401495 0.000000 -0.000001 0.000000 0.000000 0.000000
15 0.0 0.0 0.0 0.0 0.0 0.0
16 11.452876 -0.012132 -0.001514 0.067102 0.047778 1.013261
17 28.693918 -0.036250 -0.021725 0.540086 -0.036918 0.009924
18 53.093945 -0.004327 -0.000005 0.000000 -0.000000 0.030000
19 5.437293 -0.000000 0.000001 -0.112578 -0.410379 -0.687920
20 0.0 0.0 0.0 0.0 0.0 0.0
21 7.285634 -7.278543 -0.000026 -0.000005 0.000001 -2.749229
22 16.349972 -0.013655 0.000002 -0.000000 0.000001 -0.219299
23 0.0 0.0 0.0 0.0 0.0 0.0
24 -16.427879 0.510344 35.304001 -0.000014 -1.370796 3.110810
25 39.921349 -0.000005 -0.000010 -0.334558 0.590946 0.231649
26 48.422314 0.000006 -0.000003 -0.000000 -0.000000 -2.218965
27 8.438270 0.000005 -0.000010 -1.005750 0.392408 0.896369
28 88.895821 22.973221 -7.706263 2.801595 -0.065289 0.596260
29 5.595503 0.000006 -0.000006 0.000000 0.000000 0.462512
30 0.0 0.0 0.0 0.0 0.0 0.0
31 92.364769 7.629397 2.440333 -0.001598 0.000398 0.244346
32 4.012197 0.000003 -0.000004 0.000000 -0.000000 0.523599
33 7.425240 0.000009 0.000001 0.000000 0.000000 0.000000
34 48.724419 -4.691665 -7.699069 -0.671513 -1.576963 0.751472
35 -17.143820 0.532529 -35.127758 -0.000178 1.555023 3.110619
36 39.921352 0.000005 -0.000007 0.581216 -0.477352 -0.903569
37 48.422314 -0.000001 -0.000003 0.000000 0.000000 -0.668984
38 8.438256 -0.000002 0.000006 1.301899 -0.519484 0.141374
39 88.895813 22.973198 7.706247 -2.801595 0.065289 0.596260
40 5.595502 -0.000004 0.000008 0.000000 -0.000000 0.462512
41 0.0 0.0 0.0 0.0 0.0 0.0
42 92.364761 7.629375 -2.440344 0.001598 -0.000398 0.244346
43 4.012201 0.000006 0.000005 -0.000000 -0.000000 0.523599
44 7.425240 -0.000002 -0.000003 0.000000 -0.000000 3.141593
45 48.003227 -5.008472 6.468815 -2.046969 1.564393 1.171541
46 35.773136 -32.097885 -1.330360 -1.564896 -3.140380 -1.559171
47 26.836361 23.845196 -0.971340 1.564896 0.001213 -1.559171
48 -3.825684 0.003310 -0.381492 -0.286380 0.135414 0.452444
49 31.302330 -0.003332 0.381499 -0.000000 -0.000000 -0.000000
time 9
0 4.434505 -15.481283 79.689690 -0.061373 -0.098757 -1.187209
1 -0.000001 -0.000000 -0.000001 -1.570795 -1.570796 0.000000
2 -0.000020 0.000029 18.595528 0.112258 -2.788841 -0.837209
3 51.256512 0.000007 -0.000000 0.000000 0.000000 -1.847025
4 42.401634 -0.000000 0.000000 0.260356 -0.242314 0.925762
5 23.783972 40.997158 -0.000001 -0.000000 -0.000000 1.570796
6 4.401497 -0.000000 -0.000001 0.000000 0.000000 0.000000
7 4.401496 0.000000 -0.000002 0.000000 0.000000 0.000000
8 0.0 0.0 0.0 0.0 0.0 0.0
9 0.000026 -0.000023 -18.595530 0.396942 2.869697 0.305165
10 51.256512 0.000001 -0.000004 0.000000 -0.000000 -1.289679
11 42.401627 0.000000 0.000004 0.565974 0.384626 1.359133
12 23.783972 40.997158 0.000005 0.000000 0.000000 1.570796
13 4.401495 0.000000 0.000001 0.000000 0.000000 0.000000
14 4.401495 0.000000 0.000001 0.000000 0.000000 0.000000
15 0.0 0.0 0.0 0.0 0.0 0.0
16 11.450028 -0.015572 -0.002974 0.131212 -0.004621 0.812589
17 28.688702 -0.039308 -0.015016 0.363201 0.023659 -0.094040
18 53.093945 -0.004332 0.000003 0.000000 -0.000000 0.030000
19 5.437280 0.000001 -0.000000 -0.089620 -0.237689 -0.429569
20 0.0 0.0 0.0 0.0 0.0 0.0
21 7.285625 -7.278544 -0.000020 -0.000005 0.000001 -2.749229
22 16.349972 -0.013657 -0.000000 -0.000000 0.000001 -0.219299
23 0.0 0.0 0.0 0.0 0.0 0.0
24 -16.427895 0.510345 35.303989 -0.000014 -1.370797 3.110810
25 39.921349 0.000000 0.000000 -0.054366 0.742409 0.178527
26 48.422314 -0.000001 -0.000006 -0.000000 0.000000 -1.465666
27 8.438263 0.000007 0.000001 -1.312388 0.294569 0.464706
28 88.895821 22.973213 -7.706253 2.801595 -0.065289 0.596260
29 5.595503 0.000005 -0.000007 0.000000 0.000000 0.462512
30 0.0 0.0 0.0 0.0 0.0 0.0
31 92.364769 7.629390 2.440336 -0.001598 0.000398 0.244346
32 4.012198 0.000005 -0.000001 0.000000 0.000000 0.523599
33 7.425248 0.000002 0.000003 -0.000000 0.000000 -0.000000
34 48.724426 -4.691668 -7.699064 -0.671516 -1.576963 0.751474
35 -17.143826 0.532528 -35.127758 -0.000026 1.464123 3.110770
36 39.921352 -0.000010 0.000006 0.754252 -0.916360 -0.949728
37 48.422325 0.000007 0.000009 -0.000000 -0.000000 -0.619249
38 8.438262 -0.000003 0.000003 1.410365 -0.279941 0.313817
39 88.895813 22.973204 7.706257 -2.801595 0.065289 0.596260
40 5.595502 0.000000 0.000007 0.000000 -0.000000 0.462512
41 0.0 0.0 0.0 0.0 0.0 0.0
42 92.364761 7.629377 -2.440336 0.001598 -0.000398 0.244345
43 4.012197 -0.000004 0.000002 0.000000 -0.000000 0.523599
44 7.425241 -0.000005 0.000000 0.000000 -0.000000 3.141593
45 48.003223 -5.008470 6.468822 -2.046970 1.564393 1.171540
46 35.773140 -32.097885 -1.330351 -1.564896 -3.140380 -1.559171
47 26.836359 23.845192 -0.971345 1.564896 0.001213 -1.559171
48 -3.825684 0.003306 -0.381493 -0.181865 0.054811 0.321236
49 31.302328 -0.003334 0.381505 -0.000000 0.000000 -0.000000
time 10
0 0.000000 7.767428 94.293533 0.000000 0.000000 -1.570795
1 0.000000 0.000000 0.000000 -1.570795 -1.570796 0.000000
2 -0.000026 0.000030 18.595530 -0.088765 -2.774887 -0.843333
3 51.256508 -0.000001 0.000003 0.000000 0.000000 -1.358248
4 42.401638 0.000002 -0.000002 0.005288 -0.172125 0.469103
5 23.783972 40.997162 0.000003 -0.000000 0.000000 1.570796
6 4.401493 -0.000000 0.000003 0.000000 0.000000 0.000000
7 4.401491 0.000000 -0.000002 0.000000 0.000000 0.000000
8 0.0 0.0 0.0 0.0 0.0 0.0
9 0.000026 -0.000022 -18.595530 0.360893 2.734021 -0.381225
10 51.256512 -0.000002 -0.000002 -0.000000 0.000000 -1.420701
11 42.401634 0.000001 0.000004 0.052930 0.214486 0.909509
12 23.783974 40.997158 -0.000002 -0.000000 0.000000 1.570796
13 4.401494 0.000000 0.000002 0.000000 0.000000 0.000000
14 4.401495 -0.000000 -0.000003 0.000000 0.000000 0.000000
15 0.0 0.0 0.0 0.0 0.0 0.0
16 11.444748 -0.019552 -0.003825 0.169042 -0.043626 0.511972
17 28.680395 -0.040419 -0.000001 -0.000000 0.000001 -0.296706
18 53.093925 -0.004326 -0.000001 0.000000 -0.000000 0.030000
19 5.437294 -0.000000 -0.000000 0.174533 0.000000 0.012836
20 0.0 0.0 0.0 0.0 0.0 0.0
21 7.285630 -7.278543 -0.000020 -0.000005 0.000001 -2.749229
22 16.349972 -0.013654 -0.000001 -0.000000 0.000001 -0.219299
23 0.0 0.0 0.0 0.0 0.0 0.0
24 -16.427870 0.510342 35.303993 -0.000014 -1.370796 3.110810
25 39.921352 -0.000001 -0.000010 0.520939 1.156513 0.496906
26 48.422314 -0.000001 -0.000002 0.000000 -0.000000 -0.451598
27 8.438255 -0.000001 -0.000003 -1.648338 0.041525 -0.131120
28 88.895813 22.973206 -7.706260 2.801595 -0.065289 0.596260
29 5.595498 0.000007 -0.000002 -0.000000 0.000000 0.462512
30 0.0 0.0 0.0 0.0 0.0 0.0
31 92.364761 7.629376 2.440334 -0.001598 0.000398 0.244346
32 4.012198 -0.000006 -0.000000 -0.000000 -0.000000 0.523599
33 7.425244 0.000000 -0.000000 0.000000 -0.000000 0.000000
34 48.724422 -4.691672 -7.699067 -0.671515 -1.576963 0.751473
35 -17.143806 0.532522 -35.127754 -0.000014 1.370796 3.110783
36 39.921356 -0.000001 -0.000005 -0.016730 -1.105058 0.257997
37 48.422321 -0.000000 -0.000002 0.000000 -0.000000 -0.568187
38 8.438259 -0.000001 -0.000001 1.596193 -0.064491 0.191413
39 88.895821 22.973221 7.706261 -2.801595 0.065289 0.596260
40 5.595503 -0.000004 0.000007 -0.000000 0.000000 0.462512
41 0.0 0.0 0.0 0.0 0.0 0.0
42 92.364769 7.629399 -2.440335 0.001598 -0.000398 0.244346
43 4.012198 0.000004 0.000000 -0.000000 -0.000000 0.523599
44 7.425244 0.000004 0.000000 0.000000 -0.000000 -3.141593
45 48.003227 -5.008458 6.468823 -2.046970 1.564393 1.171540
46 35.773129 -32.097885 -1.330357 -1.564896 -3.140380 -1.559171
47 26.836365 23.845192 -0.971344 1.564896 0.001213 -1.559171
48 -3.825685 0.003307 -0.381496 0.000000 -0.000000 0.000000
49 31.302334 -0.003325 0.381511 -0.000000 -0.000000 -0.000000
end
