version 1
nodes
0 "Bip01" -1
1 "Bip01 Pelvis" 0
2 "Bip01 L Thigh" 1
3 "Bip01 L Calf" 2
4 "Bip01 L Foot" 3
5 "Bip01 L Toe0" 4
6 "Bip01 L Toe01" 5
7 "Bip01 L Toe02" 6
8 "Null 8" -1
9 "Bip01 R Thigh" 1
10 "Bip01 R Calf" 9
11 "Bip01 R Foot" 10
12 "Bip01 R Toe0" 11
13 "Bip01 R Toe01" 12
14 "Bip01 R Toe02" 13
15 "Null 15" -1
16 "Bip01 Spine" 1
17 "Bip01 Spine1" 16
18 "Bip01 Neck" 17
19 "Bip01 Head" 18
20 "Null 20" -1
21 "Bip01 Ponytail1" 19
22 "Bip01 Ponytail11" 21
23 "Null 23" -1
24 "Bip01 L Clavicle" 18
25 "Bip01 L UpperArm" 24
26 "Bip01 L Forearm" 25
27 "Bip01 L Hand" 26
28 "Bip01 L Finger0" 27
29 "Bip01 L Finger01" 28
30 "Null 30" -1
31 "Bip01 L Finger1" 27
32 "Bip01 L Finger11" 31
33 "Bip01 L Finger1Nub" 32
34 "hand_bofdgne01" 27
35 "Bip01 R Clavicle" 18
36 "Bip01 R UpperArm" 35
37 "Bip01 R Forearm" 36
38 "Bip01 R Hand" 37
39 "Bip01 R Finger0" 38
40 "Bip01 R Finger01" 39
41 "Null 41" -1
42 "Bip01 R Finger1" 38
43 "Bip01 R Finger11" 42
44 "Bip01 R Finger1Nub" 43
45 "knife_gdf" 38
46 "Bone03" 17
47 "Box04" 17
48 "Box01" 47
49 "eyebone01" 48
end
skeleton
time 0
0 0.000000 7.767428 92.907173 0.000000 0.000000 -1.570795
1 0.000000 0.000000 0.000000 -1.570795 -1.570796 0.000000
2 -0.000026 0.000030 18.595530 -0.087243 -2.774537 -0.847577
3 51.256508 -0.000001 0.000006 -0.000000 0.000000 -1.386886
4 42.401627 0.000001 0.000002 0.005287 -0.172125 0.493764
5 23.783974 40.997166 -0.000001 0.000000 -0.000000 1.570796
6 4.401494 -0.000000 -0.000003 0.000000 0.000000 0.000000
7 4.401495 -0.000000 0.000002 0.000000 0.000000 0.000000
8 0.0 0.0 0.0 0.0 0.0 0.0
9 0.000026 -0.000022 -18.595530 0.360893 2.734021 -0.381225
10 51.256516 -0.000001 -0.000005 0.000000 -0.000000 -1.420702
11 42.401627 0.000001 0.000005 0.052930 0.214486 0.909510
12 23.783974 40.997162 0.000001 0.000000 0.000000 1.570796
13 4.401493 0.000000 0.000005 0.000000 0.000000 0.000000
14 4.401494 0.000000 -0.000000 0.000000 0.000000 0.000000
15 0.0 0.0 0.0 0.0 0.0 0.0
16 11.444740 -0.019552 -0.003825 0.169042 -0.043626 0.511972
17 28.680408 -0.040426 -0.000000 -0.000000 0.000001 -0.296706
18 53.093925 -0.004325 -0.000001 0.000000 -0.000000 0.030000
19 5.437290 -0.000001 -0.000000 0.174533 0.000000 0.012836
20 0.0 0.0 0.0 0.0 0.0 0.0
21 7.285627 -7.278543 -0.000020 -0.000005 0.000001 -2.749229
22 16.349970 -0.013654 -0.000001 -0.000000 0.000001 -0.219299
23 0.0 0.0 0.0 0.0 0.0 0.0
24 -16.427874 0.510342 35.303993 -0.000014 -1.370796 3.110810
25 39.921352 -0.000001 0.000002 0.520939 1.156512 0.496906
26 48.422321 -0.000000 0.000004 0.000000 -0.000000 -0.451598
27 8.438254 0.000002 -0.000005 -1.596150 -0.031467 0.194006
28 88.895821 22.973198 -7.706260 2.797142 -0.033053 0.686792
29 5.595501 0.000007 -0.000005 0.000000 -0.000000 0.366519
30 0.0 0.0 0.0 0.0 0.0 0.0
31 92.364769 7.629375 2.440336 -0.001629 0.000243 0.148353
32 4.012198 -0.000004 -0.000002 -0.000000 -0.000000 0.427606
33 7.425243 0.000001 0.000001 0.000000 -0.000000 -0.000000
34 48.724430 -4.691676 -7.699066 -0.671516 -1.576963 0.751474
35 -17.143810 0.532522 -35.127754 -0.000014 1.370796 3.110783
36 39.921356 0.000000 0.000005 -0.016730 -1.105058 0.257997
37 48.422310 -0.000000 -0.000002 0.000000 -0.000000 -0.568187
38 8.438261 -0.000001 -0.000001 1.596150 0.031467 0.194006
39 88.895828 22.973221 7.706260 -2.797142 0.033053 0.686792
40 5.595502 -0.000000 0.000009 0.000000 -0.000000 0.366519
41 0.0 0.0 0.0 0.0 0.0 0.0
42 92.364777 7.629395 -2.440334 0.001629 -0.000243 0.148353
43 4.012198 -0.000002 0.000002 -0.000000 -0.000000 0.427606
44 7.425244 0.000004 0.000000 -0.000000 -0.000000 -3.141593
45 48.003227 -5.008455 6.468823 -2.046970 1.564393 1.171540
46 35.773132 -32.097885 -1.330358 -1.564896 -3.140380 -1.559171
47 26.836367 23.845194 -0.971343 1.564896 0.001213 -1.559171
48 -3.825685 0.003307 -0.381501 0.000000 0.000000 0.000000
49 31.302332 -0.003326 0.381514 -0.000000 0.000000 -0.000000
time 1
0 0.000000 7.767428 90.679680 0.000000 0.000000 -1.570795
1 0.000000 0.000000 0.000000 -1.570795 -1.570796 0.000000
2 -0.000026 0.000030 18.595530 -0.069551 -2.767181 -0.887615
3 51.256512 -0.000000 0.000005 0.000000 0.000000 -1.456685
4 42.401627 0.000002 0.000001 0.006850 -0.177342 0.525512
5 23.783974 40.997166 -0.000003 0.000000 -0.000000 1.570796
6 4.401494 -0.000000 -0.000005 0.000000 0.000000 0.000000
7 4.401496 -0.000000 0.000001 0.000000 0.000000 0.000000
8 0.0 0.0 0.0 0.0 0.0 0.0
9 0.000026 -0.000022 -18.595530 0.347086 2.720050 -0.405250
10 51.256504 -0.000001 0.000004 -0.000000 0.000000 -1.490883
11 42.401630 -0.000002 -0.000002 0.053784 0.221298 0.954407
12 23.783974 40.997162 -0.000002 0.000000 0.000000 1.570796
13 4.401494 0.000000 0.000002 0.000000 0.000000 0.000000
14 4.401495 0.000000 0.000000 0.000000 0.000000 0.000000
15 0.0 0.0 0.0 0.0 0.0 0.0
16 11.444748 -0.019553 -0.003825 0.169042 -0.043626 0.511972
17 28.681986 -0.040870 -0.000001 -0.000000 0.000001 -0.257598
18 53.093933 -0.004327 -0.000000 0.000000 -0.000000 0.030000
19 5.437297 -0.000002 0.000000 0.174533 0.000000 -0.026273
20 0.0 0.0 0.0 0.0 0.0 0.0
21 7.285630 -7.278544 -0.000020 -0.000005 0.000001 -2.749229
22 16.349974 -0.013654 -0.000001 -0.000000 0.000001 -0.219299
23 0.0 0.0 0.0 0.0 0.0 0.0
24 -16.427866 0.510342 35.303993 -0.000014 -1.370797 3.110810
25 39.921349 -0.000001 0.000006 0.388862 1.184176 0.359822
26 48.422314 -0.000002 0.000000 -0.000000 -0.000000 -0.430033
27 8.438262 0.000002 -0.000004 -1.596312 -0.011117 0.157889
28 88.895813 22.973202 -7.706258 2.797879 -0.040249 0.666697
29 5.595503 -0.000005 -0.000005 0.000000 0.000000 0.387851
30 0.0 0.0 0.0 0.0 0.0 0.0
31 92.364761 7.629381 2.440335 -0.001623 0.000278 0.169684
32 4.012197 -0.000004 -0.000002 0.000000 -0.000000 0.448937
33 7.425244 0.000001 0.000001 -0.000000 0.000000 0.000000
34 48.724419 -4.691673 -7.699067 -0.671516 -1.576963 0.751474
35 -17.143806 0.532521 -35.127754 -0.000014 1.370796 3.110783
36 39.921349 0.000001 -0.000009 -0.006042 -1.111183 0.258025
37 48.422310 -0.000000 0.000002 -0.000000 -0.000000 -0.640443
38 8.438268 0.000000 0.000005 1.596312 0.011117 0.157889
39 88.895821 22.973217 7.706257 -2.797879 0.040249 0.666697
40 5.595501 0.000004 0.000003 -0.000000 0.000000 0.387851
41 0.0 0.0 0.0 0.0 0.0 0.0
42 92.364769 7.629396 -2.440337 0.001623 -0.000278 0.169684
43 4.012197 0.000001 -0.000000 -0.000000 -0.000000 0.448937
44 7.425247 0.000002 -0.000000 -0.000000 -0.000000 -3.141593
45 48.003227 -5.008461 6.468822 -2.046970 1.564393 1.171540
46 35.773140 -32.097885 -1.330357 -1.564896 -3.140380 -1.559171
47 26.836357 23.845190 -0.971343 1.564896 0.001213 -1.559171
48 -3.825682 0.003307 -0.381501 0.000000 0.000000 0.000000
49 31.302332 -0.003325 0.381507 -0.000000 -0.000000 -0.000000
time 2
0 0.000000 7.767428 88.452209 0.000000 0.000000 -1.570795
1 0.000000 0.000000 0.000000 -1.570795 -1.570796 0.000000
2 -0.000026 0.000030 18.595530 -0.051616 -2.760346 -0.926816
3 51.256504 0.000001 -0.000004 0.000000 -0.000000 -1.523642
4 42.401634 0.000001 0.000001 0.008612 -0.182851 0.555370
5 23.783974 40.997162 -0.000004 0.000000 -0.000000 1.570796
6 4.401494 -0.000000 -0.000002 0.000000 0.000000 0.000000
7 4.401496 -0.000000 0.000003 0.000000 0.000000 0.000000
8 0.0 0.0 0.0 0.0 0.0 0.0
9 0.000026 -0.000022 -18.595530 0.333150 2.706762 -0.427774
10 51.256508 0.000002 -0.000002 -0.000000 -0.000000 -1.558387
11 42.401630 -0.000001 -0.000000 0.054754 0.228543 0.998378
12 23.783974 40.997162 0.000000 0.000000 0.000000 1.570796
13 4.401494 0.000000 0.000004 0.000000 0.000000 0.000000
14 4.401495 0.000000 -0.000001 0.000000 0.000000 0.000000
15 0.0 0.0 0.0 0.0 0.0 0.0
16 11.444748 -0.019553 -0.003825 0.169042 -0.043626 0.511972
17 28.683601 -0.041268 -0.000000 -0.000000 0.000001 -0.218489
18 53.093945 -0.004326 0.000000 0.000000 -0.000000 0.030000
19 5.437288 0.000001 0.000000 0.174533 0.000000 -0.065381
20 0.0 0.0 0.0 0.0 0.0 0.0
21 7.285629 -7.278543 -0.000020 -0.000005 0.000001 -2.749229
22 16.349977 -0.013652 -0.000000 -0.000000 0.000001 -0.219299
23 0.0 0.0 0.0 0.0 0.0 0.0
24 -16.427887 0.510347 35.303993 -0.000014 -1.370796 3.110810
25 39.921349 0.000001 0.000013 0.239422 1.203922 0.205264
26 48.422314 -0.000002 0.000002 0.000000 0.000000 -0.408468
27 8.438264 0.000002 0.000004 -1.597208 0.009214 0.121770
28 88.895836 22.973215 -7.706261 2.798760 -0.047429 0.646591
29 5.595503 0.000002 -0.000006 -0.000000 0.000000 0.409183
30 0.0 0.0 0.0 0.0 0.0 0.0
31 92.364777 7.629390 2.440335 -0.001617 0.000313 0.191016
32 4.012198 -0.000004 0.000001 0.000000 0.000000 0.470269
33 7.425246 0.000003 -0.000001 0.000000 -0.000000 0.000000
34 48.724434 -4.691665 -7.699068 -0.671514 -1.576963 0.751472
35 -17.143822 0.532524 -35.127754 -0.000014 1.370796 3.110783
36 39.921349 0.000004 -0.000012 0.004461 -1.117696 0.258000
37 48.422310 -0.000001 -0.000002 0.000000 -0.000000 -0.712697
38 8.438259 -0.000001 0.000007 1.597208 -0.009214 0.121770
39 88.895821 22.973221 7.706265 -2.798760 0.047429 0.646591
40 5.595501 -0.000002 0.000005 -0.000000 0.000000 0.409183
41 0.0 0.0 0.0 0.0 0.0 0.0
42 92.364769 7.629396 -2.440332 0.001617 -0.000313 0.191016
43 4.012198 0.000001 -0.000001 -0.000000 -0.000000 0.470269
44 7.425244 -0.000001 0.000000 0.000000 -0.000000 3.141593
45 48.003223 -5.008455 6.468825 -2.046970 1.564393 1.171540
46 35.773148 -32.097885 -1.330357 -1.564896 -3.140380 -1.559171
47 26.836370 23.845194 -0.971343 1.564896 0.001213 -1.559171
48 -3.825686 0.003307 -0.381489 0.000000 -0.000000 -0.000000
49 31.302334 -0.003326 0.381504 -0.000000 -0.000000 -0.000000
time 3
0 0.000000 7.767428 87.439720 0.000000 0.000000 -1.570795
1 0.000000 0.000000 0.000000 -1.570795 -1.570796 0.000000
2 -0.000026 0.000030 18.595530 -0.043367 -2.757396 -0.944410
3 51.256508 0.000008 0.000004 0.000000 -0.000000 -1.553234
4 42.401642 0.000001 0.000003 0.009486 -0.185457 0.568360
5 23.783974 40.997162 -0.000004 0.000000 -0.000000 1.570796
6 4.401494 -0.000000 -0.000002 0.000000 0.000000 0.000000
7 4.401495 -0.000000 0.000003 0.000000 0.000000 0.000000
8 0.0 0.0 0.0 0.0 0.0 0.0
9 0.000026 -0.000022 -18.595530 0.326769 2.700923 -0.437537
10 51.256508 -0.000002 0.000001 0.000000 0.000000 -1.588280
11 42.401630 0.000001 0.000002 0.055237 0.231989 1.018123
12 23.783974 40.997162 -0.000001 0.000000 0.000000 1.570796
13 4.401493 0.000000 0.000003 0.000000 0.000000 0.000000
14 4.401494 0.000000 -0.000003 0.000000 0.000000 0.000000
15 0.0 0.0 0.0 0.0 0.0 0.0
16 11.444748 -0.019553 -0.003825 0.169042 -0.043626 0.511972
17 28.684349 -0.041433 0.000000 -0.000000 0.000001 -0.200713
18 53.093941 -0.004328 0.000000 0.000000 -0.000000 0.030000
19 5.437289 0.000001 -0.000000 0.174533 0.000000 -0.083158
20 0.0 0.0 0.0 0.0 0.0 0.0
21 7.285634 -7.278543 -0.000020 -0.000005 0.000001 -2.749229
22 16.349981 -0.013650 -0.000001 -0.000000 0.000001 -0.219299
23 0.0 0.0 0.0 0.0 0.0 0.0
24 -16.427883 0.510345 35.303993 -0.000014 -1.370796 3.110810
25 39.921345 0.000001 0.000000 0.166830 1.209910 0.130306
26 48.422314 0.000000 -0.000002 -0.000000 -0.000000 -0.398666
27 8.438260 -0.000000 -0.000005 -1.597858 0.018442 0.105343
28 88.895813 22.973206 -7.706259 2.799208 -0.050687 0.637447
29 5.595502 -0.000002 -0.000006 -0.000000 0.000000 0.418879
30 0.0 0.0 0.0 0.0 0.0 0.0
31 92.364761 7.629382 2.440335 -0.001614 0.000328 0.200712
32 4.012197 0.000001 0.000001 -0.000000 -0.000000 0.479966
33 7.425242 -0.000002 -0.000001 0.000000 0.000000 -0.000000
34 48.724419 -4.691666 -7.699068 -0.671515 -1.576963 0.751473
35 -17.143826 0.532529 -35.127758 -0.000014 1.370796 3.110783
36 39.921349 0.000002 0.000003 0.009174 -1.120782 0.257966
37 48.422314 -0.000003 -0.000002 0.000000 -0.000000 -0.745541
38 8.438259 -0.000001 0.000000 1.597858 -0.018442 0.105343
39 88.895821 22.973219 7.706259 -2.799208 0.050687 0.637447
40 5.595500 0.000001 0.000008 -0.000000 0.000000 0.418879
41 0.0 0.0 0.0 0.0 0.0 0.0
42 92.364761 7.629394 -2.440338 0.001614 -0.000328 0.200712
43 4.012197 0.000001 -0.000001 0.000000 0.000000 0.479965
44 7.425246 0.000002 -0.000001 0.000000 -0.000000 -3.141593
45 48.003223 -5.008462 6.468821 -2.046970 1.564393 1.171540
46 35.773140 -32.097885 -1.330357 -1.564896 -3.140380 -1.559171
47 26.836369 23.845194 -0.971343 1.564896 0.001213 -1.559171
48 -3.825680 0.003308 -0.381509 0.000000 0.000000 0.000000
49 31.302334 -0.003325 0.381517 -0.000000 0.000000 -0.000000
time 4
0 0.000000 7.767428 88.452209 0.000000 0.000000 -1.570795
1 0.000000 0.000000 0.000000 -1.570795 -1.570796 0.000000
2 -0.000026 0.000030 18.595530 -0.051616 -2.760346 -0.926816
3 51.256504 0.000001 -0.000004 0.000000 -0.000000 -1.523642
4 42.401634 0.000001 0.000001 0.008612 -0.182851 0.555370
5 23.783974 40.997162 -0.000004 0.000000 -0.000000 1.570796
6 4.401494 -0.000000 -0.000002 0.000000 0.000000 0.000000
7 4.401496 -0.000000 0.000003 0.000000 0.000000 0.000000
8 0.0 0.0 0.0 0.0 0.0 0.0
9 0.000026 -0.000022 -18.595530 0.333150 2.706762 -0.427774
10 51.256508 0.000002 -0.000002 -0.000000 -0.000000 -1.558387
11 42.401630 -0.000001 -0.000000 0.054754 0.228543 0.998378
12 23.783974 40.997162 0.000000 0.000000 0.000000 1.570796
13 4.401494 0.000000 0.000004 0.000000 0.000000 0.000000
14 4.401495 0.000000 -0.000001 0.000000 0.000000 0.000000
15 0.0 0.0 0.0 0.0 0.0 0.0
16 11.444748 -0.019553 -0.003825 0.169042 -0.043626 0.511972
17 28.683601 -0.041268 -0.000000 -0.000000 0.000001 -0.218489
18 53.093945 -0.004326 -0.000000 0.000000 -0.000000 0.030000
19 5.437288 0.000001 0.000000 0.174533 0.000000 -0.065381
20 0.0 0.0 0.0 0.0 0.0 0.0
21 7.285629 -7.278543 -0.000020 -0.000005 0.000001 -2.749229
22 16.349977 -0.013651 -0.000001 -0.000000 0.000001 -0.219299
23 0.0 0.0 0.0 0.0 0.0 0.0
24 -16.427887 0.510347 35.303993 -0.000014 -1.370796 3.110810
25 39.921349 0.000001 0.000013 0.239422 1.203922 0.205264
26 48.422314 -0.000003 0.000002 -0.000000 0.000000 -0.408468
27 8.438258 0.000002 -0.000004 -1.597208 0.009214 0.121770
28 88.895821 22.973215 -7.706261 2.798760 -0.047429 0.646591
29 5.595502 0.000001 -0.000008 -0.000000 0.000000 0.409183
30 0.0 0.0 0.0 0.0 0.0 0.0
31 92.364769 7.629391 2.440335 -0.001617 0.000313 0.191016
32 4.012198 -0.000007 -0.000001 0.000000 -0.000000 0.470269
33 7.425243 0.000004 -0.000000 0.000000 0.000000 -0.000000
34 48.724426 -4.691665 -7.699068 -0.671514 -1.576963 0.751472
35 -17.143822 0.532524 -35.127754 -0.000014 1.370796 3.110783
36 39.921349 0.000004 -0.000012 0.004461 -1.117696 0.258000
37 48.422318 0.000000 0.000000 -0.000000 0.000000 -0.712698
38 8.438261 0.000001 0.000001 1.597208 -0.009214 0.121770
39 88.895821 22.973209 7.706263 -2.798760 0.047429 0.646591
40 5.595501 -0.000004 0.000006 0.000000 0.000000 0.409183
41 0.0 0.0 0.0 0.0 0.0 0.0
42 92.364769 7.629380 -2.440331 0.001617 -0.000313 0.191016
43 4.012198 0.000001 0.000000 -0.000000 -0.000000 0.470269
44 7.425247 0.000001 0.000001 0.000000 -0.000000 -3.141593
45 48.003227 -5.008464 6.468825 -2.046970 1.564393 1.171540
46 35.773148 -32.097885 -1.330357 -1.564896 -3.140380 -1.559171
47 26.836370 23.845194 -0.971343 1.564896 0.001213 -1.559171
48 -3.825686 0.003307 -0.381489 0.000000 -0.000000 -0.000000
49 31.302334 -0.003326 0.381504 -0.000000 -0.000000 -0.000000
time 5
0 0.000000 7.767428 90.679695 0.000000 0.000000 -1.570795
1 0.000000 0.000000 0.000000 -1.570795 -1.570796 0.000000
2 -0.000026 0.000030 18.595530 -0.069551 -2.767181 -0.887614
3 51.256508 -0.000000 0.000005 -0.000000 -0.000000 -1.456684
4 42.401630 0.000001 0.000000 0.006850 -0.177342 0.525511
5 23.783974 40.997166 -0.000001 0.000000 -0.000000 1.570796
6 4.401495 -0.000000 -0.000003 0.000000 0.000000 0.000000
7 4.401496 -0.000000 0.000002 0.000000 0.000000 0.000000
8 0.0 0.0 0.0 0.0 0.0 0.0
9 0.000026 -0.000022 -18.595530 0.347086 2.720050 -0.405250
10 51.256512 0.000002 0.000001 -0.000000 -0.000000 -1.490883
11 42.401630 -0.000002 0.000001 0.053784 0.221298 0.954407
12 23.783974 40.997162 0.000001 0.000000 0.000000 1.570796
13 4.401495 0.000000 0.000005 0.000000 0.000000 0.000000
14 4.401495 0.000000 -0.000000 0.000000 0.000000 0.000000
15 0.0 0.0 0.0 0.0 0.0 0.0
16 11.444748 -0.019553 -0.003825 0.169042 -0.043626 0.511972
17 28.681995 -0.040878 -0.000001 -0.000000 0.000001 -0.257598
18 53.093929 -0.004327 -0.000000 0.000000 -0.000000 0.030000
19 5.437296 -0.000003 0.000000 0.174533 0.000000 -0.026273
20 0.0 0.0 0.0 0.0 0.0 0.0
21 7.285629 -7.278544 -0.000019 -0.000005 0.000001 -2.749229
22 16.349979 -0.013651 -0.000001 -0.000000 0.000001 -0.219299
23 0.0 0.0 0.0 0.0 0.0 0.0
24 -16.427868 0.510342 35.303993 -0.000014 -1.370797 3.110810
25 39.921349 -0.000001 0.000005 0.388862 1.184176 0.359822
26 48.422318 -0.000001 -0.000000 -0.000000 0.000000 -0.430033
27 8.438266 0.000002 -0.000005 -1.596312 -0.011117 0.157889
28 88.895828 22.973213 -7.706263 2.797879 -0.040250 0.666697
29 5.595500 0.000006 -0.000002 -0.000000 0.000000 0.387851
30 0.0 0.0 0.0 0.0 0.0 0.0
31 92.364769 7.629384 2.440330 -0.001623 0.000278 0.169684
32 4.012199 -0.000005 -0.000001 0.000000 -0.000000 0.448937
33 7.425247 0.000002 0.000002 -0.000000 0.000000 -0.000000
34 48.724430 -4.691670 -7.699071 -0.671516 -1.576963 0.751474
35 -17.143808 0.532520 -35.127754 -0.000014 1.370796 3.110783
36 39.921349 0.000001 -0.000007 -0.006042 -1.111183 0.258025
37 48.422314 -0.000000 0.000006 -0.000000 -0.000000 -0.640443
38 8.438262 -0.000002 0.000001 1.596312 0.011117 0.157889
39 88.895813 22.973215 7.706260 -2.797879 0.040250 0.666697
40 5.595500 -0.000001 0.000005 -0.000000 0.000000 0.387851
41 0.0 0.0 0.0 0.0 0.0 0.0
42 92.364761 7.629388 -2.440333 0.001623 -0.000278 0.169684
43 4.012197 0.000006 -0.000000 0.000000 0.000000 0.448937
44 7.425244 -0.000002 -0.000001 0.000000 -0.000000 -3.141593
45 48.003223 -5.008464 6.468824 -2.046970 1.564393 1.171540
46 35.773140 -32.097885 -1.330357 -1.564896 -3.140380 -1.559171
47 26.836357 23.845190 -0.971343 1.564896 0.001213 -1.559171
48 -3.825682 0.003308 -0.381502 0.000000 0.000000 0.000000
49 31.302332 -0.003325 0.381506 -0.000000 -0.000000 -0.000000
time 6
0 0.000000 7.767428 92.907173 0.000000 0.000000 -1.570795
1 0.000000 0.000000 0.000000 -1.570795 -1.570796 0.000000
2 -0.000026 0.000030 18.595530 -0.087243 -2.774537 -0.847577
3 51.256508 -0.000001 0.000006 -0.000000 0.000000 -1.386886
4 42.401627 0.000001 0.000002 0.005287 -0.172125 0.493764
5 23.783974 40.997166 -0.000001 0.000000 -0.000000 1.570796
6 4.401494 -0.000000 -0.000003 0.000000 0.000000 0.000000
7 4.401495 -0.000000 0.000002 0.000000 0.000000 0.000000
8 0.0 0.0 0.0 0.0 0.0 0.0
9 0.000026 -0.000022 -18.595530 0.360893 2.734021 -0.381225
10 51.256516 -0.000001 -0.000005 0.000000 -0.000000 -1.420702
11 42.401627 0.000001 0.000005 0.052930 0.214486 0.909510
12 23.783974 40.997162 0.000001 0.000000 0.000000 1.570796
13 4.401493 0.000000 0.000005 0.000000 0.000000 0.000000
14 4.401494 0.000000 -0.000000 0.000000 0.000000 0.000000
15 0.0 0.0 0.0 0.0 0.0 0.0
16 11.444740 -0.019552 -0.003825 0.169042 -0.043626 0.511972
17 28.680408 -0.040426 -0.000000 -0.000000 0.000001 -0.296706
18 53.093925 -0.004325 -0.000001 0.000000 -0.000000 0.030000
19 5.437290 -0.000001 -0.000000 0.174533 0.000000 0.012836
20 0.0 0.0 0.0 0.0 0.0 0.0
21 7.285627 -7.278543 -0.000020 -0.000005 0.000001 -2.749229
22 16.349970 -0.013654 -0.000001 -0.000000 0.000001 -0.219299
23 0.0 0.0 0.0 0.0 0.0 0.0
24 -16.427874 0.510342 35.303993 -0.000014 -1.370796 3.110810
25 39.921352 -0.000001 0.000002 0.520939 1.156512 0.496906
26 48.422321 -0.000000 0.000004 0.000000 -0.000000 -0.451598
27 8.438254 0.000002 -0.000005 -1.596150 -0.031467 0.194006
28 88.895821 22.973198 -7.706260 2.797142 -0.033053 0.686792
29 5.595501 0.000007 -0.000005 0.000000 -0.000000 0.366519
30 0.0 0.0 0.0 0.0 0.0 0.0
31 92.364769 7.629375 2.440336 -0.001629 0.000243 0.148353
32 4.012198 -0.000004 -0.000002 -0.000000 -0.000000 0.427606
33 7.425243 0.000001 0.000001 0.000000 -0.000000 -0.000000
34 48.724430 -4.691676 -7.699066 -0.671516 -1.576963 0.751474
35 -17.143810 0.532522 -35.127754 -0.000014 1.370796 3.110783
36 39.921356 0.000000 0.000005 -0.016730 -1.105058 0.257997
37 48.422310 -0.000000 -0.000002 0.000000 -0.000000 -0.568187
38 8.438261 -0.000001 -0.000001 1.596150 0.031467 0.194006
39 88.895828 22.973221 7.706260 -2.797142 0.033053 0.686792
40 5.595502 -0.000000 0.000009 0.000000 -0.000000 0.366519
41 0.0 0.0 0.0 0.0 0.0 0.0
42 92.364777 7.629395 -2.440334 0.001629 -0.000243 0.148353
43 4.012198 -0.000002 0.000002 -0.000000 -0.000000 0.427606
44 7.425244 0.000004 0.000000 -0.000000 -0.000000 -3.141593
45 48.003227 -5.008455 6.468823 -2.046970 1.564393 1.171540
46 35.773132 -32.097885 -1.330358 -1.564896 -3.140380 -1.559171
47 26.836367 23.845194 -0.971343 1.564896 0.001213 -1.559171
48 -3.825685 0.003307 -0.381501 0.000000 0.000000 0.000000
49 31.302332 -0.003326 0.381514 -0.000000 0.000000 -0.000000
end
