version 1
nodes
0 "Bip01" -1
1 "Bip01 Pelvis" 0
2 "Bip01 L Thigh" 1
3 "Bip01 L Calf" 2
4 "Bip01 L Foot" 3
5 "Bip01 L Toe0" 4
6 "Bip01 L Toe01" 5
7 "Bip01 L Toe02" 6
8 "Null 8" -1
9 "Bip01 R Thigh" 1
10 "Bip01 R Calf" 9
11 "Bip01 R Foot" 10
12 "Bip01 R Toe0" 11
13 "Bip01 R Toe01" 12
14 "Bip01 R Toe02" 13
15 "Null 15" -1
16 "Bip01 Spine" 1
17 "Bip01 Spine1" 16
18 "Bip01 Neck" 17
19 "Bip01 Head" 18
20 "Null 20" -1
21 "Bip01 Ponytail1" 19
22 "Bip01 Ponytail11" 21
23 "Null 23" -1
24 "Bip01 L Clavicle" 18
25 "Bip01 L UpperArm" 24
26 "Bip01 L Forearm" 25
27 "Bip01 L Hand" 26
28 "Bip01 L Finger0" 27
29 "Bip01 L Finger01" 28
30 "Null 30" -1
31 "Bip01 L Finger1" 27
32 "Bip01 L Finger11" 31
33 "Bip01 L Finger1Nub" 32
34 "hand_bofdgne01" 27
35 "Bip01 R Clavicle" 18
36 "Bip01 R UpperArm" 35
37 "Bip01 R Forearm" 36
38 "Bip01 R Hand" 37
39 "Bip01 R Finger0" 38
40 "Bip01 R Finger01" 39
41 "Null 41" -1
42 "Bip01 R Finger1" 38
43 "Bip01 R Finger11" 42
44 "Bip01 R Finger1Nub" 43
45 "knife_gdf" 38
46 "Bone03" 17
47 "Box04" 17
48 "Box01" 47
49 "eyebone01" 48
end
skeleton
time 0
0 0.000000 7.767428 92.907204 0.000000 0.000000 -1.570795
1 0.000000 0.000000 0.000000 -1.570795 -1.570796 0.000000
2 -0.000026 0.000030 18.595530 -0.088765 -2.774887 -0.843333
3 51.256512 0.000001 0.000003 0.000000 0.000000 -1.358248
4 42.401634 0.000004 0.000002 0.005288 -0.172125 0.469103
5 23.783972 40.997162 -0.000001 -0.000000 0.000000 1.570796
6 4.401492 0.000000 0.000004 0.000000 0.000000 0.000000
7 4.401490 -0.000000 -0.000002 0.000000 0.000000 0.000000
8 0.0 0.0 0.0 0.0 0.0 0.0
9 0.000026 -0.000022 -18.595530 0.360893 2.734021 -0.381225
10 51.256504 -0.000001 -0.000001 -0.000000 0.000000 -1.420701
11 42.401630 0.000002 0.000001 0.052930 0.214486 0.909509
12 23.783974 40.997162 0.000003 0.000000 0.000000 1.570796
13 4.401495 0.000000 0.000002 0.000000 0.000000 0.000000
14 4.401495 0.000000 -0.000003 0.000000 0.000000 0.000000
15 0.0 0.0 0.0 0.0 0.0 0.0
16 11.444740 -0.019552 -0.003825 0.169042 -0.043626 0.511972
17 28.680410 -0.040431 0.000000 -0.000000 0.000001 -0.296706
18 53.093933 -0.004328 -0.000000 0.000000 -0.000000 0.030000
19 5.437288 -0.000001 -0.000000 0.174533 0.000000 0.012836
20 0.0 0.0 0.0 0.0 0.0 0.0
21 7.285625 -7.278543 -0.000020 -0.000005 0.000001 -2.749229
22 16.349977 -0.013655 -0.000001 -0.000000 0.000001 -0.219299
23 0.0 0.0 0.0 0.0 0.0 0.0
24 -16.427876 0.510342 35.303993 -0.000014 -1.370796 3.110810
25 39.921352 -0.000002 0.000001 0.520939 1.156512 0.496906
26 48.422318 -0.000000 0.000002 0.000000 -0.000000 -0.451598
27 8.438255 0.000002 0.000001 -1.648338 0.041525 -0.131120
28 88.895813 22.973207 -7.706261 2.801595 -0.065289 0.596260
29 5.595500 0.000007 -0.000003 -0.000000 0.000000 0.462512
30 0.0 0.0 0.0 0.0 0.0 0.0
31 92.364761 7.629378 2.440333 -0.001598 0.000398 0.244346
32 4.012197 -0.000005 -0.000000 -0.000000 -0.000000 0.523599
33 7.425243 0.000002 0.000000 0.000000 -0.000000 0.000000
34 48.724422 -4.691670 -7.699067 -0.671515 -1.576963 0.751473
35 -17.143812 0.532522 -35.127754 -0.000014 1.370796 3.110783
36 39.921356 -0.000001 -0.000006 -0.016730 -1.105058 0.257997
37 48.422314 0.000000 -0.000002 0.000000 -0.000000 -0.568187
38 8.438262 0.000000 -0.000001 1.596193 -0.064491 0.191413
39 88.895821 22.973223 7.706260 -2.801595 0.065289 0.596260
40 5.595502 -0.000004 0.000004 -0.000000 0.000000 0.462512
41 0.0 0.0 0.0 0.0 0.0 0.0
42 92.364769 7.629402 -2.440334 0.001598 -0.000398 0.244346
43 4.012198 -0.000002 0.000001 -0.000000 -0.000000 0.523599
44 7.425244 -0.000001 0.000001 0.000000 0.000000 -3.141593
45 48.003227 -5.008455 6.468823 -2.046970 1.564393 1.171540
46 35.773140 -32.097885 -1.330357 -1.564896 -3.140380 -1.559171
47 26.836372 23.845190 -0.971343 1.564896 0.001213 -1.559171
48 -3.825685 0.003307 -0.381503 0.000000 0.000000 0.000000
49 31.302332 -0.003325 0.381511 -0.000000 -0.000000 -0.000000
time 1
0 0.000000 12.857386 105.640305 0.118314 -0.272417 -1.871714
1 0.000000 -0.000000 0.000002 -1.570795 -1.570796 0.000000
2 -0.000025 0.000028 18.595531 -0.326283 -2.878069 -0.159304
3 51.256508 -0.000000 -0.000001 0.000000 -0.000000 -0.735377
4 42.401642 0.000000 0.000004 -0.186797 -0.193868 0.193834
5 23.783974 40.997162 -0.000003 0.000000 0.000000 1.570796
6 4.401493 0.000000 0.000003 0.000000 0.000000 0.000000
7 4.401491 0.000000 -0.000003 0.000000 0.000000 0.000000
8 0.0 0.0 0.0 0.0 0.0 0.0
9 0.000028 -0.000021 -18.595530 0.373421 2.675478 -0.165904
10 51.256512 -0.000003 -0.000003 -0.000000 0.000000 -1.078393
11 42.401634 0.000001 0.000003 -0.257237 0.127473 0.544865
12 23.783974 40.997162 0.000006 -0.000000 0.000000 1.570796
13 4.401492 0.000000 0.000002 0.000000 0.000000 0.000000
14 4.401493 0.000000 -0.000003 0.000000 0.000000 0.000000
15 0.0 0.0 0.0 0.0 0.0 0.0
16 11.433299 -0.022517 -0.003805 0.168339 0.046287 -0.004024
17 28.691988 -0.042268 0.000001 -0.000000 0.000000 -0.018544
18 53.093937 -0.004334 -0.000001 0.000000 -0.000000 0.030000
19 5.437295 0.000003 0.000001 0.174533 -0.000000 0.258272
20 0.0 0.0 0.0 0.0 0.0 0.0
21 7.285623 -7.278538 -0.000019 -0.000005 0.000001 -2.749229
22 16.349985 -0.013653 -0.000002 -0.000000 0.000001 -0.219299
23 0.0 0.0 0.0 0.0 0.0 0.0
24 -16.427883 0.510349 35.303997 -0.979054 -1.240291 -2.219356
25 39.921349 -0.000004 0.000004 -0.233874 0.256301 0.556108
26 48.422325 0.000007 -0.000011 -0.000000 -0.000000 -0.517179
27 8.438259 -0.000002 0.000011 -1.606977 0.037398 -0.645682
28 88.895805 22.973200 -7.706250 2.801595 -0.065289 0.596260
29 5.595507 0.000006 -0.000017 0.000000 0.000000 0.462512
30 0.0 0.0 0.0 0.0 0.0 0.0
31 92.364761 7.629368 2.440343 -0.001598 0.000398 0.244345
32 4.012203 0.000015 0.000009 0.000000 0.000000 0.523599
33 7.425242 0.000004 -0.000006 -0.000000 0.000000 -0.000000
34 48.724415 -4.691669 -7.699058 -0.671516 -1.576963 0.751474
35 -17.143818 0.532524 -35.127758 0.979044 1.240296 -2.219365
36 39.921345 -0.000008 -0.000004 0.268661 -0.225269 0.491225
37 48.422310 0.000004 0.000002 0.000000 0.000000 -0.568187
38 8.438267 0.000001 0.000011 1.596478 -0.044432 -0.516268
39 88.895821 22.973213 7.706258 -2.801595 0.065289 0.596260
40 5.595508 0.000003 0.000008 0.000000 -0.000000 0.462512
41 0.0 0.0 0.0 0.0 0.0 0.0
42 92.364769 7.629388 -2.440336 0.001598 -0.000398 0.244346
43 4.012196 -0.000006 -0.000001 -0.000000 0.000000 0.523599
44 7.425241 0.000010 0.000001 0.000000 0.000000 3.141593
45 48.003227 -5.008459 6.468823 -2.046967 1.564393 1.171542
46 35.773144 -32.097885 -1.330358 -1.564896 -3.140380 -1.559171
47 26.836363 23.845190 -0.971343 1.564896 0.001213 -1.559171
48 -3.825682 0.003307 -0.381495 0.149299 0.227651 0.008532
49 31.302332 -0.003325 0.381511 -0.000000 0.000000 -0.000000
time 2
0 -19.253632 16.136841 113.137833 0.239323 -0.470300 -2.064724
1 -0.000000 -0.000000 0.000002 -1.570795 -1.570796 0.000000
2 -0.000028 0.000030 18.595533 -0.471344 -2.511920 -0.279057
3 51.256512 -0.000002 0.000001 -0.000000 0.000000 -1.288037
4 42.401634 0.000000 -0.000005 0.049785 -0.050084 0.291711
5 23.783974 40.997162 -0.000001 -0.000000 -0.000000 1.570796
6 4.401499 0.000001 -0.000000 0.000000 0.000000 0.000000
7 4.401488 0.000001 -0.000004 0.000000 0.000000 0.000000
8 0.0 0.0 0.0 0.0 0.0 0.0
9 0.000025 -0.000020 -18.595528 0.471102 2.838648 0.179018
10 51.256512 0.000002 -0.000004 0.000000 -0.000000 -0.827649
11 42.401638 -0.000003 -0.000007 -0.373376 -0.064165 0.527868
12 23.783974 40.997162 0.000003 0.000000 -0.000000 1.570796
13 4.401497 0.000000 0.000002 0.000000 0.000000 0.000000
14 4.401494 0.000000 -0.000003 0.000000 0.000000 0.000000
15 0.0 0.0 0.0 0.0 0.0 0.0
16 11.427397 -0.021722 -0.003400 0.150841 0.088126 -0.263066
17 28.702271 -0.041204 -0.000004 -0.000000 -0.000001 0.226893
18 53.093937 -0.004332 -0.000002 0.000000 -0.000000 0.030000
19 5.437280 -0.000003 -0.000002 0.174533 -0.000001 0.274635
20 0.0 0.0 0.0 0.0 0.0 0.0
21 7.285613 -7.278547 -0.000022 -0.000005 0.000001 -2.749229
22 16.349966 -0.013651 -0.000001 -0.000000 0.000001 -0.219299
23 0.0 0.0 0.0 0.0 0.0 0.0
24 -16.427887 0.510350 35.304001 -1.168042 -1.093502 -2.048828
25 39.921356 0.000005 -0.000010 -0.874259 -0.114006 0.561368
26 48.422321 0.000005 -0.000001 0.000000 0.000000 -0.568188
27 8.438260 -0.000001 -0.000003 -1.639019 0.002781 -0.942276
28 88.895813 22.973217 -7.706257 2.801595 -0.065289 0.596260
29 5.595501 0.000006 0.000001 0.000000 -0.000000 0.462512
30 0.0 0.0 0.0 0.0 0.0 0.0
31 92.364754 7.629388 2.440328 -0.001598 0.000398 0.244346
32 4.012183 0.000005 0.000005 -0.000000 0.000000 0.523599
33 7.425244 -0.000005 -0.000002 0.000000 -0.000000 -0.000000
34 48.724411 -4.691665 -7.699068 -0.671515 -1.576963 0.751472
35 -17.143826 0.532521 -35.127762 1.168036 1.093506 -2.048833
36 39.921352 -0.000005 -0.000008 0.706678 0.155486 0.459200
37 48.422314 -0.000011 -0.000006 -0.000000 0.000000 -0.568187
38 8.438261 -0.000000 0.000002 1.639019 -0.002781 -0.942276
39 88.895821 22.973209 7.706263 -2.801595 0.065289 0.596260
40 5.595502 0.000001 0.000008 -0.000000 0.000000 0.462512
41 0.0 0.0 0.0 0.0 0.0 0.0
42 92.364777 7.629373 -2.440342 0.001598 -0.000398 0.244346
43 4.012194 -0.000006 -0.000007 -0.000000 0.000000 0.523599
44 7.425250 0.000004 0.000007 0.000000 0.000000 -3.141593
45 48.003227 -5.008463 6.468820 -2.046971 1.564393 1.171539
46 35.773140 -32.097889 -1.330358 -1.564896 -3.140380 -1.559171
47 26.836365 23.845192 -0.971345 1.564896 0.001213 -1.559171
48 -3.825683 0.003307 -0.381497 0.261799 0.261799 -0.000000
49 31.302336 -0.003320 0.381514 -0.000000 0.000000 -0.000000
time 3
0 -6.567194 -20.349348 91.839783 0.073825 -0.538075 -1.720315
1 -0.000002 -0.000000 0.000001 -1.570795 -1.570796 0.000000
2 -0.000026 0.000031 18.595531 -0.100217 -2.728729 -0.306146
3 51.256516 -0.000003 0.000002 -0.000000 0.000000 -1.214278
4 42.401634 0.000004 -0.000001 -0.318709 -0.249921 0.286573
5 23.783972 40.997162 -0.000003 -0.000000 -0.000000 1.570796
6 4.401489 0.000000 -0.000007 0.000000 0.000000 0.000000
7 4.401495 0.000000 0.000001 0.000000 0.000000 0.000000
8 0.0 0.0 0.0 0.0 0.0 0.0
9 0.000029 -0.000018 -18.595530 0.341309 2.783661 0.587989
10 51.256512 0.000001 -0.000003 -0.000000 0.000000 -1.167996
11 42.401630 -0.000000 -0.000002 0.099213 0.293644 1.114438
12 23.783976 40.997166 0.000003 0.000000 0.000000 1.570796
13 4.401494 0.000000 0.000002 0.000000 0.000000 0.000000
14 4.401495 0.000000 -0.000003 0.000000 0.000000 0.000000
15 0.0 0.0 0.0 0.0 0.0 0.0
16 11.440894 -0.021268 -0.003941 0.174128 -0.011874 0.329191
17 28.708639 -0.039187 -0.000001 -0.000000 -0.000001 0.385063
18 53.093929 -0.004329 -0.000002 0.000000 -0.000000 0.030000
19 5.437290 -0.000002 0.000000 0.174533 0.000001 -0.483492
20 0.0 0.0 0.0 0.0 0.0 0.0
21 7.285623 -7.278543 -0.000020 -0.000005 0.000001 -2.749229
22 16.349960 -0.013649 -0.000001 -0.000000 0.000001 -0.219299
23 0.0 0.0 0.0 0.0 0.0 0.0
24 -16.427883 0.510348 35.303997 -0.748990 -1.192012 -2.459933
25 39.921352 -0.000004 -0.000004 -1.204610 0.209407 -0.644272
26 48.422321 0.000002 -0.000003 -0.000000 -0.000000 -0.575474
27 8.438263 0.000005 -0.000001 -1.961138 -0.119411 -0.537526
28 88.895828 22.973194 -7.706274 2.801595 -0.065289 0.596260
29 5.595510 -0.000002 0.000002 -0.000000 -0.000000 0.462512
30 0.0 0.0 0.0 0.0 0.0 0.0
31 92.364769 7.629373 2.440318 -0.001598 0.000398 0.244345
32 4.012211 0.000000 -0.000006 -0.000000 -0.000000 0.523599
33 7.425247 0.000006 0.000003 0.000000 0.000000 0.000000
34 48.724422 -4.691675 -7.699065 -0.671506 -1.576944 0.751463
35 -17.143818 0.532522 -35.127758 0.748978 1.192016 -2.459944
36 39.921341 -0.000000 -0.000010 1.236352 -0.260037 -0.724163
37 48.422318 0.000007 0.000007 0.000000 -0.000000 -0.568187
38 8.438257 0.000003 0.000003 1.887176 0.038538 -0.472615
39 88.895821 22.973215 7.706263 -2.801595 0.065289 0.596260
40 5.595499 0.000001 0.000005 0.000000 -0.000000 0.462512
41 0.0 0.0 0.0 0.0 0.0 0.0
42 92.364769 7.629394 -2.440336 0.001598 -0.000398 0.244346
43 4.012186 0.000005 -0.000001 -0.000000 -0.000000 0.523599
44 7.425248 0.000001 -0.000002 0.000000 0.000000 -3.141593
45 48.003223 -5.008464 6.468820 -2.046970 1.564393 1.171540
46 35.773136 -32.097889 -1.330359 -1.564896 -3.140380 -1.559171
47 26.836348 23.845194 -0.971343 1.564896 0.001213 -1.559171
48 -3.825685 0.003307 -0.381491 0.298015 -0.414977 -0.193459
49 31.302336 -0.003320 0.381507 -0.000000 0.000000 -0.000000
time 4
0 6.506936 -48.353607 73.828362 -0.148332 -0.504035 -1.270736
1 0.000003 0.000000 0.000002 -1.570795 -1.570796 0.000000
2 -0.000028 0.000025 18.595528 0.114878 -2.713150 -0.574831
3 51.256512 -0.000005 0.000001 -0.000000 0.000000 -1.932287
4 42.401627 0.000004 0.000001 -0.083984 -0.208900 0.879695
5 23.783974 40.997169 0.000006 0.000000 -0.000000 1.570796
6 4.401495 -0.000000 0.000002 0.000000 0.000000 0.000000
7 4.401488 0.000000 -0.000005 0.000000 0.000000 0.000000
8 0.0 0.0 0.0 0.0 0.0 0.0
9 0.000027 -0.000021 -18.595530 0.283091 -3.091167 1.368782
10 51.256512 0.000001 0.000001 0.000000 0.000000 -0.264750
11 42.401638 0.000001 0.000002 0.546042 0.307532 1.081316
12 23.783972 40.997162 -0.000005 0.000000 -0.000000 1.570796
13 4.401492 0.000000 -0.000000 0.000000 0.000000 0.000000
14 4.401493 0.000000 -0.000001 0.000000 0.000000 0.000000
15 0.0 0.0 0.0 0.0 0.0 0.0
16 11.453197 -0.011351 -0.002812 0.125007 -0.122113 1.031615
17 28.712603 -0.037337 0.000001 -0.000000 -0.000001 0.488692
18 53.093937 -0.004327 -0.000001 0.000000 -0.000000 0.030000
19 5.437284 -0.000002 -0.000001 0.174531 0.000003 -1.296161
20 0.0 0.0 0.0 0.0 0.0 0.0
21 7.285624 -7.278540 -0.000016 -0.000005 0.000001 -2.749229
22 16.349972 -0.013647 0.000001 -0.000000 0.000001 -0.219299
23 0.0 0.0 0.0 0.0 0.0 0.0
24 -16.427887 0.510346 35.303989 -0.000008 -1.196263 3.110803
25 39.921352 0.000006 0.000002 -0.557493 -0.217937 -1.975837
26 48.422306 0.000005 -0.000003 -0.000000 0.000000 -0.568187
27 8.438264 0.000010 -0.000001 -2.295175 -0.051491 0.060915
28 88.895821 22.973206 -7.706258 2.801595 -0.065289 0.596260
29 5.595508 0.000007 0.000002 0.000000 0.000000 0.462512
30 0.0 0.0 0.0 0.0 0.0 0.0
31 92.364761 7.629379 2.440335 -0.001598 0.000398 0.244346
32 4.012182 -0.000002 0.000002 -0.000000 0.000000 0.523599
33 7.425251 -0.000002 -0.000001 0.000000 -0.000000 -0.000000
34 48.724422 -4.691673 -7.699067 -0.671517 -1.576963 0.751474
35 -17.143810 0.532518 -35.127758 -0.000008 1.196263 3.110789
36 39.921341 -0.000002 0.000001 0.745877 0.302636 -2.112604
37 48.422318 0.000011 0.000011 -0.000000 0.000000 -0.568187
38 8.438268 0.000005 -0.000003 2.119791 -0.064491 0.191413
39 88.895821 22.973198 7.706271 -2.801595 0.065289 0.596260
40 5.595505 -0.000001 0.000002 -0.000000 0.000000 0.462512
41 0.0 0.0 0.0 0.0 0.0 0.0
42 92.364761 7.629381 -2.440324 0.001598 -0.000398 0.244346
43 4.012185 0.000010 -0.000010 0.000000 -0.000000 0.523599
44 7.425246 -0.000011 0.000006 0.000000 -0.000000 -3.141593
45 48.003223 -5.008461 6.468828 -2.046971 1.564393 1.171539
46 35.773132 -32.097878 -1.330357 -1.564896 -3.140380 -1.559171
47 26.836363 23.845194 -0.971345 1.564896 0.001213 -1.559171
48 -3.825682 0.003308 -0.381494 0.470556 -0.986742 -0.470556
49 31.302334 -0.003311 0.381506 -0.000000 -0.000000 -0.000000
time 5
0 2.068938 -27.752018 81.071884 -0.166720 -0.676425 -1.237821
1 0.000001 -0.000000 0.000002 -1.570795 -1.570796 0.000000
2 -0.000026 0.000027 18.595528 0.039132 -2.775557 -0.551201
3 51.256512 -0.000005 0.000004 0.000000 -0.000000 -1.578556
4 42.401623 -0.000001 0.000001 -0.069298 -0.071090 0.410166
5 23.783976 40.997166 0.000003 -0.000000 0.000000 1.570796
6 4.401496 -0.000000 0.000003 0.000000 0.000000 0.000000
7 4.401490 0.000000 0.000001 0.000000 0.000000 0.000000
8 0.0 0.0 0.0 0.0 0.0 0.0
9 0.000019 -0.000028 -18.595530 0.309399 3.104026 0.995242
10 51.256516 0.000001 0.000002 0.000000 0.000000 -1.034043
11 42.401638 -0.000004 0.000000 0.485741 0.252284 1.284236
12 23.783976 40.997162 -0.000004 0.000000 -0.000000 1.570796
13 4.401496 -0.000000 -0.000001 0.000000 0.000000 0.000000
14 4.401493 -0.000000 0.000002 0.000000 0.000000 0.000000
15 0.0 0.0 0.0 0.0 0.0 0.0
16 11.449513 -0.016001 -0.003438 0.152207 -0.085734 0.770926
17 28.712612 -0.037334 0.000001 -0.000000 -0.000001 0.488692
18 53.093941 -0.004326 0.000000 0.000000 -0.000000 0.030000
19 5.437295 -0.000002 -0.000001 0.174532 0.000003 -1.034362
20 0.0 0.0 0.0 0.0 0.0 0.0
21 7.285620 -7.278543 -0.000017 -0.000005 0.000001 -2.749229
22 16.349962 -0.013650 -0.000004 -0.000000 0.000001 -0.219299
23 0.0 0.0 0.0 0.0 0.0 0.0
24 -16.427877 0.510342 35.303997 -0.000008 -1.196263 3.110803
25 39.921352 -0.000003 -0.000001 -0.643119 -0.059103 -1.818506
26 48.422329 0.000002 -0.000000 0.000000 -0.000000 -0.568187
27 8.438261 0.000003 0.000000 -2.120699 -0.084306 0.282722
28 88.895828 22.973204 -7.706252 2.801595 -0.065289 0.596260
29 5.595490 -0.000002 -0.000003 0.000000 0.000000 0.462512
30 0.0 0.0 0.0 0.0 0.0 0.0
31 92.364769 7.629379 2.440344 -0.001598 0.000398 0.244346
32 4.012197 0.000006 -0.000001 -0.000000 -0.000000 0.523599
33 7.425239 -0.000006 -0.000004 0.000000 0.000000 0.000000
34 48.724434 -4.691668 -7.699061 -0.671518 -1.576963 0.751475
35 -17.143810 0.532525 -35.127754 -0.000008 1.196263 3.110789
36 39.921345 0.000001 0.000001 0.868509 0.143286 -1.927130
37 48.422321 0.000006 -0.000005 0.000000 0.000000 -0.568187
38 8.438263 -0.000003 -0.000000 2.120699 0.084306 0.282722
39 88.895798 22.973192 7.706265 -2.801595 0.065289 0.596260
40 5.595504 0.000004 0.000005 0.000000 0.000000 0.462512
41 0.0 0.0 0.0 0.0 0.0 0.0
42 92.364754 7.629364 -2.440344 0.001598 -0.000398 0.244346
43 4.012206 -0.000003 0.000005 0.000000 -0.000000 0.523599
44 7.425240 -0.000002 0.000008 0.000000 0.000000 3.141593
45 48.003231 -5.008483 6.468815 -2.046970 1.564393 1.171540
46 35.773148 -32.097893 -1.330359 -1.564896 -3.140380 -1.559171
47 26.836367 23.845194 -0.971345 1.564896 0.001213 -1.559171
48 -3.825682 0.003307 -0.381497 0.398179 -0.827354 -0.367280
49 31.302338 -0.003313 0.381498 0.000000 -0.000000 -0.000000
time 6
0 -7.476166 2.377605 92.907204 0.000000 0.000000 -1.570795
1 0.000000 -0.000000 0.000000 -1.570795 -1.570796 0.000000
2 -0.000023 0.000030 18.595530 0.077449 -2.855156 -0.939679
3 51.256512 0.000003 0.000002 0.000000 -0.000000 -0.707705
4 42.401634 -0.000002 0.000002 -0.405587 -0.230718 -0.242625
5 23.783972 40.997158 -0.000001 0.000000 -0.000000 1.570796
6 4.401494 0.000000 0.000004 0.000000 0.000000 0.000000
7 4.401485 0.000000 -0.000003 0.000000 0.000000 0.000000
8 0.0 0.0 0.0 0.0 0.0 0.0
9 0.000029 -0.000022 -18.595530 0.433481 2.821977 -0.273944
10 51.256516 0.000001 -0.000005 0.000000 -0.000000 -1.396537
11 42.401634 -0.000003 0.000001 0.040139 0.161578 1.009466
12 23.783974 40.997162 -0.000000 0.000000 0.000000 1.570796
13 4.401492 0.000000 0.000003 0.000000 0.000000 0.000000
14 4.401493 0.000000 -0.000002 0.000000 0.000000 0.000000
15 0.0 0.0 0.0 0.0 0.0 0.0
16 11.446750 -0.018293 -0.003701 0.163696 -0.060803 0.614308
17 28.696138 -0.042149 0.000000 -0.000000 -0.000000 0.079631
18 53.093937 -0.004331 -0.000001 0.000000 -0.000000 0.030000
19 5.437299 0.000001 0.000000 0.174533 0.000001 -0.467130
20 0.0 0.0 0.0 0.0 0.0 0.0
21 7.285627 -7.278548 -0.000018 -0.000005 0.000001 -2.749229
22 16.349976 -0.013656 -0.000001 -0.000000 0.000001 -0.219299
23 0.0 0.0 0.0 0.0 0.0 0.0
24 -16.427879 0.510353 35.303993 -0.000009 -1.247977 3.110805
25 39.921345 -0.000001 0.000004 -0.786616 0.629908 -1.384573
26 48.422314 0.000000 -0.000004 0.000000 -0.000000 -0.533643
27 8.438256 0.000002 0.000004 -1.955810 -0.074455 0.178418
28 88.895828 22.973202 -7.706251 2.801595 -0.065289 0.596260
29 5.595502 0.000001 -0.000008 0.000000 0.000000 0.462512
30 0.0 0.0 0.0 0.0 0.0 0.0
31 92.364777 7.629377 2.440343 -0.001598 0.000398 0.244346
32 4.012198 -0.000002 -0.000003 -0.000000 0.000000 0.523599
33 7.425245 -0.000000 -0.000003 0.000000 0.000000 0.000000
34 48.724426 -4.691672 -7.699068 -0.671517 -1.576963 0.751474
35 -17.143806 0.532525 -35.127754 -0.000009 1.247977 3.110788
36 39.921349 0.000001 -0.000007 1.068875 -0.528224 -1.452396
37 48.422310 -0.000000 0.000004 0.000000 -0.000000 -0.568187
38 8.438259 0.000002 -0.000005 1.963932 0.062942 0.256513
39 88.895821 22.973207 7.706263 -2.801595 0.065289 0.596260
40 5.595496 0.000002 0.000015 -0.000000 0.000000 0.462512
41 0.0 0.0 0.0 0.0 0.0 0.0
42 92.364769 7.629381 -2.440338 0.001598 -0.000398 0.244345
43 4.012197 -0.000000 -0.000001 -0.000000 -0.000000 0.523599
44 7.425244 -0.000000 -0.000001 0.000000 -0.000000 -3.141593
45 48.003223 -5.008465 6.468823 -2.046970 1.564393 1.171540
46 35.773148 -32.097893 -1.330357 -1.564896 -3.140380 -1.559171
47 26.836357 23.845190 -0.971343 1.564896 0.001213 -1.559171
48 -3.825682 0.003308 -0.381503 0.304544 -0.417932 -0.197378
49 31.302338 -0.003322 0.381499 -0.000000 -0.000000 -0.000000
time 7
0 -17.464781 11.699429 92.907204 0.000000 0.000000 -1.570795
1 -0.000000 0.000001 0.000000 -1.570795 -1.570796 0.000000
2 -0.000024 0.000030 18.595530 0.057316 -2.784485 -1.137807
3 51.256519 0.000007 0.000004 -0.000000 0.000000 -1.506863
4 42.401646 -0.000001 0.000000 -0.074214 0.004747 -0.115472
5 23.783978 40.997158 0.000001 0.000000 -0.000000 1.570796
6 4.401494 -0.000001 0.000002 0.000000 0.000000 0.000000
7 4.401495 0.000001 0.000000 0.000000 0.000000 0.000000
8 0.0 0.0 0.0 0.0 0.0 0.0
9 0.000027 -0.000021 -18.595530 0.505636 2.932609 -0.401966
10 51.256508 -0.000001 -0.000001 0.000000 -0.000000 -1.447792
11 42.401630 -0.000001 0.000000 0.006558 -0.022462 0.997909
12 23.783974 40.997158 0.000000 0.000000 0.000000 1.570796
13 4.401495 0.000000 0.000003 0.000000 0.000000 0.000000
14 4.401493 0.000000 -0.000002 0.000000 0.000000 0.000000
15 0.0 0.0 0.0 0.0 0.0 0.0
16 11.444741 -0.019552 -0.003825 0.169042 -0.043626 0.511972
17 28.680403 -0.040430 0.000001 -0.000000 0.000001 -0.296706
18 53.093945 -0.004330 -0.000001 0.000000 -0.000000 0.030000
19 5.437294 0.000001 0.000001 0.174533 0.000000 0.012836
20 0.0 0.0 0.0 0.0 0.0 0.0
21 7.285623 -7.278546 -0.000019 -0.000005 0.000001 -2.749229
22 16.349976 -0.013655 -0.000000 -0.000000 0.000001 -0.219299
23 0.0 0.0 0.0 0.0 0.0 0.0
24 -16.427883 0.510346 35.303993 -0.000011 -1.309387 3.110807
25 39.921349 0.000001 0.000001 -0.116848 1.194188 -0.367655
26 48.422321 -0.000000 -0.000002 -0.000000 -0.000000 -0.492620
27 8.438261 0.000002 -0.000006 -1.797453 -0.028394 0.019077
28 88.895828 22.973202 -7.706260 2.801595 -0.065289 0.596260
29 5.595503 0.000001 -0.000003 0.000000 0.000000 0.462512
30 0.0 0.0 0.0 0.0 0.0 0.0
31 92.364777 7.629379 2.440336 -0.001598 0.000398 0.244346
32 4.012198 0.000001 -0.000002 -0.000000 -0.000000 0.523599
33 7.425244 -0.000000 0.000003 0.000000 0.000000 -0.000000
34 48.724430 -4.691676 -7.699066 -0.671517 -1.576963 0.751475
35 -17.143822 0.532528 -35.127754 -0.000011 1.309387 3.110786
36 39.921345 0.000001 0.000001 0.553699 -1.115941 -0.558556
37 48.422306 -0.000000 -0.000003 0.000000 -0.000000 -0.568187
38 8.438259 -0.000000 -0.000006 1.779014 0.002228 0.218087
39 88.895828 22.973209 7.706248 -2.801595 0.065289 0.596260
40 5.595502 0.000001 0.000006 -0.000000 -0.000000 0.462512
41 0.0 0.0 0.0 0.0 0.0 0.0
42 92.364777 7.629385 -2.440343 0.001598 -0.000398 0.244346
43 4.012200 0.000008 0.000002 0.000000 0.000000 0.523599
44 7.425240 0.000001 0.000002 0.000000 0.000000 -3.141593
45 48.003227 -5.008463 6.468817 -2.046970 1.564393 1.171540
46 35.773136 -32.097889 -1.330356 -1.564896 -3.140380 -1.559171
47 26.836369 23.845192 -0.971344 1.564896 0.001213 -1.559171
48 -3.825685 0.003307 -0.381494 0.253427 -0.075972 -0.088894
49 31.302340 -0.003323 0.381498 -0.000000 -0.000000 -0.000000
time 8
0 -22.572445 14.111427 92.907204 0.000000 0.000000 -1.570795
1 -0.000000 0.000000 0.000000 -1.570795 -1.570796 0.000000
2 -0.000025 0.000029 18.595530 -0.006276 -2.568752 -0.807348
3 51.256519 -0.000000 0.000003 -0.000000 0.000000 -0.962783
4 42.401638 -0.000000 0.000003 0.108680 -0.379248 0.067743
5 23.783972 40.997162 -0.000001 -0.000000 0.000000 1.570796
6 4.401495 0.000000 0.000003 0.000000 0.000000 0.000000
7 4.401489 -0.000000 -0.000002 0.000000 0.000000 0.000000
8 0.0 0.0 0.0 0.0 0.0 0.0
9 0.000027 -0.000022 -18.595531 0.551160 2.993575 -0.421672
10 51.256512 -0.000000 -0.000003 0.000000 -0.000000 -1.432777
11 42.401634 -0.000000 0.000003 -0.011036 -0.099866 0.997964
12 23.783974 40.997162 0.000002 0.000000 0.000000 1.570796
13 4.401494 0.000000 0.000002 0.000000 0.000000 0.000000
14 4.401495 0.000000 -0.000003 0.000000 0.000000 0.000000
15 0.0 0.0 0.0 0.0 0.0 0.0
16 11.444421 -0.019733 -0.003841 0.169724 -0.040868 0.495829
17 28.678436 -0.039772 0.000001 -0.000000 0.000001 -0.345793
18 53.093952 -0.004332 0.000000 0.000000 -0.000000 0.030000
19 5.437283 -0.000000 0.000000 0.174533 0.000000 0.078285
20 0.0 0.0 0.0 0.0 0.0 0.0
21 7.285622 -7.278543 -0.000019 -0.000005 0.000001 -2.749229
22 16.349974 -0.013658 -0.000001 -0.000000 0.000001 -0.219299
23 0.0 0.0 0.0 0.0 0.0 0.0
24 -16.427896 0.510346 35.303993 -0.000014 -1.370796 3.110810
25 39.921345 0.000001 0.000017 0.650778 1.122241 0.627902
26 48.422318 0.000002 0.000001 0.000000 -0.000000 -0.451598
27 8.438260 -0.000001 0.000001 -1.648338 0.041525 -0.131120
28 88.895813 22.973202 -7.706260 2.801595 -0.065289 0.596260
29 5.595502 -0.000000 -0.000006 -0.000000 0.000000 0.462512
30 0.0 0.0 0.0 0.0 0.0 0.0
31 92.364761 7.629379 2.440335 -0.001598 0.000398 0.244346
32 4.012197 0.000002 -0.000001 -0.000000 -0.000000 0.523599
33 7.425241 -0.000001 0.000000 0.000000 -0.000000 0.000000
34 48.724422 -4.691669 -7.699067 -0.671515 -1.576963 0.751473
35 -17.143826 0.532523 -35.127754 -0.000014 1.370796 3.110783
36 39.921349 -0.000002 0.000001 -0.149537 -1.084623 0.389094
37 48.422318 0.000001 -0.000000 0.000000 0.000000 -0.568187
38 8.438262 0.000001 0.000004 1.596193 -0.064491 0.191413
39 88.895828 22.973200 7.706263 -2.801595 0.065289 0.596260
40 5.595502 0.000004 0.000006 -0.000000 0.000000 0.462512
41 0.0 0.0 0.0 0.0 0.0 0.0
42 92.364777 7.629379 -2.440331 0.001598 -0.000398 0.244346
43 4.012198 0.000001 0.000001 -0.000000 -0.000000 0.523599
44 7.425247 -0.000002 0.000000 0.000000 -0.000000 3.141593
45 48.003231 -5.008469 6.468824 -2.046970 1.564393 1.171540
46 35.773144 -32.097889 -1.330356 -1.564896 -3.140380 -1.559171
47 26.836363 23.845192 -0.971343 1.564896 0.001213 -1.559171
48 -3.825684 0.003308 -0.381499 0.145275 0.000753 -0.039225
49 31.302332 -0.003324 0.381510 -0.000000 -0.000000 -0.000000
time 9
0 0.000000 7.767428 92.907204 0.000000 0.000000 -1.570795
1 0.000000 0.000000 0.000000 -1.570795 -1.570796 0.000000
2 -0.000026 0.000030 18.595530 -0.118045 -2.755385 -0.841156
3 51.256508 -0.000003 -0.000000 0.000000 -0.000000 -1.358249
4 42.401630 0.000001 0.000005 0.038899 -0.162270 0.463510
5 23.783972 40.997162 -0.000000 -0.000000 0.000000 1.570796
6 4.401495 0.000000 0.000004 0.000000 0.000000 0.000000
7 4.401493 -0.000000 -0.000002 0.000000 0.000000 0.000000
8 0.0 0.0 0.0 0.0 0.0 0.0
9 0.000026 -0.000022 -18.595530 0.360893 2.734021 -0.381225
10 51.256504 -0.000001 -0.000001 -0.000000 0.000000 -1.420701
11 42.401630 0.000002 0.000001 0.052930 0.214486 0.909509
12 23.783974 40.997162 0.000003 0.000000 0.000000 1.570796
13 4.401495 0.000000 0.000002 0.000000 0.000000 0.000000
14 4.401495 0.000000 -0.000003 0.000000 0.000000 0.000000
15 0.0 0.0 0.0 0.0 0.0 0.0
16 11.444740 -0.019553 -0.003825 0.169042 -0.043626 0.511972
17 28.680410 -0.040428 0.000001 -0.000000 0.000001 -0.296706
18 53.093945 -0.004327 0.000000 0.000000 -0.000000 0.030000
19 5.437286 -0.000001 0.000000 0.174533 0.000000 0.012836
20 0.0 0.0 0.0 0.0 0.0 0.0
21 7.285623 -7.278543 -0.000020 -0.000005 0.000001 -2.749229
22 16.349968 -0.013652 -0.000001 -0.000000 0.000001 -0.219299
23 0.0 0.0 0.0 0.0 0.0 0.0
24 -16.427891 0.510345 35.303993 -0.000014 -1.370796 3.110810
25 39.921349 0.000001 0.000001 0.520939 1.156512 0.496906
26 48.422321 -0.000001 0.000002 0.000000 -0.000000 -0.451598
27 8.438255 0.000002 -0.000006 -1.648338 0.041525 -0.131120
28 88.895813 22.973206 -7.706261 2.801595 -0.065289 0.596260
29 5.595499 0.000006 -0.000003 -0.000000 0.000000 0.462512
30 0.0 0.0 0.0 0.0 0.0 0.0
31 92.364761 7.629376 2.440333 -0.001598 0.000398 0.244346
32 4.012196 -0.000006 -0.000001 -0.000000 -0.000000 0.523599
33 7.425245 0.000002 -0.000000 0.000000 -0.000000 0.000000
34 48.724422 -4.691671 -7.699067 -0.671515 -1.576963 0.751473
35 -17.143829 0.532526 -35.127754 -0.000014 1.370796 3.110783
36 39.921352 -0.000004 -0.000003 -0.016730 -1.105058 0.257997
37 48.422314 0.000002 -0.000003 0.000000 0.000000 -0.568187
38 8.438263 -0.000001 0.000001 1.596193 -0.064491 0.191413
39 88.895821 22.973202 7.706263 -2.801595 0.065289 0.596260
40 5.595500 0.000005 0.000003 -0.000000 0.000000 0.462512
41 0.0 0.0 0.0 0.0 0.0 0.0
42 92.364769 7.629381 -2.440331 0.001598 -0.000398 0.244346
43 4.012198 -0.000003 -0.000001 -0.000000 -0.000000 0.523599
44 7.425246 0.000000 0.000000 0.000000 -0.000000 3.141593
45 48.003231 -5.008466 6.468826 -2.046970 1.564393 1.171540
46 35.773140 -32.097885 -1.330356 -1.564896 -3.140380 -1.559171
47 26.836370 23.845196 -0.971343 1.564896 0.001213 -1.559171
48 -3.825685 0.003307 -0.381489 -0.000000 -0.000000 -0.000000
49 31.302338 -0.003324 0.381509 -0.000000 0.000000 -0.000000
end
