version 1
nodes
0 "Bip01" -1
1 "Bip01 Footsteps" 0
2 "Bip01 Pelvis" 0
3 "Bip01 L Thigh" 2
4 "Bip01 L Calf" 3
5 "Bip01 L Foot" 4
6 "Bip01 L Toe0" 5
7 "Bip01 L Toe01" 6
8 "Bip01 L Toe02" 7
9 "Null 9" -1
10 "Bip01 R Thigh" 2
11 "Bip01 R Calf" 10
12 "Bip01 R Foot" 11
13 "Bip01 R Toe0" 12
14 "Bip01 R Toe01" 13
15 "Bip01 R Toe02" 14
16 "Null 16" -1
17 "Bip01 Spine" 2
18 "Bip01 Spine1" 17
19 "Bip01 Neck" 18
20 "Bip01 Head" 19
21 "Null 21" -1
22 "Bip01 Ponytail1" 20
23 "Bip01 Ponytail11" 22
24 "Null 24" -1
25 "Bip01 R Clavicle" 19
26 "Bip01 R UpperArm" 25
27 "Bip01 R Forearm" 26
28 "Bip01 R Hand" 27
29 "Bip01 R Finger0" 28
30 "Bip01 R Finger01" 29
31 "Bip01 R Finger02" 30
32 "Null 32" -1
33 "knife_gdf" 28
34 "Bip01 L Clavicle" 19
35 "Bip01 L UpperArm" 34
36 "Bip01 L Forearm" 35
37 "Bip01 L Hand" 36
38 "Bip01 L Finger0" 37
39 "Bip01 L Finger01" 38
40 "Bip01 L Finger02" 39
41 "Null 41" -1
42 "hand_bofdgne01" 37
43 "Bone01" 17
44 "Bone02" 43
45 "Bone03" 44
46 "Bone04" 45
47 "Bone05" 17
48 "Bone06" 47
49 "Bone07" 48
50 "Bone08" 49
51 "Mesh01" 2
52 "Mesh02" 2
53 "Mesh04" 2
54 "gfh" 2
55 "Mesh03" 2
56 "Null 56" -1
57 "Null 57" -1
58 "Null 58" -1
59 "Null 59" -1
end
skeleton
time 0
0 -0.000000 37.000050 152.999985 0.056690 0.031793 -1.687064
1 1.510853 -2.691621 -47.429031 -0.024997 0.059994 1.687215
2 0.000000 0.000000 0.000000 -3.141590 -1.552107 1.570795
3 -0.000014 0.000014 10.281537 -2.918975 -0.790146 2.615823
4 49.430473 0.000002 0.000007 0.000000 0.000000 -1.849845
5 49.430470 0.000004 0.000000 0.732515 -0.397584 0.112770
6 11.591199 14.908232 0.000002 0.000000 -0.000000 1.570796
7 4.161459 0.000001 0.000002 0.000000 -0.000000 0.000000
8 4.161458 0.000001 -0.000003 0.000000 -0.000000 0.000000
9 0.0 0.0 0.0 0.0 0.0 0.0
10 0.000014 -0.000014 -10.281537 2.782725 0.797806 2.724120
11 49.430473 0.000002 -0.000002 0.000000 -0.000000 -1.734885
12 49.430462 0.000000 -0.000004 -0.842689 0.150108 -0.054693
13 11.591199 14.908229 0.000002 0.000000 -0.000000 1.570796
14 4.161459 -0.000003 0.000000 0.000000 -0.000000 0.523599
15 4.161458 0.000004 0.000003 0.000000 -0.000000 0.000000
16 0.0 0.0 0.0 0.0 0.0 0.0
17 3.599509 -0.015271 -0.070833 0.230324 -0.093538 0.082758
18 19.796873 -0.020143 -0.001401 0.067763 0.047713 -0.221369
19 26.009634 -0.004091 0.000000 0.000000 -0.000000 0.030000
20 5.140768 -0.000000 0.000000 -0.177957 0.012522 0.112081
21 0.0 0.0 0.0 0.0 0.0 0.0
22 6.884317 -6.884267 -0.000019 -0.000005 0.000002 -2.357663
23 15.455588 -0.011970 -0.000000 -0.000000 0.000001 -0.438599
24 0.0 0.0 0.0 0.0 0.0 0.0
25 0.000003 0.004111 -6.477368 -0.021881 1.506338 3.088960
26 13.400168 0.000000 0.000001 -0.612313 -0.943564 0.650530
27 37.630428 -0.000001 0.000002 0.000000 -0.000000 -0.269455
28 27.473604 -0.000001 0.000003 1.633823 -0.055747 0.635357
29 10.423897 -1.809567 -0.029783 0.000619 -0.000619 0.785398
30 3.624242 0.000000 0.000001 0.000000 -0.000000 0.785398
31 3.624242 0.000002 0.000000 0.000000 -0.000000 0.785398
32 0.0 0.0 0.0 0.0 0.0 0.0
33 9.026134 3.666774 0.258442 -1.374363 -0.037857 1.754420
34 0.000001 0.004076 6.477367 -0.094546 -1.261043 -3.082318
35 13.400166 0.000000 0.000004 0.321098 0.667936 0.168951
36 37.630428 -0.000001 0.000000 0.000000 -0.000000 -0.459849
37 27.473600 -0.000000 -0.000002 -1.945264 0.210107 0.515033
38 10.423896 -1.809569 0.029783 -0.000619 0.000619 0.785398
39 3.624242 0.000001 0.000001 0.000000 -0.000000 0.785398
40 3.624241 0.000003 -0.000001 0.000000 -0.000000 0.785398
41 0.0 0.0 0.0 0.0 0.0 0.0
42 9.000600 3.769936 0.531385 1.767230 -0.037854 -1.387172
43 15.155025 10.590146 0.000023 3.140796 -1.570796 0.000000
44 0.000000 -0.606425 -3.234269 -2.922317 -0.000000 0.000000
45 0.000000 -3.638542 -20.011986 -0.698130 -0.000000 0.000000
46 0.000000 -0.606424 -26.480518 0.000000 -0.000000 0.000000
47 16.351942 -9.422806 -0.000022 3.140796 -1.570796 0.000000
48 0.000000 0.000000 -2.627838 2.552453 -0.000000 0.000000
49 0.000000 5.457815 -16.979874 0.073801 -0.000000 0.000000
50 0.000000 2.627832 -27.895493 0.000000 -0.000000 0.000000
51 -2.818752 -11.466323 102.320930 1.570797 0.000000 1.570797
52 -2.913616 -15.215703 76.601845 1.570796 0.000000 1.570796
53 -9.640148 23.962320 83.746056 1.570796 0.000000 1.570796
54 -6.480923 18.160801 110.485596 1.570797 0.000000 1.570797
55 1.875031 5.954244 134.703384 1.570796 0.000000 -0.000001
56 0.0 0.0 0.0 0.0 0.0 0.0
57 0.0 0.0 0.0 0.0 0.0 0.0
58 0.0 0.0 0.0 0.0 0.0 0.0
59 0.0 0.0 0.0 0.0 0.0 0.0
time 1
0 5.638342 59.747215 146.405441 0.025006 0.164609 -2.000588
1 6.707855 -1.009658 -40.368851 -0.139528 0.091114 1.996280
2 -0.000001 0.000000 -0.000000 -3.141593 -1.552107 1.570797
3 -0.000013 0.000014 10.281537 -2.738177 -0.811207 1.971951
4 49.430481 -0.000004 0.000002 0.000000 0.000000 -2.230184
5 49.430466 -0.000002 0.000002 0.623887 -0.207318 0.102126
6 11.591199 14.908234 0.000000 0.000000 -0.000000 1.570796
7 4.161462 0.000002 0.000000 0.000000 -0.000000 0.000000
8 4.161461 -0.000002 0.000000 0.000000 -0.000000 0.000000
9 0.0 0.0 0.0 0.0 0.0 0.0
10 0.000015 -0.000014 -10.281536 2.207350 0.150096 1.795706
11 49.430473 0.000002 0.000000 0.000000 0.000000 -2.115513
12 49.430466 0.000002 -0.000004 -0.912845 0.109446 -0.383587
13 11.591200 14.908227 0.000000 0.000000 -0.000000 1.570796
14 4.161463 0.000000 0.000003 0.000000 -0.000000 0.523599
15 4.161462 -0.000001 0.000001 0.000000 -0.000000 0.000000
16 0.0 0.0 0.0 0.0 0.0 0.0
17 3.601615 -0.014413 -0.072466 0.340037 -0.127093 0.207188
18 19.809034 -0.019205 -0.001714 0.082991 -0.070215 0.369396
19 26.009634 -0.004094 0.000000 0.000000 -0.000000 0.030000
20 5.140769 -0.000000 0.000000 -0.049594 -0.001635 -0.113173
21 0.0 0.0 0.0 0.0 0.0 0.0
22 6.884316 -6.884265 -0.000019 -0.000005 0.000002 -2.357663
23 15.455587 -0.011969 -0.000000 -0.000000 0.000001 -0.438599
24 0.0 0.0 0.0 0.0 0.0 0.0
25 -0.000000 0.004111 -6.477368 -0.021881 1.506338 3.088960
26 13.400166 0.000003 -0.000002 -0.278806 -1.090080 0.709230
27 37.630432 -0.000002 -0.000001 0.000000 -0.000000 -1.244962
28 27.473600 -0.000003 0.000001 1.602512 -0.049239 0.730433
29 10.423895 -1.809571 -0.029782 0.000619 -0.000619 0.785398
30 3.624243 0.000000 0.000001 0.000000 -0.000000 0.785398
31 3.624239 0.000000 -0.000002 0.000000 -0.000000 0.785398
32 0.0 0.0 0.0 0.0 0.0 0.0
33 9.026131 3.666774 0.258440 -1.374362 -0.037857 1.754420
34 0.000001 0.004077 6.477367 -0.390136 -1.362706 -2.789865
35 13.400165 -0.000003 -0.000002 -0.621466 0.330125 -0.705251
36 37.630428 0.000001 -0.000002 0.000000 -0.000000 -0.753521
37 27.473606 0.000002 0.000004 -1.912169 0.213935 0.520180
38 10.423898 -1.809571 0.029781 -0.000619 0.000619 0.785398
39 3.624242 0.000001 0.000000 0.000000 -0.000000 0.785398
40 3.624245 0.000000 -0.000001 0.000000 -0.000000 0.785398
41 0.0 0.0 0.0 0.0 0.0 0.0
42 9.000599 3.769935 0.531384 1.767230 -0.037854 -1.387172
43 15.155023 10.590146 0.000024 3.140796 -1.570796 0.000000
44 0.000000 -0.606425 -3.234268 -3.019480 -0.000000 0.000000
45 0.000000 -3.638541 -20.011984 0.253072 -0.000000 0.000000
46 0.000001 -0.606421 -26.480513 0.000000 -0.000000 0.000000
47 16.351940 -9.422806 -0.000022 3.140796 -1.570796 0.000000
48 0.000000 -0.000001 -2.627838 2.367491 -0.000000 0.000000
49 -0.000001 5.457812 -16.979874 -0.155397 -0.000000 0.000000
50 -0.000001 2.627829 -27.895493 0.000000 -0.000000 0.000000
51 -16.122150 -8.511292 75.026031 1.570797 0.000000 1.570797
52 -16.614655 -27.455029 55.039070 1.570796 0.000000 1.570796
53 2.689859 41.692593 60.982159 1.570796 0.000000 1.570796
54 1.959379 29.519730 86.146675 1.570797 0.000000 1.570797
55 1.875031 5.954244 134.703384 1.570796 0.000000 -0.000001
56 0.0 0.0 0.0 0.0 0.0 0.0
57 0.0 0.0 0.0 0.0 0.0 0.0
58 0.0 0.0 0.0 0.0 0.0 0.0
59 0.0 0.0 0.0 0.0 0.0 0.0
time 2
0 -6.678143 37.000050 156.586838 0.102715 -0.003042 -1.684306
1 -0.161206 -5.433828 -52.715908 0.014696 0.101707 1.684898
2 0.000000 0.000000 0.000000 -3.141590 -1.552107 1.570795
3 -0.000014 0.000015 10.281538 -2.903754 -0.657871 2.606868
4 49.430473 0.000002 0.000008 0.000000 -0.000000 -1.665800
5 49.430458 0.000001 0.000000 0.649826 -0.412235 -0.103348
6 11.591197 14.908232 0.000001 0.000000 -0.000000 1.570796
7 4.161457 0.000000 -0.000002 0.000000 -0.000000 0.000000
8 4.161458 -0.000001 -0.000003 0.000000 -0.000000 0.000000
9 0.0 0.0 0.0 0.0 0.0 0.0
10 0.000014 -0.000014 -10.281537 3.102636 0.934612 2.610413
11 49.430477 0.000002 0.000003 0.000000 -0.000000 -1.672429
12 49.430470 0.000001 -0.000004 -0.539936 -0.203082 -0.247463
13 11.591200 14.908229 0.000000 0.000000 -0.000000 1.570796
14 4.161454 0.000004 -0.000002 0.000000 -0.000000 0.523599
15 4.161462 -0.000003 0.000001 0.000000 -0.000000 0.000000
16 0.0 0.0 0.0 0.0 0.0 0.0
17 3.595944 -0.015625 -0.068027 0.049594 -0.094567 -0.129441
18 19.799486 -0.019461 0.006796 -0.337084 -0.123609 -0.058592
19 26.009634 -0.004092 0.000000 0.000000 -0.000000 0.030000
20 5.140768 -0.000000 0.000000 0.399367 0.153349 0.051812
21 0.0 0.0 0.0 0.0 0.0 0.0
22 6.884318 -6.884268 -0.000019 -0.000005 0.000002 -2.357663
23 15.455592 -0.011971 -0.000000 -0.000000 0.000001 -0.438599
24 0.0 0.0 0.0 0.0 0.0 0.0
25 -0.000000 0.004109 -6.477369 0.686789 1.477859 -2.487720
26 13.400167 0.000001 -0.000001 1.761043 0.519261 -1.472639
27 37.630432 -0.000003 -0.000001 0.000000 -0.000000 -0.937289
28 27.473604 0.000001 -0.000000 -1.526736 -0.059962 -0.337271
29 10.423895 -1.809570 -0.029785 0.000619 -0.000619 0.785398
30 3.624244 0.000004 0.000004 0.000000 -0.000000 0.785398
31 3.624240 0.000001 -0.000001 0.000000 -0.000000 0.785398
32 0.0 0.0 0.0 0.0 0.0 0.0
33 9.026131 3.666773 0.258440 -1.374362 -0.037857 1.754420
34 -0.000002 0.004076 6.477368 -0.907497 -1.417198 -2.270646
35 13.400166 0.000000 0.000002 -0.103645 0.289769 0.255409
36 37.630424 -0.000000 0.000003 0.000000 -0.000000 -1.002013
37 27.473606 -0.000002 0.000001 -1.892290 0.216151 0.523331
38 10.423894 -1.809571 0.029783 -0.000619 0.000619 0.785398
39 3.624243 0.000005 -0.000001 0.000000 -0.000000 0.785398
40 3.624238 -0.000002 0.000001 0.000000 -0.000000 0.785398
41 0.0 0.0 0.0 0.0 0.0 0.0
42 9.000601 3.769935 0.531386 1.767230 -0.037854 -1.387172
43 15.155023 10.590146 0.000024 3.140796 -1.570796 0.000000
44 0.000000 -0.606424 -3.234269 -2.723395 -0.000000 0.000000
45 0.000001 -3.638539 -20.011986 0.075888 -0.000000 0.000000
46 0.000001 -0.606420 -26.480515 0.000000 -0.000000 0.000000
47 16.351940 -9.422806 -0.000021 3.140796 -1.570796 0.000000
48 0.000000 0.000000 -2.627837 2.863142 -0.000000 0.000000
49 0.000000 5.457816 -16.979872 0.105022 -0.000000 0.000000
50 0.000000 2.627835 -27.895493 0.000000 -0.000000 0.000000
51 -11.665894 -14.878386 107.229805 1.570797 0.000000 1.570797
52 -9.384415 -25.381378 79.992783 1.570796 0.000000 1.570796
53 -6.603703 21.567959 77.135223 1.570796 0.000000 1.570796
54 -12.236824 18.754745 104.936783 1.570797 0.000000 1.570797
55 1.875031 5.954244 134.703384 1.570796 0.000000 -0.000001
56 0.0 0.0 0.0 0.0 0.0 0.0
57 0.0 0.0 0.0 0.0 0.0 0.0
58 0.0 0.0 0.0 0.0 0.0 0.0
59 0.0 0.0 0.0 0.0 0.0 0.0
time 3
0 -8.307308 37.000050 156.272873 0.057184 -0.135262 -1.696587
1 -8.290059 -3.481434 -60.815006 0.141318 0.039821 1.695532
2 0.000000 0.000000 0.000000 -3.141590 -1.552107 1.570795
3 -0.000014 0.000014 10.281537 -2.836798 -0.681859 2.741055
4 49.430473 -0.000003 0.000003 0.000000 -0.000000 -1.650543
5 49.430470 -0.000003 -0.000003 0.637850 -0.469760 -0.107284
6 11.591198 14.908231 -0.000001 0.000000 -0.000000 1.570796
7 4.161455 0.000001 -0.000001 0.000000 -0.000000 0.000000
8 4.161458 0.000000 -0.000001 0.000000 -0.000000 0.000000
9 0.0 0.0 0.0 0.0 0.0 0.0
10 0.000014 -0.000014 -10.281537 2.968770 0.731755 2.759461
11 49.430477 -0.000001 0.000002 0.000000 -0.000000 -1.756498
12 49.430462 0.000000 -0.000003 -0.447056 0.000040 -0.191206
13 11.591200 14.908230 0.000000 0.000000 -0.000000 1.570796
14 4.161458 0.000003 0.000000 0.000000 -0.000000 0.523599
15 4.161463 -0.000002 -0.000001 0.000000 -0.000000 0.000000
16 0.0 0.0 0.0 0.0 0.0 0.0
17 3.595839 -0.015614 -0.066523 -0.046373 -0.111208 -0.126199
18 19.796717 -0.018610 0.007738 -0.392741 -0.217163 -0.161240
19 26.009632 -0.004089 0.000000 0.000000 -0.000000 0.030000
20 5.140766 -0.000001 0.000000 0.603592 0.197192 0.296280
21 0.0 0.0 0.0 0.0 0.0 0.0
22 6.884318 -6.884266 -0.000019 -0.000005 0.000002 -2.357663
23 15.455590 -0.011972 -0.000000 -0.000000 0.000001 -0.438599
24 0.0 0.0 0.0 0.0 0.0 0.0
25 -0.000003 0.004109 -6.477368 -0.021881 1.506338 3.088960
26 13.400167 0.000000 -0.000002 2.642447 0.553581 -1.048274
27 37.630428 0.000001 0.000002 0.000000 -0.000000 -0.852946
28 27.473598 0.000001 0.000001 -1.357371 -0.198930 -0.154220
29 10.423901 -1.809568 -0.029781 0.000619 -0.000619 0.785398
30 3.624245 0.000000 0.000000 0.000000 -0.000000 0.785398
31 3.624239 0.000000 -0.000003 0.000000 -0.000000 0.785398
32 0.0 0.0 0.0 0.0 0.0 0.0
33 9.026134 3.666775 0.258441 -1.374363 -0.037857 1.754420
34 0.000001 0.004076 6.477367 -0.907497 -1.417198 -2.270646
35 13.400168 0.000001 -0.000001 0.236523 0.176390 -0.107164
36 37.630424 0.000001 -0.000002 0.000000 -0.000000 -1.002013
37 27.473598 0.000004 0.000001 -1.945264 0.210107 0.515033
38 10.423895 -1.809565 0.029783 -0.000619 0.000619 0.785398
39 3.624239 -0.000004 0.000001 0.000000 -0.000000 0.785398
40 3.624243 0.000002 -0.000001 0.000000 -0.000000 0.785398
41 0.0 0.0 0.0 0.0 0.0 0.0
42 9.000600 3.769939 0.531384 1.767230 -0.037854 -1.387172
43 15.155022 10.590145 0.000024 3.140796 -1.570796 0.000000
44 0.000000 -0.606424 -3.234268 -2.596556 -0.000000 0.000000
45 0.000001 -3.638541 -20.011984 0.068332 -0.000000 0.000000
46 0.000001 -0.606419 -26.480511 0.000000 -0.000000 0.000000
47 16.351940 -9.422806 -0.000021 3.140796 -1.570796 0.000000
48 0.000000 0.000000 -2.627837 3.031862 -0.000000 0.000000
49 0.000001 5.457817 -16.979874 0.127105 -0.000000 0.000000
50 0.000000 2.627837 -27.895491 0.000000 -0.000000 0.000000
51 -17.511143 -10.507978 105.740158 1.570797 0.000000 1.570797
52 -15.387611 -21.693653 81.643272 1.570796 0.000000 1.570796
53 -10.987610 21.286982 74.795876 1.570796 0.000000 1.570796
54 -9.080952 18.115406 102.985374 1.570797 0.000000 1.570797
55 1.875031 5.954244 134.703384 1.570796 0.000000 -0.000001
56 0.0 0.0 0.0 0.0 0.0 0.0
57 0.0 0.0 0.0 0.0 0.0 0.0
58 0.0 0.0 0.0 0.0 0.0 0.0
59 0.0 0.0 0.0 0.0 0.0 0.0
time 4
0 -4.562523 37.000046 145.335632 0.011589 0.541061 -1.880738
1 24.290073 -0.468475 -40.421989 -0.516646 0.168919 1.839220
2 0.000000 0.000000 0.000000 -3.141590 -1.552107 1.570795
3 -0.000014 0.000014 10.281536 -2.984600 -0.898902 2.312682
4 49.430473 -0.000002 -0.000001 0.000000 0.000000 -1.943914
5 49.430462 0.000000 0.000006 0.759558 -0.586838 0.209114
6 11.591198 14.908231 -0.000001 0.000000 -0.000000 1.570796
7 4.161458 -0.000001 0.000001 0.000000 -0.000000 0.000000
8 4.161461 -0.000001 0.000004 0.000000 -0.000000 0.000000
9 0.0 0.0 0.0 0.0 0.0 0.0
10 0.000014 -0.000014 -10.281537 2.581254 0.571291 1.918175
11 49.430477 -0.000001 0.000000 0.000000 0.000000 -1.932287
12 49.430462 0.000002 -0.000004 -0.797231 0.062890 -0.019635
13 11.591202 14.908226 -0.000001 0.000000 -0.000000 1.570796
14 4.161459 0.000000 0.000002 0.000000 -0.000000 0.523599
15 4.161462 -0.000005 0.000000 0.000000 -0.000000 0.000000
16 0.0 0.0 0.0 0.0 0.0 0.0
17 3.599155 -0.015364 -0.070569 0.212554 0.057643 0.093756
18 19.806208 -0.019899 -0.003255 0.166026 0.313241 0.285485
19 26.009634 -0.004092 0.000001 0.000000 -0.000000 0.030000
20 5.140769 -0.000003 0.000001 0.158357 -0.520674 -0.644085
21 0.0 0.0 0.0 0.0 0.0 0.0
22 6.884318 -6.884264 -0.000020 -0.000005 0.000002 -2.357663
23 15.455589 -0.011969 -0.000000 -0.000000 0.000001 -0.438599
24 0.0 0.0 0.0 0.0 0.0 0.0
25 0.000003 0.004109 -6.477368 -1.687084 1.346221 1.420745
26 13.400165 0.000000 0.000005 1.223284 -0.026913 -0.943430
27 37.630432 -0.000003 0.000000 0.000000 -0.000000 -0.528208
28 27.473604 0.000001 0.000002 1.583334 0.131630 2.514843
29 10.423897 -1.809566 -0.029787 0.000619 -0.000619 0.785398
30 3.624243 -0.000002 0.000000 0.000000 -0.000000 0.785398
31 3.624245 0.000000 0.000001 0.000000 -0.000000 0.785398
32 0.0 0.0 0.0 0.0 0.0 0.0
33 9.026133 3.666776 0.258440 -1.374363 -0.037857 1.754420
34 0.000001 0.004075 6.477367 -0.094546 -1.261043 -3.082318
35 13.400167 0.000005 0.000001 0.089805 0.901444 0.016229
36 37.630424 -0.000002 -0.000001 0.000000 -0.000000 -0.459849
37 27.473604 0.000000 0.000003 -1.945264 0.210107 0.515033
38 10.423896 -1.809569 0.029782 -0.000619 0.000619 0.785398
39 3.624242 0.000000 0.000001 0.000000 -0.000000 0.785398
40 3.624241 -0.000002 0.000001 0.000000 -0.000000 0.785398
41 0.0 0.0 0.0 0.0 0.0 0.0
42 9.000601 3.769936 0.531385 1.767230 -0.037854 -1.387172
43 15.155023 10.590146 0.000024 3.140796 -1.570796 0.000000
44 0.000001 -0.606424 -3.234268 3.003396 -0.000000 0.000000
45 0.000000 -3.638546 -20.011984 0.515172 -0.000000 0.000000
46 0.000001 -0.606416 -26.480513 0.000000 -0.000000 0.000000
47 16.351940 -9.422808 -0.000022 3.140796 -1.570796 0.000000
48 0.000000 0.000000 -2.627837 1.838191 -0.000000 0.000000
49 0.000000 5.457815 -16.979876 -0.436412 -0.000000 0.000000
50 0.000000 2.627844 -27.895500 0.000000 -0.000000 0.000000
51 0.157059 -30.888271 54.402954 1.570797 0.000000 1.570797
52 3.989283 -53.684311 40.554962 1.570796 0.000000 1.570796
53 -9.074276 34.503681 45.048599 1.570796 0.000000 1.570796
54 -6.563122 15.244072 64.153221 1.570797 0.000000 1.570797
55 1.875031 5.954244 134.703384 1.570796 0.000000 -0.000001
56 0.0 0.0 0.0 0.0 0.0 0.0
57 0.0 0.0 0.0 0.0 0.0 0.0
58 0.0 0.0 0.0 0.0 0.0 0.0
59 0.0 0.0 0.0 0.0 0.0 0.0
time 5
0 -3.086151 37.000050 145.335632 0.000279 0.596799 -1.900810
1 26.155863 -0.010758 -38.495758 -0.571208 0.183410 1.846903
2 0.000000 0.000000 0.000000 3.141592 -1.552107 1.570799
3 -0.000014 0.000014 10.281537 -3.059711 -0.972537 2.282408
4 49.430477 0.000001 0.000001 0.000000 0.000000 -1.972794
5 49.430470 0.000003 0.000001 0.819384 -0.528982 0.220415
6 11.591197 14.908232 -0.000002 0.000000 -0.000000 1.570796
7 4.161458 -0.000002 -0.000001 0.000000 -0.000000 0.000000
8 4.161460 -0.000002 -0.000002 0.000000 -0.000000 0.000000
9 0.0 0.0 0.0 0.0 0.0 0.0
10 0.000014 -0.000014 -10.281536 2.545911 0.584765 1.876089
11 49.430473 0.000001 -0.000001 0.000000 0.000000 -1.921417
12 49.430466 0.000004 0.000001 -0.857225 0.082995 0.003641
13 11.591202 14.908228 0.000001 0.000000 -0.000000 1.570796
14 4.161465 0.000002 -0.000001 0.000000 -0.000000 0.523599
15 4.161465 -0.000003 -0.000001 0.000000 -0.000000 0.000000
16 0.0 0.0 0.0 0.0 0.0 0.0
17 3.599154 -0.015363 -0.070569 0.212554 0.057643 0.093756
18 19.806210 -0.019899 -0.003253 0.166026 0.313241 0.285485
19 26.009630 -0.004093 0.000002 0.000000 -0.000000 0.030000
20 5.140766 -0.000002 -0.000002 0.208936 -0.529758 -0.693978
21 0.0 0.0 0.0 0.0 0.0 0.0
22 6.884319 -6.884265 -0.000020 -0.000005 0.000002 -2.357663
23 15.455587 -0.011969 0.000001 -0.000000 0.000001 -0.438599
24 0.0 0.0 0.0 0.0 0.0 0.0
25 -0.000000 0.004110 -6.477369 -1.687084 1.346221 1.420745
26 13.400168 -0.000002 0.000001 1.223284 -0.026913 -0.943430
27 37.630428 0.000001 0.000002 0.000000 -0.000000 -0.528208
28 27.473602 0.000001 0.000002 1.583334 0.131630 2.514843
29 10.423894 -1.809565 -0.029780 0.000619 -0.000619 0.785398
30 3.624244 -0.000002 -0.000002 0.000000 -0.000000 0.785398
31 3.624243 0.000007 0.000004 0.000000 -0.000000 0.785398
32 0.0 0.0 0.0 0.0 0.0 0.0
33 9.026131 3.666775 0.258445 -1.374363 -0.037857 1.754420
34 0.000001 0.004075 6.477365 -0.056395 -1.237840 -3.119085
35 13.400168 0.000002 -0.000001 0.267605 0.883454 0.252199
36 37.630428 0.000003 0.000001 0.000000 -0.000000 -0.398855
37 27.473598 -0.000000 -0.000003 -1.945264 0.210107 0.515033
38 10.423896 -1.809567 0.029784 -0.000619 0.000619 0.785398
39 3.624242 0.000000 0.000001 0.000000 -0.000000 0.785398
40 3.624242 0.000005 0.000002 0.000000 -0.000000 0.785398
41 0.0 0.0 0.0 0.0 0.0 0.0
42 9.000599 3.769938 0.531386 1.767230 -0.037854 -1.387172
43 15.155024 10.590146 0.000023 3.140796 -1.570796 0.000000
44 0.000000 -0.606424 -3.234268 2.976949 -0.000000 0.000000
45 0.000001 -3.638544 -20.011986 0.433927 -0.000000 0.000000
46 -0.000001 -0.606417 -26.480513 0.000000 -0.000000 0.000000
47 16.351940 -9.422807 -0.000021 3.140796 -1.570796 0.000000
48 0.000000 0.000000 -2.627838 1.828526 -0.000000 0.000000
49 0.000000 5.457816 -16.979877 -0.700939 -0.000000 0.000000
50 -0.000001 2.627839 -27.895498 0.000000 -0.000000 0.000000
51 0.157057 -33.145592 52.104435 1.570797 0.000000 1.570797
52 3.989283 -53.684311 40.554962 1.570796 0.000000 1.570796
53 -6.804863 28.280838 36.189926 1.570796 0.000000 1.570796
54 -6.726925 16.602989 61.796371 1.570797 0.000000 1.570797
55 1.875031 5.954244 134.703384 1.570796 0.000000 -0.000001
56 0.0 0.0 0.0 0.0 0.0 0.0
57 0.0 0.0 0.0 0.0 0.0 0.0
58 0.0 0.0 0.0 0.0 0.0 0.0
59 0.0 0.0 0.0 0.0 0.0 0.0
time 6
0 -1.950543 37.000050 145.335632 0.011589 0.541061 -1.880738
1 22.971035 -0.443035 -38.226929 -0.516646 0.168919 1.839220
2 0.000000 0.000000 0.000000 -3.141590 -1.552107 1.570795
3 -0.000014 0.000014 10.281536 -3.083093 -1.023534 2.296311
4 49.430481 -0.000001 -0.000002 0.000000 0.000000 -1.990680
5 49.430470 -0.000004 0.000006 0.876415 -0.453171 0.201725
6 11.591201 14.908232 0.000000 0.000000 -0.000000 1.570796
7 4.161458 -0.000002 -0.000003 0.000000 -0.000000 0.000000
8 4.161460 -0.000001 0.000004 0.000000 -0.000000 0.000000
9 0.0 0.0 0.0 0.0 0.0 0.0
10 0.000014 -0.000014 -10.281537 2.530110 0.654849 1.943035
11 49.430473 0.000002 -0.000004 0.000000 0.000000 -1.909265
12 49.430458 0.000003 0.000000 -0.890027 0.099160 0.018635
13 11.591202 14.908226 -0.000002 0.000000 -0.000000 1.570796
14 4.161459 0.000002 0.000002 0.000000 -0.000000 0.523599
15 4.161460 -0.000003 0.000002 0.000000 -0.000000 0.000000
16 0.0 0.0 0.0 0.0 0.0 0.0
17 3.599155 -0.015364 -0.070569 0.212554 0.057643 0.093756
18 19.806208 -0.019898 -0.003255 0.166026 0.313241 0.285485
19 26.009632 -0.004092 0.000002 0.000000 -0.000000 0.030000
20 5.140767 -0.000003 0.000001 0.234007 -0.534788 -0.726809
21 0.0 0.0 0.0 0.0 0.0 0.0
22 6.884325 -6.884265 -0.000021 -0.000005 0.000002 -2.357663
23 15.455592 -0.011970 -0.000001 -0.000000 0.000001 -0.438599
24 0.0 0.0 0.0 0.0 0.0 0.0
25 0.000002 0.004109 -6.477368 -1.687084 1.346221 1.420745
26 13.400165 0.000000 0.000002 1.222348 -0.006735 -0.887812
27 37.630424 -0.000001 -0.000001 0.000000 -0.000000 -0.528208
28 27.473600 0.000001 0.000003 1.507297 0.232186 2.521327
29 10.423894 -1.809570 -0.029783 0.000619 -0.000619 0.785398
30 3.624246 0.000000 -0.000002 0.000000 -0.000000 0.785398
31 3.624244 -0.000002 0.000001 0.000000 -0.000000 0.785398
32 0.0 0.0 0.0 0.0 0.0 0.0
33 9.026130 3.666773 0.258441 -1.374363 -0.037857 1.754420
34 0.000000 0.004075 6.477367 -0.060376 -1.240440 -3.115271
35 13.400167 0.000002 0.000002 0.310557 0.857137 0.279080
36 37.630428 -0.000001 -0.000004 0.000000 -0.000000 -0.405632
37 27.473604 -0.000002 -0.000005 -1.945264 0.210107 0.515033
38 10.423897 -1.809570 0.029781 -0.000619 0.000619 0.785398
39 3.624242 -0.000001 -0.000001 0.000000 -0.000000 0.785398
40 3.624245 0.000005 0.000002 0.000000 -0.000000 0.785398
41 0.0 0.0 0.0 0.0 0.0 0.0
42 9.000600 3.769936 0.531384 1.767230 -0.037854 -1.387172
43 15.155024 10.590146 0.000023 3.140796 -1.570796 0.000000
44 0.000000 -0.606425 -3.234268 3.053385 -0.000000 0.000000
45 -0.000001 -3.638546 -20.011984 0.437896 -0.000000 0.000000
46 0.000000 -0.606418 -26.480513 0.000000 -0.000000 0.000000
47 16.351940 -9.422807 -0.000021 3.140796 -1.570796 0.000000
48 0.000000 0.000000 -2.627838 1.916883 -0.000000 0.000000
49 0.000000 5.457814 -16.979874 -0.733574 -0.000000 0.000000
50 0.000000 2.627844 -27.895498 0.000000 -0.000000 0.000000
51 0.157057 -33.145592 52.104435 1.570797 0.000000 1.570797
52 3.989283 -53.684311 40.554962 1.570796 0.000000 1.570796
53 -6.804863 28.280838 36.189926 1.570796 0.000000 1.570796
54 -6.726925 16.602989 61.796371 1.570797 0.000000 1.570797
55 1.875031 5.954244 134.703384 1.570796 0.000000 -0.000001
56 0.0 0.0 0.0 0.0 0.0 0.0
57 0.0 0.0 0.0 0.0 0.0 0.0
58 0.0 0.0 0.0 0.0 0.0 0.0
59 0.0 0.0 0.0 0.0 0.0 0.0
time 7
0 -0.889546 37.000050 145.335632 0.003867 0.567058 -1.900264
1 22.792578 -0.138413 -35.790649 -0.541221 0.178393 1.851781
2 0.000000 0.000000 0.000000 3.141592 -1.552107 1.570799
3 -0.000015 0.000014 10.281536 -3.117685 -1.028723 2.286633
4 49.430477 -0.000003 0.000003 0.000000 0.000000 -2.003554
5 49.430462 -0.000001 0.000000 0.867361 -0.440732 0.215991
6 11.591198 14.908232 0.000001 0.000000 -0.000000 1.570796
7 4.161459 0.000003 0.000001 0.000000 -0.000000 0.000000
8 4.161461 -0.000004 0.000004 0.000000 -0.000000 0.000000
9 0.0 0.0 0.0 0.0 0.0 0.0
10 0.000015 -0.000014 -10.281537 2.490895 0.661175 1.931640
11 49.430473 -0.000001 -0.000001 0.000000 0.000000 -1.895192
12 49.430462 0.000003 -0.000003 -0.894327 0.141750 0.023296
13 11.591198 14.908225 -0.000001 0.000000 -0.000000 1.570796
14 4.161459 0.000002 0.000002 0.000000 -0.000000 0.523599
15 4.161462 0.000002 0.000000 0.000000 -0.000000 0.000000
16 0.0 0.0 0.0 0.0 0.0 0.0
17 3.599154 -0.015364 -0.070569 0.212554 0.057643 0.093756
18 19.806211 -0.019901 -0.003254 0.166026 0.313241 0.285485
19 26.009628 -0.004094 -0.000002 0.000000 -0.000000 0.030000
20 5.140769 -0.000002 0.000001 0.227327 -0.539351 -0.730127
21 0.0 0.0 0.0 0.0 0.0 0.0
22 6.884319 -6.884264 -0.000018 -0.000005 0.000002 -2.357663
23 15.455590 -0.011970 -0.000001 -0.000000 0.000001 -0.438599
24 0.0 0.0 0.0 0.0 0.0 0.0
25 0.000004 0.004110 -6.477368 -1.687084 1.346221 1.420745
26 13.400166 -0.000001 -0.000001 1.222535 0.013463 -0.832210
27 37.630428 0.000001 0.000000 0.000000 -0.000000 -0.528208
28 27.473602 -0.000000 0.000003 1.429691 0.332935 2.519917
29 10.423897 -1.809570 -0.029783 0.000619 -0.000619 0.785398
30 3.624241 0.000002 0.000001 0.000000 -0.000000 0.785398
31 3.624242 0.000000 0.000002 0.000000 -0.000000 0.785398
32 0.0 0.0 0.0 0.0 0.0 0.0
33 9.026134 3.666775 0.258441 -1.374363 -0.037857 1.754420
34 0.000004 0.004077 6.477369 -0.081227 -1.253359 -3.095204
35 13.400166 0.000001 0.000000 0.282448 0.851097 0.203995
36 37.630424 -0.000000 0.000000 0.000000 -0.000000 -0.439518
37 27.473602 -0.000002 -0.000003 -1.945264 0.210107 0.515033
38 10.423894 -1.809567 0.029783 -0.000619 0.000619 0.785398
39 3.624242 -0.000001 0.000000 0.000000 -0.000000 0.785398
40 3.624242 0.000001 -0.000001 0.000000 -0.000000 0.785398
41 0.0 0.0 0.0 0.0 0.0 0.0
42 9.000599 3.769938 0.531384 1.767230 -0.037854 -1.387172
43 15.155022 10.590143 0.000023 3.140796 -1.570796 0.000000
44 0.000000 -0.606425 -3.234268 3.021025 -0.000000 0.000000
45 0.000000 -3.638544 -20.011986 0.427932 -0.000000 0.000000
46 0.000000 -0.606421 -26.480511 0.000000 -0.000000 0.000000
47 16.351942 -9.422808 -0.000022 3.140796 -1.570796 0.000000
48 0.000000 0.000000 -2.627838 1.885157 -0.000000 0.000000
49 0.000000 5.457817 -16.979877 -0.717068 -0.000000 0.000000
50 -0.000001 2.627844 -27.895498 0.000000 -0.000000 0.000000
51 0.157057 -33.145592 52.104435 1.570797 0.000000 1.570797
52 3.989283 -53.684311 40.554962 1.570796 0.000000 1.570796
53 -6.804863 28.280838 36.189926 1.570796 0.000000 1.570796
54 -6.726925 16.602989 61.796371 1.570797 0.000000 1.570797
55 1.875031 5.954244 134.703384 1.570796 0.000000 -0.000001
56 0.0 0.0 0.0 0.0 0.0 0.0
57 0.0 0.0 0.0 0.0 0.0 0.0
58 0.0 0.0 0.0 0.0 0.0 0.0
59 0.0 0.0 0.0 0.0 0.0 0.0
time 8
0 0.000000 37.000050 145.335632 0.011589 0.541061 -1.880738
1 20.908108 -0.403248 -34.793930 -0.516646 0.168919 1.839220
2 0.000000 0.000000 0.000000 -3.141590 -1.552107 1.570795
3 -0.000014 0.000014 10.281537 -3.082078 -0.980368 2.290961
4 49.430473 0.000002 -0.000001 0.000000 0.000000 -2.019768
5 49.430466 -0.000000 0.000003 0.828852 -0.458719 0.246336
6 11.591199 14.908232 -0.000001 0.000000 -0.000000 1.570796
7 4.161458 -0.000002 0.000000 0.000000 -0.000000 0.000000
8 4.161460 -0.000001 0.000003 0.000000 -0.000000 0.000000
9 0.0 0.0 0.0 0.0 0.0 0.0
10 0.000014 -0.000014 -10.281537 2.493509 0.687295 1.956446
11 49.430470 0.000002 0.000001 0.000000 0.000000 -1.881363
12 49.430458 0.000004 0.000000 -0.908003 0.140725 0.009717
13 11.591202 14.908226 -0.000004 0.000000 -0.000000 1.570796
14 4.161465 0.000000 0.000001 0.000000 -0.000000 0.523599
15 4.161460 -0.000001 -0.000001 0.000000 -0.000000 0.000000
16 0.0 0.0 0.0 0.0 0.0 0.0
17 3.599155 -0.015364 -0.070569 0.212554 0.057643 0.093756
18 19.806208 -0.019898 -0.003255 0.166026 0.313241 0.285485
19 26.009634 -0.004092 0.000002 0.000000 -0.000000 0.030000
20 5.140767 -0.000003 0.000001 0.182703 -0.544922 -0.691543
21 0.0 0.0 0.0 0.0 0.0 0.0
22 6.884321 -6.884265 -0.000019 -0.000005 0.000002 -2.357663
23 15.455586 -0.011968 0.000001 -0.000000 0.000001 -0.438599
24 0.0 0.0 0.0 0.0 0.0 0.0
25 0.000001 0.004109 -6.477368 -1.687084 1.346221 1.420745
26 13.400165 0.000000 0.000002 1.222535 0.013463 -0.832210
27 37.630428 -0.000002 0.000002 0.000000 -0.000000 -0.528208
28 27.473602 0.000001 -0.000002 1.429691 0.332935 2.519917
29 10.423895 -1.809569 -0.029784 0.000619 -0.000619 0.785398
30 3.624248 0.000000 -0.000003 0.000000 -0.000000 0.785398
31 3.624235 0.000006 0.000004 0.000000 -0.000000 0.785398
32 0.0 0.0 0.0 0.0 0.0 0.0
33 9.026132 3.666773 0.258443 -1.374363 -0.037857 1.754420
34 0.000000 0.004075 6.477367 -0.094546 -1.261043 -3.082318
35 13.400167 0.000005 0.000001 0.230338 0.876834 0.120443
36 37.630428 -0.000000 -0.000002 0.000000 -0.000000 -0.459849
37 27.473602 -0.000001 -0.000006 -1.945264 0.210107 0.515033
38 10.423895 -1.809567 0.029783 -0.000619 0.000619 0.785398
39 3.624242 -0.000001 0.000001 0.000000 -0.000000 0.785398
40 3.624245 0.000003 0.000002 0.000000 -0.000000 0.785398
41 0.0 0.0 0.0 0.0 0.0 0.0
42 9.000601 3.769936 0.531384 1.767230 -0.037854 -1.387172
43 15.155023 10.590146 0.000023 3.140796 -1.570796 0.000000
44 0.000000 -0.606424 -3.234268 3.059704 -0.000000 0.000000
45 0.000000 -3.638543 -20.011984 0.426504 -0.000000 0.000000
46 0.000000 -0.606415 -26.480515 0.000000 -0.000000 0.000000
47 16.351940 -9.422807 -0.000022 3.140796 -1.570796 0.000000
48 0.000000 0.000000 -2.627838 1.925569 -0.000000 0.000000
49 -0.000001 5.457814 -16.979874 -0.729792 -0.000000 0.000000
50 0.000000 2.627842 -27.895496 0.000000 -0.000000 0.000000
51 0.157057 -33.145592 52.104435 1.570797 0.000000 1.570797
52 3.989283 -53.684311 40.554962 1.570796 0.000000 1.570796
53 -6.804863 28.280838 36.189926 1.570796 0.000000 1.570796
54 -6.726925 16.602989 61.796371 1.570797 0.000000 1.570797
55 1.875031 5.954244 134.703384 1.570796 0.000000 -0.000001
56 0.0 0.0 0.0 0.0 0.0 0.0
57 0.0 0.0 0.0 0.0 0.0 0.0
58 0.0 0.0 0.0 0.0 0.0 0.0
59 0.0 0.0 0.0 0.0 0.0 0.0
time 9
0 0.000000 37.000046 149.664154 0.058096 0.222630 -1.676027
1 9.918861 -2.544034 -43.740593 -0.215469 0.080983 1.673759
2 0.000000 0.000000 0.000000 -3.141590 -1.552107 1.570795
3 -0.000014 0.000014 10.281537 -2.895427 -0.899534 2.340814
4 49.430481 0.000001 0.000000 0.000000 0.000000 -1.948241
5 49.430466 0.000002 -0.000002 0.850590 -0.333122 0.142632
6 11.591194 14.908228 0.000000 0.000000 -0.000000 1.570796
7 4.161460 0.000000 0.000001 0.000000 -0.000000 0.000000
8 4.161462 -0.000003 0.000004 0.000000 -0.000000 0.000000
9 0.0 0.0 0.0 0.0 0.0 0.0
10 0.000014 -0.000014 -10.281537 2.763906 0.820701 2.496830
11 49.430481 0.000001 0.000001 0.000000 0.000000 -1.793886
12 49.430470 -0.000002 -0.000001 -0.870468 0.138297 -0.017458
13 11.591200 14.908227 0.000003 0.000000 -0.000000 1.570796
14 4.161464 0.000002 0.000000 0.000000 -0.000000 0.523599
15 4.161459 0.000002 -0.000001 0.000000 -0.000000 0.000000
16 0.0 0.0 0.0 0.0 0.0 0.0
17 3.599311 -0.015322 -0.070697 0.220487 -0.011672 0.089052
18 19.802013 -0.020598 -0.002092 0.103263 0.197724 0.046634
19 26.009632 -0.004091 0.000000 0.000000 -0.000000 0.030000
20 5.140769 -0.000000 0.000000 -0.198180 -0.285005 -0.124321
21 0.0 0.0 0.0 0.0 0.0 0.0
22 6.884318 -6.884266 -0.000019 -0.000005 0.000002 -2.357663
23 15.455589 -0.011970 -0.000000 -0.000000 0.000001 -0.438599
24 0.0 0.0 0.0 0.0 0.0 0.0
25 0.000001 0.004109 -6.477369 -1.447037 1.448400 1.664683
26 13.400167 -0.000002 -0.000003 0.760037 -0.573920 -0.411433
27 37.630428 -0.000001 0.000001 0.000000 -0.000000 -0.409613
28 27.473600 0.000001 -0.000001 1.423759 0.106022 1.653801
29 10.423896 -1.809568 -0.029783 0.000619 -0.000619 0.785398
30 3.624244 0.000000 0.000000 0.000000 -0.000000 0.785398
31 3.624244 0.000004 0.000001 0.000000 -0.000000 0.785398
32 0.0 0.0 0.0 0.0 0.0 0.0
33 9.026133 3.666776 0.258442 -1.374363 -0.037857 1.754420
34 0.000002 0.004075 6.477369 -0.094546 -1.261044 -3.082318
35 13.400167 -0.000001 -0.000000 0.285336 0.765477 0.173243
36 37.630428 -0.000001 0.000003 0.000000 -0.000000 -0.459849
37 27.473604 0.000000 0.000004 -1.945264 0.210107 0.515033
38 10.423896 -1.809566 0.029782 -0.000619 0.000619 0.785398
39 3.624240 -0.000001 0.000001 0.000000 -0.000000 0.785398
40 3.624242 0.000001 0.000000 0.000000 -0.000000 0.785398
41 0.0 0.0 0.0 0.0 0.0 0.0
42 9.000599 3.769939 0.531385 1.767230 -0.037854 -1.387172
43 15.155025 10.590147 0.000024 3.140796 -1.570796 0.000000
44 0.000000 -0.606425 -3.234267 3.052933 -0.000000 0.000000
45 0.000000 -3.638545 -20.011988 0.061604 -0.000000 0.000000
46 0.000000 -0.606424 -26.480518 0.000000 -0.000000 0.000000
47 16.351942 -9.422807 -0.000022 3.140796 -1.570796 0.000000
48 0.000000 -0.000000 -2.627839 2.332045 -0.000000 0.000000
49 0.000000 5.457812 -16.979876 0.015197 -0.000000 0.000000
50 -0.000001 2.627831 -27.895500 0.000000 -0.000000 0.000000
51 -2.750589 -14.773445 90.526436 1.570797 0.000000 1.570797
52 -0.884071 -25.590939 67.436958 1.570796 0.000000 1.570796
53 -8.654137 25.021734 75.565231 1.570796 0.000000 1.570796
54 -8.110985 17.295944 101.777153 1.570797 0.000000 1.570797
55 1.875031 5.954244 134.703384 1.570796 0.000000 -0.000001
56 0.0 0.0 0.0 0.0 0.0 0.0
57 0.0 0.0 0.0 0.0 0.0 0.0
58 0.0 0.0 0.0 0.0 0.0 0.0
59 0.0 0.0 0.0 0.0 0.0 0.0
time 10
0 -0.000000 37.000050 152.999985 0.056690 0.031793 -1.687064
1 1.502727 -2.677144 -47.173939 -0.024997 0.059994 1.687215
2 0.000000 0.000000 0.000000 -3.141590 -1.552107 1.570795
3 -0.000014 0.000014 10.281537 -2.918975 -0.790145 2.615823
4 49.430477 -0.000002 0.000003 0.000000 0.000000 -1.849845
5 49.430466 -0.000002 0.000000 0.732514 -0.397583 0.112771
6 11.591199 14.908231 0.000002 0.000000 -0.000000 1.570796
7 4.161460 0.000000 0.000002 0.000000 -0.000000 0.000000
8 4.161460 0.000001 -0.000002 0.000000 -0.000000 0.000000
9 0.0 0.0 0.0 0.0 0.0 0.0
10 0.000014 -0.000014 -10.281537 2.782725 0.797806 2.724120
11 49.430477 0.000002 -0.000007 0.000000 -0.000000 -1.734885
12 49.430466 0.000001 0.000001 -0.842689 0.150108 -0.054693
13 11.591199 14.908229 0.000003 0.000000 -0.000000 1.570796
14 4.161458 0.000000 0.000000 0.000000 -0.000000 0.523599
15 4.161459 0.000006 0.000003 0.000000 -0.000000 0.000000
16 0.0 0.0 0.0 0.0 0.0 0.0
17 3.599509 -0.015271 -0.070833 0.230324 -0.093538 0.082758
18 19.796873 -0.020143 -0.001401 0.067763 0.047713 -0.221369
19 26.009634 -0.004091 0.000000 0.000000 -0.000000 0.030000
20 5.140768 -0.000000 0.000000 -0.177957 0.012522 0.112081
21 0.0 0.0 0.0 0.0 0.0 0.0
22 6.884317 -6.884267 -0.000019 -0.000005 0.000002 -2.357663
23 15.455588 -0.011970 -0.000000 -0.000000 0.000001 -0.438599
24 0.0 0.0 0.0 0.0 0.0 0.0
25 0.000003 0.004111 -6.477368 -0.021881 1.506338 3.088960
26 13.400168 0.000000 0.000001 -0.612313 -0.943564 0.650530
27 37.630428 -0.000001 0.000002 0.000000 -0.000000 -0.269455
28 27.473604 -0.000001 0.000003 1.633823 -0.055747 0.635357
29 10.423897 -1.809567 -0.029783 0.000619 -0.000619 0.785398
30 3.624242 0.000000 0.000001 0.000000 -0.000000 0.785398
31 3.624242 0.000002 0.000000 0.000000 -0.000000 0.785398
32 0.0 0.0 0.0 0.0 0.0 0.0
33 9.026134 3.666774 0.258442 -1.374363 -0.037857 1.754420
34 0.000001 0.004076 6.477367 -0.094546 -1.261043 -3.082318
35 13.400166 0.000000 0.000004 0.321098 0.667936 0.168951
36 37.630428 -0.000001 0.000000 0.000000 -0.000000 -0.459849
37 27.473600 -0.000000 -0.000002 -1.945264 0.210107 0.515033
38 10.423896 -1.809569 0.029783 -0.000619 0.000619 0.785398
39 3.624242 0.000001 0.000001 0.000000 -0.000000 0.785398
40 3.624241 0.000003 -0.000001 0.000000 -0.000000 0.785398
41 0.0 0.0 0.0 0.0 0.0 0.0
42 9.000600 3.769936 0.531385 1.767230 -0.037854 -1.387172
43 15.155025 10.590146 0.000023 3.140796 -1.570796 0.000000
44 0.000000 -0.606425 -3.234269 -3.092360 -0.000000 0.000000
45 0.000000 -3.638543 -20.011988 -0.096016 -0.000000 0.000000
46 0.000000 -0.606423 -26.480518 0.000000 -0.000000 0.000000
47 16.351942 -9.422806 -0.000022 3.140796 -1.570796 0.000000
48 0.000000 0.000000 -2.627838 2.552454 -0.000000 0.000000
49 0.000000 5.457817 -16.979876 0.073800 -0.000000 0.000000
50 0.000000 2.627834 -27.895493 0.000000 -0.000000 0.000000
51 -2.818752 -11.466323 102.687645 1.570797 0.000000 1.570797
52 -2.913616 -15.215703 76.601845 1.570796 0.000000 1.570796
53 -9.640148 23.962320 83.746056 1.570796 0.000000 1.570796
54 -6.480923 18.160801 110.485596 1.570797 0.000000 1.570797
55 1.875031 5.954244 134.703384 1.570796 0.000000 -0.000001
56 0.0 0.0 0.0 0.0 0.0 0.0
57 0.0 0.0 0.0 0.0 0.0 0.0
58 0.0 0.0 0.0 0.0 0.0 0.0
59 0.0 0.0 0.0 0.0 0.0 0.0
end
