version 1
nodes
0 "Bip01" -1
1 "Bip01 Footsteps" 0
2 "Bip01 Pelvis" 0
3 "Bip01 L Thigh" 2
4 "Bip01 L Calf" 3
5 "Bip01 L Foot" 4
6 "Bip01 L Toe0" 5
7 "Bip01 L Toe01" 6
8 "Bip01 L Toe02" 7
9 "Null 9" -1
10 "Bip01 R Thigh" 2
11 "Bip01 R Calf" 10
12 "Bip01 R Foot" 11
13 "Bip01 R Toe0" 12
14 "Bip01 R Toe01" 13
15 "Bip01 R Toe02" 14
16 "Null 16" -1
17 "Bip01 Spine" 2
18 "Bip01 Spine1" 17
19 "Bip01 Neck" 18
20 "Bip01 Head" 19
21 "Null 21" -1
22 "Bip01 Ponytail1" 20
23 "Bip01 Ponytail11" 22
24 "Null 24" -1
25 "Bip01 R Clavicle" 19
26 "Bip01 R UpperArm" 25
27 "Bip01 R Forearm" 26
28 "Bip01 R Hand" 27
29 "Bip01 R Finger0" 28
30 "Bip01 R Finger01" 29
31 "Bip01 R Finger02" 30
32 "Null 32" -1
33 "knife_gdf" 28
34 "Bip01 L Clavicle" 19
35 "Bip01 L UpperArm" 34
36 "Bip01 L Forearm" 35
37 "Bip01 L Hand" 36
38 "Bip01 L Finger0" 37
39 "Bip01 L Finger01" 38
40 "Bip01 L Finger02" 39
41 "Null 41" -1
42 "hand_bofdgne01" 37
43 "Bone01" 17
44 "Bone02" 43
45 "Bone03" 44
46 "Bone04" 45
47 "Bone05" 17
48 "Bone06" 47
49 "Bone07" 48
50 "Bone08" 49
51 "Mesh01" 2
52 "Mesh02" 2
53 "Mesh04" 2
54 "gfh" 2
55 "Mesh03" 2
56 "Null 56" -1
57 "Null 57" -1
58 "Null 58" -1
59 "Null 59" -1
end
skeleton
time 0
0 -9.854935 -7.073082 109.141174 0.084917 -0.074379 -1.869830
1 -8.061387 -9.175556 -107.793137 0.096059 0.059273 1.869519
2 -0.000000 0.000000 -0.000003 0.000000 -1.645343 -1.570795
3 -0.000009 0.000020 10.281539 -0.435925 -3.040628 -0.130562
4 49.430481 -0.000002 -0.000000 -0.000000 0.000000 -0.399940
5 49.430473 0.000003 0.000000 -0.201459 0.009329 0.155449
6 11.591197 14.908229 0.000001 -0.010764 -0.013749 1.582501
7 4.161459 0.000000 -0.000000 0.000000 0.000000 0.000000
8 4.161460 0.000000 0.000000 0.000000 0.000000 0.000000
9 0.0 0.0 0.0 0.0 0.0 0.0
10 0.000014 -0.000009 -10.281537 -0.030454 -3.031686 0.022145
11 49.430481 0.000001 0.000001 -0.000000 0.000000 -0.293551
12 49.430458 0.000001 0.000000 0.342887 -0.118116 0.231868
13 11.591199 14.908231 0.000000 0.000000 0.027468 1.576192
14 4.161459 0.000000 -0.000002 0.000000 0.000000 0.000000
15 4.161459 -0.000000 0.000002 0.000000 0.000000 0.000000
16 0.0 0.0 0.0 0.0 0.0 0.0
17 3.589294 -0.014788 -0.273416 0.351298 -0.084616 0.020429
18 19.795845 -0.019855 -0.001651 0.081428 0.198973 -0.260811
19 26.011251 -0.003702 -0.000052 0.012209 -0.068103 0.443883
20 5.140771 -0.000001 0.000000 -0.210630 -0.011059 -0.144484
21 0.0 0.0 0.0 0.0 0.0 0.0
22 6.885802 -6.883008 -0.000019 -0.000005 0.000002 -2.515653
23 15.462809 -0.013129 -0.000000 -0.000000 -0.000000 0.120936
24 0.0 0.0 0.0 0.0 0.0 0.0
25 -0.440767 -0.074793 -6.461872 1.418334 1.128757 -2.159156
26 13.400167 -0.000001 -0.000004 -0.752894 -1.085288 0.812579
27 37.630424 0.000000 0.000002 0.000000 0.000000 -0.197807
28 27.473600 -0.000000 -0.000003 1.403141 0.296145 0.096610
29 10.423899 -1.809567 -0.029783 -0.155473 -0.089890 -0.258528
30 3.624239 -0.000005 -0.000001 -0.000000 0.000000 0.137726
31 3.624249 0.000008 0.000002 0.000000 -0.000000 -0.418506
32 0.0 0.0 0.0 0.0 0.0 0.0
33 9.026134 3.666777 0.258445 -1.374363 -0.037857 1.754420
34 0.440788 0.082975 6.461873 -0.212591 -1.395163 2.902703
35 13.400167 0.000000 -0.000004 1.397952 0.715692 0.526338
36 37.630436 0.000001 0.000001 -0.000000 0.000000 -1.312937
37 27.473604 0.000004 -0.000000 -1.601747 -0.200462 -0.518949
38 10.423895 -1.809570 0.029781 -0.000875 0.000000 0.000000
39 3.624239 0.000002 -0.000000 -0.000000 -0.000000 0.556233
40 3.624240 -0.000001 -0.000004 0.000000 0.000000 0.000000
41 0.0 0.0 0.0 0.0 0.0 0.0
42 9.000599 3.769936 0.531382 1.767230 -0.037854 -1.387172
43 15.155038 10.590137 0.000025 3.140796 -1.570796 0.000000
44 0.000000 -0.606424 -3.234273 -0.240810 0.000000 -0.000000
45 0.000001 -3.638545 -20.011988 -0.078814 -0.000000 0.000000
46 0.000001 -0.606428 -26.480515 0.000000 0.000000 0.000000
47 16.351944 -9.422812 -0.000021 3.140796 -1.570796 0.000000
48 -0.000000 0.000000 -2.627835 0.287432 0.000000 -0.000000
49 -0.000000 5.457821 -16.979877 -0.126948 0.000000 0.000000
50 -0.000001 2.627839 -27.895494 0.000000 0.000000 0.000000
51 0.000000 -24.656107 107.499001 -1.570796 -3.141593 -1.570796
52 0.000001 -32.833401 87.611542 1.570796 0.000000 1.570796
53 -0.000002 19.499605 83.137291 1.570796 0.000000 1.570796
54 -0.000001 11.966239 112.008217 -1.570796 -3.141593 -1.570796
55 1.875028 5.954244 134.703369 1.570796 0.000000 -0.000001
56 0.0 0.0 0.0 0.0 0.0 0.0
57 0.0 0.0 0.0 0.0 0.0 0.0
58 0.0 0.0 0.0 0.0 0.0 0.0
59 0.0 0.0 0.0 0.0 0.0 0.0
time 1
0 -9.854935 -7.515251 108.577682 0.083625 -0.059720 -1.855652
1 -6.436967 -8.992308 -107.280792 0.080803 0.063490 1.855720
2 0.000001 -0.000000 -0.000001 0.000000 -1.645343 -1.570795
3 -0.000016 0.000019 10.281539 -0.433637 -3.031624 -0.163259
4 49.430485 0.000000 0.000001 -0.000000 -0.000000 -0.446361
5 49.430466 -0.000001 -0.000000 -0.187808 0.011395 0.189700
6 11.591197 14.908231 0.000001 -0.010864 -0.013877 1.575328
7 4.161461 -0.000000 -0.000000 0.000000 0.000000 0.000000
8 4.161460 0.000000 -0.000000 0.000000 0.000000 0.000000
9 0.0 0.0 0.0 0.0 0.0 0.0
10 0.000010 -0.000009 -10.281536 -0.026126 -3.029009 -0.014515
11 49.430477 0.000000 -0.000000 -0.000000 -0.000000 -0.347606
12 49.430466 -0.000000 0.000000 0.354902 -0.120851 0.268631
13 11.591199 14.908231 -0.000000 0.000270 0.027814 1.571460
14 4.161461 -0.000000 -0.000001 0.000000 0.000000 0.000000
15 4.161458 -0.000000 -0.000000 0.000000 0.000000 0.000000
16 0.0 0.0 0.0 0.0 0.0 0.0
17 3.588562 -0.014786 -0.273472 0.354657 -0.068477 -0.023499
18 19.796669 -0.020063 -0.001824 0.089978 0.195296 -0.217167
19 26.011255 -0.003700 -0.000051 0.012209 -0.068103 0.443883
20 5.140771 -0.000001 -0.000000 -0.233428 -0.010729 -0.170815
21 0.0 0.0 0.0 0.0 0.0 0.0
22 6.885182 -6.883492 -0.000019 -0.000005 0.000002 -2.451567
23 15.459648 -0.013136 -0.000001 -0.000000 0.000000 -0.118068
24 0.0 0.0 0.0 0.0 0.0 0.0
25 -0.440766 -0.074793 -6.461872 1.310717 1.116601 -2.278585
26 13.400165 0.000001 -0.000010 -0.654458 -1.062499 0.789879
27 37.630421 0.000001 -0.000000 0.000000 0.000000 -0.273771
28 27.473610 0.000000 0.000002 1.402648 0.305583 0.094944
29 10.423900 -1.809566 -0.029783 -0.160504 -0.080505 -0.199419
30 3.624242 -0.000002 0.000001 0.000000 -0.000000 0.188180
31 3.624241 -0.000007 -0.000000 -0.000000 -0.000000 -0.368052
32 0.0 0.0 0.0 0.0 0.0 0.0
33 9.026134 3.666780 0.258445 -1.374363 -0.037857 1.754420
34 0.440785 0.082976 6.461871 -0.163968 -1.342976 2.853091
35 13.400167 0.000001 0.000005 1.331423 0.663008 0.505224
36 37.630428 -0.000003 -0.000002 0.000000 0.000000 -1.368095
37 27.473604 -0.000001 0.000002 -1.598921 -0.172674 -0.482175
38 10.423897 -1.809567 0.029783 -0.000875 0.000000 0.000000
39 3.624243 0.000002 0.000006 0.000000 -0.000000 0.556233
40 3.624241 -0.000002 -0.000004 0.000000 0.000000 0.000000
41 0.0 0.0 0.0 0.0 0.0 0.0
42 9.000600 3.769938 0.531382 1.767230 -0.037854 -1.387172
43 15.155034 10.590137 0.000024 3.140796 -1.570796 0.000000
44 0.000001 -0.606424 -3.234272 -0.232694 0.000000 -0.000000
45 0.000001 -3.638546 -20.011992 -0.058305 -0.000000 0.000000
46 0.000000 -0.606428 -26.480513 0.000000 0.000000 0.000000
47 16.351950 -9.422812 -0.000022 3.140796 -1.570796 0.000000
48 -0.000000 0.000000 -2.627838 0.351606 -0.000000 -0.000000
49 -0.000000 5.457818 -16.979876 -0.232346 0.000000 0.000000
50 -0.000001 2.627837 -27.895491 0.000000 0.000000 0.000000
51 0.000000 -24.656107 107.499001 -1.570796 -3.141593 -1.570796
52 0.000001 -33.446148 87.611542 1.570796 0.000000 1.570796
53 -0.000002 18.015863 82.471794 1.570796 0.000000 1.570796
54 -0.000001 11.966239 112.008217 -1.570796 -3.141593 -1.570796
55 1.875028 5.954244 134.703369 1.570796 0.000000 -0.000001
56 0.0 0.0 0.0 0.0 0.0 0.0
57 0.0 0.0 0.0 0.0 0.0 0.0
58 0.0 0.0 0.0 0.0 0.0 0.0
59 0.0 0.0 0.0 0.0 0.0 0.0
time 2
0 -9.854935 -8.003964 107.954872 0.082440 -0.043500 -1.840015
1 -4.665878 -8.827125 -106.831024 0.063870 0.067905 1.840391
2 -0.000000 -0.000000 -0.000003 0.000000 -1.645343 -1.570795
3 -0.000013 0.000019 10.281539 -0.430489 -3.020417 -0.202111
4 49.430481 -0.000005 0.000000 -0.000000 -0.000000 -0.501846
5 49.430466 0.000003 0.000001 -0.172690 0.011632 0.220911
6 11.591198 14.908228 -0.000001 -0.010859 -0.013870 1.575369
7 4.161459 -0.000000 -0.000000 0.000000 0.000000 0.000000
8 4.161460 0.000000 0.000000 0.000000 0.000000 0.000000
9 0.0 0.0 0.0 0.0 0.0 0.0
10 0.000009 -0.000010 -10.281535 -0.021201 -3.026510 -0.055528
11 49.430481 -0.000000 0.000001 -0.000000 -0.000000 -0.407424
12 49.430462 0.000002 0.000000 0.368385 -0.121733 0.303989
13 11.591198 14.908231 -0.000001 0.000257 0.027797 1.571496
14 4.161459 -0.000000 0.000000 0.000000 0.000000 0.000000
15 4.161461 -0.000000 0.000001 0.000000 0.000000 0.000000
16 0.0 0.0 0.0 0.0 0.0 0.0
17 3.587753 -0.014747 -0.273521 0.357538 -0.050488 -0.071939
18 19.797625 -0.020247 -0.002012 0.099219 0.190810 -0.169006
19 26.011261 -0.003698 -0.000051 0.012209 -0.068103 0.443883
20 5.140779 0.000000 -0.000000 -0.258506 -0.010988 -0.199779
21 0.0 0.0 0.0 0.0 0.0 0.0
22 6.884645 -6.883960 -0.000018 -0.000005 0.000002 -2.393584
23 15.457694 -0.012753 -0.000000 -0.000000 0.000001 -0.269014
24 0.0 0.0 0.0 0.0 0.0 0.0
25 -0.440762 -0.074791 -6.461873 1.200123 1.097012 -2.402364
26 13.400162 0.000000 -0.000009 -0.546245 -1.038570 0.765307
27 37.630436 -0.000001 0.000001 0.000000 -0.000000 -0.357732
28 27.473602 0.000000 -0.000004 1.402081 0.316014 0.093091
29 10.423896 -1.809565 -0.029783 -0.165403 -0.069807 -0.134192
30 3.624246 -0.000001 -0.000000 -0.000000 -0.000000 0.243945
31 3.624234 -0.000000 0.000000 -0.000000 -0.000000 -0.312287
32 0.0 0.0 0.0 0.0 0.0 0.0
33 9.026132 3.666779 0.258444 -1.374363 -0.037857 1.754420
34 0.440796 0.082977 6.461872 -0.131104 -1.284905 2.819127
35 13.400167 -0.000001 0.000004 1.260664 0.605469 0.485403
36 37.630436 -0.000002 0.000000 -0.000000 -0.000000 -1.427218
37 27.473600 -0.000005 0.000001 -1.597157 -0.142129 -0.442183
38 10.423895 -1.809567 0.029785 -0.000875 -0.000000 0.000000
39 3.624241 0.000001 -0.000000 -0.000000 -0.000000 0.556233
40 3.624244 -0.000000 0.000004 0.000000 0.000000 0.000000
41 0.0 0.0 0.0 0.0 0.0 0.0
42 9.000599 3.769937 0.531380 1.767230 -0.037854 -1.387172
43 15.155033 10.590137 0.000025 3.140796 -1.570796 0.000000
44 -0.000000 -0.606424 -3.234269 -0.200983 -0.000000 -0.000000
45 0.000000 -3.638541 -20.011988 -0.081800 0.000000 0.000000
46 0.000001 -0.606421 -26.480516 0.000000 0.000000 0.000000
47 16.351946 -9.422811 -0.000021 3.140796 -1.570796 0.000000
48 -0.000001 -0.000000 -2.627835 0.429168 -0.000000 0.000000
49 -0.000001 5.457819 -16.979877 -0.354574 0.000000 0.000000
50 -0.000001 2.627837 -27.895502 0.000000 0.000000 0.000000
51 0.000000 -24.656107 107.499001 -1.570796 -3.141593 -1.570796
52 0.000001 -34.058895 87.611542 1.570796 0.000000 1.570796
53 -0.000002 16.532122 81.806290 1.570796 0.000000 1.570796
54 -0.000001 11.966239 112.008217 -1.570796 -3.141593 -1.570796
55 1.875028 5.954244 134.703369 1.570796 0.000000 -0.000001
56 0.0 0.0 0.0 0.0 0.0 0.0
57 0.0 0.0 0.0 0.0 0.0 0.0
58 0.0 0.0 0.0 0.0 0.0 0.0
59 0.0 0.0 0.0 0.0 0.0 0.0
time 3
0 -9.854935 -8.399590 107.450691 0.081667 -0.030356 -1.827378
1 -3.241298 -8.707668 -106.387192 0.050110 0.071289 1.827924
2 0.000000 0.000000 -0.000004 0.000000 -1.645343 -1.570795
3 -0.000014 0.000019 10.281538 -0.427971 -3.012419 -0.231603
4 49.430477 -0.000001 -0.000000 0.000000 -0.000000 -0.542489
5 49.430466 0.000002 0.000000 -0.160490 0.011735 0.244095
6 11.591198 14.908228 0.000000 -0.010855 -0.013864 1.575377
7 4.161462 0.000000 0.000001 0.000000 0.000000 0.000000
8 4.161457 0.000000 -0.000001 0.000000 0.000000 0.000000
9 0.0 0.0 0.0 0.0 0.0 0.0
10 0.000010 -0.000009 -10.281536 -0.017481 -3.024746 -0.085751
11 49.430470 0.000000 0.000000 0.000000 -0.000000 -0.449994
12 49.430473 0.000002 0.000000 0.379299 -0.122543 0.329721
13 11.591198 14.908228 -0.000001 0.000246 0.027782 1.571545
14 4.161461 0.000000 0.000002 0.000000 0.000000 0.000000
15 4.161459 -0.000000 -0.000001 0.000000 0.000000 0.000000
16 0.0 0.0 0.0 0.0 0.0 0.0
17 3.587089 -0.014687 -0.273549 0.359227 -0.035837 -0.111086
18 19.798401 -0.020364 -0.002164 0.106527 0.186862 -0.130083
19 26.011267 -0.003696 -0.000050 0.012209 -0.068103 0.443883
20 5.140756 0.000002 -0.000001 -0.278701 -0.011671 -0.223104
21 0.0 0.0 0.0 0.0 0.0 0.0
22 6.884205 -6.884385 -0.000019 -0.000005 0.000002 -2.344121
23 15.459216 -0.013080 -0.000001 -0.000000 0.000000 -0.151680
24 0.0 0.0 0.0 0.0 0.0 0.0
25 -0.440782 -0.074790 -6.461871 1.118241 1.076937 -2.495032
26 13.400166 -0.000000 -0.000005 -0.458835 -1.020038 0.745435
27 37.630432 -0.000002 -0.000001 0.000000 0.000000 -0.425700
28 27.473597 -0.000002 0.000001 1.401606 0.324457 0.091581
29 10.423893 -1.809572 -0.029783 -0.168848 -0.060929 -0.081463
30 3.624241 -0.000001 0.000000 0.000000 0.000000 0.289088
31 3.624244 0.000003 -0.000001 -0.000000 -0.000000 -0.267144
32 0.0 0.0 0.0 0.0 0.0 0.0
33 9.026130 3.666772 0.258444 -1.374363 -0.037857 1.754420
34 0.440773 0.082978 6.461872 -0.113007 -1.237738 2.800132
35 13.400165 -0.000001 0.000002 1.204962 0.559462 0.471440
36 37.630424 0.000000 -0.000001 0.000000 -0.000000 -1.473708
37 27.473600 -0.000002 -0.000001 -1.596835 -0.117553 -0.410283
38 10.423894 -1.809567 0.029785 -0.000875 0.000000 -0.000000
39 3.624242 0.000004 0.000007 0.000000 0.000000 0.556233
40 3.624241 -0.000001 -0.000003 0.000000 0.000000 0.000000
41 0.0 0.0 0.0 0.0 0.0 0.0
42 9.000599 3.769938 0.531386 1.767230 -0.037854 -1.387172
43 15.155040 10.590137 0.000024 3.140796 -1.570796 0.000000
44 -0.000000 -0.606425 -3.234264 -0.195691 -0.000000 0.000000
45 0.000000 -3.638546 -20.011986 -0.023134 0.000000 -0.000000
46 0.000001 -0.606424 -26.480515 0.000000 0.000000 0.000000
47 16.351944 -9.422812 -0.000023 3.140796 -1.570796 0.000000
48 0.000000 -0.000000 -2.627841 0.515752 0.000000 0.000000
49 -0.000000 5.457819 -16.979870 -0.409108 -0.000000 0.000000
50 0.000000 2.627837 -27.895491 0.000000 0.000000 0.000000
51 0.000000 -24.656107 107.499001 -1.570796 -3.141593 -1.570796
52 0.000001 -33.675930 87.611542 1.570796 0.000000 1.570796
53 -0.000002 17.459459 82.222229 1.570796 0.000000 1.570796
54 -0.000001 11.966239 112.008217 -1.570796 -3.141593 -1.570796
55 1.875028 5.954244 134.703369 1.570796 0.000000 -0.000001
56 0.0 0.0 0.0 0.0 0.0 0.0
57 0.0 0.0 0.0 0.0 0.0 0.0
58 0.0 0.0 0.0 0.0 0.0 0.0
59 0.0 0.0 0.0 0.0 0.0 0.0
time 4
0 -9.854935 -8.562494 107.243088 0.081397 -0.024941 -1.822178
1 -2.658092 -8.663365 -106.198410 0.044431 0.072633 1.822777
2 0.000000 0.000000 0.000001 0.000000 -1.645343 -1.570795
3 -0.000008 0.000020 10.281539 -0.426942 -3.009359 -0.243332
4 49.430477 -0.000001 -0.000000 0.000000 0.000000 -0.558328
5 49.430470 0.000000 -0.000000 -0.155477 0.011756 0.253223
6 11.591197 14.908229 0.000001 -0.010853 -0.013862 1.575360
7 4.161461 -0.000000 -0.000001 0.000000 0.000000 0.000000
8 4.161459 0.000000 0.000000 0.000000 0.000000 0.000000
9 0.0 0.0 0.0 0.0 0.0 0.0
10 0.000014 -0.000009 -10.281536 -0.016004 -3.024071 -0.097584
11 49.430473 -0.000001 0.000000 0.000000 -0.000000 -0.466354
12 49.430473 -0.000001 0.000001 0.383789 -0.122935 0.339815
13 11.591197 14.908228 -0.000000 0.000244 0.027780 1.571506
14 4.161459 0.000000 0.000002 0.000000 0.000000 0.000000
15 4.161459 0.000000 -0.000001 0.000000 0.000000 0.000000
16 0.0 0.0 0.0 0.0 0.0 0.0
17 3.586838 -0.014653 -0.273559 0.359756 -0.029787 -0.127192
18 19.798702 -0.020406 -0.002221 0.109488 0.185156 -0.114073
19 26.011271 -0.003695 -0.000050 0.012209 -0.068103 0.443883
20 5.140777 -0.000000 0.000001 -0.286985 -0.012075 -0.232674
21 0.0 0.0 0.0 0.0 0.0 0.0
22 6.883992 -6.884598 -0.000019 -0.000005 0.000002 -2.320343
23 15.461805 -0.013214 0.000001 -0.000000 -0.000000 0.045500
24 0.0 0.0 0.0 0.0 0.0 0.0
25 -0.440780 -0.074789 -6.461872 1.086634 1.067686 -2.531112
26 13.400162 -0.000005 -0.000007 -0.422855 -1.012596 0.737197
27 37.630421 -0.000000 -0.000002 0.000000 -0.000000 -0.453687
28 27.473608 0.000002 0.000002 1.401406 0.327933 0.090957
29 10.423895 -1.809570 -0.029782 -0.170129 -0.057222 -0.059768
30 3.624240 -0.000003 0.000001 0.000000 -0.000000 0.307677
31 3.624244 0.000004 -0.000001 -0.000000 0.000000 -0.248556
32 0.0 0.0 0.0 0.0 0.0 0.0
33 9.026134 3.666774 0.258446 -1.374363 -0.037857 1.754420
34 0.440794 0.082977 6.461873 -0.106987 -1.218289 2.793741
35 13.400169 0.000001 -0.000000 1.182346 0.540668 0.466125
36 37.630428 0.000000 -0.000000 -0.000000 -0.000000 -1.492499
37 27.473598 -0.000007 0.000001 -1.597001 -0.107477 -0.397267
38 10.423894 -1.809569 0.029785 -0.000875 -0.000000 -0.000000
39 3.624241 -0.000000 0.000001 -0.000000 0.000000 0.556233
40 3.624241 0.000001 0.000001 0.000000 0.000000 0.000000
41 0.0 0.0 0.0 0.0 0.0 0.0
42 9.000599 3.769936 0.531384 1.767230 -0.037854 -1.387172
43 15.155035 10.590137 0.000025 3.140796 -1.570796 0.000000
44 0.000000 -0.606426 -3.234266 -0.229329 -0.000000 -0.000000
45 0.000000 -3.638542 -20.011986 0.104628 -0.000000 0.000000
46 0.000000 -0.606425 -26.480513 0.000000 0.000000 0.000000
47 16.351944 -9.422813 -0.000021 3.140796 -1.570796 0.000000
48 0.000000 -0.000000 -2.627837 0.569723 0.000000 -0.000000
49 -0.000000 5.457825 -16.979874 -0.394516 0.000000 -0.000000
50 -0.000001 2.627839 -27.895489 0.000000 0.000000 0.000000
51 0.000000 -24.656107 107.499001 -1.570796 -3.141593 -1.570796
52 0.000001 -32.833401 87.611542 1.570796 0.000000 1.570796
53 -0.000002 19.499605 83.137291 1.570796 0.000000 1.570796
54 -0.000001 11.966239 112.008217 -1.570796 -3.141593 -1.570796
55 1.875028 5.954244 134.703369 1.570796 0.000000 -0.000001
56 0.0 0.0 0.0 0.0 0.0 0.0
57 0.0 0.0 0.0 0.0 0.0 0.0
58 0.0 0.0 0.0 0.0 0.0 0.0
59 0.0 0.0 0.0 0.0 0.0 0.0
time 5
0 -9.854935 -8.399590 107.450691 0.081667 -0.030356 -1.827378
1 -3.241290 -8.707646 -106.386925 0.050110 0.071289 1.827924
2 0.000000 0.000000 -0.000004 0.000000 -1.645343 -1.570795
3 -0.000014 0.000019 10.281538 -0.427971 -3.012419 -0.231603
4 49.430477 -0.000001 -0.000000 0.000000 -0.000000 -0.542489
5 49.430466 0.000003 0.000001 -0.160491 0.011736 0.244103
6 11.591198 14.908228 -0.000000 -0.010855 -0.013864 1.575369
7 4.161459 -0.000000 0.000000 0.000000 0.000000 0.000000
8 4.161460 -0.000000 0.000000 0.000000 0.000000 0.000000
9 0.0 0.0 0.0 0.0 0.0 0.0
10 0.000010 -0.000009 -10.281536 -0.017481 -3.024746 -0.085751
11 49.430470 -0.000000 0.000000 -0.000000 -0.000000 -0.449994
12 49.430473 0.000001 -0.000000 0.379299 -0.122548 0.329732
13 11.591198 14.908228 -0.000002 0.000246 0.027783 1.571532
14 4.161463 0.000000 0.000001 0.000000 0.000000 0.000000
15 4.161458 0.000000 0.000000 0.000000 0.000000 0.000000
16 0.0 0.0 0.0 0.0 0.0 0.0
17 3.587089 -0.014687 -0.273549 0.359227 -0.035837 -0.111086
18 19.798401 -0.020365 -0.002165 0.106527 0.186862 -0.130083
19 26.011265 -0.003696 -0.000051 0.012209 -0.068103 0.443883
20 5.140756 0.000000 0.000001 -0.278701 -0.011671 -0.223105
21 0.0 0.0 0.0 0.0 0.0 0.0
22 6.884248 -6.884329 -0.000020 -0.000005 0.000002 -2.350479
23 15.463836 -0.012959 0.000001 -0.000000 -0.000001 0.200397
24 0.0 0.0 0.0 0.0 0.0 0.0
25 -0.440782 -0.074791 -6.461870 1.118241 1.076937 -2.495032
26 13.400168 0.000001 -0.000005 -0.458835 -1.020038 0.745435
27 37.630432 -0.000002 0.000000 0.000000 0.000000 -0.425700
28 27.473597 0.000001 -0.000002 1.401606 0.324457 0.091581
29 10.423891 -1.809571 -0.029783 -0.168848 -0.060929 -0.081463
30 3.624241 -0.000001 0.000000 0.000000 0.000000 0.289088
31 3.624244 0.000001 -0.000000 -0.000000 -0.000000 -0.267144
32 0.0 0.0 0.0 0.0 0.0 0.0
33 9.026129 3.666772 0.258445 -1.374363 -0.037857 1.754420
34 0.440773 0.082977 6.461874 -0.113006 -1.237738 2.800132
35 13.400165 -0.000000 0.000002 1.204962 0.559462 0.471440
36 37.630432 0.000001 0.000001 -0.000000 0.000000 -1.473709
37 27.473602 -0.000002 0.000000 -1.596835 -0.117553 -0.410282
38 10.423895 -1.809566 0.029786 -0.000875 -0.000000 0.000000
39 3.624242 0.000001 0.000007 0.000000 0.000000 0.556233
40 3.624241 -0.000002 -0.000003 0.000000 0.000000 0.000000
41 0.0 0.0 0.0 0.0 0.0 0.0
42 9.000600 3.769940 0.531387 1.767230 -0.037854 -1.387172
43 15.155040 10.590137 0.000023 3.140796 -1.570796 0.000000
44 -0.000001 -0.606425 -3.234264 -0.282207 -0.000000 -0.000000
45 -0.000000 -3.638543 -20.011990 0.229544 -0.000000 -0.000000
46 0.000001 -0.606421 -26.480518 0.000000 0.000000 0.000000
47 16.351942 -9.422812 -0.000023 3.140796 -1.570796 0.000000
48 0.000000 -0.000000 -2.627834 0.549640 0.000000 -0.000000
49 0.000000 5.457821 -16.979874 -0.300638 0.000000 0.000000
50 0.000001 2.627838 -27.895493 0.000000 0.000000 0.000000
51 0.000000 -24.656107 107.499001 -1.570796 -3.141593 -1.570796
52 0.000001 -31.990875 87.611542 1.570796 0.000000 1.570796
53 -0.000002 21.539749 84.052345 1.570796 0.000000 1.570796
54 -0.000001 11.966239 112.008217 -1.570796 -3.141593 -1.570796
55 1.875028 5.954244 134.703369 1.570796 0.000000 -0.000001
56 0.0 0.0 0.0 0.0 0.0 0.0
57 0.0 0.0 0.0 0.0 0.0 0.0
58 0.0 0.0 0.0 0.0 0.0 0.0
59 0.0 0.0 0.0 0.0 0.0 0.0
time 6
0 -9.854935 -8.003964 107.954872 0.082440 -0.043500 -1.840015
1 -4.665859 -8.827087 -106.830574 0.063870 0.067905 1.840391
2 -0.000000 -0.000000 -0.000003 0.000000 -1.645343 -1.570795
3 -0.000013 0.000019 10.281539 -0.430489 -3.020417 -0.202111
4 49.430481 -0.000005 0.000000 -0.000000 -0.000000 -0.501846
5 49.430466 0.000003 0.000001 -0.172690 0.011632 0.220911
6 11.591198 14.908228 -0.000001 -0.010859 -0.013870 1.575369
7 4.161459 -0.000000 -0.000000 0.000000 0.000000 0.000000
8 4.161460 0.000000 0.000000 0.000000 0.000000 0.000000
9 0.0 0.0 0.0 0.0 0.0 0.0
10 0.000009 -0.000010 -10.281535 -0.021201 -3.026510 -0.055528
11 49.430481 -0.000001 0.000001 -0.000000 0.000000 -0.407424
12 49.430462 0.000002 0.000000 0.368385 -0.121733 0.303988
13 11.591198 14.908231 -0.000001 0.000257 0.027797 1.571496
14 4.161459 -0.000000 0.000000 0.000000 0.000000 0.000000
15 4.161461 -0.000000 0.000001 0.000000 0.000000 0.000000
16 0.0 0.0 0.0 0.0 0.0 0.0
17 3.587753 -0.014747 -0.273521 0.357538 -0.050488 -0.071939
18 19.797625 -0.020248 -0.002012 0.099219 0.190810 -0.169006
19 26.011261 -0.003698 -0.000051 0.012209 -0.068103 0.443883
20 5.140779 -0.000000 -0.000001 -0.258506 -0.010988 -0.199780
21 0.0 0.0 0.0 0.0 0.0 0.0
22 6.884734 -6.883876 -0.000019 -0.000005 0.000002 -2.403757
23 15.465038 -0.012659 0.000001 -0.000000 -0.000001 0.294308
24 0.0 0.0 0.0 0.0 0.0 0.0
25 -0.440762 -0.074792 -6.461873 1.200123 1.097012 -2.402364
26 13.400162 -0.000001 -0.000009 -0.546245 -1.038570 0.765307
27 37.630436 -0.000001 0.000001 0.000000 -0.000000 -0.357732
28 27.473602 0.000000 -0.000004 1.402081 0.316014 0.093091
29 10.423896 -1.809565 -0.029783 -0.165403 -0.069807 -0.134192
30 3.624246 -0.000001 -0.000000 -0.000000 -0.000000 0.243945
31 3.624234 -0.000000 0.000000 -0.000000 -0.000000 -0.312287
32 0.0 0.0 0.0 0.0 0.0 0.0
33 9.026132 3.666779 0.258444 -1.374363 -0.037857 1.754420
34 0.440796 0.082976 6.461871 -0.131104 -1.284905 2.819127
35 13.400167 -0.000000 0.000004 1.260664 0.605469 0.485403
36 37.630436 -0.000002 0.000000 -0.000000 -0.000000 -1.427218
37 27.473600 -0.000005 0.000001 -1.597157 -0.142129 -0.442183
38 10.423895 -1.809567 0.029785 -0.000875 -0.000000 -0.000000
39 3.624241 0.000001 -0.000000 -0.000000 -0.000000 0.556233
40 3.624244 -0.000000 0.000004 0.000000 0.000000 0.000000
41 0.0 0.0 0.0 0.0 0.0 0.0
42 9.000599 3.769937 0.531380 1.767230 -0.037854 -1.387172
43 15.155033 10.590137 0.000025 3.140796 -1.570796 0.000000
44 -0.000000 -0.606424 -3.234269 -0.320957 0.000000 0.000000
45 0.000001 -3.638546 -20.011990 0.273440 -0.000000 -0.000000
46 0.000001 -0.606419 -26.480515 0.000000 0.000000 0.000000
47 16.351946 -9.422811 -0.000021 3.140796 -1.570796 0.000000
48 -0.000001 -0.000000 -2.627835 0.471007 0.000000 0.000000
49 -0.000002 5.457820 -16.979872 -0.187416 -0.000000 -0.000000
50 0.000001 2.627838 -27.895496 0.000000 0.000000 0.000000
51 0.000000 -24.656107 107.499001 -1.570796 -3.141593 -1.570796
52 0.000001 -31.607908 87.611542 1.570796 0.000000 1.570796
53 -0.000002 22.467087 84.468285 1.570796 0.000000 1.570796
54 -0.000001 11.966239 112.008217 -1.570796 -3.141593 -1.570796
55 1.875028 5.954244 134.703369 1.570796 0.000000 -0.000001
56 0.0 0.0 0.0 0.0 0.0 0.0
57 0.0 0.0 0.0 0.0 0.0 0.0
58 0.0 0.0 0.0 0.0 0.0 0.0
59 0.0 0.0 0.0 0.0 0.0 0.0
time 7
0 -9.854935 -7.515252 108.577682 0.083625 -0.059720 -1.855652
1 -6.441138 -8.998136 -107.350296 0.080803 0.063490 1.855720
2 0.000000 -0.000000 -0.000001 0.000000 -1.645343 -1.570795
3 -0.000016 0.000020 10.281539 -0.433638 -3.031628 -0.163252
4 49.430477 -0.000000 0.000000 0.000000 0.000000 -0.446355
5 49.430466 0.000002 -0.000001 -0.187808 0.011401 0.189727
6 11.591198 14.908230 -0.000001 -0.010865 -0.013877 1.575303
7 4.161462 0.000000 0.000002 0.000000 0.000000 0.000000
8 4.161456 0.000000 -0.000002 0.000000 0.000000 0.000000
9 0.0 0.0 0.0 0.0 0.0 0.0
10 0.000010 -0.000009 -10.281536 -0.026126 -3.029008 -0.014510
11 49.430473 -0.000000 0.000000 -0.000000 -0.000000 -0.347602
12 49.430466 0.000001 0.000000 0.354902 -0.120852 0.268632
13 11.591198 14.908231 -0.000002 0.000271 0.027814 1.571460
14 4.161458 0.000000 -0.000002 0.000000 0.000000 0.000000
15 4.161460 0.000000 0.000000 0.000000 0.000000 0.000000
16 0.0 0.0 0.0 0.0 0.0 0.0
17 3.588562 -0.014785 -0.273473 0.354658 -0.068477 -0.023499
18 19.796669 -0.020064 -0.001823 0.089978 0.195296 -0.217167
19 26.011255 -0.003698 -0.000050 0.012209 -0.068103 0.443883
20 5.140777 0.000000 -0.000000 -0.233428 -0.010729 -0.170815
21 0.0 0.0 0.0 0.0 0.0 0.0
22 6.885243 -6.883442 -0.000019 -0.000005 0.000002 -2.457925
23 15.464282 -0.012871 -0.000000 -0.000000 -0.000001 0.234008
24 0.0 0.0 0.0 0.0 0.0 0.0
25 -0.440760 -0.074792 -6.461872 1.310717 1.116601 -2.278585
26 13.400167 -0.000001 -0.000009 -0.654458 -1.062499 0.789879
27 37.630421 -0.000000 0.000002 -0.000000 -0.000000 -0.273771
28 27.473608 0.000001 0.000002 1.402648 0.305583 0.094944
29 10.423896 -1.809564 -0.029783 -0.160504 -0.080505 -0.199419
30 3.624242 0.000001 0.000000 -0.000000 0.000000 0.188180
31 3.624241 -0.000006 0.000000 -0.000000 -0.000000 -0.368052
32 0.0 0.0 0.0 0.0 0.0 0.0
33 9.026133 3.666780 0.258444 -1.374363 -0.037857 1.754420
34 0.440791 0.082977 6.461872 -0.163968 -1.342976 2.853091
35 13.400165 -0.000001 0.000013 1.331423 0.663008 0.505224
36 37.630428 -0.000002 -0.000000 0.000000 -0.000000 -1.368095
37 27.473598 0.000004 0.000000 -1.598921 -0.172674 -0.482175
38 10.423895 -1.809567 0.029781 -0.000875 0.000000 0.000000
39 3.624242 -0.000000 0.000004 0.000000 0.000000 0.556233
40 3.624242 -0.000002 -0.000006 0.000000 0.000000 0.000000
41 0.0 0.0 0.0 0.0 0.0 0.0
42 9.000600 3.769938 0.531379 1.767230 -0.037854 -1.387172
43 15.155034 10.590137 0.000025 3.140796 -1.570796 0.000000
44 0.000000 -0.606425 -3.234272 -0.322201 0.000000 -0.000000
45 0.000000 -3.638545 -20.011990 0.181919 0.000000 0.000000
46 -0.000000 -0.606423 -26.480511 0.000000 0.000000 0.000000
47 16.351950 -9.422812 -0.000021 3.140796 -1.570796 0.000000
48 0.000000 0.000000 -2.627839 0.376019 -0.000000 -0.000000
49 -0.000000 5.457819 -16.979874 -0.142454 0.000000 0.000000
50 -0.000000 2.627839 -27.895496 0.000000 0.000000 0.000000
51 0.000000 -24.656107 107.499001 -1.570796 -3.141593 -1.570796
52 0.000001 -32.220654 87.611542 1.570796 0.000000 1.570796
53 -0.000002 21.354280 83.969162 1.570796 0.000000 1.570796
54 -0.000001 11.966239 112.008217 -1.570796 -3.141593 -1.570796
55 1.875028 5.954244 134.703369 1.570796 0.000000 -0.000001
56 0.0 0.0 0.0 0.0 0.0 0.0
57 0.0 0.0 0.0 0.0 0.0 0.0
58 0.0 0.0 0.0 0.0 0.0 0.0
59 0.0 0.0 0.0 0.0 0.0 0.0
end
