version 1
nodes
0 "Bip01" -1
1 "Bip01 Footsteps" 0
2 "Bip01 Pelvis" 0
3 "Bip01 L Thigh" 2
4 "Bip01 L Calf" 3
5 "Bip01 L Foot" 4
6 "Bip01 L Toe0" 5
7 "Bip01 L Toe01" 6
8 "Bip01 L Toe02" 7
9 "Null 9" -1
10 "Bip01 R Thigh" 2
11 "Bip01 R Calf" 10
12 "Bip01 R Foot" 11
13 "Bip01 R Toe0" 12
14 "Bip01 R Toe01" 13
15 "Bip01 R Toe02" 14
16 "Null 16" -1
17 "Bip01 Spine" 2
18 "Bip01 Spine1" 17
19 "Bip01 Neck" 18
20 "Bip01 Head" 19
21 "Null 21" -1
22 "Bip01 Ponytail1" 20
23 "Bip01 Ponytail11" 22
24 "Null 24" -1
25 "Bip01 R Clavicle" 19
26 "Bip01 R UpperArm" 25
27 "Bip01 R Forearm" 26
28 "Bip01 R Hand" 27
29 "Bip01 R Finger0" 28
30 "Bip01 R Finger01" 29
31 "Bip01 R Finger02" 30
32 "Null 32" -1
33 "knife_gdf" 28
34 "Bip01 L Clavicle" 19
35 "Bip01 L UpperArm" 34
36 "Bip01 L Forearm" 35
37 "Bip01 L Hand" 36
38 "Bip01 L Finger0" 37
39 "Bip01 L Finger01" 38
40 "Bip01 L Finger02" 39
41 "Null 41" -1
42 "hand_bofdgne01" 37
43 "Bone01" 17
44 "Bone02" 43
45 "Bone03" 44
46 "Bone04" 45
47 "Bone05" 17
48 "Bone06" 47
49 "Bone07" 48
50 "Bone08" 49
51 "Mesh01" 2
52 "Mesh02" 2
53 "Mesh04" 2
54 "gfh" 2
55 "Mesh03" 2
56 "Null 56" -1
57 "Null 57" -1
58 "Null 58" -1
59 "Null 59" -1
end
skeleton
time 0
0 0.000001 17.151802 146.195419 0.079959 0.061225 -1.363204
1 6.747702 -8.792006 -109.721611 -0.076383 0.065636 1.363145
2 0.000000 0.000000 0.000000 -1.570795 -1.570796 0.000000
3 -0.000015 0.000015 10.281537 -2.729155 -0.515535 2.315308
4 49.430481 0.000001 0.000002 0.000000 -0.000000 -1.430277
5 49.430458 -0.000006 -0.000003 0.104776 -0.089361 -0.134242
6 11.591199 14.908236 -0.000007 0.000001 0.000001 1.596481
7 4.161460 0.000004 -0.000002 0.000000 -0.000000 0.000000
8 4.161460 -0.000004 -0.000002 0.000000 -0.000000 0.000000
9 0.0 0.0 0.0 0.0 0.0 0.0
10 0.000014 -0.000014 -10.281536 2.986557 0.861178 2.510817
11 49.430473 -0.000000 -0.000001 0.000000 -0.000000 -1.469560
12 49.430458 0.000000 0.000002 -0.169257 -0.082408 -0.150303
13 11.591205 14.908235 -0.000005 0.000000 -0.000000 1.570796
14 4.161460 -0.000008 0.000002 0.000000 -0.000000 0.000000
15 4.161460 0.000000 0.000000 0.000000 -0.000000 0.000000
16 0.0 0.0 0.0 0.0 0.0 0.0
17 3.597219 -0.015544 0.002290 -0.145895 -0.075995 -0.073129
18 19.802118 -0.020557 0.002439 -0.121175 -0.034429 0.039802
19 26.009623 -0.004091 0.000000 0.000000 -0.000000 0.039804
20 5.140769 -0.000000 0.000000 0.063060 0.020043 -0.040622
21 0.0 0.0 0.0 0.0 0.0 0.0
22 6.884319 -6.884266 -0.000019 -0.000005 0.000002 -2.357663
23 15.455590 -0.011976 -0.000000 -0.000000 0.000001 -0.460005
24 0.0 0.0 0.0 0.0 0.0 0.0
25 -0.000000 0.004113 -6.477369 1.898536 1.528115 -1.290119
26 13.400170 0.000000 -0.000005 0.285566 -1.385820 -0.471858
27 37.630424 0.000000 0.000002 0.000000 -0.000000 -1.443224
28 27.473606 -0.000003 0.000004 -3.013005 0.026302 0.030045
29 10.423896 -1.809569 -0.029785 0.000679 -0.000416 0.549164
30 3.624238 0.000001 0.000002 0.000000 -0.000000 0.000000
31 3.624245 0.000000 -0.000005 0.000000 -0.000000 0.000000
32 0.0 0.0 0.0 0.0 0.0 0.0
33 9.026134 3.666781 0.258441 -1.380411 -0.035332 1.743175
34 -0.000000 0.004075 6.477368 1.243122 -0.926051 1.923126
35 13.400166 0.000002 0.000005 -0.542167 0.643779 -0.392425
36 37.630424 -0.000003 0.000000 0.000000 -0.000000 -0.881458
37 27.473600 -0.000001 0.000000 -0.640493 -0.469643 -0.127816
38 10.423894 -1.809567 0.029781 0.050097 0.164181 0.831752
39 3.624245 0.000000 0.000001 0.000000 0.457132 0.000000
40 3.624246 0.000000 0.000002 0.000000 0.457132 0.000000
41 0.0 0.0 0.0 0.0 0.0 0.0
42 9.000605 3.769938 0.531382 1.761182 -0.035329 -1.398418
43 15.155050 10.590140 0.000009 3.140796 -1.570796 0.000000
44 0.000000 -0.606425 -3.234268 -0.378720 -0.000000 0.000000
45 0.000000 -3.638544 -20.011986 0.008643 -0.000000 0.000000
46 0.000000 -0.606427 -26.480513 0.000000 -0.000000 0.000000
47 16.351959 -9.422812 -0.000008 3.140796 -1.570796 0.000000
48 0.000000 0.000000 -2.627838 0.240966 -0.000000 0.000000
49 0.000000 5.457818 -16.979870 -0.372997 -0.000000 0.000000
50 0.000000 2.627838 -27.895493 0.000000 -0.000000 0.000000
51 0.941038 -25.923531 4.143967 1.570796 -0.000001 1.570797
52 1.084045 -35.435059 -19.758276 1.570796 -0.000001 1.570797
53 -3.099367 14.104057 -19.930149 1.570796 -0.000001 1.570797
54 -2.055292 15.848114 7.664167 1.570796 -0.000001 1.570797
55 1.875031 5.954243 134.703400 1.570796 -0.000002 -0.000001
56 0.0 0.0 0.0 0.0 0.0 0.0
57 0.0 0.0 0.0 0.0 0.0 0.0
58 0.0 0.0 0.0 0.0 0.0 0.0
59 0.0 0.0 0.0 0.0 0.0 0.0
time 1
0 0.000001 17.151802 144.524536 0.080263 0.106305 -1.359572
1 8.525402 -6.889590 -85.616882 -0.120705 0.056251 1.360445
2 0.000000 0.000000 0.000000 -1.570795 -1.570796 0.000000
3 -0.000014 0.000015 10.281537 -2.717973 -0.503628 2.275047
4 49.430481 -0.000000 0.000002 0.000000 -0.000000 -1.426834
5 49.430462 -0.000006 -0.000001 0.090837 -0.100598 -0.138945
6 11.591199 14.908236 -0.000003 -0.000625 -0.000355 1.595856
7 4.161460 0.000002 -0.000004 0.000000 -0.000000 0.000000
8 4.161461 -0.000002 -0.000001 0.000000 -0.000000 0.000000
9 0.0 0.0 0.0 0.0 0.0 0.0
10 0.000014 -0.000015 -10.281536 2.952871 0.844642 2.448805
11 49.430473 -0.000001 0.000002 0.000000 -0.000000 -1.485775
12 49.430458 0.000003 -0.000002 -0.155954 -0.064509 -0.151695
13 11.591199 14.908228 0.000000 0.000000 -0.000000 1.570796
14 4.161460 -0.000002 0.000006 0.000000 -0.000000 0.000000
15 4.161460 -0.000002 -0.000003 0.000000 -0.000000 0.000000
16 0.0 0.0 0.0 0.0 0.0 0.0
17 3.596448 -0.015454 0.002210 -0.141292 -0.084326 -0.119199
18 19.802551 -0.020550 0.002315 -0.115193 -0.026570 0.062306
19 26.009624 -0.004092 0.000000 0.000000 -0.000000 0.039804
20 5.140769 -0.000000 0.000000 0.056133 0.013138 -0.018610
21 0.0 0.0 0.0 0.0 0.0 0.0
22 6.884312 -6.884265 -0.000019 -0.000005 0.000002 -2.357663
23 15.455586 -0.011970 -0.000000 -0.000000 0.000001 -0.460005
24 0.0 0.0 0.0 0.0 0.0 0.0
25 0.000006 0.004112 -6.477368 1.768418 1.529656 -1.420349
26 13.400168 -0.000001 0.000000 0.076459 -1.387200 -0.254147
27 37.630428 -0.000001 0.000002 0.000000 -0.000000 -1.526718
28 27.473604 -0.000004 0.000002 -3.009337 0.028795 0.038398
29 10.423895 -1.809570 -0.029784 0.000679 -0.000416 0.549164
30 3.624238 -0.000001 -0.000000 0.000000 -0.000000 0.000000
31 3.624244 0.000001 -0.000001 0.000000 -0.000000 0.000000
32 0.0 0.0 0.0 0.0 0.0 0.0
33 9.026134 3.666782 0.258441 -1.380411 -0.035332 1.743175
34 0.000003 0.004075 6.477367 1.227242 -0.921793 1.942875
35 13.400165 0.000002 0.000003 -0.543364 0.648288 -0.384287
36 37.630428 -0.000004 0.000000 0.000000 -0.000000 -0.874049
37 27.473602 0.000001 0.000002 -0.615897 -0.463209 -0.138824
38 10.423893 -1.809568 0.029783 0.050097 0.164181 0.831752
39 3.624242 -0.000002 0.000000 0.000000 0.457132 0.000000
40 3.624242 0.000002 -0.000000 0.000000 0.457132 0.000000
41 0.0 0.0 0.0 0.0 0.0 0.0
42 9.000603 3.769938 0.531381 1.761182 -0.035329 -1.398418
43 15.155050 10.590139 0.000008 3.140796 -1.570796 0.000000
44 0.000000 -0.606425 -3.234267 -0.448575 -0.000000 0.000000
45 0.000000 -3.638543 -20.011986 0.165481 -0.000000 0.000000
46 0.000000 -0.606425 -26.480513 0.000000 -0.000000 0.000000
47 16.351959 -9.422812 -0.000008 3.140796 -1.570796 0.000000
48 0.000000 -0.000000 -2.627839 0.297696 -0.000000 0.000000
49 0.000000 5.457819 -16.979874 -0.439799 -0.000000 0.000000
50 0.000000 2.627838 -27.895496 0.000000 -0.000000 0.000000
51 0.941038 -25.538006 4.795200 1.570796 -0.000001 1.570797
52 1.084045 -34.438107 -20.117783 1.570796 -0.000001 1.570797
53 -3.099367 14.455070 -20.265879 1.570796 -0.000001 1.570797
54 -2.055292 16.093546 6.741748 1.570796 -0.000001 1.570797
55 1.875031 5.954243 134.703400 1.570796 -0.000002 -0.000001
56 0.0 0.0 0.0 0.0 0.0 0.0
57 0.0 0.0 0.0 0.0 0.0 0.0
58 0.0 0.0 0.0 0.0 0.0 0.0
59 0.0 0.0 0.0 0.0 0.0 0.0
time 2
0 0.000001 17.151804 142.906158 0.080825 0.158573 -1.355317
1 10.436767 -4.910177 -60.536545 -0.172039 0.045232 1.357842
2 0.000000 0.000000 0.000000 -1.570795 -1.570796 0.000000
3 -0.000014 0.000015 10.281537 -2.712268 -0.488353 2.231758
4 49.430481 -0.000002 0.000003 0.000000 -0.000000 -1.410657
5 49.430466 -0.000005 -0.000001 0.072555 -0.107643 -0.155272
6 11.591200 14.908234 0.000000 -0.001335 -0.000758 1.593382
7 4.161462 -0.000001 -0.000005 0.000000 -0.000000 0.000000
8 4.161460 0.000001 0.000000 0.000000 -0.000000 0.000000
9 0.0 0.0 0.0 0.0 0.0 0.0
10 0.000014 -0.000015 -10.281537 2.915766 0.820120 2.374820
11 49.430473 -0.000002 0.000005 0.000000 -0.000000 -1.501278
12 49.430462 0.000007 -0.000004 -0.137740 -0.047814 -0.162056
13 11.591193 14.908222 0.000005 0.000000 -0.000000 1.570796
14 4.161460 0.000004 0.000008 0.000000 -0.000000 0.000000
15 4.161458 -0.000004 -0.000005 0.000000 -0.000000 0.000000
16 0.0 0.0 0.0 0.0 0.0 0.0
17 3.595427 -0.015319 0.002097 -0.134069 -0.095858 -0.183749
18 19.803240 -0.020527 0.002127 -0.105695 -0.014420 0.098325
19 26.009626 -0.004092 0.000000 0.000000 -0.000000 0.039804
20 5.140769 -0.000000 0.000000 0.044871 0.003641 0.007285
21 0.0 0.0 0.0 0.0 0.0 0.0
22 6.884307 -6.884264 -0.000019 -0.000005 0.000002 -2.357663
23 15.455585 -0.011966 -0.000000 -0.000000 0.000001 -0.460005
24 0.0 0.0 0.0 0.0 0.0 0.0
25 0.000009 0.004112 -6.477367 1.553065 1.530557 -1.635872
26 13.400166 -0.000001 0.000005 -0.186561 -1.374769 0.023487
27 37.630432 -0.000001 0.000002 0.000000 0.000000 -1.627892
28 27.473600 -0.000005 -0.000001 -3.003603 0.032604 0.051385
29 10.423895 -1.809570 -0.029783 0.000679 -0.000416 0.549164
30 3.624238 -0.000002 -0.000002 0.000000 -0.000000 0.000000
31 3.624241 0.000002 0.000002 0.000000 -0.000000 0.000000
32 0.0 0.0 0.0 0.0 0.0 0.0
33 9.026134 3.666782 0.258441 -1.380411 -0.035332 1.743175
34 0.000004 0.004075 6.477366 1.201593 -0.914377 1.974905
35 13.400164 0.000001 -0.000001 -0.550922 0.646244 -0.376701
36 37.630428 -0.000005 -0.000000 0.000000 -0.000000 -0.861877
37 27.473604 0.000002 0.000003 -0.575809 -0.452136 -0.156438
38 10.423893 -1.809569 0.029784 0.050097 0.164181 0.831752
39 3.624239 -0.000004 -0.000000 0.000000 0.457132 0.000000
40 3.624239 0.000003 -0.000002 0.000000 0.457132 0.000000
41 0.0 0.0 0.0 0.0 0.0 0.0
42 9.000600 3.769939 0.531381 1.761182 -0.035329 -1.398418
43 15.155050 10.590139 0.000008 3.140796 -1.570796 0.000000
44 0.000000 -0.606425 -3.234268 -0.513828 -0.000000 0.000000
45 0.000000 -3.638542 -20.011988 0.354497 -0.000000 0.000000
46 0.000000 -0.606423 -26.480516 0.000000 -0.000000 0.000000
47 16.351959 -9.422812 -0.000008 3.140796 -1.570796 0.000000
48 0.000000 -0.000000 -2.627840 0.361498 -0.000000 0.000000
49 0.000000 5.457819 -16.979877 -0.495683 -0.000000 0.000000
50 0.000000 2.627838 -27.895498 0.000000 -0.000000 0.000000
51 0.941040 -24.980602 5.736779 1.570796 -0.000001 1.570797
52 1.084044 -32.794785 -20.710373 1.570796 -0.000001 1.570797
53 -3.099367 15.067715 -20.882807 1.570796 -0.000001 1.570797
54 -2.055290 16.448399 5.408078 1.570796 -0.000001 1.570797
55 1.875027 5.954243 134.703400 1.570796 -0.000002 -0.000001
56 0.0 0.0 0.0 0.0 0.0 0.0
57 0.0 0.0 0.0 0.0 0.0 0.0
58 0.0 0.0 0.0 0.0 0.0 0.0
59 0.0 0.0 0.0 0.0 0.0 0.0
time 3
0 0.000001 17.151804 143.696579 0.080733 0.151269 -1.355916
1 10.200803 -5.346788 -66.072449 -0.164869 0.046780 1.358171
2 0.000000 0.000000 0.000000 -1.570795 -1.570796 0.000000
3 -0.000014 0.000015 10.281536 -2.739770 -0.486140 2.249604
4 49.430481 -0.000004 0.000004 0.000000 -0.000000 -1.362447
5 49.430462 -0.000000 -0.000005 0.065440 -0.081732 -0.198853
6 11.591204 14.908231 -0.000000 -0.001170 -0.000659 1.586483
7 4.161468 -0.000004 -0.000005 0.000000 -0.000000 0.000000
8 4.161452 0.000004 -0.000000 0.000000 -0.000000 0.000000
9 0.0 0.0 0.0 0.0 0.0 0.0
10 0.000014 -0.000015 -10.281538 2.917448 0.808346 2.365902
11 49.430485 0.000001 0.000003 0.000000 -0.000000 -1.485456
12 49.430466 0.000006 0.000002 -0.128100 -0.066825 -0.198220
13 11.591196 14.908227 0.000000 0.000000 -0.000000 1.570796
14 4.161460 0.000000 -0.000004 0.000000 -0.000000 0.000000
15 4.161452 -0.000004 -0.000001 0.000000 -0.000000 0.000000
16 0.0 0.0 0.0 0.0 0.0 0.0
17 3.594897 -0.015208 0.002022 -0.129127 -0.103053 -0.220472
18 19.803919 -0.020473 0.001959 -0.097079 -0.003005 0.134215
19 26.009628 -0.004092 0.000000 0.000000 -0.000000 0.039804
20 5.140765 -0.000000 0.000000 0.033875 -0.002036 0.005003
21 0.0 0.0 0.0 0.0 0.0 0.0
22 6.884312 -6.884266 -0.000019 -0.000005 0.000002 -2.357663
23 15.455589 -0.011976 -0.000000 -0.000000 0.000001 -0.460005
24 0.0 0.0 0.0 0.0 0.0 0.0
25 0.000001 0.004113 -6.477368 1.357326 1.529727 -1.831767
26 13.400166 -0.000000 0.000001 -0.265731 -1.360572 0.119810
27 37.630424 -0.000000 0.000002 0.000000 0.000000 -1.631822
28 27.473598 -0.000003 -0.000002 -2.998354 0.035998 0.063196
29 10.423901 -1.809568 -0.029781 0.000679 -0.000416 0.549164
30 3.624242 -0.000002 -0.000002 0.000000 -0.000000 0.000000
31 3.624238 0.000002 0.000000 0.000000 -0.000000 0.000000
32 0.0 0.0 0.0 0.0 0.0 0.0
33 9.026134 3.666781 0.258441 -1.380411 -0.035332 1.743175
34 -0.000005 0.004074 6.477368 1.174480 -0.905778 2.008958
35 13.400164 -0.000001 -0.000005 -0.575095 0.616282 -0.384843
36 37.630424 -0.000001 -0.000002 0.000000 -0.000000 -0.848754
37 27.473600 0.000002 -0.000002 -0.532994 -0.439538 -0.174758
38 10.423893 -1.809569 0.029783 0.050097 0.164181 0.831752
39 3.624242 -0.000000 0.000000 0.000000 0.457132 0.000000
40 3.624242 -0.000004 -0.000002 0.000000 0.457132 0.000000
41 0.0 0.0 0.0 0.0 0.0 0.0
42 9.000601 3.769940 0.531382 1.761182 -0.035329 -1.398418
43 15.155051 10.590140 0.000008 3.140796 -1.570796 0.000000
44 0.000000 -0.606425 -3.234271 -0.439541 -0.000000 0.000000
45 0.000000 -3.638544 -20.011992 0.357736 -0.000000 0.000000
46 0.000000 -0.606423 -26.480522 0.000000 -0.000000 0.000000
47 16.351957 -9.422812 -0.000008 3.140796 -1.570796 0.000000
48 0.000000 -0.000000 -2.627838 0.344406 -0.000000 0.000000
49 0.000000 5.457819 -16.979877 -0.398573 -0.000000 0.000000
50 0.000000 2.627838 -27.895496 0.000000 -0.000000 0.000000
51 0.941040 -24.562813 6.442517 1.570796 -0.000001 1.570797
52 1.084045 -31.113968 -21.316484 1.570796 -0.000001 1.570797
53 -3.099369 15.782038 -21.670443 1.570796 -0.000001 1.570797
54 -2.055292 16.714375 4.408456 1.570796 -0.000001 1.570797
55 1.875031 5.954243 134.703400 1.570796 -0.000002 -0.000001
56 0.0 0.0 0.0 0.0 0.0 0.0
57 0.0 0.0 0.0 0.0 0.0 0.0
58 0.0 0.0 0.0 0.0 0.0 0.0
59 0.0 0.0 0.0 0.0 0.0 0.0
time 4
0 0.000001 17.151802 144.785522 0.080503 0.131241 -1.357551
1 9.167714 -5.580431 -69.165131 -0.145204 0.051011 1.359132
2 0.000000 0.000000 0.000000 -1.570795 -1.570796 0.000000
3 -0.000014 0.000015 10.281537 -2.772372 -0.486833 2.283818
4 49.430481 -0.000003 0.000001 0.000000 -0.000000 -1.307564
5 49.430466 0.000001 0.000002 0.060670 -0.052920 -0.244768
6 11.591201 14.908231 0.000004 -0.000636 -0.000357 1.578954
7 4.161463 0.000001 -0.000006 0.000000 -0.000000 0.000000
8 4.161451 -0.000004 0.000004 0.000000 -0.000000 0.000000
9 0.0 0.0 0.0 0.0 0.0 0.0
10 0.000014 -0.000014 -10.281537 2.930255 0.801736 2.377011
11 49.430481 -0.000003 -0.000003 0.000000 -0.000000 -1.462194
12 49.430473 0.000002 0.000003 -0.121283 -0.090726 -0.234956
13 11.591196 14.908223 -0.000001 0.000000 -0.000000 1.570796
14 4.161453 0.000003 -0.000007 0.000000 -0.000000 0.000000
15 4.161462 -0.000004 0.000008 0.000000 -0.000000 0.000000
16 0.0 0.0 0.0 0.0 0.0 0.0
17 3.594414 -0.015094 0.001949 -0.124729 -0.109086 -0.250127
18 19.804607 -0.020395 0.001784 -0.088461 0.007840 0.169301
19 26.009628 -0.004092 0.000000 0.000000 -0.000000 0.039804
20 5.140764 -0.000000 0.000000 0.023286 -0.007194 -0.002526
21 0.0 0.0 0.0 0.0 0.0 0.0
22 6.884323 -6.884268 -0.000019 -0.000005 0.000002 -2.357663
23 15.455587 -0.011969 -0.000000 -0.000000 0.000001 -0.460005
24 0.0 0.0 0.0 0.0 0.0 0.0
25 -0.000000 0.004113 -6.477368 1.181857 1.527519 -2.007391
26 13.400165 0.000000 -0.000003 -0.301371 -1.347915 0.173191
27 37.630421 -0.000001 -0.000001 0.000000 0.000000 -1.615000
28 27.473600 -0.000002 -0.000001 -2.993255 0.039214 0.074605
29 10.423899 -1.809567 -0.029782 0.000679 -0.000416 0.549164
30 3.624242 -0.000001 -0.000001 0.000000 -0.000000 0.000000
31 3.624238 -0.000001 -0.000000 0.000000 -0.000000 0.000000
32 0.0 0.0 0.0 0.0 0.0 0.0
33 9.026136 3.666782 0.258442 -1.380411 -0.035332 1.743175
34 -0.000002 0.004074 6.477368 1.152268 -0.898114 2.037019
35 13.400165 0.000000 -0.000002 -0.597964 0.587133 -0.396736
36 37.630428 -0.000001 0.000001 0.000000 -0.000000 -0.837805
37 27.473604 0.000001 -0.000004 -0.497591 -0.428527 -0.189493
38 10.423903 -1.809568 0.029781 0.050097 0.164181 0.831752
39 3.624243 0.000003 -0.000001 0.000000 0.457132 0.000000
40 3.624243 -0.000004 0.000001 0.000000 0.457132 0.000000
41 0.0 0.0 0.0 0.0 0.0 0.0
42 9.000602 3.769939 0.531382 1.761182 -0.035329 -1.398418
43 15.155050 10.590139 0.000009 3.140796 -1.570796 0.000000
44 0.000000 -0.606425 -3.234270 -0.348308 -0.000000 0.000000
45 0.000000 -3.638542 -20.011993 0.248958 -0.000000 0.000000
46 0.000000 -0.606424 -26.480518 0.000000 -0.000000 0.000000
47 16.351959 -9.422812 -0.000008 3.140796 -1.570796 0.000000
48 0.000000 -0.000000 -2.627839 0.328348 -0.000000 0.000000
49 0.000000 5.457819 -16.979879 -0.312499 -0.000000 0.000000
50 0.000000 2.627837 -27.895500 0.000000 -0.000000 0.000000
51 0.941040 -24.268814 6.939148 1.570796 -0.000001 1.570797
52 1.084044 -31.649729 -21.123285 1.570796 -0.000001 1.570797
53 -3.099369 16.037237 -22.113010 1.570796 -0.000001 1.570797
54 -2.055292 16.901541 3.705019 1.570796 -0.000001 1.570797
55 1.875031 5.954243 134.703400 1.570796 -0.000002 -0.000001
56 0.0 0.0 0.0 0.0 0.0 0.0
57 0.0 0.0 0.0 0.0 0.0 0.0
58 0.0 0.0 0.0 0.0 0.0 0.0
59 0.0 0.0 0.0 0.0 0.0 0.0
time 5
0 0.000001 17.151802 145.827209 0.080316 0.112210 -1.359095
1 7.921947 -5.772995 -71.744888 -0.126508 0.055013 1.360123
2 0.000000 0.000000 0.000000 -1.570795 -1.570796 0.000000
3 -0.000014 0.000015 10.281537 -2.799589 -0.487372 2.315400
4 49.430477 -0.000004 -0.000001 0.000000 -0.000000 -1.260931
5 49.430466 -0.000003 0.000002 0.056843 -0.029662 -0.282896
6 11.591195 14.908232 0.000001 -0.000218 -0.000121 1.573564
7 4.161459 0.000003 0.000000 0.000000 -0.000000 0.000000
8 4.161455 -0.000006 0.000002 0.000000 -0.000000 0.000000
9 0.0 0.0 0.0 0.0 0.0 0.0
10 0.000014 -0.000014 -10.281537 2.942127 0.798438 2.390714
11 49.430485 -0.000005 -0.000006 0.000000 -0.000000 -1.443773
12 49.430470 -0.000003 -0.000001 -0.116997 -0.109663 -0.261876
13 11.591197 14.908225 -0.000003 0.000000 -0.000000 1.570796
14 4.161452 0.000003 -0.000000 0.000000 -0.000000 0.000000
15 4.161473 -0.000004 0.000004 0.000000 -0.000000 0.000000
16 0.0 0.0 0.0 0.0 0.0 0.0
17 3.594040 -0.015000 0.001888 -0.121458 -0.113481 -0.269613
18 19.805208 -0.020311 0.001617 -0.080619 0.016910 0.197278
19 26.009634 -0.004092 0.000000 0.000000 -0.000000 0.039804
20 5.140764 -0.000000 0.000000 0.014217 -0.011594 -0.012033
21 0.0 0.0 0.0 0.0 0.0 0.0
22 6.884325 -6.884268 -0.000019 -0.000005 0.000002 -2.357663
23 15.455587 -0.011966 -0.000000 -0.000000 0.000001 -0.460005
24 0.0 0.0 0.0 0.0 0.0 0.0
25 0.000000 0.004113 -6.477369 1.045796 1.524612 -2.143589
26 13.400165 0.000000 -0.000005 -0.310570 -1.338283 0.198437
27 37.630424 -0.000001 -0.000002 0.000000 0.000000 -1.599942
28 27.473606 0.000001 0.000001 -2.988773 0.041975 0.084581
29 10.423897 -1.809567 -0.029784 0.000679 -0.000416 0.549164
30 3.624242 0.000001 -0.000001 0.000000 -0.000000 0.000000
31 3.624239 -0.000002 0.000002 0.000000 -0.000000 0.000000
32 0.0 0.0 0.0 0.0 0.0 0.0
33 9.026137 3.666782 0.258442 -1.380411 -0.035332 1.743175
34 -0.000002 0.004074 6.477368 1.137302 -0.892617 2.056019
35 13.400165 0.000000 -0.000002 -0.615759 0.564173 -0.409455
36 37.630432 -0.000001 0.000001 0.000000 -0.000000 -0.830291
37 27.473606 0.000000 -0.000004 -0.473492 -0.420712 -0.199306
38 10.423905 -1.809568 0.029782 0.050097 0.164181 0.831752
39 3.624242 0.000004 -0.000001 0.000000 0.457132 0.000000
40 3.624244 -0.000004 0.000002 0.000000 0.457132 0.000000
41 0.0 0.0 0.0 0.0 0.0 0.0
42 9.000602 3.769938 0.531382 1.761182 -0.035329 -1.398418
43 15.155050 10.590139 0.000009 3.140796 -1.570796 0.000000
44 0.000000 -0.606425 -3.234269 -0.282736 -0.000000 0.000000
45 0.000000 -3.638542 -20.011992 0.134540 -0.000000 0.000000
46 0.000000 -0.606425 -26.480516 0.000000 -0.000000 0.000000
47 16.351961 -9.422812 -0.000008 3.140796 -1.570796 0.000000
48 0.000000 -0.000000 -2.627839 0.316265 -0.000000 0.000000
49 0.000000 5.457819 -16.979879 -0.247792 -0.000000 0.000000
50 0.000000 2.627837 -27.895500 0.000000 -0.000000 0.000000
51 0.941040 -24.098602 7.226671 1.570796 -0.000001 1.570797
52 1.084045 -33.394806 -20.494001 1.570796 -0.000001 1.570797
53 -3.099369 16.152193 -22.460052 1.570796 -0.000001 1.570797
54 -2.055292 17.009899 3.297765 1.570796 -0.000001 1.570797
55 1.875031 5.954243 134.703400 1.570796 -0.000002 -0.000001
56 0.0 0.0 0.0 0.0 0.0 0.0
57 0.0 0.0 0.0 0.0 0.0 0.0
58 0.0 0.0 0.0 0.0 0.0 0.0
59 0.0 0.0 0.0 0.0 0.0 0.0
time 6
0 0.000001 17.151802 146.028732 0.080213 0.100349 -1.360055
1 7.264166 -5.877445 -73.126694 -0.114853 0.057498 1.360779
2 0.000000 0.000000 0.000000 -1.570795 -1.570796 0.000000
3 -0.000014 0.000015 10.281537 -2.812837 -0.487755 2.332275
4 49.430473 -0.000006 -0.000001 0.000000 -0.000000 -1.237505
5 49.430462 -0.000009 -0.000005 0.055731 -0.017880 -0.303008
6 11.591191 14.908233 -0.000009 0.000000 -0.000000 1.571138
7 4.161460 -0.000000 0.000009 0.000000 -0.000000 0.000000
8 4.161460 0.000000 -0.000005 0.000000 -0.000000 0.000000
9 0.0 0.0 0.0 0.0 0.0 0.0
10 0.000014 -0.000014 -10.281536 2.945634 0.798286 2.397686
11 49.430489 -0.000003 -0.000004 0.000000 -0.000000 -1.438549
12 49.430462 -0.000006 -0.000006 -0.116701 -0.118322 -0.272161
13 11.591199 14.908231 -0.000005 0.000000 -0.000000 1.570796
14 4.161460 -0.000000 0.000010 0.000000 -0.000000 0.000000
15 4.161474 -0.000004 -0.000009 0.000000 -0.000000 0.000000
16 0.0 0.0 0.0 0.0 0.0 0.0
17 3.594108 -0.015009 0.001882 -0.120863 -0.114684 -0.268001
18 19.805382 -0.020282 0.001513 -0.075130 0.022515 0.208890
19 26.009642 -0.004092 0.000000 0.000000 -0.000000 0.039804
20 5.140765 -0.000000 0.000000 0.008258 -0.013852 -0.025752
21 0.0 0.0 0.0 0.0 0.0 0.0
22 6.884319 -6.884265 -0.000019 -0.000005 0.000002 -2.357663
23 15.455589 -0.011971 -0.000000 -0.000000 0.000001 -0.460005
24 0.0 0.0 0.0 0.0 0.0 0.0
25 -0.000000 0.004113 -6.477369 0.963794 1.522206 -2.225684
26 13.400166 0.000000 -0.000005 -0.280755 -1.334917 0.180260
27 37.630436 -0.000001 -0.000002 0.000000 0.000000 -1.596910
28 27.473610 0.000003 0.000002 -2.985719 0.043821 0.091349
29 10.423897 -1.809567 -0.029785 0.000679 -0.000416 0.549164
30 3.624242 0.000001 -0.000002 0.000000 -0.000000 0.000000
31 3.624239 -0.000001 0.000005 0.000000 -0.000000 0.000000
32 0.0 0.0 0.0 0.0 0.0 0.0
33 9.026135 3.666781 0.258441 -1.380411 -0.035332 1.743175
34 -0.000005 0.004074 6.477368 1.130803 -0.890144 2.064295
35 13.400165 -0.000001 -0.000005 -0.628237 0.546525 -0.423010
36 37.630432 -0.000001 -0.000002 0.000000 -0.000000 -0.827003
37 27.473606 -0.000001 -0.000002 -0.462985 -0.417229 -0.203525
38 10.423900 -1.809568 0.029784 0.050097 0.164181 0.831752
39 3.624239 0.000004 0.000000 0.000000 0.457132 0.000000
40 3.624246 -0.000004 0.000002 0.000000 0.457132 0.000000
41 0.0 0.0 0.0 0.0 0.0 0.0
42 9.000600 3.769938 0.531383 1.761182 -0.035329 -1.398418
43 15.155049 10.590140 0.000008 3.140796 -1.570796 0.000000
44 0.000000 -0.606425 -3.234269 -0.271523 -0.000000 0.000000
45 0.000000 -3.638544 -20.011988 0.047313 -0.000000 0.000000
46 0.000000 -0.606425 -26.480515 0.000000 -0.000000 0.000000
47 16.351961 -9.422812 -0.000008 3.140796 -1.570796 0.000000
48 0.000000 0.000000 -2.627838 0.306776 -0.000000 0.000000
49 0.000000 5.457819 -16.979876 -0.218849 -0.000000 0.000000
50 0.000000 2.627838 -27.895494 0.000000 -0.000000 0.000000
51 0.941038 -24.052181 7.305087 1.570796 -0.000001 1.570797
52 1.084045 -35.715401 -19.657185 1.570796 -0.000001 1.570797
53 -3.099369 16.239304 -22.780767 1.570796 -0.000001 1.570797
54 -2.055292 17.039452 3.186696 1.570796 -0.000001 1.570797
55 1.875031 5.954243 134.703400 1.570796 -0.000002 -0.000001
56 0.0 0.0 0.0 0.0 0.0 0.0
57 0.0 0.0 0.0 0.0 0.0 0.0
58 0.0 0.0 0.0 0.0 0.0 0.0
59 0.0 0.0 0.0 0.0 0.0 0.0
time 7
0 0.000001 17.151804 143.654938 0.080378 0.118990 -1.358545
1 8.705030 -5.760890 -71.499336 -0.133169 0.053589 1.359762
2 0.000000 0.000000 0.000000 -1.570795 -1.570796 0.000000
3 -0.000014 0.000014 10.281536 -2.771273 -0.487432 2.281178
4 49.430489 0.000001 -0.000001 0.000000 -0.000000 -1.312083
5 49.430466 -0.000002 0.000002 0.065301 -0.045442 -0.254080
6 11.591197 14.908228 -0.000006 0.000000 -0.000000 1.573874
7 4.161468 -0.000004 0.000001 0.000000 -0.000000 0.000000
8 4.161452 0.000000 -0.000001 0.000000 -0.000000 0.000000
9 0.0 0.0 0.0 0.0 0.0 0.0
10 0.000014 -0.000014 -10.281537 2.907109 0.801308 2.358292
11 49.430470 -0.000000 0.000001 0.000000 -0.000000 -1.484390
12 49.430473 -0.000001 0.000002 -0.125971 -0.093651 -0.236287
13 11.591200 14.908228 -0.000003 0.000000 -0.000000 1.570796
14 4.161467 -0.000000 0.000010 0.000000 -0.000000 0.000000
15 4.161448 -0.000001 -0.000006 0.000000 -0.000000 0.000000
16 0.0 0.0 0.0 0.0 0.0 0.0
17 3.595527 -0.015330 0.002048 -0.130565 -0.102977 -0.183062
18 19.804314 -0.020449 0.001598 -0.079652 0.014980 0.155093
19 26.009630 -0.004092 0.000000 0.000000 -0.000000 0.039804
20 5.140768 -0.000000 0.000000 0.013695 -0.005805 -0.060228
21 0.0 0.0 0.0 0.0 0.0 0.0
22 6.884320 -6.884267 -0.000019 -0.000005 0.000002 -2.357663
23 15.455591 -0.011971 -0.000000 -0.000000 0.000001 -0.460005
24 0.0 0.0 0.0 0.0 0.0 0.0
25 -0.000005 0.004113 -6.477369 1.036405 1.524365 -2.152992
26 13.400166 0.000000 -0.000005 -0.089309 -1.350520 -0.017901
27 37.630436 0.000001 -0.000000 0.000000 0.000000 -1.644938
28 27.473602 0.000001 -0.000002 -2.988438 0.042178 0.085324
29 10.423896 -1.809569 -0.029782 0.000679 -0.000416 0.549164
30 3.624242 0.000000 -0.000000 0.000000 -0.000000 0.000000
31 3.624242 -0.000001 0.000003 0.000000 -0.000000 0.000000
32 0.0 0.0 0.0 0.0 0.0 0.0
33 9.026133 3.666782 0.258444 -1.380411 -0.035332 1.743175
34 0.000004 0.004075 6.477369 1.139480 -0.893434 2.053250
35 13.400168 -0.000000 -0.000001 -0.635674 0.523212 -0.437773
36 37.630440 0.000003 -0.000002 0.000000 -0.000000 -0.831388
37 27.473600 -0.000002 0.000000 -0.477003 -0.421864 -0.197890
38 10.423898 -1.809569 0.029783 0.050097 0.164181 0.831752
39 3.624239 0.000004 0.000000 0.000000 0.457132 0.000000
40 3.624244 -0.000000 -0.000001 0.000000 0.457132 0.000000
41 0.0 0.0 0.0 0.0 0.0 0.0
42 9.000593 3.769938 0.531384 1.761182 -0.035329 -1.398418
43 15.155046 10.590139 0.000009 3.140796 -1.570796 0.000000
44 0.000000 -0.606425 -3.234268 -0.444257 -0.000000 0.000000
45 0.000000 -3.638546 -20.011986 0.077888 -0.000000 0.000000
46 0.000000 -0.606421 -26.480509 0.000000 -0.000000 0.000000
47 16.351955 -9.422814 -0.000007 3.140796 -1.570796 0.000000
48 0.000000 0.000000 -2.627838 0.288663 -0.000000 0.000000
49 0.000000 5.457819 -16.979874 -0.301727 -0.000000 0.000000
50 0.000000 2.627837 -27.895493 0.000000 -0.000000 0.000000
51 0.941040 -24.129551 7.174394 1.570796 -0.000001 1.570797
52 1.084045 -38.002625 -18.832396 1.570796 -0.000001 1.570797
53 -3.099369 16.285915 -23.028082 1.570796 -0.000001 1.570797
54 -2.055292 16.990198 3.371811 1.570796 -0.000001 1.570797
55 1.875031 5.954243 134.703400 1.570796 -0.000002 -0.000001
56 0.0 0.0 0.0 0.0 0.0 0.0
57 0.0 0.0 0.0 0.0 0.0 0.0
58 0.0 0.0 0.0 0.0 0.0 0.0
59 0.0 0.0 0.0 0.0 0.0 0.0
time 8
0 0.000001 17.151804 143.349808 0.080342 0.115115 -1.358860
1 8.432428 -5.710975 -70.906990 -0.129362 0.054403 1.359967
2 0.000000 0.000000 0.000000 -1.570795 -1.570796 0.000000
3 -0.000014 0.000014 10.281537 -2.752308 -0.491045 2.271750
4 49.430481 0.000004 0.000001 0.000000 -0.000000 -1.352804
5 49.430470 0.000005 0.000000 0.073960 -0.060486 -0.220841
6 11.591198 14.908229 -0.000002 0.000001 0.000000 1.579511
7 4.161463 -0.000002 -0.000001 0.000000 -0.000000 0.000000
8 4.161457 0.000000 -0.000003 0.000000 -0.000000 0.000000
9 0.0 0.0 0.0 0.0 0.0 0.0
10 0.000014 -0.000015 -10.281536 2.907354 0.811690 2.369858
11 49.430473 0.000003 0.000002 0.000000 -0.000000 -1.495672
12 49.430470 -0.000004 0.000000 -0.135079 -0.085147 -0.212235
13 11.591198 14.908229 0.000000 0.000000 -0.000000 1.570796
14 4.161469 -0.000000 0.000004 0.000000 -0.000000 0.000000
15 4.161446 0.000000 -0.000005 0.000000 -0.000000 0.000000
16 0.0 0.0 0.0 0.0 0.0 0.0
17 3.596226 -0.015457 0.002138 -0.135806 -0.095097 -0.140428
18 19.803640 -0.020525 0.001765 -0.087909 0.005009 0.120586
19 26.009624 -0.004092 0.000000 0.000000 -0.000000 0.039804
20 5.140772 0.000000 0.000000 0.023169 0.000836 -0.067332
21 0.0 0.0 0.0 0.0 0.0 0.0
22 6.884315 -6.884267 -0.000019 -0.000005 0.000002 -2.357663
23 15.455587 -0.011971 -0.000000 -0.000000 0.000001 -0.460005
24 0.0 0.0 0.0 0.0 0.0 0.0
25 0.000000 0.004113 -6.477368 1.181798 1.527521 -2.007454
26 13.400167 0.000000 -0.000002 0.022540 -1.360233 -0.144829
27 37.630436 0.000001 -0.000001 0.000000 0.000000 -1.626409
28 27.473600 0.000000 -0.000001 -2.993253 0.039215 0.074608
29 10.423895 -1.809570 -0.029781 0.000679 -0.000416 0.549164
30 3.624239 0.000001 0.000000 0.000000 -0.000000 0.000000
31 3.624244 -0.000003 0.000001 0.000000 -0.000000 0.000000
32 0.0 0.0 0.0 0.0 0.0 0.0
33 9.026134 3.666781 0.258444 -1.380411 -0.035332 1.743175
34 0.000006 0.004074 6.477368 1.157620 -0.900013 2.030244
35 13.400166 -0.000000 0.000003 -0.624268 0.534924 -0.435170
36 37.630432 0.000001 0.000000 0.000000 -0.000000 -0.840464
37 27.473600 0.000001 -0.000002 -0.506161 -0.431244 -0.185960
38 10.423901 -1.809570 0.029784 0.050097 0.164181 0.831752
39 3.624239 0.000002 0.000000 0.000000 0.457132 0.000000
40 3.624241 -0.000002 -0.000002 0.000000 0.457132 0.000000
41 0.0 0.0 0.0 0.0 0.0 0.0
42 9.000601 3.769939 0.531383 1.761182 -0.035329 -1.398418
43 15.155049 10.590140 0.000009 3.140796 -1.570796 0.000000
44 0.000000 -0.606424 -3.234269 -0.485660 -0.000000 0.000000
45 0.000000 -3.638544 -20.011986 0.036509 -0.000000 0.000000
46 0.000000 -0.606423 -26.480513 0.000000 -0.000000 0.000000
47 16.351957 -9.422814 -0.000007 3.140796 -1.570796 0.000000
48 0.000000 0.000000 -2.627837 0.262537 -0.000000 0.000000
49 0.000000 5.457819 -16.979876 -0.304731 -0.000000 0.000000
50 0.000000 2.627837 -27.895496 0.000000 -0.000000 0.000000
51 0.941040 -24.330708 6.834593 1.570796 -0.000001 1.570797
52 1.084047 -39.495167 -18.294176 1.570796 -0.000001 1.570797
53 -3.099367 16.379440 -23.271925 1.570796 -0.000001 1.570797
54 -2.055292 16.862137 3.853111 1.570796 -0.000001 1.570797
55 1.875031 5.954243 134.703400 1.570796 -0.000002 -0.000001
56 0.0 0.0 0.0 0.0 0.0 0.0
57 0.0 0.0 0.0 0.0 0.0 0.0
58 0.0 0.0 0.0 0.0 0.0 0.0
59 0.0 0.0 0.0 0.0 0.0 0.0
time 9
0 0.000001 17.151804 144.378311 0.080224 0.101624 -1.359952
1 7.262383 -5.675276 -70.585938 -0.116106 0.057231 1.360707
2 0.000000 0.000000 0.000000 -1.570795 -1.570796 0.000000
3 -0.000014 0.000014 10.281537 -2.742675 -0.497141 2.279896
4 49.430477 0.000002 0.000001 0.000000 -0.000000 -1.379820
5 49.430470 0.000004 -0.000001 0.082746 -0.070528 -0.193460
6 11.591197 14.908232 -0.000001 0.000001 0.000000 1.586115
7 4.161461 -0.000001 0.000001 0.000000 -0.000000 0.000000
8 4.161458 0.000000 -0.000006 0.000000 -0.000000 0.000000
9 0.0 0.0 0.0 0.0 0.0 0.0
10 0.000014 -0.000015 -10.281536 2.925154 0.825841 2.404574
11 49.430485 0.000002 0.000003 0.000000 -0.000000 -1.492239
12 49.430466 -0.000005 -0.000004 -0.144810 -0.082975 -0.192260
13 11.591198 14.908232 0.000003 0.000000 -0.000000 1.570796
14 4.161464 0.000001 0.000001 0.000000 -0.000000 0.000000
15 4.161457 -0.000001 -0.000003 0.000000 -0.000000 0.000000
16 0.0 0.0 0.0 0.0 0.0 0.0
17 3.596550 -0.015489 0.002187 -0.139299 -0.088999 -0.115829
18 19.803177 -0.020549 0.001967 -0.097628 -0.006158 0.094402
19 26.009626 -0.004092 0.000000 0.000000 -0.000000 0.039804
20 5.140772 0.000000 0.000000 0.034512 0.006719 -0.062474
21 0.0 0.0 0.0 0.0 0.0 0.0
22 6.884316 -6.884266 -0.000019 -0.000005 0.000002 -2.357663
23 15.455585 -0.011971 -0.000000 -0.000000 0.000001 -0.460005
24 0.0 0.0 0.0 0.0 0.0 0.0
25 0.000006 0.004113 -6.477368 1.378268 1.529896 -1.810814
26 13.400167 0.000000 0.000001 0.101108 -1.368803 -0.241890
27 37.630436 -0.000000 -0.000002 0.000000 -0.000000 -1.579460
28 27.473600 0.000001 0.000000 -2.998931 0.035630 0.061902
29 10.423894 -1.809570 -0.029781 0.000679 -0.000416 0.549164
30 3.624240 0.000001 -0.000000 0.000000 -0.000000 0.000000
31 3.624243 -0.000003 -0.000000 0.000000 -0.000000 0.000000
32 0.0 0.0 0.0 0.0 0.0 0.0
33 9.026136 3.666781 0.258442 -1.380411 -0.035332 1.743175
34 0.000005 0.004074 6.477368 1.181185 -0.907980 2.000516
35 13.400165 0.000000 0.000006 -0.603592 0.563116 -0.425106
36 37.630424 -0.000001 0.000001 0.000000 -0.000000 -0.852035
37 27.473600 0.000004 -0.000003 -0.543649 -0.442754 -0.170245
38 10.423901 -1.809570 0.029783 0.050097 0.164181 0.831752
39 3.624240 -0.000000 -0.000000 0.000000 0.457132 0.000000
40 3.624239 -0.000003 -0.000001 0.000000 0.457132 0.000000
41 0.0 0.0 0.0 0.0 0.0 0.0
42 9.000606 3.769940 0.531383 1.761182 -0.035329 -1.398418
43 15.155050 10.590140 0.000009 3.140796 -1.570796 0.000000
44 0.000000 -0.606424 -3.234269 -0.471410 -0.000000 0.000000
45 0.000000 -3.638543 -20.011986 -0.004326 -0.000000 0.000000
46 0.000000 -0.606424 -26.480516 0.000000 -0.000000 0.000000
47 16.351957 -9.422813 -0.000007 3.140796 -1.570796 0.000000
48 0.000000 -0.000000 -2.627838 0.243079 -0.000000 0.000000
49 0.000000 5.457819 -16.979876 -0.299612 -0.000000 0.000000
50 0.000000 2.627838 -27.895498 0.000000 -0.000000 0.000000
51 0.941040 -24.655655 6.285686 1.570796 -0.000001 1.570797
52 1.084047 -39.620197 -18.249092 1.570796 -0.000001 1.570797
53 -3.099367 16.087801 -22.879351 1.570796 -0.000001 1.570797
54 -2.055294 16.655268 4.630594 1.570796 -0.000001 1.570797
55 1.875031 5.954243 134.703400 1.570796 -0.000002 -0.000001
56 0.0 0.0 0.0 0.0 0.0 0.0
57 0.0 0.0 0.0 0.0 0.0 0.0
58 0.0 0.0 0.0 0.0 0.0 0.0
59 0.0 0.0 0.0 0.0 0.0 0.0
time 10
0 0.000001 17.151802 145.013550 0.080096 0.084614 -1.361324
1 5.946783 -5.609827 -69.888710 -0.099385 0.060781 1.361693
2 0.000000 0.000000 0.000000 -1.570795 -1.570796 0.000000
3 -0.000015 0.000015 10.281537 -2.736133 -0.504546 2.294267
4 49.430489 -0.000002 -0.000002 0.000000 -0.000000 -1.402803
5 49.430458 -0.000006 0.000002 0.091976 -0.079237 -0.167156
6 11.591199 14.908235 -0.000005 0.000001 0.000000 1.592719
7 4.161469 -0.000004 0.000002 0.000000 -0.000000 0.000000
8 4.161452 0.000000 -0.000005 0.000000 -0.000000 0.000000
9 0.0 0.0 0.0 0.0 0.0 0.0
10 0.000015 -0.000014 -10.281537 2.950780 0.841603 2.449678
11 49.430485 -0.000005 0.000005 0.000000 -0.000000 -1.483480
12 49.430462 0.000000 -0.000005 -0.155419 -0.082333 -0.172586
13 11.591201 14.908235 0.000005 0.000000 -0.000000 1.570796
14 4.161452 0.000004 0.000005 0.000000 -0.000000 0.000000
15 4.161469 -0.000004 0.000005 0.000000 -0.000000 0.000000
16 0.0 0.0 0.0 0.0 0.0 0.0
17 3.596820 -0.015514 0.002230 -0.142145 -0.083558 -0.097834
18 19.802738 -0.020559 0.002170 -0.107731 -0.017902 0.071345
19 26.009632 -0.004091 0.000000 0.000000 -0.000000 0.039804
20 5.140769 -0.000000 0.000000 0.046651 0.012134 -0.052901
21 0.0 0.0 0.0 0.0 0.0 0.0
22 6.884326 -6.884265 -0.000019 -0.000005 0.000002 -2.357663
23 15.455590 -0.011971 -0.000000 -0.000000 0.000001 -0.460005
24 0.0 0.0 0.0 0.0 0.0 0.0
25 0.000005 0.004112 -6.477369 1.601933 1.530522 -1.586967
26 13.400166 0.000000 0.000000 0.172234 -1.376792 -0.332555
27 37.630428 0.000000 0.000000 0.000000 -0.000000 -1.522122
28 27.473604 0.000003 -0.000000 -3.004889 0.031758 0.048479
29 10.423896 -1.809570 -0.029783 0.000679 -0.000416 0.549164
30 3.624246 0.000001 0.000000 0.000000 -0.000000 0.000000
31 3.624239 0.000001 0.000000 0.000000 -0.000000 0.000000
32 0.0 0.0 0.0 0.0 0.0 0.0
33 9.026135 3.666782 0.258443 -1.380411 -0.035332 1.743175
34 0.000005 0.004074 6.477369 1.208492 -0.916438 1.966275
35 13.400169 0.000001 0.000005 -0.577516 0.599243 -0.411834
36 37.630432 -0.000001 -0.000002 0.000000 -0.000000 -0.865158
37 27.473598 0.000001 0.000000 -0.586593 -0.455174 -0.151748
38 10.423896 -1.809569 0.029781 0.050097 0.164181 0.831752
39 3.624242 0.000000 0.000000 0.000000 0.457132 0.000000
40 3.624239 0.000000 0.000002 0.000000 0.457132 0.000000
41 0.0 0.0 0.0 0.0 0.0 0.0
42 9.000596 3.769939 0.531384 1.761182 -0.035329 -1.398418
43 15.155047 10.590139 0.000009 3.140796 -1.570796 0.000000
44 0.000000 -0.606424 -3.234268 -0.437369 -0.000000 0.000000
45 0.000000 -3.638544 -20.011988 -0.004282 -0.000000 0.000000
46 0.000000 -0.606421 -26.480513 0.000000 -0.000000 0.000000
47 16.351954 -9.422812 -0.000008 3.140796 -1.570796 0.000000
48 0.000000 -0.000000 -2.627840 0.239186 -0.000000 0.000000
49 0.000000 5.457818 -16.979874 -0.325330 -0.000000 0.000000
50 0.000000 2.627837 -27.895494 0.000000 -0.000000 0.000000
51 0.941040 -25.104393 5.527671 1.570796 -0.000000 1.570797
52 1.084045 -38.176678 -18.769634 1.570796 -0.000000 1.570797
53 -3.099367 15.205927 -21.564150 1.570796 -0.000000 1.570797
54 -2.055290 16.369591 5.704262 1.570796 -0.000000 1.570797
55 1.875031 5.954246 134.703400 1.570796 -0.000002 -0.000001
56 0.0 0.0 0.0 0.0 0.0 0.0
57 0.0 0.0 0.0 0.0 0.0 0.0
58 0.0 0.0 0.0 0.0 0.0 0.0
59 0.0 0.0 0.0 0.0 0.0 0.0
end
