version 1
nodes
0 "Bip01" -1
1 "Bip01 Footsteps" 0
2 "Bip01 Pelvis" 0
3 "Bip01 L Thigh" 2
4 "Bip01 L Calf" 3
5 "Bip01 L Foot" 4
6 "Bip01 L Toe0" 5
7 "Bip01 L Toe01" 6
8 "Bip01 L Toe02" 7
9 "Null 9" -1
10 "Bip01 R Thigh" 2
11 "Bip01 R Calf" 10
12 "Bip01 R Foot" 11
13 "Bip01 R Toe0" 12
14 "Bip01 R Toe01" 13
15 "Bip01 R Toe02" 14
16 "Null 16" -1
17 "Bip01 Spine" 2
18 "Bip01 Spine1" 17
19 "Bip01 Neck" 18
20 "Bip01 Head" 19
21 "Null 21" -1
22 "Bip01 Ponytail1" 20
23 "Bip01 Ponytail11" 22
24 "Null 24" -1
25 "Bip01 R Clavicle" 19
26 "Bip01 R UpperArm" 25
27 "Bip01 R Forearm" 26
28 "Bip01 R Hand" 27
29 "Bip01 R Finger0" 28
30 "Bip01 R Finger01" 29
31 "Bip01 R Finger02" 30
32 "Null 32" -1
33 "knife_gdf" 28
34 "Bip01 L Clavicle" 19
35 "Bip01 L UpperArm" 34
36 "Bip01 L Forearm" 35
37 "Bip01 L Hand" 36
38 "Bip01 L Finger0" 37
39 "Bip01 L Finger01" 38
40 "Bip01 L Finger02" 39
41 "Null 41" -1
42 "hand_bofdgne01" 37
43 "Bone01" 17
44 "Bone02" 43
45 "Bone03" 44
46 "Bone04" 45
47 "Bone05" 17
48 "Bone06" 47
49 "Bone07" 48
50 "Bone08" 49
51 "Mesh01" 2
52 "Mesh02" 2
53 "Mesh04" 2
54 "gfh" 2
55 "Mesh03" 2
56 "Null 56" -1
57 "Null 57" -1
58 "Null 58" -1
59 "Null 59" -1
end
skeleton
time 0
0 -0.000000 37.000050 152.999985 -0.000000 -0.000000 -1.570795
1 0.000000 0.000000 -114.895935 0.000000 -0.000000 1.570795
2 0.000000 0.000000 0.000000 -1.570795 -1.570796 0.000000
3 -0.000014 0.000014 10.281536 -2.667134 -0.743904 2.319408
4 49.430473 -0.000003 0.000004 0.000000 0.000000 -1.964973
5 49.430466 0.000001 0.000000 0.766713 -0.390464 -0.039118
6 11.591198 14.908235 -0.000001 0.000000 -0.000000 1.570796
7 4.161460 -0.000003 0.000002 0.000000 -0.000000 0.000000
8 4.161457 0.000004 0.000002 0.000000 -0.000000 0.000000
9 0.0 0.0 0.0 0.0 0.0 0.0
10 0.000014 -0.000014 -10.281536 3.077697 0.917470 3.030716
11 49.430473 0.000002 -0.000006 0.000000 -0.000000 -1.681455
12 49.430458 0.000001 0.000000 -0.838952 -0.054084 0.078143
13 11.591200 14.908230 -0.000001 0.000000 -0.000000 1.570796
14 4.161464 0.000002 -0.000004 0.000000 -0.000000 0.000000
15 4.161458 -0.000005 0.000002 0.000000 -0.000000 0.000000
16 0.0 0.0 0.0 0.0 0.0 0.0
17 3.598543 -0.015707 0.001379 -0.087271 0.000068 0.000793
18 19.801472 -0.020632 0.001805 -0.087266 0.000069 -0.000003
19 26.009756 -0.004086 0.000000 0.000000 -0.000000 0.060000
20 5.140770 0.000000 0.000000 0.174533 -0.000000 -0.060798
21 0.0 0.0 0.0 0.0 0.0 0.0
22 6.884322 -6.884267 -0.000019 -0.000005 0.000002 -2.357663
23 15.455591 -0.011973 -0.000000 -0.000000 0.000001 -0.438599
24 0.0 0.0 0.0 0.0 0.0 0.0
25 0.000001 0.004110 -6.477368 -0.000007 1.170796 3.080790
26 13.400165 0.000000 -0.000001 0.345522 -0.899753 0.186773
27 37.630428 0.000002 0.000001 0.000000 -0.000000 -0.473819
28 27.473600 0.000001 0.000001 1.482655 -0.000000 0.000000
29 10.423897 -1.809568 -0.029783 0.000875 -0.000000 0.000000
30 3.624239 0.000002 -0.000001 0.000000 -0.000000 0.000000
31 3.624244 -0.000001 0.000001 0.000000 -0.000000 0.000000
32 0.0 0.0 0.0 0.0 0.0 0.0
33 9.026134 3.666781 0.258442 -1.374363 -0.037857 1.754420
34 0.000001 0.004077 6.477366 -0.000007 -1.170796 3.080803
35 13.400165 0.000000 0.000002 -0.497310 0.873637 0.099281
36 37.630432 0.000000 -0.000001 0.000000 -0.000000 -0.365905
37 27.473602 0.000002 -0.000002 -1.308122 -0.000000 0.000000
38 10.423896 -1.809568 0.029783 -0.000875 -0.000000 0.000000
39 3.624241 0.000002 0.000000 0.000000 -0.000000 0.000000
40 3.624242 -0.000001 0.000000 0.000000 -0.000000 0.000000
41 0.0 0.0 0.0 0.0 0.0 0.0
42 9.000598 3.769938 0.531383 1.767230 -0.037854 -1.387172
43 15.155050 10.590139 0.000025 3.140796 -1.570796 0.000000
44 0.000000 -0.606425 -3.234268 -0.348040 -0.000000 0.000000
45 0.000001 -3.638546 -20.011990 -0.803181 -0.000000 0.000000
46 0.000000 -0.606427 -26.480524 0.000000 -0.000000 0.000000
47 16.351957 -9.422812 -0.000022 3.140796 -1.570796 0.000000
48 0.000000 0.000000 -2.627838 0.356203 -0.000000 0.000000
49 0.000000 5.457822 -16.979877 0.499949 -0.000000 0.000000
50 0.000001 2.627847 -27.895504 0.000000 -0.000000 0.000000
51 0.000002 -22.191360 6.061203 1.570797 -0.000000 1.570797
52 -0.000002 -38.723534 -9.185547 1.570797 -0.000000 1.570797
53 -0.000006 40.634327 -10.988869 1.570797 -0.000000 1.570797
54 -0.000002 21.259987 3.934631 1.570797 -0.000000 1.570797
55 1.875031 5.954246 134.703400 1.570796 0.000000 -0.000001
56 0.0 0.0 0.0 0.0 0.0 0.0
57 0.0 0.0 0.0 0.0 0.0 0.0
58 0.0 0.0 0.0 0.0 0.0 0.0
59 0.0 0.0 0.0 0.0 0.0 0.0
time 1
0 0.855514 42.191200 150.966919 -0.000000 -0.000000 -1.570795
1 0.000000 0.000000 -44.940285 0.000000 -0.000000 1.570795
2 0.000000 0.000000 0.000000 -1.570795 -1.570796 0.000000
3 -0.000014 0.000015 10.281536 -2.536307 -0.657813 2.123890
4 49.430473 -0.000002 0.000002 0.000000 0.000000 -2.060703
5 49.430458 -0.000002 0.000004 0.772087 -0.392659 -0.117656
6 11.591199 14.908235 -0.000001 0.000000 -0.000000 1.570796
7 4.161459 -0.000003 -0.000002 0.000000 -0.000000 0.000000
8 4.161459 0.000003 -0.000001 0.000000 -0.000000 0.000000
9 0.0 0.0 0.0 0.0 0.0 0.0
10 0.000015 -0.000014 -10.281537 2.862065 0.938236 2.761744
11 49.430477 0.000002 -0.000008 0.000000 -0.000000 -1.646936
12 49.430462 -0.000001 0.000001 -0.886486 -0.059379 -0.108777
13 11.591202 14.908227 0.000001 0.000000 -0.000000 1.570796
14 4.161464 0.000002 -0.000002 0.000000 -0.000000 0.000000
15 4.161458 -0.000001 0.000003 0.000000 -0.000000 0.000000
16 0.0 0.0 0.0 0.0 0.0 0.0
17 3.602627 -0.015171 0.001332 -0.084294 0.022626 0.261642
18 19.808556 -0.019391 0.001696 -0.082004 0.029878 0.347840
19 26.009754 -0.004086 0.000000 0.000000 -0.000000 0.060000
20 5.140769 -0.000000 0.000000 0.153850 -0.079509 -0.067918
21 0.0 0.0 0.0 0.0 0.0 0.0
22 6.884320 -6.884267 -0.000019 -0.000005 0.000002 -2.357663
23 15.455590 -0.011970 -0.000000 -0.000000 0.000001 -0.438599
24 0.0 0.0 0.0 0.0 0.0 0.0
25 0.000004 0.004109 -6.477368 -0.000020 1.432595 3.080776
26 13.400167 -0.000001 0.000002 1.189608 -0.211898 -1.168540
27 37.630424 0.000002 0.000000 0.000000 -0.000000 -0.976771
28 27.473598 0.000000 0.000001 1.482655 -0.000000 0.000000
29 10.423894 -1.809567 -0.029783 0.000875 -0.000000 0.000000
30 3.624243 0.000001 0.000000 0.000000 -0.000000 0.000000
31 3.624234 -0.000001 0.000000 0.000000 -0.000000 0.000000
32 0.0 0.0 0.0 0.0 0.0 0.0
33 9.026133 3.666782 0.258444 -1.374363 -0.037857 1.754420
34 0.000002 0.004076 6.477368 -0.000020 -1.432596 3.080817
35 13.400169 0.000000 -0.000001 -1.352579 0.257102 -0.901840
36 37.630428 0.000003 0.000002 0.000000 -0.000000 -0.976771
37 27.473595 -0.000001 -0.000001 -1.482655 -0.000000 0.000000
38 10.423897 -1.809569 0.029784 -0.000875 -0.000000 0.000000
39 3.624246 0.000000 0.000000 0.000000 -0.000000 0.000000
40 3.624241 -0.000001 0.000000 0.000000 -0.000000 0.000000
41 0.0 0.0 0.0 0.0 0.0 0.0
42 9.000602 3.769938 0.531383 1.767230 -0.037854 -1.387172
43 15.155049 10.590139 0.000024 3.140796 -1.570796 0.000000
44 0.000000 -0.606425 -3.234268 -0.926089 -0.000000 0.000000
45 0.000000 -3.638550 -20.011990 -0.554187 -0.000000 0.000000
46 0.000000 -0.606425 -26.480526 0.000000 -0.000000 0.000000
47 16.351957 -9.422812 -0.000022 3.140796 -1.570796 0.000000
48 0.000000 0.000001 -2.627837 0.034990 -0.000000 0.000000
49 0.000001 5.457821 -16.979874 0.561662 -0.000000 0.000000
50 0.000001 2.627848 -27.895498 0.000000 -0.000000 0.000000
51 0.000002 -22.191360 6.061203 1.570797 -0.000000 1.570797
52 -0.000002 -38.723534 -9.185547 1.570797 -0.000000 1.570797
53 -0.000006 40.634327 -10.988869 1.570797 -0.000000 1.570797
54 -0.000002 21.259987 3.934631 1.570797 -0.000000 1.570797
55 1.875031 5.954246 134.703400 1.570796 0.000000 -0.000001
56 0.0 0.0 0.0 0.0 0.0 0.0
57 0.0 0.0 0.0 0.0 0.0 0.0
58 0.0 0.0 0.0 0.0 0.0 0.0
59 0.0 0.0 0.0 0.0 0.0 0.0
time 2
0 1.711028 47.382359 148.933853 -0.000000 -0.000000 -1.570795
1 0.000000 0.000000 -42.986496 0.000000 -0.000000 1.570795
2 0.000000 0.000000 0.000000 -1.570795 -1.570796 0.000000
3 -0.000014 0.000014 10.281536 -2.440454 -0.562790 1.966335
4 49.430477 0.000001 0.000003 0.000000 0.000000 -2.133761
5 49.430466 -0.000002 -0.000001 0.778407 -0.394733 -0.207169
6 11.591198 14.908235 0.000001 0.000000 -0.000000 1.570796
7 4.161458 0.000000 0.000000 0.000000 -0.000000 0.000000
8 4.161462 0.000000 0.000000 0.000000 -0.000000 0.000000
9 0.0 0.0 0.0 0.0 0.0 0.0
10 0.000015 -0.000014 -10.281536 2.738361 0.923088 2.603975
11 49.430473 0.000001 -0.000003 0.000000 -0.000000 -1.612416
12 49.430462 -0.000002 -0.000002 -0.902674 -0.066187 -0.236081
13 11.591202 14.908230 -0.000001 0.000000 -0.000000 1.570796
14 4.161462 0.000001 -0.000004 0.000000 -0.000000 0.000000
15 4.161460 0.000001 0.000002 0.000000 -0.000000 0.000000
16 0.0 0.0 0.0 0.0 0.0 0.0
17 3.604682 -0.014465 0.001271 -0.080387 0.034007 0.399400
18 19.810766 -0.018440 0.001613 -0.077993 0.039186 0.463892
19 26.009754 -0.004088 0.000000 0.000000 -0.000000 0.060000
20 5.140768 0.000001 0.000000 0.124649 -0.117435 0.024916
21 0.0 0.0 0.0 0.0 0.0 0.0
22 6.884316 -6.884266 -0.000019 -0.000005 0.000002 -2.357663
23 15.455586 -0.011964 -0.000000 -0.000000 0.000001 -0.438599
24 0.0 0.0 0.0 0.0 0.0 0.0
25 -0.000000 0.004112 -6.477368 -0.000024 1.454412 3.080773
26 13.400167 -0.000001 0.000000 0.885855 0.468087 -1.599599
27 37.630428 0.000001 0.000002 0.000000 -0.000000 -1.236849
28 27.473600 0.000001 -0.000000 1.482885 -0.006333 -0.072446
29 10.423893 -1.809567 -0.029779 0.000875 -0.000000 0.000000
30 3.624240 -0.000001 0.000003 0.000000 -0.000000 0.000000
31 3.624243 0.000000 -0.000001 0.000000 -0.000000 0.000000
32 0.0 0.0 0.0 0.0 0.0 0.0
33 9.026134 3.666781 0.258445 -1.374363 -0.037857 1.754420
34 0.000003 0.004076 6.477368 -0.000024 -1.454413 3.080820
35 13.400167 -0.000001 -0.000002 -1.149314 -0.459017 -1.201952
36 37.630424 0.000001 -0.000002 0.000000 0.000000 -1.602180
37 27.473600 -0.000003 -0.000001 -1.500806 -0.022305 0.282788
38 10.423898 -1.809569 0.029784 -0.000875 -0.000000 0.000000
39 3.624248 -0.000001 0.000003 0.000000 -0.000000 0.000000
40 3.624244 -0.000001 -0.000004 0.000000 -0.000000 0.000000
41 0.0 0.0 0.0 0.0 0.0 0.0
42 9.000600 3.769938 0.531385 1.767230 -0.037854 -1.387172
43 15.155049 10.590141 0.000025 3.140796 -1.570796 0.000000
44 0.000000 -0.606424 -3.234268 -1.890446 -0.000000 0.000000
45 0.000000 -3.638536 -20.011995 0.798727 -0.000000 0.000000
46 0.000001 -0.606437 -26.480526 0.000000 -0.000000 0.000000
47 16.351957 -9.422812 -0.000022 3.140796 -1.570796 0.000000
48 0.000000 0.000001 -2.627838 -0.350155 -0.000000 0.000000
49 0.000001 5.457814 -16.979872 0.948467 -0.000000 0.000000
50 0.000001 2.627855 -27.895496 0.000000 -0.000000 0.000000
51 0.000002 -22.191360 6.061203 1.570797 -0.000000 1.570797
52 -0.000002 -38.723534 -9.185547 1.570797 -0.000000 1.570797
53 -0.000006 40.634327 -10.988869 1.570797 -0.000000 1.570797
54 -0.000002 21.259987 3.934631 1.570797 -0.000000 1.570797
55 1.875031 5.954246 134.703400 1.570796 0.000000 -0.000001
56 0.0 0.0 0.0 0.0 0.0 0.0
57 0.0 0.0 0.0 0.0 0.0 0.0
58 0.0 0.0 0.0 0.0 0.0 0.0
59 0.0 0.0 0.0 0.0 0.0 0.0
time 3
0 1.307024 48.092369 148.062302 -0.000000 -0.000000 -1.570795
1 0.000000 0.000000 -45.259262 0.000000 -0.000000 1.570795
2 0.000000 0.000000 0.000000 -1.570795 -1.570796 0.000000
3 -0.000014 0.000014 10.281536 -2.425295 -0.571587 1.977468
4 49.430473 0.000003 0.000003 0.000000 0.000000 -2.145187
5 49.430462 0.000000 -0.000002 0.794792 -0.409563 -0.189302
6 11.591198 14.908234 0.000001 0.000000 -0.000000 1.570796
7 4.161459 0.000000 0.000000 0.000000 -0.000000 0.000000
8 4.161459 0.000001 0.000001 0.000000 -0.000000 0.000000
9 0.0 0.0 0.0 0.0 0.0 0.0
10 0.000015 -0.000014 -10.281537 2.913203 0.874047 2.806402
11 49.430473 0.000001 -0.000006 0.000000 -0.000000 -1.578193
12 49.430458 -0.000002 0.000001 -0.815568 -0.062594 -0.171298
13 11.591199 14.908232 -0.000001 0.000000 -0.000000 1.570796
14 4.161460 0.000001 0.000000 0.000000 -0.000000 0.000000
15 4.161461 0.000001 -0.000002 0.000000 -0.000000 0.000000
16 0.0 0.0 0.0 0.0 0.0 0.0
17 3.603936 -0.014758 0.001296 -0.082009 0.029878 0.348636
18 19.810225 -0.018703 0.001636 -0.079097 0.036904 0.434872
19 26.009752 -0.004087 0.000000 0.000000 -0.000000 0.060000
20 5.140769 -0.000002 0.000000 0.122213 -0.121154 0.105007
21 0.0 0.0 0.0 0.0 0.0 0.0
22 6.884318 -6.884264 -0.000019 -0.000005 0.000002 -2.357663
23 15.455588 -0.011967 -0.000000 -0.000000 0.000001 -0.438599
24 0.0 0.0 0.0 0.0 0.0 0.0
25 0.000005 0.004107 -6.477369 -0.000020 1.432595 3.080776
26 13.400165 0.000000 -0.000001 0.582807 0.439995 -1.808202
27 37.630424 0.000001 0.000002 0.000000 -0.000000 -1.238570
28 27.473597 -0.000002 -0.000000 1.482985 -0.007596 -0.086936
29 10.423899 -1.809571 -0.029783 0.000875 -0.000000 0.000000
30 3.624240 0.000004 0.000002 0.000000 -0.000000 0.000000
31 3.624244 -0.000001 0.000000 0.000000 -0.000000 0.000000
32 0.0 0.0 0.0 0.0 0.0 0.0
33 9.026136 3.666778 0.258445 -1.374363 -0.037857 1.754420
34 0.000003 0.004075 6.477368 -0.000020 -1.432596 3.080817
35 13.400167 -0.000001 0.000002 -0.800497 -0.488374 -1.430696
36 37.630424 0.000002 0.000000 0.000000 0.000000 -1.849435
37 27.473598 0.000002 0.000000 -1.494299 -0.043592 0.521949
38 10.423896 -1.809570 0.029785 -0.000875 -0.000000 0.000000
39 3.624244 0.000000 -0.000002 0.000000 -0.000000 0.000000
40 3.624244 0.000001 0.000001 0.000000 -0.000000 0.000000
41 0.0 0.0 0.0 0.0 0.0 0.0
42 9.000597 3.769937 0.531383 1.767230 -0.037854 -1.387172
43 15.155049 10.590139 0.000024 3.140796 -1.570796 0.000000
44 0.000000 -0.606425 -3.234269 -1.879749 -0.000000 0.000000
45 0.000000 -3.638536 -20.011993 0.859891 -0.000000 0.000000
46 0.000001 -0.606430 -26.480526 0.000000 -0.000000 0.000000
47 16.351957 -9.422812 -0.000022 3.140796 -1.570796 0.000000
48 0.000000 -0.000001 -2.627838 -0.482107 -0.000000 0.000000
49 0.000001 5.457814 -16.979874 1.251070 -0.000000 0.000000
50 0.000001 2.627845 -27.895498 0.000000 -0.000000 0.000000
51 0.000002 -22.191360 6.061203 1.570797 -0.000000 1.570797
52 -0.000002 -38.723534 -9.185547 1.570797 -0.000000 1.570797
53 -0.000006 40.634327 -10.988869 1.570797 -0.000000 1.570797
54 -0.000002 21.259987 3.934631 1.570797 -0.000000 1.570797
55 1.875031 5.954246 134.703400 1.570796 0.000000 -0.000001
56 0.0 0.0 0.0 0.0 0.0 0.0
57 0.0 0.0 0.0 0.0 0.0 0.0
58 0.0 0.0 0.0 0.0 0.0 0.0
59 0.0 0.0 0.0 0.0 0.0 0.0
time 4
0 -5.814412 24.902948 153.385513 -0.000000 -0.000000 -1.570795
1 0.000000 0.000000 -54.380722 0.000000 -0.000000 1.570795
2 0.000000 0.000000 0.000000 -1.570795 -1.570796 0.000000
3 -0.000015 0.000014 10.281536 -2.838222 -0.883822 2.644365
4 49.430477 0.000001 0.000003 0.000000 -0.000000 -1.720595
5 49.430458 0.000000 -0.000003 0.834358 -0.439747 -0.051982
6 11.591198 14.908234 0.000001 0.000000 -0.000000 1.570796
7 4.161459 -0.000001 0.000000 0.000000 -0.000000 0.000000
8 4.161456 0.000002 0.000000 0.000000 -0.000000 0.000000
9 0.0 0.0 0.0 0.0 0.0 0.0
10 0.000014 -0.000014 -10.281537 3.095553 0.802089 3.028729
11 49.430477 0.000001 -0.000007 0.000000 -0.000000 -1.543378
12 49.430458 0.000001 -0.000006 -0.722916 -0.068834 -0.074713
13 11.591201 14.908229 0.000000 0.000000 -0.000000 1.570796
14 4.161461 0.000000 0.000000 0.000000 -0.000000 0.000000
15 4.161459 0.000000 -0.000002 0.000000 -0.000000 0.000000
16 0.0 0.0 0.0 0.0 0.0 0.0
17 3.590659 -0.013606 0.001195 -0.075661 -0.043533 -0.521155
18 19.799664 -0.020553 0.001798 -0.086942 -0.007527 -0.086939
19 26.009754 -0.004085 0.000000 0.000000 -0.000000 0.060000
20 5.140769 0.000001 0.000000 0.129742 0.107931 -0.400936
21 0.0 0.0 0.0 0.0 0.0 0.0
22 6.884317 -6.884271 -0.000019 -0.000005 0.000002 -2.357663
23 15.455586 -0.011969 -0.000000 -0.000000 0.000001 -0.438599
24 0.0 0.0 0.0 0.0 0.0 0.0
25 0.000002 0.004111 -6.477368 -0.000020 1.432595 3.080776
26 13.400166 0.000001 0.000001 -0.801311 -0.452703 0.772663
27 37.630432 0.000000 0.000002 0.000000 -0.000000 -0.191373
28 27.473602 -0.000000 0.000003 1.485614 0.022559 0.260848
29 10.423894 -1.809567 -0.029782 0.000875 -0.000000 0.000000
30 3.624242 -0.000002 0.000000 0.000000 -0.000000 0.000000
31 3.624243 -0.000003 0.000000 0.000000 -0.000000 0.000000
32 0.0 0.0 0.0 0.0 0.0 0.0
33 9.026134 3.666782 0.258442 -1.374363 -0.037857 1.754420
34 -0.000000 0.004076 6.477368 -0.000020 -1.432596 3.080816
35 13.400166 -0.000001 0.000004 0.688060 0.457892 1.070210
36 37.630432 0.000000 0.000001 0.000000 -0.000000 -0.191373
37 27.473610 -0.000001 -0.000003 -1.485614 -0.022559 0.260848
38 10.423896 -1.809571 0.029781 -0.000875 -0.000000 0.000000
39 3.624243 0.000001 0.000001 0.000000 -0.000000 0.000000
40 3.624240 0.000001 0.000000 0.000000 -0.000000 0.000000
41 0.0 0.0 0.0 0.0 0.0 0.0
42 9.000598 3.769938 0.531383 1.767230 -0.037854 -1.387172
43 15.155050 10.590139 0.000024 3.140796 -1.570796 0.000000
44 0.000000 -0.606425 -3.234267 -0.182837 -0.000000 0.000000
45 0.000001 -3.638546 -20.011986 0.405554 -0.000000 0.000000
46 0.000001 -0.606419 -26.480515 0.000000 -0.000000 0.000000
47 16.351957 -9.422812 -0.000022 3.140796 -1.570796 0.000000
48 0.000000 -0.000000 -2.627839 1.277112 -0.000000 0.000000
49 0.000000 5.457819 -16.979879 0.222812 -0.000000 0.000000
50 0.000000 2.627835 -27.895500 0.000000 -0.000000 0.000000
51 0.000002 -22.191360 6.061203 1.570797 -0.000000 1.570797
52 -0.000002 -38.723534 -9.185547 1.570797 -0.000000 1.570797
53 -0.000006 40.634327 -10.988869 1.570797 -0.000000 1.570797
54 -0.000002 21.259987 3.934631 1.570797 -0.000000 1.570797
55 1.875031 5.954246 134.703400 1.570796 0.000000 -0.000001
56 0.0 0.0 0.0 0.0 0.0 0.0
57 0.0 0.0 0.0 0.0 0.0 0.0
58 0.0 0.0 0.0 0.0 0.0 0.0
59 0.0 0.0 0.0 0.0 0.0 0.0
time 5
0 -5.814412 23.419722 154.820282 -0.000000 -0.000000 -1.570795
1 0.000000 0.000000 -52.042755 0.000000 -0.000000 1.570795
2 0.000000 0.000000 0.000000 -1.570795 -1.570796 0.000000
3 -0.000015 0.000014 10.281536 -2.912107 -0.879429 2.720433
4 49.430477 -0.000000 0.000003 0.000000 -0.000000 -1.664089
5 49.430466 -0.000002 0.000001 0.813041 -0.427761 -0.054024
6 11.591199 14.908234 -0.000001 0.000000 -0.000000 1.570796
7 4.161458 -0.000001 -0.000002 0.000000 -0.000000 0.000000
8 4.161462 -0.000001 -0.000001 0.000000 -0.000000 0.000000
9 0.0 0.0 0.0 0.0 0.0 0.0
10 0.000014 -0.000014 -10.281537 -3.131565 0.780981 3.101875
11 49.430477 0.000002 -0.000002 0.000000 -0.000000 -1.466047
12 49.430462 0.000003 -0.000005 -0.700760 -0.072350 -0.102594
13 11.591200 14.908230 -0.000003 0.000000 -0.000000 1.570796
14 4.161462 0.000002 0.000002 0.000000 -0.000000 0.000000
15 4.161460 0.000002 0.000000 0.000000 -0.000000 0.000000
16 0.0 0.0 0.0 0.0 0.0 0.0
17 3.591879 -0.014237 0.001250 -0.079159 -0.036781 -0.434079
18 19.803272 -0.020553 0.001798 -0.086930 0.007665 0.086933
19 26.009758 -0.004083 0.000000 0.000000 -0.000000 0.060000
20 5.140766 -0.000000 0.000000 0.126269 0.114707 -0.662789
21 0.0 0.0 0.0 0.0 0.0 0.0
22 6.884315 -6.884268 -0.000019 -0.000005 0.000002 -2.357663
23 15.455589 -0.011969 -0.000000 -0.000000 0.000001 -0.438599
24 0.0 0.0 0.0 0.0 0.0 0.0
25 -0.000004 0.004109 -6.477368 -0.000020 1.432595 3.080776
26 13.400166 0.000000 -0.000002 -0.598336 -0.670535 0.657389
27 37.630428 0.000000 0.000000 0.000000 -0.000000 -0.278639
28 27.473598 0.000001 0.000004 1.485614 0.022560 0.260848
29 10.423897 -1.809566 -0.029781 0.000875 -0.000000 0.000000
30 3.624242 0.000000 -0.000002 0.000000 -0.000000 0.000000
31 3.624243 -0.000001 -0.000001 0.000000 -0.000000 0.000000
32 0.0 0.0 0.0 0.0 0.0 0.0
33 9.026138 3.666780 0.258443 -1.374363 -0.037857 1.754420
34 -0.000001 0.004076 6.477368 -0.000020 -1.432596 3.080816
35 13.400167 0.000000 0.000002 0.514400 0.668494 0.938001
36 37.630432 -0.000002 -0.000004 0.000000 -0.000000 -0.278639
37 27.473598 -0.000000 -0.000003 -1.485614 -0.022559 0.260848
38 10.423894 -1.809567 0.029784 -0.000875 -0.000000 0.000000
39 3.624241 0.000004 0.000000 0.000000 -0.000000 0.000000
40 3.624243 0.000000 -0.000001 0.000000 -0.000000 0.000000
41 0.0 0.0 0.0 0.0 0.0 0.0
42 9.000596 3.769938 0.531383 1.767230 -0.037854 -1.387172
43 15.155049 10.590141 0.000024 3.140796 -1.570796 0.000000
44 0.000000 -0.606424 -3.234270 0.528937 -0.000000 0.000000
45 0.000001 -3.638535 -20.011988 -1.048465 -0.000000 0.000000
46 0.000001 -0.606433 -26.480516 0.000000 -0.000000 0.000000
47 16.351955 -9.422812 -0.000022 3.140796 -1.570796 0.000000
48 0.000000 0.000000 -2.627838 1.240624 -0.000000 0.000000
49 0.000000 5.457819 -16.979881 0.058728 -0.000000 0.000000
50 0.000000 2.627839 -27.895506 0.000000 -0.000000 0.000000
51 0.000002 -22.191360 6.061203 1.570797 -0.000000 1.570797
52 -0.000002 -38.723534 -9.185547 1.570797 -0.000000 1.570797
53 -0.000006 40.634327 -10.988869 1.570797 -0.000000 1.570797
54 -0.000002 21.259987 3.934631 1.570797 -0.000000 1.570797
55 1.875031 5.954246 134.703400 1.570796 0.000000 -0.000001
56 0.0 0.0 0.0 0.0 0.0 0.0
57 0.0 0.0 0.0 0.0 0.0 0.0
58 0.0 0.0 0.0 0.0 0.0 0.0
59 0.0 0.0 0.0 0.0 0.0 0.0
time 6
0 -5.814412 24.902948 153.029617 -0.000000 -0.000000 -1.570795
1 0.000000 0.000000 -50.846077 0.000000 -0.000000 1.570795
2 0.000000 0.000000 0.000000 -1.570795 -1.570796 0.000000
3 -0.000015 0.000014 10.281536 -2.863688 -0.877553 2.666853
4 49.430477 0.000001 0.000008 0.000000 -0.000000 -1.701083
5 49.430466 -0.000000 -0.000003 0.821690 -0.433715 -0.054216
6 11.591198 14.908234 -0.000001 0.000000 -0.000000 1.570796
7 4.161458 -0.000002 0.000002 0.000000 -0.000000 0.000000
8 4.161462 -0.000001 -0.000001 0.000000 -0.000000 0.000000
9 0.0 0.0 0.0 0.0 0.0 0.0
10 0.000014 -0.000014 -10.281537 3.128349 0.789519 3.079354
11 49.430473 -0.000000 -0.000001 0.000000 -0.000000 -1.498647
12 49.430462 0.000002 -0.000004 -0.709385 -0.065048 -0.085315
13 11.591198 14.908228 -0.000002 0.000000 -0.000000 1.570796
14 4.161461 0.000000 -0.000002 0.000000 -0.000000 0.000000
15 4.161462 0.000000 -0.000004 0.000000 -0.000000 0.000000
16 0.0 0.0 0.0 0.0 0.0 0.0
17 3.590659 -0.013606 0.001195 -0.075661 -0.043533 -0.521155
18 19.799664 -0.020552 0.001798 -0.086942 -0.007527 -0.086939
19 26.009754 -0.004085 0.000000 0.000000 -0.000000 0.060000
20 5.140770 0.000001 0.000000 0.129742 0.107931 -0.400936
21 0.0 0.0 0.0 0.0 0.0 0.0
22 6.884319 -6.884271 -0.000019 -0.000005 0.000002 -2.357663
23 15.455585 -0.011969 -0.000000 -0.000000 0.000001 -0.438599
24 0.0 0.0 0.0 0.0 0.0 0.0
25 0.000002 0.004111 -6.477368 -0.000020 1.432595 3.080776
26 13.400166 0.000001 -0.000001 -0.815944 -0.480436 0.805189
27 37.630428 -0.000001 0.000000 0.000000 -0.000000 -0.191373
28 27.473606 -0.000002 0.000003 1.485614 0.022559 0.260848
29 10.423894 -1.809570 -0.029782 0.000875 -0.000000 0.000000
30 3.624243 0.000003 -0.000002 0.000000 -0.000000 0.000000
31 3.624238 0.000001 0.000001 0.000000 -0.000000 0.000000
32 0.0 0.0 0.0 0.0 0.0 0.0
33 9.026134 3.666780 0.258443 -1.374363 -0.037857 1.754420
34 0.000001 0.004076 6.477366 -0.000020 -1.432596 3.080816
35 13.400166 -0.000001 0.000002 0.681260 0.440615 1.054552
36 37.630424 -0.000001 -0.000004 0.000000 -0.000000 -0.191373
37 27.473602 -0.000000 -0.000003 -1.485614 -0.022559 0.260848
38 10.423894 -1.809567 0.029782 -0.000875 -0.000000 0.000000
39 3.624242 0.000000 0.000004 0.000000 -0.000000 0.000000
40 3.624245 0.000000 -0.000001 0.000000 -0.000000 0.000000
41 0.0 0.0 0.0 0.0 0.0 0.0
42 9.000596 3.769938 0.531382 1.767230 -0.037854 -1.387172
43 15.155050 10.590139 0.000025 3.140796 -1.570796 0.000000
44 0.000000 -0.606425 -3.234267 0.585791 -0.000000 0.000000
45 0.000001 -3.638537 -20.011988 -1.204967 -0.000000 0.000000
46 0.000001 -0.606433 -26.480520 0.000000 -0.000000 0.000000
47 16.351957 -9.422812 -0.000022 3.140796 -1.570796 0.000000
48 0.000000 0.000000 -2.627838 1.444749 -0.000000 0.000000
49 -0.000001 5.457819 -16.979881 -0.084269 -0.000000 0.000000
50 0.000000 2.627841 -27.895502 0.000000 -0.000000 0.000000
51 0.000002 -22.191360 6.061203 1.570797 -0.000000 1.570797
52 -0.000002 -38.723534 -9.185547 1.570797 -0.000000 1.570797
53 -0.000006 40.634327 -10.988869 1.570797 -0.000000 1.570797
54 -0.000002 21.259987 3.934631 1.570797 -0.000000 1.570797
55 1.875031 5.954246 134.703400 1.570796 0.000000 -0.000001
56 0.0 0.0 0.0 0.0 0.0 0.0
57 0.0 0.0 0.0 0.0 0.0 0.0
58 0.0 0.0 0.0 0.0 0.0 0.0
59 0.0 0.0 0.0 0.0 0.0 0.0
time 7
0 -5.814412 23.419724 154.439819 -0.000000 -0.000000 -1.570795
1 0.000000 0.000000 -52.850239 0.000000 -0.000000 1.570795
2 0.000000 0.000000 0.000000 -1.570795 -1.570796 0.000000
3 -0.000015 0.000014 10.281536 -2.921871 -0.874197 2.723969
4 49.430477 0.000001 0.000005 0.000000 -0.000000 -1.652902
5 49.430462 -0.000001 0.000002 0.805835 -0.421603 -0.061203
6 11.591198 14.908236 0.000000 0.000000 -0.000000 1.570796
7 4.161460 0.000000 -0.000001 0.000000 -0.000000 0.000000
8 4.161456 0.000003 0.000000 0.000000 -0.000000 0.000000
9 0.0 0.0 0.0 0.0 0.0 0.0
10 0.000014 -0.000014 -10.281537 -3.101729 0.779168 3.137744
11 49.430473 0.000002 -0.000003 0.000000 -0.000000 -1.433891
12 49.430462 0.000003 -0.000005 -0.699650 -0.076974 -0.109298
13 11.591200 14.908227 0.000000 0.000000 -0.000000 1.570796
14 4.161463 -0.000001 -0.000003 0.000000 -0.000000 0.000000
15 4.161461 -0.000001 0.000002 0.000000 -0.000000 0.000000
16 0.0 0.0 0.0 0.0 0.0 0.0
17 3.591879 -0.014237 0.001250 -0.079159 -0.036781 -0.434079
18 19.803272 -0.020553 0.001798 -0.086930 0.007665 0.086933
19 26.009758 -0.004083 0.000000 0.000000 -0.000000 0.060000
20 5.140766 -0.000001 0.000000 0.126269 0.114707 -0.662789
21 0.0 0.0 0.0 0.0 0.0 0.0
22 6.884318 -6.884268 -0.000019 -0.000005 0.000002 -2.357663
23 15.455589 -0.011969 -0.000000 -0.000000 0.000001 -0.438599
24 0.0 0.0 0.0 0.0 0.0 0.0
25 -0.000003 0.004108 -6.477369 -0.000020 1.432595 3.080776
26 13.400166 0.000000 0.000000 -0.592199 -0.658972 0.647441
27 37.630428 -0.000001 0.000002 0.000000 -0.000000 -0.191373
28 27.473604 -0.000001 0.000001 1.485614 0.022559 0.260848
29 10.423896 -1.809571 -0.029782 0.000875 -0.000000 0.000000
30 3.624242 -0.000001 0.000001 0.000000 -0.000000 0.000000
31 3.624243 -0.000001 -0.000002 0.000000 -0.000000 0.000000
32 0.0 0.0 0.0 0.0 0.0 0.0
33 9.026135 3.666779 0.258443 -1.374363 -0.037857 1.754420
34 -0.000000 0.004076 6.477368 -0.000020 -1.432596 3.080816
35 13.400166 0.000000 -0.000001 0.507939 0.653686 0.927479
36 37.630424 -0.000003 -0.000007 0.000000 -0.000000 -0.191373
37 27.473602 0.000001 -0.000002 -1.485614 -0.022559 0.260848
38 10.423896 -1.809567 0.029783 -0.000875 -0.000000 0.000000
39 3.624241 0.000002 0.000002 0.000000 -0.000000 0.000000
40 3.624242 -0.000003 -0.000001 0.000000 -0.000000 0.000000
41 0.0 0.0 0.0 0.0 0.0 0.0
42 9.000599 3.769937 0.531383 1.767230 -0.037854 -1.387172
43 15.155049 10.590141 0.000025 3.140796 -1.570796 0.000000
44 -0.129274 2.409512 -2.957685 0.498525 -0.000000 0.000000
45 0.000001 -3.638537 -20.011988 -1.204967 -0.000000 0.000000
46 0.000001 -0.606433 -26.480520 0.000000 -0.000000 0.000000
47 16.351955 -9.422812 -0.000021 3.140796 -1.570796 0.000000
48 -0.129273 3.096036 -4.155191 1.357482 -0.000000 0.000000
49 -0.000001 5.457819 -16.979881 -0.084269 -0.000000 0.000000
50 0.000000 2.627841 -27.895502 0.000000 -0.000000 0.000000
51 0.000002 -22.191360 6.061203 1.570797 -0.000000 1.570797
52 -0.000002 -38.723534 -9.185547 1.570797 -0.000000 1.570797
53 -0.000006 40.634327 -10.988869 1.570797 -0.000000 1.570797
54 -0.000002 21.259987 3.934631 1.570797 -0.000000 1.570797
55 1.875031 5.954246 134.703400 1.570796 0.000000 -0.000001
56 0.0 0.0 0.0 0.0 0.0 0.0
57 0.0 0.0 0.0 0.0 0.0 0.0
58 0.0 0.0 0.0 0.0 0.0 0.0
59 0.0 0.0 0.0 0.0 0.0 0.0
time 8
0 -5.814412 24.902948 153.556473 -0.000000 -0.000000 -1.570795
1 0.000000 0.000000 -52.236912 0.000000 -0.000000 1.570795
2 0.000000 0.000000 0.000000 -1.570795 -1.570796 0.000000
3 -0.000015 0.000014 10.281537 -2.869761 -0.873549 2.667346
4 49.430477 0.000001 0.000001 0.000000 -0.000000 -1.693620
5 49.430462 -0.000003 -0.000002 0.816281 -0.428837 -0.060200
6 11.591199 14.908234 -0.000002 0.000000 -0.000000 1.570796
7 4.161458 -0.000003 0.000001 0.000000 -0.000000 0.000000
8 4.161459 0.000003 0.000002 0.000000 -0.000000 0.000000
9 0.0 0.0 0.0 0.0 0.0 0.0
10 0.000014 -0.000014 -10.281537 3.135949 0.788462 3.081011
11 49.430477 0.000002 -0.000007 0.000000 -0.000000 -1.489972
12 49.430462 0.000004 -0.000004 -0.708233 -0.071459 -0.092911
13 11.591202 14.908228 -0.000002 0.000000 -0.000000 1.570796
14 4.161461 0.000000 -0.000002 0.000000 -0.000000 0.000000
15 4.161462 0.000001 -0.000004 0.000000 -0.000000 0.000000
16 0.0 0.0 0.0 0.0 0.0 0.0
17 3.590660 -0.013606 0.001195 -0.075661 -0.043533 -0.521155
18 19.799662 -0.020552 0.001798 -0.086942 -0.007527 -0.086939
19 26.009754 -0.004085 0.000000 0.000000 -0.000000 0.060000
20 5.140767 -0.000000 0.000000 0.129742 0.107931 -0.400936
21 0.0 0.0 0.0 0.0 0.0 0.0
22 6.884318 -6.884269 -0.000019 -0.000005 0.000002 -2.357663
23 15.455584 -0.011969 -0.000000 -0.000000 0.000001 -0.438599
24 0.0 0.0 0.0 0.0 0.0 0.0
25 -0.000000 0.004111 -6.477368 -0.000020 1.432595 3.080776
26 13.400166 0.000001 0.000000 -0.815944 -0.480436 0.805189
27 37.630428 -0.000001 0.000000 0.000000 -0.000000 -0.191373
28 27.473604 -0.000001 0.000003 1.485614 0.022559 0.260848
29 10.423896 -1.809571 -0.029782 0.000875 -0.000000 0.000000
30 3.624244 0.000001 -0.000002 0.000000 -0.000000 0.000000
31 3.624240 0.000002 0.000001 0.000000 -0.000000 0.000000
32 0.0 0.0 0.0 0.0 0.0 0.0
33 9.026137 3.666780 0.258443 -1.374363 -0.037857 1.754420
34 -0.000002 0.004075 6.477368 -0.000020 -1.432596 3.080816
35 13.400166 -0.000001 0.000002 0.681260 0.440615 1.054552
36 37.630424 -0.000001 -0.000005 0.000000 -0.000000 -0.191373
37 27.473604 0.000000 -0.000004 -1.485614 -0.022559 0.260848
38 10.423893 -1.809566 0.029782 -0.000875 -0.000000 0.000000
39 3.624242 0.000003 0.000004 0.000000 -0.000000 0.000000
40 3.624244 -0.000001 -0.000001 0.000000 -0.000000 0.000000
41 0.0 0.0 0.0 0.0 0.0 0.0
42 9.000597 3.769939 0.531382 1.767230 -0.037854 -1.387172
43 15.155049 10.590139 0.000025 3.140796 -1.570796 0.000000
44 0.000000 -0.342990 -3.690551 0.585791 -0.000000 0.000000
45 0.000001 -3.638537 -20.011988 -1.204967 -0.000000 0.000000
46 0.000001 -0.606433 -26.480520 0.000000 -0.000000 0.000000
47 16.351955 -9.422812 -0.000022 3.140796 -1.570796 0.000000
48 0.000000 0.263435 -3.084122 1.444749 -0.000000 0.000000
49 -0.000001 5.457819 -16.979881 -0.084269 -0.000000 0.000000
50 0.000000 2.627841 -27.895502 0.000000 -0.000000 0.000000
51 0.000002 -22.191360 6.061203 1.570797 -0.000000 1.570797
52 -0.000002 -38.723534 -9.185547 1.570797 -0.000000 1.570797
53 -0.000006 40.634327 -10.988869 1.570797 -0.000000 1.570797
54 -0.000002 21.259987 3.934631 1.570797 -0.000000 1.570797
55 1.875031 5.954246 134.703400 1.570796 0.000000 -0.000001
56 0.0 0.0 0.0 0.0 0.0 0.0
57 0.0 0.0 0.0 0.0 0.0 0.0
58 0.0 0.0 0.0 0.0 0.0 0.0
59 0.0 0.0 0.0 0.0 0.0 0.0
time 9
0 -5.814412 23.419722 154.820282 -0.000000 -0.000000 -1.570795
1 0.000000 0.000000 -53.230701 0.000000 -0.000000 1.570795
2 0.000000 0.000000 0.000000 -1.570795 -1.570796 0.000000
3 -0.000015 0.000014 10.281536 -2.907603 -0.878672 2.712000
4 49.430477 0.000001 0.000003 0.000000 -0.000000 -1.665417
5 49.430462 0.000000 0.000001 0.813256 -0.425719 -0.058194
6 11.591199 14.908234 0.000000 0.000000 -0.000000 1.570796
7 4.161460 -0.000003 0.000000 0.000000 -0.000000 0.000000
8 4.161457 0.000003 0.000000 0.000000 -0.000000 0.000000
9 0.0 0.0 0.0 0.0 0.0 0.0
10 0.000014 -0.000014 -10.281537 -3.125450 0.786422 3.101975
11 49.430481 0.000000 -0.000008 0.000000 -0.000000 -1.466048
12 49.430466 0.000005 -0.000001 -0.706232 -0.078381 -0.102181
13 11.591199 14.908230 -0.000002 0.000000 -0.000000 1.570796
14 4.161462 -0.000001 0.000002 0.000000 -0.000000 0.000000
15 4.161459 -0.000001 0.000000 0.000000 -0.000000 0.000000
16 0.0 0.0 0.0 0.0 0.0 0.0
17 3.591879 -0.014237 0.001250 -0.079159 -0.036781 -0.434079
18 19.803272 -0.020553 0.001798 -0.086930 0.007665 0.086933
19 26.009758 -0.004083 0.000000 0.000000 -0.000000 0.060000
20 5.140766 -0.000000 0.000000 0.126269 0.114707 -0.662789
21 0.0 0.0 0.0 0.0 0.0 0.0
22 6.884315 -6.884268 -0.000019 -0.000005 0.000002 -2.357663
23 15.455589 -0.011969 -0.000000 -0.000000 0.000001 -0.438599
24 0.0 0.0 0.0 0.0 0.0 0.0
25 -0.000004 0.004109 -6.477368 -0.000020 1.432595 3.080776
26 13.400166 0.000000 -0.000002 -0.592199 -0.658972 0.647441
27 37.630428 -0.000001 -0.000002 0.000000 -0.000000 -0.191373
28 27.473604 -0.000001 0.000001 1.485614 0.022559 0.260848
29 10.423894 -1.809570 -0.029782 0.000875 -0.000000 0.000000
30 3.624244 -0.000001 0.000001 0.000000 -0.000000 0.000000
31 3.624241 0.000000 -0.000002 0.000000 -0.000000 0.000000
32 0.0 0.0 0.0 0.0 0.0 0.0
33 9.026134 3.666780 0.258443 -1.374363 -0.037857 1.754420
34 -0.000001 0.004076 6.477368 -0.000020 -1.432596 3.080816
35 13.400167 0.000000 0.000002 0.507939 0.653686 0.927479
36 37.630424 -0.000003 -0.000007 0.000000 -0.000000 -0.191373
37 27.473602 0.000001 -0.000002 -1.485614 -0.022559 0.260848
38 10.423897 -1.809568 0.029783 -0.000875 -0.000000 0.000000
39 3.624241 0.000004 0.000002 0.000000 -0.000000 0.000000
40 3.624243 -0.000001 -0.000001 0.000000 -0.000000 0.000000
41 0.0 0.0 0.0 0.0 0.0 0.0
42 9.000599 3.769937 0.531383 1.767230 -0.037854 -1.387172
43 15.155049 10.590141 0.000024 3.140796 -1.570796 0.000000
44 -0.129274 2.570303 -3.302503 0.498525 -0.000000 0.000000
45 0.000001 -3.638537 -20.011988 -1.204967 -0.000000 0.000000
46 0.000001 -0.606433 -26.480520 0.000000 -0.000000 0.000000
47 16.351955 -9.422812 -0.000022 3.140796 -1.570796 0.000000
48 -0.129273 3.256827 -4.500007 1.357482 -0.000000 0.000000
49 -0.000001 5.457819 -16.979881 -0.084269 -0.000000 0.000000
50 0.000000 2.627841 -27.895502 0.000000 -0.000000 0.000000
51 0.000002 -22.191360 6.061203 1.570797 -0.000000 1.570797
52 -0.000002 -38.723534 -9.185547 1.570797 -0.000000 1.570797
53 -0.000006 40.634327 -10.988869 1.570797 -0.000000 1.570797
54 -0.000002 21.259987 3.934631 1.570797 -0.000000 1.570797
55 1.875031 5.954246 134.703400 1.570796 0.000000 -0.000001
56 0.0 0.0 0.0 0.0 0.0 0.0
57 0.0 0.0 0.0 0.0 0.0 0.0
58 0.0 0.0 0.0 0.0 0.0 0.0
59 0.0 0.0 0.0 0.0 0.0 0.0
time 10
0 -5.814412 24.902948 153.385513 -0.000000 -0.000000 -1.570795
1 0.000000 0.000000 -51.201981 0.000000 -0.000000 1.570795
2 0.000000 0.000000 0.000000 -1.570795 -1.570796 0.000000
3 -0.000015 0.000014 10.281536 -2.838222 -0.883821 2.644364
4 49.430477 -0.000001 0.000003 0.000000 -0.000000 -1.720595
5 49.430458 0.000001 -0.000003 0.834357 -0.439747 -0.051982
6 11.591198 14.908235 -0.000001 0.000000 -0.000000 1.570796
7 4.161461 -0.000001 -0.000001 0.000000 -0.000000 0.000000
8 4.161458 0.000002 -0.000001 0.000000 -0.000000 0.000000
9 0.0 0.0 0.0 0.0 0.0 0.0
10 0.000014 -0.000014 -10.281537 3.095553 0.802088 3.028729
11 49.430477 0.000001 -0.000008 0.000000 -0.000000 -1.543378
12 49.430462 0.000004 -0.000004 -0.722916 -0.068834 -0.074713
13 11.591201 14.908229 0.000000 0.000000 -0.000000 1.570796
14 4.161461 0.000000 0.000000 0.000000 -0.000000 0.000000
15 4.161462 0.000000 -0.000002 0.000000 -0.000000 0.000000
16 0.0 0.0 0.0 0.0 0.0 0.0
17 3.590659 -0.013606 0.001195 -0.075661 -0.043533 -0.521155
18 19.799664 -0.020553 0.001798 -0.086942 -0.007527 -0.086939
19 26.009754 -0.004085 0.000000 0.000000 -0.000000 0.060000
20 5.140769 0.000001 0.000000 0.129742 0.107931 -0.400936
21 0.0 0.0 0.0 0.0 0.0 0.0
22 6.884317 -6.884271 -0.000019 -0.000005 0.000002 -2.357663
23 15.455586 -0.011969 -0.000000 -0.000000 0.000001 -0.438599
24 0.0 0.0 0.0 0.0 0.0 0.0
25 0.000002 0.004111 -6.477368 -0.000020 1.432595 3.080776
26 13.400166 0.000001 0.000001 -0.815944 -0.480436 0.805189
27 37.630428 -0.000001 0.000001 0.000000 -0.000000 -0.191373
28 27.473606 -0.000002 0.000001 1.485614 0.022559 0.260848
29 10.423895 -1.809571 -0.029782 0.000875 -0.000000 0.000000
30 3.624243 0.000001 -0.000002 0.000000 -0.000000 0.000000
31 3.624239 0.000002 0.000001 0.000000 -0.000000 0.000000
32 0.0 0.0 0.0 0.0 0.0 0.0
33 9.026134 3.666779 0.258443 -1.374363 -0.037857 1.754420
34 -0.000000 0.004076 6.477368 -0.000020 -1.432596 3.080816
35 13.400166 -0.000001 0.000004 0.681260 0.440615 1.054552
36 37.630424 -0.000001 -0.000005 0.000000 -0.000000 -0.191373
37 27.473602 0.000000 -0.000004 -1.485614 -0.022559 0.260848
38 10.423894 -1.809569 0.029782 -0.000875 -0.000000 0.000000
39 3.624243 0.000000 0.000004 0.000000 -0.000000 0.000000
40 3.624245 0.000000 -0.000002 0.000000 -0.000000 0.000000
41 0.0 0.0 0.0 0.0 0.0 0.0
42 9.000596 3.769936 0.531382 1.767230 -0.037854 -1.387172
43 15.155050 10.590139 0.000024 3.140796 -1.570796 0.000000
44 0.000000 -0.428470 -3.542496 0.585791 -0.000000 0.000000
45 0.000001 -3.638537 -20.011988 -1.204967 -0.000000 0.000000
46 0.000001 -0.606433 -26.480520 0.000000 -0.000000 0.000000
47 16.351957 -9.422812 -0.000022 3.140796 -1.570796 0.000000
48 0.000000 0.177956 -2.936067 1.444749 -0.000000 0.000000
49 -0.000001 5.457819 -16.979881 -0.084269 -0.000000 0.000000
50 0.000000 2.627841 -27.895502 0.000000 -0.000000 0.000000
51 0.000002 -22.191360 6.061203 1.570797 -0.000000 1.570797
52 -0.000002 -38.723534 -9.185547 1.570797 -0.000000 1.570797
53 -0.000006 40.634327 -10.988869 1.570797 -0.000000 1.570797
54 -0.000002 21.259987 3.934631 1.570797 -0.000000 1.570797
55 1.875031 5.954246 134.703400 1.570796 0.000000 -0.000001
56 0.0 0.0 0.0 0.0 0.0 0.0
57 0.0 0.0 0.0 0.0 0.0 0.0
58 0.0 0.0 0.0 0.0 0.0 0.0
59 0.0 0.0 0.0 0.0 0.0 0.0
end
