version 1
nodes
0 "Bip01" -1
1 "Bip01 Footsteps" 0
2 "Bip01 Pelvis" 0
3 "Bip01 L Thigh" 2
4 "Bip01 L Calf" 3
5 "Bip01 L Foot" 4
6 "Bip01 L Toe0" 5
7 "Bip01 L Toe01" 6
8 "Bip01 L Toe02" 7
9 "Null 9" -1
10 "poison05" 4
11 "Bip01 R Thigh" 2
12 "Bip01 R Calf" 11
13 "Bip01 R Foot" 12
14 "Bip01 R Toe0" 13
15 "Bip01 R Toe01" 14
16 "Bip01 R Toe02" 15
17 "Null 17" -1
18 "poison04" 12
19 "Bip01 Spine" 2
20 "Bip01 Spine1" 19
21 "Bip01 Neck" 20
22 "Bip01 Head" 21
23 "Null 23" -1
24 "Bip01 Ponytail1" 22
25 "Bip01 Ponytail11" 24
26 "Null 26" -1
27 "Bip01 L Clavicle" 21
28 "Bip01 L UpperArm" 27
29 "Bip01 L Forearm" 28
30 "Bip01 L Hand" 29
31 "Bip01 L Finger0" 30
32 "Bip01 L Finger01" 31
33 "Null 33" -1
34 "Bip01 L Finger1" 30
35 "Bip01 L Finger11" 34
36 "Bip01 L Finger1Nub" 35
37 "hand_bofdgne01" 30
38 "hand_bofdgne03" 29
39 "hand_bofdgne02" 29
40 "Bip01 R Clavicle" 21
41 "Bip01 R UpperArm" 40
42 "Bip01 R Forearm" 41
43 "Bip01 R Hand" 42
44 "Bip01 R Finger0" 43
45 "Bip01 R Finger01" 44
46 "Null 46" -1
47 "Bip01 R Finger1" 43
48 "Bip01 R Finger11" 47
49 "Bip01 R Finger1Nub" 48
50 "knife_gdf" 43
51 "knife_gdf01" 42
52 "knife_gdf02" 42
53 "poison01" 19
54 "poison03" 19
55 "poison02" 19
56 "poison07" 0
57 "poison06" 0
end
skeleton
time 0
0 0.000000 7.767428 93.663773 0.000000 0.000000 -1.570795
1 0.000000 0.000000 -89.322937 0.000000 0.000000 1.570795
2 0.000000 0.000000 0.000000 -1.570795 -1.570796 0.000000
3 -0.000026 0.000030 18.595530 -0.091518 -2.775536 -0.835648
4 52.281643 0.000000 0.000003 -0.000000 -0.000000 -1.359840
5 42.401630 0.000001 -0.000003 0.005288 -0.172124 0.477899
6 23.783976 40.997162 0.000001 0.000000 -0.000000 1.570796
7 4.401493 -0.000000 0.000003 0.000000 0.000000 0.000000
8 4.401498 -0.000000 -0.000002 0.000000 0.000000 0.000000
9 0.0 0.0 0.0 0.0 0.0 0.0
10 36.276951 6.884860 -1.335225 1.475580 -0.000002 1.752753
11 0.000026 -0.000022 -18.595530 0.363980 2.736743 -0.373412
12 52.281643 -0.000003 -0.000005 -0.000000 0.000000 -1.422397
13 42.401634 -0.000001 0.000001 0.052930 0.214486 0.918881
14 23.783974 40.997158 0.000001 0.000000 -0.000000 1.570796
15 4.401494 -0.000000 0.000002 0.000000 0.000000 0.000000
16 4.401494 -0.000000 -0.000004 0.000000 0.000000 0.000000
17 0.0 0.0 0.0 0.0 0.0 0.0
18 36.215038 6.866612 -1.550506 -1.449219 -3.141592 -1.388915
19 11.436478 -0.022314 -0.003918 0.173083 0.022529 0.133651
20 28.680408 -0.040427 0.000001 -0.000000 0.000001 -0.296706
21 53.093929 -0.004327 0.000000 0.000000 -0.000000 0.030000
22 5.437294 -0.000000 -0.000000 0.174533 -0.000001 0.396808
23 0.0 0.0 0.0 0.0 0.0 0.0
24 7.285634 -7.278542 -0.000020 -0.000005 0.000001 -2.749229
25 16.349979 -0.013647 0.000001 -0.000000 0.000001 -0.219299
26 0.0 0.0 0.0 0.0 0.0 0.0
27 -16.427885 0.510344 35.303997 -0.000014 -1.370796 3.110810
28 32.456375 -0.000001 0.000013 1.045560 0.888159 1.028507
29 48.985786 -0.000001 -0.000003 0.000000 -0.000000 -0.451598
30 57.408661 -0.000005 -0.000001 -1.649027 0.041525 -0.131120
31 1.857337 11.957446 -6.764408 2.802166 -0.065675 0.596223
32 17.066282 0.000003 -0.000014 0.000000 -0.000000 0.462512
33 0.0 0.0 0.0 0.0 0.0 0.0
34 21.195385 0.098480 2.688734 -0.000930 0.000232 0.244346
35 12.237203 0.000002 0.000003 0.000000 -0.000000 0.523599
36 22.646994 0.000002 -0.000000 -0.000000 0.000000 0.000000
37 18.521774 9.922000 -6.711961 0.063046 -1.563464 0.361098
38 29.943012 -6.360236 -0.330585 -1.408448 -0.000199 1.563748
39 54.015350 -6.529608 -1.891302 -1.408448 -0.000199 1.563748
40 -17.143808 0.532521 -35.127758 -0.000014 1.370796 3.110783
41 32.456387 0.000002 0.000006 -0.616711 -0.899111 0.847721
42 48.985783 0.000001 0.000005 -0.000000 -0.000000 -0.568187
43 57.408657 -0.000002 -0.000006 1.596881 -0.064491 0.191413
44 1.857335 11.957444 6.764410 -2.802166 0.065675 0.596223
45 17.066282 0.000004 0.000013 -0.000000 0.000000 0.462512
46 0.0 0.0 0.0 0.0 0.0 0.0
47 21.195383 0.098485 -2.688733 0.000930 -0.000232 0.244346
48 12.237206 -0.000000 0.000001 0.000000 0.000000 0.523599
49 22.646990 -0.000004 0.000001 -0.000000 -0.000000 3.141593
50 16.220612 11.940950 6.827998 3.080435 1.563448 0.380439
51 50.710938 -6.630798 5.648471 -1.750598 0.000056 1.563746
52 25.391731 -6.452420 3.200463 -1.750598 0.000056 1.563746
53 63.683685 39.983025 -0.238107 -1.570796 -0.000001 1.570001
54 39.432278 34.203308 -22.613102 -1.570796 -0.000001 1.570001
55 39.432289 34.203243 22.595678 -1.570796 -0.000001 1.570001
56 63.282032 -0.716972 20.325783 3.141593 0.000000 -0.000001
57 -21.487474 0.019814 19.775337 -0.000000 -3.141592 -0.000002
time 1
0 -13.084622 21.221460 80.549774 0.000000 0.167584 -1.570795
1 13.435758 0.000001 -79.421310 -0.167584 -0.000000 1.570795
2 0.000002 0.000000 -0.000002 -1.570795 -1.570796 0.000000
3 -0.000025 0.000028 18.595528 0.191216 -2.671231 -1.530858
4 52.281639 0.000002 0.000003 0.000000 0.000000 -1.678077
5 42.401630 0.000002 -0.000001 0.010383 -0.054686 0.535350
6 23.783972 40.997158 0.000003 -0.000000 -0.000000 1.570796
7 4.401494 0.000001 -0.000001 0.000000 0.000000 0.000000
8 4.401490 0.000000 0.000000 0.000000 0.000000 0.000000
9 0.0 0.0 0.0 0.0 0.0 0.0
10 36.276951 6.884862 -1.335224 1.475580 -0.000002 1.752753
11 0.000027 -0.000023 -18.595530 0.508873 2.766083 -0.819042
12 52.281639 0.000002 0.000000 -0.000000 0.000000 -1.866804
13 42.401630 0.000002 0.000000 -0.090435 -0.040735 1.129684
14 23.783976 40.997158 0.000004 0.000000 -0.000000 1.570796
15 4.401495 0.000000 0.000002 0.000000 0.000000 0.000000
16 4.401495 0.000000 -0.000002 0.000000 0.000000 0.000000
17 0.0 0.0 0.0 0.0 0.0 0.0
18 36.215038 6.866610 -1.550503 -1.449219 -3.141592 -1.388915
19 11.436996 -0.022244 -0.003929 0.173540 0.018641 0.155862
20 28.677380 -0.039375 -0.000001 -0.000000 0.000001 -0.372337
21 53.093327 -0.004303 -0.000002 0.000000 0.000000 -0.109626
22 5.437291 0.000001 0.000000 0.174533 -0.000001 0.589521
23 0.0 0.0 0.0 0.0 0.0 0.0
24 7.287334 -7.277966 -0.000020 -0.000005 0.000001 -2.888855
25 16.348108 -0.013100 0.000000 -0.000000 0.000001 -0.358925
26 0.0 0.0 0.0 0.0 0.0 0.0
27 -16.338438 -1.780898 35.303986 -0.615691 -1.327413 -2.431103
28 32.456375 0.000001 0.000004 -0.453494 -0.843790 -1.742301
29 48.985779 0.000002 -0.000002 -0.000000 0.000000 -1.440852
30 57.408669 0.000012 0.000014 -2.015250 -0.585687 0.182542
31 1.857336 11.957443 -6.764409 2.973443 0.501871 0.700389
32 17.066269 0.000000 -0.000010 0.000000 -0.000000 0.462512
33 0.0 0.0 0.0 0.0 0.0 0.0
34 21.195389 0.098478 2.688737 -0.000892 0.000351 0.375245
35 12.237196 -0.000004 -0.000002 -0.000000 0.000000 0.689405
36 22.646992 -0.000004 0.000002 0.000000 0.000000 0.000000
37 18.521772 9.921999 -6.711959 0.063050 -1.563464 0.361095
38 29.943003 -6.360237 -0.330580 -1.408448 -0.000199 1.563748
39 54.015339 -6.529606 -1.891295 -1.408448 -0.000199 1.563748
40 -17.050465 -1.858574 -35.127758 0.615674 1.327417 -2.431121
41 32.456371 -0.000000 -0.000013 0.513338 0.907302 -1.645185
42 48.985775 -0.000003 -0.000000 0.000000 0.000000 -1.440852
43 57.408661 0.000006 -0.000003 1.961436 0.346170 0.063723
44 1.857337 11.957452 6.764410 -2.973443 -0.501872 0.700389
45 17.066271 0.000005 0.000011 0.000000 -0.000000 0.654499
46 0.0 0.0 0.0 0.0 0.0 0.0
47 21.195381 0.098488 -2.688733 0.000760 -0.000583 0.654498
48 12.237203 0.000005 -0.000002 0.000000 -0.000000 0.689405
49 22.646992 0.000011 0.000004 0.000000 -0.000000 -3.141593
50 16.220612 11.940957 6.827996 3.080435 1.563448 0.380440
51 50.710938 -6.630790 5.648468 -1.750598 0.000056 1.563746
52 25.391733 -6.452418 3.200463 -1.750598 0.000056 1.563746
53 63.683681 39.983013 -0.238107 -1.570796 -0.000001 1.570001
54 39.432274 34.203300 -22.613098 -1.570796 -0.000001 1.570001
55 39.432281 34.203239 22.595675 -1.570796 -0.000001 1.570001
56 63.282032 -0.716972 20.325777 3.141593 0.000000 -0.000001
57 -21.487473 0.019815 19.775341 -0.000000 -3.141592 -0.000002
time 2
0 -19.276268 22.678230 71.219681 0.000000 0.335168 -1.570795
1 23.426119 0.000001 -67.256638 -0.335168 -0.000000 1.570795
2 0.000000 0.000001 0.000001 -1.570795 -1.570796 0.000000
3 -0.000024 0.000029 18.595528 -2.737833 -0.439300 1.118375
4 52.281639 0.000003 0.000003 -0.000000 -0.000000 -1.676786
5 42.401634 -0.000001 0.000001 0.010285 0.003262 0.379372
6 23.783972 40.997158 0.000001 -0.000000 0.000000 1.570796
7 4.401492 -0.000003 0.000001 0.000000 0.000000 0.000000
8 4.401497 -0.000000 0.000003 0.000000 0.000000 0.000000
9 0.0 0.0 0.0 0.0 0.0 0.0
10 36.276958 6.884859 -1.335221 1.475580 -0.000002 1.752753
11 0.000029 -0.000021 -18.595528 0.542541 2.870124 -1.068700
12 52.281635 0.000000 -0.000006 0.000000 0.000000 -2.085440
13 42.401630 -0.000001 0.000008 -0.027444 -0.175998 1.328354
14 23.783974 40.997162 -0.000003 0.000000 0.000000 1.570796
15 4.401492 -0.000000 0.000001 0.000000 0.000000 0.000000
16 4.401495 -0.000000 0.000003 0.000000 0.000000 0.000000
17 0.0 0.0 0.0 0.0 0.0 0.0
18 36.215031 6.866610 -1.550498 -1.449219 -3.141592 -1.388915
19 11.439217 -0.021780 -0.003952 0.174523 0.001376 0.253989
20 28.674896 -0.038310 -0.000002 -0.000000 0.000001 -0.436332
21 53.093338 -0.004305 0.000001 0.000000 0.000000 -0.109626
22 5.437295 0.000000 -0.000001 0.174533 -0.000001 0.553888
23 0.0 0.0 0.0 0.0 0.0 0.0
24 7.287346 -7.277961 -0.000022 -0.000005 0.000001 -2.888855
25 16.348097 -0.013091 0.000001 -0.000000 0.000001 -0.358925
26 0.0 0.0 0.0 0.0 0.0 0.0
27 -16.338442 -1.780900 35.303986 -0.615691 -1.327413 -2.431104
28 32.456379 0.000001 0.000014 -0.182285 -0.946755 -2.570896
29 48.985771 0.000001 0.000005 -0.000000 0.000000 -1.440852
30 57.408661 0.000001 0.000012 -1.931919 -0.304746 0.112487
31 1.857326 11.957457 -6.764415 2.973443 0.501872 0.700389
32 17.066275 -0.000002 -0.000006 -0.000000 0.000000 0.462512
33 0.0 0.0 0.0 0.0 0.0 0.0
34 21.195383 0.098486 2.688728 -0.000892 0.000351 0.375245
35 12.237203 0.000000 0.000001 -0.000000 -0.000000 0.689405
36 22.646996 -0.000009 -0.000001 0.000000 -0.000000 0.000000
37 18.521769 9.922006 -6.711963 0.063052 -1.563464 0.361091
38 29.943007 -6.360244 -0.330581 -1.408448 -0.000199 1.563748
39 54.015350 -6.529608 -1.891291 -1.408448 -0.000199 1.563748
40 -17.050468 -1.858574 -35.127766 0.615674 1.327417 -2.431121
41 32.456375 0.000001 0.000002 0.142537 1.018521 -2.554190
42 48.985779 0.000002 -0.000007 -0.000000 -0.000000 -1.440852
43 57.408665 -0.000000 0.000004 1.493337 0.339784 -0.056557
44 1.857330 11.957449 6.764418 -2.973443 -0.501872 0.700389
45 17.066277 0.000001 -0.000004 0.000000 -0.000000 0.654498
46 0.0 0.0 0.0 0.0 0.0 0.0
47 21.195385 0.098485 -2.688733 0.000760 -0.000583 0.654498
48 12.237204 -0.000006 0.000010 -0.000000 -0.000000 0.689405
49 22.646990 -0.000005 -0.000009 -0.000000 0.000000 -3.141593
50 16.220613 11.940958 6.827996 3.080431 1.563448 0.380437
51 50.710938 -6.630798 5.648469 -1.750598 0.000056 1.563746
52 25.391737 -6.452413 3.200458 -1.750598 0.000056 1.563746
53 63.683693 39.983021 -0.238107 -1.570796 -0.000001 1.570001
54 39.432281 34.203308 -22.613098 -1.570796 -0.000001 1.570001
55 39.432285 34.203243 22.595675 -1.570796 -0.000001 1.570001
56 63.282028 -0.716972 20.325783 3.141593 0.000000 -0.000001
57 -21.487473 0.019815 19.775339 -0.000000 -3.141592 -0.000002
time 3
0 12.443458 -41.849930 65.661530 0.000000 0.462512 -1.570795
1 29.298018 -0.000000 -58.762730 -0.462512 -0.000001 1.570795
2 -0.000000 -0.000000 -0.000003 -1.570795 -1.570796 0.000000
3 -0.000022 0.000028 18.595528 -2.902948 -0.271854 1.162704
4 52.281635 -0.000003 -0.000004 0.000000 -0.000000 -1.826717
5 42.401630 0.000000 0.000004 -0.072934 -0.252917 0.310065
6 23.783974 40.997166 0.000002 -0.000000 -0.000000 1.570796
7 4.401494 0.000000 0.000001 0.000000 0.000000 0.000000
8 4.401503 0.000000 0.000000 0.000000 0.000000 0.000000
9 0.0 0.0 0.0 0.0 0.0 0.0
10 36.276951 6.884860 -1.335219 1.475580 -0.000002 1.752753
11 0.000030 -0.000021 -18.595530 -0.387544 3.037218 0.046914
12 52.281643 -0.000001 -0.000001 -0.000000 -0.000000 -1.144082
13 42.401630 -0.000000 -0.000002 1.165250 -0.100259 1.654264
14 23.783976 40.997162 0.000001 -0.000000 -0.000000 1.570796
15 4.401493 -0.000000 -0.000001 0.000000 0.000000 0.000000
16 4.401493 -0.000000 -0.000002 0.000000 0.000000 0.000000
17 0.0 0.0 0.0 0.0 0.0 0.0
18 36.215038 6.866609 -1.550503 -1.449219 -3.141592 -1.388915
19 11.449517 -0.015993 -0.003437 0.152207 -0.085734 0.770926
20 28.674900 -0.038318 0.000002 -0.000000 0.000001 -0.436332
21 53.093334 -0.004296 -0.000001 0.000000 0.000000 -0.109626
22 5.437293 -0.000003 0.000001 0.174533 0.000000 0.030289
23 0.0 0.0 0.0 0.0 0.0 0.0
24 7.287356 -7.277966 -0.000021 -0.000005 0.000001 -2.888855
25 16.348104 -0.013097 -0.000001 -0.000000 0.000001 -0.358925
26 0.0 0.0 0.0 0.0 0.0 0.0
27 -16.338440 -1.780899 35.303989 1.432572 -0.596977 1.922217
28 32.456379 0.000001 -0.000004 -0.957823 0.128803 -0.810999
29 48.985775 0.000004 -0.000008 -0.000000 0.000000 -0.563623
30 57.408669 0.000003 0.000000 -2.009948 -0.436586 -0.152002
31 1.857337 11.957448 -6.764412 2.973443 0.501872 0.700389
32 17.066271 -0.000003 -0.000015 -0.000000 -0.000000 0.462512
33 0.0 0.0 0.0 0.0 0.0 0.0
34 21.195396 0.098486 2.688732 -0.000892 0.000351 0.375245
35 12.237194 0.000003 0.000006 0.000000 -0.000000 0.689405
36 22.646997 -0.000007 -0.000004 0.000000 0.000000 0.000000
37 18.521774 9.922001 -6.711959 0.063044 -1.563464 0.361103
38 29.943016 -6.360237 -0.330575 -1.408448 -0.000199 1.563748
39 54.015350 -6.529603 -1.891298 -1.408448 -0.000199 1.563748
40 -17.050463 -1.858576 -35.127766 -1.432575 0.596972 1.922216
41 32.456383 0.000003 -0.000000 1.099375 -0.212196 -0.728189
42 48.985775 -0.000002 -0.000007 0.000000 -0.000000 -0.663592
43 57.408661 -0.000003 -0.000005 1.849839 0.316265 -0.276446
44 1.857336 11.957446 6.764409 -2.973443 -0.501872 0.700389
45 17.066265 -0.000004 0.000011 -0.000000 0.000000 0.654499
46 0.0 0.0 0.0 0.0 0.0 0.0
47 21.195387 0.098479 -2.688733 0.000760 -0.000583 0.654498
48 12.237205 -0.000001 0.000002 0.000000 -0.000000 0.689405
49 22.646994 0.000012 -0.000002 -0.000000 0.000000 3.141593
50 16.220608 11.940952 6.827996 3.080433 1.563448 0.380435
51 50.710926 -6.630797 5.648472 -1.750598 0.000056 1.563746
52 25.391733 -6.452425 3.200460 -1.750598 0.000056 1.563746
53 63.683689 39.983013 -0.238105 -1.570796 -0.000001 1.570001
54 39.432281 34.203300 -22.613102 -1.570796 -0.000001 1.570001
55 39.432289 34.203239 22.595680 -1.570796 -0.000001 1.570001
56 63.282040 -0.716972 20.325783 3.141593 0.000000 -0.000001
57 -21.487476 0.019814 19.775333 -0.000000 -3.141592 -0.000002
time 4
0 12.280922 -29.775209 75.179283 0.000000 0.375246 -1.570795
1 27.553282 -0.000002 -69.948067 -0.375246 -0.000001 1.570795
2 -0.000000 0.000000 0.000003 -1.570795 -1.570796 0.000000
3 -0.000024 0.000029 18.595528 -2.928992 -0.244336 1.160202
4 52.281635 0.000006 -0.000002 -0.000000 0.000000 -1.703334
5 42.401642 0.000004 0.000002 -0.086760 -0.258280 0.151940
6 23.783972 40.997154 -0.000003 -0.000000 0.000000 1.570796
7 4.401491 0.000001 -0.000000 0.000000 0.000000 0.000000
8 4.401500 -0.000001 -0.000003 0.000000 0.000000 0.000000
9 0.0 0.0 0.0 0.0 0.0 0.0
10 36.276955 6.884861 -1.335223 1.475580 -0.000002 1.752753
11 0.000030 -0.000022 -18.595530 -0.288049 2.976666 -0.140066
12 52.281635 0.000003 -0.000002 -0.000000 -0.000000 -1.368789
13 42.401630 -0.000001 0.000001 1.011129 0.086993 1.641969
14 23.783976 40.997158 0.000003 -0.000000 -0.000000 1.570796
15 4.401492 0.000000 -0.000003 0.000000 0.000000 0.000000
16 4.401495 0.000000 0.000003 0.000000 0.000000 0.000000
17 0.0 0.0 0.0 0.0 0.0 0.0
18 36.215038 6.866607 -1.550503 -1.449219 -3.141592 -1.388915
19 11.447217 -0.017960 -0.003667 0.162143 -0.064859 0.639034
20 28.676485 -0.039017 0.000001 -0.000000 0.000001 -0.394961
21 53.093330 -0.004307 -0.000002 0.000000 0.000000 -0.109626
22 5.437285 -0.000004 0.000000 0.174533 -0.000000 0.122080
23 0.0 0.0 0.0 0.0 0.0 0.0
24 7.287338 -7.277963 -0.000021 -0.000005 0.000001 -2.888855
25 16.348085 -0.013088 0.000000 -0.000000 0.000001 -0.358925
26 0.0 0.0 0.0 0.0 0.0 0.0
27 -16.338446 -1.780902 35.303986 1.432572 -0.596977 1.922217
28 32.456383 -0.000006 -0.000010 -0.989944 0.063063 -0.886779
29 48.985775 0.000007 -0.000002 -0.000000 -0.000000 -0.563623
30 57.408669 -0.000002 -0.000003 -2.009948 -0.436586 -0.152002
31 1.857332 11.957450 -6.764416 2.973443 0.501872 0.700389
32 17.066265 -0.000005 -0.000008 -0.000000 0.000000 0.462512
33 0.0 0.0 0.0 0.0 0.0 0.0
34 21.195377 0.098484 2.688731 -0.000892 0.000351 0.375245
35 12.237218 -0.000003 -0.000001 0.000000 0.000000 0.689405
36 22.646986 0.000008 -0.000005 -0.000000 0.000000 -0.000000
37 18.521770 9.922003 -6.711966 0.063046 -1.563464 0.361098
38 29.943008 -6.360238 -0.330579 -1.408448 -0.000199 1.563748
39 54.015354 -6.529609 -1.891293 -1.408448 -0.000199 1.563748
40 -17.050474 -1.858572 -35.127762 -1.432575 0.596972 1.922216
41 32.456387 0.000001 0.000006 1.126080 -0.138059 -0.782717
42 48.985767 0.000006 0.000003 -0.000000 0.000000 -0.663592
43 57.408653 0.000003 0.000001 1.849839 0.316265 -0.276446
44 1.857320 11.957446 6.764407 -2.973443 -0.501872 0.700389
45 17.066271 -0.000003 0.000011 -0.000000 -0.000000 0.654499
46 0.0 0.0 0.0 0.0 0.0 0.0
47 21.195381 0.098479 -2.688733 0.000760 -0.000583 0.654498
48 12.237202 -0.000001 0.000003 0.000000 0.000000 0.689405
49 22.646992 0.000011 0.000001 0.000000 0.000000 3.141593
50 16.220596 11.940951 6.827999 3.080435 1.563448 0.380439
51 50.710930 -6.630791 5.648465 -1.750598 0.000056 1.563746
52 25.391735 -6.452415 3.200461 -1.750598 0.000056 1.563746
53 63.683678 39.983013 -0.238104 -1.570796 -0.000001 1.570001
54 39.432270 34.203297 -22.613100 -1.570796 -0.000001 1.570001
55 39.432278 34.203239 22.595675 -1.570796 -0.000001 1.570001
56 63.282028 -0.716972 20.325787 3.141593 0.000000 -0.000001
57 -21.487473 0.019814 19.775339 -0.000000 -3.141592 -0.000002
time 5
0 6.638622 -11.561939 84.444489 0.000000 0.375246 -1.570795
1 29.392630 -0.000002 -74.617523 -0.375246 -0.000001 1.570795
2 0.000001 0.000000 0.000003 -1.570795 -1.570796 0.000000
3 -0.000024 0.000030 18.595528 -2.902948 -0.271854 1.162704
4 52.281639 0.000004 0.000002 -0.000000 -0.000000 -1.826718
5 42.401638 0.000006 0.000004 -0.072935 -0.252917 0.310065
6 23.783968 40.997150 -0.000005 0.000000 0.000000 1.570796
7 4.401493 0.000001 -0.000002 0.000000 0.000000 0.000000
8 4.401502 -0.000000 -0.000002 0.000000 0.000000 0.000000
9 0.0 0.0 0.0 0.0 0.0 0.0
10 36.276955 6.884859 -1.335221 1.475580 -0.000002 1.752753
11 0.000030 -0.000023 -18.595528 -0.055560 2.849675 -0.541857
12 52.281639 0.000000 -0.000004 0.000000 0.000000 -1.678316
13 42.401627 0.000002 -0.000002 0.557214 0.296917 1.520988
14 23.783970 40.997158 0.000002 -0.000000 0.000000 1.570796
15 4.401495 0.000000 -0.000002 0.000000 0.000000 0.000000
16 4.401493 0.000001 0.000005 0.000000 0.000000 0.000000
17 0.0 0.0 0.0 0.0 0.0 0.0
18 36.215034 6.866609 -1.550504 -1.449219 -3.141592 -1.388915
19 11.442130 -0.020818 -0.003921 0.173168 -0.021859 0.386103
20 28.678429 -0.039765 -0.000001 -0.000000 0.000001 -0.345834
21 53.093346 -0.004308 0.000001 0.000000 0.000000 -0.109626
22 5.437287 0.000002 -0.000001 0.174533 -0.000001 0.329257
23 0.0 0.0 0.0 0.0 0.0 0.0
24 7.287341 -7.277961 -0.000022 -0.000005 0.000001 -2.888855
25 16.348089 -0.013088 0.000001 -0.000000 0.000001 -0.358925
26 0.0 0.0 0.0 0.0 0.0 0.0
27 -16.338449 -1.780897 35.303986 1.236782 -1.017011 2.067006
28 32.456375 0.000001 0.000002 -0.902530 0.949615 -0.792466
29 48.985786 0.000002 0.000002 -0.000000 0.000000 -0.512278
30 57.408661 0.000010 -0.000000 -1.841186 -0.216605 -0.164267
31 1.857334 11.957447 -6.764408 2.884418 0.243881 0.638358
32 17.066275 0.000000 -0.000013 -0.000000 -0.000000 0.462512
33 0.0 0.0 0.0 0.0 0.0 0.0
34 21.195383 0.098488 2.688737 -0.000911 0.000297 0.315250
35 12.237207 0.000009 0.000004 -0.000000 -0.000000 0.613410
36 22.646990 -0.000005 0.000003 -0.000000 0.000000 0.000000
37 18.521772 9.922004 -6.711955 0.063045 -1.563464 0.361100
38 29.943003 -6.360229 -0.330586 -1.408448 -0.000199 1.563748
39 54.015339 -6.529597 -1.891301 -1.408448 -0.000199 1.563748
40 -17.050470 -1.858573 -35.127762 -1.236787 1.017006 2.067002
41 32.456379 -0.000001 0.000002 0.971134 -0.904783 -0.626089
42 48.985779 0.000004 -0.000003 -0.000000 -0.000000 -0.619865
43 57.408669 0.000002 0.000001 1.754910 0.127352 -0.071270
44 1.857336 11.957450 6.764415 -2.884418 -0.243881 0.638358
45 17.066275 0.000001 0.000010 -0.000000 -0.000000 0.566505
46 0.0 0.0 0.0 0.0 0.0 0.0
47 21.195395 0.098483 -2.688729 0.000856 -0.000431 0.466511
48 12.237202 -0.000000 -0.000006 0.000000 0.000000 0.613410
49 22.646990 -0.000005 0.000001 0.000000 0.000000 3.141593
50 16.220608 11.940955 6.827993 3.080436 1.563448 0.380444
51 50.710934 -6.630793 5.648471 -1.750598 0.000056 1.563746
52 25.391731 -6.452417 3.200462 -1.750598 0.000056 1.563746
53 63.683685 39.983017 -0.238107 -1.570796 -0.000001 1.570001
54 39.432274 34.203300 -22.613098 -1.570796 -0.000001 1.570001
55 39.432281 34.203239 22.595675 -1.570796 -0.000001 1.570001
56 63.282028 -0.716972 20.325787 3.141593 0.000000 -0.000001
57 -21.487473 0.019814 19.775339 -0.000000 -3.141592 -0.000002
time 6
0 0.000000 7.767428 93.663773 0.000000 0.375246 -1.570795
1 30.932167 -0.000003 -78.525871 -0.375246 -0.000001 1.570795
2 0.000001 0.000000 -0.000000 -1.570795 -1.570796 0.000000
3 -0.000025 0.000032 18.595528 -0.091518 -2.775536 -0.835648
4 52.281639 -0.000004 0.000003 -0.000000 0.000000 -1.359840
5 42.401630 0.000003 -0.000001 0.005288 -0.172124 0.477899
6 23.783972 40.997158 -0.000001 0.000000 0.000000 1.570796
7 4.401494 -0.000000 -0.000001 0.000000 0.000000 0.000000
8 4.401495 0.000001 -0.000001 0.000000 0.000000 0.000000
9 0.0 0.0 0.0 0.0 0.0 0.0
10 36.276947 6.884859 -1.335226 1.475580 -0.000002 1.752753
11 0.000028 -0.000021 -18.595528 -0.053210 2.989297 -0.876130
12 52.281635 -0.000001 -0.000002 -0.000000 -0.000000 -1.695968
13 42.401634 0.000000 -0.000002 0.523347 0.159091 1.197039
14 23.783970 40.997158 -0.000000 -0.000000 0.000000 1.570796
15 4.401495 0.000000 -0.000000 0.000000 0.000000 0.000000
16 4.401496 0.000001 0.000003 0.000000 0.000000 0.000000
17 0.0 0.0 0.0 0.0 0.0 0.0
18 36.215034 6.866609 -1.550505 -1.449219 -3.141592 -1.388915
19 11.436480 -0.022315 -0.003918 0.173083 0.022529 0.133651
20 28.680401 -0.040427 0.000001 -0.000000 0.000001 -0.296706
21 53.093319 -0.004300 -0.000002 0.000000 0.000000 -0.109626
22 5.437299 -0.000001 0.000001 0.174533 -0.000001 0.536435
23 0.0 0.0 0.0 0.0 0.0 0.0
24 7.287346 -7.277965 -0.000022 -0.000005 0.000001 -2.888855
25 16.348095 -0.013089 0.000002 -0.000000 0.000001 -0.358925
26 0.0 0.0 0.0 0.0 0.0 0.0
27 -16.338430 -1.780903 35.303989 -0.000014 -1.370796 -3.032749
28 32.456375 -0.000002 -0.000006 1.045560 0.888159 1.028507
29 48.985783 -0.000003 -0.000002 0.000000 -0.000000 -0.451598
30 57.408657 0.000001 -0.000001 -1.649027 0.041525 -0.131120
31 1.857338 11.957447 -6.764412 2.802166 -0.065675 0.596223
32 17.066278 0.000009 -0.000014 0.000000 0.000000 0.462512
33 0.0 0.0 0.0 0.0 0.0 0.0
34 21.195383 0.098483 2.688732 -0.000930 0.000232 0.244346
35 12.237206 -0.000001 -0.000000 0.000000 0.000000 0.523599
36 22.646996 -0.000001 0.000001 -0.000000 -0.000000 0.000000
37 18.521778 9.921999 -6.711962 0.063043 -1.563464 0.361102
38 29.943010 -6.360233 -0.330586 -1.408448 -0.000199 1.563748
39 54.015347 -6.529606 -1.891305 -1.408448 -0.000199 1.563748
40 -17.050467 -1.858575 -35.127762 -0.000014 1.370797 -3.032776
41 32.456375 0.000002 -0.000007 -0.616711 -0.899111 0.847721
42 48.985775 -0.000004 0.000003 -0.000000 0.000000 -0.568187
43 57.408661 -0.000001 0.000007 1.596881 -0.064491 0.191413
44 1.857338 11.957443 6.764409 -2.802166 0.065676 0.596223
45 17.066280 0.000004 0.000013 0.000000 -0.000000 0.462512
46 0.0 0.0 0.0 0.0 0.0 0.0
47 21.195385 0.098480 -2.688732 0.000930 -0.000232 0.244346
48 12.237204 0.000001 0.000001 -0.000000 0.000000 0.523599
49 22.646994 0.000004 -0.000001 -0.000000 0.000000 -3.141593
50 16.220613 11.940949 6.827997 3.080433 1.563448 0.380435
51 50.710934 -6.630796 5.648479 -1.750598 0.000056 1.563746
52 25.391733 -6.452418 3.200465 -1.750598 0.000056 1.563746
53 63.683689 39.983017 -0.238106 -1.570796 -0.000001 1.570001
54 39.432274 34.203300 -22.613100 -1.570796 -0.000001 1.570001
55 39.432281 34.203239 22.595676 -1.570796 -0.000001 1.570001
56 63.282028 -0.716972 20.325783 3.141593 0.000000 -0.000001
57 -21.487473 0.019814 19.775335 -0.000000 -3.141592 -0.000002
end
