version 1
nodes
0 "Bip01" -1
1 "Bip01 Footsteps" 0
2 "Bip01 Pelvis" 0
3 "Bip01 L Thigh" 2
4 "Bip01 L Calf" 3
5 "Bip01 L Foot" 4
6 "Bip01 L Toe0" 5
7 "Bip01 L Toe01" 6
8 "Bip01 L Toe02" 7
9 "Null 9" -1
10 "poison05" 4
11 "Bip01 R Thigh" 2
12 "Bip01 R Calf" 11
13 "Bip01 R Foot" 12
14 "Bip01 R Toe0" 13
15 "Bip01 R Toe01" 14
16 "Bip01 R Toe02" 15
17 "Null 17" -1
18 "poison04" 12
19 "Bip01 Spine" 2
20 "Bip01 Spine1" 19
21 "Bip01 Neck" 20
22 "Bip01 Head" 21
23 "Null 23" -1
24 "Bip01 Ponytail1" 22
25 "Bip01 Ponytail11" 24
26 "Null 26" -1
27 "Bip01 L Clavicle" 21
28 "Bip01 L UpperArm" 27
29 "Bip01 L Forearm" 28
30 "Bip01 L Hand" 29
31 "Bip01 L Finger0" 30
32 "Bip01 L Finger01" 31
33 "Null 33" -1
34 "Bip01 L Finger1" 30
35 "Bip01 L Finger11" 34
36 "Bip01 L Finger1Nub" 35
37 "hand_bofdgne01" 30
38 "hand_bofdgne03" 29
39 "hand_bofdgne02" 29
40 "Bip01 R Clavicle" 21
41 "Bip01 R UpperArm" 40
42 "Bip01 R Forearm" 41
43 "Bip01 R Hand" 42
44 "Bip01 R Finger0" 43
45 "Bip01 R Finger01" 44
46 "Null 46" -1
47 "Bip01 R Finger1" 43
48 "Bip01 R Finger11" 47
49 "Bip01 R Finger1Nub" 48
50 "knife_gdf" 43
51 "knife_gdf01" 42
52 "knife_gdf02" 42
53 "poison01" 19
54 "poison03" 19
55 "poison02" 19
56 "poison07" 0
57 "poison06" 0
end
skeleton
time 0
0 0.000000 7.767428 96.549606 0.000000 0.000000 -1.570795
1 0.000000 0.000000 -93.702263 0.000000 0.000000 1.570795
2 0.000000 0.000000 0.000000 -1.570795 -1.570796 0.000000
3 -0.000026 0.000030 18.595530 -0.091518 -2.775535 -0.835649
4 52.281639 0.000005 -0.000000 0.000000 -0.000000 -1.359839
5 42.401630 0.000001 -0.000001 0.005287 -0.172125 0.477897
6 23.783974 40.997162 -0.000004 0.000000 -0.000000 1.570796
7 4.401492 0.000000 -0.000002 0.000000 0.000000 0.000000
8 4.401494 -0.000000 0.000003 0.000000 0.000000 0.000000
9 0.0 0.0 0.0 0.0 0.0 0.0
10 36.276951 6.884859 -1.335222 1.475580 -0.000002 1.752753
11 0.000026 -0.000022 -18.595530 0.363980 2.736742 -0.373413
12 52.281639 0.000000 -0.000001 0.000000 0.000000 -1.422397
13 42.401638 -0.000003 -0.000000 0.052930 0.214486 0.918881
14 23.783972 40.997162 0.000002 -0.000000 0.000000 1.570796
15 4.401492 -0.000000 0.000002 0.000000 0.000000 0.000000
16 4.401493 0.000000 0.000001 0.000000 0.000000 0.000000
17 0.0 0.0 0.0 0.0 0.0 0.0
18 36.215038 6.866610 -1.550505 -1.449219 -3.141592 -1.388915
19 11.444748 -0.019552 -0.003825 0.169042 -0.043626 0.511972
20 28.680395 -0.040420 -0.000001 -0.000000 0.000001 -0.296706
21 53.093937 -0.004326 -0.000001 0.000000 -0.000000 0.030000
22 5.437293 0.000000 0.000000 0.174533 0.000000 0.012836
23 0.0 0.0 0.0 0.0 0.0 0.0
24 7.285630 -7.278543 -0.000019 -0.000005 0.000001 -2.749229
25 16.349968 -0.013657 -0.000001 -0.000000 0.000001 -0.219299
26 0.0 0.0 0.0 0.0 0.0 0.0
27 -16.427870 0.510343 35.303993 -0.000014 -1.370796 3.110810
28 32.456379 -0.000000 -0.000010 0.520939 1.156512 0.496906
29 48.985783 -0.000002 0.000004 -0.000000 -0.000000 -0.451598
30 57.408657 0.000001 -0.000009 -1.649027 0.041525 -0.131120
31 1.857336 11.957444 -6.764411 2.802166 -0.065675 0.596223
32 17.066277 0.000008 -0.000015 0.000000 -0.000000 0.462512
33 0.0 0.0 0.0 0.0 0.0 0.0
34 21.195383 0.098478 2.688732 -0.000930 0.000232 0.244346
35 12.237205 -0.000003 0.000000 0.000000 -0.000000 0.523599
36 22.646997 0.000006 -0.000000 -0.000000 0.000000 0.000000
37 18.521772 9.921998 -6.711960 0.063046 -1.563464 0.361098
38 29.943010 -6.360235 -0.330585 -1.408448 -0.000199 1.563748
39 54.015347 -6.529605 -1.891303 -1.408448 -0.000199 1.563748
40 -17.143806 0.532523 -35.127754 -0.000014 1.370796 3.110783
41 32.456379 0.000001 -0.000010 -0.016729 -1.105058 0.257997
42 48.985783 0.000002 0.000005 -0.000000 -0.000000 -0.568187
43 57.408657 -0.000000 -0.000006 1.596881 -0.064491 0.191413
44 1.857337 11.957442 6.764412 -2.802166 0.065675 0.596223
45 17.066284 0.000004 0.000016 -0.000000 0.000000 0.462512
46 0.0 0.0 0.0 0.0 0.0 0.0
47 21.195383 0.098484 -2.688732 0.000930 -0.000232 0.244346
48 12.237205 0.000001 0.000002 0.000000 0.000000 0.523599
49 22.646992 0.000000 0.000000 0.000000 0.000000 3.141593
50 16.220613 11.940948 6.828000 3.080435 1.563448 0.380439
51 50.710938 -6.630798 5.648471 -1.750598 0.000056 1.563746
52 25.391733 -6.452419 3.200463 -1.750598 0.000056 1.563746
53 63.683689 39.983021 -0.238107 -1.570796 -0.000001 1.570001
54 39.432281 34.203304 -22.613102 -1.570796 -0.000001 1.570001
55 39.432285 34.203247 22.595675 -1.570796 -0.000001 1.570001
56 63.282032 -0.716972 20.325783 3.141593 0.000000 -0.000001
57 -21.487474 0.019814 19.775337 -0.000000 -3.141592 -0.000002
time 1
0 -3.934264 7.767428 112.455719 0.000000 0.000000 -1.570795
1 -0.000000 -0.000000 -109.569855 0.000000 0.000000 1.570795
2 -0.000000 -0.000000 0.000000 -1.570795 -1.570796 0.000000
3 -0.000028 0.000031 18.595530 -0.347576 -2.797405 -0.237677
4 52.281643 0.000001 0.000003 0.000000 0.000000 -0.675922
5 42.401630 -0.000001 -0.000002 0.005492 -0.227880 0.390116
6 23.783972 40.997162 -0.000001 -0.000000 -0.000000 1.570796
7 4.401494 -0.000001 0.000000 0.000000 0.000000 0.000000
8 4.401495 0.000000 -0.000003 0.000000 0.000000 0.000000
9 0.0 0.0 0.0 0.0 0.0 0.0
10 36.276951 6.884858 -1.335223 1.475579 -0.000002 1.752753
11 0.000024 -0.000021 -18.595530 -0.009925 2.875719 -0.898358
12 52.281643 -0.000000 -0.000002 0.000000 -0.000000 -1.915509
13 42.401634 0.000006 -0.000000 -0.010451 0.308274 -0.026690
14 23.783970 40.997154 -0.000002 0.000000 -0.000000 1.570796
15 4.401493 -0.000000 -0.000002 0.000000 0.000000 0.000000
16 4.401494 0.000000 0.000001 0.000000 0.000000 0.000000
17 0.0 0.0 0.0 0.0 0.0 0.0
18 36.215034 6.866611 -1.550505 -1.449219 -3.141592 -1.388915
19 11.444746 -0.019552 -0.003825 0.169042 -0.043626 0.511972
20 28.682192 -0.040632 0.004948 -0.117316 -0.003553 -0.254080
21 53.093945 -0.004325 -0.000000 0.000000 -0.000000 0.030000
22 5.437284 0.000000 0.000000 0.170970 0.003505 -0.029375
23 0.0 0.0 0.0 0.0 0.0 0.0
24 7.285638 -7.278546 -0.000019 -0.000005 0.000001 -2.749229
25 16.349970 -0.013658 -0.000001 -0.000000 0.000001 -0.219299
26 0.0 0.0 0.0 0.0 0.0 0.0
27 -16.427891 0.510345 35.303993 -0.000014 -1.370797 3.110810
28 32.456375 0.000004 0.000012 0.302632 1.118399 0.208027
29 48.985786 -0.000001 -0.000003 0.000000 -0.000000 -0.459312
30 57.408676 -0.000000 -0.000003 -1.634135 0.047593 -0.103015
31 1.857332 11.957449 -6.764410 2.798558 -0.041871 0.663325
32 17.066286 0.000001 -0.000016 -0.000000 0.000000 0.462512
33 0.0 0.0 0.0 0.0 0.0 0.0
34 21.195387 0.098485 2.688735 -0.000930 0.000232 0.244346
35 12.237205 -0.000001 0.000000 0.000000 -0.000000 0.434716
36 22.646992 -0.000001 -0.000000 0.000000 0.000000 -0.000000
37 18.521774 9.922006 -6.711961 0.063045 -1.563464 0.361100
38 29.943014 -6.360233 -0.330584 -1.408448 -0.000199 1.563748
39 54.015347 -6.529604 -1.891301 -1.408448 -0.000199 1.563748
40 -17.143820 0.532520 -35.127758 -0.000014 1.370796 3.110783
41 32.456375 0.000000 -0.000003 0.163883 -1.139720 0.048752
42 48.985775 -0.000000 -0.000003 0.000000 0.000000 -0.528402
43 57.408665 0.000001 -0.000005 1.601842 -0.062181 0.113073
44 1.857332 11.957446 6.764411 -2.798558 0.041871 0.663325
45 17.066284 -0.000001 0.000018 0.000000 -0.000000 0.462512
46 0.0 0.0 0.0 0.0 0.0 0.0
47 21.195383 0.098481 -2.688734 0.000930 -0.000232 0.244346
48 12.237207 0.000002 -0.000002 0.000000 0.000000 0.434716
49 22.646996 -0.000003 0.000003 0.000000 0.000000 -3.141593
50 16.220612 11.940952 6.827998 3.080435 1.563448 0.380439
51 50.710938 -6.630795 5.648468 -1.750598 0.000056 1.563746
52 25.391733 -6.452419 3.200460 -1.750598 0.000056 1.563746
53 63.683689 39.983025 -0.238108 -1.570796 -0.000001 1.570001
54 39.432281 34.203300 -22.613100 -1.570796 -0.000001 1.570001
55 39.432274 34.203247 22.595676 -1.570796 -0.000001 1.570001
56 63.282032 -0.716972 20.325790 3.141593 0.000000 -0.000001
57 -21.487476 0.019814 19.775345 -0.000000 -3.141592 -0.000002
time 2
0 -7.868529 7.767428 101.807838 0.000000 0.000000 -1.570795
1 0.000000 0.000000 -100.066597 0.000000 0.000000 1.570795
2 0.000000 0.000000 0.000000 -1.570795 -1.570796 0.000000
3 -0.000023 0.000031 18.595530 -0.427809 -2.670037 -0.084787
4 52.281643 0.000000 -0.000000 0.000000 -0.000000 -0.948593
5 42.401634 0.000001 -0.000003 -0.033423 -0.383930 0.791714
6 23.783974 40.997162 0.000003 0.000000 0.000000 1.570796
7 4.401495 -0.000000 -0.000002 0.000000 0.000000 0.000000
8 4.401493 0.000000 -0.000003 0.000000 0.000000 0.000000
9 0.0 0.0 0.0 0.0 0.0 0.0
10 36.276955 6.884856 -1.335226 1.475579 -0.000002 1.752753
11 0.000029 -0.000021 -18.595530 0.121524 2.872875 -1.208405
12 52.281639 0.000004 -0.000002 -0.000000 0.000000 -1.456928
13 42.401634 0.000001 -0.000001 0.078309 0.012536 0.014446
14 23.783978 40.997162 0.000000 -0.000000 -0.000000 1.570796
15 4.401495 0.000001 0.000003 0.000000 0.000000 0.000000
16 4.401487 0.000000 0.000001 0.000000 0.000000 0.000000
17 0.0 0.0 0.0 0.0 0.0 0.0
18 36.215038 6.866611 -1.550504 -1.449219 -3.141592 -1.388915
19 11.444743 -0.019552 -0.003825 0.169042 -0.043626 0.511972
20 28.684130 -0.040203 0.009831 -0.234677 -0.002092 -0.211332
21 53.093952 -0.004334 -0.000000 0.000000 -0.000000 0.030000
22 5.437287 0.000001 0.000000 0.167161 0.011922 -0.070888
23 0.0 0.0 0.0 0.0 0.0 0.0
24 7.285628 -7.278541 -0.000020 -0.000005 0.000001 -2.749229
25 16.349964 -0.013654 -0.000000 -0.000000 0.000001 -0.219299
26 0.0 0.0 0.0 0.0 0.0 0.0
27 -16.427889 0.510350 35.303989 -0.000014 -1.370796 3.110810
28 32.456375 0.000001 0.000006 0.149560 1.044624 -0.013451
29 48.985779 -0.000001 0.000003 -0.000000 -0.000000 -0.467027
30 57.408665 0.000000 -0.000002 -1.619075 0.053240 -0.074815
31 1.857333 11.957451 -6.764411 2.796557 -0.017879 0.730292
32 17.066277 0.000004 -0.000013 0.000000 0.000000 0.462512
33 0.0 0.0 0.0 0.0 0.0 0.0
34 21.195385 0.098484 2.688733 -0.000930 0.000232 0.244346
35 12.237203 -0.000004 0.000000 0.000000 -0.000000 0.345834
36 22.646996 -0.000005 0.000001 -0.000000 -0.000000 0.000000
37 18.521776 9.922004 -6.711961 0.063042 -1.563464 0.361100
38 29.943008 -6.360235 -0.330587 -1.408448 -0.000199 1.563748
39 54.015354 -6.529606 -1.891300 -1.408448 -0.000199 1.563748
40 -17.143822 0.532526 -35.127754 -0.000014 1.370796 3.110783
41 32.456375 -0.000002 0.000004 0.364823 -1.165840 -0.181373
42 48.985771 0.000001 -0.000002 0.000000 -0.000000 -0.488616
43 57.408669 -0.000002 0.000006 1.606606 -0.059491 0.034758
44 1.857338 11.957448 6.764412 -2.796557 0.017879 0.730292
45 17.066280 0.000001 0.000012 -0.000000 -0.000000 0.462512
46 0.0 0.0 0.0 0.0 0.0 0.0
47 21.195389 0.098480 -2.688732 0.000930 -0.000232 0.244346
48 12.237204 0.000003 0.000003 0.000000 -0.000000 0.345834
49 22.646996 -0.000002 -0.000003 -0.000000 -0.000000 3.141593
50 16.220613 11.940952 6.827998 3.080433 1.563448 0.380435
51 50.710938 -6.630800 5.648476 -1.750598 0.000056 1.563746
52 25.391733 -6.452422 3.200466 -1.750598 0.000056 1.563746
53 63.683689 39.983017 -0.238107 -1.570796 -0.000001 1.570001
54 39.432285 34.203300 -22.613100 -1.570796 -0.000001 1.570001
55 39.432278 34.203247 22.595675 -1.570796 -0.000001 1.570001
56 63.282036 -0.716972 20.325783 3.141593 0.000000 -0.000001
57 -21.487474 0.019815 19.775337 -0.000000 -3.141592 -0.000002
time 3
0 -9.656831 7.767428 92.085037 0.000000 0.000000 -1.570795
1 0.000000 0.000000 -91.531532 0.000000 0.000000 1.570795
2 0.000000 0.000000 0.000000 -1.570795 -1.570796 0.000000
3 -0.000028 0.000030 18.595530 -0.496777 -2.577194 0.085757
4 52.281647 -0.000002 0.000007 -0.000000 0.000000 -1.153129
5 42.401638 -0.000001 0.000000 -0.020422 -0.534422 0.943954
6 23.783974 40.997162 -0.000000 -0.000000 -0.000000 1.570796
7 4.401493 0.000000 0.000000 0.000000 0.000000 0.000000
8 4.401495 -0.000000 -0.000002 0.000000 0.000000 0.000000
9 0.0 0.0 0.0 0.0 0.0 0.0
10 36.276955 6.884858 -1.335223 1.475580 -0.000002 1.752753
11 0.000024 -0.000022 -18.595530 0.118426 2.872426 -0.980363
12 52.281647 -0.000002 0.000002 -0.000000 0.000000 -1.496238
13 42.401627 -0.000005 0.000001 0.042111 0.048882 0.492694
14 23.783974 40.997162 -0.000002 0.000000 0.000000 1.570796
15 4.401490 0.000000 -0.000002 0.000000 0.000000 0.000000
16 4.401493 0.000000 0.000002 0.000000 0.000000 0.000000
17 0.0 0.0 0.0 0.0 0.0 0.0
18 36.215034 6.866609 -1.550501 -1.449219 -3.141592 -1.388915
19 11.444746 -0.019553 -0.003824 0.169042 -0.043626 0.511972
20 28.685034 -0.039790 0.012007 -0.287979 0.000227 -0.192019
21 53.093929 -0.004327 -0.000000 0.000000 -0.000000 0.030000
22 5.437288 0.000003 0.000000 0.165298 0.017340 -0.089374
23 0.0 0.0 0.0 0.0 0.0 0.0
24 7.285639 -7.278548 -0.000020 -0.000005 0.000001 -2.749229
25 16.349989 -0.013663 -0.000000 -0.000000 0.000001 -0.219299
26 0.0 0.0 0.0 0.0 0.0 0.0
27 -16.427872 0.510346 35.303993 -0.000014 -1.370797 3.110810
28 32.456379 -0.000003 -0.000004 0.103301 1.002849 -0.090407
29 48.985779 0.000001 0.000000 0.000000 0.000000 -0.470533
30 57.408661 -0.000000 -0.000000 -1.612176 0.055666 -0.061967
31 1.857338 11.957447 -6.764408 2.796179 -0.006940 0.760708
32 17.066288 0.000009 -0.000013 -0.000000 -0.000000 0.462512
33 0.0 0.0 0.0 0.0 0.0 0.0
34 21.195389 0.098478 2.688735 -0.000930 0.000232 0.244346
35 12.237205 -0.000001 0.000001 0.000000 -0.000000 0.305433
36 22.646997 -0.000001 0.000002 0.000000 0.000000 0.000000
37 18.521778 9.922003 -6.711959 0.063048 -1.563464 0.361096
38 29.943010 -6.360233 -0.330582 -1.408448 -0.000199 1.563748
39 54.015350 -6.529603 -1.891296 -1.408448 -0.000199 1.563748
40 -17.143812 0.532525 -35.127754 -0.000014 1.370796 3.110783
41 32.456379 0.000000 -0.000005 0.462033 -1.174350 -0.292033
42 48.985783 -0.000003 -0.000002 -0.000000 0.000000 -0.470532
43 57.408657 -0.000001 0.000002 1.608698 -0.058147 -0.000831
44 1.857335 11.957451 6.764410 -2.796179 0.006940 0.760708
45 17.066286 0.000003 0.000013 -0.000000 -0.000000 0.462512
46 0.0 0.0 0.0 0.0 0.0 0.0
47 21.195387 0.098487 -2.688733 0.000930 -0.000232 0.244346
48 12.237205 0.000002 0.000001 0.000000 0.000000 0.305433
49 22.646994 -0.000006 -0.000001 -0.000000 0.000000 -3.141593
50 16.220613 11.940956 6.828000 3.080435 1.563440 0.380437
51 50.710934 -6.630796 5.648476 -1.750598 0.000056 1.563746
52 25.391731 -6.452420 3.200468 -1.750598 0.000056 1.563746
53 63.683689 39.983021 -0.238107 -1.570796 -0.000001 1.570001
54 39.432281 34.203304 -22.613100 -1.570796 -0.000001 1.570001
55 39.432281 34.203243 22.595676 -1.570796 -0.000001 1.570001
56 63.282036 -0.716972 20.325783 3.141593 0.000000 -0.000001
57 -21.487474 0.019815 19.775337 -0.000000 -3.141592 -0.000002
time 4
0 -7.868529 7.767428 113.541656 0.000000 0.000000 -1.570795
1 0.000000 0.000000 -110.655838 0.000000 0.000000 1.570795
2 0.000000 0.000000 0.000000 -1.570795 -1.570796 0.000000
3 -0.000023 0.000031 18.595530 -0.403462 -2.626994 -0.194031
4 52.281643 -0.000000 0.000003 -0.000000 -0.000000 -1.411425
5 42.401630 -0.000000 -0.000001 0.350368 -0.145112 -0.123796
6 23.783976 40.997158 -0.000003 0.000000 0.000000 1.570796
7 4.401495 0.000001 -0.000003 0.000000 0.000000 0.000000
8 4.401494 0.000001 0.000002 0.000000 0.000000 0.000000
9 0.0 0.0 0.0 0.0 0.0 0.0
10 36.276947 6.884859 -1.335224 1.475580 -0.000002 1.752753
11 0.000029 -0.000021 -18.595530 0.300475 2.948441 -0.390425
12 52.281643 0.000001 0.000001 0.000000 -0.000000 -0.664717
13 42.401634 -0.000001 0.000000 0.042064 0.054498 0.259587
14 23.783972 40.997162 -0.000001 0.000000 0.000000 1.570796
15 4.401495 0.000000 0.000001 0.000000 0.000000 0.000000
16 4.401496 -0.000000 0.000001 0.000000 0.000000 0.000000
17 0.0 0.0 0.0 0.0 0.0 0.0
18 36.215038 6.866609 -1.550501 -1.449219 -3.141592 -1.388915
19 11.444751 -0.019552 -0.003824 0.169042 -0.043626 0.511972
20 28.684111 -0.040195 0.009830 -0.234677 -0.002092 -0.211332
21 53.093941 -0.004333 0.000000 0.000000 -0.000000 0.030000
22 5.437280 0.000003 -0.000000 0.167161 0.011922 -0.070888
23 0.0 0.0 0.0 0.0 0.0 0.0
24 7.285623 -7.278542 -0.000020 -0.000005 0.000001 -2.749229
25 16.349968 -0.013650 -0.000000 -0.000000 0.000001 -0.219299
26 0.0 0.0 0.0 0.0 0.0 0.0
27 -16.427896 0.510351 35.303989 -0.000014 -1.370796 3.110810
28 32.456375 0.000002 0.000006 0.149560 1.044624 -0.013451
29 48.985779 0.000002 0.000001 0.000000 -0.000000 -0.467027
30 57.408676 -0.000001 -0.000000 -1.619075 0.053240 -0.074815
31 1.857337 11.957453 -6.764409 2.796557 -0.017879 0.730292
32 17.066280 0.000004 -0.000017 0.000000 -0.000000 0.462512
33 0.0 0.0 0.0 0.0 0.0 0.0
34 21.195387 0.098485 2.688736 -0.000930 0.000232 0.244346
35 12.237204 0.000003 -0.000002 0.000000 -0.000000 0.345834
36 22.646994 -0.000003 0.000000 -0.000000 0.000000 0.000000
37 18.521776 9.922003 -6.711959 0.063039 -1.563464 0.361104
38 29.943012 -6.360233 -0.330579 -1.408448 -0.000199 1.563748
39 54.015347 -6.529605 -1.891296 -1.408448 -0.000199 1.563748
40 -17.143829 0.532526 -35.127754 -0.000014 1.370796 3.110783
41 32.456375 0.000001 0.000006 0.364823 -1.165840 -0.181373
42 48.985786 -0.000001 -0.000002 0.000000 -0.000000 -0.488616
43 57.408661 -0.000001 0.000004 1.606606 -0.059491 0.034758
44 1.857337 11.957448 6.764411 -2.796557 0.017879 0.730292
45 17.066280 0.000002 0.000014 -0.000000 -0.000000 0.462512
46 0.0 0.0 0.0 0.0 0.0 0.0
47 21.195387 0.098481 -2.688731 0.000930 -0.000232 0.244346
48 12.237205 0.000002 -0.000002 0.000000 -0.000000 0.345834
49 22.646999 0.000000 -0.000003 -0.000000 -0.000000 -3.141593
50 16.220617 11.940953 6.827998 3.080433 1.563448 0.380435
51 50.710938 -6.630795 5.648475 -1.750598 0.000056 1.563746
52 25.391733 -6.452419 3.200465 -1.750598 0.000056 1.563746
53 63.683689 39.983025 -0.238108 -1.570796 -0.000001 1.570001
54 39.432278 34.203300 -22.613100 -1.570796 -0.000001 1.570001
55 39.432274 34.203247 22.595675 -1.570796 -0.000001 1.570001
56 63.282036 -0.716972 20.325790 3.141593 0.000000 -0.000001
57 -21.487474 0.019815 19.775345 -0.000000 -3.141592 -0.000002
time 5
0 -3.934265 7.767428 107.541687 0.000000 0.000000 -1.570795
1 -0.000000 -0.000000 -106.403030 0.000000 0.000000 1.570795
2 -0.000000 -0.000000 0.000000 -1.570795 -1.570796 0.000000
3 -0.000028 0.000031 18.595530 -0.159835 -2.713681 -0.867433
4 52.281639 -0.000000 0.000000 0.000000 -0.000000 -1.312895
5 42.401630 -0.000001 0.000002 0.096476 -0.134205 -0.194272
6 23.783974 40.997154 -0.000000 -0.000000 -0.000000 1.570796
7 4.401494 -0.000000 -0.000001 0.000000 0.000000 0.000000
8 4.401494 -0.000001 0.000002 0.000000 0.000000 0.000000
9 0.0 0.0 0.0 0.0 0.0 0.0
10 36.276951 6.884860 -1.335223 1.475580 -0.000002 1.752753
11 0.000024 -0.000021 -18.595530 0.343638 2.853922 -0.402643
12 52.281635 0.000001 -0.000003 -0.000000 0.000000 -1.040989
13 42.401630 -0.000001 -0.000001 0.041729 0.113264 0.575616
14 23.783972 40.997158 -0.000002 0.000000 0.000000 1.570796
15 4.401495 0.000000 -0.000004 0.000000 0.000000 0.000000
16 4.401495 -0.000000 0.000002 0.000000 0.000000 0.000000
17 0.0 0.0 0.0 0.0 0.0 0.0
18 36.215038 6.866607 -1.550504 -1.449219 -3.141592 -1.388915
19 11.444746 -0.019552 -0.003825 0.169042 -0.043626 0.511972
20 28.682196 -0.040632 0.004948 -0.117316 -0.003553 -0.254080
21 53.093937 -0.004328 0.000000 0.000000 -0.000000 0.030000
22 5.437298 -0.000000 -0.000000 0.170970 0.003505 -0.029375
23 0.0 0.0 0.0 0.0 0.0 0.0
24 7.285644 -7.278548 -0.000019 -0.000005 0.000001 -2.749229
25 16.349976 -0.013653 -0.000000 -0.000000 0.000001 -0.219299
26 0.0 0.0 0.0 0.0 0.0 0.0
27 -16.427877 0.510345 35.303993 -0.000014 -1.370797 3.110810
28 32.456375 0.000003 0.000007 0.302632 1.118399 0.208027
29 48.985783 -0.000003 0.000005 -0.000000 -0.000000 -0.459312
30 57.408676 -0.000000 -0.000002 -1.634135 0.047593 -0.103015
31 1.857331 11.957451 -6.764410 2.798558 -0.041871 0.663324
32 17.066284 0.000002 -0.000015 0.000000 -0.000000 0.462512
33 0.0 0.0 0.0 0.0 0.0 0.0
34 21.195387 0.098486 2.688735 -0.000930 0.000232 0.244346
35 12.237203 0.000003 -0.000000 -0.000000 -0.000000 0.434716
36 22.646992 -0.000002 0.000000 0.000000 0.000000 -0.000000
37 18.521774 9.922007 -6.711961 0.063045 -1.563464 0.361100
38 29.943012 -6.360233 -0.330583 -1.408448 -0.000199 1.563748
39 54.015347 -6.529604 -1.891300 -1.408448 -0.000199 1.563748
40 -17.143806 0.532520 -35.127758 -0.000014 1.370796 3.110783
41 32.456375 -0.000001 -0.000008 0.163883 -1.139720 0.048752
42 48.985767 0.000000 0.000005 0.000000 -0.000000 -0.528402
43 57.408669 0.000001 -0.000004 1.601842 -0.062181 0.113073
44 1.857337 11.957446 6.764409 -2.798558 0.041871 0.663325
45 17.066278 0.000006 0.000017 -0.000000 0.000000 0.462512
46 0.0 0.0 0.0 0.0 0.0 0.0
47 21.195383 0.098479 -2.688735 0.000930 -0.000232 0.244346
48 12.237205 -0.000004 -0.000001 -0.000000 -0.000000 0.434716
49 22.646992 0.000002 -0.000000 -0.000000 -0.000000 3.141593
50 16.220610 11.940949 6.827995 3.080435 1.563440 0.380437
51 50.710938 -6.630795 5.648469 -1.750598 0.000056 1.563746
52 25.391737 -6.452418 3.200461 -1.750598 0.000056 1.563746
53 63.683693 39.983025 -0.238108 -1.570796 -0.000001 1.570001
54 39.432285 34.203300 -22.613102 -1.570796 -0.000001 1.570001
55 39.432281 34.203247 22.595675 -1.570796 -0.000001 1.570001
56 63.282032 -0.716972 20.325783 3.141593 0.000000 -0.000001
57 -21.487476 0.019814 19.775337 -0.000000 -3.141592 -0.000002
time 6
0 0.000000 7.767428 96.549606 0.000000 0.000000 -1.570795
1 0.000000 0.000000 -94.537354 0.000000 0.000000 1.570795
2 0.000000 0.000000 0.000000 -1.570795 -1.570796 0.000000
3 -0.000026 0.000030 18.595530 -0.091720 -2.775402 -0.835636
4 52.281643 0.000002 -0.000001 -0.000000 -0.000000 -1.359839
5 42.401634 0.000002 -0.000002 0.005519 -0.172058 0.477857
6 23.783974 40.997162 -0.000004 0.000000 -0.000000 1.570796
7 4.401492 0.000000 -0.000002 0.000000 0.000000 0.000000
8 4.401494 -0.000000 0.000003 0.000000 0.000000 0.000000
9 0.0 0.0 0.0 0.0 0.0 0.0
10 36.276951 6.884859 -1.335222 1.475580 -0.000002 1.752753
11 0.000026 -0.000022 -18.595530 0.363865 2.736812 -0.373441
12 52.281643 -0.000001 -0.000001 -0.000000 0.000000 -1.422397
13 42.401630 -0.000000 0.000000 0.053060 0.214471 0.918909
14 23.783972 40.997162 0.000003 -0.000000 0.000000 1.570796
15 4.401495 -0.000000 0.000003 0.000000 0.000000 0.000000
16 4.401496 0.000000 -0.000002 0.000000 0.000000 0.000000
17 0.0 0.0 0.0 0.0 0.0 0.0
18 36.215042 6.866609 -1.550504 -1.449219 -3.141592 -1.388915
19 11.444748 -0.019552 -0.003825 0.169042 -0.043626 0.511972
20 28.680395 -0.040420 -0.000001 -0.000000 0.000001 -0.296706
21 53.093937 -0.004326 -0.000001 0.000000 -0.000000 0.030000
22 5.437293 0.000000 0.000000 0.174533 0.000000 0.012836
23 0.0 0.0 0.0 0.0 0.0 0.0
24 7.285630 -7.278543 -0.000019 -0.000005 0.000001 -2.749229
25 16.349968 -0.013657 -0.000001 -0.000000 0.000001 -0.219299
26 0.0 0.0 0.0 0.0 0.0 0.0
27 -16.427870 0.510343 35.303993 -0.000014 -1.370796 3.110810
28 32.456379 -0.000000 -0.000010 0.520939 1.156512 0.496906
29 48.985783 -0.000002 0.000004 -0.000000 -0.000000 -0.451598
30 57.408657 0.000001 -0.000009 -1.649027 0.041525 -0.131120
31 1.857336 11.957444 -6.764411 2.802166 -0.065675 0.596223
32 17.066277 0.000008 -0.000015 0.000000 -0.000000 0.462512
33 0.0 0.0 0.0 0.0 0.0 0.0
34 21.195383 0.098478 2.688732 -0.000930 0.000232 0.244346
35 12.237205 -0.000003 0.000000 0.000000 -0.000000 0.523599
36 22.646997 0.000006 -0.000000 -0.000000 0.000000 0.000000
37 18.521772 9.921998 -6.711960 0.063046 -1.563464 0.361098
38 29.943010 -6.360235 -0.330585 -1.408448 -0.000199 1.563748
39 54.015347 -6.529605 -1.891303 -1.408448 -0.000199 1.563748
40 -17.143806 0.532523 -35.127754 -0.000014 1.370796 3.110783
41 32.456379 0.000001 -0.000010 -0.016729 -1.105058 0.257997
42 48.985783 0.000002 0.000005 -0.000000 -0.000000 -0.568187
43 57.408657 -0.000000 -0.000006 1.596881 -0.064491 0.191413
44 1.857337 11.957442 6.764412 -2.802166 0.065675 0.596223
45 17.066284 0.000004 0.000016 -0.000000 0.000000 0.462512
46 0.0 0.0 0.0 0.0 0.0 0.0
47 21.195383 0.098484 -2.688732 0.000930 -0.000232 0.244346
48 12.237205 0.000001 0.000002 0.000000 0.000000 0.523599
49 22.646992 0.000000 0.000000 0.000000 0.000000 3.141593
50 16.220613 11.940948 6.828000 3.080435 1.563448 0.380439
51 50.710938 -6.630798 5.648471 -1.750598 0.000056 1.563746
52 25.391733 -6.452419 3.200463 -1.750598 0.000056 1.563746
53 63.683689 39.983021 -0.238107 -1.570796 -0.000001 1.570001
54 39.432281 34.203304 -22.613102 -1.570796 -0.000001 1.570001
55 39.432285 34.203247 22.595675 -1.570796 -0.000001 1.570001
56 63.282032 -0.716972 20.325783 3.141593 0.000000 -0.000001
57 -21.487474 0.019814 19.775337 -0.000000 -3.141592 -0.000002
end
