version 1
nodes
0 "Bip01" -1
1 "Bip01 Footsteps" 0
2 "Bip01 Pelvis" 0
3 "Bip01 L Thigh" 2
4 "Bip01 L Calf" 3
5 "Bip01 L Foot" 4
6 "Bip01 L Toe0" 5
7 "Bip01 L Toe01" 6
8 "Bip01 L Toe02" 7
9 "Null 9" -1
10 "poison05" 4
11 "Bip01 R Thigh" 2
12 "Bip01 R Calf" 11
13 "Bip01 R Foot" 12
14 "Bip01 R Toe0" 13
15 "Bip01 R Toe01" 14
16 "Bip01 R Toe02" 15
17 "Null 17" -1
18 "poison04" 12
19 "Bip01 Spine" 2
20 "Bip01 Spine1" 19
21 "Bip01 Neck" 20
22 "Bip01 Head" 21
23 "Null 23" -1
24 "Bip01 Ponytail1" 22
25 "Bip01 Ponytail11" 24
26 "Null 26" -1
27 "Bip01 L Clavicle" 21
28 "Bip01 L UpperArm" 27
29 "Bip01 L Forearm" 28
30 "Bip01 L Hand" 29
31 "Bip01 L Finger0" 30
32 "Bip01 L Finger01" 31
33 "Null 33" -1
34 "Bip01 L Finger1" 30
35 "Bip01 L Finger11" 34
36 "Bip01 L Finger1Nub" 35
37 "hand_bofdgne01" 30
38 "hand_bofdgne03" 29
39 "hand_bofdgne02" 29
40 "Bip01 R Clavicle" 21
41 "Bip01 R UpperArm" 40
42 "Bip01 R Forearm" 41
43 "Bip01 R Hand" 42
44 "Bip01 R Finger0" 43
45 "Bip01 R Finger01" 44
46 "Null 46" -1
47 "Bip01 R Finger1" 43
48 "Bip01 R Finger11" 47
49 "Bip01 R Finger1Nub" 48
50 "knife_gdf" 43
51 "knife_gdf01" 42
52 "knife_gdf02" 42
53 "poison01" 19
54 "poison03" 19
55 "poison02" 19
56 "poison07" 0
57 "poison06" 0
end
skeleton
time 0
0 0.000000 7.767428 93.663780 0.000000 0.000000 -1.570795
1 0.000000 0.000000 -93.620575 0.000000 0.000000 1.570795
2 0.000000 0.000000 0.000000 -1.570795 -1.570796 0.000000
3 -0.000026 0.000030 18.595530 -0.091518 -2.775536 -0.835649
4 52.281639 -0.000003 0.000002 -0.000000 0.000000 -1.359840
5 42.401630 0.000001 -0.000003 0.005288 -0.172125 0.477898
6 23.783972 40.997158 0.000001 0.000000 0.000000 1.570796
7 4.401494 -0.000000 -0.000002 0.000000 0.000000 0.000000
8 4.401490 -0.000000 0.000004 0.000000 0.000000 0.000000
9 0.0 0.0 0.0 0.0 0.0 0.0
10 36.276955 6.884859 -1.335225 1.475580 -0.000002 1.752753
11 0.000026 -0.000022 -18.595530 0.363980 2.736743 -0.373412
12 52.281639 -0.000000 -0.000002 -0.000000 0.000000 -1.422397
13 42.401630 -0.000000 -0.000003 0.052930 0.214486 0.918881
14 23.783974 40.997158 0.000002 0.000000 -0.000000 1.570796
15 4.401495 -0.000000 0.000004 0.000000 0.000000 0.000000
16 4.401495 -0.000000 -0.000002 0.000000 0.000000 0.000000
17 0.0 0.0 0.0 0.0 0.0 0.0
18 36.215038 6.866612 -1.550506 -1.449219 -3.141592 -1.388915
19 11.436470 -0.022314 -0.003918 0.173083 0.022529 0.133651
20 28.680408 -0.040427 0.000001 -0.000000 0.000001 -0.296706
21 53.093929 -0.004327 0.000000 0.000000 -0.000000 0.030000
22 5.437294 -0.000000 -0.000000 0.174533 -0.000001 0.396808
23 0.0 0.0 0.0 0.0 0.0 0.0
24 7.285634 -7.278542 -0.000020 -0.000005 0.000001 -2.749229
25 16.349979 -0.013647 0.000001 -0.000000 0.000001 -0.219299
26 0.0 0.0 0.0 0.0 0.0 0.0
27 -16.427885 0.510344 35.303997 -0.000014 -1.370796 3.110810
28 32.456375 -0.000001 0.000013 1.045560 0.888159 1.028507
29 48.985786 -0.000001 -0.000003 0.000000 -0.000000 -0.451598
30 57.408661 -0.000005 -0.000001 -1.649027 0.041525 -0.131120
31 1.857337 11.957446 -6.764408 2.802166 -0.065675 0.596223
32 17.066282 0.000003 -0.000014 0.000000 -0.000000 0.462512
33 0.0 0.0 0.0 0.0 0.0 0.0
34 21.195385 0.098480 2.688734 -0.000930 0.000232 0.244346
35 12.237203 0.000002 0.000003 0.000000 -0.000000 0.523599
36 22.646994 0.000002 -0.000000 -0.000000 0.000000 0.000000
37 18.521774 9.922000 -6.711961 0.063046 -1.563464 0.361098
38 29.943012 -6.360236 -0.330585 -1.408448 -0.000199 1.563748
39 54.015350 -6.529608 -1.891302 -1.408448 -0.000199 1.563748
40 -17.143808 0.532521 -35.127758 -0.000014 1.370796 3.110783
41 32.456387 0.000002 0.000006 -0.616711 -0.899111 0.847721
42 48.985783 0.000001 0.000005 -0.000000 -0.000000 -0.568187
43 57.408657 -0.000002 -0.000006 1.596881 -0.064491 0.191413
44 1.857336 11.957444 6.764410 -2.802166 0.065675 0.596223
45 17.066282 0.000004 0.000014 -0.000000 0.000000 0.462512
46 0.0 0.0 0.0 0.0 0.0 0.0
47 21.195383 0.098485 -2.688733 0.000930 -0.000232 0.244346
48 12.237206 -0.000000 0.000001 0.000000 0.000000 0.523599
49 22.646990 -0.000004 0.000001 0.000000 0.000000 3.141593
50 16.220613 11.940950 6.827998 3.080435 1.563448 0.380439
51 50.710938 -6.630798 5.648471 -1.750598 0.000056 1.563746
52 25.391731 -6.452420 3.200463 -1.750598 0.000056 1.563746
53 63.683685 39.983025 -0.238107 -1.570796 -0.000001 1.570001
54 39.432278 34.203308 -22.613102 -1.570796 -0.000001 1.570001
55 39.432289 34.203243 22.595678 -1.570796 -0.000001 1.570001
56 63.282032 -0.716972 20.325783 3.141593 0.000000 -0.000001
57 -21.487474 0.019814 19.775337 -0.000000 -3.141592 -0.000002
time 1
0 -19.276268 22.678230 80.549782 0.000268 -0.044178 -1.575163
1 -3.557346 -0.021557 -80.471161 0.044178 0.000075 1.575159
2 0.000000 0.000001 -0.000000 -1.570795 -1.570796 0.000000
3 -0.000025 0.000030 18.595530 0.108319 -2.341448 -1.527672
4 52.281639 0.000003 -0.000002 -0.000000 0.000000 -1.667490
5 42.401634 -0.000000 -0.000001 0.293566 -0.247768 0.315294
6 23.783974 40.997162 -0.000003 0.000000 0.000000 1.570796
7 4.401493 0.000002 -0.000000 0.000000 0.000000 0.000000
8 4.401498 -0.000001 0.000000 0.000000 0.000000 0.000000
9 0.0 0.0 0.0 0.0 0.0 0.0
10 36.276955 6.884861 -1.335226 1.475580 -0.000002 1.752753
11 0.000032 -0.000022 -18.595530 0.506741 2.909918 -0.639372
12 52.281643 0.000004 -0.000002 0.000000 0.000000 -1.847374
13 42.401634 -0.000003 0.000004 0.011491 -0.151668 1.145212
14 23.783974 40.997162 0.000003 0.000000 -0.000000 1.570796
15 4.401492 -0.000000 -0.000003 0.000000 0.000000 0.000000
16 4.401495 -0.000000 0.000002 0.000000 0.000000 0.000000
17 0.0 0.0 0.0 0.0 0.0 0.0
18 36.215034 6.866607 -1.550501 -1.449219 -3.141592 -1.388915
19 11.442927 -0.019135 0.008277 -0.370290 -0.035824 0.468890
20 28.680403 -0.040424 -0.000003 -0.000000 0.000001 -0.296706
21 53.093945 -0.004327 -0.000000 0.000000 -0.000000 0.030000
22 5.437289 -0.000001 -0.000001 0.705882 0.107289 0.085689
23 0.0 0.0 0.0 0.0 0.0 0.0
24 7.285626 -7.278542 -0.000021 -0.000005 0.000001 -2.749229
25 16.349985 -0.013660 -0.000000 -0.000000 0.000001 -0.219299
26 0.0 0.0 0.0 0.0 0.0 0.0
27 -16.427885 0.510344 35.303993 -0.000014 -1.370796 3.110810
28 32.456379 0.000003 -0.000000 -0.531820 -0.203020 -0.217498
29 48.985779 -0.000000 0.000001 0.000000 -0.000000 -1.786775
30 57.408669 0.000008 -0.000003 -2.938093 -0.098671 -0.244798
31 1.857332 11.957449 -6.764407 2.806056 0.083891 1.015808
32 17.066278 -0.000006 -0.000026 -0.000000 -0.000000 0.942478
33 0.0 0.0 0.0 0.0 0.0 0.0
34 21.195389 0.098480 2.688733 -0.000861 0.000420 0.453785
35 12.237205 -0.000010 -0.000006 -0.000000 -0.000000 1.614430
36 22.646996 -0.000000 0.000002 0.000000 0.000000 0.000000
37 18.521772 9.922003 -6.711955 0.063043 -1.563464 0.361102
38 29.943016 -6.360232 -0.330578 -1.408448 -0.000199 1.563748
39 54.015343 -6.529604 -1.891303 -1.408448 -0.000199 1.563748
40 -17.143824 0.532525 -35.127758 -0.000014 1.370796 3.110783
41 32.456383 -0.000002 -0.000003 0.569020 0.091863 -1.202453
42 48.985779 0.000005 -0.000005 -0.000000 -0.000000 -1.786775
43 57.408672 -0.000004 0.000009 2.938093 0.098671 -0.244798
44 1.857332 11.957453 6.764402 -2.806056 -0.083891 1.015808
45 17.066277 -0.000003 0.000027 0.000000 -0.000000 0.942478
46 0.0 0.0 0.0 0.0 0.0 0.0
47 21.195379 0.098486 -2.688745 0.000861 -0.000420 0.453785
48 12.237204 -0.000002 -0.000011 -0.000000 0.000000 1.614430
49 22.646986 -0.000000 0.000010 -0.000000 0.000000 -3.141593
50 16.220610 11.940956 6.827993 3.080435 1.563440 0.380437
51 50.710941 -6.630800 5.648483 -1.750598 0.000056 1.563746
52 25.391733 -6.452419 3.200466 -1.750598 0.000056 1.563746
53 63.683693 39.983021 -0.238110 -1.570796 -0.000001 1.570001
54 39.432285 34.203304 -22.613102 -1.570796 -0.000001 1.570001
55 39.432285 34.203243 22.595675 -1.570796 -0.000001 1.570001
56 63.282036 -0.716972 20.325779 3.141593 0.000000 -0.000001
57 -21.487476 0.019814 19.775339 -0.000000 -3.141592 -0.000002
time 2
0 19.242466 -55.682552 69.027580 0.000000 -0.078540 -1.570795
1 -5.415839 -0.000001 -68.814751 0.078540 0.000000 1.570795
2 -0.000001 -0.000001 0.000001 -1.570795 -1.570796 0.000000
3 -0.000029 0.000029 18.595531 0.081895 -2.888422 -0.984213
4 52.281643 -0.000009 0.000000 0.000000 0.000000 -2.123593
5 42.401634 -0.000004 0.000002 -0.148870 -0.194129 1.053427
6 23.783974 40.997158 0.000000 0.000000 0.000000 1.570796
7 4.401495 0.000000 0.000004 0.000000 0.000000 0.000000
8 4.401489 0.000000 -0.000001 0.000000 0.000000 0.000000
9 0.0 0.0 0.0 0.0 0.0 0.0
10 36.276947 6.884859 -1.335222 1.475580 -0.000002 1.752753
11 0.000022 -0.000022 -18.595530 0.499575 2.834845 1.124159
12 52.281647 -0.000004 0.000001 0.000000 -0.000000 -0.000977
13 42.401630 -0.000003 0.000001 0.536822 0.579233 0.963901
14 23.783974 40.997158 0.000002 -0.000000 -0.000000 1.570796
15 4.401497 0.000000 0.000002 0.000000 0.000000 0.000000
16 4.401493 0.000000 -0.000003 0.000000 0.000000 0.000000
17 0.0 0.0 0.0 0.0 0.0 0.0
18 36.215034 6.866607 -1.550504 -1.449219 -3.141592 -1.388915
19 11.439467 -0.019759 -0.009821 0.444992 -0.004889 0.288301
20 28.680405 -0.040425 0.000002 -0.000000 0.000001 -0.296706
21 53.093937 -0.004323 -0.000003 0.000000 -0.000000 0.030000
22 5.437279 -0.000003 -0.000000 -0.095905 -0.006996 0.240680
23 0.0 0.0 0.0 0.0 0.0 0.0
24 7.285627 -7.278545 -0.000019 -0.000005 0.000001 -2.749229
25 16.349981 -0.013663 -0.000001 -0.000000 0.000001 -0.219299
26 0.0 0.0 0.0 0.0 0.0 0.0
27 -16.427891 0.510340 35.303997 -0.000014 -1.370796 3.110810
28 32.456383 0.000001 0.000005 0.409750 0.163671 1.416030
29 48.985783 -0.000003 -0.000000 0.000000 -0.000000 -0.573771
30 57.408680 -0.000001 0.000012 -3.100696 -0.046924 0.701550
31 1.857328 11.957449 -6.764403 2.877615 0.225530 1.471196
32 17.066278 -0.000003 -0.000005 0.000000 -0.000000 0.471239
33 0.0 0.0 0.0 0.0 0.0 0.0
34 21.195387 0.098480 2.688734 -0.000958 -0.000017 -0.017454
35 12.237196 -0.000005 -0.000015 -0.000000 0.000000 1.143191
36 22.646997 -0.000004 0.000001 0.000000 -0.000000 0.000000
37 18.521776 9.922001 -6.711961 0.063046 -1.563464 0.361094
38 29.943012 -6.360233 -0.330575 -1.408448 -0.000199 1.563748
39 54.015350 -6.529606 -1.891294 -1.408448 -0.000199 1.563748
40 -17.143814 0.532519 -35.127758 -0.000014 1.370796 3.110783
41 32.456383 -0.000000 -0.000010 -0.286194 -0.127374 1.164416
42 48.985786 0.000006 0.000001 0.000000 -0.000000 -0.573771
43 57.408680 0.000001 0.000001 3.100696 0.046925 0.701550
44 1.857331 11.957451 6.764411 -2.877615 -0.225530 1.471196
45 17.066284 0.000004 0.000007 -0.000000 -0.000000 0.471239
46 0.0 0.0 0.0 0.0 0.0 0.0
47 21.195379 0.098481 -2.688734 0.000861 -0.000420 0.453785
48 12.237199 -0.000002 -0.000010 -0.000000 0.000000 1.143191
49 22.646994 -0.000001 0.000007 -0.000000 0.000000 -3.141593
50 16.220610 11.940956 6.827997 3.080433 1.563448 0.380435
51 50.710938 -6.630794 5.648473 -1.750598 0.000056 1.563746
52 25.391735 -6.452418 3.200468 -1.750598 0.000056 1.563746
53 63.683689 39.983032 -0.238111 -1.570796 -0.000001 1.570001
54 39.432285 34.203308 -22.613104 -1.570796 -0.000001 1.570001
55 39.432281 34.203247 22.595676 -1.570796 -0.000001 1.570001
56 63.282032 -0.716973 20.325787 3.141593 0.000000 -0.000001
57 -21.487478 0.019813 19.775337 -0.000000 -3.141592 -0.000002
time 3
0 19.242466 -55.682552 69.027580 -0.003453 -0.083379 -1.528104
1 -5.747370 0.237465 -68.770462 0.083450 0.000105 1.528252
2 0.000001 -0.000001 0.000004 -1.570795 -1.570796 0.000000
3 -0.000023 0.000031 18.595531 0.081370 -2.894706 -1.004323
4 52.281639 -0.000011 -0.000001 -0.000000 -0.000000 -2.121840
5 42.401630 -0.000001 0.000001 -0.107242 -0.182816 1.027826
6 23.783976 40.997162 0.000000 0.000000 -0.000000 1.570796
7 4.401495 -0.000000 0.000004 0.000000 0.000000 0.000000
8 4.401490 -0.000000 -0.000001 0.000000 0.000000 0.000000
9 0.0 0.0 0.0 0.0 0.0 0.0
10 36.276951 6.884861 -1.335224 1.475580 -0.000002 1.752753
11 0.000029 -0.000019 -18.595530 0.482605 2.875484 1.138086
12 52.281647 0.000003 0.000002 0.000000 0.000000 -0.000977
13 42.401638 0.000002 -0.000003 0.561220 0.548647 0.981067
14 23.783976 40.997158 0.000002 -0.000000 0.000000 1.570796
15 4.401494 -0.000000 0.000000 0.000000 0.000000 0.000000
16 4.401495 -0.000000 -0.000002 0.000000 0.000000 0.000000
17 0.0 0.0 0.0 0.0 0.0 0.0
18 36.215038 6.866610 -1.550506 -1.449219 -3.141592 -1.388915
19 11.438793 -0.018683 -0.012047 0.556258 0.004343 0.275646
20 28.680397 -0.040420 -0.000003 -0.000000 0.000001 -0.296706
21 53.093941 -0.004324 0.000000 0.000000 -0.000000 0.030000
22 5.437288 -0.000002 0.000001 -0.207115 -0.011001 0.257238
23 0.0 0.0 0.0 0.0 0.0 0.0
24 7.285610 -7.278540 -0.000021 -0.000005 0.000001 -2.749229
25 16.349958 -0.013642 0.000000 -0.000000 0.000001 -0.219299
26 0.0 0.0 0.0 0.0 0.0 0.0
27 -16.427891 0.510346 35.303993 -0.000014 -1.370796 3.110810
28 32.456379 -0.000002 -0.000000 0.451314 0.135102 1.321613
29 48.985775 0.000001 0.000003 0.000000 -0.000000 -0.573771
30 57.408672 -0.000008 -0.000001 -3.100696 -0.046925 0.701550
31 1.857333 11.957444 -6.764410 2.877615 0.225530 1.471196
32 17.066271 0.000000 -0.000005 -0.000000 0.000000 0.471239
33 0.0 0.0 0.0 0.0 0.0 0.0
34 21.195385 0.098484 2.688734 -0.000958 -0.000017 -0.017454
35 12.237203 -0.000002 -0.000006 0.000000 0.000000 1.143191
36 22.646996 -0.000006 -0.000009 -0.000000 -0.000000 0.000000
37 18.521772 9.922006 -6.711960 0.063043 -1.563464 0.361102
38 29.943010 -6.360232 -0.330581 -1.408448 -0.000199 1.563748
39 54.015350 -6.529603 -1.891297 -1.408448 -0.000199 1.563748
40 -17.143820 0.532514 -35.127754 -0.000014 1.370796 3.110783
41 32.456383 0.000002 0.000002 -0.251538 -0.120785 1.266895
42 48.985783 -0.000001 -0.000003 0.000000 -0.000000 -0.573771
43 57.408676 0.000002 0.000013 3.100696 0.046924 0.701550
44 1.857336 11.957446 6.764406 -2.877615 -0.225530 1.471196
45 17.066280 -0.000001 0.000009 0.000000 0.000000 0.471239
46 0.0 0.0 0.0 0.0 0.0 0.0
47 21.195383 0.098484 -2.688730 0.000861 -0.000420 0.453785
48 12.237204 -0.000000 0.000000 -0.000000 -0.000000 1.143191
49 22.646997 -0.000000 -0.000004 -0.000000 0.000000 -3.141593
50 16.220608 11.940950 6.827992 3.080435 1.563448 0.380439
51 50.710938 -6.630797 5.648478 -1.750598 0.000056 1.563746
52 25.391735 -6.452416 3.200470 -1.750598 0.000056 1.563746
53 63.683689 39.983025 -0.238105 -1.570796 -0.000001 1.570001
54 39.432274 34.203304 -22.613100 -1.570796 -0.000001 1.570001
55 39.432281 34.203247 22.595678 -1.570796 -0.000001 1.570001
56 63.282036 -0.716973 20.325790 3.141593 0.000000 -0.000001
57 -21.487476 0.019813 19.775341 -0.000000 -3.141592 -0.000002
time 4
0 19.242466 -55.682552 69.027580 -0.005490 -0.078348 -1.500767
1 -5.399266 0.377553 -68.771713 0.078540 0.000000 1.500982
2 0.000001 -0.000000 0.000001 -1.570795 -1.570796 0.000000
3 -0.000030 0.000031 18.595531 0.081484 -2.900624 -1.024721
4 52.281643 0.000004 0.000003 0.000000 0.000000 -2.120371
5 42.401638 -0.000001 -0.000001 -0.082706 -0.175489 1.011846
6 23.783974 40.997158 -0.000002 0.000000 -0.000000 1.570796
7 4.401495 -0.000000 0.000001 0.000000 0.000000 0.000000
8 4.401490 -0.000000 -0.000001 0.000000 0.000000 0.000000
9 0.0 0.0 0.0 0.0 0.0 0.0
10 36.276958 6.884854 -1.335227 1.475580 -0.000002 1.752753
11 0.000027 -0.000022 -18.595530 0.474877 2.901382 1.138495
12 52.281639 -0.000006 0.000002 0.000000 -0.000000 -0.000977
13 42.401634 -0.000000 0.000002 0.574258 0.531733 0.990324
14 23.783968 40.997158 0.000000 0.000000 -0.000000 1.570796
15 4.401497 0.000000 0.000001 0.000000 0.000000 0.000000
16 4.401493 0.000000 -0.000000 0.000000 0.000000 0.000000
17 0.0 0.0 0.0 0.0 0.0 0.0
18 36.215038 6.866609 -1.550502 -1.449219 -3.141592 -1.388915
19 11.439296 -0.019141 -0.011061 0.506079 -0.004932 0.288278
20 28.680407 -0.040429 0.000001 -0.000000 0.000001 -0.296706
21 53.093941 -0.004323 -0.000001 0.000000 -0.000000 0.030000
22 5.437288 0.000003 0.000000 -0.156974 -0.008523 0.241154
23 0.0 0.0 0.0 0.0 0.0 0.0
24 7.285617 -7.278541 -0.000021 -0.000005 0.000001 -2.749229
25 16.349962 -0.013649 -0.000000 -0.000000 0.000001 -0.219299
26 0.0 0.0 0.0 0.0 0.0 0.0
27 -16.427887 0.510352 35.303993 -0.000014 -1.370796 3.110810
28 32.456375 -0.000004 0.000003 0.429664 0.155487 1.361939
29 48.985779 -0.000003 0.000005 0.000000 -0.000000 -0.573771
30 57.408672 -0.000001 0.000001 -3.100696 -0.046924 0.701550
31 1.857341 11.957449 -6.764409 2.877615 0.225530 1.471196
32 17.066277 0.000002 -0.000008 0.000000 -0.000000 0.471239
33 0.0 0.0 0.0 0.0 0.0 0.0
34 21.195385 0.098485 2.688729 -0.000958 -0.000017 -0.017454
35 12.237202 -0.000004 -0.000002 0.000000 0.000000 1.143191
36 22.646996 -0.000007 -0.000002 0.000000 -0.000000 0.000000
37 18.521780 9.922003 -6.711963 0.063050 -1.563464 0.361095
38 29.943010 -6.360233 -0.330575 -1.408448 -0.000199 1.563748
39 54.015347 -6.529602 -1.891295 -1.408448 -0.000199 1.563748
40 -17.143816 0.532520 -35.127754 -0.000014 1.370796 3.110783
41 32.456383 0.000006 0.000007 -0.265134 -0.131545 1.218952
42 48.985783 0.000001 -0.000001 0.000000 -0.000000 -0.573771
43 57.408672 0.000008 0.000005 3.100696 0.046924 0.701550
44 1.857335 11.957444 6.764410 -2.877615 -0.225530 1.471196
45 17.066286 -0.000006 0.000003 0.000000 0.000000 0.471239
46 0.0 0.0 0.0 0.0 0.0 0.0
47 21.195389 0.098483 -2.688734 0.000861 -0.000420 0.453785
48 12.237205 -0.000003 0.000010 0.000000 -0.000000 1.143191
49 22.646994 0.000002 -0.000002 0.000000 0.000000 3.141593
50 16.220608 11.940948 6.827995 3.080435 1.563440 0.380437
51 50.710930 -6.630792 5.648478 -1.750598 0.000056 1.563746
52 25.391731 -6.452415 3.200469 -1.750598 0.000056 1.563746
53 63.683689 39.983025 -0.238106 -1.570796 -0.000001 1.570001
54 39.432281 34.203304 -22.613102 -1.570796 -0.000001 1.570001
55 39.432285 34.203247 22.595675 -1.570796 -0.000001 1.570001
56 63.282036 -0.716974 20.325785 3.141593 0.000000 -0.000001
57 -21.487476 0.019813 19.775337 -0.000000 -3.141592 -0.000002
time 5
0 19.242466 -55.682552 69.027580 -0.001631 -0.078523 -1.550005
1 -5.411290 0.112168 -68.771713 0.078540 0.000000 1.550069
2 -0.000001 -0.000000 0.000001 -1.570795 -1.570796 0.000000
3 -0.000026 0.000028 18.595530 0.082051 -2.891831 -0.996430
4 52.281639 -0.000003 -0.000001 0.000000 0.000000 -2.122781
5 42.401627 0.000001 0.000003 -0.129052 -0.188842 1.041008
6 23.783974 40.997154 0.000002 -0.000000 -0.000000 1.570796
7 4.401499 0.000000 0.000001 0.000000 0.000000 0.000000
8 4.401493 0.000000 -0.000003 0.000000 0.000000 0.000000
9 0.0 0.0 0.0 0.0 0.0 0.0
10 36.276947 6.884864 -1.335222 1.475580 -0.000002 1.752753
11 0.000023 -0.000022 -18.595530 0.491827 2.854637 1.128705
12 52.281643 0.000006 -0.000001 0.000000 0.000000 -0.000977
13 42.401630 0.000001 0.000001 0.548583 0.564677 0.972312
14 23.783974 40.997158 0.000001 -0.000000 -0.000000 1.570796
15 4.401494 -0.000000 0.000003 0.000000 0.000000 0.000000
16 4.401495 -0.000000 -0.000003 0.000000 0.000000 0.000000
17 0.0 0.0 0.0 0.0 0.0 0.0
18 36.215034 6.866611 -1.550505 -1.449219 -3.141592 -1.388915
19 11.439528 -0.019932 -0.009423 0.425903 -0.004875 0.288307
20 28.680401 -0.040432 0.000001 -0.000000 0.000001 -0.296706
21 53.093925 -0.004326 0.000000 0.000000 -0.000000 0.030000
22 5.437300 0.000004 -0.000000 -0.076821 -0.006514 0.240551
23 0.0 0.0 0.0 0.0 0.0 0.0
24 7.285618 -7.278542 -0.000020 -0.000005 0.000001 -2.749229
25 16.349976 -0.013654 -0.000001 -0.000000 0.000001 -0.219299
26 0.0 0.0 0.0 0.0 0.0 0.0
27 -16.427868 0.510352 35.303993 -0.000014 -1.370796 3.110810
28 32.456375 0.000000 -0.000008 0.403616 0.166446 1.432913
29 48.985783 -0.000004 -0.000013 0.000000 0.000000 -0.573771
30 57.408672 -0.000002 0.000010 -3.100696 -0.046925 0.701550
31 1.857330 11.957451 -6.764404 2.877615 0.225530 1.471196
32 17.066278 -0.000007 -0.000016 0.000000 -0.000000 0.471239
33 0.0 0.0 0.0 0.0 0.0 0.0
34 21.195374 0.098482 2.688736 -0.000958 -0.000017 -0.017454
35 12.237200 -0.000007 -0.000002 -0.000000 0.000000 1.143191
36 22.646997 -0.000006 -0.000006 -0.000000 -0.000000 0.000000
37 18.521769 9.921998 -6.711955 0.063044 -1.563464 0.361104
38 29.943005 -6.360232 -0.330579 -1.408448 -0.000199 1.563748
39 54.015347 -6.529608 -1.891299 -1.408448 -0.000199 1.563748
40 -17.143799 0.532525 -35.127754 -0.000014 1.370796 3.110783
41 32.456379 -0.000003 0.000002 -0.292817 -0.126304 1.147362
42 48.985779 0.000005 0.000001 0.000000 0.000000 -0.573771
43 57.408676 -0.000001 0.000001 3.100696 0.046925 0.701550
44 1.857332 11.957451 6.764412 -2.877615 -0.225530 1.471196
45 17.066278 0.000007 0.000003 -0.000000 -0.000000 0.471239
46 0.0 0.0 0.0 0.0 0.0 0.0
47 21.195385 0.098484 -2.688738 0.000861 -0.000420 0.453785
48 12.237192 -0.000000 -0.000017 -0.000000 -0.000000 1.143191
49 22.646994 -0.000002 0.000011 -0.000000 0.000000 3.141593
50 16.220610 11.940948 6.827996 3.080435 1.563448 0.380439
51 50.710930 -6.630795 5.648471 -1.750598 0.000056 1.563746
52 25.391731 -6.452421 3.200468 -1.750598 0.000056 1.563746
53 63.683693 39.983013 -0.238102 -1.570796 -0.000001 1.570001
54 39.432278 34.203300 -22.613098 -1.570796 -0.000001 1.570001
55 39.432285 34.203239 22.595676 -1.570796 -0.000001 1.570001
56 63.282032 -0.716971 20.325787 3.141593 0.000000 -0.000001
57 -21.487474 0.019813 19.775335 -0.000000 -3.141592 -0.000002
time 6
0 19.242466 -55.682552 69.027580 0.004119 -0.078432 -1.623317
1 -5.405034 -0.283266 -68.771713 0.078540 0.000000 1.623155
2 0.000000 0.000001 0.000001 -1.570795 -1.570796 0.000000
3 -0.000028 0.000030 18.595528 0.080439 -2.880639 -0.952677
4 52.281639 -0.000005 0.000002 0.000000 0.000000 -2.125101
5 42.401630 -0.000000 -0.000003 -0.199550 -0.206499 1.085032
6 23.783976 40.997162 0.000000 -0.000000 -0.000000 1.570796
7 4.401495 -0.000000 0.000001 0.000000 0.000000 0.000000
8 4.401490 -0.000000 -0.000001 0.000000 0.000000 0.000000
9 0.0 0.0 0.0 0.0 0.0 0.0
10 36.276951 6.884857 -1.335224 1.475580 -0.000002 1.752753
11 0.000029 -0.000022 -18.595530 0.479718 2.729247 1.002144
12 52.281635 0.000001 -0.000005 -0.000000 0.000000 -0.259237
13 42.401630 -0.000000 -0.000004 0.504224 0.617768 1.082847
14 23.783976 40.997158 0.000000 -0.000000 -0.000000 1.570796
15 4.401495 0.000000 0.000002 0.000000 0.000000 0.000000
16 4.401495 0.000000 0.000001 0.000000 0.000000 0.000000
17 0.0 0.0 0.0 0.0 0.0 0.0
18 36.215038 6.866606 -1.550508 -1.449219 -3.141592 -1.388915
19 11.439781 -0.020821 -0.007045 0.314093 -0.004793 0.288339
20 28.680403 -0.040425 0.000002 -0.000000 0.000001 -0.296706
21 53.093929 -0.004330 -0.000001 0.000000 -0.000000 0.030000
22 5.437290 -0.000004 -0.000000 0.034954 -0.003644 0.239983
23 0.0 0.0 0.0 0.0 0.0 0.0
24 7.285641 -7.278544 -0.000019 -0.000005 0.000001 -2.749229
25 16.349972 -0.013659 -0.000001 -0.000000 0.000001 -0.219299
26 0.0 0.0 0.0 0.0 0.0 0.0
27 -16.427881 0.510342 35.303993 -0.000014 -1.370796 3.110810
28 32.456375 -0.000001 0.000004 0.368654 0.184708 1.531612
29 48.985779 -0.000005 -0.000007 -0.000000 -0.000000 -0.573771
30 57.408676 -0.000002 -0.000015 -3.100696 -0.046924 0.701550
31 1.857338 11.957448 -6.764411 2.877615 0.225530 1.471196
32 17.066277 -0.000007 -0.000012 0.000000 -0.000000 0.471239
33 0.0 0.0 0.0 0.0 0.0 0.0
34 21.195377 0.098481 2.688728 -0.000958 -0.000017 -0.017454
35 12.237206 -0.000000 0.000005 -0.000000 0.000000 1.143191
36 22.646990 -0.000007 -0.000007 -0.000000 -0.000000 0.000000
37 18.521774 9.922002 -6.711965 0.063040 -1.563464 0.361105
38 29.943010 -6.360234 -0.330589 -1.408448 -0.000199 1.563748
39 54.015347 -6.529604 -1.891307 -1.408448 -0.000199 1.563748
40 -17.143812 0.532518 -35.127754 -0.000014 1.370796 3.110783
41 32.456379 -0.000003 0.000005 -0.331881 -0.122304 1.047400
42 48.985786 -0.000000 0.000001 0.000000 -0.000000 -0.573771
43 57.408669 -0.000000 0.000009 3.100696 0.046925 0.701550
44 1.857334 11.957444 6.764410 -2.877615 -0.225530 1.471196
45 17.066275 -0.000005 0.000004 -0.000000 -0.000000 0.471239
46 0.0 0.0 0.0 0.0 0.0 0.0
47 21.195383 0.098483 -2.688729 0.000861 -0.000420 0.453785
48 12.237213 0.000003 0.000015 -0.000000 -0.000000 1.143191
49 22.646986 0.000007 0.000000 -0.000000 0.000000 -3.141593
50 16.220604 11.940950 6.828001 3.080433 1.563448 0.380435
51 50.710934 -6.630796 5.648478 -1.750598 0.000056 1.563746
52 25.391735 -6.452421 3.200471 -1.750598 0.000056 1.563746
53 63.683685 39.983025 -0.238108 -1.570796 -0.000001 1.570001
54 39.432281 34.203304 -22.613100 -1.570796 -0.000001 1.570001
55 39.432278 34.203243 22.595673 -1.570796 -0.000001 1.570001
56 63.282024 -0.716972 20.325785 3.141593 0.000000 -0.000001
57 -21.487474 0.019815 19.775341 -0.000000 -3.141592 -0.000002
end
