version 1
nodes
0 "Bip01" -1
1 "Bip01 Footsteps" 0
2 "Bip01 Pelvis" 0
3 "Bip01 L Thigh" 2
4 "Bip01 L Calf" 3
5 "Bip01 L Foot" 4
6 "Bip01 L Toe0" 5
7 "Bip01 L Toe01" 6
8 "Bip01 L Toe02" 7
9 "Null 9" -1
10 "poison05" 4
11 "Bip01 R Thigh" 2
12 "Bip01 R Calf" 11
13 "Bip01 R Foot" 12
14 "Bip01 R Toe0" 13
15 "Bip01 R Toe01" 14
16 "Bip01 R Toe02" 15
17 "Null 17" -1
18 "poison04" 12
19 "Bip01 Spine" 2
20 "Bip01 Spine1" 19
21 "Bip01 Neck" 20
22 "Bip01 Head" 21
23 "Null 23" -1
24 "Bip01 Ponytail1" 22
25 "Bip01 Ponytail11" 24
26 "Null 26" -1
27 "Bip01 L Clavicle" 21
28 "Bip01 L UpperArm" 27
29 "Bip01 L Forearm" 28
30 "Bip01 L Hand" 29
31 "Bip01 L Finger0" 30
32 "Bip01 L Finger01" 31
33 "Null 33" -1
34 "Bip01 L Finger1" 30
35 "Bip01 L Finger11" 34
36 "Bip01 L Finger1Nub" 35
37 "hand_bofdgne01" 30
38 "hand_bofdgne03" 29
39 "hand_bofdgne02" 29
40 "Bip01 R Clavicle" 21
41 "Bip01 R UpperArm" 40
42 "Bip01 R Forearm" 41
43 "Bip01 R Hand" 42
44 "Bip01 R Finger0" 43
45 "Bip01 R Finger01" 44
46 "Null 46" -1
47 "Bip01 R Finger1" 43
48 "Bip01 R Finger11" 47
49 "Bip01 R Finger1Nub" 48
50 "knife_gdf" 43
51 "knife_gdf01" 42
52 "knife_gdf02" 42
53 "poison01" 19
54 "poison03" 19
55 "poison02" 19
56 "poison07" 0
57 "poison06" 0
end
skeleton
time 0
0 0.000000 38.373238 93.663811 0.000000 0.000000 -1.570795
1 0.000000 0.000000 -109.203491 0.000000 0.000000 1.570795
2 0.000000 0.000000 0.000000 -1.570795 -1.570796 0.000000
3 -0.000026 0.000031 18.595528 -0.082285 -2.874286 -0.984564
4 52.281643 0.000001 0.000002 -0.000000 0.000000 -0.880125
5 42.401638 0.000001 -0.000005 -0.062836 -0.077241 -0.125957
6 23.783974 40.997158 0.000001 -0.000000 0.000000 1.570796
7 4.401495 0.000000 0.000001 0.000000 0.000000 0.000000
8 4.401488 0.000000 0.000003 0.000000 0.000000 0.000000
9 0.0 0.0 0.0 0.0 0.0 0.0
10 36.276955 6.884859 -1.335225 1.475580 -0.000002 1.752753
11 0.000026 -0.000023 -18.595528 0.281148 2.790577 -0.819829
12 52.281647 -0.000006 0.000001 -0.000000 -0.000000 -1.414117
13 42.401627 0.000001 0.000001 0.104258 0.022584 0.538997
14 23.783972 40.997158 0.000001 0.000000 -0.000000 1.570796
15 4.401497 0.000000 0.000002 0.000000 0.000000 0.000000
16 4.401493 0.000000 0.000001 0.000000 0.000000 0.000000
17 0.0 0.0 0.0 0.0 0.0 0.0
18 36.215034 6.866611 -1.550499 -1.449219 -3.141592 -1.388915
19 11.444740 -0.019554 -0.003825 0.169042 -0.043626 0.511972
20 28.680410 -0.040427 -0.000000 -0.000000 0.000001 -0.296706
21 53.093929 -0.004326 -0.000000 0.000000 -0.000000 0.030000
22 5.437289 0.000001 -0.000000 0.174533 0.000000 0.012836
23 0.0 0.0 0.0 0.0 0.0 0.0
24 7.285628 -7.278544 -0.000020 -0.000005 0.000001 -2.749229
25 16.349979 -0.013661 -0.000003 -0.000000 0.000001 -0.219299
26 0.0 0.0 0.0 0.0 0.0 0.0
27 -16.427874 0.510344 35.303989 -0.000014 -1.370796 3.110810
28 32.456379 -0.000001 -0.000001 0.520939 1.156513 0.496906
29 48.985783 -0.000004 -0.000002 0.000000 -0.000000 -0.451598
30 57.408657 -0.000003 -0.000000 -1.649027 0.041525 -0.131120
31 1.857338 11.957458 -6.764407 2.802166 -0.065675 0.596223
32 17.066278 0.000014 -0.000010 0.000000 0.000000 0.462512
33 0.0 0.0 0.0 0.0 0.0 0.0
34 21.195383 0.098483 2.688738 -0.000930 0.000232 0.244346
35 12.237207 0.000005 -0.000002 0.000000 0.000000 0.523599
36 22.646988 -0.000001 0.000000 -0.000000 0.000000 -0.000000
37 18.521774 9.922005 -6.711959 0.063046 -1.563464 0.361097
38 29.943012 -6.360233 -0.330585 -1.408448 -0.000199 1.563748
39 54.015350 -6.529605 -1.891303 -1.408448 -0.000199 1.563748
40 -17.143812 0.532524 -35.127754 -0.000014 1.370796 3.110783
41 32.456379 0.000001 -0.000010 -0.016730 -1.105058 0.257997
42 48.985779 -0.000001 0.000000 0.000000 -0.000000 -0.568187
43 57.408661 0.000003 0.000004 1.596881 -0.064491 0.191413
44 1.857336 11.957446 6.764409 -2.802166 0.065676 0.596223
45 17.066282 0.000006 0.000015 -0.000000 0.000000 0.462512
46 0.0 0.0 0.0 0.0 0.0 0.0
47 21.195383 0.098489 -2.688733 0.000930 -0.000232 0.244346
48 12.237204 0.000000 0.000001 0.000000 0.000000 0.523599
49 22.646996 -0.000004 0.000000 0.000000 0.000000 -3.141593
50 16.220613 11.940952 6.827996 3.080435 1.563448 0.380439
51 50.710938 -6.630794 5.648472 -1.750598 0.000056 1.563746
52 25.391737 -6.452417 3.200465 -1.750598 0.000056 1.563746
53 63.683689 39.983017 -0.238107 -1.570796 -0.000001 1.570001
54 39.432281 34.203300 -22.613100 -1.570796 -0.000001 1.570001
55 39.432281 34.203239 22.595676 -1.570796 -0.000001 1.570001
56 63.282028 -0.716972 20.325783 3.141593 0.000000 -0.000001
57 -21.487473 0.019814 19.775337 -0.000000 -3.141592 -0.000002
time 1
0 0.000000 27.933245 93.709175 0.000000 -0.027271 -1.570795
1 -2.555205 0.000000 -93.674294 0.027271 0.000000 1.570795
2 -0.000000 0.000000 0.000003 -1.570795 -1.570796 0.000000
3 -0.000023 0.000030 18.595528 -0.108501 -2.749199 -0.651600
4 52.281643 -0.000000 0.000002 -0.000000 -0.000000 -1.412832
5 42.401630 0.000005 0.000000 0.006503 -0.229890 0.672969
6 23.783974 40.997154 -0.000003 0.000000 -0.000000 1.570796
7 4.401494 0.000000 0.000001 0.000000 0.000000 0.000000
8 4.401496 0.000000 0.000000 0.000000 0.000000 0.000000
9 0.0 0.0 0.0 0.0 0.0 0.0
10 36.276955 6.884864 -1.335222 1.475580 -0.000002 1.752753
11 0.000028 -0.000023 -18.595528 0.301087 2.763820 -0.662006
12 52.281647 -0.000001 -0.000005 0.000000 0.000000 -1.463396
13 42.401630 -0.000001 0.000004 0.078012 0.083330 0.696101
14 23.783974 40.997154 -0.000003 0.000000 0.000000 1.570796
15 4.401492 -0.000000 0.000001 0.000000 0.000000 0.000000
16 4.401491 -0.000000 0.000001 0.000000 0.000000 0.000000
17 0.0 0.0 0.0 0.0 0.0 0.0
18 36.215038 6.866609 -1.550501 -1.449219 -3.141592 -1.388915
19 11.439672 -0.020359 -0.008355 0.381168 -0.175467 0.221897
20 28.680414 -0.040428 -0.000001 -0.000000 0.000001 -0.296706
21 53.093948 -0.004327 -0.000001 0.000000 -0.000000 0.030000
22 5.437293 0.000001 -0.000000 -0.031119 0.177682 0.238396
23 0.0 0.0 0.0 0.0 0.0 0.0
24 7.285629 -7.278544 -0.000017 -0.000005 0.000001 -2.749229
25 16.349974 -0.013661 -0.000003 -0.000000 0.000001 -0.219299
26 0.0 0.0 0.0 0.0 0.0 0.0
27 -16.427883 0.510350 35.303989 -3.141570 -1.447910 -0.030819
28 32.456371 0.000003 -0.000005 0.456752 1.259025 0.107054
29 48.985771 0.000003 -0.000006 0.000000 -0.000000 -0.761428
30 57.408672 -0.000001 0.000001 -1.649027 0.041525 -0.131120
31 1.857331 11.957453 -6.764411 2.802166 -0.065676 0.596223
32 17.066282 0.000008 -0.000015 -0.000000 -0.000000 0.462512
33 0.0 0.0 0.0 0.0 0.0 0.0
34 21.195383 0.098485 2.688735 -0.000930 0.000232 0.244346
35 12.237204 -0.000005 0.000001 -0.000000 -0.000000 0.523599
36 22.646990 0.000003 -0.000002 0.000000 0.000000 0.000000
37 18.521772 9.922004 -6.711960 0.063045 -1.563464 0.361100
38 29.943008 -6.360234 -0.330583 -1.408448 -0.000199 1.563748
39 54.015350 -6.529602 -1.891297 -1.408448 -0.000199 1.563748
40 -17.143808 0.532523 -35.127754 -3.141558 1.491544 -0.030761
41 32.456375 -0.000001 0.000007 -0.355658 -1.208396 0.883146
42 48.985779 0.000000 0.000008 -0.000000 -0.000000 -0.828383
43 57.408665 0.000000 -0.000001 1.357310 0.077392 0.149926
44 1.857334 11.957449 6.764412 -2.796476 0.016171 0.735045
45 17.066284 0.000004 0.000014 -0.000000 -0.000000 0.642499
46 0.0 0.0 0.0 0.0 0.0 0.0
47 21.195385 0.098491 -2.688733 0.000954 -0.000093 0.097084
48 12.237209 -0.000005 -0.000000 -0.000000 0.000000 0.376337
49 22.646994 0.000008 -0.000005 0.000000 0.000000 3.141593
50 16.220612 11.940954 6.827994 3.080433 1.563440 0.380435
51 50.710938 -6.630790 5.648475 -1.750598 0.000056 1.563746
52 25.391733 -6.452419 3.200466 -1.750598 0.000056 1.563746
53 63.683693 39.983021 -0.238108 -1.570796 -0.000001 1.570001
54 39.432289 34.203300 -22.613100 -1.570796 -0.000001 1.570001
55 39.432289 34.203239 22.595673 -1.570796 -0.000001 1.570001
56 63.282028 -0.716972 20.325787 3.141593 0.000000 -0.000001
57 -21.487474 0.019814 19.775339 -0.000000 -3.141592 -0.000002
time 2
0 0.000000 32.920284 93.663811 0.000000 -0.043633 -1.570795
1 -4.085558 0.000000 -93.574638 0.043633 0.000000 1.570795
2 -0.000001 0.000000 -0.000000 -1.570795 -1.570796 0.000000
3 -0.000026 0.000029 18.595530 -0.104533 -2.755085 -0.701665
4 52.281643 0.000001 0.000003 -0.000000 -0.000000 -1.401997
5 42.401630 -0.000003 0.000002 0.013067 -0.188945 0.584966
6 23.783972 40.997162 0.000000 0.000000 0.000000 1.570796
7 4.401494 -0.000000 0.000001 0.000000 0.000000 0.000000
8 4.401495 -0.000000 0.000001 0.000000 0.000000 0.000000
9 0.0 0.0 0.0 0.0 0.0 0.0
10 36.276955 6.884859 -1.335223 1.475580 -0.000002 1.752753
11 0.000025 -0.000020 -18.595530 0.317058 2.752328 -0.502937
12 52.281643 -0.000001 -0.000000 0.000000 0.000000 -1.467213
13 42.401634 -0.000002 0.000003 0.073261 0.146534 0.821986
14 23.783974 40.997162 0.000001 0.000000 -0.000000 1.570796
15 4.401496 0.000000 0.000003 0.000000 0.000000 0.000000
16 4.401494 0.000000 -0.000001 0.000000 0.000000 0.000000
17 0.0 0.0 0.0 0.0 0.0 0.0
18 36.215038 6.866609 -1.550501 -1.449219 -3.141592 -1.388915
19 11.435287 -0.022445 -0.003885 0.171688 0.031513 0.082048
20 28.680391 -0.040418 -0.000001 -0.000000 0.000001 -0.296706
21 53.093933 -0.004331 0.000002 0.000000 -0.000000 0.030000
22 5.437287 0.000001 -0.000000 0.174533 -0.000001 0.449168
23 0.0 0.0 0.0 0.0 0.0 0.0
24 7.285630 -7.278548 -0.000019 -0.000005 0.000001 -2.749229
25 16.349960 -0.013636 0.000001 -0.000000 0.000001 -0.219299
26 0.0 0.0 0.0 0.0 0.0 0.0
27 -16.427879 0.510346 35.303993 -0.000347 -1.562780 3.111143
28 32.456379 -0.000001 -0.000000 0.917798 1.131572 0.783327
29 48.985775 0.000002 -0.000004 0.000000 -0.000000 -0.761428
30 57.408669 -0.000003 -0.000004 -1.649027 0.041525 -0.131120
31 1.857337 11.957452 -6.764409 2.802166 -0.065675 0.596223
32 17.066280 0.000008 -0.000015 -0.000000 0.000000 0.462512
33 0.0 0.0 0.0 0.0 0.0 0.0
34 21.195385 0.098482 2.688733 -0.000930 0.000232 0.244346
35 12.237204 0.000003 0.000001 -0.000000 -0.000000 0.523599
36 22.646992 -0.000008 -0.000001 0.000000 0.000000 -0.000000
37 18.521772 9.922007 -6.711962 0.063050 -1.563464 0.361095
38 29.943012 -6.360231 -0.330585 -1.408448 -0.000199 1.563748
39 54.015350 -6.529603 -1.891303 -1.408448 -0.000199 1.563748
40 -17.143808 0.532526 -35.127758 -3.141540 1.517723 -0.030744
41 32.456375 0.000000 -0.000003 -0.126279 -0.940836 0.430918
42 48.985779 -0.000002 -0.000001 -0.000000 -0.000000 -0.984501
43 57.408669 -0.000002 0.000010 1.209092 0.156247 0.108747
44 1.857335 11.957440 6.764413 -2.796375 -0.013743 0.818188
45 17.066278 -0.000010 0.000011 -0.000000 -0.000000 0.750492
46 0.0 0.0 0.0 0.0 0.0 0.0
47 21.195387 0.098478 -2.688731 0.000958 -0.000008 0.008726
48 12.237200 0.000005 0.000006 -0.000000 -0.000000 0.287979
49 22.646994 0.000000 0.000005 0.000000 0.000000 3.141593
50 16.220615 11.940947 6.828002 3.080437 1.563448 0.380441
51 50.710938 -6.630797 5.648484 -1.750598 0.000056 1.563746
52 25.391739 -6.452415 3.200470 -1.750598 0.000056 1.563746
53 63.683681 39.983021 -0.238106 -1.570796 -0.000001 1.570001
54 39.432281 34.203304 -22.613098 -1.570796 -0.000001 1.570001
55 39.432285 34.203243 22.595678 -1.570796 -0.000001 1.570001
56 63.282032 -0.716972 20.325787 3.141593 0.000000 -0.000001
57 -21.487476 0.019814 19.775337 -0.000000 -3.141592 -0.000002
time 3
0 0.000000 41.072914 93.986366 -0.000000 0.018195 -1.570795
1 1.710018 0.000001 -93.970764 -0.018195 -0.000000 1.570795
2 -0.000000 -0.000000 -0.000003 -1.570795 -1.570796 0.000000
3 -0.000029 0.000030 18.595530 -0.080838 -2.785971 -0.852513
4 52.281643 -0.000003 0.000001 -0.000000 0.000000 -1.346768
5 42.401627 0.000003 -0.000002 -0.011579 -0.139914 0.438957
6 23.783976 40.997158 -0.000000 -0.000000 0.000000 1.570796
7 4.401494 0.000000 -0.000000 0.000000 0.000000 0.000000
8 4.401492 -0.000000 -0.000001 0.000000 0.000000 0.000000
9 0.0 0.0 0.0 0.0 0.0 0.0
10 36.276951 6.884860 -1.335225 1.475580 -0.000002 1.752753
11 0.000023 -0.000022 -18.595530 0.306691 2.761338 -0.667860
12 52.281643 -0.000001 0.000004 -0.000000 0.000000 -1.459454
13 42.401634 -0.000002 0.000000 0.080363 0.091296 0.708912
14 23.783974 40.997166 0.000000 0.000000 -0.000000 1.570796
15 4.401493 -0.000000 -0.000001 0.000000 0.000000 0.000000
16 4.401495 -0.000000 -0.000001 0.000000 0.000000 0.000000
17 0.0 0.0 0.0 0.0 0.0 0.0
18 36.215038 6.866610 -1.550505 -1.449219 -3.141592 -1.388915
19 11.438051 -0.022046 -0.003944 0.174218 0.010462 0.202423
20 28.680391 -0.040426 0.000001 -0.000000 0.000001 -0.296706
21 53.093960 -0.004326 0.000001 0.000000 -0.000000 0.030000
22 5.437282 0.000002 -0.000000 0.174533 -0.000001 0.326995
23 0.0 0.0 0.0 0.0 0.0 0.0
24 7.285618 -7.278544 -0.000020 -0.000005 0.000001 -2.749229
25 16.349968 -0.013648 -0.000000 -0.000000 0.000001 -0.219299
26 0.0 0.0 0.0 0.0 0.0 0.0
27 -16.427893 0.510347 35.303997 -0.775473 -1.544302 -2.397093
28 32.456379 -0.000003 -0.000006 0.156067 1.195038 0.066343
29 48.985794 0.000001 -0.000002 -0.000000 0.000000 -0.891790
30 57.408676 0.000001 0.000002 -1.650212 0.039177 -0.160502
31 1.857333 11.957453 -6.764413 2.802166 -0.065675 0.596223
32 17.066273 0.000016 -0.000018 0.000000 0.000000 0.462512
33 0.0 0.0 0.0 0.0 0.0 0.0
34 21.195385 0.098484 2.688731 -0.000930 0.000232 0.244346
35 12.237202 0.000001 0.000001 -0.000000 -0.000000 0.523599
36 22.646994 -0.000004 -0.000001 0.000000 0.000000 -0.000000
37 18.521778 9.921999 -6.711957 0.063046 -1.563464 0.361098
38 29.943008 -6.360233 -0.330577 -1.408448 -0.000199 1.563748
39 54.015354 -6.529599 -1.891297 -1.408448 -0.000199 1.563748
40 -17.143831 0.532522 -35.127758 -3.141538 1.519906 -0.030742
41 32.456375 0.000001 -0.000009 0.153697 -0.956510 0.194819
42 48.985775 0.000001 -0.000006 0.000000 -0.000000 -1.076937
43 57.408672 0.000001 -0.000003 1.209068 0.162553 0.104807
44 1.857336 11.957451 6.764405 -2.796479 -0.016234 0.825118
45 17.066275 -0.000002 0.000019 -0.000000 -0.000000 0.759491
46 0.0 0.0 0.0 0.0 0.0 0.0
47 21.195383 0.098485 -2.688733 0.000958 -0.000001 0.001363
48 12.237201 0.000002 -0.000003 0.000000 0.000000 0.280616
49 22.646992 0.000013 0.000004 0.000000 -0.000000 3.141593
50 16.220612 11.940957 6.827996 3.080433 1.563448 0.380435
51 50.710934 -6.630794 5.648467 -1.750598 0.000056 1.563746
52 25.391733 -6.452416 3.200456 -1.750598 0.000056 1.563746
53 63.683697 39.983013 -0.238104 -1.570796 -0.000001 1.570001
54 39.432274 34.203300 -22.613100 -1.570796 -0.000001 1.570001
55 39.432285 34.203239 22.595680 -1.570796 -0.000001 1.570001
56 63.282028 -0.716972 20.325779 3.141593 0.000000 -0.000001
57 -21.487474 0.019814 19.775337 -0.000000 -3.141592 -0.000002
time 4
0 0.000000 53.593960 92.937996 -0.000000 0.078540 -1.570795
1 7.291827 0.000001 -92.651443 -0.078540 -0.000000 1.570795
2 -0.000001 0.000000 -0.000002 -1.570795 -1.570796 0.000000
3 -0.000027 0.000028 18.595530 -0.036987 -2.835639 -1.038146
4 52.281651 0.000002 0.000002 0.000000 0.000000 -1.250183
5 42.401630 -0.000003 0.000001 -0.058524 -0.134506 0.272042
6 23.783972 40.997162 0.000003 -0.000000 0.000000 1.570796
7 4.401494 -0.000000 -0.000002 0.000000 0.000000 0.000000
8 4.401494 -0.000000 -0.000001 0.000000 0.000000 0.000000
9 0.0 0.0 0.0 0.0 0.0 0.0
10 36.276955 6.884858 -1.335223 1.475580 -0.000002 1.752753
11 0.000024 -0.000023 -18.595530 0.263811 2.796326 -0.917283
12 52.281639 0.000004 -0.000001 0.000000 0.000000 -1.434288
13 42.401630 -0.000002 -0.000002 0.119146 0.024437 0.543941
14 23.783974 40.997166 -0.000000 -0.000000 0.000000 1.570796
15 4.401496 -0.000000 0.000002 0.000000 0.000000 0.000000
16 4.401493 -0.000000 -0.000003 0.000000 0.000000 0.000000
17 0.0 0.0 0.0 0.0 0.0 0.0
18 36.215038 6.866607 -1.550506 -1.449219 -3.141592 -1.388915
19 11.438186 -0.022023 -0.003946 0.174276 0.009425 0.208312
20 28.680397 -0.040421 -0.000001 -0.000000 0.000001 -0.296706
21 53.093918 -0.004328 -0.000000 0.000000 -0.000000 0.030000
22 5.437295 -0.000001 0.000001 0.174533 -0.000001 0.321016
23 0.0 0.0 0.0 0.0 0.0 0.0
24 7.285629 -7.278546 -0.000020 -0.000005 0.000001 -2.749229
25 16.349977 -0.013647 0.000000 -0.000000 0.000001 -0.219299
26 0.0 0.0 0.0 0.0 0.0 0.0
27 -16.427872 0.510346 35.303993 -0.000346 -1.562780 3.111142
28 32.456379 0.000003 0.000018 -0.197578 1.125552 -0.272863
29 48.985775 0.000004 -0.000006 0.000000 0.000000 -0.942609
30 57.408669 -0.000010 -0.000007 -1.649027 0.041525 -0.131120
31 1.857335 11.957448 -6.764410 2.802166 -0.065675 0.596223
32 17.066280 0.000003 -0.000013 -0.000000 0.000000 0.462512
33 0.0 0.0 0.0 0.0 0.0 0.0
34 21.195383 0.098486 2.688733 -0.000930 0.000232 0.244346
35 12.237203 -0.000000 -0.000003 -0.000000 -0.000000 0.523599
36 22.647001 0.000003 0.000001 0.000000 -0.000000 -0.000000
37 18.521776 9.922008 -6.711961 0.063046 -1.563464 0.361094
38 29.943005 -6.360236 -0.330594 -1.408448 -0.000199 1.563748
39 54.015347 -6.529608 -1.891315 -1.408448 -0.000199 1.563748
40 -17.143805 0.532524 -35.127758 -3.141541 1.517723 -0.030744
41 32.456375 0.000001 -0.000005 0.192190 -0.954576 0.149253
42 48.985779 0.000004 0.000014 0.000000 0.000000 -1.022856
43 57.408665 -0.000006 0.000007 1.209092 0.156247 0.108747
44 1.857338 11.957447 6.764408 -2.796375 -0.013743 0.818188
45 17.066280 -0.000012 0.000009 -0.000000 0.000000 0.750492
46 0.0 0.0 0.0 0.0 0.0 0.0
47 21.195381 0.098482 -2.688726 0.000958 -0.000008 0.008726
48 12.237196 -0.000003 0.000001 -0.000000 -0.000000 0.287979
49 22.646996 -0.000005 -0.000001 0.000000 0.000000 -3.141593
50 16.220615 11.940951 6.827996 3.080437 1.563448 0.380441
51 50.710934 -6.630803 5.648479 -1.750598 0.000056 1.563746
52 25.391733 -6.452424 3.200469 -1.750598 0.000056 1.563746
53 63.683685 39.983028 -0.238108 -1.570796 -0.000001 1.570001
54 39.432281 34.203308 -22.613100 -1.570796 -0.000001 1.570001
55 39.432289 34.203243 22.595675 -1.570796 -0.000001 1.570001
56 63.282032 -0.716972 20.325781 3.141593 0.000000 -0.000001
57 -21.487480 0.019814 19.775339 -0.000000 -3.141592 -0.000002
time 5
0 0.000000 88.357994 84.893822 0.000000 -0.537780 -1.570795
1 -43.485161 -0.000003 -72.910851 0.537780 0.000001 1.570795
2 -0.000001 0.000000 0.000002 -1.570795 -1.570796 0.000000
3 -0.000017 0.000026 18.595528 -0.046382 -2.913285 -0.559239
4 52.281654 -0.000002 0.000004 0.000000 -0.000000 -0.644602
5 42.401638 0.000000 0.000004 -0.108605 -0.281983 -0.113514
6 23.783972 40.997158 -0.000000 -0.000000 -0.000000 1.570796
7 4.401491 -0.000001 -0.000000 0.000000 0.000000 0.000000
8 4.401492 -0.000001 0.000000 0.000000 0.000000 0.000000
9 0.0 0.0 0.0 0.0 0.0 0.0
10 36.276951 6.884857 -1.335222 1.475580 -0.000002 1.752753
11 0.000034 -0.000021 -18.595528 0.154665 2.908669 -0.654494
12 52.281651 -0.000006 -0.000005 -0.000000 -0.000000 -1.230792
13 42.401630 0.000002 -0.000001 0.192444 0.003640 0.248645
14 23.783974 40.997162 -0.000003 -0.000000 0.000000 1.570796
15 4.401495 -0.000000 0.000003 0.000000 0.000000 0.000000
16 4.401493 0.000001 -0.000002 0.000000 0.000000 0.000000
17 0.0 0.0 0.0 0.0 0.0 0.0
18 36.215038 6.866610 -1.550505 -1.449219 -3.141592 -1.388915
19 11.437716 -0.022109 -0.003940 0.174048 0.013010 0.187938
20 28.680407 -0.040431 0.000000 -0.000000 0.000001 -0.296706
21 53.093933 -0.004326 -0.000000 0.000000 -0.000000 0.030000
22 5.437278 -0.000004 0.000000 0.174533 -0.000001 0.341701
23 0.0 0.0 0.0 0.0 0.0 0.0
24 7.285608 -7.278549 -0.000017 -0.000005 0.000001 -2.749229
25 16.349958 -0.013655 -0.000005 -0.000000 0.000001 -0.219299
26 0.0 0.0 0.0 0.0 0.0 0.0
27 -16.427887 0.510344 35.303993 1.513474 -1.456801 1.597697
28 32.456375 0.000002 -0.000005 0.034082 1.101621 -0.084842
29 48.985779 -0.000010 0.000003 -0.000000 -0.000000 -0.673757
30 57.408661 0.000003 -0.000009 -1.636675 0.059411 0.112521
31 1.857334 11.957459 -6.764409 2.802166 -0.065675 0.596223
32 17.066284 0.000013 -0.000010 0.000000 0.000000 0.462512
33 0.0 0.0 0.0 0.0 0.0 0.0
34 21.195383 0.098494 2.688732 -0.000930 0.000232 0.244346
35 12.237207 0.000011 0.000003 0.000000 0.000000 0.523599
36 22.646988 0.000003 -0.000002 -0.000000 0.000000 -0.000000
37 18.521774 9.922010 -6.711960 0.063042 -1.563464 0.361098
38 29.943008 -6.360231 -0.330581 -1.408448 -0.000199 1.563748
39 54.015347 -6.529610 -1.891302 -1.408448 -0.000199 1.563748
40 -17.143829 0.532517 -35.127754 2.495323 1.504353 -0.676004
41 32.456371 0.000002 -0.000009 0.167033 -0.949571 0.127037
42 48.985771 -0.000006 0.000006 -0.000000 0.000000 -0.500381
43 57.408669 0.000007 0.000019 1.112917 0.156247 0.108747
44 1.857336 11.957452 6.764411 -2.796375 -0.013743 0.818188
45 17.066277 0.000011 0.000011 -0.000000 0.000000 0.750492
46 0.0 0.0 0.0 0.0 0.0 0.0
47 21.195379 0.098494 -2.688728 0.000958 -0.000008 0.008726
48 12.237205 0.000002 -0.000004 0.000000 -0.000000 0.287979
49 22.646988 0.000009 0.000005 0.000000 -0.000000 3.141593
50 16.220615 11.940961 6.827999 3.080437 1.563448 0.380441
51 50.710934 -6.630801 5.648482 -1.750598 0.000056 1.563746
52 25.391735 -6.452425 3.200469 -1.750598 0.000056 1.563746
53 63.683693 39.983021 -0.238107 -1.570796 -0.000001 1.570001
54 39.432285 34.203308 -22.613102 -1.570796 -0.000001 1.570001
55 39.432281 34.203239 22.595676 -1.570796 -0.000001 1.570001
56 63.282040 -0.716972 20.325790 3.141593 0.000000 -0.000001
57 -21.487478 0.019814 19.775341 -0.000000 -3.141592 -0.000002
time 6
0 0.000000 145.610901 1.855117 -0.000000 -1.247911 -1.570795
1 -1.759235 -0.000000 -0.588628 1.247911 0.000002 1.570796
2 0.000001 -0.000000 0.000004 -1.570795 -1.570796 0.000000
3 -0.000019 0.000033 18.595530 0.004954 -2.928051 -0.890184
4 52.281639 -0.000003 -0.000001 0.000000 0.000000 -0.959834
5 42.401627 0.000001 -0.000003 -0.136853 -0.018067 -0.072352
6 23.783978 40.997162 -0.000001 0.000000 -0.000000 1.570796
7 4.401497 0.000001 -0.000002 0.000000 0.000000 0.000000
8 4.401494 -0.000000 -0.000002 0.000000 0.000000 0.000000
9 0.0 0.0 0.0 0.0 0.0 0.0
10 36.276947 6.884858 -1.335226 1.475580 -0.000002 1.752753
11 0.000031 -0.000018 -18.595530 0.127271 2.673450 -1.226064
12 52.281647 0.000002 -0.000004 -0.000000 -0.000000 -1.338400
13 42.401634 -0.000000 -0.000001 -0.155614 -0.137587 -0.109357
14 23.783970 40.997158 -0.000001 0.000000 0.000000 1.570796
15 4.401496 0.000001 -0.000000 0.000000 0.000000 0.000000
16 4.401493 -0.000001 -0.000001 0.000000 0.000000 0.000000
17 0.0 0.0 0.0 0.0 0.0 0.0
18 36.215034 6.866608 -1.550505 -1.449219 -3.141592 -1.388915
19 11.435488 -0.022420 -0.003892 0.171953 0.030021 0.090651
20 28.680393 -0.040424 -0.000002 -0.000000 0.000001 -0.296706
21 53.093933 -0.004327 -0.000001 0.000000 -0.000000 0.030000
22 5.437296 0.000001 0.000000 0.174533 -0.000001 0.440441
23 0.0 0.0 0.0 0.0 0.0 0.0
24 7.285614 -7.278541 -0.000023 -0.000005 0.000001 -2.749229
25 16.349976 -0.013647 0.000002 -0.000000 0.000001 -0.219299
26 0.0 0.0 0.0 0.0 0.0 0.0
27 -16.427874 0.510345 35.303997 1.544591 -1.273988 1.567403
28 32.456379 0.000002 -0.000001 0.431474 1.067350 0.229949
29 48.985783 0.000005 0.000006 -0.000000 0.000000 -0.366652
30 57.408672 -0.000001 0.000004 -1.621575 0.072935 0.339877
31 1.857337 11.957442 -6.764409 2.802166 -0.065675 0.596223
32 17.066282 0.000003 -0.000020 -0.000000 0.000000 0.462512
33 0.0 0.0 0.0 0.0 0.0 0.0
34 21.195379 0.098476 2.688736 -0.000930 0.000232 0.244346
35 12.237200 0.000009 0.000002 0.000000 0.000000 0.523599
36 22.646997 -0.000006 -0.000001 0.000000 0.000000 0.000000
37 18.521770 9.922000 -6.711958 0.063048 -1.563464 0.361093
38 29.943012 -6.360233 -0.330573 -1.408448 -0.000199 1.563748
39 54.015347 -6.529604 -1.891289 -1.408448 -0.000199 1.563748
40 -17.143795 0.532523 -35.127754 -3.141540 1.517723 -0.030744
41 32.456375 -0.000001 -0.000002 -0.005387 -0.927734 0.302794
42 48.985779 0.000002 0.000001 -0.000000 0.000000 -0.071651
43 57.408669 0.000001 0.000003 1.008379 0.156247 0.108747
44 1.857340 11.957453 6.764407 -2.796375 -0.013743 0.818188
45 17.066286 0.000002 0.000010 0.000000 -0.000000 0.750492
46 0.0 0.0 0.0 0.0 0.0 0.0
47 21.195383 0.098492 -2.688734 0.000958 -0.000008 0.008726
48 12.237206 -0.000015 -0.000007 0.000000 -0.000000 0.287979
49 22.646994 0.000007 0.000008 -0.000000 0.000000 3.141593
50 16.220615 11.940952 6.827992 3.080437 1.563440 0.380439
51 50.710941 -6.630797 5.648473 -1.750598 0.000056 1.563746
52 25.391735 -6.452420 3.200461 -1.750598 0.000056 1.563746
53 63.683693 39.983017 -0.238108 -1.570796 -0.000001 1.570001
54 39.432285 34.203300 -22.613104 -1.570796 -0.000001 1.570001
55 39.432278 34.203243 22.595676 -1.570796 -0.000001 1.570001
56 63.282040 -0.716972 20.325788 3.141593 0.000000 -0.000001
57 -21.487476 0.019813 19.775349 -0.000000 -3.141592 -0.000002
time 7
0 0.000000 145.610901 39.552349 0.000000 -1.387537 -1.570795
1 -49.714943 -0.000005 -9.214121 1.387537 0.000002 1.570796
2 -0.000000 0.000000 -0.000006 -1.570795 -1.570796 0.000000
3 -0.000031 0.000032 18.595530 -0.176261 -2.987083 0.137294
4 52.281643 0.000001 0.000002 0.000000 -0.000000 -0.001726
5 42.401623 0.000001 0.000002 -0.365785 -0.025871 -0.122704
6 23.783976 40.997162 0.000003 0.000000 -0.000000 1.570796
7 4.401494 0.000001 -0.000001 0.000000 0.000000 0.000000
8 4.401495 0.000001 -0.000001 0.000000 0.000000 0.000000
9 0.0 0.0 0.0 0.0 0.0 0.0
10 36.276951 6.884861 -1.335222 1.475580 -0.000002 1.752753
11 0.000020 -0.000016 -18.595530 0.282020 3.062148 0.146981
12 52.281643 0.000003 -0.000002 0.000000 0.000000 -0.001505
13 42.401627 0.000001 -0.000001 0.256316 -0.101721 0.074051
14 23.783978 40.997166 -0.000001 0.000000 0.000000 1.570796
15 4.401495 -0.000001 0.000001 0.000000 0.000000 0.000000
16 4.401488 0.000000 -0.000000 0.000000 0.000000 0.000000
17 0.0 0.0 0.0 0.0 0.0 0.0
18 36.215038 6.866611 -1.550504 -1.449219 -3.141592 -1.388915
19 11.424216 -0.020606 -0.003068 0.136267 0.109389 -0.410610
20 28.680422 -0.040424 0.000003 -0.000000 0.000001 -0.296706
21 53.093933 -0.004325 0.000001 0.000000 -0.000000 0.030000
22 5.437285 -0.000005 -0.000000 0.174532 -0.000002 0.946587
23 0.0 0.0 0.0 0.0 0.0 0.0
24 7.285625 -7.278545 -0.000019 -0.000005 0.000001 -2.749229
25 16.349976 -0.013657 -0.000002 -0.000000 0.000001 -0.219299
26 0.0 0.0 0.0 0.0 0.0 0.0
27 -16.427891 0.510339 35.303993 1.536397 -0.933316 1.582798
28 32.456379 -0.000002 0.000003 0.984603 1.103018 0.601914
29 48.985771 -0.000001 0.000007 -0.000000 0.000000 -0.417006
30 57.408676 -0.000001 -0.000012 -1.636132 0.060016 0.121608
31 1.857337 11.957444 -6.764414 2.802166 -0.065675 0.596223
32 17.066282 0.000010 -0.000013 -0.000000 0.000000 0.462512
33 0.0 0.0 0.0 0.0 0.0 0.0
34 21.195391 0.098476 2.688734 -0.000930 0.000232 0.244346
35 12.237206 0.000002 -0.000003 0.000000 -0.000000 0.523599
36 22.647005 -0.000002 0.000002 0.000000 0.000000 -0.000000
37 18.521778 9.921996 -6.711959 0.063050 -1.563464 0.361095
38 29.943012 -6.360235 -0.330588 -1.408448 -0.000199 1.563748
39 54.015350 -6.529604 -1.891311 -1.408448 -0.000199 1.563748
40 -17.143827 0.532513 -35.127762 -1.672348 1.088130 1.425458
41 32.456383 0.000001 -0.000007 -0.654054 -0.644506 1.227814
42 48.985779 0.000000 -0.000007 -0.000000 0.000000 -0.900683
43 57.408669 0.000008 -0.000006 1.008379 0.156247 0.108747
44 1.857339 11.957453 6.764411 -2.796375 -0.013743 0.818188
45 17.066284 0.000002 0.000017 0.000000 -0.000000 0.750492
46 0.0 0.0 0.0 0.0 0.0 0.0
47 21.195385 0.098488 -2.688736 0.000958 -0.000008 0.008726
48 12.237199 -0.000006 0.000002 0.000000 -0.000000 0.287979
49 22.647003 0.000009 -0.000001 0.000000 -0.000000 -3.141593
50 16.220610 11.940952 6.827998 3.080435 1.563448 0.380439
51 50.710934 -6.630790 5.648465 -1.750598 0.000056 1.563746
52 25.391735 -6.452414 3.200465 -1.750598 0.000056 1.563746
53 63.683689 39.983021 -0.238105 -1.570796 -0.000001 1.570001
54 39.432278 34.203300 -22.613100 -1.570796 -0.000001 1.570001
55 39.432289 34.203243 22.595678 -1.570796 -0.000001 1.570001
56 63.282032 -0.716971 20.325779 3.141593 0.000000 -0.000001
57 -21.487478 0.019815 19.775339 -0.000000 -3.141592 -0.000002
time 8
0 0.000000 145.610901 7.190256 0.000000 -1.326450 -1.570795
1 -21.430380 -0.000000 -5.343193 1.326450 0.000002 1.570796
2 -0.000001 -0.000000 -0.000001 -1.570795 -1.570796 0.000000
3 -0.000025 0.000030 18.595530 -0.104329 -2.988792 -0.236250
4 52.281647 -0.000001 0.000001 -0.000000 -0.000000 -0.001292
5 42.401634 -0.000000 -0.000003 -0.400557 0.010693 -0.428422
6 23.783978 40.997166 -0.000003 0.000000 -0.000000 1.570796
7 4.401494 0.000002 0.000000 0.000000 0.000000 0.000000
8 4.401495 -0.000000 0.000001 0.000000 0.000000 0.000000
9 0.0 0.0 0.0 0.0 0.0 0.0
10 36.276951 6.884860 -1.335227 1.475580 -0.000002 1.752753
11 0.000026 -0.000019 -18.595530 0.194313 2.995507 -0.553989
12 52.281635 0.000003 -0.000002 0.000000 0.000000 -0.662361
13 42.401642 0.000003 -0.000003 0.289732 -0.182105 0.096746
14 23.783974 40.997166 -0.000000 -0.000000 0.000000 1.570796
15 4.401496 0.000000 0.000001 0.000000 0.000000 0.000000
16 4.401490 -0.000000 -0.000000 0.000000 0.000000 0.000000
17 0.0 0.0 0.0 0.0 0.0 0.0
18 36.215034 6.866609 -1.550504 -1.449219 -3.141592 -1.388915
19 11.429082 -0.022364 -0.001164 0.051849 0.077516 -0.193830
20 28.680389 -0.040426 -0.000002 -0.000000 0.000001 -0.296706
21 53.093952 -0.004322 0.000000 0.000000 -0.000000 0.030000
22 5.437284 -0.000003 -0.000000 0.268318 -0.046659 0.726231
23 0.0 0.0 0.0 0.0 0.0 0.0
24 7.285614 -7.278537 -0.000021 -0.000005 0.000001 -2.749229
25 16.349964 -0.013642 0.000002 -0.000000 0.000001 -0.219299
26 0.0 0.0 0.0 0.0 0.0 0.0
27 -16.427891 0.510339 35.303993 1.544591 -1.273988 1.567403
28 32.456375 0.000001 0.000003 0.608195 0.850849 0.620643
29 48.985786 0.000002 -0.000012 0.000000 -0.000000 -0.165939
30 57.408665 0.000001 0.000010 -1.621575 0.072935 0.339877
31 1.857329 11.957451 -6.764408 2.802166 -0.065676 0.596223
32 17.066278 0.000002 -0.000019 0.000000 -0.000000 0.462512
33 0.0 0.0 0.0 0.0 0.0 0.0
34 21.195377 0.098484 2.688738 -0.000930 0.000232 0.244346
35 12.237204 -0.000005 0.000001 -0.000000 0.000000 0.523599
36 22.646999 0.000013 0.000001 -0.000000 0.000000 -0.000000
37 18.521780 9.922004 -6.711960 0.063043 -1.563464 0.361102
38 29.943008 -6.360233 -0.330574 -1.408448 -0.000199 1.563748
39 54.015358 -6.529605 -1.891299 -1.408448 -0.000199 1.563748
40 -17.143822 0.532521 -35.127758 -3.141540 1.517723 -0.030744
41 32.456371 -0.000001 0.000001 -0.422577 -0.829696 0.506509
42 48.985794 -0.000001 0.000016 -0.000000 0.000000 -0.246184
43 57.408649 -0.000004 -0.000004 0.952936 0.051567 0.392754
44 1.857336 11.957450 6.764406 -2.796375 -0.013743 0.818188
45 17.066288 -0.000005 0.000011 0.000000 0.000000 0.750492
46 0.0 0.0 0.0 0.0 0.0 0.0
47 21.195381 0.098491 -2.688734 0.000958 -0.000008 0.008726
48 12.237203 -0.000008 -0.000002 -0.000000 -0.000000 0.287979
49 22.646992 0.000003 0.000004 -0.000000 -0.000000 -3.141593
50 16.220612 11.940963 6.827997 3.080429 1.563448 0.380433
51 50.710930 -6.630797 5.648467 -1.750598 0.000056 1.563746
52 25.391733 -6.452419 3.200457 -1.750598 0.000056 1.563746
53 63.683681 39.983017 -0.238111 -1.570796 -0.000001 1.570001
54 39.432278 34.203300 -22.613104 -1.570796 -0.000001 1.570001
55 39.432274 34.203243 22.595673 -1.570796 -0.000001 1.570001
56 63.282032 -0.716976 20.325785 3.141593 0.000000 -0.000001
57 -21.487476 0.019814 19.775335 -0.000000 -3.141592 -0.000002
end
