version 1
nodes
0 "Bip01" -1
1 "Bip01 Footsteps" 0
2 "Bip01 Pelvis" 0
3 "Bip01 L Thigh" 2
4 "Bip01 L Calf" 3
5 "Bip01 L Foot" 4
6 "Bip01 L Toe0" 5
7 "Bip01 L Toe01" 6
8 "Bip01 L Toe02" 7
9 "Null 9" -1
10 "poison05" 4
11 "Bip01 R Thigh" 2
12 "Bip01 R Calf" 11
13 "Bip01 R Foot" 12
14 "Bip01 R Toe0" 13
15 "Bip01 R Toe01" 14
16 "Bip01 R Toe02" 15
17 "Null 17" -1
18 "poison04" 12
19 "Bip01 Spine" 2
20 "Bip01 Spine1" 19
21 "Bip01 Neck" 20
22 "Bip01 Head" 21
23 "Null 23" -1
24 "Bip01 Ponytail1" 22
25 "Bip01 Ponytail11" 24
26 "Null 26" -1
27 "Bip01 L Clavicle" 21
28 "Bip01 L UpperArm" 27
29 "Bip01 L Forearm" 28
30 "Bip01 L Hand" 29
31 "Bip01 L Finger0" 30
32 "Bip01 L Finger01" 31
33 "Null 33" -1
34 "Bip01 L Finger1" 30
35 "Bip01 L Finger11" 34
36 "Bip01 L Finger1Nub" 35
37 "hand_bofdgne01" 30
38 "hand_bofdgne03" 29
39 "hand_bofdgne02" 29
40 "Bip01 R Clavicle" 21
41 "Bip01 R UpperArm" 40
42 "Bip01 R Forearm" 41
43 "Bip01 R Hand" 42
44 "Bip01 R Finger0" 43
45 "Bip01 R Finger01" 44
46 "Null 46" -1
47 "Bip01 R Finger1" 43
48 "Bip01 R Finger11" 47
49 "Bip01 R Finger1Nub" 48
50 "knife_gdf" 43
51 "knife_gdf01" 42
52 "knife_gdf02" 42
53 "poison01" 19
54 "poison03" 19
55 "poison02" 19
56 "poison07" 0
57 "poison06" 0
end
skeleton
time 0
0 0.000000 7.767428 93.663773 0.000000 0.000000 -1.570795
1 0.000000 0.000000 -93.663742 0.000000 0.000000 1.570795
2 0.000000 0.000000 0.000000 -1.570795 -1.570796 0.000000
3 -0.000026 0.000030 18.595530 -0.090080 -2.775194 -0.839663
4 52.281639 -0.000002 0.000004 0.000000 0.000000 -1.388525
5 42.401630 0.000000 -0.000002 0.005287 -0.172125 0.502819
6 23.783974 40.997166 -0.000001 0.000000 -0.000000 1.570796
7 4.401494 0.000000 -0.000003 0.000000 0.000000 0.000000
8 4.401496 -0.000000 0.000002 0.000000 0.000000 0.000000
9 0.0 0.0 0.0 0.0 0.0 0.0
10 36.276955 6.884861 -1.335225 1.475580 -0.000002 1.752753
11 0.000026 -0.000022 -18.595530 0.363980 2.736743 -0.373412
12 52.281651 -0.000000 -0.000003 0.000000 -0.000000 -1.422397
13 42.401634 0.000000 0.000004 0.052930 0.214486 0.918881
14 23.783972 40.997158 -0.000001 -0.000000 0.000000 1.570796
15 4.401493 -0.000000 0.000002 0.000000 0.000000 0.000000
16 4.401494 -0.000000 -0.000003 0.000000 0.000000 0.000000
17 0.0 0.0 0.0 0.0 0.0 0.0
18 36.215038 6.866610 -1.550501 -1.449219 -3.141592 -1.388915
19 11.444748 -0.019552 -0.003825 0.169042 -0.043626 0.511972
20 28.680397 -0.040422 -0.000001 -0.000000 0.000001 -0.296706
21 53.093929 -0.004327 -0.000001 0.000000 -0.000000 0.030000
22 5.437286 -0.000001 -0.000000 0.174533 0.000000 0.012836
23 0.0 0.0 0.0 0.0 0.0 0.0
24 7.285634 -7.278543 -0.000019 -0.000005 0.000001 -2.749229
25 16.349974 -0.013655 -0.000001 -0.000000 0.000001 -0.219299
26 0.0 0.0 0.0 0.0 0.0 0.0
27 -16.427877 0.510342 35.303993 -0.000014 -1.370796 3.110810
28 32.456379 -0.000001 0.000000 0.520939 1.156512 0.496906
29 48.985775 -0.000000 0.000004 -0.000000 -0.000000 -0.451598
30 57.408661 0.000002 -0.000009 -1.596838 -0.031467 0.194006
31 1.857332 11.957448 -6.764411 2.797675 -0.033490 0.686774
32 17.066280 0.000004 -0.000018 -0.000000 0.000000 0.366519
33 0.0 0.0 0.0 0.0 0.0 0.0
34 21.195383 0.098482 2.688733 -0.000948 0.000142 0.148353
35 12.237199 0.000003 0.000001 0.000000 0.000000 0.427606
36 22.646992 -0.000005 0.000001 -0.000000 -0.000000 -0.000000
37 18.521772 9.922000 -6.711960 0.063043 -1.563464 0.361102
38 29.943014 -6.360234 -0.330586 -1.408448 -0.000199 1.563748
39 54.015350 -6.529605 -1.891304 -1.408448 -0.000199 1.563748
40 -17.143814 0.532522 -35.127754 -0.000014 1.370796 3.110783
41 32.456379 0.000003 -0.000012 -0.016729 -1.105058 0.257997
42 48.985779 0.000003 0.000007 -0.000000 -0.000000 -0.568187
43 57.408661 -0.000003 -0.000004 1.596838 0.031467 0.194006
44 1.857337 11.957445 6.764411 -2.797675 0.033490 0.686774
45 17.066278 0.000007 0.000014 -0.000000 0.000000 0.366519
46 0.0 0.0 0.0 0.0 0.0 0.0
47 21.195385 0.098479 -2.688730 0.000948 -0.000142 0.148353
48 12.237206 0.000003 0.000003 0.000000 -0.000000 0.427606
49 22.646994 -0.000001 -0.000000 -0.000000 -0.000000 -3.141593
50 16.220612 11.940952 6.828000 3.080433 1.563440 0.380435
51 50.710941 -6.630801 5.648473 -1.750598 0.000056 1.563746
52 25.391737 -6.452421 3.200465 -1.750598 0.000056 1.563746
53 63.683693 39.983021 -0.238107 -1.570796 -0.000001 1.570001
54 39.432285 34.203300 -22.613100 -1.570796 -0.000001 1.570001
55 39.432285 34.203243 22.595676 -1.570796 -0.000001 1.570001
56 63.282032 -0.716972 20.325783 3.141593 0.000000 -0.000001
57 -21.487474 0.019814 19.775337 -0.000000 -3.141592 -0.000002
time 1
0 0.000000 7.767428 91.411903 0.000000 0.000000 -1.570795
1 0.000000 0.000000 -91.411880 0.000000 0.000000 1.570795
2 0.000000 0.000000 0.000000 -1.570795 -1.570796 0.000000
3 -0.000026 0.000030 18.595530 -0.072668 -2.767747 -0.879085
4 52.281639 0.000006 0.000000 0.000000 -0.000000 -1.458443
5 42.401630 -0.000000 0.000001 0.006850 -0.177342 0.535230
6 23.783974 40.997162 -0.000002 0.000000 -0.000000 1.570796
7 4.401494 0.000000 -0.000004 0.000000 0.000000 0.000000
8 4.401495 -0.000000 0.000001 0.000000 0.000000 0.000000
9 0.0 0.0 0.0 0.0 0.0 0.0
10 36.276951 6.884859 -1.335222 1.475580 -0.000002 1.752753
11 0.000026 -0.000022 -18.595530 0.350544 2.722866 -0.396770
12 52.281647 -0.000000 0.000001 0.000000 -0.000000 -1.492702
13 42.401634 -0.000002 0.000001 0.053784 0.221298 0.964465
14 23.783972 40.997158 0.000001 -0.000000 0.000000 1.570796
15 4.401493 -0.000000 0.000004 0.000000 0.000000 0.000000
16 4.401494 -0.000000 -0.000001 0.000000 0.000000 0.000000
17 0.0 0.0 0.0 0.0 0.0 0.0
18 36.215034 6.866611 -1.550502 -1.449219 -3.141592 -1.388915
19 11.444748 -0.019553 -0.003825 0.169042 -0.043626 0.511972
20 28.681995 -0.040875 -0.000001 -0.000000 0.000001 -0.257598
21 53.093933 -0.004328 -0.000000 0.000000 -0.000000 0.030000
22 5.437290 -0.000003 0.000000 0.174533 0.000000 -0.026273
23 0.0 0.0 0.0 0.0 0.0 0.0
24 7.285628 -7.278544 -0.000019 -0.000005 0.000001 -2.749229
25 16.349977 -0.013657 -0.000001 -0.000000 0.000001 -0.219299
26 0.0 0.0 0.0 0.0 0.0 0.0
27 -16.427874 0.510342 35.303993 -0.000014 -1.370797 3.110810
28 32.456375 0.000001 -0.000008 0.388862 1.184176 0.359822
29 48.985779 -0.000004 -0.000001 -0.000000 -0.000000 -0.430033
30 57.408657 0.000002 0.000002 -1.597000 -0.011117 0.157889
31 1.857336 11.957452 -6.764411 2.798420 -0.040675 0.666676
32 17.066284 0.000008 -0.000014 0.000000 -0.000000 0.387851
33 0.0 0.0 0.0 0.0 0.0 0.0
34 21.195385 0.098485 2.688734 -0.000945 0.000162 0.169684
35 12.237201 -0.000003 -0.000001 -0.000000 0.000000 0.448937
36 22.646996 -0.000003 0.000000 0.000000 -0.000000 0.000000
37 18.521776 9.922008 -6.711960 0.063048 -1.563464 0.361096
38 29.943008 -6.360234 -0.330583 -1.408448 -0.000199 1.563748
39 54.015347 -6.529605 -1.891297 -1.408448 -0.000199 1.563748
40 -17.143814 0.532521 -35.127754 -0.000014 1.370796 3.110783
41 32.456383 -0.000001 0.000008 -0.006042 -1.111183 0.258025
42 48.985783 0.000000 0.000000 -0.000000 -0.000000 -0.640443
43 57.408672 -0.000003 0.000008 1.597000 0.011117 0.157889
44 1.857335 11.957449 6.764410 -2.798420 0.040675 0.666676
45 17.066280 0.000005 0.000017 0.000000 0.000000 0.387851
46 0.0 0.0 0.0 0.0 0.0 0.0
47 21.195385 0.098484 -2.688734 0.000945 -0.000162 0.169684
48 12.237205 0.000007 0.000001 -0.000000 -0.000000 0.448937
49 22.646994 -0.000003 -0.000001 -0.000000 -0.000000 3.141593
50 16.220613 11.940957 6.827999 3.080431 1.563448 0.380437
51 50.710941 -6.630799 5.648474 -1.750598 0.000056 1.563746
52 25.391741 -6.452422 3.200465 -1.750598 0.000056 1.563746
53 63.683681 39.983025 -0.238107 -1.570796 -0.000001 1.570001
54 39.432281 34.203304 -22.613102 -1.570796 -0.000001 1.570001
55 39.432281 34.203243 22.595676 -1.570796 -0.000001 1.570001
56 63.282032 -0.716972 20.325783 3.141593 0.000000 -0.000001
57 -21.487474 0.019814 19.775337 -0.000000 -3.141592 -0.000002
time 2
0 0.000000 7.767428 89.160049 0.000000 0.000000 -1.570795
1 0.000000 0.000000 -89.160027 0.000000 0.000000 1.570795
2 0.000000 0.000000 0.000000 -1.570795 -1.570796 0.000000
3 -0.000026 0.000030 18.595530 -0.055021 -2.760800 -0.917657
4 52.281639 -0.000003 0.000003 -0.000000 -0.000000 -1.525522
5 42.401634 0.000002 -0.000002 0.008612 -0.182851 0.565765
6 23.783974 40.997162 -0.000005 0.000000 -0.000000 1.570796
7 4.401493 0.000000 -0.000003 0.000000 0.000000 0.000000
8 4.401491 -0.000000 0.000002 0.000000 0.000000 0.000000
9 0.0 0.0 0.0 0.0 0.0 0.0
10 36.276955 6.884861 -1.335222 1.475580 -0.000002 1.752753
11 0.000026 -0.000022 -18.595530 0.337002 2.709661 -0.418601
12 52.281647 -0.000003 -0.000006 0.000000 -0.000000 -1.560334
13 42.401634 -0.000001 0.000004 0.054754 0.228543 1.009140
14 23.783972 40.997162 0.000000 -0.000000 0.000000 1.570796
15 4.401494 -0.000000 0.000004 0.000000 0.000000 0.000000
16 4.401495 -0.000000 -0.000001 0.000000 0.000000 0.000000
17 0.0 0.0 0.0 0.0 0.0 0.0
18 36.215038 6.866609 -1.550498 -1.449219 -3.141592 -1.388915
19 11.444748 -0.019553 -0.003825 0.169042 -0.043626 0.511972
20 28.683601 -0.041266 -0.000000 -0.000000 0.000001 -0.218489
21 53.093937 -0.004327 -0.000000 0.000000 -0.000000 0.030000
22 5.437289 -0.000002 0.000000 0.174533 0.000000 -0.065381
23 0.0 0.0 0.0 0.0 0.0 0.0
24 7.285634 -7.278543 -0.000020 -0.000005 0.000001 -2.749229
25 16.349974 -0.013654 -0.000000 -0.000000 0.000001 -0.219299
26 0.0 0.0 0.0 0.0 0.0 0.0
27 -16.427885 0.510344 35.303993 -0.000014 -1.370796 3.110810
28 32.456379 0.000001 0.000001 0.239422 1.203922 0.205264
29 48.985767 -0.000002 0.000002 -0.000000 -0.000000 -0.408468
30 57.408661 -0.000000 0.000000 -1.597896 0.009214 0.121770
31 1.857336 11.957446 -6.764410 2.799310 -0.047844 0.646565
32 17.066282 0.000003 -0.000014 0.000000 -0.000000 0.409183
33 0.0 0.0 0.0 0.0 0.0 0.0
34 21.195385 0.098481 2.688734 -0.000941 0.000182 0.191016
35 12.237203 -0.000003 -0.000001 -0.000000 -0.000000 0.470269
36 22.646994 -0.000009 -0.000000 0.000000 0.000000 -0.000000
37 18.521778 9.921999 -6.711961 0.063047 -1.563464 0.361096
38 29.943010 -6.360235 -0.330580 -1.408448 -0.000199 1.563748
39 54.015350 -6.529606 -1.891299 -1.408448 -0.000199 1.563748
40 -17.143820 0.532522 -35.127754 -0.000014 1.370796 3.110783
41 32.456379 0.000003 -0.000004 0.004461 -1.117696 0.258000
42 48.985775 -0.000003 -0.000001 -0.000000 -0.000000 -0.712698
43 57.408669 -0.000000 0.000006 1.597896 -0.009214 0.121770
44 1.857338 11.957444 6.764410 -2.799310 0.047844 0.646565
45 17.066282 0.000004 0.000014 0.000000 -0.000000 0.409183
46 0.0 0.0 0.0 0.0 0.0 0.0
47 21.195387 0.098478 -2.688731 0.000941 -0.000182 0.191016
48 12.237206 0.000008 -0.000000 -0.000000 0.000000 0.470269
49 22.646996 -0.000010 0.000001 -0.000000 -0.000000 3.141593
50 16.220613 11.940950 6.827997 3.080439 1.563448 0.380444
51 50.710938 -6.630795 5.648478 -1.750598 0.000056 1.563746
52 25.391737 -6.452419 3.200468 -1.750598 0.000056 1.563746
53 63.683693 39.983021 -0.238107 -1.570796 -0.000001 1.570001
54 39.432285 34.203304 -22.613102 -1.570796 -0.000001 1.570001
55 39.432285 34.203243 22.595676 -1.570796 -0.000001 1.570001
56 63.282032 -0.716972 20.325783 3.141593 0.000000 -0.000001
57 -21.487474 0.019814 19.775337 -0.000000 -3.141592 -0.000002
time 3
0 0.000000 7.767428 88.136475 0.000000 0.000000 -1.570795
1 0.000000 0.000000 -88.136459 0.000000 0.000000 1.570795
2 0.000000 0.000000 0.000000 -1.570795 -1.570796 0.000000
3 -0.000026 0.000030 18.595530 -0.046906 -2.757792 -0.934961
4 52.281639 0.000002 -0.000001 0.000000 -0.000000 -1.555171
5 42.401627 -0.000000 0.000001 0.009486 -0.185457 0.579067
6 23.783974 40.997162 -0.000003 0.000000 -0.000000 1.570796
7 4.401491 0.000000 -0.000002 0.000000 0.000000 0.000000
8 4.401493 -0.000000 -0.000000 0.000000 0.000000 0.000000
9 0.0 0.0 0.0 0.0 0.0 0.0
10 36.276947 6.884860 -1.335221 1.475580 -0.000002 1.752753
11 0.000026 -0.000022 -18.595530 0.330808 2.703856 -0.428039
12 52.281639 -0.000002 -0.000004 -0.000000 0.000000 -1.590286
13 42.401630 -0.000000 0.000001 0.055237 0.231989 1.029212
14 23.783972 40.997162 0.000001 -0.000000 0.000000 1.570796
15 4.401492 -0.000000 0.000005 0.000000 0.000000 0.000000
16 4.401493 -0.000000 -0.000000 0.000000 0.000000 0.000000
17 0.0 0.0 0.0 0.0 0.0 0.0
18 36.215034 6.866611 -1.550504 -1.449219 -3.141592 -1.388915
19 11.444748 -0.019553 -0.003825 0.169042 -0.043626 0.511972
20 28.684340 -0.041428 -0.000000 -0.000000 0.000001 -0.200713
21 53.093937 -0.004328 -0.000000 0.000000 -0.000000 0.030000
22 5.437289 -0.000002 0.000000 0.174533 0.000000 -0.083158
23 0.0 0.0 0.0 0.0 0.0 0.0
24 7.285635 -7.278544 -0.000020 -0.000005 0.000001 -2.749229
25 16.349968 -0.013651 -0.000001 -0.000000 0.000001 -0.219299
26 0.0 0.0 0.0 0.0 0.0 0.0
27 -16.427883 0.510343 35.303993 -0.000014 -1.370796 3.110810
28 32.456379 -0.000004 -0.000003 0.166830 1.209910 0.130306
29 48.985783 -0.000002 -0.000005 -0.000000 -0.000000 -0.398665
30 57.408665 -0.000001 0.000001 -1.598547 0.018442 0.105343
31 1.857336 11.957447 -6.764410 2.799762 -0.051096 0.637419
32 17.066280 0.000005 -0.000015 0.000000 -0.000000 0.418879
33 0.0 0.0 0.0 0.0 0.0 0.0
34 21.195385 0.098480 2.688734 -0.000939 0.000191 0.200712
35 12.237205 -0.000003 0.000001 -0.000000 0.000000 0.479965
36 22.646996 0.000006 0.000001 0.000000 -0.000000 -0.000000
37 18.521774 9.922002 -6.711960 0.063043 -1.563464 0.361102
38 29.943012 -6.360234 -0.330578 -1.408448 -0.000199 1.563748
39 54.015350 -6.529605 -1.891294 -1.408448 -0.000199 1.563748
40 -17.143826 0.532527 -35.127758 -0.000014 1.370796 3.110783
41 32.456379 0.000001 0.000005 0.009174 -1.120782 0.257966
42 48.985775 -0.000001 -0.000002 -0.000000 0.000000 -0.745541
43 57.408665 0.000000 0.000007 1.598547 -0.018442 0.105343
44 1.857336 11.957446 6.764411 -2.799762 0.051096 0.637419
45 17.066275 0.000001 0.000020 -0.000000 -0.000000 0.418879
46 0.0 0.0 0.0 0.0 0.0 0.0
47 21.195383 0.098482 -2.688735 0.000939 -0.000191 0.200713
48 12.237206 0.000007 0.000002 0.000000 0.000000 0.479966
49 22.646992 -0.000005 0.000001 0.000000 0.000000 3.141593
50 16.220612 11.940957 6.827999 3.080435 1.563440 0.380437
51 50.710930 -6.630796 5.648469 -1.750598 0.000056 1.563746
52 25.391735 -6.452418 3.200461 -1.750598 0.000056 1.563746
53 63.683689 39.983021 -0.238107 -1.570796 -0.000001 1.570001
54 39.432281 34.203304 -22.613102 -1.570796 -0.000001 1.570001
55 39.432281 34.203243 22.595676 -1.570796 -0.000001 1.570001
56 63.282032 -0.716972 20.325783 3.141593 0.000000 -0.000001
57 -21.487474 0.019814 19.775337 -0.000000 -3.141592 -0.000002
time 4
0 0.000000 7.767428 89.160049 0.000000 0.000000 -1.570795
1 0.000000 0.000000 -89.160019 0.000000 0.000000 1.570795
2 0.000000 0.000000 0.000000 -1.570795 -1.570796 0.000000
3 -0.000026 0.000030 18.595530 -0.055021 -2.760800 -0.917657
4 52.281639 -0.000003 0.000003 -0.000000 -0.000000 -1.525522
5 42.401634 0.000002 -0.000002 0.008612 -0.182851 0.565765
6 23.783974 40.997162 -0.000005 0.000000 -0.000000 1.570796
7 4.401493 0.000000 -0.000003 0.000000 0.000000 0.000000
8 4.401491 -0.000000 0.000002 0.000000 0.000000 0.000000
9 0.0 0.0 0.0 0.0 0.0 0.0
10 36.276955 6.884861 -1.335222 1.475580 -0.000002 1.752753
11 0.000026 -0.000022 -18.595530 0.337002 2.709661 -0.418601
12 52.281647 -0.000003 -0.000006 0.000000 -0.000000 -1.560334
13 42.401634 -0.000001 0.000004 0.054754 0.228543 1.009140
14 23.783972 40.997162 0.000000 -0.000000 0.000000 1.570796
15 4.401494 -0.000000 0.000004 0.000000 0.000000 0.000000
16 4.401495 -0.000000 -0.000001 0.000000 0.000000 0.000000
17 0.0 0.0 0.0 0.0 0.0 0.0
18 36.215038 6.866609 -1.550498 -1.449219 -3.141592 -1.388915
19 11.444748 -0.019553 -0.003825 0.169042 -0.043626 0.511972
20 28.683601 -0.041266 -0.000000 -0.000000 0.000001 -0.218489
21 53.093937 -0.004327 -0.000000 0.000000 -0.000000 0.030000
22 5.437289 -0.000002 0.000000 0.174533 0.000000 -0.065381
23 0.0 0.0 0.0 0.0 0.0 0.0
24 7.285634 -7.278543 -0.000020 -0.000005 0.000001 -2.749229
25 16.349974 -0.013653 -0.000001 -0.000000 0.000001 -0.219299
26 0.0 0.0 0.0 0.0 0.0 0.0
27 -16.427885 0.510344 35.303993 -0.000014 -1.370796 3.110810
28 32.456379 0.000001 0.000001 0.239422 1.203922 0.205264
29 48.985767 0.000001 0.000002 -0.000000 -0.000000 -0.408468
30 57.408661 0.000001 -0.000000 -1.597896 0.009214 0.121770
31 1.857334 11.957447 -6.764410 2.799310 -0.047844 0.646565
32 17.066275 0.000010 -0.000015 -0.000000 0.000000 0.409183
33 0.0 0.0 0.0 0.0 0.0 0.0
34 21.195385 0.098483 2.688734 -0.000941 0.000182 0.191016
35 12.237202 -0.000001 -0.000000 0.000000 -0.000000 0.470269
36 22.646994 -0.000007 0.000002 0.000000 -0.000000 0.000000
37 18.521774 9.922000 -6.711960 0.063047 -1.563464 0.361096
38 29.943010 -6.360234 -0.330580 -1.408448 -0.000199 1.563748
39 54.015347 -6.529605 -1.891299 -1.408448 -0.000199 1.563748
40 -17.143820 0.532522 -35.127754 -0.000014 1.370796 3.110783
41 32.456379 0.000003 -0.000004 0.004461 -1.117696 0.258000
42 48.985771 0.000000 -0.000001 -0.000000 0.000000 -0.712698
43 57.408669 0.000003 -0.000004 1.597896 -0.009214 0.121770
44 1.857338 11.957448 6.764412 -2.799310 0.047844 0.646565
45 17.066277 0.000010 0.000015 -0.000000 -0.000000 0.409183
46 0.0 0.0 0.0 0.0 0.0 0.0
47 21.195389 0.098484 -2.688732 0.000941 -0.000182 0.191016
48 12.237205 0.000001 -0.000001 0.000000 0.000000 0.470269
49 22.646994 -0.000010 0.000001 0.000000 -0.000000 3.141593
50 16.220615 11.940955 6.827999 3.080435 1.563448 0.380439
51 50.710934 -6.630795 5.648465 -1.750598 0.000056 1.563746
52 25.391735 -6.452417 3.200459 -1.750598 0.000056 1.563746
53 63.683693 39.983021 -0.238107 -1.570796 -0.000001 1.570001
54 39.432285 34.203304 -22.613102 -1.570796 -0.000001 1.570001
55 39.432285 34.203243 22.595676 -1.570796 -0.000001 1.570001
56 63.282032 -0.716972 20.325783 3.141593 0.000000 -0.000001
57 -21.487474 0.019814 19.775337 -0.000000 -3.141592 -0.000002
time 5
0 0.000000 7.767428 91.411911 0.000000 0.000000 -1.570795
1 0.000000 0.000000 -91.411896 0.000000 0.000000 1.570795
2 0.000000 0.000000 0.000000 -1.570795 -1.570796 0.000000
3 -0.000026 0.000030 18.595530 -0.072668 -2.767747 -0.879084
4 52.281643 0.000000 0.000002 -0.000000 0.000000 -1.458443
5 42.401630 -0.000001 0.000002 0.006850 -0.177342 0.535230
6 23.783974 40.997162 -0.000002 0.000000 -0.000000 1.570796
7 4.401494 0.000000 -0.000004 0.000000 0.000000 0.000000
8 4.401495 -0.000000 0.000001 0.000000 0.000000 0.000000
9 0.0 0.0 0.0 0.0 0.0 0.0
10 36.276951 6.884857 -1.335225 1.475580 -0.000002 1.752753
11 0.000026 -0.000022 -18.595530 0.350544 2.722866 -0.396770
12 52.281643 -0.000002 0.000001 -0.000000 -0.000000 -1.492702
13 42.401634 -0.000003 -0.000000 0.053784 0.221298 0.964465
14 23.783972 40.997158 -0.000000 -0.000000 0.000000 1.570796
15 4.401495 -0.000000 0.000003 0.000000 0.000000 0.000000
16 4.401495 -0.000000 -0.000002 0.000000 0.000000 0.000000
17 0.0 0.0 0.0 0.0 0.0 0.0
18 36.215034 6.866611 -1.550504 -1.449219 -3.141592 -1.388915
19 11.444748 -0.019553 -0.003825 0.169042 -0.043626 0.511972
20 28.681988 -0.040871 -0.000001 -0.000000 0.000001 -0.257598
21 53.093933 -0.004328 -0.000000 0.000000 -0.000000 0.030000
22 5.437290 -0.000003 0.000000 0.174533 0.000000 -0.026273
23 0.0 0.0 0.0 0.0 0.0 0.0
24 7.285628 -7.278544 -0.000019 -0.000005 0.000001 -2.749229
25 16.349977 -0.013657 -0.000001 -0.000000 0.000001 -0.219299
26 0.0 0.0 0.0 0.0 0.0 0.0
27 -16.427874 0.510342 35.303993 -0.000014 -1.370797 3.110810
28 32.456375 0.000001 -0.000008 0.388862 1.184176 0.359822
29 48.985779 -0.000003 -0.000007 0.000000 -0.000000 -0.430033
30 57.408661 0.000001 0.000003 -1.597000 -0.011117 0.157889
31 1.857334 11.957451 -6.764410 2.798420 -0.040675 0.666675
32 17.066288 0.000002 -0.000016 0.000000 -0.000000 0.387851
33 0.0 0.0 0.0 0.0 0.0 0.0
34 21.195383 0.098485 2.688734 -0.000945 0.000162 0.169684
35 12.237201 -0.000003 -0.000001 -0.000000 0.000000 0.448937
36 22.646992 -0.000003 -0.000000 0.000000 -0.000000 -0.000000
37 18.521774 9.922007 -6.711960 0.063046 -1.563464 0.361094
38 29.943014 -6.360234 -0.330582 -1.408448 -0.000199 1.563748
39 54.015350 -6.529604 -1.891304 -1.408448 -0.000199 1.563748
40 -17.143814 0.532521 -35.127754 -0.000014 1.370796 3.110783
41 32.456383 -0.000001 0.000008 -0.006042 -1.111183 0.258025
42 48.985783 0.000000 0.000005 -0.000000 0.000000 -0.640443
43 57.408669 0.000001 -0.000001 1.597000 0.011117 0.157889
44 1.857335 11.957449 6.764412 -2.798420 0.040675 0.666676
45 17.066277 0.000002 0.000018 0.000000 0.000000 0.387851
46 0.0 0.0 0.0 0.0 0.0 0.0
47 21.195385 0.098484 -2.688733 0.000945 -0.000162 0.169684
48 12.237206 0.000005 0.000003 -0.000000 0.000000 0.448937
49 22.646996 -0.000002 -0.000002 -0.000000 -0.000000 -3.141593
50 16.220613 11.940957 6.827997 3.080437 1.563440 0.380439
51 50.710930 -6.630795 5.648471 -1.750598 0.000056 1.563746
52 25.391735 -6.452417 3.200462 -1.750598 0.000056 1.563746
53 63.683689 39.983021 -0.238107 -1.570796 -0.000001 1.570001
54 39.432281 34.203304 -22.613100 -1.570796 -0.000001 1.570001
55 39.432281 34.203243 22.595676 -1.570796 -0.000001 1.570001
56 63.282032 -0.716972 20.325783 3.141593 0.000000 -0.000001
57 -21.487474 0.019814 19.775337 -0.000000 -3.141592 -0.000002
time 6
0 0.000000 7.767428 93.663773 0.000000 0.000000 -1.570795
1 0.000000 0.000000 -93.663742 0.000000 0.000000 1.570795
2 0.000000 0.000000 0.000000 -1.570795 -1.570796 0.000000
3 -0.000026 0.000030 18.595530 -0.090080 -2.775194 -0.839663
4 52.281639 -0.000002 0.000004 0.000000 0.000000 -1.388525
5 42.401630 0.000000 -0.000002 0.005287 -0.172125 0.502819
6 23.783974 40.997166 -0.000001 0.000000 -0.000000 1.570796
7 4.401494 0.000000 -0.000003 0.000000 0.000000 0.000000
8 4.401496 -0.000000 0.000002 0.000000 0.000000 0.000000
9 0.0 0.0 0.0 0.0 0.0 0.0
10 36.276955 6.884861 -1.335225 1.475580 -0.000002 1.752753
11 0.000026 -0.000022 -18.595530 0.363980 2.736743 -0.373412
12 52.281651 -0.000000 -0.000003 0.000000 -0.000000 -1.422397
13 42.401634 0.000000 0.000004 0.052930 0.214486 0.918881
14 23.783972 40.997158 -0.000001 -0.000000 0.000000 1.570796
15 4.401493 -0.000000 0.000002 0.000000 0.000000 0.000000
16 4.401494 -0.000000 -0.000003 0.000000 0.000000 0.000000
17 0.0 0.0 0.0 0.0 0.0 0.0
18 36.215038 6.866610 -1.550501 -1.449219 -3.141592 -1.388915
19 11.444748 -0.019552 -0.003825 0.169042 -0.043626 0.511972
20 28.680397 -0.040422 -0.000001 -0.000000 0.000001 -0.296706
21 53.093929 -0.004327 -0.000001 0.000000 -0.000000 0.030000
22 5.437286 -0.000001 -0.000000 0.174533 0.000000 0.012836
23 0.0 0.0 0.0 0.0 0.0 0.0
24 7.285634 -7.278543 -0.000019 -0.000005 0.000001 -2.749229
25 16.349974 -0.013655 -0.000001 -0.000000 0.000001 -0.219299
26 0.0 0.0 0.0 0.0 0.0 0.0
27 -16.427877 0.510342 35.303993 -0.000014 -1.370796 3.110810
28 32.456379 -0.000001 0.000000 0.520939 1.156512 0.496906
29 48.985775 -0.000000 0.000004 -0.000000 -0.000000 -0.451598
30 57.408661 0.000002 -0.000009 -1.596838 -0.031467 0.194006
31 1.857332 11.957448 -6.764411 2.797675 -0.033490 0.686774
32 17.066280 0.000004 -0.000018 -0.000000 0.000000 0.366519
33 0.0 0.0 0.0 0.0 0.0 0.0
34 21.195383 0.098482 2.688733 -0.000948 0.000142 0.148353
35 12.237199 0.000003 0.000001 0.000000 0.000000 0.427606
36 22.646992 -0.000005 0.000001 -0.000000 -0.000000 -0.000000
37 18.521772 9.922000 -6.711960 0.063043 -1.563464 0.361102
38 29.943014 -6.360234 -0.330586 -1.408448 -0.000199 1.563748
39 54.015350 -6.529605 -1.891304 -1.408448 -0.000199 1.563748
40 -17.143814 0.532522 -35.127754 -0.000014 1.370796 3.110783
41 32.456379 0.000003 -0.000012 -0.016729 -1.105058 0.257997
42 48.985779 0.000003 0.000007 -0.000000 -0.000000 -0.568187
43 57.408661 -0.000003 -0.000004 1.596838 0.031467 0.194006
44 1.857337 11.957445 6.764411 -2.797675 0.033490 0.686774
45 17.066278 0.000007 0.000014 -0.000000 0.000000 0.366519
46 0.0 0.0 0.0 0.0 0.0 0.0
47 21.195385 0.098479 -2.688730 0.000948 -0.000142 0.148353
48 12.237206 0.000003 0.000003 0.000000 -0.000000 0.427606
49 22.646994 -0.000001 -0.000000 -0.000000 -0.000000 -3.141593
50 16.220612 11.940952 6.828000 3.080433 1.563440 0.380435
51 50.710941 -6.630801 5.648473 -1.750598 0.000056 1.563746
52 25.391737 -6.452421 3.200465 -1.750598 0.000056 1.563746
53 63.683693 39.983021 -0.238107 -1.570796 -0.000001 1.570001
54 39.432285 34.203300 -22.613100 -1.570796 -0.000001 1.570001
55 39.432285 34.203243 22.595676 -1.570796 -0.000001 1.570001
56 63.282032 -0.716972 20.325783 3.141593 0.000000 -0.000001
57 -21.487474 0.019814 19.775337 -0.000000 -3.141592 -0.000002
end
