version 1
nodes
0 "Bip01" -1
1 "Bip01 Footsteps" 0
2 "Bip01 Pelvis" 0
3 "Bip01 L Thigh" 2
4 "Bip01 L Calf" 3
5 "Bip01 L Foot" 4
6 "Bip01 L Toe0" 5
7 "Bip01 L Toe01" 6
8 "Bip01 L Toe02" 7
9 "Null 9" -1
10 "poison05" 4
11 "Bip01 R Thigh" 2
12 "Bip01 R Calf" 11
13 "Bip01 R Foot" 12
14 "Bip01 R Toe0" 13
15 "Bip01 R Toe01" 14
16 "Bip01 R Toe02" 15
17 "Null 17" -1
18 "poison04" 12
19 "Bip01 Spine" 2
20 "Bip01 Spine1" 19
21 "Bip01 Neck" 20
22 "Bip01 Head" 21
23 "Null 23" -1
24 "Bip01 Ponytail1" 22
25 "Bip01 Ponytail11" 24
26 "Null 26" -1
27 "Bip01 L Clavicle" 21
28 "Bip01 L UpperArm" 27
29 "Bip01 L Forearm" 28
30 "Bip01 L Hand" 29
31 "Bip01 L Finger0" 30
32 "Bip01 L Finger01" 31
33 "Null 33" -1
34 "Bip01 L Finger1" 30
35 "Bip01 L Finger11" 34
36 "Bip01 L Finger1Nub" 35
37 "hand_bofdgne01" 30
38 "hand_bofdgne03" 29
39 "hand_bofdgne02" 29
40 "Bip01 R Clavicle" 21
41 "Bip01 R UpperArm" 40
42 "Bip01 R Forearm" 41
43 "Bip01 R Hand" 42
44 "Bip01 R Finger0" 43
45 "Bip01 R Finger01" 44
46 "Null 46" -1
47 "Bip01 R Finger1" 43
48 "Bip01 R Finger11" 47
49 "Bip01 R Finger1Nub" 48
50 "knife_gdf" 43
51 "knife_gdf01" 42
52 "knife_gdf02" 42
53 "poison01" 19
54 "poison03" 19
55 "poison02" 19
56 "poison07" 0
57 "poison06" 0
end
skeleton
time 0
0 0.000000 7.767428 101.606743 0.000000 0.000000 -1.570795
1 0.000000 0.000000 -93.663757 0.000000 0.000000 1.570795
2 0.000000 0.000000 0.000000 -1.570795 -1.570796 0.000000
3 -0.000026 0.000030 18.595530 -0.091518 -2.775536 -0.835649
4 52.281647 0.000001 0.000004 0.000000 0.000000 -1.359839
5 42.401638 -0.000001 -0.000003 0.005288 -0.172125 0.477897
6 23.783972 40.997158 -0.000002 0.000000 0.000000 1.570796
7 4.401493 -0.000000 -0.000001 0.000000 0.000000 0.000000
8 4.401497 0.000000 0.000002 0.000000 0.000000 0.000000
9 0.0 0.0 0.0 0.0 0.0 0.0
10 36.276958 6.884860 -1.335222 1.475580 -0.000002 1.752753
11 0.000026 -0.000022 -18.595530 0.363980 2.736743 -0.373412
12 52.281639 -0.000001 -0.000004 -0.000000 -0.000000 -1.422397
13 42.401630 -0.000001 0.000003 0.052930 0.214486 0.918881
14 23.783972 40.997158 0.000002 -0.000000 0.000000 1.570796
15 4.401494 0.000000 0.000005 0.000000 0.000000 0.000000
16 4.401495 -0.000000 -0.000000 0.000000 0.000000 0.000000
17 0.0 0.0 0.0 0.0 0.0 0.0
18 36.215038 6.866609 -1.550503 -1.449219 -3.141592 -1.388915
19 11.444740 -0.019552 -0.003825 0.169042 -0.043626 0.511972
20 28.680408 -0.040427 -0.000000 -0.000000 0.000001 -0.296706
21 53.093933 -0.004327 -0.000000 0.000000 -0.000000 0.030000
22 5.437293 0.000000 -0.000000 0.174533 0.000000 0.012836
23 0.0 0.0 0.0 0.0 0.0 0.0
24 7.285632 -7.278543 -0.000020 -0.000005 0.000001 -2.749229
25 16.349968 -0.013656 -0.000001 -0.000000 0.000001 -0.219299
26 0.0 0.0 0.0 0.0 0.0 0.0
27 -16.427870 0.510343 35.303993 -0.000014 -1.370796 3.110810
28 32.456375 0.000000 -0.000001 0.520939 1.156513 0.496906
29 48.985786 -0.000002 -0.000000 0.000000 -0.000000 -0.451598
30 57.408661 -0.000000 -0.000006 -1.649027 0.041525 -0.131120
31 1.857331 11.957448 -6.764410 2.802166 -0.065675 0.596223
32 17.066284 0.000006 -0.000013 0.000000 -0.000000 0.462512
33 0.0 0.0 0.0 0.0 0.0 0.0
34 21.195383 0.098482 2.688734 -0.000930 0.000232 0.244346
35 12.237205 -0.000000 -0.000000 0.000000 -0.000000 0.523599
36 22.646994 0.000001 0.000001 -0.000000 0.000000 0.000000
37 18.521772 9.922002 -6.711960 0.063046 -1.563464 0.361098
38 29.943012 -6.360234 -0.330582 -1.408448 -0.000199 1.563748
39 54.015350 -6.529605 -1.891300 -1.408448 -0.000199 1.563748
40 -17.143808 0.532522 -35.127754 -0.000014 1.370796 3.110783
41 32.456379 0.000001 -0.000011 -0.016729 -1.105058 0.257997
42 48.985786 0.000002 0.000005 -0.000000 -0.000000 -0.568187
43 57.408661 -0.000001 -0.000005 1.596881 -0.064491 0.191413
44 1.857335 11.957442 6.764410 -2.802166 0.065675 0.596223
45 17.066278 0.000004 0.000015 -0.000000 0.000000 0.462512
46 0.0 0.0 0.0 0.0 0.0 0.0
47 21.195383 0.098483 -2.688732 0.000930 -0.000232 0.244346
48 12.237202 0.000003 0.000001 0.000000 0.000000 0.523599
49 22.646992 -0.000003 -0.000001 0.000000 0.000000 3.141593
50 16.220612 11.940948 6.827998 3.080435 1.563448 0.380439
51 50.710941 -6.630799 5.648472 -1.750598 0.000056 1.563746
52 25.391737 -6.452420 3.200464 -1.750598 0.000056 1.563746
53 63.683689 39.983021 -0.238107 -1.570796 -0.000001 1.570001
54 39.432285 34.203304 -22.613100 -1.570796 -0.000001 1.570001
55 39.432278 34.203251 22.595675 -1.570796 -0.000001 1.570001
56 63.282032 -0.716972 20.325783 3.141593 0.000000 -0.000001
57 -21.487474 0.019814 19.775337 -0.000000 -3.141592 -0.000002
time 1
0 -17.819321 23.375843 93.620628 0.000000 0.000000 -1.570795
1 0.000000 -0.000000 -85.677643 0.000000 0.000000 1.570795
2 0.000000 -0.000000 0.000000 -1.570795 -1.570796 0.000000
3 -0.000024 0.000031 18.595530 0.079701 -2.622576 -1.074405
4 52.281635 0.000006 0.000002 0.000000 -0.000000 -1.206124
5 42.401634 -0.000000 0.000004 0.098291 -0.310458 0.084587
6 23.783972 40.997158 0.000000 0.000000 0.000000 1.570796
7 4.401495 -0.000000 0.000001 0.000000 0.000000 0.000000
8 4.401491 0.000000 0.000004 0.000000 0.000000 0.000000
9 0.0 0.0 0.0 0.0 0.0 0.0
10 36.276958 6.884859 -1.335219 1.475580 -0.000002 1.752753
11 0.000028 -0.000022 -18.595528 0.501180 2.904943 -0.420831
12 52.281643 -0.000001 0.000003 -0.000000 0.000000 -1.675710
13 42.401634 -0.000002 0.000002 -0.000067 -0.008603 1.196466
14 23.783974 40.997162 -0.000002 -0.000000 0.000000 1.570796
15 4.401495 0.000000 0.000004 0.000000 0.000000 0.000000
16 4.401493 -0.000000 -0.000000 0.000000 0.000000 0.000000
17 0.0 0.0 0.0 0.0 0.0 0.0
18 36.215038 6.866608 -1.550501 -1.449219 -3.141592 -1.388915
19 11.437708 -0.021089 -0.007732 0.350269 -0.155517 0.137624
20 28.667498 -0.033176 -0.006898 0.164247 0.059298 -0.640890
21 53.093937 -0.004318 -0.000001 0.000000 -0.000000 0.030000
22 5.437279 -0.000003 0.000002 -0.153664 0.246987 0.644149
23 0.0 0.0 0.0 0.0 0.0 0.0
24 7.285631 -7.278547 -0.000018 -0.000005 0.000001 -2.749229
25 16.349974 -0.013663 -0.000002 -0.000000 0.000001 -0.219299
26 0.0 0.0 0.0 0.0 0.0 0.0
27 -16.427898 0.510338 35.303997 0.414808 -1.352821 2.704750
28 32.456383 -0.000000 -0.000003 1.289601 0.508053 0.951804
29 48.985783 0.000004 -0.000004 -0.000000 -0.000000 -0.302054
30 57.408669 0.000007 0.000005 -1.649027 0.041525 -0.131120
31 1.857334 11.957448 -6.764411 2.802166 -0.065675 0.596223
32 17.066278 0.000001 -0.000013 0.000000 0.000000 0.462512
33 0.0 0.0 0.0 0.0 0.0 0.0
34 21.195383 0.098484 2.688732 -0.000930 0.000232 0.244346
35 12.237204 -0.000001 0.000004 -0.000000 -0.000000 0.523599
36 22.646992 -0.000001 0.000002 0.000000 -0.000000 0.000000
37 18.521772 9.922001 -6.711958 0.063045 -1.563464 0.361100
38 29.943007 -6.360234 -0.330579 -1.408448 -0.000199 1.563748
39 54.015347 -6.529602 -1.891296 -1.408448 -0.000199 1.563748
40 -17.143827 0.532515 -35.127758 1.071149 1.170543 -2.136620
41 32.456375 -0.000004 0.000005 -0.326590 -0.966113 0.455834
42 48.985767 0.000000 0.000000 -0.000000 0.000000 -0.568187
43 57.408672 -0.000001 -0.000003 1.602404 -0.061889 0.104010
44 1.857336 11.957452 6.764414 -2.802166 0.065676 0.596223
45 17.066280 0.000004 0.000011 -0.000000 0.000000 0.462512
46 0.0 0.0 0.0 0.0 0.0 0.0
47 21.195389 0.098489 -2.688732 0.000930 -0.000232 0.244346
48 12.237202 0.000001 -0.000004 0.000000 0.000000 0.523599
49 22.646994 -0.000001 -0.000003 0.000000 0.000000 3.141593
50 16.220615 11.940957 6.827995 3.080435 1.563448 0.380439
51 50.710938 -6.630803 5.648474 -1.750598 0.000056 1.563746
52 25.391737 -6.452422 3.200463 -1.750598 0.000056 1.563746
53 63.683693 39.983017 -0.238106 -1.570796 -0.000001 1.570001
54 39.432281 34.203300 -22.613104 -1.570796 -0.000001 1.570001
55 39.432278 34.203243 22.595678 -1.570796 -0.000001 1.570001
56 63.282032 -0.716972 20.325783 3.141593 0.000000 -0.000001
57 -21.487476 0.019814 19.775337 -0.000000 -3.141592 -0.000002
time 2
0 0.000000 7.767428 101.606743 0.000000 0.000000 -1.570795
1 0.000000 0.000000 -93.663734 0.000000 0.000000 1.570795
2 0.000000 0.000000 0.000000 -1.570795 -1.570796 0.000000
3 -0.000026 0.000030 18.595530 -0.091518 -2.775536 -0.835649
4 52.281647 0.000001 0.000004 0.000000 0.000000 -1.359839
5 42.401638 -0.000001 -0.000003 0.005288 -0.172125 0.477897
6 23.783972 40.997158 -0.000002 0.000000 0.000000 1.570796
7 4.401493 -0.000000 -0.000001 0.000000 0.000000 0.000000
8 4.401497 0.000000 0.000002 0.000000 0.000000 0.000000
9 0.0 0.0 0.0 0.0 0.0 0.0
10 36.276958 6.884860 -1.335222 1.475580 -0.000002 1.752753
11 0.000026 -0.000022 -18.595530 0.363980 2.736743 -0.373412
12 52.281639 -0.000001 -0.000004 -0.000000 -0.000000 -1.422397
13 42.401630 -0.000001 0.000003 0.052930 0.214486 0.918881
14 23.783972 40.997158 0.000002 -0.000000 0.000000 1.570796
15 4.401494 0.000000 0.000005 0.000000 0.000000 0.000000
16 4.401495 -0.000000 -0.000000 0.000000 0.000000 0.000000
17 0.0 0.0 0.0 0.0 0.0 0.0
18 36.215038 6.866609 -1.550503 -1.449219 -3.141592 -1.388915
19 11.444740 -0.019552 -0.003825 0.169042 -0.043626 0.511972
20 28.680408 -0.040427 -0.000000 -0.000000 0.000001 -0.296706
21 53.093933 -0.004327 -0.000000 0.000000 -0.000000 0.030000
22 5.437293 0.000000 -0.000000 0.174533 0.000000 0.012836
23 0.0 0.0 0.0 0.0 0.0 0.0
24 7.285632 -7.278543 -0.000020 -0.000005 0.000001 -2.749229
25 16.349968 -0.013656 -0.000001 -0.000000 0.000001 -0.219299
26 0.0 0.0 0.0 0.0 0.0 0.0
27 -16.427870 0.510343 35.303993 -0.000014 -1.370796 3.110810
28 32.456375 0.000000 -0.000001 0.520939 1.156513 0.496906
29 48.985786 -0.000002 -0.000000 0.000000 -0.000000 -0.451598
30 57.408661 -0.000000 -0.000006 -1.649027 0.041525 -0.131120
31 1.857331 11.957448 -6.764410 2.802166 -0.065675 0.596223
32 17.066284 0.000006 -0.000013 0.000000 -0.000000 0.462512
33 0.0 0.0 0.0 0.0 0.0 0.0
34 21.195383 0.098482 2.688734 -0.000930 0.000232 0.244346
35 12.237205 -0.000000 -0.000000 0.000000 -0.000000 0.523599
36 22.646994 0.000001 0.000001 -0.000000 0.000000 0.000000
37 18.521772 9.922002 -6.711960 0.063046 -1.563464 0.361098
38 29.943012 -6.360234 -0.330582 -1.408448 -0.000199 1.563748
39 54.015350 -6.529605 -1.891300 -1.408448 -0.000199 1.563748
40 -17.143808 0.532522 -35.127754 -0.000014 1.370796 3.110783
41 32.456379 0.000001 -0.000011 -0.016729 -1.105058 0.257997
42 48.985786 0.000002 0.000005 -0.000000 -0.000000 -0.568187
43 57.408661 -0.000001 -0.000005 1.596881 -0.064491 0.191413
44 1.857335 11.957442 6.764410 -2.802166 0.065675 0.596223
45 17.066278 0.000004 0.000015 -0.000000 0.000000 0.462512
46 0.0 0.0 0.0 0.0 0.0 0.0
47 21.195383 0.098483 -2.688732 0.000930 -0.000232 0.244346
48 12.237202 0.000003 0.000001 0.000000 0.000000 0.523599
49 22.646992 -0.000003 -0.000001 0.000000 0.000000 3.141593
50 16.220612 11.940948 6.827998 3.080435 1.563448 0.380439
51 50.710941 -6.630799 5.648472 -1.750598 0.000056 1.563746
52 25.391737 -6.452420 3.200464 -1.750598 0.000056 1.563746
53 63.683689 39.983021 -0.238107 -1.570796 -0.000001 1.570001
54 39.432285 34.203304 -22.613100 -1.570796 -0.000001 1.570001
55 39.432278 34.203251 22.595675 -1.570796 -0.000001 1.570001
56 63.282032 -0.716972 20.325783 3.141593 0.000000 -0.000001
57 -21.487474 0.019814 19.775337 -0.000000 -3.141592 -0.000002
end
