version 1

nodes
0 "root" -1
end

skeleton
time 0
0 0.000000 0.000000 0.000000 0.000000 0.000000 0.000000
end

triangles
SHSW01043717201318BK.jpg
0 6.480866 2.072502 -44.776070 0.949010 -0.000172 -0.315245 0.983964 0.152991
0 3.278653 5.742590 -50.723244 -0.271320 0.708576 -0.651387 0.958982 0.082994
0 3.339584 9.403222 -46.214714 0.507841 0.680828 -0.527797 0.921805 0.127848
SHSW01043717201318BK.jpg
0 3.339584 9.403222 -46.214714 0.507841 0.680828 -0.527797 0.921805 0.127848
0 3.212866 14.830184 -37.788918 0.358263 0.829357 -0.428736 0.866467 0.213630
0 6.990138 8.501828 -35.836151 0.897692 0.369198 -0.240501 0.928368 0.238875
SHSW01043717201318BK.jpg
0 6.990138 8.501828 -35.836151 0.897692 0.369198 -0.240501 0.928368 0.238875
0 6.480866 2.072502 -44.776070 0.949010 -0.000172 -0.315245 0.983964 0.152991
0 3.339584 9.403222 -46.214714 0.507841 0.680828 -0.527797 0.921805 0.127848
SHSW01043717201318BK.jpg
0 3.212866 14.830184 -37.788918 0.358263 0.829357 -0.428736 0.866467 0.213630
0 2.640566 18.893436 -27.596931 -0.395009 0.877300 -0.272602 0.824061 0.316464
0 7.461831 12.789432 -25.819481 0.877133 0.438547 -0.195741 0.882967 0.340696
SHSW01043717201318BK.jpg
0 7.461831 12.789432 -25.819481 0.877133 0.438547 -0.195741 0.882967 0.340696
0 6.990138 8.501828 -35.836151 0.897692 0.369198 -0.240501 0.928368 0.238875
0 3.212866 14.830184 -37.788918 0.358263 0.829357 -0.428736 0.866467 0.213630
SHSW01043717201318BK.jpg
0 2.640566 18.893436 -27.596931 -0.395009 0.877300 -0.272602 0.824061 0.316464
0 3.247639 21.577999 -15.806303 0.204324 0.960119 -0.190846 0.794581 0.438349
0 8.725929 15.115739 -14.418142 0.877479 0.453955 -0.154776 0.857502 0.458597
SHSW01043717201318BK.jpg
0 8.725929 15.115739 -14.418142 0.877479 0.453955 -0.154776 0.857502 0.458597
0 7.461831 12.789432 -25.819481 0.877133 0.438547 -0.195741 0.882967 0.340696
0 2.640566 18.893436 -27.596931 -0.395009 0.877300 -0.272602 0.824061 0.316464
SHSW01043717201318BK.jpg
0 3.247639 21.577999 -15.806303 0.204324 0.960119 -0.190846 0.794581 0.438349
0 3.696351 25.754856 7.169825 -0.956172 0.285747 -0.063909 0.747652 0.674166
0 9.392221 18.807362 6.531786 0.820307 0.538901 -0.191528 0.815652 0.674434
SHSW01043717201318BK.jpg
0 9.392221 18.807362 6.531786 0.820307 0.538901 -0.191528 0.815652 0.674434
0 8.725929 15.115739 -14.418142 0.877479 0.453955 -0.154776 0.857502 0.458597
0 3.247639 21.577999 -15.806303 0.204324 0.960119 -0.190846 0.794581 0.438349
SHSW01043717201318BK.jpg
0 3.696351 25.754856 7.169825 -0.956172 0.285747 -0.063909 0.747652 0.674166
0 2.889288 31.189926 23.666679 0.037799 0.892235 -0.449987 0.689990 0.841941
0 11.235311 23.372452 23.157290 0.870262 0.471307 0.143225 0.761115 0.838431
SHSW01043717201318BK.jpg
0 11.235311 23.372452 23.157290 0.870262 0.471307 0.143225 0.761115 0.838431
0 9.392221 18.807362 6.531786 0.820307 0.538901 -0.191528 0.815652 0.674434
0 3.696351 25.754856 7.169825 -0.956172 0.285747 -0.063909 0.747652 0.674166
SHSW01043717201318BK.jpg
0 11.235311 23.372452 23.157290 0.870262 0.471307 0.143225 0.761115 0.838431
0 8.874727 26.627480 25.511560 0.838733 0.190976 0.509955 0.728033 0.863208
0 4.914689 26.126789 26.244631 -0.700160 -0.408567 0.585533 0.733016 0.867227
SHSW01043717201318BK.jpg
0 4.914689 26.126789 26.244631 -0.700160 -0.408567 0.585533 0.733016 0.867227
0 8.874727 26.627480 25.511560 0.838733 0.190976 0.509955 0.728033 0.863208
0 0.679372 38.043949 35.840683 -0.136645 -0.350481 0.926548 0.621468 0.956804
SHSW01043717201318BK.jpg
0 6.605595 21.125816 31.367115 -0.484046 0.539166 0.689202 0.786659 0.926322
0 12.414587 14.601876 30.639786 0.744492 0.655455 -0.126926 0.850663 0.921668
0 11.235311 23.372452 23.157290 0.870262 0.471307 0.143225 0.761115 0.838431
SHSW01043717201318BK.jpg
0 12.414587 14.601876 30.639786 0.744492 0.655455 -0.126926 0.850663 0.921668
0 6.605595 21.125816 31.367115 -0.484046 0.539166 0.689202 0.786659 0.926322
0 7.916062 19.658653 34.725555 -0.668476 0.655924 -0.350576 0.800517 0.958470
SHSW01043717201318BK.jpg
0 9.068153 18.545841 42.008217 -0.880558 -0.149394 0.449776 0.427686 0.410904
0 8.303183 21.952454 51.010208 0.286575 0.779255 -0.557347 0.393207 0.510706
0 18.878313 9.440064 54.040344 0.879463 0.471387 0.065868 0.520114 0.556269
SHSW01043717201318BK.jpg
0 18.878313 9.440064 54.040344 0.879463 0.471387 0.065868 0.520114 0.556269
0 18.180401 8.830274 43.228355 0.851677 0.504836 -0.140666 0.529591 0.435306
0 9.068153 18.545841 42.008217 -0.880558 -0.149394 0.449776 0.427686 0.410904
SHSW01043717201318BK.jpg
0 22.781523 -0.081886 50.383003 0.998964 -0.007540 0.044874 0.622252 0.521671
0 21.514175 0.108696 41.947845 0.979331 -0.002536 -0.202249 0.622622 0.427672
0 18.180401 8.830274 43.228355 0.851677 0.504836 -0.140666 0.529591 0.435306
SHSW01043717201318BK.jpg
0 11.931696 14.376046 67.183784 -0.058594 -0.702051 0.709712 0.464575 0.693051
0 15.308987 17.817894 59.421341 0.950943 0.307432 0.034533 0.430902 0.609918
0 14.090536 22.586384 66.181671 0.949966 0.311891 0.017002 0.378615 0.682713
SHSW01043717201318BK.jpg
0 14.090536 22.586384 66.181671 0.949966 0.311891 0.017002 0.378615 0.682713
0 11.545922 17.609222 73.327782 -0.602460 -0.792595 0.093996 0.429308 0.760913
0 11.931696 14.376046 67.183784 -0.058594 -0.702051 0.709712 0.464575 0.693051
SHSW01043717201318BK.jpg
0 8.381371 26.803051 72.134911 -0.475519 0.652296 0.590247 0.336289 0.739578
0 10.382519 22.487328 76.985176 0.011213 0.815301 0.578929 0.376158 0.796751
0 14.089989 20.208046 75.007957 0.996546 -0.000534 0.083045 0.401229 0.780802
SHSW01043717201318BK.jpg
0 14.089989 20.208046 75.007957 0.996546 -0.000534 0.083045 0.401229 0.780802
0 14.090536 22.586384 66.181671 0.949966 0.311891 0.017002 0.378615 0.682713
0 8.381371 26.803051 72.134911 -0.475519 0.652296 0.590247 0.336289 0.739578
SHSW01043717201318BK.jpg
0 10.382519 22.487328 76.985176 0.011213 0.815301 0.578929 0.376158 0.796751
0 11.532397 20.029167 81.421097 -0.810625 0.455212 0.368333 0.400958 0.849802
0 13.662506 18.155491 80.701874 0.993337 -0.067605 0.093339 0.420981 0.843881
SHSW01043717201318BK.jpg
0 13.662506 18.155491 80.701874 0.993337 -0.067605 0.093339 0.420981 0.843881
0 14.089989 20.208046 75.007957 0.996546 -0.000534 0.083045 0.401229 0.780802
0 10.382519 22.487328 76.985176 0.011213 0.815301 0.578929 0.376158 0.796751
SHSW01043717201318BK.jpg
0 11.532397 20.029167 81.421097 -0.810625 0.455212 0.368333 0.400958 0.849802
0 12.242105 18.669590 85.126793 -0.494175 0.807975 0.320884 0.414792 0.891857
0 13.208082 17.787872 84.868980 0.971343 0.202871 0.123842 0.423799 0.889892
SHSW01043717201318BK.jpg
0 13.208082 17.787872 84.868980 0.971343 0.202871 0.123842 0.423799 0.889892
0 13.662506 18.155491 80.701874 0.993337 -0.067605 0.093339 0.420981 0.843881
0 11.532397 20.029167 81.421097 -0.810625 0.455212 0.368333 0.400958 0.849802
SHSW01043717201318BK.jpg
0 13.208082 17.787872 84.868980 0.971343 0.202871 0.123842 0.423799 0.889892
0 12.242105 18.669590 85.126793 -0.494175 0.807975 0.320884 0.414792 0.891857
0 12.753406 17.823017 88.831795 0.757202 -0.498599 0.421953 0.422630 0.932888
SHSW01043717201318BK.jpg
0 18.878313 9.440064 54.040344 0.879463 0.471387 0.065868 0.520114 0.556269
0 8.303183 21.952454 51.010208 0.286575 0.779255 -0.557347 0.393207 0.510706
0 15.308987 17.817894 59.421341 0.950943 0.307432 0.034533 0.430902 0.609918
SHSW01043717201318BK.jpg
0 15.308987 17.817894 59.421341 0.950943 0.307432 0.034533 0.430902 0.609918
0 8.303183 21.952454 51.010208 0.286575 0.779255 -0.557347 0.393207 0.510706
0 7.309411 26.270138 55.224365 -0.444281 0.560400 -0.698975 0.347030 0.555525
SHSW01043717201318BK.jpg
0 7.309411 26.270138 55.224365 -0.444281 0.560400 -0.698975 0.347030 0.555525
0 14.090536 22.586384 66.181671 0.949966 0.311891 0.017002 0.378615 0.682713
0 15.308987 17.817894 59.421341 0.950943 0.307432 0.034533 0.430902 0.609918
SHSW01043717201318BK.jpg
0 7.309411 26.270138 55.224365 -0.444281 0.560400 -0.698975 0.347030 0.555525
0 5.069992 32.425961 58.367744 -0.570795 0.761070 -0.308165 0.284815 0.590171
0 14.090536 22.586384 66.181671 0.949966 0.311891 0.017002 0.378615 0.682713
SHSW01043717201318BK.jpg
0 6.024166 30.960129 64.597404 -0.501568 0.757682 0.417548 0.294629 0.653413
0 8.381371 26.803051 72.134911 -0.475519 0.652296 0.590247 0.336289 0.739578
0 14.090536 22.586384 66.181671 0.949966 0.311891 0.017002 0.378615 0.682713
SHSW01043717201318BK.jpg
0 5.069992 32.425961 58.367744 -0.570795 0.761070 -0.308165 0.284815 0.590171
0 6.024166 30.960129 64.597404 -0.501568 0.757682 0.417548 0.294629 0.653413
0 14.090536 22.586384 66.181671 0.949966 0.311891 0.017002 0.378615 0.682713
SHSW01043717201318BK.jpg
0 15.308987 17.817894 59.421341 0.950943 0.307432 0.034533 0.430902 0.609918
0 11.931696 14.376046 67.183784 -0.058594 -0.702051 0.709712 0.464575 0.693051
0 12.808133 9.365781 66.022621 0.191090 0.370815 0.908835 0.518614 0.683264
SHSW01043717201318BK.jpg
0 12.808133 9.365781 66.022621 0.191090 0.370815 0.908835 0.518614 0.683264
0 18.878313 9.440064 54.040344 0.879463 0.471387 0.065868 0.520114 0.556269
0 15.308987 17.817894 59.421341 0.950943 0.307432 0.034533 0.430902 0.609918
SHSW01043717201318BK.jpg
0 18.878313 9.440064 54.040344 0.879463 0.471387 0.065868 0.520114 0.556269
0 17.783501 1.953134 65.230354 0.790596 0.552539 0.263929 0.596625 0.680571
0 22.781523 -0.081886 50.383003 0.998964 -0.007540 0.044874 0.622252 0.521671
SHSW01043717201318BK.jpg
0 12.808133 9.365781 66.022621 0.191090 0.370815 0.908835 0.518614 0.683264
0 13.814746 4.534544 70.769753 0.269560 0.873270 0.405878 0.567401 0.737457
0 17.783501 1.953134 65.230354 0.790596 0.552539 0.263929 0.596625 0.680571
SHSW01043717201318BK.jpg
0 13.814746 4.534544 70.769753 0.269560 0.873270 0.405878 0.567401 0.737457
0 14.440180 2.129351 75.502319 -0.704350 0.610594 0.362030 0.592189 0.791555
0 18.543726 -0.561681 73.487251 0.937537 -0.012933 0.347644 0.621259 0.773669
SHSW01043717201318BK.jpg
0 18.543726 -0.561681 73.487251 0.937537 -0.012933 0.347644 0.621259 0.773669
0 14.440180 2.129351 75.502319 -0.704350 0.610594 0.362030 0.592189 0.791555
0 14.848888 0.116472 79.578224 -0.393232 0.876633 0.277277 0.612007 0.837633
SHSW01043717201318BK.jpg
0 14.848888 0.116472 79.578224 -0.393232 0.876633 0.277277 0.612007 0.837633
0 16.304173 -0.675590 79.253395 0.966511 -0.011000 0.256390 0.621014 0.835669
0 18.543726 -0.561681 73.487251 0.937537 -0.012933 0.347644 0.621259 0.773669
SHSW01043717201318BK.jpg
0 14.848888 0.116472 79.578224 -0.393232 0.876633 0.277277 0.612007 0.837633
0 15.392998 -0.812253 85.786896 -0.936112 0.000074 0.351701 0.620735 0.906668
0 16.304173 -0.675590 79.253395 0.966511 -0.011000 0.256390 0.621014 0.835669
SHSW01043717201318BK.jpg
0 9.068153 18.545841 42.008217 -0.880558 -0.149394 0.449776 0.427686 0.410904
0 18.180401 8.830274 43.228355 0.851677 0.504836 -0.140666 0.529591 0.435306
0 16.406282 8.291829 34.510193 0.962955 0.262345 0.062393 0.537977 0.337337
SHSW01043717201318BK.jpg
0 16.406282 8.291829 34.510193 0.962955 0.262345 0.062393 0.537977 0.337337
0 19.213877 0.337389 32.008591 0.980542 -0.002710 -0.196290 0.623067 0.314673
0 16.606329 6.869667 30.012253 0.981705 -0.064583 0.179118 0.554170 0.288401
SHSW01043717201318BK.jpg
0 16.606329 6.869667 30.012253 0.981705 -0.064583 0.179118 0.554170 0.288401
0 19.213877 0.337389 32.008591 0.980542 -0.002710 -0.196290 0.623067 0.314673
0 16.906761 3.367362 26.231611 0.984715 -0.131326 0.114412 0.592331 0.247551
SHSW01043717201318BK.jpg
0 19.213877 0.337389 32.008591 0.980542 -0.002710 -0.196290 0.623067 0.314673
0 16.699141 0.565964 22.090094 0.986912 -0.009795 0.160959 0.623508 0.202674
0 16.906761 3.367362 26.231611 0.984715 -0.131326 0.114412 0.592331 0.247551
SHSW01043717201318BK.jpg
0 18.180401 8.830274 43.228355 0.851677 0.504836 -0.140666 0.529591 0.435306
0 21.514175 0.108696 41.947845 0.979331 -0.002536 -0.202249 0.622622 0.427672
0 16.406282 8.291829 34.510193 0.962955 0.262345 0.062393 0.537977 0.337337
SHSW01043717201318BK.jpg
0 11.235311 23.372452 23.157290 0.870262 0.471307 0.143225 0.761115 0.838431
0 16.518885 7.511732 10.008949 0.992846 0.085344 -0.083504 0.915712 0.713008
0 9.392221 18.807362 6.531786 0.820307 0.538901 -0.191528 0.815652 0.674434
SHSW01043717201318BK.jpg
0 9.392221 18.807362 6.531786 0.820307 0.538901 -0.191528 0.815652 0.674434
0 15.192759 4.612177 1.881693 0.985700 0.099759 -0.135811 0.951902 0.613501
0 8.725929 15.115739 -14.418142 0.877479 0.453955 -0.154776 0.857502 0.458597
SHSW01043717201318BK.jpg
0 14.047343 1.359595 -13.784906 0.988983 -0.003735 -0.147980 0.982680 0.478987
0 11.783172 1.607550 -24.642809 0.978801 -0.002546 -0.204800 0.983125 0.365989
0 7.461831 12.789432 -25.819481 0.877133 0.438547 -0.195741 0.882967 0.340696
SHSW01043717201318BK.jpg
0 7.461831 12.789432 -25.819481 0.877133 0.438547 -0.195741 0.882967 0.340696
0 8.725929 15.115739 -14.418142 0.877479 0.453955 -0.154776 0.857502 0.458597
0 14.047343 1.359595 -13.784906 0.988983 -0.003735 -0.147980 0.982680 0.478987
SHSW01043717201318BK.jpg
0 11.783172 1.607550 -24.642809 0.978801 -0.002546 -0.204800 0.983125 0.365989
0 9.629311 1.844363 -35.030945 0.966717 -0.001440 -0.255844 0.983554 0.256990
0 6.990138 8.501828 -35.836151 0.897692 0.369198 -0.240501 0.928368 0.238875
SHSW01043717201318BK.jpg
0 6.990138 8.501828 -35.836151 0.897692 0.369198 -0.240501 0.928368 0.238875
0 7.461831 12.789432 -25.819481 0.877133 0.438547 -0.195741 0.882967 0.340696
0 11.783172 1.607550 -24.642809 0.978801 -0.002546 -0.204800 0.983125 0.365989
SHSW01043717201318BK.jpg
0 6.480866 2.072502 -44.776070 0.949010 -0.000172 -0.315245 0.983964 0.152991
0 3.195494 2.289797 -53.989861 -0.354501 0.021471 -0.934809 0.984346 0.055991
0 3.278653 5.742590 -50.723244 -0.271320 0.708576 -0.651387 0.958982 0.082994
SHSW01043717201318BK.jpg
0 12.753406 17.823017 88.831795 0.757202 -0.498599 0.421953 0.422630 0.932888
0 12.626284 17.230347 84.808426 -0.298329 -0.951197 0.078892 0.429804 0.888916
0 13.208082 17.787872 84.868980 0.971343 0.202871 0.123842 0.423799 0.889892
SHSW01043717201318BK.jpg
0 12.626284 17.230347 84.808426 -0.298329 -0.951197 0.078892 0.429804 0.888916
0 12.276094 17.328892 80.585258 -0.048116 -0.994794 -0.089833 0.429988 0.841917
0 13.662506 18.155491 80.701874 0.993337 -0.067605 0.093339 0.420981 0.843881
SHSW01043717201318BK.jpg
0 13.662506 18.155491 80.701874 0.993337 -0.067605 0.093339 0.420981 0.843881
0 13.208082 17.787872 84.868980 0.971343 0.202871 0.123842 0.423799 0.889892
0 12.626284 17.230347 84.808426 -0.298329 -0.951197 0.078892 0.429804 0.888916
SHSW01043717201318BK.jpg
0 12.276094 17.328892 80.585258 -0.048116 -0.994794 -0.089833 0.429988 0.841917
0 11.545922 17.609222 73.327782 -0.602460 -0.792595 0.093996 0.429308 0.760913
0 14.089989 20.208046 75.007957 0.996546 -0.000534 0.083045 0.401229 0.780802
SHSW01043717201318BK.jpg
0 14.089989 20.208046 75.007957 0.996546 -0.000534 0.083045 0.401229 0.780802
0 13.662506 18.155491 80.701874 0.993337 -0.067605 0.093339 0.420981 0.843881
0 12.276094 17.328892 80.585258 -0.048116 -0.994794 -0.089833 0.429988 0.841917
SHSW01043717201318BK.jpg
0 14.089989 20.208046 75.007957 0.996546 -0.000534 0.083045 0.401229 0.780802
0 11.545922 17.609222 73.327782 -0.602460 -0.792595 0.093996 0.429308 0.760913
0 14.090536 22.586384 66.181671 0.949966 0.311891 0.017002 0.378615 0.682713
SHSW01043717201318BK.jpg
0 13.814746 4.534544 70.769753 0.269560 0.873270 0.405878 0.567401 0.737457
0 19.954391 -0.428058 66.990311 0.981692 -0.009990 0.190214 0.621539 0.702669
0 17.783501 1.953134 65.230354 0.790596 0.552539 0.263929 0.596625 0.680571
SHSW01043717201318BK.jpg
0 17.783501 1.953134 65.230354 0.790596 0.552539 0.263929 0.596625 0.680571
0 19.954391 -0.428058 66.990311 0.981692 -0.009990 0.190214 0.621539 0.702669
0 22.781523 -0.081886 50.383003 0.998964 -0.007540 0.044874 0.622252 0.521671
SHSW01043717201318BK.jpg
0 14.052424 0.935194 5.765074 0.994599 -0.004628 -0.103688 0.981884 0.677080
0 16.518885 7.511732 10.008949 0.992846 0.085344 -0.083504 0.915712 0.713008
0 15.697090 3.869799 15.077944 0.920462 0.355752 -0.161836 0.960272 0.767098
SHSW01043717201318BK.jpg
0 15.192759 4.612177 1.881693 0.985700 0.099759 -0.135811 0.951902 0.613501
0 14.052424 0.935194 5.765074 0.994599 -0.004628 -0.103688 0.981884 0.677080
0 14.488708 1.142077 -3.894697 0.996332 -0.005145 -0.085421 0.988134 0.572222
SHSW01043717201318BK.jpg
0 15.192759 4.612177 1.881693 0.985700 0.099759 -0.135811 0.951902 0.613501
0 14.488708 1.142077 -3.894697 0.996332 -0.005145 -0.085421 0.988134 0.572222
0 8.725929 15.115739 -14.418142 0.877479 0.453955 -0.154776 0.857502 0.458597
SHSW01043717201318BK.jpg
0 16.518885 7.511732 10.008949 0.992846 0.085344 -0.083504 0.915712 0.713008
0 15.192759 4.612177 1.881693 0.985700 0.099759 -0.135811 0.951902 0.613501
0 9.392221 18.807362 6.531786 0.820307 0.538901 -0.191528 0.815652 0.674434
SHSW01043717201318BK.jpg
0 11.235311 23.372452 23.157290 0.870262 0.471307 0.143225 0.761115 0.838431
0 15.170095 8.240132 23.843302 0.805011 0.554534 -0.210830 0.914922 0.855920
0 15.697090 3.869799 15.077944 0.920462 0.355752 -0.161836 0.960272 0.767098
SHSW01043717201318BK.jpg
0 15.697090 3.869799 15.077944 0.920462 0.355752 -0.161836 0.960272 0.767098
0 16.518885 7.511732 10.008949 0.992846 0.085344 -0.083504 0.915712 0.713008
0 11.235311 23.372452 23.157290 0.870262 0.471307 0.143225 0.761115 0.838431
SHSW01043717201318BK.jpg
0 14.488708 1.142077 -3.894697 0.996332 -0.005145 -0.085421 0.988134 0.572222
0 14.047343 1.359595 -13.784906 0.988983 -0.003735 -0.147980 0.982680 0.478987
0 8.725929 15.115739 -14.418142 0.877479 0.453955 -0.154776 0.857502 0.458597
SHSW01043717201318BK.jpg
0 6.480866 2.072502 -44.776070 0.949010 -0.000172 -0.315245 0.983964 0.152991
0 6.990138 8.501828 -35.836151 0.897692 0.369198 -0.240501 0.928368 0.238875
0 9.629311 1.844363 -35.030945 0.966717 -0.001440 -0.255844 0.983554 0.256990
SHSW01043717201318BK.jpg
0 11.235311 23.372452 23.157290 0.870262 0.471307 0.143225 0.761115 0.838431
0 2.889288 31.189926 23.666679 0.037799 0.892235 -0.449987 0.689990 0.841941
0 8.874727 26.627480 25.511560 0.838733 0.190976 0.509955 0.728033 0.863208
SHSW01043717201318BK.jpg
0 8.874727 26.627480 25.511560 0.838733 0.190976 0.509955 0.728033 0.863208
0 2.889288 31.189926 23.666679 0.037799 0.892235 -0.449987 0.689990 0.841941
0 0.679372 38.043949 35.840683 -0.136645 -0.350481 0.926548 0.621468 0.956804
SHSW01043717201318BK.jpg
0 12.414587 14.601876 30.639786 0.744492 0.655455 -0.126926 0.850663 0.921668
0 15.170095 8.240132 23.843302 0.805011 0.554534 -0.210830 0.914922 0.855920
0 11.235311 23.372452 23.157290 0.870262 0.471307 0.143225 0.761115 0.838431
SHSW01043717201318BK.jpg
0 18.543726 -0.561681 73.487251 0.937537 -0.012933 0.347644 0.621259 0.773669
0 19.954391 -0.428058 66.990311 0.981692 -0.009990 0.190214 0.621539 0.702669
0 13.814746 4.534544 70.769753 0.269560 0.873270 0.405878 0.567401 0.737457
SHSW01043717201318BK.jpg
0 18.878313 9.440064 54.040344 0.879463 0.471387 0.065868 0.520114 0.556269
0 12.808133 9.365781 66.022621 0.191090 0.370815 0.908835 0.518614 0.683264
0 17.783501 1.953134 65.230354 0.790596 0.552539 0.263929 0.596625 0.680571
SHSW01043717201318BK.jpg
0 16.406282 8.291829 34.510193 0.962955 0.262345 0.062393 0.537977 0.337337
0 21.514175 0.108696 41.947845 0.979331 -0.002536 -0.202249 0.622622 0.427672
0 19.213877 0.337389 32.008591 0.980542 -0.002710 -0.196290 0.623067 0.314673
SHSW01043717201318BK.jpg
0 18.180401 8.830274 43.228355 0.851677 0.504836 -0.140666 0.529591 0.435306
0 18.878313 9.440064 54.040344 0.879463 0.471387 0.065868 0.520114 0.556269
0 22.781523 -0.081886 50.383003 0.998964 -0.007540 0.044874 0.622252 0.521671
SHSW01043717201318BK.jpg
0 16.406282 8.291829 34.510193 0.962955 0.262345 0.062393 0.537977 0.337337
0 14.871306 16.557472 35.995735 0.840789 0.525738 -0.129125 0.449923 0.350991
0 9.068153 18.545841 42.008217 -0.880558 -0.149394 0.449776 0.427686 0.410904
SHSW01043717201318BK.jpg
0 16.406282 8.291829 34.510193 0.962955 0.262345 0.062393 0.537977 0.337337
0 16.606329 6.869667 30.012253 0.981705 -0.064583 0.179118 0.554170 0.288401
0 17.320940 9.747571 30.187019 0.937186 0.338920 -0.082557 0.523162 0.290279
SHSW01043717201318BK.jpg
0 16.606329 6.869667 30.012253 0.981705 -0.064583 0.179118 0.554170 0.288401
0 16.906761 3.367362 26.231611 0.984715 -0.131326 0.114412 0.592331 0.247551
0 19.050016 5.456975 24.960646 0.993815 0.035329 0.105279 0.570379 0.235465
SHSW01043717201318BK.jpg
0 19.050016 5.456975 24.960646 0.993815 0.035329 0.105279 0.570379 0.235465
0 17.320940 9.747571 30.187019 0.937186 0.338920 -0.082557 0.523162 0.290279
0 16.606329 6.869667 30.012253 0.981705 -0.064583 0.179118 0.554170 0.288401
SHSW01043717201318BK.jpg
0 19.050016 5.456975 24.960646 0.993815 0.035329 0.105279 0.570379 0.235465
0 16.906761 3.367362 26.231611 0.984715 -0.131326 0.114412 0.592331 0.247551
0 16.699141 0.565964 22.090094 0.986912 -0.009795 0.160959 0.623508 0.202674
SHSW01043717201318BK.jpg
0 16.699141 0.565964 22.090094 0.986912 -0.009795 0.160959 0.623508 0.202674
0 18.736307 0.678119 16.428385 0.985193 -0.002862 -0.171427 0.623749 0.141674
0 19.050016 5.456975 24.960646 0.993815 0.035329 0.105279 0.570379 0.235465
SHSW01043717201318BK.jpg
0 9.068153 18.545841 42.008217 -0.880558 -0.149394 0.449776 0.427686 0.410904
0 14.871306 16.557472 35.995735 0.840789 0.525738 -0.129125 0.449923 0.350991
0 11.811874 23.824837 41.128342 0.986860 0.160916 0.014592 0.371719 0.402683
SHSW01043717201318BK.jpg
0 11.811874 23.824837 41.128342 0.986860 0.160916 0.014592 0.371719 0.402683
0 10.139717 28.180828 45.681381 0.902873 0.427534 -0.045103 0.324530 0.450498
0 7.233536 25.346210 47.267822 0.047078 -0.716601 0.695893 0.354470 0.465616
SHSW01043717201318BK.jpg
0 7.233536 25.346210 47.267822 0.047078 -0.716601 0.695893 0.354470 0.465616
0 10.139717 28.180828 45.681381 0.902873 0.427534 -0.045103 0.324530 0.450498
0 7.122520 34.894802 55.476967 0.963884 0.218847 0.151769 0.251120 0.554210
SHSW01043717201318BK.jpg
0 7.122520 34.894802 55.476967 0.963884 0.218847 0.151769 0.251120 0.554210
0 5.330475 32.970524 57.002884 -0.105095 -0.829388 0.548699 0.271061 0.569288
0 7.233536 25.346210 47.267822 0.047078 -0.716601 0.695893 0.354470 0.465616
SHSW01043717201318BK.jpg
0 5.330475 32.970524 57.002884 -0.105095 -0.829388 0.548699 0.271061 0.569288
0 7.122520 34.894802 55.476967 0.963884 0.218847 0.151769 0.251120 0.554210
0 4.832975 39.927563 64.151329 0.964251 0.246093 0.098274 0.195759 0.645992
SHSW01043717201318BK.jpg
0 4.832975 39.927563 64.151329 0.964251 0.246093 0.098274 0.195759 0.645992
0 3.355148 38.665058 65.728050 -0.081610 -0.812847 0.576732 0.208691 0.663043
0 5.330475 32.970524 57.002884 -0.105095 -0.829388 0.548699 0.271061 0.569288
SHSW01043717201318BK.jpg
0 3.355148 38.665058 65.728050 -0.081610 -0.812847 0.576732 0.208691 0.663043
0 4.832975 39.927563 64.151329 0.964251 0.246093 0.098274 0.195759 0.645992
0 2.413960 45.345554 71.655678 0.947093 0.301795 0.109244 0.136444 0.725759
SHSW01043717201318BK.jpg
0 2.413960 45.345554 71.655678 0.947093 0.301795 0.109244 0.136444 0.725759
0 1.397524 44.111774 72.937843 -0.053456 -0.692437 0.719495 0.149393 0.738810
0 3.355148 38.665058 65.728050 -0.081610 -0.812847 0.576732 0.208691 0.663043
SHSW01043717201318BK.jpg
0 1.397524 44.111774 72.937843 -0.053456 -0.692437 0.719495 0.149393 0.738810
0 2.413960 45.345554 71.655678 0.947093 0.301795 0.109244 0.136444 0.725759
0 -1.429229 52.166439 77.982574 0.918514 0.342613 0.197356 0.063188 0.790471
SHSW01043717201318BK.jpg
0 -1.429229 52.166439 77.982574 0.918514 0.342613 0.197356 0.063188 0.790471
0 -1.800848 51.633472 78.808464 -0.026647 -0.535500 0.844115 0.068153 0.799491
0 1.397524 44.111774 72.937843 -0.053456 -0.692437 0.719495 0.149393 0.738810
SHSW01043717201318BK.jpg
0 -1.800848 51.633472 78.808464 -0.026647 -0.535500 0.844115 0.068153 0.799491
0 -1.429229 52.166439 77.982574 0.918514 0.342613 0.197356 0.063188 0.790471
0 -3.916808 56.265522 81.005058 0.825058 0.487526 0.285651 0.019070 0.820298
SHSW01043717201318BK.jpg
0 15.697090 3.869799 15.077944 0.920462 0.355752 -0.161836 0.593726 0.127447
0 15.170095 8.240132 23.843302 0.805011 0.554534 -0.210830 0.545351 0.222257
0 19.050016 5.456975 24.960646 0.993815 0.035329 0.105279 0.570379 0.235465
SHSW01043717201318BK.jpg
0 19.050016 5.456975 24.960646 0.993815 0.035329 0.105279 0.570379 0.235465
0 18.736307 0.678119 16.428385 0.985193 -0.002862 -0.171427 0.623749 0.141674
0 15.697090 3.869799 15.077944 0.920462 0.355752 -0.161836 0.593726 0.127447
SHSW01043717201318BK.jpg
0 15.170095 8.240132 23.843302 0.805011 0.554534 -0.210830 0.545351 0.222257
0 12.414587 14.601876 30.639786 0.744492 0.655455 -0.126926 0.476073 0.292985
0 17.320940 9.747571 30.187019 0.937186 0.338920 -0.082557 0.523162 0.290279
SHSW01043717201318BK.jpg
0 17.320940 9.747571 30.187019 0.937186 0.338920 -0.082557 0.523162 0.290279
0 19.050016 5.456975 24.960646 0.993815 0.035329 0.105279 0.570379 0.235465
0 15.170095 8.240132 23.843302 0.805011 0.554534 -0.210830 0.545351 0.222257
SHSW01043717201318BK.jpg
0 12.414587 14.601876 30.639786 0.744492 0.655455 -0.126926 0.476073 0.292985
0 7.916062 19.658653 34.725555 -0.668476 0.655924 -0.350576 0.421916 0.332771
0 14.871306 16.557472 35.995735 0.840789 0.525738 -0.129125 0.449923 0.350991
SHSW01043717201318BK.jpg
0 14.871306 16.557472 35.995735 0.840789 0.525738 -0.129125 0.449923 0.350991
0 7.916062 19.658653 34.725555 -0.668476 0.655924 -0.350576 0.421916 0.332771
0 7.439495 23.688950 38.399574 -0.801430 0.099609 -0.589735 0.374856 0.367696
SHSW01043717201318BK.jpg
0 7.439495 23.688950 38.399574 -0.801430 0.099609 -0.589735 0.374856 0.367696
0 11.811874 23.824837 41.128342 0.986860 0.160916 0.014592 0.371719 0.402683
0 14.871306 16.557472 35.995735 0.840789 0.525738 -0.129125 0.449923 0.350991
SHSW01043717201318BK.jpg
0 11.811874 23.824837 41.128342 0.986860 0.160916 0.014592 0.371719 0.402683
0 5.821496 28.096027 38.360710 -0.043211 0.449378 -0.892296 0.327868 0.364510
0 10.139717 28.180828 45.681381 0.902873 0.427534 -0.045103 0.324530 0.450498
SHSW01043717201318BK.jpg
0 10.139717 28.180828 45.681381 0.902873 0.427534 -0.045103 0.324530 0.450498
0 5.821496 28.096027 38.360710 -0.043211 0.449378 -0.892296 0.327868 0.364510
0 4.213153 33.096569 44.322617 -0.921239 0.221855 -0.319529 0.273617 0.428298
SHSW01043717201318BK.jpg
0 10.139717 28.180828 45.681381 0.902873 0.427534 -0.045103 0.324530 0.450498
0 4.213153 33.096569 44.322617 -0.921239 0.221855 -0.319529 0.273617 0.428298
0 2.585705 38.380749 53.412392 -0.577393 0.709494 -0.404024 0.215231 0.526068
SHSW01043717201318BK.jpg
0 2.585705 38.380749 53.412392 -0.577393 0.709494 -0.404024 0.215231 0.526068
0 7.122520 34.894802 55.476967 0.963884 0.218847 0.151769 0.251120 0.554210
0 10.139717 28.180828 45.681381 0.902873 0.427534 -0.045103 0.324530 0.450498
SHSW01043717201318BK.jpg
0 7.122520 34.894802 55.476967 0.963884 0.218847 0.151769 0.251120 0.554210
0 2.585705 38.380749 53.412392 -0.577393 0.709494 -0.404024 0.215231 0.526068
0 1.559573 41.771107 62.347816 -0.614278 0.658807 -0.434322 0.176849 0.622917
SHSW01043717201318BK.jpg
0 1.559573 41.771107 62.347816 -0.614278 0.658807 -0.434322 0.176849 0.622917
0 4.832975 39.927563 64.151329 0.964251 0.246093 0.098274 0.195759 0.645992
0 7.122520 34.894802 55.476967 0.963884 0.218847 0.151769 0.251120 0.554210
SHSW01043717201318BK.jpg
0 4.832975 39.927563 64.151329 0.964251 0.246093 0.098274 0.195759 0.645992
0 1.559573 41.771107 62.347816 -0.614278 0.658807 -0.434322 0.176849 0.622917
0 -0.086566 46.785549 69.950150 -0.587897 0.584383 -0.559352 0.122531 0.703704
SHSW01043717201318BK.jpg
0 -0.086566 46.785549 69.950150 -0.587897 0.584383 -0.559352 0.122531 0.703704
0 2.413960 45.345554 71.655678 0.947093 0.301795 0.109244 0.136444 0.725759
0 4.832975 39.927563 64.151329 0.964251 0.246093 0.098274 0.195759 0.645992
SHSW01043717201318BK.jpg
0 2.413960 45.345554 71.655678 0.947093 0.301795 0.109244 0.136444 0.725759
0 -0.086566 46.785549 69.950150 -0.587897 0.584383 -0.559352 0.122531 0.703704
0 -2.523838 52.832882 77.095436 -0.552022 0.543045 -0.632751 0.056232 0.779444
SHSW01043717201318BK.jpg
0 -2.523838 52.832882 77.095436 -0.552022 0.543045 -0.632751 0.056232 0.779444
0 -1.429229 52.166439 77.982574 0.918514 0.342613 0.197356 0.063188 0.790471
0 2.413960 45.345554 71.655678 0.947093 0.301795 0.109244 0.136444 0.725759
SHSW01043717201318BK.jpg
0 -1.429229 52.166439 77.982574 0.918514 0.342613 0.197356 0.063188 0.790471
0 -2.523838 52.832882 77.095436 -0.552022 0.543045 -0.632751 0.056232 0.779444
0 -3.916808 56.265522 81.005058 0.825058 0.487526 0.285651 0.019070 0.820298
SHSW01043717201318BK.jpg
0 14.871306 16.557472 35.995735 0.840789 0.525738 -0.129125 0.449923 0.350991
0 17.320940 9.747571 30.187019 0.937186 0.338920 -0.082557 0.523162 0.290279
0 12.414587 14.601876 30.639786 0.744492 0.655455 -0.126926 0.476073 0.292985
SHSW01043717201318BK.jpg
0 18.736307 0.678119 16.428385 0.985193 -0.002862 -0.171427 0.623749 0.141674
0 14.052424 0.935194 5.765074 0.994599 -0.004628 -0.103688 0.616420 0.042112
0 15.697090 3.869799 15.077944 0.920462 0.355752 -0.161836 0.593726 0.127447
SHSW01043717201318BK.jpg
0 17.320940 9.747571 30.187019 0.937186 0.338920 -0.082557 0.523162 0.290279
0 14.871306 16.557472 35.995735 0.840789 0.525738 -0.129125 0.449923 0.350991
0 16.406282 8.291829 34.510193 0.962955 0.262345 0.062393 0.537977 0.337337
SHSW01043717201318BK.jpg
0 11.811874 23.824837 41.128342 0.986860 0.160916 0.014592 0.371719 0.402683
0 7.439495 23.688950 38.399574 -0.801430 0.099609 -0.589735 0.374856 0.367696
0 5.821496 28.096027 38.360710 -0.043211 0.449378 -0.892296 0.327868 0.364510
SHSW01043717201318BK.jpg
0 11.811874 23.824837 41.128342 0.986860 0.160916 0.014592 0.371719 0.402683
0 7.233536 25.346210 47.267822 0.047078 -0.716601 0.695893 0.354470 0.465616
0 9.068153 18.545841 42.008217 -0.880558 -0.149394 0.449776 0.427686 0.410904
SHSW01043717201318BK.jpg
0 14.052424 0.935194 5.765074 0.994599 -0.004628 -0.103688 0.981884 0.677080
0 15.192759 4.612177 1.881693 0.985700 0.099759 -0.135811 0.951902 0.613501
0 16.518885 7.511732 10.008949 0.992846 0.085344 -0.083504 0.915712 0.713008
SHSW01043717201318BK.jpg
0 13.814746 4.534544 70.769753 0.269560 0.873270 0.405878 0.027656 0.457258
0 12.808133 9.365781 66.022621 0.191090 0.370815 0.908835 0.043723 0.440321
0 13.751611 -0.421117 68.208466 -0.993133 0.004616 0.116897 0.011688 0.449195
SHSW01043717201318BK.jpg
0 14.440180 2.129351 75.502319 -0.704350 0.610594 0.362030 0.020590 0.474230
0 13.814746 4.534544 70.769753 0.269560 0.873270 0.405878 0.027656 0.457258
0 13.751611 -0.421117 68.208466 -0.993133 0.004616 0.116897 0.011688 0.449195
SHSW01043717201318BK.jpg
0 13.751611 -0.421117 68.208466 -0.993133 0.004616 0.116897 0.011688 0.449195
0 14.304772 -0.581927 75.459747 -0.995435 0.004977 0.095308 0.011590 0.474195
0 14.440180 2.129351 75.502319 -0.704350 0.610594 0.362030 0.020590 0.474230
SHSW01043717201318BK.jpg
0 14.848888 0.116472 79.578224 -0.393232 0.876633 0.277277 0.013531 0.489203
0 14.440180 2.129351 75.502319 -0.704350 0.610594 0.362030 0.020590 0.474230
0 14.304772 -0.581927 75.459747 -0.995435 0.004977 0.095308 0.011590 0.474195
SHSW01043717201318BK.jpg
0 14.304772 -0.581927 75.459747 -0.995435 0.004977 0.095308 0.011590 0.474195
0 14.665673 -0.673528 79.579628 -0.994780 0.004656 0.101934 0.011531 0.489195
0 14.848888 0.116472 79.578224 -0.393232 0.876633 0.277277 0.013531 0.489203
SHSW01043717201318BK.jpg
0 14.848888 0.116472 79.578224 -0.393232 0.876633 0.277277 0.013531 0.489203
0 14.665673 -0.673528 79.579628 -0.994780 0.004656 0.101934 0.011531 0.489195
0 15.392998 -0.812253 85.786896 -0.936112 0.000074 0.351701 0.011444 0.511194
SHSW01043717201318BK.jpg
0 7.309411 26.270138 55.224365 -0.444281 0.560400 -0.698975 0.099884 0.399542
0 8.303183 21.952454 51.010208 0.286575 0.779255 -0.557347 0.084940 0.385483
0 10.656303 15.868018 55.849403 -0.972007 -0.218408 0.086604 0.064869 0.403404
SHSW01043717201318BK.jpg
0 10.656303 15.868018 55.849403 -0.972007 -0.218408 0.086604 0.064869 0.403404
0 9.231541 22.697105 65.254845 -0.942909 -0.324954 0.072994 0.088743 0.435498
0 7.309411 26.270138 55.224365 -0.444281 0.560400 -0.698975 0.099884 0.399542
SHSW01043717201318BK.jpg
0 5.069992 32.425961 58.367744 -0.570795 0.761070 -0.308165 0.120845 0.409625
0 7.309411 26.270138 55.224365 -0.444281 0.560400 -0.698975 0.099884 0.399542
0 9.231541 22.697105 65.254845 -0.942909 -0.324954 0.072994 0.088743 0.435498
SHSW01043717201318BK.jpg
0 6.024166 30.960129 64.597404 -0.501568 0.757682 0.417548 0.115758 0.431605
0 5.069992 32.425961 58.367744 -0.570795 0.761070 -0.308165 0.120845 0.409625
0 9.231541 22.697105 65.254845 -0.942909 -0.324954 0.072994 0.088743 0.435498
SHSW01043717201318BK.jpg
0 12.626284 17.230347 84.808426 -0.298329 -0.951197 0.078892 0.071467 0.505431
0 12.753406 17.823017 88.831795 0.757202 -0.498599 0.421953 0.073412 0.519439
0 12.242105 18.669590 85.126793 -0.494175 0.807975 0.320884 0.076463 0.506451
SHSW01043717201318BK.jpg
0 8.381371 26.803051 72.134911 -0.475519 0.652296 0.590247 0.102648 0.459553
0 6.024166 30.960129 64.597404 -0.501568 0.757682 0.417548 0.115758 0.431605
0 9.231541 22.697105 65.254845 -0.942909 -0.324954 0.072994 0.088743 0.435498
SHSW01043717201318BK.jpg
0 9.231541 22.697105 65.254845 -0.942909 -0.324954 0.072994 0.088743 0.435498
0 11.931696 14.376046 67.183784 -0.058594 -0.702051 0.709712 0.060707 0.444388
0 11.545922 17.609222 73.327782 -0.602460 -0.792595 0.093996 0.072625 0.465435
SHSW01043717201318BK.jpg
0 9.231541 22.697105 65.254845 -0.942909 -0.324954 0.072994 0.088743 0.435498
0 10.656303 15.868018 55.849403 -0.972007 -0.218408 0.086604 0.064869 0.403404
0 11.931696 14.376046 67.183784 -0.058594 -0.702051 0.709712 0.060707 0.444388
SHSW01043717201318BK.jpg
0 10.656303 15.868018 55.849403 -0.972007 -0.218408 0.086604 0.064869 0.403404
0 8.303183 21.952454 51.010208 0.286575 0.779255 -0.557347 0.084940 0.385483
0 9.068153 18.545841 42.008217 -0.880558 -0.149394 0.449776 0.073062 0.354436
SHSW01043717201318BK.jpg
0 11.931696 14.376046 67.183784 -0.058594 -0.702051 0.709712 0.060707 0.444388
0 10.656303 15.868018 55.849403 -0.972007 -0.218408 0.086604 0.064869 0.403404
0 12.808133 9.365781 66.022621 0.191090 0.370815 0.908835 0.043723 0.440321
SHSW01043717201318BK.jpg
0 13.751611 -0.421117 68.208466 -0.993133 0.004616 0.116897 0.011688 0.449195
0 12.808133 9.365781 66.022621 0.191090 0.370815 0.908835 0.043723 0.440321
0 10.656303 15.868018 55.849403 -0.972007 -0.218408 0.086604 0.064869 0.403404
SHSW01043717201318BK.jpg
0 10.656303 15.868018 55.849403 -0.972007 -0.218408 0.086604 0.064869 0.403404
0 12.734860 -0.127295 54.934135 -0.996793 0.005335 0.079843 0.011874 0.402196
0 13.751611 -0.421117 68.208466 -0.993133 0.004616 0.116897 0.011688 0.449195
SHSW01043717201318BK.jpg
0 12.734860 -0.127295 54.934135 -0.996793 0.005335 0.079843 0.011874 0.402196
0 10.656303 15.868018 55.849403 -0.972007 -0.218408 0.086604 0.064869 0.403404
0 9.068153 18.545841 42.008217 -0.880558 -0.149394 0.449776 0.073062 0.354436
SHSW01043717201318BK.jpg
0 9.068153 18.545841 42.008217 -0.880558 -0.149394 0.449776 0.073062 0.354436
0 11.636243 0.211597 39.617813 -0.999343 0.006233 0.035702 0.012086 0.348196
0 12.734860 -0.127295 54.934135 -0.996793 0.005335 0.079843 0.011874 0.402196
SHSW01043717201318BK.jpg
0 -1.800848 51.633472 78.808464 -0.026647 -0.535500 0.844115 0.186577 0.477883
0 -3.916808 56.265522 81.005058 0.825058 0.487526 0.285651 0.201549 0.484943
0 -2.523838 52.832882 77.095436 -0.552022 0.543045 -0.632751 0.189600 0.471896
SHSW01043717201318BK.jpg
0 4.213153 33.096569 44.322617 -0.921239 0.221855 -0.319529 0.122038 0.360629
0 5.821496 28.096027 38.360710 -0.043211 0.449378 -0.892296 0.105117 0.340562
0 9.068153 18.545841 42.008217 -0.880558 -0.149394 0.449776 0.073062 0.354436
SHSW01043717201318BK.jpg
0 9.068153 18.545841 42.008217 -0.880558 -0.149394 0.449776 0.073062 0.354436
0 7.233536 25.346210 47.267822 0.047078 -0.716601 0.695893 0.095995 0.371526
0 4.213153 33.096569 44.322617 -0.921239 0.221855 -0.319529 0.122038 0.360629
SHSW01043717201318BK.jpg
0 2.585705 38.380749 53.412392 -0.577393 0.709494 -0.404024 0.139916 0.391699
0 4.213153 33.096569 44.322617 -0.921239 0.221855 -0.319529 0.122038 0.360629
0 7.233536 25.346210 47.267822 0.047078 -0.716601 0.695893 0.095995 0.371526
SHSW01043717201318BK.jpg
0 7.233536 25.346210 47.267822 0.047078 -0.716601 0.695893 0.095995 0.371526
0 5.330475 32.970524 57.002884 -0.105095 -0.829388 0.548699 0.122865 0.404633
0 2.585705 38.380749 53.412392 -0.577393 0.709494 -0.404024 0.139916 0.391699
SHSW01043717201318BK.jpg
0 1.559573 41.771107 62.347816 -0.614278 0.658807 -0.434322 0.151798 0.421746
0 2.585705 38.380749 53.412392 -0.577393 0.709494 -0.404024 0.139916 0.391699
0 5.330475 32.970524 57.002884 -0.105095 -0.829388 0.548699 0.122865 0.404633
SHSW01043717201318BK.jpg
0 5.330475 32.970524 57.002884 -0.105095 -0.829388 0.548699 0.122865 0.404633
0 3.355148 38.665058 65.728050 -0.081610 -0.812847 0.576732 0.141746 0.434707
0 1.559573 41.771107 62.347816 -0.614278 0.658807 -0.434322 0.151798 0.421746
SHSW01043717201318BK.jpg
0 -0.086566 46.785549 69.950150 -0.587897 0.584383 -0.559352 0.169695 0.447817
0 1.559573 41.771107 62.347816 -0.614278 0.658807 -0.434322 0.151798 0.421746
0 3.355148 38.665058 65.728050 -0.081610 -0.812847 0.576732 0.141746 0.434707
SHSW01043717201318BK.jpg
0 3.355148 38.665058 65.728050 -0.081610 -0.812847 0.576732 0.141746 0.434707
0 1.397524 44.111774 72.937843 -0.053456 -0.692437 0.719495 0.160652 0.458781
0 -0.086566 46.785549 69.950150 -0.587897 0.584383 -0.559352 0.169695 0.447817
SHSW01043717201318BK.jpg
0 -2.523838 52.832882 77.095436 -0.552022 0.543045 -0.632751 0.189600 0.471896
0 -0.086566 46.785549 69.950150 -0.587897 0.584383 -0.559352 0.169695 0.447817
0 1.397524 44.111774 72.937843 -0.053456 -0.692437 0.719495 0.160652 0.458781
SHSW01043717201318BK.jpg
0 1.397524 44.111774 72.937843 -0.053456 -0.692437 0.719495 0.160652 0.458781
0 -1.800848 51.633472 78.808464 -0.026647 -0.535500 0.844115 0.186577 0.477883
0 -2.523838 52.832882 77.095436 -0.552022 0.543045 -0.632751 0.189600 0.471896
SHSW01043717201318BK.jpg
0 6.605595 21.125816 31.367115 -0.484046 0.539166 0.689202 0.081212 0.316468
0 4.914689 26.126789 26.244631 -0.700160 -0.408567 0.585533 0.097287 0.297531
0 7.740200 16.247005 21.297974 -0.973754 -0.217108 0.068322 0.064350 0.281401
SHSW01043717201318BK.jpg
0 7.740200 16.247005 21.297974 -0.973754 -0.217108 0.068322 0.064350 0.281401
0 8.389125 14.148309 27.343302 -0.966821 -0.230731 0.109633 0.058263 0.303377
0 6.605595 21.125816 31.367115 -0.484046 0.539166 0.689202 0.081212 0.316468
SHSW01043717201318BK.jpg
0 7.916062 19.658653 34.725555 -0.668476 0.655924 -0.350576 0.077165 0.328452
0 6.605595 21.125816 31.367115 -0.484046 0.539166 0.689202 0.081212 0.316468
0 8.389125 14.148309 27.343302 -0.966821 -0.230731 0.109633 0.058263 0.303377
SHSW01043717201318BK.jpg
0 8.389125 14.148309 27.343302 -0.966821 -0.230731 0.109633 0.058263 0.303377
0 9.805973 12.777089 35.566696 -0.970742 -0.192481 0.143568 0.054149 0.332361
0 7.916062 19.658653 34.725555 -0.668476 0.655924 -0.350576 0.077165 0.328452
SHSW01043717201318BK.jpg
0 5.821496 28.096027 38.360710 -0.043211 0.449378 -0.892296 0.105117 0.340562
0 7.439495 23.688950 38.399574 -0.801430 0.099609 -0.589735 0.090113 0.341502
0 9.068153 18.545841 42.008217 -0.880558 -0.149394 0.449776 0.073062 0.354436
SHSW01043717201318BK.jpg
0 7.439495 23.688950 38.399574 -0.801430 0.099609 -0.589735 0.090113 0.341502
0 7.916062 19.658653 34.725555 -0.668476 0.655924 -0.350576 0.077165 0.328452
0 9.805973 12.777089 35.566696 -0.970742 -0.192481 0.143568 0.054149 0.332361
SHSW01043717201318BK.jpg
0 9.805973 12.777089 35.566696 -0.970742 -0.192481 0.143568 0.054149 0.332361
0 9.757618 16.220150 39.033539 -0.977775 -0.201668 0.057319 0.065101 0.344405
0 7.439495 23.688950 38.399574 -0.801430 0.099609 -0.589735 0.090113 0.341502
SHSW01043717201318BK.jpg
0 2.889288 31.189926 23.666679 0.037799 0.892235 -0.449987 0.120185 0.283692
0 4.914689 26.126789 26.244631 -0.700160 -0.408567 0.585533 0.097287 0.297531
0 0.679372 38.043949 35.840683 -0.136645 -0.350481 0.926548 0.138160 0.329692
SHSW01043717201318BK.jpg
0 4.914689 26.126789 26.244631 -0.700160 -0.408567 0.585533 0.097287 0.297531
0 2.889288 31.189926 23.666679 0.037799 0.892235 -0.449987 0.120185 0.283692
0 3.696351 25.754856 7.169825 -0.956172 0.285747 -0.063909 0.095550 0.230523
SHSW01043717201318BK.jpg
0 3.696351 25.754856 7.169825 -0.956172 0.285747 -0.063909 0.095550 0.230523
0 7.740200 16.247005 21.297974 -0.973754 -0.217108 0.068322 0.064350 0.281401
0 4.914689 26.126789 26.244631 -0.700160 -0.408567 0.585533 0.097287 0.297531
SHSW01043717201318BK.jpg
0 3.212866 14.830184 -37.788918 0.358263 0.829357 -0.428736 0.056169 0.073367
0 3.339584 9.403222 -46.214714 0.507841 0.680828 -0.527797 0.037283 0.044292
0 4.577026 1.939076 -38.159012 -0.998186 0.005738 0.059935 0.013169 0.073198
SHSW01043717201318BK.jpg
0 3.278653 5.742590 -50.723244 -0.271320 0.708576 -0.651387 0.025346 0.028245
0 3.195494 2.289797 -53.989861 -0.354501 0.021471 -0.934809 0.013390 0.017198
0 4.577026 1.939076 -38.159012 -0.998186 0.005738 0.059935 0.013169 0.073198
SHSW01043717201318BK.jpg
0 2.640566 18.893436 -27.596931 -0.395009 0.877300 -0.272602 0.070031 0.108422
0 3.212866 14.830184 -37.788918 0.358263 0.829357 -0.428736 0.056169 0.073367
0 4.577026 1.939076 -38.159012 -0.998186 0.005738 0.059935 0.013169 0.073198
SHSW01043717201318BK.jpg
0 4.577026 1.939076 -38.159012 -0.998186 0.005738 0.059935 0.013169 0.073198
0 6.458712 1.461247 -16.597113 -0.996810 0.005316 0.079635 0.012870 0.149197
0 2.640566 18.893436 -27.596931 -0.395009 0.877300 -0.272602 0.070031 0.108422
SHSW01043717201318BK.jpg
0 3.247639 21.577999 -15.806303 0.204324 0.960119 -0.190846 0.079869 0.149461
0 2.640566 18.893436 -27.596931 -0.395009 0.877300 -0.272602 0.070031 0.108422
0 6.458712 1.461247 -16.597113 -0.996810 0.005316 0.079635 0.012870 0.149197
SHSW01043717201318BK.jpg
0 3.696351 25.754856 7.169825 -0.956172 0.285747 -0.063909 0.095550 0.230523
0 3.247639 21.577999 -15.806303 0.204324 0.960119 -0.190846 0.079869 0.149461
0 6.458712 1.461247 -16.597113 -0.996810 0.005316 0.079635 0.012870 0.149197
SHSW01043717201318BK.jpg
0 6.458712 1.461247 -16.597113 -0.996810 0.005316 0.079635 0.012870 0.149197
0 8.452456 0.954125 6.253866 -0.993921 0.004701 0.109998 0.012551 0.230196
0 3.696351 25.754856 7.169825 -0.956172 0.285747 -0.063909 0.095550 0.230523
SHSW01043717201318BK.jpg
0 3.339584 9.403222 -46.214714 0.507841 0.680828 -0.527797 0.037283 0.044292
0 3.278653 5.742590 -50.723244 -0.271320 0.708576 -0.651387 0.025346 0.028245
0 4.577026 1.939076 -38.159012 -0.998186 0.005738 0.059935 0.013169 0.073198
SHSW01043717201318BK.jpg
0 8.389125 14.148309 27.343302 -0.966821 -0.230731 0.109633 0.058263 0.303377
0 7.740200 16.247005 21.297974 -0.973754 -0.217108 0.068322 0.064350 0.281401
0 9.723185 0.630660 20.812235 -0.994970 0.004932 0.100055 0.012350 0.281196
SHSW01043717201318BK.jpg
0 9.805973 12.777089 35.566696 -0.970742 -0.192481 0.143568 0.054149 0.332361
0 8.389125 14.148309 27.343302 -0.966821 -0.230731 0.109633 0.058263 0.303377
0 9.723185 0.630660 20.812235 -0.994970 0.004932 0.100055 0.012350 0.281196
SHSW01043717201318BK.jpg
0 9.723185 0.630660 20.812235 -0.994970 0.004932 0.100055 0.012350 0.281196
0 11.636243 0.211597 39.617813 -0.999343 0.006233 0.035702 0.012086 0.348196
0 9.805973 12.777089 35.566696 -0.970742 -0.192481 0.143568 0.054149 0.332361
SHSW01043717201318BK.jpg
0 7.740200 16.247005 21.297974 -0.973754 -0.217108 0.068322 0.064350 0.281401
0 3.696351 25.754856 7.169825 -0.956172 0.285747 -0.063909 0.095550 0.230523
0 8.452456 0.954125 6.253866 -0.993921 0.004701 0.109998 0.012551 0.230196
SHSW01043717201318BK.jpg
0 8.452456 0.954125 6.253866 -0.993921 0.004701 0.109998 0.012551 0.230196
0 9.723185 0.630660 20.812235 -0.994970 0.004932 0.100055 0.012350 0.281196
0 7.740200 16.247005 21.297974 -0.973754 -0.217108 0.068322 0.064350 0.281401
SHSW01043717201318BK.jpg
0 9.068153 18.545841 42.008217 -0.880558 -0.149394 0.449776 0.073062 0.354436
0 9.757618 16.220150 39.033539 -0.977775 -0.201668 0.057319 0.065101 0.344405
0 11.636243 0.211597 39.617813 -0.999343 0.006233 0.035702 0.012086 0.348196
SHSW01043717201318BK.jpg
0 9.757618 16.220150 39.033539 -0.977775 -0.201668 0.057319 0.065101 0.344405
0 9.805973 12.777089 35.566696 -0.970742 -0.192481 0.143568 0.054149 0.332361
0 11.636243 0.211597 39.617813 -0.999343 0.006233 0.035702 0.012086 0.348196
SHSW01043717201318BK.jpg
0 11.235311 23.372452 23.157290 0.870262 0.471307 0.143225 0.761115 0.838431
0 4.914689 26.126789 26.244631 -0.700160 -0.408567 0.585533 0.733016 0.867227
0 6.605595 21.125816 31.367115 -0.484046 0.539166 0.689202 0.786659 0.926322
SHSW01043717201318BK.jpg
0 11.532397 20.029167 81.421097 -0.810625 0.455212 0.368333 0.080514 0.493467
0 12.276094 17.328892 80.585258 -0.048116 -0.994794 -0.089833 0.071526 0.490431
0 12.626284 17.230347 84.808426 -0.298329 -0.951197 0.078892 0.071467 0.505431
SHSW01043717201318BK.jpg
0 12.626284 17.230347 84.808426 -0.298329 -0.951197 0.078892 0.071467 0.505431
0 12.242105 18.669590 85.126793 -0.494175 0.807975 0.320884 0.076463 0.506451
0 11.532397 20.029167 81.421097 -0.810625 0.455212 0.368333 0.080514 0.493467
SHSW01043717201318BK.jpg
0 11.545922 17.609222 73.327782 -0.602460 -0.792595 0.093996 0.072625 0.465435
0 10.382519 22.487328 76.985176 0.011213 0.815301 0.578929 0.088577 0.477498
0 8.381371 26.803051 72.134911 -0.475519 0.652296 0.590247 0.102648 0.459553
SHSW01043717201318BK.jpg
0 8.381371 26.803051 72.134911 -0.475519 0.652296 0.590247 0.102648 0.459553
0 9.231541 22.697105 65.254845 -0.942909 -0.324954 0.072994 0.088743 0.435498
0 11.545922 17.609222 73.327782 -0.602460 -0.792595 0.093996 0.072625 0.465435
SHSW01043717201318BK.jpg
0 11.545922 17.609222 73.327782 -0.602460 -0.792595 0.093996 0.072625 0.465435
0 12.276094 17.328892 80.585258 -0.048116 -0.994794 -0.089833 0.071526 0.490431
0 11.532397 20.029167 81.421097 -0.810625 0.455212 0.368333 0.080514 0.493467
SHSW01043717201318BK.jpg
0 11.532397 20.029167 81.421097 -0.810625 0.455212 0.368333 0.080514 0.493467
0 10.382519 22.487328 76.985176 0.011213 0.815301 0.578929 0.088577 0.477498
0 11.545922 17.609222 73.327782 -0.602460 -0.792595 0.093996 0.072625 0.465435
SHSW01043717201318BK.jpg
0 7.439495 23.688950 38.399574 -0.801430 0.099609 -0.589735 0.090113 0.341502
0 9.757618 16.220150 39.033539 -0.977775 -0.201668 0.057319 0.065101 0.344405
0 9.068153 18.545841 42.008217 -0.880558 -0.149394 0.449776 0.073062 0.354436
SHSW01043717201318BK.jpg
0 6.480866 2.072502 -44.776070 0.949010 -0.000172 -0.315245 0.983964 0.152991
0 3.238348 -5.156097 -46.501030 0.498205 -0.665292 -0.556038 0.921805 0.127848
0 3.229697 -1.302599 -50.861526 -0.281205 -0.677096 -0.680047 0.958982 0.082994
SHSW01043717201318BK.jpg
0 3.238348 -5.156097 -46.501030 0.498205 -0.665292 -0.556038 0.921805 0.127848
0 6.480866 2.072502 -44.776070 0.949010 -0.000172 -0.315245 0.983964 0.152991
0 6.898325 -4.744652 -36.095551 0.892450 -0.371347 -0.256192 0.928368 0.238875
SHSW01043717201318BK.jpg
0 6.898325 -4.744652 -36.095551 0.892450 -0.371347 -0.256192 0.928368 0.238875
0 3.033667 -10.941976 -38.294090 0.347048 -0.815224 -0.463646 0.866467 0.213630
0 3.238348 -5.156097 -46.501030 0.498205 -0.665292 -0.556038 0.921805 0.127848
SHSW01043717201318BK.jpg
0 3.033667 -10.941976 -38.294090 0.347048 -0.815224 -0.463646 0.866467 0.213630
0 6.898325 -4.744652 -36.095551 0.892450 -0.371347 -0.256192 0.928368 0.238875
0 7.306352 -9.467906 -26.257378 0.871039 -0.441900 -0.214510 0.882967 0.340696
SHSW01043717201318BK.jpg
0 7.306352 -9.467906 -26.257378 0.871039 -0.441900 -0.214510 0.882967 0.340696
0 2.401906 -15.437985 -28.269981 -0.406854 -0.859284 -0.310001 0.824061 0.316464
0 3.033667 -10.941976 -38.294090 0.347048 -0.815224 -0.463646 0.866467 0.213630
SHSW01043717201318BK.jpg
0 2.401906 -15.437985 -28.269981 -0.406854 -0.859284 -0.310001 0.824061 0.316464
0 7.306352 -9.467906 -26.257378 0.871039 -0.441900 -0.214510 0.882967 0.340696
0 8.535242 -12.299674 -14.957026 0.874576 -0.446424 -0.189270 0.857502 0.458597
SHSW01043717201318BK.jpg
0 8.535242 -12.299674 -14.957026 0.874576 -0.446424 -0.189270 0.857502 0.458597
0 2.967492 -18.638714 -16.595697 0.136548 -0.954892 -0.263698 0.794581 0.438349
0 2.401906 -15.437985 -28.269981 -0.406854 -0.859284 -0.310001 0.824061 0.316464
SHSW01043717201318BK.jpg
0 2.967492 -18.638714 -16.595697 0.136548 -0.954892 -0.263698 0.794581 0.438349
0 8.535242 -12.299674 -14.957026 0.874576 -0.446424 -0.189270 0.857502 0.458597
0 10.604326 -16.910851 5.703192 0.816656 -0.537512 -0.210127 0.815652 0.674434
SHSW01043717201318BK.jpg
0 10.604326 -16.910851 5.703192 0.816656 -0.537512 -0.210127 0.815652 0.674434
0 3.351562 -23.813606 6.198561 -0.949396 -0.307706 -0.062966 0.747652 0.674166
0 2.967492 -18.638714 -16.595697 0.136548 -0.954892 -0.263698 0.794581 0.438349
SHSW01043717201318BK.jpg
0 3.351562 -23.813606 6.198561 -0.949396 -0.307706 -0.062966 0.747652 0.674166
0 10.604326 -16.910851 5.703192 0.816656 -0.537512 -0.210127 0.815652 0.674434
0 10.917567 -22.208061 22.261719 0.860240 -0.490735 0.138442 0.761115 0.838431
SHSW01043717201318BK.jpg
0 10.917567 -22.208061 22.261719 0.860240 -0.490735 0.138442 0.761115 0.838431
0 2.463452 -29.952042 22.466484 0.027015 -0.872660 -0.487580 0.689990 0.841941
0 3.351562 -23.813606 6.198561 -0.949396 -0.307706 -0.062966 0.747652 0.674166
SHSW01043717201318BK.jpg
0 10.917567 -22.208061 22.261719 0.860240 -0.490735 0.138442 0.761115 0.838431
0 4.558342 -25.025856 25.240440 -0.694562 0.394012 0.601945 0.733016 0.867227
0 8.510893 -25.537891 24.488230 0.836253 -0.221759 0.501502 0.728033 0.863208
SHSW01043717201318BK.jpg
0 4.558342 -25.025856 25.240440 -0.694562 0.394012 0.601945 0.733016 0.867227
0 0.154770 -37.304737 34.362389 -0.134084 0.316110 0.939200 0.621468 0.956804
0 8.510893 -25.537891 24.488230 0.836253 -0.221759 0.501502 0.728033 0.863208
SHSW01043717201318BK.jpg
0 6.316926 -20.270439 30.553532 -0.490427 -0.560657 0.667192 0.786659 0.926322
0 10.917567 -22.208061 22.261719 0.860240 -0.490735 0.138442 0.761115 0.838431
0 12.216713 -13.783051 30.083084 0.736177 -0.658850 -0.154789 0.850663 0.921668
SHSW01043717201318BK.jpg
0 12.216713 -13.783051 30.083084 0.736177 -0.658850 -0.154789 0.850663 0.921668
0 7.647285 -18.964916 33.968430 -0.676898 -0.631536 -0.378115 0.800517 0.958470
0 6.316926 -20.270439 30.553532 -0.490427 -0.560657 0.667192 0.786659 0.926322
SHSW01043717201318BK.jpg
0 8.812531 -18.182182 41.288086 -0.878095 0.144285 0.456214 0.427686 0.410904
0 18.059242 -8.625028 42.886177 0.844836 -0.509767 -0.162449 0.529591 0.435306
0 18.744801 -9.711871 53.664574 0.873323 -0.485036 0.045250 0.520114 0.556269
SHSW01043717201318BK.jpg
0 18.744801 -9.711871 53.664574 0.873323 -0.485036 0.045250 0.520114 0.556269
0 7.997150 -21.968815 50.147308 0.276464 -0.758829 -0.589700 0.393207 0.510706
0 8.812531 -18.182182 41.288086 -0.878095 0.144285 0.456214 0.427686 0.410904
SHSW01043717201318BK.jpg
0 22.781523 -0.081886 50.383003 0.998964 -0.007540 0.044874 0.622252 0.521671
0 18.059242 -8.625028 42.886177 0.844836 -0.509767 -0.162449 0.529591 0.435306
0 21.514175 0.108696 41.947845 0.979331 -0.002536 -0.202249 0.622622 0.427672
SHSW01043717201318BK.jpg
0 11.726308 -15.141543 66.605179 -0.049073 0.672849 0.738151 0.464575 0.693051
0 11.293435 -18.634655 72.616829 -0.591306 0.796184 0.128248 0.429308 0.760913
0 13.770880 -23.323212 65.281296 0.945883 -0.324493 0.003275 0.378615 0.682713
SHSW01043717201318BK.jpg
0 13.770880 -23.323212 65.281296 0.945883 -0.324493 0.003275 0.378615 0.682713
0 15.057726 -18.279030 58.713036 0.946819 -0.321060 0.021294 0.430902 0.609918
0 11.726308 -15.141543 66.605179 -0.049073 0.672849 0.738151 0.464575 0.693051
SHSW01043717201318BK.jpg
0 8.001376 -27.734329 71.065048 -0.483425 -0.670224 0.563117 0.336289 0.739578
0 13.770880 -23.323212 65.281296 0.945883 -0.324493 0.003275 0.378615 0.682713
0 13.800756 -21.330925 74.192589 0.996491 -0.015065 0.082337 0.401229 0.780802
SHSW01043717201318BK.jpg
0 13.800756 -21.330925 74.192589 0.996491 -0.015065 0.082337 0.401229 0.780802
0 10.060958 -23.654766 76.079391 0.002837 -0.839090 0.543985 0.376158 0.796751
0 8.001376 -27.734329 71.065048 -0.483425 -0.670224 0.563117 0.336289 0.739578
SHSW01043717201318BK.jpg
0 10.060958 -23.654766 76.079391 0.002837 -0.839090 0.543985 0.376158 0.796751
0 13.800756 -21.330925 74.192589 0.996491 -0.015065 0.082337 0.401229 0.780802
0 13.399825 -19.523796 79.962097 0.994062 0.052042 0.095568 0.420981 0.843881
SHSW01043717201318BK.jpg
0 13.399825 -19.523796 79.962097 0.994062 0.052042 0.095568 0.420981 0.843881
0 11.243656 -21.404392 80.606499 -0.817154 -0.458653 0.349137 0.400958 0.849802
0 10.060958 -23.654766 76.079391 0.002837 -0.839090 0.543985 0.376158 0.796751
SHSW01043717201318BK.jpg
0 11.243656 -21.404392 80.606499 -0.817154 -0.458653 0.349137 0.400958 0.849802
0 13.399825 -19.523796 79.962097 0.994062 0.052042 0.095568 0.420981 0.843881
0 12.949819 -19.332085 84.140251 0.968932 -0.219206 0.114541 0.423799 0.889892
SHSW01043717201318BK.jpg
0 12.949819 -19.332085 84.140251 0.968932 -0.219206 0.114541 0.423799 0.889892
0 11.971478 -20.214230 84.364357 -0.504510 -0.814592 0.286198 0.414792 0.891857
0 11.243656 -21.404392 80.606499 -0.817154 -0.458653 0.349137 0.400958 0.849802
SHSW01043717201318BK.jpg
0 12.949819 -19.332085 84.140251 0.968932 -0.219206 0.114541 0.423799 0.889892
0 12.493185 -19.535698 88.099739 0.760763 0.475122 0.442153 0.422630 0.932888
0 11.971478 -20.214230 84.364357 -0.504510 -0.814592 0.286198 0.414792 0.891857
SHSW01043717201318BK.jpg
0 18.744801 -9.711871 53.664574 0.873323 -0.485036 0.045250 0.520114 0.556269
0 15.057726 -18.279030 58.713036 0.946819 -0.321060 0.021294 0.430902 0.609918
0 7.997150 -21.968815 50.147308 0.276464 -0.758829 -0.589700 0.393207 0.510706
SHSW01043717201318BK.jpg
0 15.057726 -18.279030 58.713036 0.946819 -0.321060 0.021294 0.430902 0.609918
0 13.770880 -23.323212 65.281296 0.945883 -0.324493 0.003275 0.378615 0.682713
0 6.942243 -26.454536 54.189827 -0.452006 -0.524792 -0.721307 0.347030 0.555525
SHSW01043717201318BK.jpg
0 6.942243 -26.454536 54.189827 -0.452006 -0.524792 -0.721307 0.347030 0.555525
0 7.997150 -21.968815 50.147308 0.276464 -0.758829 -0.589700 0.393207 0.510706
0 15.057726 -18.279030 58.713036 0.946819 -0.321060 0.021294 0.430902 0.609918
SHSW01043717201318BK.jpg
0 6.942243 -26.454536 54.189827 -0.452006 -0.524792 -0.721307 0.347030 0.555525
0 13.770880 -23.323212 65.281296 0.945883 -0.324493 0.003275 0.378615 0.682713
0 4.616271 -32.718067 57.090027 -0.580403 -0.739703 -0.340547 0.284815 0.590171
SHSW01043717201318BK.jpg
0 5.589140 -31.534901 63.372520 -0.511151 -0.768229 0.385420 0.294629 0.653413
0 13.770880 -23.323212 65.281296 0.945883 -0.324493 0.003275 0.378615 0.682713
0 8.001376 -27.734329 71.065048 -0.483425 -0.670224 0.563117 0.336289 0.739578
SHSW01043717201318BK.jpg
0 4.616271 -32.718067 57.090027 -0.580403 -0.739703 -0.340547 0.284815 0.590171
0 13.770880 -23.323212 65.281296 0.945883 -0.324493 0.003275 0.378615 0.682713
0 5.589140 -31.534901 63.372520 -0.511151 -0.768229 0.385420 0.294629 0.653413
SHSW01043717201318BK.jpg
0 15.057726 -18.279030 58.713036 0.946819 -0.321060 0.021294 0.430902 0.609918
0 18.744801 -9.711871 53.664574 0.873323 -0.485036 0.045250 0.520114 0.556269
0 12.672596 -10.094277 65.639626 0.187308 -0.409178 0.893022 0.518614 0.683264
SHSW01043717201318BK.jpg
0 12.672596 -10.094277 65.639626 0.187308 -0.409178 0.893022 0.518614 0.683264
0 11.726308 -15.141543 66.605179 -0.049073 0.672849 0.738151 0.464575 0.693051
0 15.057726 -18.279030 58.713036 0.946819 -0.321060 0.021294 0.430902 0.609918
SHSW01043717201318BK.jpg
0 18.744801 -9.711871 53.664574 0.873323 -0.485036 0.045250 0.520114 0.556269
0 22.781523 -0.081886 50.383003 0.998964 -0.007540 0.044874 0.622252 0.521671
0 17.750601 -2.707235 65.138832 0.783923 -0.572894 0.239285 0.596625 0.680571
SHSW01043717201318BK.jpg
0 12.672596 -10.094277 65.639626 0.187308 -0.409178 0.893022 0.518614 0.683264
0 17.750601 -2.707235 65.138832 0.783923 -0.572894 0.239285 0.596625 0.680571
0 13.744645 -5.484295 70.572449 0.259852 -0.892854 0.367816 0.567401 0.737457
SHSW01043717201318BK.jpg
0 13.744645 -5.484295 70.572449 0.259852 -0.892854 0.367816 0.567401 0.737457
0 18.543726 -0.561681 73.487251 0.937537 -0.012933 0.347644 0.621259 0.773669
0 14.402344 -3.294381 75.395882 -0.712927 -0.615516 0.335969 0.592189 0.791555
SHSW01043717201318BK.jpg
0 18.543726 -0.561681 73.487251 0.937537 -0.012933 0.347644 0.621259 0.773669
0 16.304173 -0.675590 79.253395 0.966511 -0.011000 0.256390 0.621014 0.835669
0 14.838406 -1.465020 79.548744 -0.404258 -0.882743 0.239458 0.612007 0.837633
SHSW01043717201318BK.jpg
0 14.838406 -1.465020 79.548744 -0.404258 -0.882743 0.239458 0.612007 0.837633
0 14.402344 -3.294381 75.395882 -0.712927 -0.615516 0.335969 0.592189 0.791555
0 18.543726 -0.561681 73.487251 0.937537 -0.012933 0.347644 0.621259 0.773669
SHSW01043717201318BK.jpg
0 14.838406 -1.465020 79.548744 -0.404258 -0.882743 0.239458 0.612007 0.837633
0 16.304173 -0.675590 79.253395 0.966511 -0.011000 0.256390 0.621014 0.835669
0 15.392998 -0.812253 85.786896 -0.936112 0.000074 0.351701 0.620735 0.906668
SHSW01043717201318BK.jpg
0 8.812531 -18.182182 41.288086 -0.878095 0.144285 0.456214 0.427686 0.410904
0 16.295113 -7.689264 34.195129 0.959401 -0.277421 0.050864 0.537977 0.337337
0 18.059242 -8.625028 42.886177 0.844836 -0.509767 -0.162449 0.529591 0.435306
SHSW01043717201318BK.jpg
0 16.295113 -7.689264 34.195129 0.959401 -0.277421 0.050864 0.537977 0.337337
0 16.516479 -6.075352 29.757896 0.982361 0.044112 0.181718 0.554170 0.288401
0 19.213877 0.337389 32.008591 0.980542 -0.002710 -0.196290 0.623067 0.314673
SHSW01043717201318BK.jpg
0 16.516479 -6.075352 29.757896 0.982361 0.044112 0.181718 0.554170 0.288401
0 16.866428 -2.414907 26.116724 0.986242 0.113551 0.120138 0.592331 0.247551
0 19.213877 0.337389 32.008591 0.980542 -0.002710 -0.196290 0.623067 0.314673
SHSW01043717201318BK.jpg
0 19.213877 0.337389 32.008591 0.980542 -0.002710 -0.196290 0.623067 0.314673
0 16.866428 -2.414907 26.116724 0.986242 0.113551 0.120138 0.592331 0.247551
0 16.699141 0.565964 22.090094 0.986912 -0.009795 0.160959 0.623508 0.202674
SHSW01043717201318BK.jpg
0 18.059242 -8.625028 42.886177 0.844836 -0.509767 -0.162449 0.529591 0.435306
0 16.295113 -7.689264 34.195129 0.959401 -0.277421 0.050864 0.537977 0.337337
0 21.514175 0.108696 41.947845 0.979331 -0.002536 -0.202249 0.622622 0.427672
SHSW01043717201318BK.jpg
0 10.917567 -22.208061 22.261719 0.860240 -0.490735 0.138442 0.761115 0.838431
0 10.604326 -16.910851 5.703192 0.816656 -0.537512 -0.210127 0.815652 0.674434
0 16.425816 -5.846195 9.746445 0.996082 -0.064641 -0.060353 0.915712 0.713008
SHSW01043717201318BK.jpg
0 10.604326 -16.910851 5.703192 0.816656 -0.537512 -0.210127 0.815652 0.674434
0 8.535242 -12.299674 -14.957026 0.874576 -0.446424 -0.189270 0.857502 0.458597
0 15.142220 -2.582716 1.739553 0.986840 -0.073985 -0.143780 0.951902 0.613501
SHSW01043717201318BK.jpg
0 14.047343 1.359595 -13.784906 0.988983 -0.003735 -0.147980 0.982680 0.478987
0 8.535242 -12.299674 -14.957026 0.874576 -0.446424 -0.189270 0.857502 0.458597
0 7.306352 -9.467906 -26.257378 0.871039 -0.441900 -0.214510 0.882967 0.340696
SHSW01043717201318BK.jpg
0 7.306352 -9.467906 -26.257378 0.871039 -0.441900 -0.214510 0.882967 0.340696
0 11.783172 1.607550 -24.642809 0.978801 -0.002546 -0.204800 0.983125 0.365989
0 14.047343 1.359595 -13.784906 0.988983 -0.003735 -0.147980 0.982680 0.478987
SHSW01043717201318BK.jpg
0 11.783172 1.607550 -24.642809 0.978801 -0.002546 -0.204800 0.983125 0.365989
0 7.306352 -9.467906 -26.257378 0.871039 -0.441900 -0.214510 0.882967 0.340696
0 6.898325 -4.744652 -36.095551 0.892450 -0.371347 -0.256192 0.928368 0.238875
SHSW01043717201318BK.jpg
0 6.898325 -4.744652 -36.095551 0.892450 -0.371347 -0.256192 0.928368 0.238875
0 9.629311 1.844363 -35.030945 0.966717 -0.001440 -0.255844 0.983554 0.256990
0 11.783172 1.607550 -24.642809 0.978801 -0.002546 -0.204800 0.983125 0.365989
SHSW01043717201318BK.jpg
0 6.480866 2.072502 -44.776070 0.949010 -0.000172 -0.315245 0.983964 0.152991
0 3.229697 -1.302599 -50.861526 -0.281205 -0.677096 -0.680047 0.958982 0.082994
0 3.195494 2.289797 -53.989861 -0.354501 0.021471 -0.934809 0.984346 0.055991
SHSW01043717201318BK.jpg
0 12.493185 -19.535698 88.099739 0.760763 0.475122 0.442153 0.422630 0.932888
0 12.949819 -19.332085 84.140251 0.968932 -0.219206 0.114541 0.423799 0.889892
0 12.375379 -18.767120 84.100616 -0.286444 0.950565 0.119899 0.429804 0.888916
SHSW01043717201318BK.jpg
0 12.375379 -18.767120 84.100616 -0.286444 0.950565 0.119899 0.429804 0.888916
0 12.949819 -19.332085 84.140251 0.968932 -0.219206 0.114541 0.423799 0.889892
0 13.399825 -19.523796 79.962097 0.994062 0.052042 0.095568 0.420981 0.843881
SHSW01043717201318BK.jpg
0 13.399825 -19.523796 79.962097 0.994062 0.052042 0.095568 0.420981 0.843881
0 12.025092 -18.678501 79.878532 -0.035782 0.998268 -0.046694 0.429988 0.841917
0 12.375379 -18.767120 84.100616 -0.286444 0.950565 0.119899 0.429804 0.888916
SHSW01043717201318BK.jpg
0 12.025092 -18.678501 79.878532 -0.035782 0.998268 -0.046694 0.429988 0.841917
0 13.399825 -19.523796 79.962097 0.994062 0.052042 0.095568 0.420981 0.843881
0 13.800756 -21.330925 74.192589 0.996491 -0.015065 0.082337 0.401229 0.780802
SHSW01043717201318BK.jpg
0 13.800756 -21.330925 74.192589 0.996491 -0.015065 0.082337 0.401229 0.780802
0 11.293435 -18.634655 72.616829 -0.591306 0.796184 0.128248 0.429308 0.760913
0 12.025092 -18.678501 79.878532 -0.035782 0.998268 -0.046694 0.429988 0.841917
SHSW01043717201318BK.jpg
0 13.800756 -21.330925 74.192589 0.996491 -0.015065 0.082337 0.401229 0.780802
0 13.770880 -23.323212 65.281296 0.945883 -0.324493 0.003275 0.378615 0.682713
0 11.293435 -18.634655 72.616829 -0.591306 0.796184 0.128248 0.429308 0.760913
SHSW01043717201318BK.jpg
0 13.744645 -5.484295 70.572449 0.259852 -0.892854 0.367816 0.567401 0.737457
0 17.750601 -2.707235 65.138832 0.783923 -0.572894 0.239285 0.596625 0.680571
0 19.954391 -0.428058 66.990311 0.981692 -0.009990 0.190214 0.621539 0.702669
SHSW01043717201318BK.jpg
0 17.750601 -2.707235 65.138832 0.783923 -0.572894 0.239285 0.596625 0.680571
0 22.781523 -0.081886 50.383003 0.998964 -0.007540 0.044874 0.622252 0.521671
0 19.954391 -0.428058 66.990311 0.981692 -0.009990 0.190214 0.621539 0.702669
SHSW01043717201318BK.jpg
0 14.052424 0.935194 5.765074 0.994599 -0.004628 -0.103688 0.981884 0.677080
0 15.653496 -2.419466 14.954773 0.915639 -0.360950 -0.176977 0.960272 0.767098
0 16.425816 -5.846195 9.746445 0.996082 -0.064641 -0.060353 0.915712 0.713008
SHSW01043717201318BK.jpg
0 15.142220 -2.582716 1.739553 0.986840 -0.073985 -0.143780 0.951902 0.613501
0 14.488708 1.142077 -3.894697 0.996332 -0.005145 -0.085421 0.988134 0.572222
0 14.052424 0.935194 5.765074 0.994599 -0.004628 -0.103688 0.981884 0.677080
SHSW01043717201318BK.jpg
0 15.142220 -2.582716 1.739553 0.986840 -0.073985 -0.143780 0.951902 0.613501
0 8.535242 -12.299674 -14.957026 0.874576 -0.446424 -0.189270 0.857502 0.458597
0 14.488708 1.142077 -3.894697 0.996332 -0.005145 -0.085421 0.988134 0.572222
SHSW01043717201318BK.jpg
0 16.425816 -5.846195 9.746445 0.996082 -0.064641 -0.060353 0.915712 0.713008
0 10.604326 -16.910851 5.703192 0.816656 -0.537512 -0.210127 0.815652 0.674434
0 15.142220 -2.582716 1.739553 0.986840 -0.073985 -0.143780 0.951902 0.613501
SHSW01043717201318BK.jpg
0 10.917567 -22.208061 22.261719 0.860240 -0.490735 0.138442 0.761115 0.838431
0 16.425816 -5.846195 9.746445 0.996082 -0.064641 -0.060353 0.915712 0.713008
0 15.653496 -2.419466 14.954773 0.915639 -0.360950 -0.176977 0.960272 0.767098
SHSW01043717201318BK.jpg
0 15.653496 -2.419466 14.954773 0.915639 -0.360950 -0.176977 0.960272 0.767098
0 15.063032 -7.161228 23.541468 0.797718 -0.555656 -0.234290 0.914922 0.855920
0 10.917567 -22.208061 22.261719 0.860240 -0.490735 0.138442 0.761115 0.838431
SHSW01043717201318BK.jpg
0 14.488708 1.142077 -3.894697 0.996332 -0.005145 -0.085421 0.988134 0.572222
0 8.535242 -12.299674 -14.957026 0.874576 -0.446424 -0.189270 0.857502 0.458597
0 14.047343 1.359595 -13.784906 0.988983 -0.003735 -0.147980 0.982680 0.478987
SHSW01043717201318BK.jpg
0 6.480866 2.072502 -44.776070 0.949010 -0.000172 -0.315245 0.983964 0.152991
0 9.629311 1.844363 -35.030945 0.966717 -0.001440 -0.255844 0.983554 0.256990
0 6.898325 -4.744652 -36.095551 0.892450 -0.371347 -0.256192 0.928368 0.238875
SHSW01043717201318BK.jpg
0 10.917567 -22.208061 22.261719 0.860240 -0.490735 0.138442 0.761115 0.838431
0 8.510893 -25.537891 24.488230 0.836253 -0.221759 0.501502 0.728033 0.863208
0 2.463452 -29.952042 22.466484 0.027015 -0.872660 -0.487580 0.689990 0.841941
SHSW01043717201318BK.jpg
0 8.510893 -25.537891 24.488230 0.836253 -0.221759 0.501502 0.728033 0.863208
0 0.154770 -37.304737 34.362389 -0.134084 0.316110 0.939200 0.621468 0.956804
0 2.463452 -29.952042 22.466484 0.027015 -0.872660 -0.487580 0.689990 0.841941
SHSW01043717201318BK.jpg
0 12.216713 -13.783051 30.083084 0.736177 -0.658850 -0.154789 0.850663 0.921668
0 10.917567 -22.208061 22.261719 0.860240 -0.490735 0.138442 0.761115 0.838431
0 15.063032 -7.161228 23.541468 0.797718 -0.555656 -0.234290 0.914922 0.855920
SHSW01043717201318BK.jpg
0 18.543726 -0.561681 73.487251 0.937537 -0.012933 0.347644 0.621259 0.773669
0 13.744645 -5.484295 70.572449 0.259852 -0.892854 0.367816 0.567401 0.737457
0 19.954391 -0.428058 66.990311 0.981692 -0.009990 0.190214 0.621539 0.702669
SHSW01043717201318BK.jpg
0 18.744801 -9.711871 53.664574 0.873323 -0.485036 0.045250 0.520114 0.556269
0 17.750601 -2.707235 65.138832 0.783923 -0.572894 0.239285 0.596625 0.680571
0 12.672596 -10.094277 65.639626 0.187308 -0.409178 0.893022 0.518614 0.683264
SHSW01043717201318BK.jpg
0 16.295113 -7.689264 34.195129 0.959401 -0.277421 0.050864 0.537977 0.337337
0 19.213877 0.337389 32.008591 0.980542 -0.002710 -0.196290 0.623067 0.314673
0 21.514175 0.108696 41.947845 0.979331 -0.002536 -0.202249 0.622622 0.427672
SHSW01043717201318BK.jpg
0 18.059242 -8.625028 42.886177 0.844836 -0.509767 -0.162449 0.529591 0.435306
0 22.781523 -0.081886 50.383003 0.998964 -0.007540 0.044874 0.622252 0.521671
0 18.744801 -9.711871 53.664574 0.873323 -0.485036 0.045250 0.520114 0.556269
SHSW01043717201318BK.jpg
0 16.295113 -7.689264 34.195129 0.959401 -0.277421 0.050864 0.537977 0.337337
0 8.812531 -18.182182 41.288086 -0.878095 0.144285 0.456214 0.427686 0.410904
0 14.645052 -15.995421 35.358284 0.834186 -0.530439 -0.150895 0.449923 0.350991
SHSW01043717201318BK.jpg
0 16.295113 -7.689264 34.195129 0.959401 -0.277421 0.050864 0.537977 0.337337
0 17.190207 -8.964963 29.819683 0.932729 -0.347354 -0.096755 0.523162 0.290279
0 16.516479 -6.075352 29.757896 0.982361 0.044112 0.181718 0.554170 0.288401
SHSW01043717201318BK.jpg
0 16.516479 -6.075352 29.757896 0.982361 0.044112 0.181718 0.554170 0.288401
0 17.190207 -8.964963 29.819683 0.932729 -0.347354 -0.096755 0.523162 0.290279
0 18.980713 -4.470126 24.766428 0.993196 -0.052155 0.104125 0.570379 0.235465
SHSW01043717201318BK.jpg
0 18.980713 -4.470126 24.766428 0.993196 -0.052155 0.104125 0.570379 0.235465
0 16.866428 -2.414907 26.116724 0.986242 0.113551 0.120138 0.592331 0.247551
0 16.516479 -6.075352 29.757896 0.982361 0.044112 0.181718 0.554170 0.288401
SHSW01043717201318BK.jpg
0 18.980713 -4.470126 24.766428 0.993196 -0.052155 0.104125 0.570379 0.235465
0 18.736307 0.678119 16.428385 0.985193 -0.002862 -0.171427 0.623749 0.141674
0 16.699141 0.565964 22.090094 0.986912 -0.009795 0.160959 0.623508 0.202674
SHSW01043717201318BK.jpg
0 16.699141 0.565964 22.090094 0.986912 -0.009795 0.160959 0.623508 0.202674
0 16.866428 -2.414907 26.116724 0.986242 0.113551 0.120138 0.592331 0.247551
0 18.980713 -4.470126 24.766428 0.993196 -0.052155 0.104125 0.570379 0.235465
SHSW01043717201318BK.jpg
0 8.812531 -18.182182 41.288086 -0.878095 0.144285 0.456214 0.427686 0.410904
0 11.482587 -23.446754 40.199402 0.984655 -0.174325 0.008082 0.371719 0.402683
0 14.645052 -15.995421 35.358284 0.834186 -0.530439 -0.150895 0.449923 0.350991
SHSW01043717201318BK.jpg
0 11.482587 -23.446754 40.199402 0.984655 -0.174325 0.008082 0.371719 0.402683
0 6.881993 -25.185253 46.276443 0.055599 0.686382 0.725113 0.354470 0.465616
0 9.748468 -27.979652 44.577957 0.897347 -0.436776 -0.063213 0.324530 0.450498
SHSW01043717201318BK.jpg
0 6.881993 -25.185253 46.276443 0.055599 0.686382 0.725113 0.354470 0.465616
0 4.869564 -33.205730 55.703331 -0.094692 0.806686 0.583344 0.271061 0.569288
0 6.635136 -35.080738 54.104073 0.961033 -0.236919 0.142424 0.251120 0.554210
SHSW01043717201318BK.jpg
0 6.635136 -35.080738 54.104073 0.961033 -0.236919 0.142424 0.251120 0.554210
0 9.748468 -27.979652 44.577957 0.897347 -0.436776 -0.063213 0.324530 0.450498
0 6.881993 -25.185253 46.276443 0.055599 0.686382 0.725113 0.354470 0.465616
SHSW01043717201318BK.jpg
0 4.869564 -33.205730 55.703331 -0.094692 0.806686 0.583344 0.271061 0.569288
0 2.812709 -39.253376 64.199707 -0.071248 0.788697 0.610640 0.208691 0.663043
0 4.272925 -40.462803 62.573997 0.961056 -0.262037 0.087793 0.195759 0.645992
SHSW01043717201318BK.jpg
0 4.272925 -40.462803 62.573997 0.961056 -0.262037 0.087793 0.195759 0.645992
0 6.635136 -35.080738 54.104073 0.961033 -0.236919 0.142424 0.251120 0.554210
0 4.869564 -33.205730 55.703331 -0.094692 0.806686 0.583344 0.271061 0.569288
SHSW01043717201318BK.jpg
0 2.812709 -39.253376 64.199707 -0.071248 0.788697 0.610640 0.208691 0.663043
0 0.776783 -44.988873 71.189262 -0.044497 0.662450 0.747783 0.149393 0.738810
0 1.776613 -46.176167 69.859077 0.943156 -0.318094 0.096293 0.136444 0.725759
SHSW01043717201318BK.jpg
0 1.776613 -46.176167 69.859077 0.943156 -0.318094 0.096293 0.136444 0.725759
0 4.272925 -40.462803 62.573997 0.961056 -0.262037 0.087793 0.195759 0.645992
0 2.812709 -39.253376 64.199707 -0.071248 0.788697 0.610640 0.208691 0.663043
SHSW01043717201318BK.jpg
0 0.776783 -44.988873 71.189262 -0.044497 0.662450 0.747783 0.149393 0.738810
0 -2.527736 -52.725002 76.759590 -0.019468 0.500864 0.865307 0.068153 0.799491
0 -2.163092 -53.225483 75.914619 0.914112 -0.362036 0.182564 0.063188 0.790471
SHSW01043717201318BK.jpg
0 -2.163092 -53.225483 75.914619 0.914112 -0.362036 0.182564 0.063188 0.790471
0 1.776613 -46.176167 69.859077 0.943156 -0.318094 0.096293 0.136444 0.725759
0 0.776783 -44.988873 71.189262 -0.044497 0.662450 0.747783 0.149393 0.738810
SHSW01043717201318BK.jpg
0 -2.527736 -52.725002 76.759590 -0.019468 0.500864 0.865307 0.068153 0.799491
0 -4.708471 -57.425396 78.774681 0.819223 -0.508378 0.265379 0.019070 0.820298
0 -2.163092 -53.225483 75.914619 0.914112 -0.362036 0.182564 0.063188 0.790471
SHSW01043717201318BK.jpg
0 15.653496 -2.419466 14.954773 0.915639 -0.360950 -0.176977 0.593726 0.127447
0 18.736307 0.678119 16.428385 0.985193 -0.002862 -0.171427 0.623749 0.141674
0 18.980713 -4.470126 24.766428 0.993196 -0.052155 0.104125 0.570379 0.235465
SHSW01043717201318BK.jpg
0 18.980713 -4.470126 24.766428 0.993196 -0.052155 0.104125 0.570379 0.235465
0 15.063032 -7.161228 23.541468 0.797718 -0.555656 -0.234290 0.545351 0.222257
0 15.653496 -2.419466 14.954773 0.915639 -0.360950 -0.176977 0.593726 0.127447
SHSW01043717201318BK.jpg
0 15.063032 -7.161228 23.541468 0.797718 -0.555656 -0.234290 0.545351 0.222257
0 18.980713 -4.470126 24.766428 0.993196 -0.052155 0.104125 0.570379 0.235465
0 17.190207 -8.964963 29.819683 0.932729 -0.347354 -0.096755 0.523162 0.290279
SHSW01043717201318BK.jpg
0 17.190207 -8.964963 29.819683 0.932729 -0.347354 -0.096755 0.523162 0.290279
0 12.216713 -13.783051 30.083084 0.736177 -0.658850 -0.154789 0.476073 0.292985
0 15.063032 -7.161228 23.541468 0.797718 -0.555656 -0.234290 0.545351 0.222257
SHSW01043717201318BK.jpg
0 12.216713 -13.783051 30.083084 0.736177 -0.658850 -0.154789 0.476073 0.292985
0 14.645052 -15.995421 35.358284 0.834186 -0.530439 -0.150895 0.449923 0.350991
0 7.647285 -18.964916 33.968430 -0.676898 -0.631536 -0.378115 0.421916 0.332771
SHSW01043717201318BK.jpg
0 14.645052 -15.995421 35.358284 0.834186 -0.530439 -0.150895 0.449923 0.350991
0 11.482587 -23.446754 40.199402 0.984655 -0.174325 0.008082 0.371719 0.402683
0 7.113340 -23.146523 37.480179 -0.802793 -0.064471 -0.592761 0.374856 0.367696
SHSW01043717201318BK.jpg
0 7.113340 -23.146523 37.480179 -0.802793 -0.064471 -0.592761 0.374856 0.367696
0 7.647285 -18.964916 33.968430 -0.676898 -0.631536 -0.378115 0.421916 0.332771
0 14.645052 -15.995421 35.358284 0.834186 -0.530439 -0.150895 0.449923 0.350991
SHSW01043717201318BK.jpg
0 11.482587 -23.446754 40.199402 0.984655 -0.174325 0.008082 0.371719 0.402683
0 9.748468 -27.979652 44.577957 0.897347 -0.436776 -0.063213 0.324530 0.450498
0 5.434236 -27.530491 37.267784 -0.048784 -0.411920 -0.909913 0.327868 0.364510
SHSW01043717201318BK.jpg
0 9.748468 -27.979652 44.577957 0.897347 -0.436776 -0.063213 0.324530 0.450498
0 3.754338 -32.768330 43.029312 -0.924318 -0.195194 -0.327926 0.273617 0.428298
0 5.434236 -27.530491 37.267784 -0.048784 -0.411920 -0.909913 0.327868 0.364510
SHSW01043717201318BK.jpg
0 9.748468 -27.979652 44.577957 0.897347 -0.436776 -0.063213 0.324530 0.450498
0 6.635136 -35.080738 54.104073 0.961033 -0.236919 0.142424 0.251120 0.554210
0 2.050630 -38.425808 51.906235 -0.586636 -0.683790 -0.433923 0.215231 0.526068
SHSW01043717201318BK.jpg
0 2.050630 -38.425808 51.906235 -0.586636 -0.683790 -0.433923 0.215231 0.526068
0 3.754338 -32.768330 43.029312 -0.924318 -0.195194 -0.327926 0.273617 0.428298
0 9.748468 -27.979652 44.577957 0.897347 -0.436776 -0.063213 0.324530 0.450498
SHSW01043717201318BK.jpg
0 6.635136 -35.080738 54.104073 0.961033 -0.236919 0.142424 0.251120 0.554210
0 4.272925 -40.462803 62.573997 0.961056 -0.262037 0.087793 0.195759 0.645992
0 0.974662 -42.190792 60.699715 -0.622726 -0.631406 -0.462102 0.176849 0.622917
SHSW01043717201318BK.jpg
0 0.974662 -42.190792 60.699715 -0.622726 -0.631406 -0.462102 0.176849 0.622917
0 2.050630 -38.425808 51.906235 -0.586636 -0.683790 -0.433923 0.215231 0.526068
0 6.635136 -35.080738 54.104073 0.961033 -0.236919 0.142424 0.251120 0.554210
SHSW01043717201318BK.jpg
0 4.272925 -40.462803 62.573997 0.961056 -0.262037 0.087793 0.195759 0.645992
0 1.776613 -46.176167 69.859077 0.943156 -0.318094 0.096293 0.136444 0.725759
0 -0.743480 -47.513836 68.098671 -0.595494 -0.552301 -0.583395 0.122531 0.703704
SHSW01043717201318BK.jpg
0 -0.743480 -47.513836 68.098671 -0.595494 -0.552301 -0.583395 0.122531 0.703704
0 0.974662 -42.190792 60.699715 -0.622726 -0.631406 -0.462102 0.176849 0.622917
0 4.272925 -40.462803 62.573997 0.961056 -0.262037 0.087793 0.195759 0.645992
SHSW01043717201318BK.jpg
0 1.776613 -46.176167 69.859077 0.943156 -0.318094 0.096293 0.136444 0.725759
0 -2.163092 -53.225483 75.914619 0.914112 -0.362036 0.182564 0.063188 0.790471
0 -3.266387 -53.840588 75.003548 -0.559254 -0.508398 -0.654803 0.056232 0.779444
SHSW01043717201318BK.jpg
0 -3.266387 -53.840588 75.003548 -0.559254 -0.508398 -0.654803 0.056232 0.779444
0 -0.743480 -47.513836 68.098671 -0.595494 -0.552301 -0.583395 0.122531 0.703704
0 1.776613 -46.176167 69.859077 0.943156 -0.318094 0.096293 0.136444 0.725759
SHSW01043717201318BK.jpg
0 -2.163092 -53.225483 75.914619 0.914112 -0.362036 0.182564 0.063188 0.790471
0 -4.708471 -57.425396 78.774681 0.819223 -0.508378 0.265379 0.019070 0.820298
0 -3.266387 -53.840588 75.003548 -0.559254 -0.508398 -0.654803 0.056232 0.779444
SHSW01043717201318BK.jpg
0 14.645052 -15.995421 35.358284 0.834186 -0.530439 -0.150895 0.449923 0.350991
0 12.216713 -13.783051 30.083084 0.736177 -0.658850 -0.154789 0.476073 0.292985
0 17.190207 -8.964963 29.819683 0.932729 -0.347354 -0.096755 0.523162 0.290279
SHSW01043717201318BK.jpg
0 18.736307 0.678119 16.428385 0.985193 -0.002862 -0.171427 0.623749 0.141674
0 15.653496 -2.419466 14.954773 0.915639 -0.360950 -0.176977 0.593726 0.127447
0 14.052424 0.935194 5.765074 0.994599 -0.004628 -0.103688 0.616420 0.042112
SHSW01043717201318BK.jpg
0 17.190207 -8.964963 29.819683 0.932729 -0.347354 -0.096755 0.523162 0.290279
0 16.295113 -7.689264 34.195129 0.959401 -0.277421 0.050864 0.537977 0.337337
0 14.645052 -15.995421 35.358284 0.834186 -0.530439 -0.150895 0.449923 0.350991
SHSW01043717201318BK.jpg
0 11.482587 -23.446754 40.199402 0.984655 -0.174325 0.008082 0.371719 0.402683
0 5.434236 -27.530491 37.267784 -0.048784 -0.411920 -0.909913 0.327868 0.364510
0 7.113340 -23.146523 37.480179 -0.802793 -0.064471 -0.592761 0.374856 0.367696
SHSW01043717201318BK.jpg
0 11.482587 -23.446754 40.199402 0.984655 -0.174325 0.008082 0.371719 0.402683
0 8.812531 -18.182182 41.288086 -0.878095 0.144285 0.456214 0.427686 0.410904
0 6.881993 -25.185253 46.276443 0.055599 0.686382 0.725113 0.354470 0.465616
SHSW01043717201318BK.jpg
0 14.052424 0.935194 5.765074 0.994599 -0.004628 -0.103688 0.981884 0.677080
0 16.425816 -5.846195 9.746445 0.996082 -0.064641 -0.060353 0.915712 0.713008
0 15.142220 -2.582716 1.739553 0.986840 -0.073985 -0.143780 0.951902 0.613501
SHSW01043717201318BK.jpg
0 13.744645 -5.484295 70.572449 0.259852 -0.892854 0.367816 0.027656 0.457258
0 13.751611 -0.421117 68.208466 -0.993133 0.004616 0.116897 0.011688 0.449195
0 12.672596 -10.094277 65.639626 0.187308 -0.409178 0.893022 0.043723 0.440321
SHSW01043717201318BK.jpg
0 14.402344 -3.294381 75.395882 -0.712927 -0.615516 0.335969 0.020590 0.474230
0 14.304772 -0.581927 75.459747 -0.995435 0.004977 0.095308 0.011590 0.474195
0 13.751611 -0.421117 68.208466 -0.993133 0.004616 0.116897 0.011688 0.449195
SHSW01043717201318BK.jpg
0 13.751611 -0.421117 68.208466 -0.993133 0.004616 0.116897 0.011688 0.449195
0 13.744645 -5.484295 70.572449 0.259852 -0.892854 0.367816 0.027656 0.457258
0 14.402344 -3.294381 75.395882 -0.712927 -0.615516 0.335969 0.020590 0.474230
SHSW01043717201318BK.jpg
0 14.838406 -1.465020 79.548744 -0.404258 -0.882743 0.239458 0.013531 0.489203
0 14.665673 -0.673528 79.579628 -0.994780 0.004656 0.101934 0.011531 0.489195
0 14.304772 -0.581927 75.459747 -0.995435 0.004977 0.095308 0.011590 0.474195
SHSW01043717201318BK.jpg
0 14.304772 -0.581927 75.459747 -0.995435 0.004977 0.095308 0.011590 0.474195
0 14.402344 -3.294381 75.395882 -0.712927 -0.615516 0.335969 0.020590 0.474230
0 14.838406 -1.465020 79.548744 -0.404258 -0.882743 0.239458 0.013531 0.489203
SHSW01043717201318BK.jpg
0 14.838406 -1.465020 79.548744 -0.404258 -0.882743 0.239458 0.013531 0.489203
0 15.392998 -0.812253 85.786896 -0.936112 0.000074 0.351701 0.011444 0.511194
0 14.665673 -0.673528 79.579628 -0.994780 0.004656 0.101934 0.011531 0.489195
SHSW01043717201318BK.jpg
0 6.942243 -26.454536 54.189827 -0.452006 -0.524792 -0.721307 0.099884 0.399542
0 8.911090 -23.341888 64.352806 -0.938334 0.334540 0.087252 0.088743 0.435498
0 10.433767 -16.125095 55.222954 -0.968861 0.228131 0.096256 0.064869 0.403404
SHSW01043717201318BK.jpg
0 10.433767 -16.125095 55.222954 -0.968861 0.228131 0.096256 0.064869 0.403404
0 7.997150 -21.968815 50.147308 0.276464 -0.758829 -0.589700 0.084940 0.385483
0 6.942243 -26.454536 54.189827 -0.452006 -0.524792 -0.721307 0.099884 0.399542
SHSW01043717201318BK.jpg
0 4.616271 -32.718067 57.090027 -0.580403 -0.739703 -0.340547 0.120845 0.409625
0 8.911090 -23.341888 64.352806 -0.938334 0.334540 0.087252 0.088743 0.435498
0 6.942243 -26.454536 54.189827 -0.452006 -0.524792 -0.721307 0.099884 0.399542
SHSW01043717201318BK.jpg
0 5.589140 -31.534901 63.372520 -0.511151 -0.768229 0.385420 0.115758 0.431605
0 8.911090 -23.341888 64.352806 -0.938334 0.334540 0.087252 0.088743 0.435498
0 4.616271 -32.718067 57.090027 -0.580403 -0.739703 -0.340547 0.120845 0.409625
SHSW01043717201318BK.jpg
0 12.375379 -18.767120 84.100616 -0.286444 0.950565 0.119899 0.071467 0.505431
0 11.971478 -20.214230 84.364357 -0.504510 -0.814592 0.286198 0.076463 0.506451
0 12.493185 -19.535698 88.099739 0.760763 0.475122 0.442153 0.073412 0.519439
SHSW01043717201318BK.jpg
0 8.001376 -27.734329 71.065048 -0.483425 -0.670224 0.563117 0.102648 0.459553
0 8.911090 -23.341888 64.352806 -0.938334 0.334540 0.087252 0.088743 0.435498
0 5.589140 -31.534901 63.372520 -0.511151 -0.768229 0.385420 0.115758 0.431605
SHSW01043717201318BK.jpg
0 8.911090 -23.341888 64.352806 -0.938334 0.334540 0.087252 0.088743 0.435498
0 11.293435 -18.634655 72.616829 -0.591306 0.796184 0.128248 0.072625 0.465435
0 11.726308 -15.141543 66.605179 -0.049073 0.672849 0.738151 0.060707 0.444388
SHSW01043717201318BK.jpg
0 8.911090 -23.341888 64.352806 -0.938334 0.334540 0.087252 0.088743 0.435498
0 11.726308 -15.141543 66.605179 -0.049073 0.672849 0.738151 0.060707 0.444388
0 10.433767 -16.125095 55.222954 -0.968861 0.228131 0.096256 0.064869 0.403404
SHSW01043717201318BK.jpg
0 10.433767 -16.125095 55.222954 -0.968861 0.228131 0.096256 0.064869 0.403404
0 8.812531 -18.182182 41.288086 -0.878095 0.144285 0.456214 0.073062 0.354436
0 7.997150 -21.968815 50.147308 0.276464 -0.758829 -0.589700 0.084940 0.385483
SHSW01043717201318BK.jpg
0 11.726308 -15.141543 66.605179 -0.049073 0.672849 0.738151 0.060707 0.444388
0 12.672596 -10.094277 65.639626 0.187308 -0.409178 0.893022 0.043723 0.440321
0 10.433767 -16.125095 55.222954 -0.968861 0.228131 0.096256 0.064869 0.403404
SHSW01043717201318BK.jpg
0 13.751611 -0.421117 68.208466 -0.993133 0.004616 0.116897 0.011688 0.449195
0 12.734860 -0.127295 54.934135 -0.996793 0.005335 0.079843 0.011874 0.402196
0 10.433767 -16.125095 55.222954 -0.968861 0.228131 0.096256 0.064869 0.403404
SHSW01043717201318BK.jpg
0 10.433767 -16.125095 55.222954 -0.968861 0.228131 0.096256 0.064869 0.403404
0 12.672596 -10.094277 65.639626 0.187308 -0.409178 0.893022 0.043723 0.440321
0 13.751611 -0.421117 68.208466 -0.993133 0.004616 0.116897 0.011688 0.449195
SHSW01043717201318BK.jpg
0 12.734860 -0.127295 54.934135 -0.996793 0.005335 0.079843 0.011874 0.402196
0 11.636243 0.211597 39.617813 -0.999343 0.006233 0.035702 0.012086 0.348196
0 8.812531 -18.182182 41.288086 -0.878095 0.144285 0.456214 0.073062 0.354436
SHSW01043717201318BK.jpg
0 8.812531 -18.182182 41.288086 -0.878095 0.144285 0.456214 0.073062 0.354436
0 10.433767 -16.125095 55.222954 -0.968861 0.228131 0.096256 0.064869 0.403404
0 12.734860 -0.127295 54.934135 -0.996793 0.005335 0.079843 0.011874 0.402196
SHSW01043717201318BK.jpg
0 -2.527736 -52.725002 76.759590 -0.019468 0.500864 0.865307 0.186577 0.477883
0 -3.266387 -53.840588 75.003548 -0.559254 -0.508398 -0.654803 0.189600 0.471896
0 -4.708471 -57.425396 78.774681 0.819223 -0.508378 0.265379 0.201549 0.484943
SHSW01043717201318BK.jpg
0 3.754338 -32.768330 43.029312 -0.924318 -0.195194 -0.327926 0.122038 0.360629
0 6.881993 -25.185253 46.276443 0.055599 0.686382 0.725113 0.095995 0.371526
0 8.812531 -18.182182 41.288086 -0.878095 0.144285 0.456214 0.073062 0.354436
SHSW01043717201318BK.jpg
0 8.812531 -18.182182 41.288086 -0.878095 0.144285 0.456214 0.073062 0.354436
0 5.434236 -27.530491 37.267784 -0.048784 -0.411920 -0.909913 0.105117 0.340562
0 3.754338 -32.768330 43.029312 -0.924318 -0.195194 -0.327926 0.122038 0.360629
SHSW01043717201318BK.jpg
0 2.050630 -38.425808 51.906235 -0.586636 -0.683790 -0.433923 0.139916 0.391699
0 4.869564 -33.205730 55.703331 -0.094692 0.806686 0.583344 0.122865 0.404633
0 6.881993 -25.185253 46.276443 0.055599 0.686382 0.725113 0.095995 0.371526
SHSW01043717201318BK.jpg
0 6.881993 -25.185253 46.276443 0.055599 0.686382 0.725113 0.095995 0.371526
0 3.754338 -32.768330 43.029312 -0.924318 -0.195194 -0.327926 0.122038 0.360629
0 2.050630 -38.425808 51.906235 -0.586636 -0.683790 -0.433923 0.139916 0.391699
SHSW01043717201318BK.jpg
0 0.974662 -42.190792 60.699715 -0.622726 -0.631406 -0.462102 0.151798 0.421746
0 2.812709 -39.253376 64.199707 -0.071248 0.788697 0.610640 0.141746 0.434707
0 4.869564 -33.205730 55.703331 -0.094692 0.806686 0.583344 0.122865 0.404633
SHSW01043717201318BK.jpg
0 4.869564 -33.205730 55.703331 -0.094692 0.806686 0.583344 0.122865 0.404633
0 2.050630 -38.425808 51.906235 -0.586636 -0.683790 -0.433923 0.139916 0.391699
0 0.974662 -42.190792 60.699715 -0.622726 -0.631406 -0.462102 0.151798 0.421746
SHSW01043717201318BK.jpg
0 -0.743480 -47.513836 68.098671 -0.595494 -0.552301 -0.583395 0.169695 0.447817
0 0.776783 -44.988873 71.189262 -0.044497 0.662450 0.747783 0.160652 0.458781
0 2.812709 -39.253376 64.199707 -0.071248 0.788697 0.610640 0.141746 0.434707
SHSW01043717201318BK.jpg
0 2.812709 -39.253376 64.199707 -0.071248 0.788697 0.610640 0.141746 0.434707
0 0.974662 -42.190792 60.699715 -0.622726 -0.631406 -0.462102 0.151798 0.421746
0 -0.743480 -47.513836 68.098671 -0.595494 -0.552301 -0.583395 0.169695 0.447817
SHSW01043717201318BK.jpg
0 -3.266387 -53.840588 75.003548 -0.559254 -0.508398 -0.654803 0.189600 0.471896
0 -2.527736 -52.725002 76.759590 -0.019468 0.500864 0.865307 0.186577 0.477883
0 0.776783 -44.988873 71.189262 -0.044497 0.662450 0.747783 0.160652 0.458781
SHSW01043717201318BK.jpg
0 0.776783 -44.988873 71.189262 -0.044497 0.662450 0.747783 0.160652 0.458781
0 -0.743480 -47.513836 68.098671 -0.595494 -0.552301 -0.583395 0.169695 0.447817
0 -3.266387 -53.840588 75.003548 -0.559254 -0.508398 -0.654803 0.189600 0.471896
SHSW01043717201318BK.jpg
0 6.316926 -20.270439 30.553532 -0.490427 -0.560657 0.667192 0.081212 0.316468
0 8.199257 -13.143779 26.808226 -0.963495 0.239458 0.119738 0.058263 0.303377
0 7.522886 -14.970803 20.686884 -0.970631 0.227604 0.077924 0.064350 0.281401
SHSW01043717201318BK.jpg
0 7.522886 -14.970803 20.686884 -0.970631 0.227604 0.077924 0.064350 0.281401
0 4.558342 -25.025856 25.240440 -0.694562 0.394012 0.601945 0.097287 0.297531
0 6.316926 -20.270439 30.553532 -0.490427 -0.560657 0.667192 0.081212 0.316468
SHSW01043717201318BK.jpg
0 7.647285 -18.964916 33.968430 -0.676898 -0.631536 -0.378115 0.077165 0.328452
0 9.631990 -12.146335 35.077087 -0.967937 0.199996 0.151983 0.054149 0.332361
0 8.199257 -13.143779 26.808226 -0.963495 0.239458 0.119738 0.058263 0.303377
SHSW01043717201318BK.jpg
0 8.199257 -13.143779 26.808226 -0.963495 0.239458 0.119738 0.058263 0.303377
0 6.316926 -20.270439 30.553532 -0.490427 -0.560657 0.667192 0.081212 0.316468
0 7.647285 -18.964916 33.968430 -0.676898 -0.631536 -0.378115 0.077165 0.328452
SHSW01043717201318BK.jpg
0 5.434236 -27.530491 37.267784 -0.048784 -0.411920 -0.909913 0.105117 0.340562
0 8.812531 -18.182182 41.288086 -0.878095 0.144285 0.456214 0.073062 0.354436
0 7.113340 -23.146523 37.480179 -0.802793 -0.064471 -0.592761 0.090113 0.341502
SHSW01043717201318BK.jpg
0 7.113340 -23.146523 37.480179 -0.802793 -0.064471 -0.592761 0.090113 0.341502
0 9.535129 -15.735524 38.405769 -0.974875 0.212642 0.066347 0.065101 0.344405
0 9.631990 -12.146335 35.077087 -0.967937 0.199996 0.151983 0.054149 0.332361
SHSW01043717201318BK.jpg
0 9.631990 -12.146335 35.077087 -0.967937 0.199996 0.151983 0.054149 0.332361
0 7.647285 -18.964916 33.968430 -0.676898 -0.631536 -0.378115 0.077165 0.328452
0 7.113340 -23.146523 37.480179 -0.802793 -0.064471 -0.592761 0.090113 0.341502
SHSW01043717201318BK.jpg
0 2.463452 -29.952042 22.466484 0.027015 -0.872660 -0.487580 0.120185 0.283692
0 0.154770 -37.304737 34.362389 -0.134084 0.316110 0.939200 0.138160 0.329692
0 4.558342 -25.025856 25.240440 -0.694562 0.394012 0.601945 0.097287 0.297531
SHSW01043717201318BK.jpg
0 4.558342 -25.025856 25.240440 -0.694562 0.394012 0.601945 0.097287 0.297531
0 7.522886 -14.970803 20.686884 -0.970631 0.227604 0.077924 0.064350 0.281401
0 3.351562 -23.813606 6.198561 -0.949396 -0.307706 -0.062966 0.095550 0.230523
SHSW01043717201318BK.jpg
0 3.351562 -23.813606 6.198561 -0.949396 -0.307706 -0.062966 0.095550 0.230523
0 2.463452 -29.952042 22.466484 0.027015 -0.872660 -0.487580 0.120185 0.283692
0 4.558342 -25.025856 25.240440 -0.694562 0.394012 0.601945 0.097287 0.297531
SHSW01043717201318BK.jpg
0 3.033667 -10.941976 -38.294090 0.347048 -0.815224 -0.463646 0.056169 0.073367
0 4.577026 1.939076 -38.159012 -0.998186 0.005738 0.059935 0.013169 0.073198
0 3.238348 -5.156097 -46.501030 0.498205 -0.665292 -0.556038 0.037283 0.044292
SHSW01043717201318BK.jpg
0 3.229697 -1.302599 -50.861526 -0.281205 -0.677096 -0.680047 0.025346 0.028245
0 4.577026 1.939076 -38.159012 -0.998186 0.005738 0.059935 0.013169 0.073198
0 3.195494 2.289797 -53.989861 -0.354501 0.021471 -0.934809 0.013390 0.017198
SHSW01043717201318BK.jpg
0 2.401906 -15.437985 -28.269981 -0.406854 -0.859284 -0.310001 0.070031 0.108422
0 6.458712 1.461247 -16.597113 -0.996810 0.005316 0.079635 0.012870 0.149197
0 4.577026 1.939076 -38.159012 -0.998186 0.005738 0.059935 0.013169 0.073198
SHSW01043717201318BK.jpg
0 4.577026 1.939076 -38.159012 -0.998186 0.005738 0.059935 0.013169 0.073198
0 3.033667 -10.941976 -38.294090 0.347048 -0.815224 -0.463646 0.056169 0.073367
0 2.401906 -15.437985 -28.269981 -0.406854 -0.859284 -0.310001 0.070031 0.108422
SHSW01043717201318BK.jpg
0 2.967492 -18.638714 -16.595697 0.136548 -0.954892 -0.263698 0.079869 0.149461
0 6.458712 1.461247 -16.597113 -0.996810 0.005316 0.079635 0.012870 0.149197
0 2.401906 -15.437985 -28.269981 -0.406854 -0.859284 -0.310001 0.070031 0.108422
SHSW01043717201318BK.jpg
0 3.351562 -23.813606 6.198561 -0.949396 -0.307706 -0.062966 0.095550 0.230523
0 8.452456 0.954125 6.253866 -0.993921 0.004701 0.109998 0.012551 0.230196
0 6.458712 1.461247 -16.597113 -0.996810 0.005316 0.079635 0.012870 0.149197
SHSW01043717201318BK.jpg
0 6.458712 1.461247 -16.597113 -0.996810 0.005316 0.079635 0.012870 0.149197
0 2.967492 -18.638714 -16.595697 0.136548 -0.954892 -0.263698 0.079869 0.149461
0 3.351562 -23.813606 6.198561 -0.949396 -0.307706 -0.062966 0.095550 0.230523
SHSW01043717201318BK.jpg
0 3.238348 -5.156097 -46.501030 0.498205 -0.665292 -0.556038 0.037283 0.044292
0 4.577026 1.939076 -38.159012 -0.998186 0.005738 0.059935 0.013169 0.073198
0 3.229697 -1.302599 -50.861526 -0.281205 -0.677096 -0.680047 0.025346 0.028245
SHSW01043717201318BK.jpg
0 8.199257 -13.143779 26.808226 -0.963495 0.239458 0.119738 0.058263 0.303377
0 9.723185 0.630660 20.812235 -0.994970 0.004932 0.100055 0.012350 0.281196
0 7.522886 -14.970803 20.686884 -0.970631 0.227604 0.077924 0.064350 0.281401
SHSW01043717201318BK.jpg
0 9.631990 -12.146335 35.077087 -0.967937 0.199996 0.151983 0.054149 0.332361
0 11.636243 0.211597 39.617813 -0.999343 0.006233 0.035702 0.012086 0.348196
0 9.723185 0.630660 20.812235 -0.994970 0.004932 0.100055 0.012350 0.281196
SHSW01043717201318BK.jpg
0 9.723185 0.630660 20.812235 -0.994970 0.004932 0.100055 0.012350 0.281196
0 8.199257 -13.143779 26.808226 -0.963495 0.239458 0.119738 0.058263 0.303377
0 9.631990 -12.146335 35.077087 -0.967937 0.199996 0.151983 0.054149 0.332361
SHSW01043717201318BK.jpg
0 7.522886 -14.970803 20.686884 -0.970631 0.227604 0.077924 0.064350 0.281401
0 9.723185 0.630660 20.812235 -0.994970 0.004932 0.100055 0.012350 0.281196
0 8.452456 0.954125 6.253866 -0.993921 0.004701 0.109998 0.012551 0.230196
SHSW01043717201318BK.jpg
0 8.452456 0.954125 6.253866 -0.993921 0.004701 0.109998 0.012551 0.230196
0 3.351562 -23.813606 6.198561 -0.949396 -0.307706 -0.062966 0.095550 0.230523
0 7.522886 -14.970803 20.686884 -0.970631 0.227604 0.077924 0.064350 0.281401
SHSW01043717201318BK.jpg
0 8.812531 -18.182182 41.288086 -0.878095 0.144285 0.456214 0.073062 0.354436
0 11.636243 0.211597 39.617813 -0.999343 0.006233 0.035702 0.012086 0.348196
0 9.535129 -15.735524 38.405769 -0.974875 0.212642 0.066347 0.065101 0.344405
SHSW01043717201318BK.jpg
0 9.535129 -15.735524 38.405769 -0.974875 0.212642 0.066347 0.065101 0.344405
0 11.636243 0.211597 39.617813 -0.999343 0.006233 0.035702 0.012086 0.348196
0 9.631990 -12.146335 35.077087 -0.967937 0.199996 0.151983 0.054149 0.332361
SHSW01043717201318BK.jpg
0 10.917567 -22.208061 22.261719 0.860240 -0.490735 0.138442 0.761115 0.838431
0 6.316926 -20.270439 30.553532 -0.490427 -0.560657 0.667192 0.786659 0.926322
0 4.558342 -25.025856 25.240440 -0.694562 0.394012 0.601945 0.733016 0.867227
SHSW01043717201318BK.jpg
0 11.243656 -21.404392 80.606499 -0.817154 -0.458653 0.349137 0.080514 0.493467
0 11.971478 -20.214230 84.364357 -0.504510 -0.814592 0.286198 0.076463 0.506451
0 12.375379 -18.767120 84.100616 -0.286444 0.950565 0.119899 0.071467 0.505431
SHSW01043717201318BK.jpg
0 12.375379 -18.767120 84.100616 -0.286444 0.950565 0.119899 0.071467 0.505431
0 12.025092 -18.678501 79.878532 -0.035782 0.998268 -0.046694 0.071526 0.490431
0 11.243656 -21.404392 80.606499 -0.817154 -0.458653 0.349137 0.080514 0.493467
SHSW01043717201318BK.jpg
0 11.293435 -18.634655 72.616829 -0.591306 0.796184 0.128248 0.072625 0.465435
0 8.911090 -23.341888 64.352806 -0.938334 0.334540 0.087252 0.088743 0.435498
0 8.001376 -27.734329 71.065048 -0.483425 -0.670224 0.563117 0.102648 0.459553
SHSW01043717201318BK.jpg
0 8.001376 -27.734329 71.065048 -0.483425 -0.670224 0.563117 0.102648 0.459553
0 10.060958 -23.654766 76.079391 0.002837 -0.839090 0.543985 0.088577 0.477498
0 11.293435 -18.634655 72.616829 -0.591306 0.796184 0.128248 0.072625 0.465435
SHSW01043717201318BK.jpg
0 11.293435 -18.634655 72.616829 -0.591306 0.796184 0.128248 0.072625 0.465435
0 10.060958 -23.654766 76.079391 0.002837 -0.839090 0.543985 0.088577 0.477498
0 11.243656 -21.404392 80.606499 -0.817154 -0.458653 0.349137 0.080514 0.493467
SHSW01043717201318BK.jpg
0 11.243656 -21.404392 80.606499 -0.817154 -0.458653 0.349137 0.080514 0.493467
0 12.025092 -18.678501 79.878532 -0.035782 0.998268 -0.046694 0.071526 0.490431
0 11.293435 -18.634655 72.616829 -0.591306 0.796184 0.128248 0.072625 0.465435
SHSW01043717201318BK.jpg
0 7.113340 -23.146523 37.480179 -0.802793 -0.064471 -0.592761 0.090113 0.341502
0 8.812531 -18.182182 41.288086 -0.878095 0.144285 0.456214 0.073062 0.354436
0 9.535129 -15.735524 38.405769 -0.974875 0.212642 0.066347 0.065101 0.344405
end
